<svg width="62" height="62" viewBox="0 0 62 62" fill="none" xmlns="http://www.w3.org/2000/svg">
<circle cx="31" cy="31" r="31" fill="#8763FC" fill-opacity="0.1"/>
<path d="M30.2094 31.3953C35.013 31.3953 38.9071 27.5013 38.9071 22.6977C38.9071 17.8941 35.013 14 30.2094 14C25.4058 14 21.5117 17.8941 21.5117 22.6977C21.5117 27.5013 25.4058 31.3953 30.2094 31.3953Z" fill="#8763FC"/>
<path fill-rule="evenodd" clip-rule="evenodd" d="M32.4628 46.4369C30.8197 44.672 29.814 42.3063 29.814 39.7065C29.814 37.045 30.8687 34.627 32.583 32.8495C31.8081 32.7894 31.0158 32.7578 30.2093 32.7578C24.9559 32.7578 20.305 34.072 17.4174 36.0408C15.2145 37.5431 14 39.4519 14 41.4555V43.7485C14 44.4617 14.2831 45.1465 14.7875 45.6493C15.292 46.1538 15.9752 46.4369 16.6884 46.4369H32.4628Z" fill="#8763FC"/>
<path fill-rule="evenodd" clip-rule="evenodd" d="M39.6978 31.4023C35.1149 31.4023 31.3955 35.1218 31.3955 39.7047C31.3955 44.2876 35.1149 48.007 39.6978 48.007C44.2807 48.007 48.0002 44.2876 48.0002 39.7047C48.0002 35.1218 44.2807 31.4023 39.6978 31.4023ZM35.8772 41.0868L38.2493 42.6682C38.7189 42.9813 39.3468 42.9196 39.7453 42.5196L43.6988 38.5661C44.1621 38.1043 44.1621 37.3516 43.6988 36.8898C43.237 36.4264 42.4843 36.4264 42.0225 36.8898L38.7553 40.1554L37.1929 39.1132C36.6489 38.7495 35.912 38.8982 35.5483 39.4422C35.1845 39.9862 35.3332 40.7231 35.8772 41.0868Z" fill="#8763FC"/>
</svg>
