<svg width="200" height="150" viewBox="0 0 200 150" fill="none" xmlns="http://www.w3.org/2000/svg">
<g clip-path="url(#clip0_10844_78593)">
<path opacity="0.9" d="M115.708 12.3657C95.8924 32.6332 85.528 34.0978 60.4218 45.3097C39.8963 54.4761 19.5719 72.2931 12.6386 94.4934C-5.62603 152.977 75.5565 160.29 113.889 150.743C140.877 144.021 151.674 128.539 158.507 102.857C161.165 92.8687 161.941 82.0652 166.319 72.5594C171.022 62.3468 180.654 57.3747 185.449 48.4083C208.69 4.94671 142.121 -14.6501 115.708 12.3657Z" fill="#FFE3E3" fill-opacity="0.56"/>
<path d="M30.0657 39.0014L29.6172 25.6282L42.9903 25.1797L43.4389 38.5528L30.0657 39.0014ZM30.8138 26.7472L31.1847 37.8047L42.2422 37.4338L41.8713 26.3763L30.8138 26.7472Z" fill="black"/>
<path d="M165.874 43.2497C165.874 45.0011 164.454 46.4213 162.703 46.4213C160.951 46.4213 159.531 45.0012 159.531 43.2497C159.531 41.4982 160.951 40.0781 162.703 40.0781C164.454 40.0781 165.874 41.4982 165.874 43.2497Z" fill="#EC6750"/>
<path d="M61.1895 20.6144C61.1895 22.9384 59.3054 24.8226 56.9813 24.8226C54.6574 24.8226 52.7734 22.9384 52.7734 20.6144C52.7734 18.2905 54.6574 16.4062 56.9813 16.4062C59.3054 16.4062 61.1895 18.2905 61.1895 20.6144Z" fill="#EC6750"/>
<path d="M128.788 20.3798L128.555 21.2734L137.438 23.5886L137.671 22.6949L128.788 20.3798Z" fill="black"/>
<path d="M133.816 17.4446L131.5 26.3281L132.394 26.5611L134.71 17.6776L133.816 17.4446Z" fill="black"/>
<path d="M151.842 35.0307C147.784 34.655 144.789 31.0483 145.165 26.9906C145.54 22.9329 149.147 19.9374 153.204 20.3131C157.262 20.6887 160.257 24.2955 159.882 28.3532C159.506 32.4108 155.899 35.4063 151.842 35.0307ZM153.103 21.4047C149.648 21.0848 146.576 23.6359 146.256 27.0917C145.936 30.5475 148.487 33.6191 151.943 33.9391C155.398 34.259 158.47 31.7079 158.79 28.2521C159.11 24.7963 156.559 21.7246 153.103 21.4047Z" fill="black"/>
<path d="M87.7708 18.1385L24.8941 118.752C19.8813 126.773 25.364 137.436 34.4932 137.425C124.93 137.31 91.2334 137.429 160.241 137.45C169.366 137.452 174.839 126.794 169.829 118.777L106.937 18.1385C102.408 10.8913 92.2998 10.8913 87.7708 18.1385Z" fill="url(#paint0_linear_10844_78593)"/>
<path d="M91.0938 112.177C91.0938 108.336 93.7606 105.563 97.3875 105.563C101.228 105.563 103.681 108.336 103.681 112.177C103.681 115.91 101.228 118.79 97.3875 118.79C93.6539 118.79 91.0938 115.91 91.0938 112.177ZM93.7202 95.5374L92.3099 47.1867C92.2865 46.383 92.9316 45.7188 93.7357 45.7188H101.039C101.843 45.7188 102.488 46.383 102.465 47.1867L101.055 95.5374C101.032 96.3087 100.401 96.9222 99.629 96.9222H95.1459C94.3743 96.9222 93.7427 96.3087 93.7202 95.5374Z" fill="white" stroke="white" stroke-width="16" stroke-miterlimit="10"/>
<path d="M79.3168 18.2873L24.9864 123.761C20.655 132.17 27.0018 142.342 36.0987 141.575C126.215 133.973 92.6444 136.881 161.417 131.188C170.51 130.436 175.082 119.361 169.426 111.786L98.4169 16.7004C93.3035 9.85311 83.2303 10.69 79.3168 18.2873Z" stroke="black" stroke-miterlimit="10"/>
<path d="M90.9376 112.329C90.8681 108.489 93.4842 105.668 97.1106 105.602C100.95 105.532 103.454 108.261 103.523 112.101C103.591 115.834 101.19 118.758 97.3501 118.827C93.6172 118.895 91.0052 116.062 90.9376 112.329ZM93.2623 95.6445L90.9766 47.3273C90.9387 46.5241 91.5717 45.8483 92.3755 45.8337L99.6779 45.7015C100.482 45.6869 101.139 46.3393 101.13 47.1433L100.596 95.5117C100.587 96.2832 99.9667 96.9081 99.1952 96.922L94.7129 97.0032C93.9415 97.0172 93.2988 96.4152 93.2623 95.6445Z" stroke="black" stroke-miterlimit="10"/>
</g>
<defs>
<linearGradient id="paint0_linear_10844_78593" x1="97.3614" y1="137.45" x2="97.3614" y2="12.7031" gradientUnits="userSpaceOnUse">
<stop stop-color="#E64734"/>
<stop offset="0.0491" stop-color="#E74B37"/>
<stop offset="0.3055" stop-color="#EA5B45"/>
<stop offset="0.5975" stop-color="#EB644D"/>
<stop offset="1" stop-color="#EC6750"/>
</linearGradient>
<clipPath id="clip0_10844_78593">
<rect width="200" height="150" fill="white"/>
</clipPath>
</defs>
</svg>
