<svg width="24" height="24" viewBox="0 0 24 24" fill="none" xmlns="http://www.w3.org/2000/svg">
<g clip-path="url(#clip0_8427_27537)">
<path d="M11.9993 3.27148C10.7955 3.27148 9.81641 4.25054 9.81641 5.45439C9.81641 6.65825 10.7955 7.63725 11.9993 7.63725C13.2032 7.63725 14.1822 6.6582 14.1822 5.45439C14.1822 4.25059 13.2031 3.27148 11.9993 3.27148ZM11.9993 6.54636C11.3974 6.54636 10.9074 6.05632 10.9074 5.45439C10.9074 4.85247 11.3974 4.36243 11.9993 4.36243C12.6012 4.36243 13.0913 4.85247 13.0913 5.45439C13.0913 6.05632 12.6012 6.54636 11.9993 6.54636Z" fill="#092333"/>
<path d="M23.4546 9.81818C23.7561 9.81818 24.0001 9.57569 24.0001 9.27424V7.09266C24.0001 6.90039 23.8989 6.72197 23.7332 6.62394L13.0632 0.287427C13.0584 0.284205 13.0536 0.281546 13.0488 0.278887C12.3856 -0.0886305 11.6378 -0.0997782 10.9362 0.286353L0.266881 6.62394C0.101199 6.72192 0 6.90039 0 7.09266V9.27424C0 9.57569 0.243972 9.81818 0.545472 9.81818H2.18184V19.6368C0.978495 19.6368 0 20.6152 0 21.8184V23.4546C0 23.7561 0.243972 24 0.545472 24H23.4546C23.7561 24 24.0001 23.7561 24.0001 23.4546V21.8184C24.0001 20.6152 23.0216 19.6368 21.8182 19.6368V9.81818H23.4546ZM22.9091 21.8182V22.9091H1.09089V21.8182C1.09089 21.2168 1.58042 20.7273 2.18179 20.7273H2.72726H21.2727H21.8182C22.4196 20.7273 22.9091 21.2168 22.9091 21.8182ZM3.27273 19.6364V9.81818H5.45457V19.6364H3.27273ZM6.54546 19.6364V9.81818H9.81819V19.6364H6.54546ZM10.9091 19.6364V9.81818H13.0909V19.6364H10.9091ZM14.1818 19.6364V9.81818H17.4545V19.6364H14.1818ZM18.5455 19.6364V9.81818H20.7273V19.6364H18.5455ZM1.09089 8.72728V7.40147L11.4775 1.231C11.8173 1.04404 12.1784 1.04455 12.514 1.22726L22.9091 7.40147V8.72728H1.09089Z" fill="#092333"/>
</g>
<defs>
<clipPath id="clip0_8427_27537">
<rect width="24" height="24" fill="white"/>
</clipPath>
</defs>
</svg>
