<svg width="16" height="17" viewBox="0 0 16 17" fill="none" xmlns="http://www.w3.org/2000/svg">
<path d="M12 5.8335C12 4.77263 11.5786 3.75521 10.8284 3.00507C10.0783 2.25492 9.06087 1.8335 8 1.8335C6.93913 1.8335 5.92172 2.25492 5.17157 3.00507C4.42143 3.75521 4 4.77263 4 5.8335C4 10.5002 2 11.8335 2 11.8335H14C14 11.8335 12 10.5002 12 5.8335Z"  stroke-width="1.5" stroke-linecap="round" stroke-linejoin="round"/>
<path d="M9.15335 14.5C9.03614 14.7021 8.86791 14.8698 8.6655 14.9864C8.46309 15.1029 8.2336 15.1643 8.00001 15.1643C7.76643 15.1643 7.53694 15.1029 7.33453 14.9864C7.13212 14.8698 6.96389 14.7021 6.84668 14.5"  stroke-width="1.5" stroke-linecap="round" stroke-linejoin="round"/>
</svg>
