<svg width="21" height="19" viewBox="0 0 21 19" fill="none" xmlns="http://www.w3.org/2000/svg">
<g clip-path="url(#clip0_4714_15574)">
<path d="M16.0802 8.78768L9.18772 15.6802C8.34333 16.5246 7.19811 16.9989 6.00397 16.9989C4.80983 16.9989 3.6646 16.5246 2.82022 15.6802C1.97583 14.8358 1.50146 13.6906 1.50146 12.4964C1.50146 11.3023 1.97583 10.1571 2.82022 9.31268L9.71272 2.42018C10.2756 1.85726 11.0391 1.54102 11.8352 1.54102C12.6313 1.54102 13.3948 1.85726 13.9577 2.42018C14.5206 2.98311 14.8369 3.74659 14.8369 4.54268C14.8369 5.33878 14.5206 6.10226 13.9577 6.66518L7.05772 13.5577C6.77626 13.8391 6.39451 13.9973 5.99647 13.9973C5.59842 13.9973 5.21668 13.8391 4.93522 13.5577C4.65376 13.2762 4.49563 12.8945 4.49563 12.4964C4.49563 12.0984 4.65376 11.7166 4.93522 11.4352L11.3027 5.07518" stroke="#5DA5F5" stroke-width="2" stroke-linecap="round" stroke-linejoin="round"/>
</g>
<defs>
<clipPath id="clip0_4714_15574">
<rect width="18" height="18" fill="white" transform="translate(0 0.5)"/>
</clipPath>
</defs>
</svg>
