<svg width="233" height="236" viewBox="0 0 233 236" fill="none" xmlns="http://www.w3.org/2000/svg">
<path opacity="0.9" d="M188.4 101.812C159.515 93.2924 153.693 84.5623 131.8 67.0006C113.902 52.643 87.2942 42.5149 61.83 46.6021C-5.25174 57.369 21.2552 134.537 46.9858 164.892C65.1016 186.264 85.3516 188.83 114.313 183.024C125.577 180.765 136.883 176.416 148.375 175.946C160.722 175.441 169.803 181.865 180.922 182.026C234.815 182.807 226.903 113.168 188.4 101.812Z" fill="#DFEEFF"/>
<g clip-path="url(#clip0_0_5011)">
<path d="M204.074 167.369H38V167.458H204.074V167.369Z" fill="#EBEBEB"/>
<path d="M92.3056 172.893H82.2856V172.981H92.3056V172.893Z" fill="#EBEBEB"/>
<path d="M69.5895 173.627H56.8845V173.715H69.5895V173.627Z" fill="#EBEBEB"/>
<path d="M187.435 173.434H182.153V173.522H187.435V173.434Z" fill="#EBEBEB"/>
<path d="M181.086 173.434H168.026V173.522H181.086V173.434Z" fill="#EBEBEB"/>
<path d="M131.112 170.295H121.037V170.383H131.112V170.295Z" fill="#EBEBEB"/>
<path d="M156.497 170.295H132.551V170.383H156.497V170.295Z" fill="#EBEBEB"/>
<path d="M116.724 151.581H52.5863C51.5411 151.581 50.6904 150.675 50.6904 149.561V53.4738C50.6904 52.3597 51.5411 51.4531 52.5863 51.4531H116.724C117.769 51.4531 118.619 52.3597 118.619 53.4738V149.561C118.619 150.675 117.769 151.581 116.724 151.581ZM52.5863 51.542C51.5866 51.542 50.7735 52.4086 50.7735 53.4741V149.561C50.7735 150.627 51.5866 151.493 52.5863 151.493H116.724C117.723 151.493 118.536 150.627 118.536 149.561V53.4738C118.536 52.4086 117.723 51.5416 116.724 51.5416L52.5863 51.542Z" fill="#EBEBEB"/>
<path d="M188.567 151.581H124.43C123.384 151.581 122.534 150.675 122.534 149.561V53.4738C122.534 52.3597 123.385 51.4531 124.43 51.4531H188.567C189.612 51.4531 190.463 52.3597 190.463 53.4738V149.561C190.463 150.675 189.612 151.581 188.567 151.581ZM124.43 51.542C123.43 51.542 122.617 52.4086 122.617 53.4741V149.561C122.617 150.627 123.43 151.493 124.43 151.493H188.567C189.567 151.493 190.38 150.627 190.38 149.561V53.4738C190.38 52.4086 189.567 51.5416 188.567 51.5416L124.43 51.542Z" fill="#EBEBEB"/>
<g filter="url(#filter0_d_0_5011)">
<path d="M135.45 126.238H125.895V167.368H135.45V126.238Z" fill="#E6E6E6"/>
<path d="M131.477 167.368H135.449V160.273H127.312L131.477 167.368Z" fill="#F5F5F5"/>
<path d="M66.4391 126.238H56.8845V167.368H66.4391V126.238Z" fill="#E6E6E6"/>
<path d="M135 125.996H63V164.996H135V125.996Z" fill="#F5F5F5"/>
<path d="M132.533 138.115H65.8879V129.654H132.533V138.115ZM66.2201 137.761H132.201V130.008H66.2201V137.761Z" fill="#EBEBEB"/>
<path d="M66.9446 167.368H62.9724V160.273H71.1094L66.9446 167.368Z" fill="#F5F5F5"/>
<path d="M132.534 161.512H65.8882V141.352H132.534V161.512ZM66.2203 161.158H132.202V141.706H66.2203V161.158Z" fill="#EBEBEB"/>
</g>
<path d="M173.473 59.7969H97.9504V115.538H173.473V59.7969Z" fill="#E6E6E6"/>
<path d="M174.862 59.7969H99.3396V115.538H174.862V59.7969Z" fill="#F5F5F5"/>
<path d="M172.369 112.724V62.6113L101.83 62.6113L101.83 112.724L172.369 112.724Z" fill="white"/>
<path d="M172.369 112.724V62.6113H171.32V112.724H172.369Z" fill="#E6E6E6"/>
<path d="M173.831 67.1016H100.369V68.9905H173.831V67.1016Z" fill="#F5F5F5"/>
<g opacity="0.5">
<path d="M173.628 57.9355H170.645V119.846H173.628V57.9355Z" fill="#F0F0F0"/>
<path d="M169.838 57.9355H166.855V119.846H169.838V57.9355Z" fill="#F0F0F0"/>
<path d="M166.048 57.9355H163.065V119.846H166.048V57.9355Z" fill="#F0F0F0"/>
<path d="M162.26 57.9355H159.277V119.846H162.26V57.9355Z" fill="#F0F0F0"/>
<path d="M158.473 57.9355H155.49V119.846H158.473V57.9355Z" fill="#F0F0F0"/>
<path d="M154.683 57.9355H151.7V119.846H154.683V57.9355Z" fill="#F0F0F0"/>
<path d="M150.893 57.9355H147.91V119.846H150.893V57.9355Z" fill="#F0F0F0"/>
<path d="M147.105 57.9355H144.122V119.846H147.105V57.9355Z" fill="#F0F0F0"/>
<path d="M143.315 57.9355H140.332V119.846H143.315V57.9355Z" fill="#F0F0F0"/>
<path d="M139.527 57.9355H136.544V119.846H139.527V57.9355Z" fill="#F0F0F0"/>
<path d="M135.738 57.9355H132.755V119.846H135.738V57.9355Z" fill="#F0F0F0"/>
<path d="M131.95 57.9355H128.967V119.846H131.95V57.9355Z" fill="#F0F0F0"/>
<path d="M128.16 57.9355H125.177V119.846H128.16V57.9355Z" fill="#F0F0F0"/>
<path d="M124.37 57.9355H121.387V119.846H124.37V57.9355Z" fill="#F0F0F0"/>
<path d="M120.582 57.9355H117.599V119.846H120.582V57.9355Z" fill="#F0F0F0"/>
</g>
<path d="M80.5989 66.4553H58.7097V108.88H80.5989V66.4553Z" fill="#F0F0F0"/>
<path d="M85.2987 66.4553H60.1208V108.88H85.2987V66.4553Z" fill="#F5F5F5"/>
<path d="M61.1489 67.462V107.873H84.2731V67.462H61.1489Z" fill="white"/>
<path d="M67.3118 75.5046V99.8304C67.3118 100.37 67.722 100.807 68.2285 100.807H77.1942C77.7004 100.807 78.1109 100.37 78.1109 99.8304V75.5046C78.1109 74.9651 77.7004 74.5275 77.1942 74.5275H68.2285C67.7223 74.5275 67.3118 74.9651 67.3118 75.5046Z" fill="#F5F5F5"/>
<path d="M165.516 101.84L169.993 113.601C169.864 147.617 171.306 149.578 171.32 155.429H160.017C159.611 126.957 163.571 133.358 165.516 101.84Z" fill="#EBEBEB"/>
<path d="M171.824 136.579C162.727 109.884 141.783 118.152 142.721 127.88C143.659 137.609 177.057 151.931 171.824 136.579Z" fill="#EBEBEB"/>
<path d="M168.386 151.972C163.423 134.768 150.225 137.577 150.224 145.482C150.224 153.388 171.241 161.866 168.386 151.972Z" fill="#EBEBEB"/>
<path d="M168.032 120.92C160.24 97.9243 140.834 101.088 142.397 110.79C143.96 120.492 172.513 134.145 168.032 120.92Z" fill="#EBEBEB"/>
<path d="M168.086 110.605C168.808 94.937 154.25 88.4885 155.259 97.8514C156.267 107.214 167.67 119.616 168.086 110.605Z" fill="#EBEBEB"/>
<path d="M166.998 126.647C170.073 107.341 188.729 99.997 186.644 110.925C184.56 121.853 165.23 137.75 166.998 126.647Z" fill="#EBEBEB"/>
<path d="M165.428 115.732C161.805 95.4877 178.566 86.4915 179.048 96.252C179.53 106.012 167.512 127.375 165.428 115.732Z" fill="#EBEBEB"/>
<path d="M163.973 138.6C171.378 119.09 187.235 123.932 185.635 132.81C184.035 141.688 159.714 149.821 163.973 138.6Z" fill="#EBEBEB"/>
<path d="M167.628 152.223C167.463 139.637 178.182 136.383 178.31 143.675C178.437 150.966 167.723 159.462 167.628 152.223Z" fill="#EBEBEB"/>
<path d="M164.355 167.458C158.462 167.458 153.49 163.085 152.281 157.174C151.961 155.611 151.597 154.058 151.023 152.578L150.93 152.34H177.78L177.687 152.578C177.113 154.058 176.749 155.611 176.429 157.174C175.22 163.085 170.248 167.458 164.355 167.458Z" fill="#E0E0E0"/>
<path d="M99.9488 106.212L99.7393 105.938C100.595 105.196 101.512 104.516 102.465 103.916L102.634 104.221C101.695 104.812 100.792 105.482 99.9488 106.212Z" fill="#407BFF"/>
<path d="M93.1288 116.329L92.8176 116.205C93.9439 112.995 95.7445 110.015 98.0237 107.586L98.2585 107.836C96.0126 110.23 94.2386 113.166 93.1288 116.329Z" fill="#407BFF"/>
<path d="M157.48 131.932C157.398 121.59 149.51 113.232 139.787 113.232C137.444 113.232 135.21 113.721 133.163 114.603C129.688 107.026 122.388 101.806 113.943 101.806C103.729 101.806 95.1935 109.44 93.0711 119.645C83.4654 120.304 75.8645 128.811 75.8645 139.215C75.8645 150.048 84.1048 158.831 94.2692 158.831H152.834C160.039 158.831 165.88 152.605 165.88 144.926C165.88 138.991 162.39 133.927 157.48 131.932Z" fill="#407BFF"/>
<path d="M144.306 125.593H97.4399C96.6484 125.593 96.0007 124.903 96.0007 124.059C96.0007 123.216 96.6484 122.525 97.4399 122.525H144.306C145.098 122.525 145.745 123.216 145.745 124.059C145.745 124.903 145.098 125.593 144.306 125.593Z" fill="#263238"/>
<path d="M137.235 146.336H104.507C101.841 146.336 99.6714 144.024 99.6714 141.182C99.6714 138.34 101.841 136.027 104.507 136.027H137.235C139.902 136.027 142.071 138.339 142.071 141.182C142.071 144.024 139.902 146.336 137.235 146.336ZM104.508 136.382C102.024 136.382 100.004 138.535 100.004 141.182C100.004 143.829 102.024 145.983 104.508 145.983H137.235C139.719 145.983 141.739 143.829 141.739 141.182C141.739 138.535 139.719 136.382 137.235 136.382H104.508Z" fill="white"/>
<path d="M112.152 145.096H104.509C102.488 145.096 100.835 143.334 100.835 141.181C100.835 139.027 102.488 137.266 104.509 137.266H112.152C114.173 137.266 115.826 139.027 115.826 141.181C115.826 143.334 114.173 145.096 112.152 145.096Z" fill="white"/>
<path d="M145.644 95.8355L139.431 124.059H102.356L112.725 76.957L138.397 83.3768L145.644 95.8355Z" fill="#407BFF"/>
<path opacity="0.8" d="M145.644 95.8355L139.431 124.059H102.356L112.725 76.957L138.397 83.3768L145.644 95.8355Z" fill="#FAFAFA"/>
<path d="M140.807 101.081L112.647 94.0387C112.243 93.9379 111.99 93.5031 112.085 93.073C112.18 92.6429 112.587 92.3732 112.991 92.4744L141.152 99.5165C141.555 99.6174 141.808 100.052 141.713 100.482C141.619 100.912 141.211 101.182 140.807 101.081Z" fill="#407BFF"/>
<path d="M139.731 105.966L111.571 98.9235C111.167 98.8226 110.914 98.3879 111.009 97.9578C111.104 97.5277 111.512 97.2579 111.915 97.3592L140.076 104.401C140.479 104.502 140.733 104.937 140.638 105.367C140.543 105.797 140.135 106.067 139.731 105.966Z" fill="#407BFF"/>
<path d="M138.657 110.85L110.497 103.808C110.093 103.707 109.84 103.273 109.935 102.843C110.03 102.412 110.438 102.143 110.841 102.244L139.002 109.286C139.405 109.387 139.659 109.822 139.564 110.252C139.469 110.682 139.061 110.951 138.657 110.85Z" fill="#407BFF"/>
<path d="M137.582 115.735L109.421 108.693C109.017 108.592 108.764 108.157 108.859 107.727C108.954 107.297 109.362 107.027 109.766 107.129L137.926 114.171C138.33 114.272 138.583 114.706 138.488 115.137C138.393 115.567 137.985 115.836 137.582 115.735Z" fill="#407BFF"/>
<path d="M125.311 117.82L108.346 113.578C107.942 113.477 107.689 113.042 107.784 112.612C107.879 112.182 108.286 111.912 108.69 112.013L125.655 116.256C126.059 116.357 126.312 116.791 126.217 117.221C126.122 117.652 125.715 117.921 125.311 117.82Z" fill="#407BFF"/>
<path d="M145.644 95.8355L136.176 93.4676L138.397 83.3768L145.644 95.8355Z" fill="#407BFF"/>
</g>
<path d="M19.4485 176.591L19 163.218L32.3732 162.769L32.8217 176.143L19.4485 176.591ZM20.1966 164.337L20.5675 175.394L31.625 175.024L31.2541 163.966L20.1966 164.337Z" fill="black"/>
<path d="M215.343 68.1716C215.343 69.923 213.923 71.3432 212.171 71.3432C210.42 71.3432 209 69.923 209 68.1716C209 66.4201 210.42 65 212.171 65C213.923 65 215.343 66.4201 215.343 68.1716Z" fill="#407BFF"/>
<path d="M50.5762 158.208C50.5762 160.532 48.6921 162.416 46.368 162.416C44.0441 162.416 42.1602 160.532 42.1602 158.208C42.1602 155.884 44.0441 154 46.368 154C48.6921 154 50.5762 155.884 50.5762 158.208Z" fill="#407BFF"/>
<path d="M175.233 36.9413L175 37.835L183.883 40.1502L184.116 39.2565L175.233 36.9413Z" fill="black"/>
<path d="M180.261 34L177.945 42.8835L178.838 43.1166L181.155 34.233L180.261 34Z" fill="black"/>
<path d="M200.709 57.7494C196.651 57.3738 193.656 53.767 194.032 49.7093C194.407 45.6517 198.014 42.6561 202.071 43.0318C206.129 43.4075 209.125 47.0142 208.749 51.0719C208.373 55.1296 204.766 58.1251 200.709 57.7494ZM201.97 44.1234C198.515 43.8035 195.443 46.3547 195.123 49.8104C194.804 53.2662 197.354 56.3379 200.81 56.6578C204.266 56.9777 207.337 54.4266 207.657 50.9709C207.977 47.5151 205.426 44.4433 201.97 44.1234Z" fill="black"/>
<defs>
<filter id="filter0_d_0_5011" x="52.8845" y="125.996" width="86.5652" height="49.3724" filterUnits="userSpaceOnUse" color-interpolation-filters="sRGB">
<feFlood flood-opacity="0" result="BackgroundImageFix"/>
<feColorMatrix in="SourceAlpha" type="matrix" values="0 0 0 0 0 0 0 0 0 0 0 0 0 0 0 0 0 0 127 0" result="hardAlpha"/>
<feOffset dy="4"/>
<feGaussianBlur stdDeviation="2"/>
<feComposite in2="hardAlpha" operator="out"/>
<feColorMatrix type="matrix" values="0 0 0 0 0 0 0 0 0 0 0 0 0 0 0 0 0 0 0.25 0"/>
<feBlend mode="normal" in2="BackgroundImageFix" result="effect1_dropShadow_0_5011"/>
<feBlend mode="normal" in="SourceGraphic" in2="effect1_dropShadow_0_5011" result="shape"/>
</filter>
<clipPath id="clip0_0_5011">
<rect width="152" height="138" fill="white" transform="translate(38 51)"/>
</clipPath>
</defs>
</svg>