<svg width="14" height="15" viewBox="0 0 14 15" fill="none" xmlns="http://www.w3.org/2000/svg">
<path d="M7 14.3979C10.866 14.3979 14 11.2639 14 7.39795C14 3.53196 10.866 0.397949 7 0.397949C3.13401 0.397949 0 3.53196 0 7.39795C0 11.2639 3.13401 14.3979 7 14.3979Z" fill="#48B02C"/>
<path fill-rule="evenodd" clip-rule="evenodd" d="M5.28443 10.3903L3.20344 8.12413C2.91854 7.81389 2.93489 7.32303 3.23982 7.03316C3.54474 6.74329 4.02718 6.75998 4.31208 7.07018L5.91726 8.81815L8.45806 6.40278C8.48091 6.38103 8.50479 6.36111 8.52948 6.34279L9.72432 5.20697C10.0292 4.91709 10.5117 4.93378 10.7966 5.24403C11.0815 5.55423 11.0651 6.04512 10.7602 6.33499L7.11085 9.80419L7.10695 9.79995L5.84459 11L5.28443 10.39V10.3903Z" fill="white"/>
</svg>
