<svg width="201" height="121" viewBox="0 0 201 121" fill="none" xmlns="http://www.w3.org/2000/svg">
<path d="M161.12 38.7572C145.46 -9.6748 61.3129 -11.7804 54.8501 42.5591C54.8501 42.5591 49.8614 43.553 45.4612 42.8753C21.4671 39.1821 -20.5173 85.4105 11.705 120.735H191.647C211.116 86.9997 197.132 52.481 161.12 38.7572H161.12Z" fill="#F6F5F5"/>
<path d="M11.9794 30.6027L11.6387 20.4447L21.7967 20.104L22.1374 30.262L11.9794 30.6027ZM12.5476 21.2946L12.8293 29.6937L21.2284 29.412L20.9467 21.0129L12.5476 21.2946Z" fill="black"/>
<path d="M188.116 22.7675C188.116 24.0978 187.037 25.1765 185.707 25.1765C184.376 25.1765 183.298 24.0978 183.298 22.7675C183.298 21.4371 184.376 20.3584 185.707 20.3584C187.037 20.3584 188.116 21.4371 188.116 22.7675Z" fill="#407BFF"/>
<path d="M37.7393 5.31169C37.7393 7.07689 36.3082 8.50815 34.5429 8.50815C32.7777 8.50815 31.3467 7.07689 31.3467 5.31169C31.3467 3.54649 32.7777 2.11523 34.5429 2.11523C36.3082 2.11523 37.7393 3.54649 37.7393 5.31169Z" fill="#407BFF"/>
<path d="M159.944 5.41492L159.767 6.09375L166.515 7.85233L166.692 7.1735L159.944 5.41492Z" fill="black"/>
<path d="M163.764 3.1751L162.004 9.92285L162.683 10.0998L164.443 3.35209L163.764 3.1751Z" fill="black"/>
<path d="M177.458 16.5379C174.376 16.2525 172.101 13.5129 172.386 10.4308C172.671 7.34862 175.411 5.07329 178.493 5.35863C181.575 5.64398 183.85 8.38362 183.565 11.4658C183.279 14.5479 180.54 16.8232 177.458 16.5379ZM178.416 6.1878C175.791 5.9448 173.458 7.88262 173.215 10.5076C172.972 13.1325 174.91 15.4657 177.534 15.7087C180.159 15.9517 182.493 14.0139 182.736 11.389C182.979 8.76405 181.041 6.43081 178.416 6.1878Z" fill="black"/>
<path d="M89.6191 25.6886C89.0087 23.6719 88.2055 21.7394 87.2265 19.9141L88.7191 15.0359L79.087 5.40377L74.2088 6.89634C72.3835 5.91816 70.4517 5.11419 68.4343 4.50376L66.0403 0H52.4181L50.024 4.50376C48.0074 5.11419 46.0748 5.91742 44.2495 6.89634L39.3713 5.40377L29.7392 15.0359L31.2318 19.9141C30.2529 21.7394 29.4496 23.6712 28.8392 25.6886L24.3354 28.0826V41.7048L28.8392 44.0989C29.4496 46.1155 30.2529 48.0481 31.2318 49.8734L29.7392 54.7516L39.3713 64.3837L44.2495 62.8911C46.0748 63.8693 48.0074 64.6732 50.024 65.2837L52.4181 69.7874H66.0403L68.4343 65.2837C70.451 64.6732 72.3835 63.87 74.2088 62.8911L79.087 64.3837L88.7191 54.7516L87.2265 49.8734C88.2047 48.0481 89.0087 46.1163 89.6191 44.0989L94.1229 41.7048V28.0826L89.6191 25.6886ZM59.2288 54.2431C48.5426 54.2431 39.879 45.5803 39.879 34.8934C39.879 24.2064 48.5419 15.5436 59.2288 15.5436C69.915 15.5436 78.5786 24.2064 78.5786 34.8934C78.5786 45.5803 69.915 54.2431 59.2288 54.2431Z" fill="#407BFF"/>
<path opacity="0.2" d="M89.6191 25.6886C89.0087 23.6719 88.2055 21.7394 87.2265 19.9141L88.7191 15.0359L79.087 5.40377L74.2088 6.89634C72.3835 5.91816 70.4517 5.11419 68.4343 4.50376L66.0403 0H52.4181L50.024 4.50376C48.0074 5.11419 46.0748 5.91742 44.2495 6.89634L39.3713 5.40377L29.7392 15.0359L31.2318 19.9141C30.2529 21.7394 29.4496 23.6712 28.8392 25.6886L24.3354 28.0826V41.7048L28.8392 44.0989C29.4496 46.1155 30.2529 48.0481 31.2318 49.8734L29.7392 54.7516L39.3713 64.3837L44.2495 62.8911C46.0748 63.8693 48.0074 64.6732 50.024 65.2837L52.4181 69.7874H66.0403L68.4343 65.2837C70.451 64.6732 72.3835 63.87 74.2088 62.8911L79.087 64.3837L88.7191 54.7516L87.2265 49.8734C88.2047 48.0481 89.0087 46.1163 89.6191 44.0989L94.1229 41.7048V28.0826L89.6191 25.6886ZM59.2288 54.2431C48.5426 54.2431 39.879 45.5803 39.879 34.8934C39.879 24.2064 48.5419 15.5436 59.2288 15.5436C69.915 15.5436 78.5786 24.2064 78.5786 34.8934C78.5786 45.5803 69.915 54.2431 59.2288 54.2431Z" fill="white"/>
<path d="M59.2293 28.4849C55.6889 28.4849 52.8184 31.3554 52.8184 34.8958C52.8184 38.4363 55.6889 41.3068 59.2293 41.3068C62.7698 41.3068 65.6403 38.4363 65.6403 34.8958C65.6403 31.3554 62.7698 28.4849 59.2293 28.4849Z" fill="#407BFF"/>
<path d="M186.58 47.2884C185.71 44.4053 184.559 41.6435 183.164 39.0298C183.164 39.0298 183.164 39.029 183.164 39.029L185.294 32.0642L171.528 18.2976L164.558 20.4296C161.95 19.0212 159.187 17.8755 156.302 17.006C156.301 17.006 156.301 17.006 156.3 17.0053L152.883 10.5742H133.414L129.995 17.0068C127.112 17.8696 124.351 19.0212 121.737 20.4289L114.768 18.2969L101.002 32.0635L103.131 39.0268C103.131 39.0276 103.131 39.0283 103.13 39.029C101.736 41.6427 100.583 44.4053 99.7139 47.2892L93.2783 50.7098V70.1779L99.7124 73.5978C99.7124 73.5986 99.7131 73.6001 99.7131 73.6008C100.583 76.4847 101.735 79.248 103.13 81.8565C103.131 81.8572 103.131 81.8587 103.131 81.8594L101.001 88.8243L114.768 102.59L121.739 100.457C124.351 101.864 127.112 103.015 129.993 103.878L133.414 110.314H152.883L156.302 103.88C156.302 103.88 156.302 103.88 156.303 103.88C159.187 103.011 161.949 101.865 164.556 100.457L171.528 102.59L185.295 88.8243L183.164 81.8587C183.164 81.8579 183.164 81.8572 183.164 81.8572C184.559 79.2487 185.712 76.4862 186.581 73.6015C186.581 73.6008 186.581 73.6001 186.582 73.5993L193.018 70.1787V50.7105L186.58 47.2884ZM143.146 95.7347C123.658 95.7347 107.859 79.9358 107.859 60.4468C107.859 40.9497 123.657 25.1508 143.146 25.1508C162.635 25.1508 178.443 40.9497 178.443 60.4468C178.443 79.9366 162.635 95.7347 143.146 95.7347Z" fill="#407BFF"/>
<path d="M143.147 30.1021C126.41 30.1021 112.795 43.7183 112.795 60.4544C112.795 77.1905 126.411 90.8068 143.147 90.8068C159.883 90.8068 173.499 77.1905 173.499 60.4544C173.499 43.7183 159.883 30.1021 143.147 30.1021ZM143.147 86.7638C128.64 86.7638 116.838 74.961 116.838 60.4544C116.838 45.9471 128.64 34.145 143.147 34.145C157.654 34.145 169.456 45.9471 169.456 60.4544C169.456 74.9617 157.654 86.7638 143.147 86.7638Z" fill="#407BFF"/>
<path opacity="0.2" d="M143.147 30.1021C126.41 30.1021 112.795 43.7183 112.795 60.4544C112.795 77.1905 126.411 90.8068 143.147 90.8068C159.883 90.8068 173.499 77.1905 173.499 60.4544C173.499 43.7183 159.883 30.1021 143.147 30.1021ZM143.147 86.7638C128.64 86.7638 116.838 74.961 116.838 60.4544C116.838 45.9471 128.64 34.145 143.147 34.145C157.654 34.145 169.456 45.9471 169.456 60.4544C169.456 74.9617 157.654 86.7638 143.147 86.7638Z" fill="black"/>
</svg>
