<svg width="239" height="157" viewBox="0 0 239 157" fill="none" xmlns="http://www.w3.org/2000/svg">
<path d="M112.093 131.103L41.597 155.789C39.1579 156.643 36.4887 155.358 35.635 152.919L0.264048 51.9121C-0.589656 49.473 0.694943 46.8038 3.13399 45.9501L73.6303 21.2641C76.0694 20.4104 78.7386 21.6949 79.5923 24.1333L114.962 125.14C115.817 127.579 114.532 130.249 112.093 131.103Z" fill="#EBEBEB"/>
<path d="M74.535 27.5296L6.33984 51.4102L41.3987 151.527L109.594 127.646L74.535 27.5296Z" fill="#E0E0E0"/>
<path d="M73.3143 27.0608L5.11914 50.9414L39.5085 149.146L107.704 125.266L73.3143 27.0608Z" fill="#FAFAFA"/>
<path d="M107.7 125.264C107.412 124.443 93.5644 85.0178 73.2189 27.0902L73.3432 27.1498C52.6609 34.3956 29.5205 42.5017 5.15867 51.0365L5.15058 51.0395L5.21602 50.9027C18.0701 87.7914 30.0344 121.857 39.5855 149.115L39.4752 149.062C80.9559 134.594 107.031 125.498 107.7 125.264C107.032 125.498 80.978 134.657 39.5325 149.226L39.4509 149.254L39.4222 149.173C29.8719 121.917 17.9341 87.848 5.01381 50.974L4.97852 50.8726L5.07999 50.8373L5.08808 50.8343C29.4521 42.3061 52.5947 34.2059 73.2792 26.9659L73.3718 26.9336L73.4042 27.0255C93.6401 84.9913 107.414 124.443 107.7 125.264Z" fill="#E0E0E0"/>
<path d="M83.5156 133.734C83.5156 133.734 98.7029 120.926 101.335 107.586C101.335 107.586 97.1183 114.196 88.3518 115.403C88.3518 115.403 88.0474 129.409 83.5156 133.734Z" fill="#E0E0E0"/>
<path d="M31.3499 81.1704L27.7586 82.4277C26.4483 82.8866 25.0144 82.1961 24.5556 80.8858L23.2982 77.2945C22.8393 75.9842 23.5298 74.5503 24.8401 74.0907L28.4314 72.8333C29.7418 72.3745 31.1756 73.0649 31.6345 74.3753L32.8919 77.9666C33.3507 79.2776 32.6602 80.7115 31.3499 81.1704Z" fill="#EBEBEB"/>
<path d="M27.9904 79.0108C27.9882 79.0115 27.986 79.0123 27.9838 79.013C27.9286 79.0307 27.8691 79.0233 27.8191 78.9946L26.1749 78.0409C26.0764 77.9843 26.0433 77.8578 26.0999 77.7593C26.1572 77.6615 26.283 77.6277 26.3815 77.6843L27.8316 78.5248L29.5684 74.8099C29.6162 74.707 29.739 74.6629 29.8419 74.7107C29.9449 74.7585 29.9897 74.8813 29.9412 74.9842L28.1095 78.9027C28.0852 78.9542 28.0426 78.9924 27.9904 79.0108Z" fill="white"/>
<path d="M75.0865 57.6218C75.1063 57.6777 66.2495 60.83 55.3072 64.6618C44.3613 68.495 35.475 71.5554 35.4551 71.4995C35.4353 71.4436 44.2899 68.292 55.2359 64.4588C66.1781 60.6271 75.0666 57.566 75.0865 57.6218Z" fill="#E0E0E0"/>
<path d="M54.2856 71.7518C54.2907 71.7658 54.0613 71.8606 53.6429 72.0209C53.1892 72.1893 52.5899 72.4114 51.8649 72.6798C50.3604 73.2268 48.2773 73.9695 45.9721 74.7762C43.6661 75.5835 41.5749 76.3034 40.0579 76.8137C39.3241 77.0556 38.7174 77.2564 38.2579 77.4078C37.8314 77.5439 37.5931 77.6123 37.588 77.5983C37.5828 77.5843 37.8122 77.4895 38.2299 77.3292C38.6836 77.1608 39.2829 76.9387 40.0079 76.6703C41.5124 76.1232 43.5955 75.3806 45.9015 74.5732C48.2067 73.7658 50.2979 73.0467 51.8149 72.5356C52.5487 72.2937 53.1561 72.093 53.6157 71.9415C54.0422 71.8062 54.2804 71.7378 54.2856 71.7518Z" fill="#E0E0E0"/>
<path d="M76.0303 60.325C76.0502 60.3808 67.1933 63.5331 56.2518 67.3649C45.3059 71.1981 36.4195 74.2585 36.4004 74.2026C36.3806 74.1467 45.2353 70.9951 56.1812 67.1627C67.1227 63.3309 76.0112 60.2698 76.0303 60.325Z" fill="#E0E0E0"/>
<path d="M36.4717 95.7905L32.8804 97.0479C31.5701 97.5067 30.1362 96.8162 29.6767 95.5059L28.4193 91.9146C27.9604 90.6043 28.6509 89.1704 29.9612 88.7116L33.5525 87.4542C34.8628 86.9953 36.2967 87.6858 36.7556 88.9961L38.0129 92.5874C38.4725 93.897 37.7821 95.3316 36.4717 95.7905Z" fill="#EBEBEB"/>
<path d="M33.1161 93.6397C33.1139 93.6404 33.1117 93.6412 33.1095 93.6419C33.0544 93.6596 32.9948 93.6522 32.9448 93.6235L31.2999 92.6698C31.2014 92.6132 31.1683 92.4867 31.2249 92.3882C31.2822 92.2904 31.408 92.2559 31.5065 92.3132L32.9566 93.1537L34.6934 89.4388C34.7412 89.3359 34.864 89.2918 34.9669 89.3396C35.0699 89.3874 35.1147 89.5102 35.0662 89.6131L33.2338 93.5316C33.211 93.5831 33.1683 93.6213 33.1161 93.6397Z" fill="white"/>
<path d="M80.2147 72.2586C80.2345 72.3144 71.3776 75.4668 60.4354 79.2985C49.4894 83.1317 40.6031 86.1921 40.584 86.1362C40.5642 86.0803 49.4189 82.9288 60.3648 79.0955C71.307 75.2645 80.1948 72.2027 80.2147 72.2586Z" fill="#E0E0E0"/>
<path d="M59.4125 86.3885C59.4177 86.4025 59.1882 86.4973 58.7706 86.6576C58.3169 86.826 57.7176 87.0481 56.9926 87.3165C55.4881 87.8635 53.405 88.6062 51.0998 89.4129C48.7938 90.2202 46.7026 90.9401 45.1856 91.4504C44.4517 91.6923 43.8451 91.8931 43.3848 92.0446C42.9583 92.1806 42.7201 92.249 42.7149 92.235C42.7098 92.221 42.9392 92.1262 43.3569 91.9659C43.8106 91.7975 44.4098 91.5754 45.1349 91.3071C46.6393 90.76 48.7225 90.0173 51.0284 89.2099C53.3336 88.4025 55.4249 87.6834 56.9418 87.1723C57.6757 86.9304 58.2823 86.7297 58.7426 86.5782C59.1699 86.4429 59.4081 86.3745 59.4125 86.3885Z" fill="#E0E0E0"/>
<path d="M81.158 74.9617C81.1779 75.0176 72.321 78.1699 61.3787 82.0016C50.4328 85.8348 41.5465 88.8952 41.5274 88.8393C41.5075 88.7834 50.3622 85.6319 61.3081 81.7994C72.2497 77.9677 81.1382 74.9058 81.158 74.9617Z" fill="#E0E0E0"/>
<path d="M41.594 110.431L38.0027 111.689C36.6924 112.148 35.2585 111.457 34.7997 110.147L33.5423 106.555C33.0835 105.245 33.7739 103.811 35.0843 103.352L38.6756 102.095C39.9859 101.636 41.4198 102.327 41.8786 103.637L43.136 107.228C43.5941 108.539 42.9044 109.973 41.594 110.431Z" fill="#EBEBEB"/>
<path d="M38.2404 108.28C38.2382 108.281 38.236 108.282 38.2338 108.282C38.1786 108.3 38.1191 108.293 38.0691 108.264L36.4249 107.31C36.3264 107.254 36.2933 107.127 36.3499 107.029C36.4072 106.931 36.533 106.897 36.6315 106.954L38.0816 107.794L39.8184 104.079C39.8669 103.977 39.989 103.932 40.0919 103.98C40.1949 104.028 40.2397 104.151 40.1912 104.254L38.3588 108.172C38.3352 108.223 38.2926 108.262 38.2404 108.28Z" fill="white"/>
<path d="M85.3358 86.8992C85.3556 86.9551 76.4987 90.1074 65.5565 93.9391C54.6105 97.7723 45.7242 100.833 45.7051 100.777C45.6853 100.721 54.5399 97.5694 65.4859 93.7369C76.4281 89.9044 85.3159 86.8433 85.3358 86.8992Z" fill="#E0E0E0"/>
<path d="M64.5356 101.029C64.5407 101.043 64.3113 101.138 63.8929 101.298C63.4392 101.466 62.8399 101.689 62.1149 101.957C60.6104 102.504 58.5273 103.247 56.2221 104.053C53.9161 104.861 51.8249 105.581 50.3079 106.091C49.5741 106.333 48.9674 106.534 48.5078 106.685C48.0814 106.821 47.8431 106.889 47.838 106.875C47.8328 106.861 48.0622 106.767 48.4799 106.606C48.9336 106.438 49.5329 106.216 50.2579 105.947C51.7624 105.4 53.8455 104.658 56.1515 103.85C58.4567 103.043 60.5479 102.324 62.0649 101.813C62.7987 101.571 63.4054 101.37 63.8657 101.219C64.2929 101.084 64.5311 101.016 64.5356 101.029Z" fill="#E0E0E0"/>
<path d="M86.2811 89.6023C86.3009 89.6582 77.444 92.8105 66.5018 96.6422C55.5559 100.475 46.6695 103.536 46.6504 103.48C46.6306 103.424 55.4853 100.272 66.4312 96.44C77.3735 92.6083 86.2612 89.5464 86.2811 89.6023Z" fill="#E0E0E0"/>
<path d="M46.7229 125.068L43.1317 126.325C41.8213 126.784 40.3874 126.094 39.9286 124.783L38.6712 121.192C38.2124 119.882 38.9028 118.448 40.2132 117.989L43.8045 116.732C45.1148 116.273 46.5487 116.963 47.0075 118.274L48.2649 121.865C48.7237 123.175 48.0333 124.609 46.7229 125.068Z" fill="#EBEBEB"/>
<path d="M43.3654 122.909C43.3632 122.91 43.361 122.911 43.3588 122.911C43.3036 122.928 43.2441 122.922 43.1941 122.893L41.5499 121.939C41.4514 121.882 41.4183 121.756 41.4749 121.658C41.5315 121.559 41.658 121.526 41.7565 121.583L43.2066 122.423L44.9434 118.708C44.9912 118.605 45.1147 118.561 45.2169 118.609C45.3199 118.658 45.3647 118.78 45.3162 118.883L43.4838 122.801C43.4602 122.853 43.4169 122.891 43.3654 122.909Z" fill="white"/>
<path d="M90.46 101.52C90.4799 101.576 81.623 104.728 70.6815 108.56C59.7355 112.393 50.8492 115.454 50.8301 115.398C50.8103 115.342 59.6649 112.19 70.6109 108.358C81.5524 104.526 90.4409 101.464 90.46 101.52Z" fill="#E0E0E0"/>
<path d="M69.6613 115.65C69.6664 115.664 69.437 115.759 69.0186 115.919C68.5649 116.088 67.9657 116.31 67.2406 116.578C65.7362 117.125 63.653 117.868 61.3478 118.675C59.0418 119.482 56.9506 120.202 55.4336 120.712C54.6998 120.954 54.0932 121.155 53.6329 121.306C53.2064 121.442 52.9681 121.511 52.963 121.497C52.9578 121.483 53.1872 121.388 53.6049 121.228C54.0586 121.059 54.6579 120.837 55.3829 120.569C56.8874 120.022 58.9705 119.279 61.2765 118.472C63.5817 117.664 65.6729 116.945 67.1899 116.434C67.9237 116.192 68.5304 115.991 68.9907 115.84C69.4179 115.705 69.6562 115.636 69.6613 115.65Z" fill="#E0E0E0"/>
<path d="M91.4061 104.223C91.4259 104.279 82.569 107.432 71.6268 111.263C60.6809 115.097 51.7945 118.157 51.7754 118.101C51.7556 118.045 60.6103 114.894 71.5562 111.061C82.4984 107.229 91.3862 104.168 91.4061 104.223Z" fill="#E0E0E0"/>
<path d="M12.8457 41.3877L14.6458 46.5283C15.6906 49.5115 18.9555 51.0828 21.9386 50.0379L59.6589 36.8294C62.6421 35.7846 64.2135 32.5197 63.1686 29.5373L61.3722 24.4062L12.8457 41.3877Z" fill="#E0E0E0"/>
<path d="M37.6084 34.4146C34.8157 35.3925 31.7487 33.916 30.7707 31.124C29.7927 28.3313 31.2692 25.2643 34.062 24.2863C36.8547 23.3083 39.9217 24.7849 40.8997 27.5776C41.8777 30.3696 40.4011 33.4366 37.6084 34.4146ZM34.7421 26.2283C33.0208 26.8313 32.1104 28.7225 32.7134 30.4439C33.3164 32.1652 35.2069 33.0756 36.929 32.4726C38.6503 31.8696 39.5607 29.9791 38.9577 28.2578C38.354 26.5356 36.4635 25.6253 34.7421 26.2283Z" fill="#E0E0E0"/>
<path d="M67.7602 47.7521C67.7948 47.8498 57.8489 51.4213 45.5485 55.7288C33.2444 60.0377 23.2449 63.4503 23.211 63.3525C23.1765 63.2547 33.1202 59.684 45.425 55.3751C57.7246 51.0676 67.7257 47.6543 67.7602 47.7521Z" fill="#E0E0E0"/>
<path d="M55.0247 49.5788C55.0593 49.6766 50.6805 51.2988 45.2465 53.201C39.811 55.1048 35.3778 56.568 35.344 56.4702C35.3094 56.3724 39.6875 54.7511 45.1229 52.8473C50.5569 50.9443 54.9909 49.4811 55.0247 49.5788Z" fill="#E0E0E0"/>
<path d="M204.833 149.474L144.241 126.558C140.054 124.974 137.942 120.297 139.526 116.109L171.244 32.241C172.828 28.0534 177.506 25.943 181.693 27.526L220.122 42.0593L238.273 83.9687L215.282 144.759C213.698 148.947 209.021 151.057 204.833 149.474Z" fill="#F5F5F5"/>
<path d="M220.12 42.0625L211.193 65.6667C209.72 69.5611 211.683 73.912 215.576 75.385L238.271 83.9719L220.12 42.0625Z" fill="#EBEBEB"/>
<path d="M210.724 67.8555C210.724 67.8555 208.261 73.467 214.066 77.8137C214.285 77.977 214.515 78.1245 214.749 78.2637C217.512 79.9142 235.708 90.7623 235.877 90.3141C236.061 89.8291 238.276 83.971 238.276 83.971L215.58 75.3875C215.58 75.3875 209.987 73.0512 210.724 67.8555Z" fill="#E0E0E0"/>
<path d="M206.478 62.7795C206.363 63.0828 199.994 60.9557 192.254 58.0279C184.512 55.1 178.33 52.4805 178.445 52.1772C178.56 51.8739 184.927 54.0011 192.67 56.9289C200.409 59.8567 206.593 62.4763 206.478 62.7795Z" fill="#E0E0E0"/>
<path d="M219.534 82.9779C219.419 83.2812 208.998 79.621 196.259 74.8035C183.517 69.9843 173.282 65.8326 173.397 65.5293C173.512 65.226 183.932 68.8854 196.675 73.7045C209.414 78.522 219.649 82.6746 219.534 82.9779Z" fill="#E0E0E0"/>
<path d="M219.477 95.6885C219.362 95.9918 208.009 91.9791 194.124 86.7284C180.233 81.4751 169.069 76.9726 169.184 76.6685C169.299 76.3652 180.649 80.377 194.539 85.6302C208.425 90.881 219.592 95.3852 219.477 95.6885Z" fill="#E0E0E0"/>
<path d="M215.498 106.204C215.383 106.507 204.031 102.496 190.146 97.244C176.255 91.9908 165.091 87.4874 165.206 87.1841C165.32 86.8808 176.671 90.8926 190.561 96.1459C204.446 101.397 215.612 105.902 215.498 106.204Z" fill="#E0E0E0"/>
<path d="M211.524 116.708C211.409 117.011 200.057 112.999 186.171 107.748C172.28 102.495 161.116 97.9913 161.231 97.688C161.346 97.3847 172.696 101.397 186.586 106.65C200.473 111.901 211.639 116.406 211.524 116.708Z" fill="#E0E0E0"/>
<path d="M207.545 127.224C207.43 127.527 196.078 123.514 182.193 118.264C168.302 113.01 157.138 108.507 157.253 108.204C157.368 107.9 168.718 111.911 182.608 117.165C196.493 122.416 207.659 126.92 207.545 127.224Z" fill="#E0E0E0"/>
<path d="M34.948 145.513C35.121 145.686 68.327 134.271 68.327 134.271L55.559 104.969L26 116.27L42.26 125.613L34.948 145.513Z" fill="#57B556"/>
<path d="M50.5234 113.801V73.9019C50.5234 73.9019 96.3324 65.5279 129.334 66.0209C162.336 66.5139 196.324 71.9319 196.324 71.9319V110.235C196.324 110.235 92.8844 100.994 50.5234 113.801Z" fill="#57B556"/>
<path d="M50.2852 113.833L68.3262 134.444V110.234C68.3262 110.234 53.2362 112.039 50.2852 113.833Z" fill="#016F00"/>
<path d="M50.5234 73.8984C50.6674 73.8994 50.7304 82.8394 50.6644 93.8654C50.5984 104.894 50.4284 113.831 50.2844 113.831C50.1404 113.83 50.0774 104.891 50.1434 93.8624C50.2094 82.8374 50.3794 73.8984 50.5234 73.8984Z" fill="#016F00"/>
<path d="M211.852 142.454C211.679 142.627 178.473 131.212 178.473 131.212L191.241 101.91L220.8 113.211L204.54 122.554L211.852 142.454Z" fill="#57B556"/>
<path d="M196.514 110.774L178.473 131.385V108.926C184.487 109.127 190.501 109.743 196.514 110.774Z" fill="#016F00"/>
<path d="M196.325 71.9336C196.469 71.9326 196.628 80.6276 196.68 91.3526C196.732 102.081 196.658 110.775 196.514 110.776C196.37 110.777 196.212 102.083 196.159 91.3546C196.107 80.6306 196.181 71.9346 196.325 71.9336Z" fill="#016F00"/>
<path d="M76.3585 91.3948C75.9175 88.2138 78.0445 85.5988 81.3305 85.1428C83.1545 84.8898 84.7695 85.3418 85.9315 86.4108L84.5645 88.0758C83.7435 87.3598 82.7945 87.0608 81.7395 87.2078C79.7645 87.4818 78.5555 89.0628 78.8305 91.0528C79.1065 93.0428 80.7015 94.2358 82.6755 93.9618C83.7305 93.8158 84.5615 93.2698 85.1555 92.3428L86.9245 93.5718C86.0985 94.9308 84.6685 95.8058 82.8285 96.0608C79.5565 96.5138 76.7995 94.5758 76.3585 91.3948Z" fill="white"/>
<path d="M87.2716 89.8903C86.9476 86.7423 89.1606 84.1583 92.5056 83.8143C95.8356 83.4723 98.5406 85.5343 98.8656 88.6973C99.1916 91.8613 96.9616 94.4303 93.6316 94.7733C90.2876 95.1173 87.5956 93.0383 87.2716 89.8903ZM96.3846 88.9533C96.1776 86.9403 94.6136 85.7083 92.7216 85.9033C90.8296 86.0973 89.5486 87.6213 89.7556 89.6343C89.9626 91.6473 91.5266 92.8783 93.4196 92.6843C95.3096 92.4893 96.5916 90.9663 96.3846 88.9533Z" fill="white"/>
<path d="M110.839 93.2241L110.414 86.8491L107.624 92.3031L106.516 92.3741L103.075 87.4571L103.476 93.6971L101.168 93.8451L100.484 83.2171L102.518 83.0861L106.921 89.4351L110.413 82.5791L112.433 82.4491L113.147 93.0751L110.839 93.2241Z" fill="white"/>
<path d="M124.607 85.9472C124.673 88.3202 122.935 89.8452 120.09 89.9262L117.945 89.9862L118.027 92.9232L115.563 92.9922L115.264 82.3432L119.874 82.2142C122.719 82.1332 124.54 83.5592 124.607 85.9472ZM122.112 86.0172C122.079 84.8462 121.299 84.1822 119.793 84.2242L117.785 84.2812L117.889 87.9782L119.897 87.9212C121.403 87.8792 122.144 87.1732 122.112 86.0172Z" fill="white"/>
<path d="M126.479 82.0781H128.943V90.7191H134.283V92.7271H126.479V82.0781Z" fill="white"/>
<path d="M143.885 91.0204L143.828 92.9984L135.582 92.7584L135.892 82.1094L143.94 82.3434L143.882 84.3214L138.284 84.1584L138.217 86.4714L143.162 86.6154L143.106 88.5324L138.161 88.3884L138.089 90.8534L143.885 91.0204Z" fill="white"/>
<path d="M148.437 84.6074L145.037 84.4024L145.158 82.3984L154.42 82.9574L154.299 84.9614L150.898 84.7564L150.378 93.3794L147.918 93.2314L148.437 84.6074Z" fill="white"/>
<path d="M163.389 92.479L163.206 94.449L154.994 93.688L155.976 83.082L163.992 83.825L163.809 85.795L158.233 85.278L158.02 87.581L162.944 88.037L162.767 89.946L157.843 89.49L157.615 91.945L163.389 92.479Z" fill="white"/>
<path d="M166.468 84.0898L171.262 84.7308C174.714 85.1918 176.803 87.5888 176.376 90.7848C175.949 93.9808 173.305 95.7448 169.851 95.2838L165.057 94.6428L166.468 84.0898ZM169.999 93.2628C172.095 93.5428 173.634 92.4748 173.903 90.4548C174.174 88.4338 172.968 86.9998 170.873 86.7198L168.643 86.4218L167.769 92.9648L169.999 93.2628Z" fill="white"/>
<path d="M200 21.228L202.613 24.302L209.992 21.228L207.84 18L200 21.228Z" fill="#0C71A2"/>
<path d="M181.686 7.843C181.686 9.966 179.965 11.686 177.843 11.686C175.721 11.686 174 9.965 174 7.843C174 5.721 175.721 4 177.843 4C179.966 4 181.686 5.721 181.686 7.843Z" fill="#0C75EB"/>
<path d="M119.872 31.1212C119.872 32.1822 119.012 33.0432 117.951 33.0432C116.89 33.0432 116.029 32.1832 116.029 31.1212C116.029 30.0602 116.889 29.1992 117.951 29.1992C119.012 29.2002 119.872 30.0602 119.872 31.1212Z" fill="#0C75EB"/>
<path d="M22.916 22.458C22.916 23.263 22.263 23.916 21.458 23.916C20.653 23.916 20 23.263 20 22.458C20 21.653 20.653 21 21.458 21C22.263 21 22.916 21.653 22.916 22.458Z" fill="#0C75EB"/>
<path d="M40 8.192L44.303 8.454L46.347 0L42.328 0.163002L40 8.192Z" fill="#0C71A2"/>
<path d="M159.404 53.7179L160.851 57.7789L169.429 56.3429L167.702 52.7109L159.404 53.7179Z" fill="#0C75EB"/>
<path d="M72.6188 30.293L69.9688 33.694L75.7848 40.161L77.9228 36.754L72.6188 30.293Z" fill="#0C71A2"/>
</svg>
