<svg width="20" height="20" viewBox="0 0 20 20" fill="none" xmlns="http://www.w3.org/2000/svg">
<path d="M18 10.375C18 10.9344 17.8656 11.4531 17.5969 11.9281C17.3281 12.4031 16.9688 12.775 16.5156 13.0344C16.5281 13.1188 16.5344 13.25 16.5344 13.4281C16.5344 14.275 16.25 14.9937 15.6875 15.5875C15.1219 16.1844 14.4406 16.4812 13.6438 16.4812C13.2875 16.4812 12.9469 16.4156 12.625 16.2844C12.375 16.7969 12.0156 17.2094 11.5437 17.525C11.075 17.8438 10.5594 18 10 18C9.42812 18 8.90938 17.8469 8.44688 17.5344C7.98125 17.225 7.625 16.8094 7.375 16.2844C7.05312 16.4156 6.71562 16.4812 6.35625 16.4812C5.55937 16.4812 4.875 16.1844 4.30312 15.5875C3.73125 14.9937 3.44687 14.2719 3.44687 13.4281C3.44687 13.3344 3.45938 13.2031 3.48125 13.0344C3.02813 12.7719 2.66875 12.4031 2.4 11.9281C2.13438 11.4531 2 10.9344 2 10.375C2 9.78125 2.15 9.23438 2.44688 8.74062C2.74375 8.24687 3.14375 7.88125 3.64375 7.64375C3.5125 7.2875 3.44687 6.92812 3.44687 6.57188C3.44687 5.72813 3.73125 5.00625 4.30312 4.4125C4.875 3.81875 5.55937 3.51875 6.35625 3.51875C6.7125 3.51875 7.05312 3.58438 7.375 3.71563C7.625 3.20312 7.98438 2.79062 8.45625 2.475C8.925 2.15937 9.44063 2 10 2C10.5594 2 11.075 2.15938 11.5437 2.47188C12.0125 2.7875 12.375 3.2 12.625 3.7125C12.9469 3.58125 13.2844 3.51562 13.6438 3.51562C14.4406 3.51562 15.1219 3.8125 15.6875 4.40937C16.2531 5.00625 16.5344 5.725 16.5344 6.56875C16.5344 6.9625 16.475 7.31875 16.3562 7.64062C16.8562 7.87813 17.2563 8.24375 17.5531 8.7375C17.85 9.23438 18 9.78125 18 10.375ZM9.65938 12.7844L12.9625 7.8375C13.0469 7.70625 13.0719 7.5625 13.0437 7.40938C13.0125 7.25625 12.9344 7.13438 12.8031 7.05312C12.6719 6.96875 12.5281 6.94063 12.375 6.9625C12.2188 6.9875 12.0938 7.0625 12 7.19375L9.09062 11.5688L7.75 10.2312C7.63125 10.1125 7.49375 10.0562 7.34062 10.0625C7.18437 10.0688 7.05 10.125 6.93125 10.2312C6.825 10.3375 6.77187 10.4719 6.77187 10.6344C6.77187 10.7937 6.825 10.9281 6.93125 11.0375L8.77187 12.8781L8.8625 12.95C8.96875 13.0219 9.07812 13.0562 9.18437 13.0562C9.39375 13.0531 9.55313 12.9656 9.65938 12.7844Z" fill="#57B556"/>
</svg>
