<svg width="181" height="150" viewBox="0 0 181 150" fill="none" xmlns="http://www.w3.org/2000/svg">
<path opacity="0.9" d="M105.708 12.3657C85.8924 32.6332 75.528 34.0978 50.4218 45.3097C29.8963 54.4761 9.57185 72.2931 2.63864 94.4934C-15.626 152.977 65.5565 160.29 103.889 150.743C130.877 144.021 141.674 128.539 148.507 102.857C151.165 92.8687 151.941 82.0652 156.319 72.5594C161.022 62.3468 170.654 57.3747 175.449 48.4083C198.69 4.94671 132.121 -14.6501 105.708 12.3657Z" fill="#FFE3E3" fill-opacity="0.56"/>
<path d="M20.0716 38.9994L19.623 25.6263L32.9962 25.1777L33.4447 38.5509L20.0716 38.9994ZM20.8197 26.7452L21.1906 37.8027L32.2481 37.4318L31.8772 26.3743L20.8197 26.7452Z" fill="black"/>
<path d="M155.882 43.2497C155.882 45.0011 154.462 46.4213 152.71 46.4213C150.959 46.4213 149.539 45.0012 149.539 43.2497C149.539 41.4982 150.959 40.0781 152.71 40.0781C154.462 40.0781 155.882 41.4982 155.882 43.2497Z" fill="#EC6750"/>
<path d="M51.1992 20.6164C51.1992 22.9403 49.3151 24.8246 46.991 24.8246C44.6671 24.8246 42.7832 22.9403 42.7832 20.6164C42.7832 18.2925 44.6671 16.4082 46.991 16.4082C49.3151 16.4082 51.1992 18.2925 51.1992 20.6164Z" fill="#EC6750"/>
<path d="M118.794 20.3895L118.562 21.2832L127.445 23.5984L127.678 22.7047L118.794 20.3895Z" fill="black"/>
<path d="M123.823 17.4466L121.507 26.3301L122.4 26.5631L124.717 17.6796L123.823 17.4466Z" fill="black"/>
<path d="M141.85 35.0326C137.793 34.657 134.798 31.0502 135.173 26.9926C135.549 22.9349 139.156 19.9394 143.213 20.315C147.271 20.6907 150.266 24.2975 149.89 28.3551C149.515 32.4128 145.908 35.4083 141.85 35.0326ZM143.112 21.4066C139.657 21.0867 136.585 23.6379 136.265 27.0936C135.945 30.5494 138.496 33.6211 141.951 33.941C145.407 34.2609 148.479 31.7098 148.799 28.2541C149.119 24.7983 146.568 21.7265 143.112 21.4066Z" fill="black"/>
<path d="M77.7727 18.1385L14.896 118.752C9.88327 126.773 15.366 137.436 24.4952 137.425C114.932 137.31 81.2353 137.429 150.243 137.45C159.367 137.452 164.841 126.794 159.831 118.777L96.9386 18.1385C92.4097 10.8913 82.3018 10.8913 77.7727 18.1385Z" fill="url(#paint0_linear_3142_123175)"/>
<path d="M81.0986 112.177C81.0986 108.336 83.7655 105.563 87.3924 105.563C91.2326 105.563 93.6861 108.336 93.6861 112.177C93.6861 115.91 91.2326 118.79 87.3924 118.79C83.6588 118.79 81.0986 115.91 81.0986 112.177ZM83.725 95.5374L82.3148 47.1867C82.2913 46.383 82.9365 45.7188 83.7405 45.7188H91.0441C91.8482 45.7188 92.4933 46.383 92.4699 47.1867L91.0596 95.5374C91.0372 96.3087 90.4054 96.9222 89.6339 96.9222H85.1508C84.3792 96.9222 83.7476 96.3087 83.725 95.5374Z" fill="white" stroke="white" stroke-width="16" stroke-miterlimit="10"/>
<path d="M69.3217 18.2873L14.9913 123.761C10.6599 132.17 17.0067 142.342 26.1036 141.575C116.22 133.973 82.6493 136.881 151.422 131.188C160.515 130.436 165.087 119.361 159.43 111.786L88.4218 16.7004C83.3083 9.85311 73.2352 10.69 69.3217 18.2873Z" stroke="black" stroke-miterlimit="10"/>
<path d="M80.9376 112.33C80.8681 108.491 83.4842 105.669 87.1106 105.604C90.9502 105.534 93.4535 108.263 93.5231 112.103C93.5907 115.835 91.1898 118.76 87.3501 118.829C83.6172 118.897 81.0052 116.063 80.9376 112.33ZM83.2623 95.6465L80.9766 47.3292C80.9387 46.5261 81.5717 45.8503 82.3755 45.8357L89.6779 45.7034C90.4819 45.6888 91.1389 46.3413 91.13 47.1453L90.5957 95.5136C90.5872 96.2851 89.9667 96.91 89.1952 96.924L84.7129 97.0052C83.9415 97.0192 83.2988 96.4172 83.2623 95.6465Z" stroke="black" stroke-miterlimit="10"/>
<defs>
<linearGradient id="paint0_linear_3142_123175" x1="87.3634" y1="137.45" x2="87.3634" y2="12.7031" gradientUnits="userSpaceOnUse">
<stop stop-color="#E64734"/>
<stop offset="0.0491" stop-color="#E74B37"/>
<stop offset="0.3055" stop-color="#EA5B45"/>
<stop offset="0.5975" stop-color="#EB644D"/>
<stop offset="1" stop-color="#EC6750"/>
</linearGradient>
</defs>
</svg>
