<svg width="20" height="20" viewBox="0 0 20 20" fill="none" xmlns="http://www.w3.org/2000/svg">
<path fill-rule="evenodd" clip-rule="evenodd" d="M14.9958 5.21567C15.2301 4.98136 15.2301 4.60146 14.9958 4.36714C14.7615 4.13283 14.3816 4.13283 14.1473 4.36714L9.68148 8.83295L5.21567 4.36714C4.98136 4.13283 4.60146 4.13283 4.36714 4.36714C4.13283 4.60146 4.13283 4.98136 4.36714 5.21567L8.83295 9.68148L4.36714 14.1473C4.13283 14.3816 4.13283 14.7615 4.36714 14.9958C4.60146 15.2301 4.98136 15.2301 5.21567 14.9958L9.68148 10.53L14.1473 14.9958C14.3816 15.2301 14.7615 15.2301 14.9958 14.9958C15.2301 14.7615 15.2301 14.3816 14.9958 14.1473L10.53 9.68148L14.9958 5.21567Z" fill="#484964"/>
</svg>
