<svg width="41" height="41" viewBox="0 0 48 48" fill="none" xmlns="http://www.w3.org/2000/svg">
<rect x="0.5" y="0.5" width="47" height="47" rx="7.5" stroke="#C7CCD3"/>
<path d="M27.334 15.6665V18.9998" stroke="#525252" stroke-width="1.39167" stroke-linecap="round" stroke-linejoin="round"/>
<path d="M20.666 15.6665V18.9998" stroke="#525252" stroke-width="1.39167" stroke-linecap="round" stroke-linejoin="round"/>
<path d="M16.5 22.3335H31.5" stroke="#525252" stroke-width="1.39167" stroke-linecap="round" stroke-linejoin="round"/>
<path fill-rule="evenodd" clip-rule="evenodd" d="M17.1964 18.9997C17.1964 18.4635 17.631 18.0289 18.1672 18.0289H29.8339C30.37 18.0289 30.8047 18.4635 30.8047 18.9997V25.6739C31.3558 25.9078 31.8249 26.2294 32.1964 26.616V18.9997C32.1964 17.6949 31.1386 16.6372 29.8339 16.6372H18.1672C16.8624 16.6372 15.8047 17.6949 15.8047 18.9997V30.6664C15.8047 31.9711 16.8624 33.0289 18.1672 33.0289H25.3557C24.6484 32.683 24.0446 32.1976 23.5968 31.6372H18.1672C17.631 31.6372 17.1964 31.2025 17.1964 30.6664V18.9997Z" fill="#525252"/>
<path d="M23.166 28.9998C23.166 28.9998 24.8327 25.6665 27.7493 25.6665C30.666 25.6665 32.3327 28.9998 32.3327 28.9998C32.3327 28.9998 30.666 32.3332 27.7493 32.3332C24.8327 32.3332 23.166 28.9998 23.166 28.9998Z" stroke="#525252" stroke-width="0.833333" stroke-linecap="round" stroke-linejoin="round"/>
<path d="M27.75 30.25C28.4404 30.25 29 29.6904 29 29C29 28.3096 28.4404 27.75 27.75 27.75C27.0596 27.75 26.5 28.3096 26.5 29C26.5 29.6904 27.0596 30.25 27.75 30.25Z" stroke="#525252" stroke-width="0.833333" stroke-linecap="round" stroke-linejoin="round"/>
</svg>
