<svg width="20" height="20" viewBox="0 0 20 20" fill="none" xmlns="http://www.w3.org/2000/svg">
<path d="M10.0003 2.29199C9.18494 2.29199 8.48958 2.81285 8.23188 3.54194C8.11685 3.86739 7.75977 4.03796 7.43433 3.92293C7.10888 3.8079 6.9383 3.45083 7.05333 3.12538C7.48203 1.91248 8.63873 1.04199 10.0003 1.04199C11.362 1.04199 12.5187 1.91248 12.9474 3.12538C13.0624 3.45083 12.8918 3.8079 12.5664 3.92293C12.2409 4.03796 11.8839 3.86739 11.7688 3.54194C11.5111 2.81285 10.8158 2.29199 10.0003 2.29199Z" fill="#849199"/>
<path d="M2.29199 5.00033C2.29199 4.65515 2.57181 4.37533 2.91699 4.37533H17.0837C17.4289 4.37533 17.7087 4.65515 17.7087 5.00033C17.7087 5.3455 17.4289 5.62533 17.0837 5.62533H2.91699C2.57181 5.62533 2.29199 5.3455 2.29199 5.00033Z" fill="#849199"/>
<path d="M4.92956 7.04208C4.9066 6.69767 4.60879 6.43708 4.26437 6.46004C3.91996 6.483 3.65937 6.78082 3.68233 7.12523L4.06854 12.9183C4.13979 13.9873 4.19734 14.8507 4.33231 15.5283C4.47264 16.2327 4.71133 16.8211 5.20432 17.2823C5.69732 17.7436 6.30028 17.9426 7.01249 18.0357C7.69752 18.1254 8.56289 18.1253 9.63421 18.1253H10.3666C11.4379 18.1253 12.3033 18.1254 12.9883 18.0357C13.7005 17.9426 14.3035 17.7436 14.7965 17.2823C15.2895 16.8211 15.5281 16.2327 15.6685 15.5283C15.8034 14.8508 15.861 13.9873 15.9322 12.9184L16.3184 7.12523C16.3414 6.78082 16.0808 6.483 15.7364 6.46004C15.392 6.43708 15.0942 6.69767 15.0712 7.04208L14.6879 12.7913C14.6131 13.9146 14.5597 14.6961 14.4426 15.2841C14.3289 15.8545 14.1703 16.1564 13.9425 16.3695C13.7146 16.5827 13.4028 16.7209 12.8262 16.7963C12.2317 16.8741 11.4483 16.8753 10.3226 16.8753H9.67816C8.55245 16.8753 7.76912 16.8741 7.17461 16.7963C6.59795 16.7209 6.28615 16.5827 6.0583 16.3695C5.83046 16.1564 5.67185 15.8545 5.55822 15.2841C5.44108 14.6961 5.38773 13.9146 5.31285 12.7913L4.92956 7.04208Z" fill="#849199"/>
<path d="M7.85487 8.54509C8.19834 8.51075 8.50462 8.76134 8.53896 9.1048L8.95563 13.2715C8.98998 13.6149 8.73939 13.9212 8.39592 13.9556C8.05246 13.9899 7.74618 13.7393 7.71183 13.3958L7.29517 9.22918C7.26082 8.88572 7.51141 8.57944 7.85487 8.54509Z" fill="#849199"/>
<path d="M12.7056 9.22918C12.74 8.88572 12.4894 8.57944 12.1459 8.54509C11.8025 8.51075 11.4962 8.76134 11.4618 9.1048L11.0452 13.2715C11.0108 13.6149 11.2614 13.9212 11.6049 13.9556C11.9483 13.9899 12.2546 13.7393 12.289 13.3958L12.7056 9.22918Z" fill="#849199"/>
</svg>
