<svg width="16" height="18" viewBox="0 0 16 18" fill="none" xmlns="http://www.w3.org/2000/svg">
<path d="M7.99986 1.29199C7.18445 1.29199 6.48909 1.81285 6.23139 2.54194C6.11636 2.86739 5.75929 3.03796 5.43384 2.92293C5.10839 2.8079 4.93781 2.45083 5.05284 2.12538C5.48154 0.912481 6.63824 0.0419922 7.99986 0.0419922C9.36148 0.0419922 10.5182 0.912481 10.9469 2.12538C11.0619 2.45083 10.8913 2.8079 10.5659 2.92293C10.2404 3.03796 9.88336 2.86739 9.76833 2.54194C9.51064 1.81285 8.81527 1.29199 7.99986 1.29199Z" fill="#849199"/>
<path d="M0.291504 4.00033C0.291504 3.65515 0.571326 3.37533 0.916504 3.37533H15.0832C15.4284 3.37533 15.7082 3.65515 15.7082 4.00033C15.7082 4.3455 15.4284 4.62533 15.0832 4.62533H0.916504C0.571326 4.62533 0.291504 4.3455 0.291504 4.00033Z" fill="#849199"/>
<path d="M2.92907 6.04208C2.90611 5.69767 2.6083 5.43708 2.26388 5.46004C1.91947 5.483 1.65888 5.78082 1.68184 6.12523L2.06805 11.9183C2.1393 12.9873 2.19685 13.8507 2.33182 14.5283C2.47216 15.2327 2.71084 15.8211 3.20384 16.2823C3.69683 16.7436 4.29979 16.9426 5.012 17.0357C5.69703 17.1254 6.5624 17.1253 7.63372 17.1253H8.36608C9.43741 17.1253 10.3028 17.1254 10.9878 17.0357C11.7 16.9426 12.303 16.7436 12.796 16.2823C13.289 15.8211 13.5276 15.2327 13.668 14.5283C13.803 13.8508 13.8605 12.9873 13.9318 11.9184L14.318 6.12523C14.3409 5.78082 14.0803 5.483 13.7359 5.46004C13.3915 5.43708 13.0937 5.69767 13.0707 6.04208L12.6874 11.7913C12.6126 12.9146 12.5592 13.6961 12.4421 14.2841C12.3284 14.8545 12.1698 15.1564 11.942 15.3695C11.7141 15.5827 11.4023 15.7209 10.8257 15.7963C10.2312 15.8741 9.44784 15.8753 8.32214 15.8753H7.67767C6.55197 15.8753 5.76863 15.8741 5.17413 15.7963C4.59746 15.7209 4.28566 15.5827 4.05782 15.3695C3.82997 15.1564 3.67136 14.8545 3.55774 14.2841C3.4406 13.6961 3.38724 12.9146 3.31236 11.7913L2.92907 6.04208Z" fill="#849199"/>
<path d="M5.85439 7.54509C6.19785 7.51075 6.50413 7.76134 6.53847 8.1048L6.95514 12.2715C6.98949 12.6149 6.7389 12.9212 6.39543 12.9556C6.05197 12.9899 5.74569 12.7393 5.71134 12.3958L5.29468 8.22918C5.26033 7.88572 5.51092 7.57944 5.85439 7.54509Z" fill="#849199"/>
<path d="M10.7051 8.22918C10.7395 7.88572 10.4889 7.57944 10.1454 7.54509C9.80197 7.51075 9.49569 7.76134 9.46134 8.1048L9.04468 12.2715C9.01033 12.6149 9.26092 12.9212 9.60439 12.9556C9.94785 12.9899 10.2541 12.7393 10.2885 12.3958L10.7051 8.22918Z" fill="#849199"/>
</svg>
