<svg width="70" height="70" viewBox="0 0 70 70" fill="none" xmlns="http://www.w3.org/2000/svg">
<rect width="70" height="70" rx="35" fill="#FFF6E9"/>
<path d="M17.5 35C17.5 44.6496 25.3504 52.5 35 52.5C44.6496 52.5 52.5 44.6496 52.5 35C52.5 25.3504 44.6498 17.5 35 17.5C25.3502 17.5 17.5 25.3504 17.5 35ZM35 49.3706C27.0761 49.3706 20.6297 42.9241 20.6297 35C20.6297 31.6008 21.8185 28.4753 23.7992 26.012L43.988 46.2008C41.5247 48.1815 38.3994 49.3706 35 49.3706ZM49.3703 35C49.3703 38.3992 48.1815 41.5247 46.201 43.988L26.012 23.7992C28.4753 21.8185 31.6008 20.6297 35 20.6297C42.9239 20.6297 49.3703 27.0761 49.3703 35Z" fill="#F1A22F"/>
</svg>
