<svg width="48" height="48" viewBox="0 0 48 48" fill="none" xmlns="http://www.w3.org/2000/svg">
<circle cx="24" cy="24" r="24" fill="#77D2B7"/>
<path d="M19.8398 23.1393H28.3873V25.1705H19.8398V23.1393ZM19.8398 26.9743H28.3873V29.0055H19.8398V26.9743ZM19.8398 19.2393H28.3873V21.2705H19.8398V19.2393Z" fill="white"/>
<path d="M29.428 12.625L26.6655 11.455L24.1305 12.625L21.4168 11.455L18.8655 12.625L14.998 11V37L18.8655 35.375L21.4168 36.4963L24.1305 35.375L26.6655 36.4963L29.428 35.375L33.003 37V11L29.428 12.625ZM30.9555 33.9287L29.4605 33.2625L26.7143 34.3838L24.163 33.2138L21.433 34.335L18.9143 33.2138L17.0455 33.9775V14.0225L18.9143 14.7862L21.433 13.665L24.163 14.7862L26.7143 13.665L29.4605 14.7862L30.9555 14.12V33.9287Z" fill="white"/>
</svg>
