<svg width="22" height="22" viewBox="0 0 22 22" fill="none" xmlns="http://www.w3.org/2000/svg">
<g clip-path="url(#clip0_415_1487)">
<path fill-rule="evenodd" clip-rule="evenodd" d="M8.52663 1.22018C8.69794 1.04888 8.93028 0.952637 9.17255 0.952637H16.4802C17.9938 0.952637 19.2206 2.17955 19.2206 3.69302V18.3084C19.2206 19.8219 17.9938 21.0488 16.4802 21.0488H5.5187C4.00524 21.0488 2.77832 19.8219 2.77832 18.3084V7.34687C2.77832 7.1046 2.87456 6.87226 3.04586 6.70095L8.52663 1.22018ZM16.4802 2.77956H10.086V7.34687C10.086 7.85135 9.67706 8.26033 9.17255 8.26033H4.60524V18.3084C4.60524 18.8129 5.01422 19.2219 5.5187 19.2219H16.4802C16.9847 19.2219 17.3937 18.8129 17.3937 18.3084V3.69302C17.3937 3.18853 16.9847 2.77956 16.4802 2.77956ZM5.89707 6.43341H8.25909V4.07139L5.89707 6.43341ZM6.43217 11.9142C6.43217 11.4097 6.84114 11.0007 7.34563 11.0007H14.6533C15.1578 11.0007 15.5668 11.4097 15.5668 11.9142C15.5668 12.4187 15.1578 12.8276 14.6533 12.8276H7.34563C6.84114 12.8276 6.43217 12.4187 6.43217 11.9142ZM6.43217 15.568C6.43217 15.0635 6.84114 14.6546 7.34563 14.6546H14.6533C15.1578 14.6546 15.5668 15.0635 15.5668 15.568C15.5668 16.0725 15.1578 16.4815 14.6533 16.4815H7.34563C6.84114 16.4815 6.43217 16.0725 6.43217 15.568Z" fill="#8763FC"/>
</g>
<defs>
<clipPath id="clip0_415_1487">
<rect width="21.9231" height="21.9231" fill="white" transform="translate(0.0380859 0.0385742)"/>
</clipPath>
</defs>
</svg>
