<svg width="53" height="53" viewBox="0 0 53 53" fill="none" xmlns="http://www.w3.org/2000/svg">
<rect width="53" height="53" rx="26.5" fill="#F1F6FE"/>
<path d="M28.5 16.5H20.5C19.9696 16.5 19.4609 16.7107 19.0858 17.0858C18.7107 17.4609 18.5 17.9696 18.5 18.5V34.5C18.5 35.0304 18.7107 35.5391 19.0858 35.9142C19.4609 36.2893 19.9696 36.5 20.5 36.5H32.5C33.0304 36.5 33.5391 36.2893 33.9142 35.9142C34.2893 35.5391 34.5 35.0304 34.5 34.5V22.5L28.5 16.5Z" stroke="#0C75EB" stroke-width="2" stroke-linecap="round" stroke-linejoin="round"/>
<path d="M30.5 31.5H22.5" stroke="#0C75EB" stroke-width="2" stroke-linecap="round" stroke-linejoin="round"/>
<path d="M30.5 27.5H22.5" stroke="#0C75EB" stroke-width="2" stroke-linecap="round" stroke-linejoin="round"/>
<path d="M24.5 23.5H23.5H22.5" stroke="#0C75EB" stroke-width="2" stroke-linecap="round" stroke-linejoin="round"/>
<path d="M28.5 16.5V22.5H34.5" stroke="#0C75EB" stroke-width="2" stroke-linecap="round" stroke-linejoin="round"/>
</svg>
