<svg width="22" height="22" viewBox="0 0 22 22" fill="none" xmlns="http://www.w3.org/2000/svg">
<g clip-path="url(#clip0_13442_76687)">
<path fill-rule="evenodd" clip-rule="evenodd" d="M8.52663 1.22067C8.69794 1.04937 8.93028 0.953125 9.17255 0.953125H16.4802C17.9938 0.953125 19.2206 2.18004 19.2206 3.69351V18.3089C19.2206 19.8224 17.9938 21.0493 16.4802 21.0493H5.5187C4.00524 21.0493 2.77832 19.8224 2.77832 18.3089V7.34736C2.77832 7.10509 2.87456 6.87275 3.04586 6.70144L8.52663 1.22067ZM16.4802 2.78005H10.086V7.34736C10.086 7.85184 9.67706 8.26082 9.17255 8.26082H4.60524V18.3089C4.60524 18.8134 5.01422 19.2224 5.5187 19.2224H16.4802C16.9847 19.2224 17.3937 18.8134 17.3937 18.3089V3.69351C17.3937 3.18902 16.9847 2.78005 16.4802 2.78005ZM5.89707 6.43389H8.25909V4.07187L5.89707 6.43389ZM6.43217 11.9147C6.43217 11.4102 6.84114 11.0012 7.34563 11.0012H14.6533C15.1578 11.0012 15.5668 11.4102 15.5668 11.9147C15.5668 12.4192 15.1578 12.8281 14.6533 12.8281H7.34563C6.84114 12.8281 6.43217 12.4192 6.43217 11.9147ZM6.43217 15.5685C6.43217 15.064 6.84114 14.655 7.34563 14.655H14.6533C15.1578 14.655 15.5668 15.064 15.5668 15.5685C15.5668 16.073 15.1578 16.482 14.6533 16.482H7.34563C6.84114 16.482 6.43217 16.073 6.43217 15.5685Z" fill="#0C75EB"/>
</g>
<defs>
<clipPath id="clip0_13442_76687">
<rect width="21.9231" height="21.9231" fill="white" transform="translate(0.0380859 0.0390625)"/>
</clipPath>
</defs>
</svg>
