<svg width="20" height="20" viewBox="0 0 20 20" fill="none" xmlns="http://www.w3.org/2000/svg">
<g clip-path="url(#clip0_7575_98145)">
<path d="M10.4912 14.4015V14.6928C10.4912 14.964 10.2711 15.1841 9.99988 15.1841C9.72864 15.1841 9.50861 14.964 9.50857 14.6928V14.6928V14.4015H9.37378C9.06734 14.4015 8.77085 14.333 8.49002 14.1984L8.48966 14.1982C8.22518 14.0701 7.9892 13.8887 7.78824 13.66C7.58903 13.4339 7.43414 13.1736 7.3267 12.8855L7.42039 12.8505M10.4912 14.4015L7.42197 7.14374C7.31474 7.42783 7.26074 7.72993 7.26074 8.04061C7.26074 8.3513 7.31474 8.6534 7.42116 8.93748L7.32747 8.97242C7.32747 8.97243 7.32747 8.97244 7.32748 8.97245C7.43494 9.26063 7.58985 9.52089 7.78909 9.74707C7.99003 9.97574 8.22599 10.157 8.49043 10.2851L8.49069 10.2853C8.77083 10.42 9.06735 10.4884 9.37378 10.4884H9.50857V13.4189H9.37378C9.21716 13.4189 9.06373 13.3833 8.91881 13.3138C8.77384 13.243 8.64133 13.1426 8.52632 13.0116C8.40756 12.8752 8.31365 12.7183 8.24826 12.5419L8.2481 12.5414C8.15312 12.2888 7.87308 12.1565 7.61545 12.2529L7.61541 12.2529C7.36129 12.348 7.23137 12.6309 7.32674 12.8856L7.42039 12.8505M10.4912 14.4015H10.626C10.9324 14.4015 11.229 14.333 11.5084 14.1982L11.5085 14.1982C11.773 14.07 12.009 13.8887 12.2099 13.66C12.409 13.434 12.5647 13.1731 12.6706 12.8864C12.783 12.5899 12.839 12.2759 12.839 11.9537C12.839 11.6314 12.783 11.3174 12.6723 11.0219C12.5648 10.7337 12.4099 10.4735 12.2107 10.2473L10.4912 14.4015ZM7.42039 12.8505C7.34449 12.6478 7.4478 12.4224 7.65048 12.3465L7.86336 13.594C7.67238 13.3772 7.5237 13.1276 7.42039 12.8505ZM7.78987 6.33419C7.58995 6.56105 7.43503 6.82125 7.32832 7.10869L12.2107 10.2473C12.0098 10.0186 11.7738 9.83728 11.5093 9.70914L11.509 9.70902C11.2289 9.57428 10.9324 9.50584 10.6259 9.50584H10.4912V6.57542H10.626C10.7826 6.57542 10.936 6.61095 11.0809 6.68048C11.2259 6.7512 11.3584 6.85165 11.4734 6.98261C11.5922 7.11903 11.6861 7.27598 11.7515 7.45243L11.7516 7.45274C11.8468 7.70684 12.128 7.83667 12.3841 7.74149L12.3844 7.74141C12.6384 7.64626 12.7684 7.3635 12.6731 7.10881C12.5656 6.82065 12.4107 6.56042 12.2115 6.33425C12.0106 6.10553 11.7746 5.92423 11.5101 5.79609L11.5097 5.79591C11.2289 5.66123 10.9324 5.59279 10.626 5.59279H10.4912V5.30147C10.4912 5.03024 10.2711 4.81016 9.99988 4.81016C9.72865 4.81016 9.50857 5.03024 9.50857 5.30147V5.59279H9.37378C9.06737 5.59279 8.7708 5.66126 8.4914 5.79601L8.49124 5.79609C8.22678 5.92422 7.99081 6.1055 7.78987 6.33419ZM11.7509 12.5413L11.7508 12.5417C11.6853 12.7176 11.5914 12.8752 11.4727 13.0116C11.3577 13.1426 11.2252 13.243 11.0802 13.3138C10.9352 13.3834 10.7825 13.4189 10.626 13.4189H10.4912V10.4884H10.626C10.7826 10.4884 10.936 10.524 11.0809 10.5935C11.2259 10.6642 11.3584 10.7647 11.4734 10.8956C11.5921 11.032 11.6861 11.189 11.7524 11.3665L11.8461 11.3315L11.7523 11.3662C11.8209 11.5514 11.8564 11.7486 11.8564 11.9537C11.8564 12.1587 11.8209 12.3557 11.7509 12.5413ZM8.24887 7.45295L8.24901 7.45257C8.31452 7.27668 8.40848 7.11895 8.52719 6.98262C8.6422 6.85166 8.77469 6.75121 8.91964 6.68048C9.06462 6.61092 9.21728 6.57542 9.37382 6.57542H9.5086V9.50584H9.37382C9.21722 9.50584 9.06381 9.47032 8.91891 9.4008C8.77394 9.33007 8.64142 9.22961 8.5264 9.09862C8.40767 8.96226 8.3137 8.80531 8.24745 8.62793C8.17888 8.4428 8.14337 8.24566 8.14337 8.04061C8.14337 7.83556 8.17888 7.63858 8.24887 7.45295Z" fill="#0C75EB" stroke="#0C75EB" stroke-width="0.2"/>
<path d="M19.1005 10.0006C19.1006 9.72938 18.8805 9.50937 18.6093 9.50937C18.3381 9.50937 18.118 9.72946 18.118 10.0007C18.118 10.2813 18.1033 10.5589 18.0762 10.8305C18.0476 11.1036 18.0066 11.3733 17.9525 11.6366L17.9525 11.637C17.8992 11.9019 17.832 12.1615 17.7531 12.4142L17.8486 12.444C17.768 12.7007 17.6756 12.9535 17.5723 13.1984L19.1005 10.0006ZM18.8181 11.8139C18.8776 11.5212 18.9238 11.223 18.9543 10.9194L18.5967 12.6763C18.6835 12.3946 18.7579 12.1066 18.8181 11.8139Z" fill="#0C75EB" stroke="#0C75EB" stroke-width="0.2"/>
<path d="M2.51949 6.84014C2.4175 7.08199 2.32631 7.33166 2.24746 7.58519L2.24744 7.58527C2.1686 7.83803 2.10138 8.09763 2.0481 8.36251L2.04802 8.36289C1.99396 8.62629 1.95296 8.89608 1.92434 9.16923C1.8973 9.44072 1.8826 9.71825 1.88263 9.99877C1.88263 10.27 1.66254 10.4901 1.39132 10.4901C1.12009 10.4901 0.9 10.27 0.9 9.99877C0.9 9.68533 0.916622 9.37521 0.947501 9.06994M2.51949 6.84014L1.04699 9.08M2.51949 6.84014C2.6232 6.59716 2.73684 6.35987 2.86114 6.13051C2.98734 5.90055 3.12266 5.67638 3.26931 5.46027L3.26963 5.45979C3.4138 5.24467 3.5714 5.03601 3.73493 4.83531C3.90133 4.6349 4.0752 4.44252 4.25964 4.25881C4.44456 4.07468 4.63629 3.89992 4.83644 3.73457C5.03707 3.57033 5.24577 3.41269 5.46179 3.26768L5.46214 3.26744C5.67754 3.12153 5.90173 2.98624 6.13085 2.86082C6.36101 2.7357 6.59836 2.62205 6.84054 2.51915C7.08224 2.41645 7.33268 2.32521 7.58487 2.2463C7.83909 2.16749 8.09878 2.10101 8.36395 2.04691L8.36406 2.04688C8.62745 1.99283 8.89724 1.95183 9.16882 1.9232C9.71543 1.86912 10.2862 1.86913 10.8295 1.9232C11.1027 1.95183 11.3725 1.99283 11.6359 2.04688L11.6362 2.04696C11.9011 2.10025 12.1607 2.16746 12.4135 2.2463L12.4433 2.15084C12.6999 2.23143 12.9527 2.32381 13.1977 2.42711M2.51949 6.84014L12.4133 2.24624C12.667 2.32591 12.9168 2.41719 13.1587 2.5192M0.947501 9.06994L1.04699 9.08M0.947501 9.06994C0.947499 9.06996 0.947497 9.06998 0.947495 9.07L1.04699 9.08M0.947501 9.06994C0.978376 8.76281 1.02508 8.46135 1.08517 8.16557L1.08522 8.16532C1.14612 7.86943 1.22128 7.57831 1.30907 7.29359L1.30913 7.29342C1.39782 7.00763 1.50067 6.72833 1.61453 6.45714L1.61477 6.45656C1.73091 6.18477 1.85825 5.919 1.9984 5.66167M1.04699 9.08C1.07751 8.77636 1.1237 8.47819 1.18317 8.18548C1.2434 7.89281 1.31776 7.6048 1.40463 7.32306C1.49231 7.04055 1.59404 6.76428 1.70673 6.49585C1.82178 6.22662 1.94779 5.96367 2.08631 5.70933M1.9984 5.66167C1.99837 5.66173 1.99833 5.66179 1.9983 5.66185L2.08631 5.70933M1.9984 5.66167C2.13862 5.40182 2.29136 5.15254 2.45495 4.90994L2.45499 4.90988C2.61801 4.66846 2.79289 4.43506 2.97797 4.21042L2.978 4.21039C3.16392 3.9849 3.35936 3.76968 3.56512 3.56392L3.63584 3.63463C3.43235 3.83812 3.23905 4.05096 3.05515 4.274C2.87202 4.49628 2.69905 4.72713 2.53786 4.96584C2.37586 5.20609 2.22483 5.45261 2.08631 5.70933M1.9984 5.66167C1.99843 5.66162 1.99846 5.66156 1.99849 5.6615L2.08631 5.70933M10.918 1.04578C10.313 0.984739 9.68614 0.984739 9.07729 1.04578M10.918 1.04578C11.2216 1.0763 11.5198 1.12249 11.8125 1.18196C12.1052 1.24219 12.3932 1.31655 12.6749 1.40342C12.9582 1.49187 13.2337 1.59283 13.5021 1.70629C13.7721 1.82053 14.0351 1.94654 14.2894 2.08506M10.918 1.04578L10.928 0.946288C10.928 0.946287 10.928 0.946285 10.928 0.946284L10.918 1.04578ZM9.07729 1.04578L16.944 4.274C16.7609 4.05173 16.5676 3.83808 16.3641 3.6354C16.1606 3.43271 15.9478 3.23784 15.7247 3.05391C15.5024 2.87078 15.2716 2.69781 15.0321 2.53661C14.7919 2.37461 14.5453 2.22435 14.2894 2.08506M9.07729 1.04578C8.77519 1.0763 8.47701 1.12249 8.18434 1.18196L9.07729 1.04578ZM14.2894 2.08506L14.3372 1.99723C14.3372 1.99723 14.3372 1.99724 14.3373 1.99724C14.596 2.13809 14.8452 2.28999 15.088 2.4537C15.3303 2.61676 15.5637 2.79166 15.7883 2.97673L15.7883 2.97676C16.014 3.16288 16.2292 3.35988 16.4347 3.56455C16.6405 3.7696 16.8359 3.98561 17.021 4.21016M14.2894 2.08506L17.021 4.21016M17.021 4.21016C17.1301 4.34137 17.2343 4.47605 17.3347 4.61357V2.9553C17.3347 2.68407 17.5548 2.46398 17.826 2.46398C18.0972 2.46398 18.3173 2.68407 18.3173 2.9553V6.08579C18.3173 6.35702 18.0972 6.57711 17.826 6.57711H14.6956C14.4244 6.57711 14.2043 6.35702 14.2043 6.08579C14.2043 5.81467 14.4243 5.59439 14.6958 5.59528H14.6956V5.69528L14.696 5.59528L17.021 4.21016ZM13.1977 2.42711L13.1584 2.51908C13.1585 2.51912 13.1586 2.51916 13.1587 2.5192M13.1977 2.42711C13.4434 2.53199 13.6837 2.64704 13.9161 2.77224M13.1977 2.42711L13.1588 2.51925C13.1588 2.51923 13.1587 2.51922 13.1587 2.5192M13.1587 2.5192C13.4016 2.62288 13.6389 2.73652 13.8684 2.8601L13.9161 2.77224M13.9161 2.77224C14.1486 2.89979 14.3755 3.03677 14.5946 3.18546L13.9161 2.77224ZM16.8146 5.59528C16.8217 5.60737 16.8288 5.61955 16.836 5.63189C16.8481 5.65255 16.8604 5.67362 16.8733 5.69528H16.9902C16.9698 5.66226 16.9501 5.62878 16.9305 5.59528H16.8146ZM17.4347 4.75329V4.92905C17.4017 4.8807 17.3684 4.83267 17.3347 4.78499L17.4347 4.75329Z" fill="#0C75EB" stroke="#0C75EB" stroke-width="0.2"/>
</g>
<defs>
<clipPath id="clip0_7575_98145">
<rect width="20" height="19" fill="white" transform="translate(0 0.5)"/>
</clipPath>
</defs>
</svg>
