<svg width="50" height="50" viewBox="0 0 17 31" fill="none" xmlns="http://www.w3.org/2000/svg">
<path d="M8.92 30.904C8.536 30.904 8.216 30.776 7.96 30.52C7.72533 30.264 7.608 29.9547 7.608 29.592V26.552L8.248 27.16C6.75467 27.1387 5.41067 26.9467 4.216 26.584C3.02133 26.2 2.01867 25.7413 1.208 25.208C0.909333 25.016 0.696 24.7707 0.568 24.472C0.44 24.1733 0.397333 23.8747 0.44 23.576C0.504 23.2773 0.632 23.0213 0.824 22.808C1.016 22.5947 1.25067 22.4667 1.528 22.424C1.80533 22.3813 2.12533 22.4667 2.488 22.68C3.14933 23.1067 3.97067 23.4907 4.952 23.832C5.95467 24.1733 7.17067 24.344 8.6 24.344C9.752 24.344 10.6907 24.1947 11.416 23.896C12.1627 23.5973 12.7067 23.192 13.048 22.68C13.4107 22.168 13.592 21.5707 13.592 20.888C13.592 20.3333 13.464 19.8533 13.208 19.448C12.9733 19.0427 12.5787 18.7013 12.024 18.424C11.4693 18.1253 10.7333 17.88 9.816 17.688L6.52 16.984C4.57867 16.5573 3.128 15.8533 2.168 14.872C1.22933 13.8907 0.76 12.6 0.76 11C0.76 9.74133 1.05867 8.62133 1.656 7.64C2.27467 6.65867 3.128 5.88 4.216 5.304C5.32533 4.728 6.616 4.39733 8.088 4.312L7.608 4.76V1.848C7.608 1.48533 7.72533 1.176 7.96 0.919998C8.216 0.663999 8.536 0.535999 8.92 0.535999C9.28267 0.535999 9.592 0.663999 9.848 0.919998C10.104 1.176 10.232 1.48533 10.232 1.848V4.76L9.688 4.312C10.6693 4.33333 11.7147 4.536 12.824 4.92C13.9333 5.28267 14.8827 5.80533 15.672 6.488C15.928 6.70133 16.088 6.94667 16.152 7.224C16.2373 7.50133 16.2373 7.768 16.152 8.024C16.088 8.28 15.96 8.49333 15.768 8.664C15.576 8.83467 15.3307 8.93067 15.032 8.952C14.7333 8.97333 14.4133 8.86667 14.072 8.632C13.3893 8.16267 12.632 7.78933 11.8 7.512C10.9893 7.23467 10.0187 7.096 8.888 7.096C7.39467 7.096 6.21067 7.448 5.336 8.152C4.46133 8.856 4.024 9.77333 4.024 10.904C4.024 11.7573 4.29067 12.4507 4.824 12.984C5.35733 13.496 6.25333 13.8907 7.512 14.168L10.872 14.872C12.92 15.32 14.4347 16.0133 15.416 16.952C16.3973 17.8907 16.888 19.1387 16.888 20.696C16.888 21.912 16.5787 22.9893 15.96 23.928C15.3413 24.8453 14.488 25.5813 13.4 26.136C12.3333 26.6693 11.096 27 9.688 27.128L10.232 26.52V29.592C10.232 29.9547 10.104 30.264 9.848 30.52C9.61333 30.776 9.304 30.904 8.92 30.904Z" fill="#737373"/>
</svg>
