<svg width="20" height="20" viewBox="0 0 20 20" fill="none" xmlns="http://www.w3.org/2000/svg">
<path opacity="0.4" fill-rule="evenodd" clip-rule="evenodd" d="M13.0893 6.07806C13.4147 6.4035 13.4147 6.93113 13.0893 7.25658L6.42267 13.9232C6.09723 14.2487 5.5696 14.2487 5.24416 13.9232L1.91082 10.5899C1.58539 10.2645 1.58539 9.73682 1.91082 9.4114C2.23626 9.08598 2.7639 9.08598 3.08934 9.4114L5.83341 12.1555L11.9108 6.07806C12.2362 5.75263 12.7639 5.75263 13.0893 6.07806Z" fill="#0C75EB"/>
<path fill-rule="evenodd" clip-rule="evenodd" d="M18.0893 6.07806C18.4147 6.4035 18.4147 6.93113 18.0893 7.25658L11.4227 13.9232C11.0972 14.2487 10.5696 14.2487 10.2442 13.9232L6.91082 10.5899C6.58539 10.2645 6.58539 9.73682 6.91082 9.4114C7.23626 9.08598 7.7639 9.08598 8.08934 9.4114L10.8334 12.1555L16.9108 6.07806C17.2362 5.75263 17.7639 5.75263 18.0893 6.07806Z" fill="#0C75EB"/>
</svg>
