<svg xmlns="http://www.w3.org/2000/svg" width="27" height="27" viewBox="0 0 27 27">
  <g id="Group_3926" data-name="Group 3926" transform="translate(-1252 -415)">
    <path id="Path_1264" data-name="Path 1264" d="M1789.5,1645a13.5,13.5,0,1,0-13.5-13.5A13.5,13.5,0,0,0,1789.5,1645Z" transform="translate(-524 -1203)" fill="#725ac1" opacity="0.4"/>
    <path id="Path_1265" data-name="Path 1265" d="M1787.561,1632.845a1.013,1.013,0,0,1-.723-.3l-4.819-4.818a1.023,1.023,0,0,1,1.447-1.447l4.095,4.095,4.095-4.095a1.023,1.023,0,0,1,1.447,1.447l-4.819,4.818A1.013,1.013,0,0,1,1787.561,1632.845Z" transform="translate(-522.061 -1200.246)" fill="#725ac1"/>
  </g>
</svg>
