<svg width="16" height="19" viewBox="0 0 16 19" fill="none" xmlns="http://www.w3.org/2000/svg">
<path fill-rule="evenodd" clip-rule="evenodd" d="M9.54104 1.78392C10.8089 0.516038 12.8646 0.516038 14.1324 1.78392C15.4003 3.0518 15.4003 5.10744 14.1324 6.37532L7.80409 12.7037C7.44743 13.0604 7.22962 13.2782 6.98685 13.4676C6.70082 13.6907 6.39134 13.8819 6.06389 14.038C5.78596 14.1704 5.4937 14.2678 5.01515 14.4273L2.78794 15.1697L2.25322 15.348C1.7746 15.5075 1.24691 15.3829 0.890163 15.0262C0.533416 14.6694 0.408847 14.1418 0.568389 13.6631L1.48903 10.9012C1.64852 10.4227 1.74592 10.1304 1.87838 9.85247C2.03443 9.52501 2.2257 9.21553 2.4488 8.92951C2.63815 8.68674 2.85599 8.46892 3.21271 8.11225L9.54104 1.78392ZM2.7591 13.8617L2.05463 13.1573L2.66165 11.3362C2.83839 10.806 2.91138 10.5904 3.00678 10.3902C3.12378 10.1447 3.26718 9.91272 3.43444 9.69829C3.57081 9.52344 3.73098 9.36174 4.12618 8.96655L9.03532 4.0574C9.23796 4.56573 9.5808 5.17925 10.159 5.7574C10.7371 6.33555 11.3506 6.6784 11.859 6.88104L6.94981 11.7902C6.55462 12.1854 6.39292 12.3455 6.21807 12.4819C6.00363 12.6492 5.77161 12.7926 5.52611 12.9096C5.32594 13.005 5.11037 13.078 4.58016 13.2547L2.7591 13.8617ZM12.855 5.88501C12.7518 5.86236 12.6228 5.82827 12.4761 5.77738C12.0727 5.63744 11.5422 5.37283 11.0428 4.87352C10.5435 4.3742 10.2789 3.84364 10.139 3.44029C10.0881 3.29359 10.054 3.16457 10.0313 3.06138L10.4249 2.6678C11.2046 1.88808 12.4688 1.88808 13.2486 2.6678C14.0283 3.44753 14.0283 4.71171 13.2486 5.49144L12.855 5.88501ZM0.500017 18.1247C0.500017 17.7795 0.779839 17.4997 1.12502 17.4997H14.4584V18.7497H1.12502C0.779839 18.7497 0.500017 18.4699 0.500017 18.1247Z" fill="#849199"/>
</svg>
