<svg width="18" height="19" viewBox="0 0 18 19" fill="none" xmlns="http://www.w3.org/2000/svg">
<path d="M8.25 3.5H3C2.60218 3.5 2.22064 3.65804 1.93934 3.93934C1.65804 4.22064 1.5 4.60218 1.5 5V15.5C1.5 15.8978 1.65804 16.2794 1.93934 16.5607C2.22064 16.842 2.60218 17 3 17H13.5C13.8978 17 14.2794 16.842 14.5607 16.5607C14.842 16.2794 15 15.8978 15 15.5V10.25" stroke="#C7CCD3" stroke-width="1.5" stroke-linecap="round" stroke-linejoin="round"/>
<path d="M13.875 2.37505C14.1734 2.07668 14.578 1.90906 15 1.90906C15.422 1.90906 15.8266 2.07668 16.125 2.37505C16.4234 2.67342 16.591 3.07809 16.591 3.50005C16.591 3.922 16.4234 4.32668 16.125 4.62505L9 11.75L6 12.5L6.75 9.50005L13.875 2.37505Z" stroke="#C7CCD3" stroke-width="1.5" stroke-linecap="round" stroke-linejoin="round"/>
</svg>
