<svg width="22" height="20" viewBox="0 0 22 20" fill="none" xmlns="http://www.w3.org/2000/svg">
<path fill-rule="evenodd" clip-rule="evenodd" d="M8.46455 0.820574C10.0873 0.0598082 11.913 0.059809 13.5358 0.820575L20.227 3.95756C21.2793 4.4509 21.7502 5.52222 21.7502 6.50002C21.7502 7.47782 21.2792 8.54915 20.227 9.04248L18.75 9.73491V14.6254C18.75 15.8785 18.1217 17.0883 16.978 17.7217C16.2263 18.138 15.2384 18.6391 14.1988 19.038C13.1715 19.4321 12.0339 19.75 11 19.75C9.9661 19.75 8.82851 19.4321 7.80117 19.038C6.76159 18.6391 5.77371 18.138 5.02199 17.7217C3.87826 17.0883 3.25 15.8785 3.25 14.6254V9.5C3.25 9.45857 3.25336 9.41792 3.25982 9.37831C3.2363 9.23425 3.25448 9.08184 3.32112 8.9397C3.49695 8.56466 3.94352 8.40316 4.31856 8.57899L9.10137 10.8213C10.3207 11.3929 11.6798 11.3929 12.8991 10.8213L19.5902 7.68433C19.9934 7.49531 20.2502 7.04443 20.2502 6.50002C20.2502 5.95562 19.9934 5.50473 19.5902 5.31571L12.899 2.17873C11.6797 1.60709 10.3206 1.60709 9.10128 2.17872L2.41017 5.31567C2.03512 5.4915 1.58855 5.33 1.41272 4.95496C1.2369 4.57992 1.39839 4.13335 1.77343 3.95752L8.46455 0.820574ZM4.75 10.4379V14.6254C4.75 15.3884 5.12875 16.0661 5.74869 16.4095C6.46533 16.8063 7.38679 17.2724 8.33845 17.6375C9.30234 18.0073 10.2379 18.25 11 18.25C11.7621 18.25 12.6977 18.0073 13.6616 17.6375C14.6132 17.2724 15.5347 16.8063 16.2513 16.4095C16.8713 16.0661 17.25 15.3884 17.25 14.6254V10.4381L13.5358 12.1794C11.9131 12.9402 10.0874 12.9402 8.46464 12.1794L4.75 10.4379Z" fill="#092333"/>
<path d="M5.68936 5.70456C5.85253 6.08528 5.67616 6.52619 5.29544 6.68936L4.21977 7.15036C3.617 7.40869 3.21985 7.58 2.928 7.74418C2.65202 7.89944 2.53244 8.01543 2.45645 8.13068C2.38046 8.24592 2.32095 8.40152 2.28696 8.71635C2.25101 9.04928 2.25 9.48179 2.25 10.1376V13C2.25 13.4142 1.91422 13.75 1.5 13.75C1.08579 13.75 0.750001 13.4142 0.750001 13V10.0987C0.749981 9.49225 0.749965 8.97824 0.795626 8.55533C0.844214 8.10532 0.949865 7.69064 1.20419 7.30494C1.45851 6.91925 1.79805 6.65879 2.19254 6.43686C2.56327 6.2283 3.03569 6.02585 3.59315 5.78696L4.70456 5.31064C5.08529 5.14747 5.5262 5.32384 5.68936 5.70456Z" fill="#092333"/>
</svg>
