<svg width="62" height="62" viewBox="0 0 62 62" fill="none" xmlns="http://www.w3.org/2000/svg">
<circle cx="31" cy="31" r="31" fill="#2BBA35" fill-opacity="0.1"/>
<path d="M36.6667 19.6953C41.3842 19.9503 43.75 21.6928 43.75 28.167V36.667C43.75 42.3336 42.3333 45.167 35.25 45.167H26.75C19.6667 45.167 18.25 42.3336 18.25 36.667V28.167C18.25 21.707 20.6158 19.9503 25.3333 19.6953" fill="#2BBA35"/>
<path d="M28.1654 22.4987H33.832C36.6654 22.4987 36.6654 21.082 36.6654 19.6654C36.6654 16.832 35.2487 16.832 33.832 16.832H28.1654C26.7487 16.832 25.332 16.832 25.332 19.6654C25.332 22.4987 26.7487 22.4987 28.1654 22.4987Z" fill="#2BBA35" stroke="#F3F3F3" stroke-miterlimit="10" stroke-linecap="round" stroke-linejoin="round"/>
<path d="M26.4258 32.325L29.3142 36.955L36.0007 27" stroke="white" stroke-linecap="round" stroke-linejoin="round"/>
</svg>
