<svg width="53" height="53" viewBox="0 0 53 53" fill="none" xmlns="http://www.w3.org/2000/svg">
<rect width="53" height="53" rx="26.5" fill="#F1F6FE"/>
<path d="M17.5 32.5V26.5C17.5 24.1131 18.4482 21.8239 20.136 20.136C21.8239 18.4482 24.1131 17.5 26.5 17.5C28.8869 17.5 31.1761 18.4482 32.864 20.136C34.5518 21.8239 35.5 24.1131 35.5 26.5V32.5" stroke="#0C75EB" stroke-width="2" stroke-linecap="round" stroke-linejoin="round"/>
<path d="M35.5 33.5C35.5 34.0304 35.2893 34.5391 34.9142 34.9142C34.5391 35.2893 34.0304 35.5 33.5 35.5H32.5C31.9696 35.5 31.4609 35.2893 31.0858 34.9142C30.7107 34.5391 30.5 34.0304 30.5 33.5V30.5C30.5 29.9696 30.7107 29.4609 31.0858 29.0858C31.4609 28.7107 31.9696 28.5 32.5 28.5H35.5V33.5ZM17.5 33.5C17.5 34.0304 17.7107 34.5391 18.0858 34.9142C18.4609 35.2893 18.9696 35.5 19.5 35.5H20.5C21.0304 35.5 21.5391 35.2893 21.9142 34.9142C22.2893 34.5391 22.5 34.0304 22.5 33.5V30.5C22.5 29.9696 22.2893 29.4609 21.9142 29.0858C21.5391 28.7107 21.0304 28.5 20.5 28.5H17.5V33.5Z" stroke="#0C75EB" stroke-width="2" stroke-linecap="round" stroke-linejoin="round"/>
</svg>
