<svg width="181" height="150" viewBox="0 0 181 150" fill="none" xmlns="http://www.w3.org/2000/svg">
<path opacity="0.9" d="M105.708 12.3657C85.8924 32.6332 75.528 34.0978 50.4218 45.3097C29.8963 54.4761 9.57185 72.2931 2.63864 94.4934C-15.626 152.977 65.5565 160.29 103.889 150.743C130.877 144.021 141.674 128.539 148.507 102.857C151.165 92.8687 151.941 82.0652 156.319 72.5594C161.022 62.3468 170.654 57.3747 175.449 48.4083C198.69 4.94671 132.121 -14.6501 105.708 12.3657Z" fill="#FFE3E3" fill-opacity="0.56"/>
<path d="M20.0721 39.0008L19.6235 25.6276L32.9967 25.1791L33.4452 38.5522L20.0721 39.0008ZM20.8202 26.7466L21.1911 37.804L32.2486 37.4331L31.8777 26.3757L20.8202 26.7466Z" fill="black"/>
<path d="M155.882 43.251C155.882 45.0025 154.462 46.4226 152.711 46.4226C150.959 46.4226 149.54 45.0025 149.54 43.251C149.54 41.4995 150.959 40.0795 152.711 40.0795C154.462 40.0795 155.882 41.4995 155.882 43.251Z" fill="#EC6750"/>
<path d="M51.1992 20.6171C51.1992 22.941 49.3151 24.8253 46.991 24.8253C44.6671 24.8253 42.7832 22.941 42.7832 20.6171C42.7832 18.2932 44.6671 16.4089 46.991 16.4089C49.3151 16.4089 51.1992 18.2932 51.1992 20.6171Z" fill="#EC6750"/>
<path d="M118.795 20.3884L118.562 21.2821L127.445 23.5973L127.678 22.7036L118.795 20.3884Z" fill="black"/>
<path d="M123.823 17.4472L121.507 26.3307L122.4 26.5637L124.717 17.6802L123.823 17.4472Z" fill="black"/>
<path d="M141.851 35.0332C137.794 34.6576 134.798 31.0509 135.174 26.9932C135.55 22.9355 139.156 19.94 143.213 20.3156C147.271 20.6913 150.267 24.2981 149.891 28.3558C149.515 32.4134 145.909 35.4089 141.851 35.0332ZM143.112 21.4072C139.657 21.0873 136.586 23.6385 136.266 27.0943C135.946 30.55 138.497 33.6217 141.952 33.9416C145.408 34.2615 148.479 31.7104 148.799 28.2547C149.119 24.7989 146.568 21.7272 143.112 21.4072Z" fill="black"/>
<path d="M77.7732 18.1379L14.8965 118.751C9.88375 126.772 15.3664 137.435 24.4956 137.424C114.933 137.309 81.2358 137.428 150.244 137.449C159.368 137.452 164.841 126.793 159.831 118.776L96.9391 18.1379C92.4102 10.8907 82.3022 10.8907 77.7732 18.1379Z" fill="url(#paint0_linear_380_2894)"/>
<path d="M81.0996 112.177C81.0996 108.337 83.7664 105.563 87.3934 105.563C91.2336 105.563 93.6871 108.337 93.6871 112.177C93.6871 115.91 91.2336 118.791 87.3934 118.791C83.6598 118.791 81.0996 115.911 81.0996 112.177ZM83.726 95.5378L82.3158 47.187C82.2923 46.3833 82.9375 45.7191 83.7415 45.7191H91.0451C91.8491 45.7191 92.4942 46.3833 92.4708 47.187L91.0606 95.5378C91.0381 96.309 90.4064 96.9226 89.6348 96.9226H85.1518C84.3802 96.9226 83.7485 96.309 83.726 95.5378Z" fill="white" stroke="white" stroke-width="16" stroke-miterlimit="10"/>
<path d="M69.3222 18.2877L14.9918 123.762C10.6604 132.17 17.0072 142.343 26.104 141.575C116.221 133.973 82.6498 136.882 151.422 131.189C160.516 130.436 165.087 119.361 159.431 111.787L88.4223 16.7009C83.3088 9.8536 73.2357 10.6905 69.3222 18.2877Z" stroke="black" stroke-miterlimit="10"/>
<path d="M80.9381 112.331C80.8686 108.492 83.4847 105.67 87.111 105.605C90.9507 105.535 93.454 108.264 93.5236 112.103C93.5912 115.836 91.1902 118.76 87.3506 118.83C83.6177 118.898 81.0057 116.064 80.9381 112.331ZM83.2628 95.6472L80.9771 47.33C80.9391 46.5268 81.5721 45.851 82.376 45.8364L89.6784 45.7042C90.4823 45.6896 91.1394 46.342 91.1305 47.146L90.5962 95.5144C90.5877 96.2858 89.9672 96.9107 89.1957 96.9247L84.7134 97.0059C83.942 97.0199 83.2993 96.4179 83.2628 95.6472Z" stroke="black" stroke-miterlimit="10"/>
<defs>
<linearGradient id="paint0_linear_380_2894" x1="87.3638" y1="137.449" x2="87.3638" y2="12.7025" gradientUnits="userSpaceOnUse">
<stop stop-color="#E64734"/>
<stop offset="0.0491" stop-color="#E74B37"/>
<stop offset="0.3055" stop-color="#EA5B45"/>
<stop offset="0.5975" stop-color="#EB644D"/>
<stop offset="1" stop-color="#EC6750"/>
</linearGradient>
</defs>
</svg>