<svg width="162" height="150" viewBox="0 0 162 150" fill="none" xmlns="http://www.w3.org/2000/svg">
<path d="M80.7951 137.976C114.277 137.976 141.42 110.395 141.42 76.371C141.42 42.3473 114.277 14.7656 80.7951 14.7656C47.3129 14.7656 20.1702 42.3473 20.1702 76.371C20.1702 110.395 47.3129 137.976 80.7951 137.976Z" fill="#F3F3F3"/>
<mask id="mask0_2767_105881" style="mask-type:luminance" maskUnits="userSpaceOnUse" x="0" y="0" width="162" height="112">
<path d="M161.59 0H0V111.065H161.59V0Z" fill="white"/>
</mask>
<g mask="url(#mask0_2767_105881)">
<path d="M84.9001 40.1766L95.9558 42.6206L96.7857 42.7211C98.9611 39.5625 101.222 36.9198 105.88 36.0732C112.587 34.8476 127.504 29.2512 135.731 48.9441C135.731 48.9441 126.608 51.4449 121.751 53.1178C121.751 53.1178 122.114 55.4042 121.88 58.1667C130.01 54.9966 140.95 51.7451 144.043 47.9001C147.141 44.0515 152.528 40.8223 157.064 39.6502C161.604 38.4827 165.966 36.7908 165.966 36.7908C165.966 36.7908 165.624 24.2805 157.699 13.5156C157.699 13.5156 142.605 19.669 138.213 23.1498C134.06 26.442 127.606 26.7862 120.902 29.7379C120.061 30.1084 119.168 30.3553 118.258 30.4703C108.689 31.6795 107.571 30.4509 103.995 30.9662C100.242 31.507 95.8786 34.3747 92.6138 35.2456C91.5654 35.5284 88.3989 37.3504 84.9001 40.1766Z" fill="#FFD2A8"/>
<path opacity="0.4" d="M112.556 34.7539C112.556 34.7539 98.1778 35.2202 94.7227 42.3542C102.069 44.5506 110.088 37.9523 112.556 34.7539Z" fill="#FFD2A8"/>
<path d="M109.605 53.6492C109.621 53.6581 109.64 53.6634 109.665 53.6643C109.667 53.6072 109.674 53.5461 109.673 53.4844C109.654 53.5409 109.631 53.5931 109.605 53.6492Z" fill="#FFD2A8"/>
<path d="M75.4451 66.5729C78.2251 69.6284 82.3592 73.1282 84.0365 70.9945C85.0186 69.873 85.5331 68.4021 85.0034 66.9269C84.868 66.5354 84.656 66.1446 84.3509 65.7617C84.2537 65.7735 84.1483 65.785 84.0471 65.7926C81.2681 66.0882 78.3702 66.3453 75.4451 66.5729Z" fill="#FFD2A8"/>
<path d="M109.605 53.6492C109.621 53.6581 109.64 53.6634 109.665 53.6643C109.667 53.6072 109.674 53.5461 109.673 53.4844C109.654 53.5409 109.631 53.5931 109.605 53.6492Z" fill="#FFD2A8"/>
<path d="M107.133 69.7181C107.203 69.7789 107.281 69.8478 107.37 69.9217C108.294 70.6941 110.108 71.9509 111.894 71.7683C113.587 71.5936 115.391 70.2202 117.222 68.0613C118.225 67.1171 118.564 66.7477 118.965 66.439C119.496 66.0255 120.86 64.2051 121.559 60.371C121.559 60.3628 121.563 60.3588 121.559 60.3546C121.682 59.6925 121.784 58.9641 121.856 58.1769C121.864 58.1772 121.872 58.1694 121.88 58.17C122.115 55.4078 121.751 53.1211 121.751 53.1211C121.358 53.2584 120.989 53.3884 120.661 53.5122C119.849 53.8101 118.933 54.0088 117.953 54.1185C117.165 56.7198 115.024 63.4728 113.535 65.0087C112.592 65.9841 110.043 67.9618 107.133 69.7181Z" fill="#FFD2A8"/>
<path d="M121.856 58.1791C121.784 58.9663 121.683 59.695 121.56 60.3568C121.722 59.6188 121.821 58.878 121.881 58.1719C121.873 58.1716 121.864 58.1794 121.856 58.1791Z" fill="#FFD2A8"/>
<path opacity="0.4" d="M107.133 69.7178C107.203 69.7786 107.281 69.8476 107.37 69.9215C108.294 70.6939 110.108 71.9507 111.894 71.7684C113.587 71.5937 115.391 70.2203 117.222 68.0614C118.225 67.1169 118.564 66.7477 118.965 66.439C119.496 66.0256 120.86 64.2052 121.559 60.3711C121.559 60.3629 121.563 60.3589 121.559 60.3546C121.722 59.6167 121.82 58.8758 121.88 58.1701C130.01 55 140.95 51.7484 144.043 47.9034C147.141 44.0549 152.528 40.8256 157.065 39.6535C161.605 38.4861 165.967 36.7941 165.967 36.7941C165.967 36.7941 165.941 35.8385 165.737 34.2188C163.31 35.2765 159.49 36.8506 156.622 37.5885C152.086 38.7603 146.699 41.9895 143.601 45.8384C140.508 49.6834 129.568 52.9346 121.438 56.1047C121.378 56.8105 121.28 57.5517 121.117 58.2896C121.121 58.2939 121.117 58.2978 121.117 58.306C120.418 62.1402 119.054 63.9605 118.523 64.374C118.122 64.683 117.782 65.0522 116.78 65.9963C114.949 68.1553 113.145 69.529 111.452 69.7034C110.391 69.8091 109.316 69.4108 108.432 68.9063C108.013 69.1773 107.577 69.4476 107.133 69.7178Z" fill="#FFD2A8"/>
<path d="M97.7435 72.8345C97.8243 72.9163 97.9183 72.978 98.0331 73.0282C98.2428 73.1159 98.5114 73.1491 98.8552 73.1199C100.28 72.9902 101.989 72.3862 103.74 71.5547C103.744 71.5507 103.752 71.5511 103.756 71.5471C104.473 71.2122 105.196 70.8322 105.903 70.4352C106.317 70.2007 106.731 69.958 107.133 69.7104C108.75 68.7376 110.257 67.6939 111.431 66.7862C111.577 66.6742 111.719 66.5662 111.861 66.4582C111.957 66.3849 112.045 66.311 112.137 66.2335C112.748 65.7462 113.227 65.3179 113.536 65.0007C115.025 63.4647 117.166 56.7117 117.953 54.1104C117.698 54.1436 117.434 54.1679 117.167 54.1882C116.969 54.1994 116.767 54.2145 116.565 54.2214C114.234 54.3291 111.727 54.0519 109.665 53.6602C109.507 56.0779 108.72 58.4907 107.349 60.3557C106.95 60.8982 106.136 61.4089 104.973 61.891C104.977 63.1488 103.824 64.3032 102.262 65.7498C100.903 67.0092 99.6209 69.1366 97.8188 70.5636C97.5677 70.7649 97.3014 70.9488 97.0235 71.1202C96.92 71.1833 96.867 71.2141 96.8939 71.4516C96.9042 72.0719 97.4472 72.5215 97.7435 72.8345Z" fill="#FFD2A8"/>
<path d="M109.605 53.6492C109.621 53.6581 109.64 53.6634 109.665 53.6643C109.667 53.6072 109.674 53.5461 109.673 53.4844C109.654 53.5409 109.631 53.5931 109.605 53.6492Z" fill="#FFD2A8"/>
<path d="M109.605 53.6492C109.621 53.6581 109.64 53.6634 109.665 53.6643C109.667 53.6072 109.674 53.5461 109.673 53.4844C109.654 53.5409 109.631 53.5931 109.605 53.6492Z" fill="#FFD2A8"/>
<path d="M85.003 66.9281C86.71 68.8394 89.566 71.4641 92.7118 71.9639C93.4121 72.0746 94.0611 72.0765 94.6538 71.9895C94.6577 71.9938 94.6577 71.9938 94.6619 71.9898C94.8972 71.9599 95.125 71.9133 95.3451 71.8581C95.3493 71.8542 95.3574 71.8545 95.3616 71.8506C95.9656 71.6903 96.5131 71.4417 97.023 71.1258C97.301 70.9544 97.5673 70.7705 97.8184 70.5691C99.6207 69.1422 100.902 67.0148 102.262 65.7554C103.823 64.3087 104.976 63.1544 104.973 61.8966C104.976 61.6509 104.931 61.403 104.842 61.1488C104.688 60.7196 104.402 60.272 103.948 59.7918C101.829 57.5416 98.1057 59.7225 98.1057 59.7225C96.3518 60.4391 92.759 64.1826 92.1824 64.7169C92.132 64.7636 92.0257 64.7997 91.8748 64.8378C91.8586 64.8371 91.8421 64.8444 91.8299 64.848C91.7119 64.8713 91.5739 64.8894 91.412 64.9061C91.3916 64.9094 91.3755 64.9084 91.3554 64.9117C89.1604 65.2224 86.8257 65.4979 84.3993 65.757C84.387 65.7606 84.3709 65.7596 84.3508 65.7629C84.6556 66.1458 84.8676 66.5366 85.003 66.9281Z" fill="#FFD2A8"/>
<path opacity="0.4" d="M104.843 61.1496C104.932 61.4005 104.979 61.6491 104.975 61.8964C104.979 63.1525 103.826 64.3082 102.263 65.7538C100.903 67.012 99.6241 69.1407 97.8208 70.5683C97.5687 70.7699 97.3008 70.9525 97.0255 71.123C96.5132 71.4399 95.9664 71.6875 95.3637 71.8501C95.3578 71.8537 95.3501 71.8547 95.3472 71.8563C95.1281 71.9121 94.8989 71.9581 94.6633 71.9873C94.6594 71.9939 94.6595 71.9939 94.6556 71.988C94.0625 72.0737 93.4133 72.075 92.7142 71.962C89.5671 71.4642 86.7128 68.8363 85.0032 66.9272C84.9085 66.6468 84.7702 66.369 84.5869 66.0908C86.3208 67.9598 89.0251 70.3171 91.9903 70.785C92.6893 70.8977 93.3383 70.8967 93.9317 70.811C93.9352 70.8169 93.9352 70.8169 93.9394 70.8103C94.175 70.7811 94.4041 70.7354 94.6233 70.6793C94.6262 70.6773 94.6339 70.6767 94.6397 70.673C95.2444 70.5134 95.7896 70.2629 96.3015 69.946C96.5769 69.7752 96.8448 69.5929 97.0969 69.3913C98.9002 67.9637 100.181 65.8379 101.539 64.5768C103.102 63.1312 104.255 61.9755 104.251 60.7194C104.257 60.475 104.21 60.2264 104.12 59.9805C104.478 60.389 104.709 60.7782 104.843 61.1496Z" fill="#FFD2A8"/>
<path d="M41.2602 66.1206C40.9894 66.8165 41.4577 67.5758 42.1936 67.6057C49.5937 67.9055 62.8147 67.5479 75.4449 66.5761C78.37 66.3489 81.2679 66.0914 84.047 65.7958C84.1481 65.7883 84.2535 65.7768 84.3508 65.765C84.3711 65.7617 84.3873 65.7627 84.3992 65.7591C86.8257 65.5003 89.1603 65.2247 91.3553 64.9137C91.3757 64.9104 91.3919 64.9114 91.4119 64.9082C91.5502 64.8819 91.6918 64.8681 91.8298 64.85C91.8421 64.8464 91.8585 64.8392 91.8747 64.8398C92.0256 64.8017 92.1319 64.7659 92.1824 64.719C92.7589 64.1847 96.3517 60.4412 98.1056 59.7246C98.1056 59.7246 101.829 57.5436 103.948 59.7939C104.401 60.274 104.687 60.7216 104.842 61.1509C104.931 61.405 104.976 61.653 104.973 61.8986C106.136 61.4165 106.949 60.9059 107.349 60.3633C108.719 58.4983 109.506 56.0855 109.664 53.6678C109.64 53.6668 109.62 53.6615 109.605 53.6527C108.106 53.3735 106.855 53.028 106.083 52.7256C103.556 51.7387 101.426 52.0441 99.1976 54.5C96.9696 56.9558 89.9117 62.6178 83.2746 62.2041C76.6458 61.7906 76.0773 57.6182 76.9331 56.5279C77.7886 55.4454 78.3519 54.1407 84.2454 53.0816C87.5606 52.164 90.1434 51.9246 93.7899 47.0816C94.8971 45.6015 95.8356 44.1135 96.7857 42.7243C95.9558 42.6238 95.9558 42.6238 95.9558 42.6238L84.9002 40.1798L45.8416 31.5375C45.4742 31.456 45.1277 31.7394 45.1322 32.1217C45.182 36.1943 45.2079 55.9785 41.2602 66.1206Z" fill="#65B161"/>
<path d="M120.929 54.0011C120.929 54.0011 121.512 56.6911 120.191 56.9364C118.87 57.1817 117.647 56.3561 117.793 54.2635C119.176 53.7653 120.929 54.0011 120.929 54.0011Z" fill="#FCECD2"/>
<path opacity="0.6" d="M118.344 56.3825C118.801 56.8997 119.482 57.0751 120.189 56.9444C121.511 56.6991 120.927 54.0048 120.927 54.0048C120.927 54.0048 120.803 53.9868 120.59 53.9727C120.696 54.6741 120.854 56.4226 119.801 56.6147C119.272 56.7129 118.76 56.6396 118.344 56.3825Z" fill="#FCECD2"/>
<path d="M104.8 62.174C104.8 62.174 101.228 60.842 100.558 61.1688C99.8884 61.4959 97.589 64.1845 98.6558 65.419C100.041 67.0216 102.626 65.6565 104.8 62.174Z" fill="#FCECD2"/>
<path opacity="0.6" d="M98.6549 65.4151C100.041 67.0203 102.627 65.6505 104.801 62.1724C104.801 62.1724 104.706 62.1353 104.539 62.0781C102.458 65.1021 100.094 66.22 98.7955 64.7129C98.5887 64.4738 98.5095 64.1793 98.5201 63.8561C98.3204 64.441 98.3026 65.0052 98.6549 65.4151Z" fill="#FCECD2"/>
<path opacity="0.4" d="M97.7434 72.8416C97.8242 72.9234 97.9182 72.9852 98.033 73.0354C98.2427 73.1231 98.5113 73.1563 98.8551 73.127C100.28 72.9973 101.989 72.3934 103.74 71.5618C103.744 71.5579 103.752 71.5582 103.756 71.5543C106.342 70.2705 109.231 68.4397 111.43 66.7937C111.576 66.6817 111.719 66.5737 111.861 66.4656C111.957 66.3924 112.044 66.3185 112.137 66.241C116.3 62.7126 117.136 54.53 117.167 54.1957C117.167 54.1875 117.167 54.1875 117.167 54.1875L116.565 54.2289C116.624 68.0991 97.7434 72.8416 97.7434 72.8416Z" fill="#FFD2A8"/>
<path d="M116.467 54.6952C116.467 54.6952 116.412 59.0426 114.184 59.3503C111.955 59.6584 111.349 57.4791 111.525 56.924C111.702 56.369 112.004 54.1309 112.004 54.1309C112.004 54.1309 116.101 53.9579 116.467 54.6952Z" fill="#FCECD2"/>
<path opacity="0.6" d="M114.186 59.3448C116.413 59.0354 116.47 54.6919 116.47 54.6919C116.414 54.5786 116.265 54.4817 116.055 54.4102C116.014 55.2315 115.739 58.6187 113.779 58.8916C112.956 59.0046 112.349 58.7753 111.922 58.4193C112.331 59.0118 113.046 59.5001 114.186 59.3448Z" fill="#FCECD2"/>
<path opacity="0.4" d="M93.6894 63.2461C93.6894 63.2461 91.3075 65.5331 91.5551 66.7394C90.4094 65.0445 90.4094 65.0444 90.4094 65.0444L92.183 64.719L93.6894 63.2461Z" fill="#FFD2A8"/>
<path opacity="0.4" d="M82.7969 65.9223C82.7969 65.9223 85.0973 66.8412 84.9428 69.5315C85.8587 67.8372 84.3511 65.7617 84.3511 65.7617L82.7969 65.9223Z" fill="#FFD2A8"/>
<path d="M45.115 64.2993C63.1985 64.4063 83.0434 63.9939 93.907 63.0287C95.2473 61.7479 97.0248 60.1558 98.109 59.7151C98.109 59.7151 101.832 57.5341 103.951 59.7843L103.99 59.827C105.626 57.9663 106.972 55.3256 107.183 53.0783C106.757 52.9558 106.383 52.832 106.086 52.7154C103.559 51.7282 101.429 52.034 99.201 54.4898C96.973 56.9456 89.9151 62.6077 83.278 62.1939C76.6493 61.7804 76.0808 57.608 76.9366 56.5177C77.792 55.4353 78.3553 54.1305 84.2488 53.0714C87.564 52.1535 90.1468 51.9144 93.7936 47.0714C94.3004 46.3906 94.7748 45.7082 95.2327 45.0333L47.8433 35.1289C47.8433 35.1289 48.5989 51.1492 45.115 64.2993Z" fill="#77C373"/>
<path d="M83.2748 62.2009C89.9117 62.6147 96.9699 56.9526 99.1979 54.4968C101.426 52.041 103.556 51.7355 106.083 52.7224C106.856 53.0249 108.106 53.3704 109.605 53.6495C109.632 53.5933 109.654 53.5411 109.673 53.4846C109.674 53.546 109.667 53.6071 109.665 53.6646C111.727 54.0564 114.234 54.3339 116.565 54.2259C117.042 54.2071 117.503 54.1717 117.953 54.1149C118.933 54.0052 119.849 53.8065 120.661 53.5086C120.989 53.3848 121.358 53.2544 121.751 53.1175C126.608 51.4446 135.732 48.9438 135.732 48.9438C127.504 29.2509 112.588 34.8472 105.88 36.0729C101.222 36.9195 98.9613 39.5622 96.786 42.7208C95.8359 44.1099 94.8977 45.598 93.7901 47.0781C90.1434 51.9211 87.5605 52.1605 84.2457 53.0781C78.3522 54.1372 77.7889 55.4419 76.9334 56.5244C76.0776 57.615 76.6461 61.7874 83.2748 62.2009Z" fill="#FFD2A8"/>
<path d="M84.132 54.3874C84.132 54.3874 85.1284 58.9129 84.77 59.2449C84.4116 59.5769 79.9371 61.0538 78.7772 60.127C77.6174 59.2002 76.6333 55.6643 79.3574 54.9194C82.0811 54.175 84.132 54.3874 84.132 54.3874Z" fill="#FCECD2"/>
<path opacity="0.4" d="M130.528 46.6875C130.528 46.6875 124.264 53.4855 119.317 53.8977C114.371 54.3098 109.259 53.8957 105.614 52.5574C116.215 52.942 115.122 55.8862 130.528 46.6875Z" fill="#FFD2A8"/>
<path opacity="0.6" d="M79.8191 60.4193C81.5688 60.5057 84.4803 59.5073 84.7667 59.2423C85.1244 58.911 84.1326 54.3868 84.1326 54.3868C84.1326 54.3868 84.0763 54.3842 83.9677 54.375C84.4551 56.0692 84.8633 59.685 79.8191 60.4193Z" fill="#FCECD2"/>
<path d="M157.483 45.6629L161.392 44.0481L148.737 12.418L144.828 14.0327C144.518 14.1608 144.369 14.5201 144.495 14.835L156.694 45.3243C156.82 45.6392 157.174 45.791 157.483 45.6629Z" fill="#FCECD2"/>
<path d="M164.166 47.4613L178.056 42.1467L162.497 3.25781L148.607 8.57241C147.94 8.84795 147.619 9.62102 147.89 10.2985L162.467 46.7329C162.738 47.4107 163.499 47.7368 164.166 47.4613Z" fill="#3C3C3B"/>
<path opacity="0.4" d="M76.9413 56.489C76.3596 57.2312 76.4371 59.3954 78.6315 60.8404C72.9339 60.627 68.3997 57.1294 68.3997 52.847C68.3997 48.4267 73.2312 44.8438 79.1874 44.8438C84.3163 44.8438 88.6081 47.4973 89.7037 51.0572C87.8971 52.1968 86.2036 52.5055 84.2548 53.0441C78.3601 54.1015 77.7977 55.4053 76.9413 56.489Z" fill="#77C373"/>
</g>
<mask id="mask1_2767_105881" style="mask-type:luminance" maskUnits="userSpaceOnUse" x="0" y="33" width="148" height="117">
<path d="M147.31 33.707H0V149.993H147.31V33.707Z" fill="white"/>
</mask>
<g mask="url(#mask1_2767_105881)">
<path d="M79.4043 113.72C82.4713 113.907 85.0955 113.951 86.7046 113.962C88.3893 112.568 88.8104 110.702 88.7132 108.969C85.5166 110.505 82.385 112.096 79.4043 113.72Z" fill="#F4C198"/>
<path d="M68.1831 120.601C73.2696 121.512 78.1833 121.983 81.5204 122.236C81.5314 122.236 81.5314 122.236 81.5314 122.236C84.5554 121.413 85.8187 118.263 85.7001 114.642C85.916 114.521 86.1322 114.39 86.3158 114.258C84.696 114.412 82.1147 114.51 78.54 114.203H78.5294C74.7818 116.277 71.2827 118.417 68.1831 120.601Z" fill="#F4C198"/>
<path d="M55.8718 125.887C60.1161 129.147 70.9154 130.551 75.6778 131.034C80.5591 130.387 80.2999 125.657 79.4467 122.715C76.3904 122.649 72.859 122.222 67.7186 120.927C65.6344 122.419 63.7334 123.933 62.0813 125.448C61.4767 124.526 60.9256 123.681 60.4073 122.891C59.9428 123.253 59.4784 123.604 59.025 123.967C57.4376 122.737 55.3747 120.521 53.3985 118.238C52.9341 118.567 52.459 118.886 51.9513 119.193C51.9513 119.193 51.9513 119.193 51.9403 119.204C51.9403 119.215 51.9296 119.215 51.9296 119.215C51.7894 119.467 50.634 121.86 55.8718 125.887Z" fill="#F4C198"/>
<path d="M15.644 104.215V137.543L29.2729 137.411C29.2729 137.411 33.4629 138.641 42.6425 140.012C49.3165 141.011 55.7639 139.76 61.5957 139.266C55.3968 137.631 51.6062 132.452 52.0489 129.96C52.524 127.272 55.3751 127.217 55.591 127.217C55.4614 127.272 53.2906 128.183 52.8155 129.774C52.1999 134.449 59.5005 137.927 62.5891 139.189C65.3255 140.402 66.7636 140.543 68.4497 140.402C74.8745 139.863 73.9718 133.088 72.4923 130.992C69.5766 130.619 66.1205 130.18 63.7448 129.861C58.8852 129.225 53.6257 126.163 52.0923 123.321C50.6774 120.72 51.7468 119.414 51.9303 119.216C46.7359 122.377 39.6514 124.012 30.6231 120.533C21.152 116.879 20.7955 110.514 23.1932 104.698C19.0135 105.137 15.644 104.215 15.644 104.215Z" fill="#F4C198"/>
<path d="M78.54 114.198C82.1147 114.505 84.6956 114.406 86.3157 114.252C86.4563 114.154 86.5856 114.055 86.7045 113.956C85.0954 113.945 82.4712 113.901 79.4042 113.715C79.1127 113.869 78.8319 114.033 78.54 114.198Z" fill="#E5AE89"/>
<path d="M79.4469 122.712C79.4146 122.624 79.382 122.536 79.3606 122.448C80.1705 122.492 80.8725 122.426 81.5205 122.229C78.1833 121.976 73.2697 121.505 68.1832 120.594H68.1725C68.0106 120.703 67.87 120.813 67.7188 120.923C72.8592 122.218 76.391 122.646 79.4469 122.712Z" fill="#E5AE89"/>
<path d="M52.0923 123.319C53.6258 126.161 58.8852 129.223 63.7448 129.859C66.1209 130.178 69.5766 130.617 72.4923 130.99C72.4817 130.979 72.4817 130.968 72.4707 130.957C73.7343 131.144 74.7927 131.155 75.6783 131.034C70.9156 130.551 60.1162 129.147 55.8722 125.887C50.6344 121.859 51.7901 119.467 51.9304 119.215C51.7468 119.412 50.6777 120.718 52.0923 123.319Z" fill="#E5AE89"/>
<path d="M61.5954 139.26C61.5954 139.26 61.5954 139.26 61.6061 139.26C61.9409 139.228 62.2647 139.206 62.5888 139.184C59.5002 137.922 52.1999 134.443 52.8152 129.768C53.2903 128.177 55.4611 127.266 55.5907 127.211C55.3748 127.211 52.5237 127.266 52.0487 129.954C51.6059 132.446 55.3965 137.625 61.5954 139.26Z" fill="#E5AE89"/>
<path d="M53.3987 118.237C55.3749 120.519 57.4378 122.736 59.0252 123.965C59.4787 123.603 59.9431 123.252 60.4075 122.889C61.6711 121.924 62.9777 120.969 64.3383 120.025C64.4033 119.97 64.4679 119.926 64.5329 119.882C67.5998 117.753 70.872 115.679 74.2738 113.693C74.4574 113.572 74.641 113.462 74.8355 113.363C79.1338 110.85 83.6263 108.469 88.1621 106.23C110.463 95.1903 131.032 88.721 131.032 88.721C131.032 88.721 127.069 83.0475 118.43 77.0117C114.11 77.7362 107.223 81.6153 90.7217 89.3302C89.037 90.1204 87.3523 90.9105 85.6675 91.7115C86.4561 91.7115 87.3199 91.9421 88.2701 92.5237C92.59 95.1575 87.5898 100.502 86.5097 101.467C86.3585 101.599 86.046 101.522 86.003 101.686C83.2922 102.882 80.8618 104.31 78.3346 105.451C74.2848 106.581 69.0254 107.339 62.6213 106.812C62.2758 108.063 60.094 112.299 56.0659 116.041C56.0549 116.052 56.0549 116.052 56.0549 116.052C55.2453 116.81 54.3598 117.545 53.3987 118.237Z" fill="#2A9A51"/>
<path d="M126.647 87.1003C126.647 87.1003 106.08 93.5712 83.777 104.611C79.2422 106.848 74.749 109.231 70.452 111.744C70.2555 111.841 70.0742 111.952 69.8897 112.074C66.4885 114.06 63.2154 116.135 60.1474 118.263C60.0818 118.306 60.0194 118.351 59.9538 118.406C58.6149 119.334 57.3264 120.274 56.0825 121.224C55.1986 120.299 54.2791 119.27 53.3774 118.23C54.3386 117.538 55.2254 116.803 56.0346 116.044C56.0346 116.044 56.0346 116.044 56.0466 116.035C60.0728 112.291 62.2539 108.055 62.602 106.803C69.0054 107.332 74.2636 106.573 78.3133 105.443C80.8396 104.303 83.2706 102.876 85.9814 101.678C86.026 101.515 86.3385 101.593 86.4901 101.46C87.5673 100.496 92.5694 95.1498 88.2489 92.5163C87.2997 91.9357 86.4335 91.7058 85.645 91.7058C87.3323 90.9045 89.0164 90.1124 90.7005 89.3232C105.26 82.5196 112.333 78.6976 116.764 77.3945C123.52 82.6254 126.647 87.1003 126.647 87.1003Z" fill="#2FA754"/>
<path d="M60.4077 122.887C60.9261 123.677 61.4768 124.522 62.0818 125.444C63.7342 123.93 65.6348 122.415 67.719 120.923C67.8703 120.813 68.0105 120.703 68.1728 120.593H68.1834C71.2827 118.409 74.7818 116.269 78.5294 114.195H78.54C78.8315 114.031 79.1124 113.866 79.4039 113.712C82.3846 112.088 85.5165 110.497 88.7131 108.961C112.925 97.372 130.435 92.6167 130.435 92.6167L128.059 89.6758C122.767 91.3658 110.463 95.1884 88.1624 106.228C83.6266 108.467 79.134 110.848 74.8357 113.361C74.6412 113.46 74.4576 113.57 74.2741 113.691C70.8723 115.677 67.6001 117.751 64.5331 119.88C64.4685 119.924 64.4035 119.968 64.3385 120.023C62.978 120.967 61.671 121.921 60.4077 122.887Z" fill="#23944E"/>
<path d="M30.6227 120.533C39.651 124.012 46.7354 122.377 51.9299 119.216C51.9299 119.216 51.9406 119.216 51.9406 119.205C51.9516 119.195 51.9516 119.195 51.9516 119.195C52.459 118.887 52.9343 118.569 53.3988 118.24C54.3599 117.549 55.2454 116.813 56.0553 116.056C56.0553 116.056 56.0553 116.056 56.0663 116.045C60.0944 112.303 62.2759 108.067 62.6217 106.816C69.0258 107.342 74.2852 106.585 78.335 105.455C80.8622 104.314 82.7195 103.469 85.4304 102.272C85.4737 102.108 86.3592 101.603 86.5104 101.471C87.5905 100.505 92.5904 95.1608 88.2708 92.527C87.3203 91.9454 86.4565 91.7148 85.6682 91.7148H85.6576C85.409 91.7148 85.1715 91.7369 84.934 91.7809C83.5517 92.0334 82.407 92.9441 81.4242 93.7122C81.4136 93.723 81.4026 93.7231 81.4026 93.7342C80.7869 94.217 80.2253 94.6561 79.6962 94.8317C79.6206 94.8538 79.5559 94.8758 79.491 94.8866C79.2968 94.9306 79.0805 94.9526 78.8214 94.9526C76.413 95.0951 71.4561 94.2065 68.1516 94.3382C64.5123 94.4698 61.942 93.9211 58.1621 92.6922C54.3822 91.4521 37.6431 97.4879 30.8935 102.02C28.3879 103.699 25.6557 104.435 23.1934 104.698C20.7954 110.514 21.1516 116.879 30.6227 120.533Z" fill="#F4C198"/>
<path d="M79.6953 94.8279C80.1487 95.6289 81.1315 96.5836 82.2116 96.9898C83.8747 97.6374 86.7474 94.8499 86.7474 93.9721C86.2507 92.5015 85.5054 91.9639 84.9331 91.7773C83.5508 92.0299 82.4061 92.9406 81.4234 93.7087C81.4127 93.7195 81.4017 93.7195 81.4017 93.7307C80.786 94.2131 80.2244 94.6522 79.6953 94.8279Z" fill="#FFF4E3"/>
<path opacity="0.5" d="M86.7471 93.9751C86.7471 94.8552 83.874 97.6401 82.2129 96.9932C81.1302 96.5892 80.1478 95.6336 79.6953 94.8323C79.8763 94.7699 80.0637 94.6812 80.2544 94.563C80.765 95.1344 81.4631 95.6763 82.2129 95.9587C83.6155 96.5038 85.8777 94.6057 86.5532 93.4727C86.621 93.627 86.6857 93.7945 86.7471 93.9751Z" fill="#EADECE"/>
<path d="M62.6215 106.812C62.6215 106.812 56.613 123.288 37.4946 123.061C40.4701 121.655 52.4873 122.388 62.6215 106.812Z" fill="#E5AE89"/>
<path d="M56.1544 128.167C55.8538 128.111 55.5481 128.217 55.3422 128.446C54.681 129.182 53.3521 130.915 54.0931 132.248C55.0601 133.986 57.059 134.44 57.7286 133.76C58.3982 133.079 59.6938 130.925 59.2908 129.715C58.9848 128.796 57.0609 128.335 56.1544 128.167Z" fill="#FFF4E3"/>
<path opacity="0.5" d="M59.3593 130.505C59.2255 131.703 58.276 133.215 57.7376 133.765C57.0651 134.443 55.0685 133.989 54.1015 132.253C53.7654 131.649 53.8546 130.962 54.1164 130.324C54.0866 130.675 54.1461 131.023 54.3245 131.346C55.2915 133.082 57.2913 133.535 57.9577 132.858C58.3714 132.438 59.0142 131.47 59.3593 130.505Z" fill="#EADECE"/>
<path d="M53.8252 118.727C53.8252 118.727 52.2985 120.265 52.5961 121.097C52.8937 121.928 54.3655 124.049 55.973 123.064C57.0686 122.215 57.0686 122.215 57.0686 122.215L53.8252 118.727Z" fill="#FFF4E3"/>
<path opacity="0.5" d="M57.0692 122.217C57.0692 122.217 57.0692 122.217 55.9742 123.067C54.3674 124.053 52.8943 121.93 52.597 121.098C52.5317 120.92 52.5524 120.708 52.6238 120.484C52.9809 121.361 54.4152 123.333 55.9745 122.374C56.3048 122.12 56.534 121.942 56.6946 121.815L57.0692 122.217Z" fill="#EADECE"/>
<path opacity="0.3" d="M98.6529 89.7459C98.6529 95.2158 94.2906 99.6486 88.9078 99.6486C88.6579 99.6486 88.4107 99.6394 88.1667 99.6184C89.7438 97.5531 91.3268 94.3511 88.2827 92.4976C87.3336 91.917 86.4678 91.6874 85.6792 91.6874C87.3662 90.8861 89.0506 90.094 90.7347 89.3045C93.3563 88.0799 95.7369 86.9521 97.8999 85.918C98.385 87.094 98.6529 88.3882 98.6529 89.7459Z" fill="#2FA754"/>
<path d="M16.9345 140.387H11.8296V101.871H16.9345C17.9496 101.871 18.7728 102.708 18.7728 103.739V138.519C18.7728 139.55 17.95 140.387 16.9345 140.387Z" fill="#FCECD2"/>
<path d="M11.3055 142.393H-0.22168V99.7578H11.3055C12.0029 99.7578 12.5685 100.333 12.5685 101.041V141.11C12.5682 141.818 12.0029 142.393 11.3055 142.393Z" fill="#3C3C3B"/>
</g>
</svg>
