<svg width="180" height="150" viewBox="0 0 180 150" fill="none" xmlns="http://www.w3.org/2000/svg">
<path d="M70.5015 6.33588C64.1027 9.3505 58.4104 16.2138 52.2318 20.6715C44.6319 26.1546 36.0915 28.0431 27.8825 31.1587C10.9764 37.5762 -3.39301 53.8791 0.705749 81.6397C2.41123 93.1918 6.03501 104.148 6.75271 115.917C6.9354 118.915 6.96529 122.115 8.11735 124.615C9.37979 127.354 11.679 128.582 13.8255 129.645C32.1238 138.71 51.5593 147.889 70.4379 141.844C78.4018 139.294 86.1543 134.053 94.2948 134.752C102.59 135.465 110.08 142.277 118.276 144.274C127.38 146.492 136.657 142.626 145.249 137.72C153.474 133.025 161.431 127.337 169.01 120.735C173.68 116.668 178.582 111.491 179.738 103.757C180.676 97.4756 178.888 91.1149 177.653 84.9423C175.565 74.5066 175.022 63.565 173.58 52.9009C172.138 42.2368 169.627 31.4315 164.396 23.6683C157.284 13.113 146.434 10.0181 136.274 9.73838C120.888 9.31446 105.226 14.0653 90.2615 8.85115C85.5728 7.21752 80.9377 4.60453 76.1189 4.84343C74.1723 4.94003 72.3089 5.48469 70.5015 6.33588Z" fill="#EF4C55" fill-opacity="0.16"/>
<path d="M153.425 49.6415L88.4854 28.4258L61.5192 122.446L126.459 143.661L153.425 49.6415Z" fill="#FCD936"/>
<path d="M104.921 29.5513L38.6025 45.1641L58.4471 141.18L124.765 125.567L104.921 29.5513Z" fill="#FE6083"/>
<path d="M122.955 135.834H55.9686C52.9455 135.834 50.4951 133.219 50.4951 129.993V32.7987C50.4951 29.5722 52.9458 26.957 55.9686 26.957H122.955C125.978 26.957 128.429 29.5726 128.429 32.7987V129.993C128.429 133.219 125.978 135.834 122.955 135.834Z" fill="#6663DE"/>
<path d="M123.419 32.2617H55.5049V130.588H123.419V32.2617Z" fill="#4444B7"/>
<path d="M123.419 31.2695H55.5049V129.596H123.419V31.2695Z" fill="white"/>
<path d="M74.2509 68.2203C74.2948 59.3064 81.101 52.0683 89.4632 52.0683C97.8254 52.0683 104.632 59.306 104.675 68.2203H114.541C114.497 53.5004 103.266 41.5391 89.4635 41.5391C75.6613 41.5391 64.4296 53.5004 64.3857 68.2203H74.2509Z" fill="#FCD936"/>
<path d="M74.2511 68.2186H64.3852C64.3852 68.2186 63.7104 57.1677 72.0451 49.0664L78.8753 56.659C78.8753 56.659 74.3882 60.7078 74.2511 68.2186Z" fill="#FE6083"/>
<path d="M78.8762 56.66L72.0459 49.0674C72.0459 49.0674 78.6112 40.5797 91.3303 41.6149L90.7624 52.1274C90.7624 52.1274 84.4422 51.0089 78.8762 56.66Z" fill="#F89520"/>
<path d="M104.675 68.2163H114.541C114.541 68.2163 115.109 58.0524 107.868 50.1406L100.396 57.0268C100.396 57.0268 104.699 61.2848 104.675 68.2163Z" fill="#ADC436"/>
<path d="M120.158 68.2188H58.7656V71.0086H120.158V68.2188Z" fill="#6663DE"/>
<path d="M90.6809 70.1861C90.5417 70.1861 90.4024 70.1282 90.2976 70.013L71.6629 49.4659C71.4578 49.2396 71.4634 48.8795 71.6754 48.6606C71.8868 48.4414 72.2238 48.4474 72.4299 48.6736L91.0646 69.2208C91.2697 69.4471 91.2641 69.8071 91.0521 70.026C90.9483 70.133 90.8146 70.1861 90.6809 70.1861Z" fill="#6663DE"/>
<path d="M67.6115 102.977H59.124V93.918H67.6115V102.977ZM60.0968 101.939H66.6391V94.9562H60.0968V101.939Z" fill="#CBD3F9"/>
<path d="M92.5927 95.7062H73.3877C73.1193 95.7062 72.9014 95.4739 72.9014 95.1871C72.9014 94.9002 73.119 94.668 73.3877 94.668H92.5927C92.8612 94.668 93.0791 94.9002 93.0791 95.1871C93.0791 95.4739 92.8612 95.7062 92.5927 95.7062Z" fill="#CBD3F9"/>
<path d="M100.47 99.0382H73.3877C73.1193 99.0382 72.9014 98.806 72.9014 98.5191C72.9014 98.2322 73.119 98 73.3877 98H100.47C100.738 98 100.956 98.2322 100.956 98.5191C100.956 98.806 100.738 99.0382 100.47 99.0382Z" fill="#CBD3F9"/>
<path d="M119.313 99.0382H105.535C105.267 99.0382 105.049 98.806 105.049 98.5191C105.049 98.2322 105.266 98 105.535 98H119.313C119.581 98 119.799 98.2322 119.799 98.5191C119.799 98.806 119.581 99.0382 119.313 99.0382Z" fill="#CBD3F9"/>
<path d="M110.684 102.23H73.3877C73.1193 102.23 72.9014 101.997 72.9014 101.711C72.9014 101.424 73.119 101.191 73.3877 101.191H110.685C110.953 101.191 111.171 101.424 111.171 101.711C111.171 101.997 110.953 102.23 110.684 102.23Z" fill="#CBD3F9"/>
<path d="M67.6115 86.5589H59.124V77.5H67.6115V86.5589ZM60.0968 85.5206H66.6391V78.5378H60.0968V85.5206Z" fill="#CBD3F9"/>
<path d="M92.5927 79.2882H73.3877C73.1193 79.2882 72.9014 79.056 72.9014 78.7691C72.9014 78.4822 73.119 78.25 73.3877 78.25H92.5927C92.8612 78.25 93.0791 78.4822 93.0791 78.7691C93.0791 79.056 92.8612 79.2882 92.5927 79.2882Z" fill="#CBD3F9"/>
<path d="M100.47 82.6202H73.3877C73.1193 82.6202 72.9014 82.388 72.9014 82.1011C72.9014 81.8143 73.119 81.582 73.3877 81.582H100.47C100.738 81.582 100.956 81.8143 100.956 82.1011C100.956 82.388 100.738 82.6202 100.47 82.6202Z" fill="#CBD3F9"/>
<path d="M119.313 82.6202H105.535C105.267 82.6202 105.049 82.388 105.049 82.1011C105.049 81.8143 105.266 81.582 105.535 81.582H119.313C119.581 81.582 119.799 81.8143 119.799 82.1011C119.799 82.388 119.581 82.6202 119.313 82.6202Z" fill="#CBD3F9"/>
<path d="M110.684 85.8156H73.3877C73.1193 85.8156 72.9014 85.5833 72.9014 85.2964C72.9014 85.0096 73.119 84.7773 73.3877 84.7773H110.685C110.953 84.7773 111.171 85.0096 111.171 85.2964C111.171 85.5833 110.953 85.8156 110.684 85.8156Z" fill="#CBD3F9"/>
<path d="M67.6115 119.391H59.124V110.332H67.6115V119.391ZM60.0968 118.353H66.6391V111.37H60.0968V118.353Z" fill="#CBD3F9"/>
<path d="M92.5927 112.112H73.3877C73.1193 112.112 72.9014 111.88 72.9014 111.593C72.9014 111.306 73.119 111.074 73.3877 111.074H92.5927C92.8612 111.074 93.0791 111.306 93.0791 111.593C93.0791 111.88 92.8612 112.112 92.5927 112.112Z" fill="#CBD3F9"/>
<path d="M100.47 115.448H73.3877C73.1193 115.448 72.9014 115.216 72.9014 114.929C72.9014 114.642 73.119 114.41 73.3877 114.41H100.47C100.738 114.41 100.956 114.642 100.956 114.929C100.956 115.216 100.738 115.448 100.47 115.448Z" fill="#CBD3F9"/>
<path d="M119.313 115.448H105.535C105.267 115.448 105.049 115.216 105.049 114.929C105.049 114.642 105.266 114.41 105.535 114.41H119.313C119.581 114.41 119.799 114.642 119.799 114.929C119.799 115.216 119.581 115.448 119.313 115.448Z" fill="#CBD3F9"/>
<path d="M110.684 118.64H73.3877C73.1193 118.64 72.9014 118.408 72.9014 118.121C72.9014 117.834 73.119 117.602 73.3877 117.602H110.685C110.953 117.602 111.171 117.834 111.171 118.121C111.171 118.408 110.953 118.64 110.684 118.64Z" fill="#CBD3F9"/>
<path d="M63.8098 85.836C63.7977 85.836 63.7855 85.8356 63.7729 85.8353C63.5083 85.8234 63.2671 85.6855 63.1107 85.457L60.2321 81.2414C60.0009 80.9025 60.0706 80.4276 60.3881 80.1809C60.706 79.9341 61.1509 80.0088 61.3818 80.3473L63.8464 83.9562L68.1525 78.634C68.4091 78.3166 68.8575 78.2817 69.1559 78.5559C69.4532 78.8298 69.4859 79.3091 69.229 79.6268L64.4633 85.5164C64.2973 85.7212 64.0612 85.836 63.8098 85.836Z" fill="#FE6083"/>
<path d="M63.8098 102.179C63.7973 102.179 63.7848 102.179 63.7722 102.179C63.508 102.166 63.2667 102.029 63.1107 101.8L60.2321 97.5848C60.0009 97.2459 60.0706 96.7711 60.3881 96.5243C60.706 96.2772 61.1509 96.3519 61.3818 96.6908L63.8464 100.3L68.1525 94.9778C68.4091 94.6608 68.8578 94.6252 69.1555 94.8994C69.4532 95.1736 69.4859 95.6526 69.229 95.9699L64.4633 101.86C64.2966 102.065 64.0605 102.179 63.8098 102.179Z" fill="#FE6083"/>
<path d="M63.8098 118.598C63.7977 118.598 63.7855 118.597 63.7729 118.597C63.5083 118.585 63.2671 118.447 63.1107 118.219L60.2321 114.003C60.0009 113.664 60.0706 113.189 60.3881 112.943C60.706 112.695 61.1509 112.771 61.3818 113.109L63.8464 116.718L68.1525 111.396C68.4091 111.078 68.8575 111.043 69.1559 111.318C69.4532 111.592 69.4859 112.071 69.229 112.389L64.4633 118.278C64.2973 118.483 64.0612 118.598 63.8098 118.598Z" fill="#FE6083"/>
<path d="M109.697 22.3594H69.2266V35.826H109.697V22.3594Z" fill="#FCD936"/>
<path d="M89.4622 35.7894C83.0675 35.7894 77.8652 30.2368 77.8652 23.4123C77.8652 16.5877 83.0678 11.0352 89.4622 11.0352C95.8565 11.0352 101.059 16.5877 101.059 23.4123C101.059 30.2368 95.8569 35.7894 89.4622 35.7894ZM89.4622 16.7286C86.0091 16.7286 83.1998 19.7269 83.1998 23.4123C83.1998 27.0976 86.0091 30.0959 89.4622 30.0959C92.9153 30.0959 95.7246 27.0976 95.7246 23.4123C95.7246 19.7269 92.9153 16.7286 89.4622 16.7286Z" fill="#FCD936"/>
<path d="M109.697 32.2617H69.2266V35.8263H109.697V32.2617Z" fill="#F89520"/>
<path d="M74.5856 25.4015C75.5949 26.6987 76.6043 27.9959 77.6136 29.2931C77.7233 29.4343 77.9113 29.2318 77.8023 29.0917C76.793 27.7945 75.7836 26.4973 74.7743 25.2001C74.6643 25.0592 74.4766 25.2614 74.5856 25.4015Z" fill="#F89520"/>
<path d="M77.0359 26.046C77.9645 27.2336 78.8927 28.4212 79.8212 29.6091C79.9313 29.75 80.1193 29.5478 80.0099 29.4077C79.0814 28.2201 78.1532 27.0326 77.2246 25.8446C77.1146 25.7038 76.9266 25.9059 77.0359 26.046Z" fill="#F89520"/>
<path d="M102.682 25.6684C103.403 26.6754 104.125 27.6824 104.847 28.6894C104.949 28.8328 105.181 28.6912 105.077 28.5456C104.355 27.5386 103.634 26.5316 102.912 25.5246C102.809 25.3812 102.577 25.5227 102.682 25.6684Z" fill="#F89520"/>
<path d="M116.33 38.1551C117.564 41.0579 118.799 43.9607 120.033 46.8635C120.104 47.03 120.334 46.8855 120.263 46.7197C119.029 43.8169 117.794 40.9141 116.56 38.0113C116.489 37.8448 116.259 37.9894 116.33 38.1551Z" fill="#CBD3F9"/>
<path d="M116.535 43.4971C116.999 44.8834 117.463 46.2695 117.926 47.6558C117.984 47.8271 118.241 47.7532 118.184 47.58C117.72 46.1936 117.256 44.8076 116.792 43.4213C116.735 43.2503 116.477 43.3239 116.535 43.4971Z" fill="#CBD3F9"/>
<path d="M72.5985 122.532C73.1657 123.416 73.7329 124.299 74.3 125.182C74.3965 125.333 74.6276 125.19 74.5305 125.039C73.9633 124.155 73.3962 123.272 72.829 122.388C72.7326 122.238 72.5014 122.38 72.5985 122.532Z" fill="#CBD3F9"/>
<path d="M74.5509 123.458C75.2002 124.151 75.8499 124.845 76.4992 125.538C76.6208 125.667 76.8095 125.466 76.6879 125.336C76.0386 124.643 75.389 123.95 74.7396 123.257C74.6181 123.127 74.4294 123.328 74.5509 123.458Z" fill="#CBD3F9"/>
<path d="M79.4974 120.95C78.5486 120.95 77.6427 120.363 77.2367 119.378L71.388 105.193C71.1227 104.55 71.108 103.834 71.3465 103.179C71.5854 102.524 72.0488 102.007 72.6518 101.725L113.201 82.6798C114.446 82.0953 115.903 82.701 116.451 84.0283L122.3 98.2135C122.847 99.5416 122.28 101.098 121.036 101.682L80.4868 120.727C80.1648 120.878 79.8285 120.95 79.4974 120.95ZM114.191 83.2164C113.956 83.2164 113.716 83.2673 113.487 83.3747L72.938 102.419C72.0526 102.835 71.6494 103.943 72.0387 104.888L77.8875 119.073C78.2774 120.017 79.3142 120.448 80.2006 120.033L120.75 100.988C121.635 100.572 122.038 99.4646 121.649 98.5193L115.8 84.3345C115.511 83.634 114.866 83.2164 114.191 83.2164Z" fill="#DD436B"/>
<path d="M84.8024 113.554C84.37 113.104 83.985 112.613 83.6483 112.081L83.3235 111.594C82.4175 110.224 81.8821 109.453 81.7163 109.279L81.5391 109.362C81.6648 109.668 81.7745 109.949 81.8692 110.205L82.2264 111.072C82.8078 112.482 83.3544 113.537 83.8669 114.237L83.8798 114.74L83.4658 114.934L83.1765 114.788L82.7556 113.724C82.3656 112.778 81.7292 111.363 80.8466 109.48C79.9222 107.467 79.2914 106.05 78.953 105.23C78.7448 104.725 78.8033 104.396 79.1284 104.243C79.6604 103.993 80.1576 103.936 80.6186 104.071C81.0802 104.205 81.419 104.536 81.6359 105.061L82.0913 106.166C82.1568 106.324 82.2065 106.516 82.2417 106.745C82.2769 106.973 82.2911 107.164 82.2845 107.318L82.2375 108.017L82.1961 108.602L82.4259 108.945L83.0944 109.968C83.5661 110.713 83.97 111.308 84.3067 111.752C84.6426 112.196 84.9891 112.581 85.3456 112.902L85.5123 113.05C85.6976 113.214 85.8159 113.359 85.8678 113.485C85.9113 113.59 85.92 113.696 85.8932 113.803C85.8664 113.909 85.8041 113.986 85.7052 114.032C85.4887 114.136 85.1875 113.976 84.8024 113.554ZM81.4402 107.348C81.3779 106.755 81.2561 106.238 81.0743 105.797C80.9357 105.46 80.7662 105.163 80.566 104.906C80.4473 104.761 80.3129 104.67 80.1632 104.634C80.0128 104.598 79.8537 104.619 79.6862 104.698L79.6893 104.79L79.7186 104.946L80.5152 106.794C80.7603 107.331 81.0151 107.921 81.2797 108.562C81.4486 108.345 81.5022 107.94 81.4402 107.348Z" fill="#DD436B"/>
<path d="M87.7269 112.838C87.5845 112.791 87.48 112.703 87.4139 112.571L87.2443 112.161L87.1145 111.845C87.0657 111.755 87.0153 111.647 86.963 111.521C86.8722 111.3 86.7186 110.971 86.5024 110.532L86.0568 109.536C85.844 109.021 85.5425 108.246 85.1512 107.213C84.8131 106.279 84.5168 105.502 84.2609 104.882C84.2 104.735 84.0942 104.521 83.9431 104.24C83.7881 103.949 83.6823 103.735 83.6255 103.598C83.3178 102.852 83.371 102.381 83.7846 102.187C84.1098 102.034 84.5151 101.926 84.9997 101.861C85.4847 101.796 85.766 101.858 85.844 102.048C85.8879 102.153 85.8858 102.271 85.8388 102.399C85.7918 102.528 85.7201 102.646 85.624 102.754C85.1449 102.791 84.7271 102.862 84.3706 102.966C84.4451 103.12 84.5436 103.344 84.6648 103.638C84.8385 104.058 84.9896 104.44 85.1185 104.781C85.2971 105.299 85.4388 105.684 85.5425 105.937L85.6908 106.168L85.921 106.042C85.9955 105.994 86.0916 105.943 86.2096 105.887C86.6828 105.665 86.9801 105.701 87.1016 105.995C87.1493 106.111 87.1448 106.229 87.0887 106.35C87.0323 106.47 86.9355 106.564 86.7977 106.628C86.6201 106.711 86.4777 106.766 86.3708 106.791L86.0014 106.965C86.1337 107.228 86.3085 107.623 86.525 108.149C86.7419 108.675 86.932 109.151 87.0957 109.576C87.3307 110.231 87.5131 110.716 87.6433 111.032C87.886 111.621 88.0169 111.91 88.0371 111.901L88.5183 111.657C88.6816 111.568 88.881 111.467 89.1178 111.356C89.4917 111.18 89.7316 111.218 89.8357 111.47C89.8966 111.618 89.881 111.76 89.7904 111.897C89.6999 112.033 89.5659 112.143 89.3883 112.227L88.1325 112.817C88.0044 112.877 87.8696 112.884 87.7269 112.838Z" fill="#DD436B"/>
<path d="M91.1677 112.69L91.1155 112.563C91.1082 112.516 91.0935 112.467 91.0716 112.415C91.0542 112.373 91.1016 112.287 91.2133 112.16C91.6214 111.779 91.8699 111.457 91.9598 111.188C92.1008 110.733 91.9942 110.074 91.6384 109.211C91.3522 108.518 90.7725 107.183 89.8994 105.208C89.116 103.479 88.5342 102.153 88.1523 101.227L88.1262 101.164C88.0962 101.178 88.0478 101.195 87.9792 101.214C87.9106 101.234 87.8372 101.262 87.7588 101.299C87.5726 101.362 87.4187 101.402 87.2975 101.422C87.1322 101.449 87.0072 101.445 86.9222 101.409C86.885 101.376 86.8578 101.339 86.8407 101.297C86.8017 101.202 86.8185 101.094 86.8919 100.972C86.9654 100.85 87.0556 100.763 87.1642 100.712C87.6568 100.481 88.2334 100.254 88.8945 100.031C89.555 99.8082 89.9056 99.7446 89.9446 99.8394C89.9881 99.9442 89.9871 100.049 89.9411 100.152C89.8952 100.254 89.8134 100.334 89.6953 100.389L88.9412 100.743C89.171 101.3 89.6528 102.398 90.3875 104.037C90.9442 105.244 91.4243 106.337 91.8275 107.314L92.5235 109.002C92.6753 109.37 92.7783 109.692 92.833 109.968C92.9245 110.389 92.9252 110.79 92.8357 111.172C92.7532 111.599 92.5231 111.983 92.1464 112.323C91.9598 112.499 91.714 112.658 91.4086 112.802C91.2997 112.854 91.2199 112.816 91.1677 112.69Z" fill="#DD436B"/>
<path d="M95.678 109.103C95.5356 109.057 95.4311 108.968 95.365 108.836L95.1958 108.426L95.0659 108.111C95.0165 108.021 94.9667 107.913 94.9144 107.786C94.8236 107.565 94.67 107.236 94.4538 106.798L94.0078 105.802C93.7951 105.287 93.4936 104.512 93.1026 103.479C92.7646 102.545 92.4679 101.768 92.212 101.148C92.1511 101 92.0452 100.786 91.8945 100.505C91.7389 100.215 91.6334 100.001 91.577 99.8641C91.2688 99.1176 91.3221 98.6468 91.7361 98.4525C92.0613 98.2998 92.4662 98.1916 92.9512 98.1262C93.4362 98.0616 93.7175 98.124 93.7955 98.3131C93.839 98.419 93.8376 98.5361 93.7902 98.6643C93.7432 98.7929 93.6715 98.9114 93.5754 99.0199C93.0963 99.0563 92.6786 99.1273 92.322 99.2321C92.3965 99.3848 92.4954 99.6089 92.6166 99.9031C92.7903 100.324 92.9411 100.705 93.0702 101.046C93.2488 101.564 93.3898 101.95 93.4939 102.203L93.6426 102.434L93.8724 102.307C93.9469 102.259 94.0433 102.208 94.1614 102.152C94.6345 101.93 94.9315 101.967 95.053 102.261C95.1007 102.376 95.0965 102.494 95.0405 102.615C94.9841 102.735 94.887 102.828 94.7491 102.893C94.5715 102.976 94.4291 103.031 94.3222 103.056L93.9532 103.229C94.0851 103.494 94.2602 103.888 94.4768 104.414C94.6934 104.94 94.8835 105.416 95.0471 105.841C95.2821 106.497 95.4645 106.981 95.5947 107.297C95.8374 107.886 95.9687 108.175 95.9882 108.166L96.4697 107.922C96.633 107.832 96.8325 107.732 97.0692 107.621C97.4435 107.445 97.683 107.484 97.7868 107.736C97.8481 107.883 97.8327 108.025 97.7422 108.162C97.6514 108.298 97.5173 108.408 97.3401 108.492L96.0836 109.082C95.9558 109.142 95.82 109.149 95.678 109.103Z" fill="#DD436B"/>
<path d="M100.859 106.736C100.589 106.781 100.373 106.791 100.21 106.768C99.3637 106.625 98.5242 105.544 97.6918 103.525L97.5163 103.1L97.3147 102.611L97.1584 102.232C96.985 101.811 96.8346 101.433 96.7082 101.097C96.5811 100.761 96.4527 100.392 96.3218 99.9887C96.1821 99.5647 96.0892 99.2103 96.0415 98.9245C95.9948 98.6395 95.9726 98.3014 95.9764 97.9105C95.9687 97.5496 96.0164 97.2449 96.1195 96.9956C96.2225 96.747 96.3879 96.4999 96.6163 96.2539C96.8155 96.0232 97.0968 95.8218 97.4613 95.6505C97.6093 95.5806 97.7377 95.5646 97.8467 95.6007C97.9557 95.6375 98.0344 95.7133 98.0821 95.8292C98.1252 95.9344 98.1322 96.0444 98.1029 96.1584C98.073 96.2725 98.017 96.3565 97.932 96.4081L97.2374 96.7344C97.04 96.8269 96.9223 97.0391 96.883 97.372C96.8437 97.7042 96.8809 98.094 96.9951 98.5425C97.188 99.3812 97.384 100.042 97.5838 100.526L97.6162 100.604L98.2109 102.133C98.3776 102.594 98.5779 103.109 98.8122 103.676C98.9772 104.076 99.1262 104.395 99.2599 104.634C99.4653 104.989 99.6791 105.265 99.9019 105.463C100.137 105.691 100.423 105.801 100.762 105.793C100.935 105.787 101.111 105.742 101.288 105.658C101.396 105.608 101.487 105.515 101.561 105.38C101.689 105.319 101.807 105.299 101.915 105.317C102.022 105.336 102.1 105.402 102.148 105.518C102.317 105.928 102.13 106.261 101.588 106.515C101.372 106.617 101.128 106.69 100.859 106.736Z" fill="#DD436B"/>
<path d="M104.364 104.647L104.096 104.039C104.012 103.865 103.925 103.667 103.834 103.447L103.627 102.904C103.55 102.802 103.001 101.685 101.981 99.5533C100.961 97.4218 100.314 96.0503 100.038 95.4394C99.4582 95.6862 99.0672 95.7947 98.8663 95.7635C98.7232 95.73 98.6303 95.6613 98.5868 95.5557C98.5519 95.4718 98.5725 95.3711 98.6477 95.254C98.7229 95.1377 98.8151 95.053 98.9234 95.0028C99.1992 94.8732 99.5428 94.7368 99.9543 94.5937C100.35 94.4707 100.696 94.3395 100.992 94.2009L101.11 94.1452L101.228 94.0895C101.534 93.9464 101.738 94.0007 101.842 94.253C101.895 94.3789 101.888 94.5045 101.822 94.6301C101.755 94.7554 101.658 94.8483 101.53 94.9081C101.442 94.9497 101.307 94.9939 101.127 95.0407L100.805 95.1173L100.823 95.2024L100.841 95.2882C101.227 96.2246 101.926 97.6775 102.939 99.6495C103.89 101.5 104.585 102.957 105.023 104.018C105.074 104.144 105.068 104.279 105.004 104.422C104.939 104.566 104.843 104.667 104.715 104.728L104.364 104.647Z" fill="#DD436B"/>
<path d="M107.782 103.42C107.64 103.374 107.535 103.285 107.469 103.152L107.3 102.742L107.17 102.427C107.121 102.338 107.071 102.229 107.019 102.102C106.928 101.881 106.774 101.552 106.558 101.114L106.112 100.118C105.9 99.6031 105.598 98.8283 105.207 97.7946C104.869 96.8608 104.572 96.0845 104.316 95.464C104.255 95.3165 104.15 95.1021 103.999 94.8219C103.844 94.5313 103.738 94.3169 103.681 94.1805C103.374 93.4337 103.426 92.9632 103.84 92.7689C104.166 92.6162 104.571 92.5077 105.055 92.4426C105.54 92.378 105.822 92.4404 105.9 92.6296C105.943 92.7351 105.942 92.8521 105.894 92.9803C105.847 93.1093 105.776 93.2278 105.679 93.3356C105.2 93.3727 104.783 93.4437 104.426 93.5485C104.501 93.7012 104.599 93.9253 104.721 94.2196C104.894 94.6402 105.045 95.0211 105.174 95.3626C105.353 95.8809 105.494 96.2662 105.598 96.5182L105.747 96.7501L105.976 96.6233C106.051 96.5758 106.147 96.5241 106.265 96.4684C106.739 96.2465 107.036 96.2822 107.157 96.5773C107.205 96.6928 107.201 96.8106 107.144 96.931C107.088 97.0518 106.991 97.1447 106.853 97.2093C106.676 97.2926 106.533 97.3468 106.427 97.3721L106.057 97.5456C106.189 97.8098 106.364 98.2048 106.581 98.7302C106.797 99.2568 106.987 99.7316 107.151 100.157C107.386 100.813 107.569 101.298 107.699 101.613C107.941 102.202 108.073 102.492 108.093 102.482L108.574 102.238C108.737 102.149 108.937 102.048 109.173 101.937C109.548 101.762 109.787 101.8 109.891 102.052C109.952 102.2 109.937 102.341 109.846 102.478C109.755 102.615 109.621 102.724 109.444 102.808L108.188 103.398C108.06 103.458 107.925 103.466 107.782 103.42Z" fill="#DD436B"/>
<path d="M110.897 99.5278L109.899 97.0211C109.605 96.2809 109.269 95.4523 108.892 94.5378C108.754 94.2012 108.509 93.6947 108.16 93.0177C107.794 92.2734 107.576 91.8175 107.507 91.6484C107.451 91.512 107.455 91.366 107.52 91.2095C107.585 91.0538 107.682 90.9457 107.81 90.8855C108.155 90.7231 108.521 90.6492 108.908 90.6615C109.295 90.6741 109.673 90.7696 110.041 90.948C110.827 91.3441 111.463 91.8869 111.947 92.5755C112.196 92.9233 112.399 93.286 112.555 93.6646C112.612 93.8014 112.658 93.9299 112.696 94.0499L112.857 94.4828L113.215 95.3501C113.492 96.0234 113.692 96.5637 113.812 96.9713C113.97 97.525 114.05 98.0459 114.051 98.5342C114.036 99.0685 113.913 99.5973 113.682 100.12C113.57 100.361 113.408 100.626 113.197 100.913L112.133 101.413C111.877 101.534 111.465 100.905 110.897 99.5278ZM112.93 99.8812C113.052 99.6917 113.133 99.4751 113.173 99.2302C113.202 99.0154 113.206 98.7601 113.184 98.4629C113.161 98.166 113.119 97.8877 113.059 97.6268C112.953 97.1122 112.808 96.6031 112.623 96.0992C112.581 95.9684 112.511 95.7823 112.41 95.5407C111.101 92.3648 109.842 90.9792 108.632 91.3838C108.758 91.8895 108.95 92.4521 109.205 93.0727C109.478 93.7356 109.995 94.8737 110.754 96.4879C111.426 97.917 111.94 99.063 112.295 99.9251L112.451 100.303C112.649 100.211 112.808 100.07 112.93 99.8812Z" fill="#DD436B"/>
<path d="M141.332 37.3264C147.771 37.3264 152.99 31.7557 152.99 24.8839C152.99 18.0121 147.771 12.4414 141.332 12.4414C134.893 12.4414 129.674 18.0121 129.674 24.8839C129.674 31.7557 134.893 37.3264 141.332 37.3264Z" fill="#FCD936"/>
<path d="M141.353 35.3783C140.884 35.3783 140.412 35.3426 139.94 35.2702C137.34 34.8733 135.042 33.4197 133.467 31.1772C130.217 26.5484 131.101 19.9602 135.437 16.4907C139.774 13.0216 145.946 13.9643 149.198 18.5935C150.773 20.8356 151.435 23.598 151.063 26.3719C150.691 29.1457 149.329 31.5989 147.228 33.2796C145.509 34.6548 143.464 35.3783 141.353 35.3783ZM141.322 15.5368C139.493 15.5368 137.651 16.144 136.078 17.4018C132.212 20.4949 131.424 26.3678 134.321 30.4942C135.725 32.493 137.774 33.7887 140.091 34.1428C142.406 34.4984 144.716 33.8671 146.588 32.3685C148.461 30.8702 149.675 28.6835 150.007 26.2106C150.339 23.7377 149.748 21.2752 148.345 19.2764C146.625 16.8288 143.989 15.5368 141.322 15.5368Z" fill="#F89520"/>
<path d="M136.01 27.9268C136.326 27.6734 136.414 27.2067 136.216 26.8418C136.001 26.4471 135.812 26.0551 135.651 25.6657C135.52 25.351 135.413 25.0689 135.329 24.8196C135.215 24.4777 135.329 24.098 135.601 23.8802L136.632 23.0557C136.977 22.7789 137.468 22.8539 137.727 23.2233L138.624 24.4997C138.804 24.7572 138.84 25.1094 138.689 25.3874C138.655 25.4491 138.634 25.5104 138.624 25.5713C138.597 25.7452 138.68 25.9678 138.87 26.2387C139.039 26.4795 139.197 26.6266 139.345 26.679C139.492 26.7318 139.636 26.7017 139.777 26.5887C139.876 26.5099 139.933 26.3907 139.948 26.232C139.963 26.073 139.925 25.8351 139.836 25.5193C139.538 24.4521 139.351 23.5937 139.274 22.9435C139.198 22.2932 139.249 21.715 139.427 21.2078C139.605 20.701 139.962 20.2328 140.498 19.804C141.225 19.2228 141.958 18.9891 142.699 19.1017C143.298 19.1934 143.924 19.5595 144.577 20.2004C144.858 20.4769 145.281 20.5107 145.587 20.2658L145.635 20.2279C145.98 19.9511 146.471 20.0262 146.73 20.3955L146.83 20.5382C147.09 20.9072 147.02 21.4308 146.673 21.7076C146.356 21.9614 146.271 22.4277 146.468 22.7952C146.691 23.2121 146.875 23.6209 147.021 24.0214C147.14 24.3496 147.231 24.6409 147.294 24.8954C147.374 25.2209 147.255 25.5631 147.002 25.7649L146.123 26.468C145.777 26.7448 145.287 26.6697 145.027 26.3004L144.206 25.131C144.037 24.891 143.961 24.5666 144.077 24.2934C144.169 24.0761 144.118 23.8293 143.924 23.5532C143.75 23.305 143.594 23.1501 143.458 23.0888C143.321 23.0275 143.179 23.0561 143.031 23.1746C142.918 23.2649 142.868 23.3816 142.88 23.5246C142.892 23.6677 142.955 23.9055 143.068 24.2388C143.353 25.1158 143.542 25.8604 143.637 26.4732C143.731 27.0855 143.693 27.6745 143.523 28.2397C143.352 28.8048 142.982 29.3161 142.41 29.7732C141.606 30.4164 140.8 30.6646 139.992 30.5175C139.345 30.4001 138.712 30.0404 138.092 29.4388C137.811 29.1657 137.391 29.133 137.086 29.3763L136.975 29.4651C136.63 29.742 136.139 29.6669 135.88 29.2976L135.779 29.1549C135.52 28.7859 135.59 28.2623 135.936 27.9855L136.01 27.9268Z" fill="#F89520"/>
<path d="M127.315 24.885C133.754 24.885 138.974 19.3143 138.974 12.4425C138.974 5.5707 133.754 0 127.315 0C120.877 0 115.657 5.5707 115.657 12.4425C115.657 19.3143 120.877 24.885 127.315 24.885Z" fill="#FCD936"/>
<path d="M127.328 22.9406C126.361 22.9406 125.39 22.7868 124.439 22.4761C121.928 21.6561 119.867 19.8412 118.635 17.3669C117.404 14.8925 117.148 12.054 117.917 9.37446C119.503 3.84343 125.009 0.719892 130.193 2.41394C135.376 4.10725 138.301 9.9846 136.715 15.5156C135.946 18.1951 134.246 20.3945 131.928 21.7096C130.487 22.5263 128.914 22.9406 127.328 22.9406ZM127.321 3.09208C123.57 3.09208 120.091 5.68537 118.937 9.70777C118.252 12.0963 118.479 14.6268 119.578 16.8329C120.676 19.039 122.513 20.6565 124.752 21.3878C126.989 22.1191 129.36 21.876 131.427 20.7041C133.494 19.5321 135.01 17.5712 135.695 15.1827C137.109 10.2518 134.501 5.01243 129.881 3.50268C129.029 3.22437 128.168 3.09208 127.321 3.09208Z" fill="#F89520"/>
<path d="M124.696 18.2518C124.812 17.8479 124.625 17.4154 124.263 17.2456C123.872 17.062 123.503 16.864 123.157 16.6514C122.878 16.4794 122.635 16.3192 122.43 16.1702C122.149 15.9662 122.031 15.5876 122.131 15.2405L122.508 13.9255C122.634 13.4844 123.072 13.2362 123.485 13.3714L124.914 13.8381C125.202 13.9322 125.426 14.1945 125.457 14.5144C125.464 14.5854 125.48 14.6486 125.507 14.7036C125.581 14.8607 125.77 14.9889 126.074 15.0882C126.343 15.1762 126.553 15.1955 126.7 15.1454C126.848 15.0952 126.948 14.9804 127 14.8005C127.036 14.675 127.016 14.5427 126.94 14.4048C126.864 14.267 126.703 14.0986 126.456 13.8998C125.626 13.2254 125.001 12.6494 124.58 12.1727C124.159 11.696 123.88 11.1966 123.744 10.6748C123.608 10.1531 123.638 9.55043 123.834 8.86672C124.1 7.94036 124.563 7.28972 125.223 6.91516C125.758 6.61232 126.465 6.51422 127.347 6.62086C127.727 6.66694 128.087 6.42838 128.199 6.03822L128.216 5.97765C128.343 5.53658 128.78 5.28836 129.194 5.42362L129.354 5.47564C129.767 5.61053 129.999 6.07761 129.873 6.51868C129.757 6.92333 129.946 7.35326 130.307 7.52642C130.718 7.72298 131.093 7.93702 131.432 8.16888C131.709 8.35876 131.943 8.53713 132.135 8.70322C132.379 8.91577 132.472 9.26729 132.38 9.58871L132.058 10.7098C131.932 11.1508 131.494 11.3991 131.081 11.2638L129.771 10.8361C129.503 10.7484 129.262 10.5344 129.204 10.2408C129.159 10.0071 128.981 9.8399 128.672 9.73883C128.394 9.64816 128.183 9.62104 128.039 9.65745C127.895 9.69387 127.795 9.80683 127.741 9.99559C127.7 10.1394 127.724 10.2654 127.813 10.3731C127.902 10.4809 128.084 10.6336 128.359 10.832C129.074 11.3608 129.638 11.8431 130.053 12.2782C130.467 12.7137 130.761 13.2131 130.936 13.7772C131.111 14.3409 131.094 14.9871 130.885 15.7158C130.591 16.7413 130.077 17.4488 129.343 17.8386C128.756 18.1504 128.045 18.2585 127.212 18.1626C126.834 18.1192 126.477 18.3566 126.366 18.7449L126.325 18.8865C126.198 19.3276 125.761 19.5758 125.348 19.4405L125.188 19.3885C124.774 19.2536 124.542 18.7865 124.669 18.3455L124.696 18.2518Z" fill="#F89520"/>
<path d="M142.477 150.002C148.915 150.002 154.135 144.431 154.135 137.56C154.135 130.688 148.915 125.117 142.477 125.117C136.038 125.117 130.818 130.688 130.818 137.56C130.818 144.431 136.038 150.002 142.477 150.002Z" fill="#FCD936"/>
<path d="M142.485 148.05C138.459 148.05 134.674 145.388 133.23 141.119C132.339 138.483 132.463 135.635 133.579 133.098C134.696 130.562 136.671 128.642 139.141 127.691C141.61 126.74 144.279 126.872 146.655 128.063C149.032 129.255 150.831 131.363 151.722 133.999C152.614 136.635 152.49 139.483 151.373 142.019C150.256 144.555 148.282 146.476 145.812 147.427C144.714 147.849 143.591 148.049 142.485 148.05ZM142.482 128.201C141.48 128.201 140.474 128.387 139.503 128.761C137.301 129.609 135.541 131.321 134.546 133.582C133.551 135.843 133.44 138.382 134.234 140.732C135.874 145.583 140.906 148.105 145.45 146.355C147.652 145.507 149.413 143.795 150.408 141.534C151.403 139.273 151.513 136.734 150.719 134.384C149.925 132.034 148.32 130.155 146.202 129.093C145.018 128.5 143.752 128.201 142.482 128.201Z" fill="#F89520"/>
<path d="M148.401 136.314C148.029 136.458 147.816 136.876 147.906 137.287C148.004 137.732 148.076 138.166 148.124 138.589C148.163 138.93 148.188 139.234 148.199 139.498C148.215 139.861 148.002 140.189 147.682 140.312L146.47 140.778C146.064 140.935 145.615 140.71 145.469 140.276L144.962 138.776C144.859 138.473 144.922 138.125 145.143 137.907C145.192 137.858 145.229 137.806 145.254 137.751C145.327 137.593 145.31 137.355 145.202 137.036C145.107 136.753 144.996 136.563 144.87 136.467C144.744 136.371 144.597 136.354 144.431 136.418C144.315 136.463 144.228 136.559 144.17 136.706C144.112 136.854 144.083 137.093 144.082 137.423C144.074 138.536 144.018 139.415 143.913 140.061C143.807 140.707 143.601 141.244 143.291 141.673C142.982 142.102 142.512 142.438 141.881 142.681C141.028 143.01 140.262 143.004 139.585 142.665C139.037 142.391 138.539 141.845 138.09 141.028C137.897 140.676 137.502 140.512 137.143 140.651L137.086 140.672C136.68 140.828 136.231 140.604 136.085 140.17L136.028 140.002C135.881 139.568 136.092 139.09 136.498 138.933C136.872 138.79 137.08 138.37 136.993 137.958C136.894 137.489 136.83 137.041 136.8 136.612C136.776 136.261 136.769 135.954 136.779 135.691C136.792 135.355 136.999 135.065 137.296 134.951L138.329 134.553C138.736 134.396 139.184 134.621 139.331 135.055L139.796 136.43C139.891 136.712 139.876 137.046 139.69 137.271C139.542 137.45 139.523 137.702 139.633 138.026C139.732 138.318 139.838 138.515 139.952 138.616C140.066 138.718 140.21 138.734 140.384 138.667C140.517 138.616 140.597 138.521 140.624 138.38C140.651 138.239 140.657 137.992 140.64 137.638C140.608 136.711 140.63 135.94 140.708 135.324C140.786 134.709 140.984 134.158 141.302 133.671C141.62 133.184 142.115 132.81 142.786 132.551C143.732 132.188 144.571 132.202 145.303 132.595C145.889 132.909 146.396 133.451 146.824 134.219C147.018 134.568 147.411 134.731 147.768 134.593L147.899 134.543C148.306 134.387 148.754 134.612 148.901 135.045L148.957 135.213C149.104 135.647 148.893 136.125 148.487 136.282L148.401 136.314Z" fill="#F89520"/>
<path d="M37.2617 83.4553C43.7004 83.4553 48.92 77.8846 48.92 71.0128C48.92 64.141 43.7004 58.5703 37.2617 58.5703C30.8231 58.5703 25.6035 64.141 25.6035 71.0128C25.6035 77.8846 30.8231 83.4553 37.2617 83.4553Z" fill="#FCD936"/>
<path d="M37.2827 81.5042C36.6996 81.5042 36.1119 81.4489 35.5256 81.3366C32.9415 80.8413 30.6924 79.3022 29.1928 77.0017C26.0977 72.2533 27.1989 65.7026 31.6484 62.3989C36.0976 59.0955 42.2354 60.2712 45.3309 65.0196C46.8301 67.3197 47.4003 70.1059 46.9369 72.8638C46.4735 75.6217 45.0308 78.0225 42.8753 79.6225C41.209 80.8599 39.2708 81.5042 37.2827 81.5042ZM37.249 61.662C35.5224 61.662 33.7792 62.2041 32.2574 63.3341C28.2911 66.2789 27.3093 72.1187 30.0685 76.3522C32.8277 80.5849 38.2994 81.6332 42.2657 78.6884C44.1872 77.2618 45.4729 75.1219 45.8865 72.6635C46.2998 70.2047 45.7915 67.7214 44.4545 65.6707C42.7541 63.061 40.0231 61.662 37.249 61.662Z" fill="#F89520"/>
<path d="M39.9209 76.7955C39.695 76.4488 39.2611 76.338 38.9123 76.5372C38.5352 76.7527 38.1613 76.9396 37.7909 77.0983C37.4914 77.2269 37.2237 77.3309 36.9873 77.4112C36.6632 77.5208 36.3115 77.3863 36.1172 77.0886L35.3816 75.9598C35.1347 75.5811 35.2221 75.0605 35.5769 74.7971L36.8035 73.8863C37.051 73.7028 37.3821 73.6768 37.637 73.8481C37.6937 73.886 37.7501 73.9112 37.8069 73.9231C37.9688 73.9577 38.1801 73.8782 38.4405 73.6846C38.6721 73.5129 38.8151 73.3494 38.8698 73.1941C38.9245 73.0391 38.9015 72.8842 38.8005 72.7296C38.7302 72.6215 38.6205 72.5568 38.4726 72.5349C38.3242 72.5133 38.1004 72.5449 37.8013 72.6293C36.7916 72.9091 35.9811 73.0781 35.3697 73.1368C34.7584 73.1956 34.2184 73.1209 33.7501 72.9128C33.2814 72.7051 32.856 72.3075 32.4734 71.7204C31.955 70.9252 31.7617 70.1344 31.8937 69.3485C32.0006 68.7128 32.3654 68.058 32.9887 67.3843C33.2574 67.0938 33.3041 66.6445 33.0854 66.3094L33.0513 66.2573C32.8045 65.8787 32.8919 65.3581 33.2466 65.0946L33.3838 64.9928C33.7386 64.7294 34.2264 64.8226 34.4732 65.2013C34.6999 65.5487 35.1333 65.6554 35.4846 65.4588C35.8829 65.2355 36.2722 65.0534 36.6527 64.9122C36.9643 64.7966 37.2401 64.7101 37.4806 64.6525C37.7881 64.5785 38.1046 64.7179 38.2846 64.9939L38.9119 65.9563C39.1588 66.335 39.0714 66.8556 38.7166 67.119L37.5924 67.9536C37.3616 68.1249 37.0552 68.1951 36.8035 68.0617C36.6033 67.9558 36.3703 68.0012 36.105 68.1985C35.8662 68.3757 35.7158 68.5366 35.6538 68.6797C35.5915 68.8235 35.6134 68.9762 35.7193 69.1382C35.7997 69.2616 35.9073 69.3196 36.0417 69.3114C36.1761 69.3036 36.401 69.2452 36.7168 69.1367C37.5478 68.8636 38.2522 68.6875 38.8291 68.6087C39.4056 68.5303 39.9557 68.5916 40.4794 68.793C41.0027 68.9948 41.4681 69.4084 41.8762 70.0337C42.45 70.914 42.654 71.7828 42.4876 72.6397C42.3546 73.3252 41.9956 73.9878 41.4104 74.6276C41.1447 74.9182 41.0991 75.3649 41.3163 75.6982L41.3957 75.8197C41.6426 76.1983 41.5552 76.7189 41.2004 76.9824L41.0632 77.0842C40.7085 77.3476 40.2207 77.2544 39.9738 76.8757L39.9209 76.7955Z" fill="#F89520"/>
</svg>
