<svg width="53" height="53" viewBox="0 0 53 53" fill="none" xmlns="http://www.w3.org/2000/svg">
<rect width="53" height="53" rx="26.5" fill="#F1F6FE"/>
<path d="M34.2014 32.7873L32.202 30.7879C32.1091 30.6942 31.9985 30.6198 31.8767 30.5691C31.7549 30.5183 31.6242 30.4922 31.4923 30.4922C31.3603 30.4922 31.2296 30.5183 31.1078 30.5691C30.986 30.6198 30.8754 30.6942 30.7825 30.7879L28.7831 32.7873C28.6899 32.8805 28.616 32.9911 28.5655 33.1129C28.5151 33.2347 28.4891 33.3652 28.4891 33.497C28.4891 33.6288 28.5151 33.7594 28.5655 33.8812C28.616 34.0029 28.6899 34.1136 28.7831 34.2068C28.8763 34.3 28.987 34.3739 29.1088 34.4244C29.2306 34.4748 29.3611 34.5008 29.4929 34.5008C29.6247 34.5008 29.7553 34.4748 29.877 34.4244C29.9988 34.3739 30.1095 34.3 30.2027 34.2068L30.4926 33.9069V37.4958C30.4926 37.7609 30.5979 38.0152 30.7854 38.2026C30.9729 38.3901 31.2271 38.4954 31.4923 38.4954C31.7574 38.4954 32.0117 38.3901 32.1992 38.2026C32.3866 38.0152 32.492 37.7609 32.492 37.4958V33.9069L32.7819 34.2068C32.8748 34.3005 32.9854 34.3749 33.1072 34.4256C33.229 34.4764 33.3597 34.5025 33.4916 34.5025C33.6236 34.5025 33.7543 34.4764 33.8761 34.4256C33.9979 34.3749 34.1085 34.3005 34.2014 34.2068C34.2951 34.1139 34.3695 34.0033 34.4202 33.8815C34.471 33.7597 34.4971 33.629 34.4971 33.497C34.4971 33.3651 34.471 33.2344 34.4202 33.1126C34.3695 32.9908 34.2951 32.8802 34.2014 32.7873Z" fill="#0C75EB"/>
<path d="M40.1997 34.7847C40.1068 34.691 39.9962 34.6167 39.8744 34.5659C39.7526 34.5152 39.6219 34.489 39.4899 34.489C39.358 34.489 39.2273 34.5152 39.1055 34.5659C38.9836 34.6167 38.8731 34.691 38.7802 34.7847L38.4902 35.0846V31.4958C38.4902 31.2306 38.3849 30.9764 38.1974 30.7889C38.01 30.6014 37.7557 30.4961 37.4906 30.4961C37.2254 30.4961 36.9712 30.6014 36.7837 30.7889C36.5962 30.9764 36.4909 31.2306 36.4909 31.4958V35.0846L36.201 34.7847C36.0127 34.5965 35.7574 34.4907 35.4912 34.4907C35.225 34.4907 34.9697 34.5965 34.7814 34.7847C34.5932 34.973 34.4874 35.2283 34.4874 35.4945C34.4874 35.7607 34.5932 36.016 34.7814 36.2043L36.7808 38.2036C36.8737 38.2973 36.9843 38.3717 37.1061 38.4225C37.2279 38.4732 37.3586 38.4993 37.4906 38.4993C37.6225 38.4993 37.7532 38.4732 37.875 38.4225C37.9968 38.3717 38.1074 38.2973 38.2003 38.2036L40.1997 36.2043C40.2934 36.1113 40.3678 36.0008 40.4185 35.879C40.4693 35.7571 40.4954 35.6265 40.4954 35.4945C40.4954 35.3625 40.4693 35.2319 40.4185 35.11C40.3678 34.9882 40.2934 34.8777 40.1997 34.7847Z" fill="#0C75EB"/>
<path d="M27.2125 36.1131C26.3287 36.3678 25.4131 36.4957 24.4934 36.493C22.5162 36.493 20.5834 35.9067 18.9394 34.8082C17.2955 33.7098 16.0141 32.1485 15.2575 30.3218C14.5009 28.4951 14.3029 26.4851 14.6886 24.5459C15.0744 22.6067 16.0265 20.8254 17.4245 19.4274C18.8226 18.0293 20.6039 17.0772 22.5431 16.6914C24.4823 16.3057 26.4923 16.5037 28.319 17.2603C30.1456 18.017 31.7069 19.2983 32.8054 20.9422C33.9039 22.5862 34.4902 24.519 34.4902 26.4962C34.4932 27.5593 34.3244 28.6159 33.9903 29.6252C33.9483 29.7499 33.9313 29.8817 33.9402 30.013C33.9491 30.1443 33.9838 30.2725 34.0423 30.3904C34.1604 30.6285 34.3683 30.8099 34.6201 30.8948C34.872 30.9796 35.1473 30.9609 35.3854 30.8428C35.6235 30.7247 35.8049 30.5169 35.8897 30.265C36.6864 27.8576 36.6997 25.2596 35.9277 22.8442C35.1558 20.4288 33.6382 18.3201 31.593 16.8209C29.5478 15.3218 27.0802 14.5093 24.5444 14.5001C22.0086 14.4909 19.5352 15.2855 17.4792 16.7698C15.4232 18.2541 13.8904 20.3517 13.1009 22.7615C12.3115 25.1713 12.3059 27.7692 13.0851 30.1823C13.8643 32.5954 15.3882 34.6996 17.4378 36.1926C19.4875 37.6856 21.9576 38.4908 24.4934 38.4924C25.6029 38.4988 26.7074 38.3439 27.7723 38.0325C28.0268 37.9583 28.2414 37.786 28.3689 37.5535C28.4964 37.321 28.5263 37.0474 28.4521 36.7929C28.3779 36.5384 28.2056 36.3238 27.9731 36.1963C27.7406 36.0688 27.467 36.0389 27.2125 36.1131Z" fill="#0C75EB"/>
<path d="M27.4906 23.4948C27.7557 23.4948 28.01 23.3895 28.1975 23.202C28.3849 23.0145 28.4903 22.7603 28.4903 22.4951C28.4903 22.23 28.3849 21.9757 28.1975 21.7883C28.01 21.6008 27.7557 21.4955 27.4906 21.4955H25.4912V20.4958C25.4912 20.2306 25.3859 19.9764 25.1984 19.7889C25.0109 19.6014 24.7567 19.4961 24.4915 19.4961C24.2264 19.4961 23.9721 19.6014 23.7846 19.7889C23.5972 19.9764 23.4918 20.2306 23.4918 20.4958V21.4955H22.4922C21.9619 21.4955 21.4534 21.7061 21.0784 22.0811C20.7034 22.456 20.4928 22.9646 20.4928 23.4948V25.4942C20.4928 26.0244 20.7034 26.533 21.0784 26.9079C21.4534 27.2829 21.9619 27.4935 22.4922 27.4935H26.4909V29.4929H21.4925C21.2273 29.4929 20.9731 29.5982 20.7856 29.7857C20.5981 29.9732 20.4928 30.2275 20.4928 30.4926C20.4928 30.7577 20.5981 31.012 20.7856 31.1995C20.9731 31.3869 21.2273 31.4923 21.4925 31.4923H23.4918V32.492C23.4918 32.7571 23.5972 33.0114 23.7846 33.1988C23.9721 33.3863 24.2264 33.4916 24.4915 33.4916C24.7567 33.4916 25.0109 33.3863 25.1984 33.1988C25.3859 33.0114 25.4912 32.7571 25.4912 32.492V31.4923H26.4909C27.0212 31.4923 27.5297 31.2816 27.9046 30.9067C28.2796 30.5317 28.4903 30.0232 28.4903 29.4929V27.4935C28.4903 26.9633 28.2796 26.4547 27.9046 26.0798C27.5297 25.7048 27.0212 25.4942 26.4909 25.4942H22.4922V23.4948H27.4906Z" fill="#0C75EB"/>
</svg>
