<svg width="24" height="24" viewBox="0 0 24 24" fill="none" xmlns="http://www.w3.org/2000/svg">
<path d="M18.4266 17.2403L16.7603 15.5741C16.6829 15.496 16.5907 15.434 16.4892 15.3917C16.3877 15.3494 16.2788 15.3276 16.1688 15.3276C16.0588 15.3276 15.9499 15.3494 15.8484 15.3917C15.7469 15.434 15.6547 15.496 15.5773 15.5741L13.911 17.2403C13.8334 17.318 13.7717 17.4102 13.7297 17.5117C13.6877 17.6132 13.666 17.722 13.666 17.8319C13.666 17.9417 13.6877 18.0505 13.7297 18.152C13.7717 18.2535 13.8334 18.3457 13.911 18.4234C13.9887 18.5011 14.0809 18.5627 14.1824 18.6047C14.2839 18.6468 14.3927 18.6684 14.5026 18.6684C14.6124 18.6684 14.7212 18.6468 14.8227 18.6047C14.9242 18.5627 15.0164 18.5011 15.0941 18.4234L15.3357 18.1734V21.1644C15.3357 21.3854 15.4235 21.5973 15.5797 21.7535C15.7359 21.9097 15.9479 21.9975 16.1688 21.9975C16.3898 21.9975 16.6017 21.9097 16.7579 21.7535C16.9142 21.5973 17.002 21.3854 17.002 21.1644V18.1734L17.2436 18.4234C17.321 18.5015 17.4132 18.5635 17.5147 18.6058C17.6162 18.6481 17.7251 18.6698 17.8351 18.6698C17.9451 18.6698 18.054 18.6481 18.1555 18.6058C18.257 18.5635 18.3492 18.5015 18.4266 18.4234C18.5047 18.3459 18.5667 18.2538 18.609 18.1523C18.6513 18.0507 18.673 17.9418 18.673 17.8319C18.673 17.7219 18.6513 17.613 18.609 17.5115C18.5667 17.4099 18.5047 17.3178 18.4266 17.2403Z" fill="black"/>
<path d="M23.4256 18.9057C23.3482 18.8276 23.256 18.7656 23.1545 18.7233C23.053 18.681 22.9441 18.6592 22.8341 18.6592C22.7241 18.6592 22.6152 18.681 22.5137 18.7233C22.4122 18.7656 22.32 18.8276 22.2426 18.9057L22.001 19.1556V16.1647C22.001 15.9437 21.9132 15.7318 21.757 15.5756C21.6007 15.4193 21.3888 15.3315 21.1678 15.3315C20.9469 15.3315 20.735 15.4193 20.5787 15.5756C20.4225 15.7318 20.3347 15.9437 20.3347 16.1647V19.1556L20.0931 18.9057C19.9362 18.7488 19.7234 18.6607 19.5016 18.6607C19.2797 18.6607 19.0669 18.7488 18.9101 18.9057C18.7532 19.0626 18.665 19.2753 18.665 19.4972C18.665 19.7191 18.7532 19.9318 18.9101 20.0887L20.5763 21.755C20.6538 21.8331 20.7459 21.8951 20.8474 21.9374C20.949 21.9797 21.0579 22.0014 21.1678 22.0014C21.2778 22.0014 21.3867 21.9797 21.4882 21.9374C21.5898 21.8951 21.6819 21.8331 21.7594 21.755L23.4256 20.0887C23.5037 20.0113 23.5657 19.9191 23.608 19.8176C23.6503 19.7161 23.6721 19.6072 23.6721 19.4972C23.6721 19.3872 23.6503 19.2783 23.608 19.1768C23.5657 19.0753 23.5037 18.9831 23.4256 18.9057Z" fill="black"/>
<path d="M12.6021 20.0123C11.8655 20.2246 11.1025 20.3312 10.336 20.3289C8.68821 20.3289 7.07744 19.8403 5.70736 18.9248C4.33728 18.0094 3.26943 16.7082 2.63886 15.1858C2.00828 13.6635 1.84329 11.9883 2.16476 10.3722C2.48622 8.75611 3.2797 7.27161 4.44486 6.10645C5.61001 4.94129 7.09451 4.14781 8.71063 3.82635C10.3267 3.50488 12.0019 3.66987 13.5242 4.30045C15.0466 4.93102 16.3478 5.99887 17.2632 7.36895C18.1787 8.73903 18.6673 10.3498 18.6673 11.9976C18.6698 12.8836 18.5292 13.7642 18.2507 14.6053C18.2157 14.7092 18.2015 14.819 18.209 14.9285C18.2164 15.0379 18.2453 15.1448 18.294 15.243C18.3925 15.4415 18.5657 15.5927 18.7756 15.6634C18.9855 15.7341 19.2149 15.7185 19.4134 15.6201C19.6118 15.5216 19.763 15.3484 19.8337 15.1385C20.4976 13.1322 20.5087 10.9671 19.8654 8.95404C19.222 6.94102 17.9573 5.18364 16.2528 3.93425C14.5484 2.68486 12.4919 2.00772 10.3785 2.00007C8.26523 1.99241 6.20385 2.65462 4.49038 3.89163C2.77691 5.12863 1.4995 6.87679 0.84157 8.88509C0.18364 10.8934 0.179032 13.0585 0.828409 15.0696C1.47779 17.0807 2.74774 18.8343 4.45593 20.0786C6.16412 21.3229 8.22266 21.9938 10.336 21.9952C11.2606 22.0005 12.1812 21.8714 13.0687 21.6119C13.2808 21.5501 13.4596 21.4065 13.5659 21.2127C13.6721 21.019 13.6971 20.791 13.6352 20.5788C13.5733 20.3667 13.4297 20.1879 13.236 20.0816C13.0422 19.9754 12.8142 19.9504 12.6021 20.0123Z" fill="black"/>
<path d="M12.8339 9.49708C13.0548 9.49708 13.2667 9.4093 13.423 9.25306C13.5792 9.09682 13.667 8.88491 13.667 8.66395C13.667 8.44299 13.5792 8.23108 13.423 8.07483C13.2667 7.91859 13.0548 7.83081 12.8339 7.83081H11.1676V6.99768C11.1676 6.77672 11.0798 6.56481 10.9236 6.40857C10.7674 6.25233 10.5554 6.16455 10.3345 6.16455C10.1135 6.16455 9.90161 6.25233 9.74537 6.40857C9.58913 6.56481 9.50135 6.77672 9.50135 6.99768V7.83081H8.66822C8.2263 7.83081 7.80248 8.00637 7.48999 8.31885C7.17751 8.63134 7.00195 9.05516 7.00195 9.49708V11.1633C7.00195 11.6053 7.17751 12.0291 7.48999 12.3416C7.80248 12.6541 8.2263 12.8296 8.66822 12.8296H12.0007V14.4959H7.83509C7.61412 14.4959 7.40221 14.5836 7.24597 14.7399C7.08973 14.8961 7.00195 15.108 7.00195 15.329C7.00195 15.55 7.08973 15.7619 7.24597 15.9181C7.40221 16.0744 7.61412 16.1621 7.83509 16.1621H9.50135V16.9953C9.50135 17.2162 9.58913 17.4281 9.74537 17.5844C9.90161 17.7406 10.1135 17.8284 10.3345 17.8284C10.5554 17.8284 10.7674 17.7406 10.9236 17.5844C11.0798 17.4281 11.1676 17.2162 11.1676 16.9953V16.1621H12.0007C12.4427 16.1621 12.8665 15.9866 13.179 15.6741C13.4915 15.3616 13.667 14.9378 13.667 14.4959V12.8296C13.667 12.3877 13.4915 11.9639 13.179 11.6514C12.8665 11.3389 12.4427 11.1633 12.0007 11.1633H8.66822V9.49708H12.8339Z" fill="black"/>
</svg>
