<svg id="vuesax_outline_eye" data-name="vuesax/outline/eye" xmlns="http://www.w3.org/2000/svg" width="24.653" height="21.976" viewBox="0 0 24.653 21.976">
  <g id="eye" transform="translate(0)">
    <path id="Vector" d="M4.448,8.9A4.448,4.448,0,1,1,8.9,4.448,4.45,4.45,0,0,1,4.448,8.9Zm0-7.355A2.907,2.907,0,1,0,7.355,4.448,2.911,2.911,0,0,0,4.448,1.541Z" transform="translate(7.879 6.54)" fill="#292d32"/>
    <path id="Vector-2" data-name="Vector" d="M10.832,15.854A12.543,12.543,0,0,1,.817,10.564a4.664,4.664,0,0,1,0-5.273A12.572,12.572,0,0,1,10.832,0,12.539,12.539,0,0,1,20.837,5.291a4.664,4.664,0,0,1,0,5.273A12.539,12.539,0,0,1,10.832,15.854Zm0-14.536A10.949,10.949,0,0,0,2.121,6a3.494,3.494,0,0,0,0,3.849,10.949,10.949,0,0,0,8.711,4.684,10.949,10.949,0,0,0,8.711-4.684,3.494,3.494,0,0,0,0-3.849A10.949,10.949,0,0,0,10.832,1.318Z" transform="translate(1.495 3.061)" fill="#292d32"/>
    <path id="Vector-3" data-name="Vector" d="M0,0H24.653V21.976H0Z" fill="none" opacity="0"/>
  </g>
</svg>
