<svg width="16" height="16" viewBox="0 0 16 16" fill="none" xmlns="http://www.w3.org/2000/svg">
<g clip-path="url(#clip0_5546_66506)">
<path fill-rule="evenodd" clip-rule="evenodd" d="M8.16683 1.88915C7.85989 1.837 7.44148 1.83304 6.68669 1.83304C5.4089 1.83304 4.50066 1.83409 3.81206 1.92625C3.13747 2.01654 2.74985 2.18589 2.4681 2.46764C2.18596 2.74978 2.01685 3.13621 1.92667 3.80694C1.83456 4.49205 1.8335 5.39516 1.8335 6.66637V9.33304C1.8335 10.6043 1.83456 11.5074 1.92667 12.1925C2.01685 12.8632 2.18596 13.2496 2.4681 13.5318C2.75024 13.8139 3.13667 13.983 3.8074 14.0732C4.4925 14.1653 5.39562 14.1664 6.66683 14.1664H9.3335C10.6047 14.1664 11.5078 14.1653 12.1929 14.0732C12.8637 13.983 13.2501 13.8139 13.5322 13.5318C13.8144 13.2496 13.9835 12.8632 14.0737 12.1925C14.1658 11.5074 14.1668 10.6043 14.1668 9.33304V9.04164C14.1668 8.01763 14.1596 7.5322 14.051 7.16637H11.9644C11.2091 7.16639 10.592 7.1664 10.1048 7.1009C9.59545 7.03242 9.15389 6.88423 8.80143 6.53177C8.44897 6.17931 8.30078 5.73775 8.23231 5.22845C8.1668 4.74121 8.16681 4.12406 8.16683 3.36883V1.88915ZM9.16683 2.40601V3.33304C9.16683 4.13285 9.16789 4.68241 9.22339 5.0952C9.27696 5.49362 9.37284 5.68897 9.50854 5.82467C9.64423 5.96036 9.83959 6.05625 10.238 6.10981C10.6508 6.16531 11.2004 6.16637 12.0002 6.16637H13.3465C13.1489 5.97468 12.8956 5.74499 12.5668 5.44905L9.92764 3.07379C9.60406 2.78256 9.36322 2.56759 9.16683 2.40601ZM6.7838 0.833024C7.70687 0.832778 8.30323 0.832618 8.85211 1.04324C9.40098 1.25387 9.84227 1.65124 10.525 2.26604C10.5486 2.28727 10.5724 2.30875 10.5966 2.33049L13.2358 4.70576C13.2639 4.73104 13.2916 4.75601 13.3191 4.78067C14.1082 5.49043 14.6184 5.9494 14.8929 6.56569C15.1674 7.18197 15.1672 7.86828 15.1669 8.92962C15.1668 8.9665 15.1668 9.00384 15.1668 9.04164V9.37065C15.1668 10.5958 15.1668 11.5662 15.0647 12.3257C14.9597 13.1073 14.7382 13.74 14.2393 14.2389C13.7404 14.7378 13.1078 14.9592 12.3262 15.0643C11.5667 15.1664 10.5963 15.1664 9.3711 15.1664H6.62922C5.40405 15.1664 4.43362 15.1664 3.67415 15.0643C2.89253 14.9592 2.2599 14.7378 1.76099 14.2389C1.26208 13.74 1.04067 13.1073 0.935586 12.3257C0.833477 11.5662 0.833486 10.5958 0.833496 9.37065V6.62876C0.833486 5.40359 0.833477 4.43317 0.935586 3.67369C1.04067 2.89208 1.26208 2.25945 1.76099 1.76054C2.26029 1.26124 2.89504 1.04007 3.67941 0.935091C4.44205 0.833023 5.4173 0.833031 6.64917 0.833041L6.68669 0.833042C6.71946 0.833042 6.75183 0.833033 6.7838 0.833024Z" fill="#0C75EB"/>
</g>
<defs>
<clipPath id="clip0_5546_66506">
<rect width="16" height="16" fill="white"/>
</clipPath>
</defs>
</svg>
