<svg width="192" height="133" viewBox="0 0 192 133" fill="none" xmlns="http://www.w3.org/2000/svg">
<path d="M35.0687 118.673C36.5558 118.894 37.9166 119.304 39.1642 119.848L39.1631 119.845C39.1814 119.854 39.1991 119.861 39.2171 119.869C39.2664 119.891 39.3151 119.913 39.3638 119.936C46.7968 123.392 50.2103 122.744 53.1328 121.574C61.0252 118.415 65.7046 104.815 78.4869 107.448C83.9086 108.564 88.2707 110.082 91.6704 113.171C91.6695 113.168 91.6656 113.158 91.6656 113.158C91.6895 113.184 91.7132 113.205 91.7368 113.231C92.2244 113.677 92.6998 114.13 93.1491 114.598C99.7976 120.253 106.42 112.881 108.322 111.211C108.462 111.079 108.607 110.03 108.749 109.899C108.825 109.826 108.867 109.782 108.867 109.782L108.868 109.791C117.198 102.139 130.448 94.3885 143.221 96.2914C165.168 99.561 174 132 174 132H102.477H96.6405H51.171H41.1384H10C12.5619 124.329 22.8088 116.846 35.0687 118.673Z" fill="#E3CDC9"/>
<path d="M189.438 65.2826C190.458 65.2826 191.285 64.3589 191.285 63.2194C191.285 62.08 190.458 61.1562 189.438 61.1562C188.418 61.1562 187.591 62.08 187.591 63.2194C187.591 64.3589 188.418 65.2826 189.438 65.2826Z" stroke="white" stroke-width="1.0888" stroke-miterlimit="10"/>
<path d="M3.63833 79.1683C5.09544 79.1683 6.27666 77.8487 6.27666 76.2209C6.27666 74.593 5.09544 73.2734 3.63833 73.2734C2.18122 73.2734 1 74.593 1 76.2209C1 77.8487 2.18122 79.1683 3.63833 79.1683Z" stroke="white" stroke-width="1.0888" stroke-miterlimit="10"/>
<path d="M104.056 14.8181C104.056 15.4379 103.607 15.9404 103.051 15.9404C102.496 15.9404 102.046 15.4379 102.046 14.8181C102.046 14.1982 102.496 13.6953 103.051 13.6953C103.607 13.6953 104.056 14.1982 104.056 14.8181Z" stroke="white" stroke-width="1.0888" stroke-miterlimit="10"/>
<path d="M17.5332 8.79033H60.5943C60.5943 8.79033 60.3864 6.90658 55.6016 5.39913C50.8172 3.89205 47.3847 7.75401 41.976 5.39913C36.5672 3.04425 33.6989 -0.334547 26.73 1.54921C19.7614 3.43333 17.5332 8.79033 17.5332 8.79033Z" stroke="#FAFAFA" stroke-width="1.103" stroke-miterlimit="10" stroke-linecap="round" stroke-linejoin="round"/>
<path d="M154.034 25.4236H176.302C176.302 25.4236 176.195 24.2385 173.721 23.2904C171.246 22.3424 169.471 24.7716 166.674 23.2904C163.877 21.8093 162.394 19.6841 158.79 20.8688C155.186 22.0539 154.034 25.4236 154.034 25.4236Z" stroke="#FAFAFA" stroke-width="1.103" stroke-miterlimit="10" stroke-linecap="round" stroke-linejoin="round"/>
<path d="M124.848 47.5947H41.3794V131.33H124.848V47.5947Z" fill="white"/>
<path d="M124.848 34.4195V47.5912H41.3794V34.4195C41.3794 31.8028 43.5005 29.6816 46.1176 29.6816H120.11C122.727 29.6813 124.848 31.8024 124.848 34.4195Z" fill="#5DA5F5"/>
<path d="M111.911 41.7834C114.08 41.7834 115.838 40.0256 115.838 37.8573C115.838 35.6889 114.08 33.9312 111.911 33.9312C109.743 33.9312 107.985 35.6889 107.985 37.8573C107.985 40.0256 109.743 41.7834 111.911 41.7834Z" fill="#2B4183"/>
<path d="M111.911 39.3361C113.154 39.3361 114.162 38.3286 114.162 37.0858V26.9206C114.162 25.6779 113.154 24.6704 111.911 24.6704C110.669 24.6704 109.661 25.6779 109.661 26.9206V37.0858C109.661 38.3286 110.669 39.3361 111.911 39.3361Z" fill="#FFCB2D"/>
<path d="M84.1996 41.7834C86.3679 41.7834 88.1257 40.0256 88.1257 37.8573C88.1257 35.6889 86.3679 33.9312 84.1996 33.9312C82.0312 33.9312 80.2734 35.6889 80.2734 37.8573C80.2734 40.0256 82.0312 41.7834 84.1996 41.7834Z" fill="#2B4183"/>
<path d="M84.1994 39.3361C85.4422 39.3361 86.4497 38.3286 86.4497 37.0858V26.9206C86.4497 25.6779 85.4422 24.6704 84.1994 24.6704C82.9567 24.6704 81.9492 25.6779 81.9492 26.9206V37.0858C81.9489 38.3286 82.9564 39.3361 84.1994 39.3361Z" fill="#FFCB2D"/>
<path d="M56.4867 41.7834C58.655 41.7834 60.4128 40.0256 60.4128 37.8573C60.4128 35.6889 58.655 33.9312 56.4867 33.9312C54.3183 33.9312 52.5605 35.6889 52.5605 37.8573C52.5605 40.0256 54.3183 41.7834 56.4867 41.7834Z" fill="#2B4183"/>
<path d="M56.4865 39.3361C57.7293 39.3361 58.7368 38.3286 58.7368 37.0858V26.9206C58.7368 25.6779 57.7293 24.6704 56.4865 24.6704C55.2438 24.6704 54.2363 25.6779 54.2363 26.9206V37.0858C54.2363 38.3286 55.2438 39.3361 56.4865 39.3361Z" fill="#FFCB2D"/>
<path d="M96.6427 76.9116H112.513V61.0412H96.6427V76.9116Z" stroke="#F0E0DF" stroke-width="2.2132" stroke-miterlimit="10"/>
<path d="M75.5275 76.9116H91.3979V61.0412H75.5275V76.9116Z" stroke="#F0E0DF" stroke-width="2.2132" stroke-miterlimit="10"/>
<path d="M54.4123 76.9116H70.2827V61.0412H54.4123V76.9116Z" stroke="#F0E0DF" stroke-width="2.2132" stroke-miterlimit="10"/>
<path d="M96.6427 97.062H112.513V81.1916H96.6427V97.062Z" stroke="#F0E0DF" stroke-width="2.2132" stroke-miterlimit="10"/>
<path d="M75.5275 97.062H91.3979V81.1916H75.5275V97.062Z" stroke="#F0E0DF" stroke-width="2.2132" stroke-miterlimit="10"/>
<path d="M54.4123 97.062H70.2827V81.1916H54.4123V97.062Z" fill="#F88AA0"/>
<path d="M60.147 86.8555L64.5471 91.3909" stroke="white" stroke-width="2.0174" stroke-miterlimit="10"/>
<path d="M64.5471 86.8555L60.147 91.3909" stroke="white" stroke-width="2.0174" stroke-miterlimit="10"/>
<path d="M96.6427 117.207H112.513V101.337H96.6427V117.207Z" stroke="#F0E0DF" stroke-width="2.2132" stroke-miterlimit="10"/>
<path d="M75.5275 117.207H91.3979V101.337H75.5275V117.207Z" stroke="#F0E0DF" stroke-width="2.2132" stroke-miterlimit="10"/>
<path d="M54.4123 117.207H70.2827V101.337H54.4123V117.207Z" stroke="#F0E0DF" stroke-width="2.2132" stroke-miterlimit="10"/>
<path d="M123.415 76.1353H115.692V81.2213H123.415V76.1353Z" fill="#FFA80A"/>
<path d="M124.604 77.4557H114.502C113.351 77.4557 112.419 76.5233 112.419 75.3729C112.419 74.2224 113.351 73.29 114.502 73.29H124.604C125.755 73.29 126.687 74.2228 126.687 75.3729C126.687 76.523 125.754 77.4557 124.604 77.4557Z" fill="#FFCB2D"/>
<path d="M100.824 83.8648L96.4697 88.2192L99.5411 91.2906L103.896 86.9362L100.824 83.8648Z" fill="#FFA80A"/>
<path d="M102.199 83.6831L96.1162 89.7661C95.5032 90.3791 94.5092 90.3791 93.8962 89.7661C93.2833 89.1531 93.2833 88.1591 93.8962 87.5462L99.9793 81.4631C100.592 80.8502 101.586 80.8502 102.199 81.4631C102.812 82.0757 102.812 83.0698 102.199 83.6831Z" fill="#FFCB2D"/>
<path d="M119.463 131.251C133.881 131.251 145.568 119.563 145.568 105.146C145.568 90.7289 133.881 79.0415 119.463 79.0415C105.046 79.0415 93.3589 90.7289 93.3589 105.146C93.3589 119.563 105.046 131.251 119.463 131.251Z" fill="#F67B91"/>
<path d="M119.464 129.845C133.106 129.845 144.164 118.786 144.164 105.144C144.164 91.5026 133.106 80.4438 119.464 80.4438C105.822 80.4438 94.7637 91.5026 94.7637 105.144C94.7637 118.786 105.822 129.845 119.464 129.845Z" fill="#F88AA0"/>
<path d="M119.463 127.056C131.564 127.056 141.374 117.246 141.374 105.145C141.374 93.0442 131.564 83.2344 119.463 83.2344C107.362 83.2344 97.5522 93.0442 97.5522 105.145C97.5522 117.246 107.362 127.056 119.463 127.056Z" fill="#F6F6F6"/>
<g opacity="0.71">
<mask id="mask0_1_9202" style="mask-type:luminance" maskUnits="userSpaceOnUse" x="97" y="83" width="45" height="45">
<path d="M119.465 127.05C131.566 127.05 141.375 117.24 141.375 105.139C141.375 93.0383 131.566 83.2285 119.465 83.2285C107.364 83.2285 97.5537 93.0383 97.5537 105.139C97.5537 117.24 107.364 127.05 119.465 127.05Z" fill="white"/>
</mask>
<g mask="url(#mask0_1_9202)">
<path d="M95.4927 87.8049L128.703 139.268L143.708 126.364L110.849 80.3027L95.4927 87.8049Z" fill="white"/>
</g>
<mask id="mask1_1_9202" style="mask-type:luminance" maskUnits="userSpaceOnUse" x="97" y="83" width="45" height="45">
<path d="M119.465 127.05C131.566 127.05 141.375 117.24 141.375 105.139C141.375 93.0383 131.566 83.2285 119.465 83.2285C107.364 83.2285 97.5537 93.0383 97.5537 105.139C97.5537 117.24 107.364 127.05 119.465 127.05Z" fill="white"/>
</mask>
<g mask="url(#mask1_1_9202)">
<path d="M113.191 75.4091L146.402 126.872L148.333 120.42L115.474 74.3589L113.191 75.4091Z" fill="white"/>
</g>
</g>
<path d="M119.572 88.1889C119.268 88.1889 119.021 87.9421 119.021 87.6376V86.3438C119.021 86.0394 119.268 85.7925 119.572 85.7925C119.877 85.7925 120.124 86.0394 120.124 86.3438V87.6376C120.123 87.9421 119.877 88.1889 119.572 88.1889Z" fill="#318CF1"/>
<path d="M119.572 124.802C119.268 124.802 119.021 124.555 119.021 124.25V122.956C119.021 122.652 119.268 122.405 119.572 122.405C119.877 122.405 120.124 122.652 120.124 122.956V124.25C120.123 124.555 119.877 124.802 119.572 124.802Z" fill="#318CF1"/>
<path d="M107.087 93.3574C106.945 93.3574 106.805 93.3038 106.697 93.1959L105.781 92.2806C105.566 92.0655 105.566 91.7161 105.781 91.501C105.997 91.2855 106.346 91.2855 106.561 91.501L107.476 92.4162C107.691 92.6314 107.691 92.9807 107.476 93.1959C107.369 93.3038 107.228 93.3574 107.087 93.3574Z" fill="#318CF1"/>
<path d="M132.973 119.246C132.832 119.246 132.691 119.192 132.583 119.084L131.668 118.169C131.453 117.954 131.453 117.604 131.668 117.389C131.883 117.174 132.232 117.174 132.447 117.389L133.363 118.304C133.578 118.52 133.578 118.869 133.363 119.084C133.255 119.192 133.114 119.246 132.973 119.246Z" fill="#318CF1"/>
<path d="M106.171 119.246C106.03 119.246 105.889 119.192 105.781 119.084C105.566 118.869 105.566 118.52 105.781 118.304L106.697 117.389C106.912 117.174 107.261 117.174 107.476 117.389C107.691 117.604 107.691 117.954 107.476 118.169L106.561 119.084C106.454 119.192 106.312 119.246 106.171 119.246Z" fill="#318CF1"/>
<path d="M132.058 93.3574C131.916 93.3574 131.776 93.3038 131.668 93.1959C131.453 92.9807 131.453 92.6314 131.668 92.4162L132.583 91.501C132.798 91.2855 133.147 91.2855 133.363 91.501C133.578 91.7161 133.578 92.0655 133.363 92.2806L132.447 93.1959C132.34 93.3038 132.199 93.3574 132.058 93.3574Z" fill="#318CF1"/>
<path d="M101.914 105.841H100.62C100.316 105.841 100.069 105.595 100.069 105.29C100.069 104.986 100.316 104.739 100.62 104.739H101.914C102.219 104.739 102.465 104.986 102.465 105.29C102.465 105.595 102.219 105.841 101.914 105.841Z" fill="#318CF1"/>
<path d="M138.523 105.841H137.229C136.925 105.841 136.678 105.595 136.678 105.29C136.678 104.986 136.925 104.739 137.229 104.739H138.523C138.827 104.739 139.074 104.986 139.074 105.29C139.074 105.595 138.827 105.841 138.523 105.841Z" fill="#318CF1"/>
<path d="M120.89 105.075H118.256V93.6569C118.256 92.9295 118.845 92.3398 119.573 92.3398C120.3 92.3398 120.89 92.9295 120.89 93.6569V105.075H120.89Z" fill="#318CF1"/>
<path d="M119.572 108.094C121.241 108.094 122.593 106.741 122.593 105.073C122.593 103.405 121.241 102.052 119.572 102.052C117.904 102.052 116.552 103.405 116.552 105.073C116.552 106.741 117.904 108.094 119.572 108.094Z" fill="#2B4183"/>
<path d="M141.949 78.417L137.179 99.4555C136.887 101.461 137.66 103.474 139.195 104.702L153.438 115.84L153.175 105.584L146.061 99.7782L153.438 77.8379L141.949 78.417Z" fill="#318CF1"/>
<path d="M160.38 115.928L153.522 112.34L156.23 108.518L163.679 112.568L161.302 115.582L160.38 115.928Z" fill="#FA849B"/>
<path d="M162.012 110.957C162.012 110.957 160.853 115.205 157.516 114.967L156.23 125.087L166.076 112.602L162.012 110.957Z" fill="#181F42"/>
<path d="M156.228 125.084L166.074 112.599L167.254 113.529L157.408 126.014L156.228 125.084Z" fill="white"/>
<path d="M157.349 116.295C157.349 116.295 158.118 116.048 159.267 116.101" stroke="white" stroke-width="1.5042" stroke-miterlimit="10" stroke-linecap="round" stroke-linejoin="round"/>
<path d="M157.063 117.772C157.063 117.772 157.832 117.525 158.981 117.578" stroke="white" stroke-width="1.5042" stroke-miterlimit="10" stroke-linecap="round" stroke-linejoin="round"/>
<path d="M156.778 119.256C156.778 119.256 157.547 119.01 158.696 119.063" stroke="white" stroke-width="1.5042" stroke-miterlimit="10" stroke-linecap="round" stroke-linejoin="round"/>
<path d="M154.26 128.323L153.566 120.716L158.244 120.477L158.941 128.833H155.102L154.26 128.323Z" fill="#FA849B"/>
<path d="M159.539 126.532C159.539 126.532 155.486 128.252 153.606 125.485L144.863 130.742H160.764L159.539 126.532Z" fill="#181F42"/>
<path d="M144.863 130.738H160.764V132.24H144.863V130.738Z" fill="white"/>
<path d="M152.463 126.169C152.463 126.169 153.133 126.621 153.803 127.556" stroke="white" stroke-width="1.5042" stroke-miterlimit="10" stroke-linecap="round" stroke-linejoin="round"/>
<path d="M151.123 126.867C151.123 126.867 151.793 127.318 152.463 128.254" stroke="white" stroke-width="1.5042" stroke-miterlimit="10" stroke-linecap="round" stroke-linejoin="round"/>
<path d="M149.783 127.558C149.783 127.558 150.453 128.009 151.123 128.944" stroke="white" stroke-width="1.5042" stroke-miterlimit="10" stroke-linecap="round" stroke-linejoin="round"/>
<path d="M157.703 77.8843L159.849 122.256H151.709L145.781 78.029L157.703 77.8843Z" fill="#78B2F2"/>
<path d="M141.951 78.4114L146.884 86.1451L147.915 78.2163L141.951 78.4114Z" fill="#78B2F2"/>
<path d="M120.796 70.9058L125.657 71.2865L124.787 66.4028L119.709 66.8302L120.796 70.9058Z" fill="#FA849B"/>
<path d="M116.704 70.678C118.134 71.9029 120.285 71.737 121.51 70.3075C122.735 68.8781 122.569 66.7267 121.139 65.5019C119.71 64.277 117.559 64.443 116.334 65.8724C115.109 67.3018 115.275 69.4532 116.704 70.678Z" fill="#FA849B"/>
<path d="M118.746 64.6882C118.746 64.6882 119.364 63.2628 120.808 64.3188C122.251 65.3748 123.531 67.5368 121.51 70.3073L118.746 64.6882Z" fill="#FA849B"/>
<path d="M118.745 64.664L114.83 63.6791C114.506 63.5737 114.144 63.7491 114.032 64.0663C113.936 64.3409 114.06 64.6345 114.326 64.7584L118.303 66.5372L118.745 64.664Z" fill="#FA849B"/>
<path d="M139.152 57.8703L132.73 68.0311C131.821 69.66 132.327 71.714 133.889 72.7343C135.526 73.8042 137.72 73.3491 138.797 71.7158L145.876 61.9543C146.905 60.394 146.694 58.325 145.372 57.0039C143.525 55.1573 140.424 55.589 139.152 57.8703Z" fill="#FFCD2E"/>
<path d="M141.161 68.5L140.782 62.937L139.403 70.9275L141.161 68.5Z" fill="#F2BB19"/>
<path d="M136.063 67.0067L121.925 65.3457L121.97 71.8028L135.118 73.497C137.193 73.8992 139.101 72.2652 139.024 70.1539C138.964 68.5115 137.699 67.1671 136.063 67.0067Z" fill="#FFCD2E"/>
<path d="M160.532 86.1443C160.532 86.1443 158.955 86.2712 159.213 84.4687C159.471 82.6659 160.8 80.4802 164.257 80.9696L160.532 86.1443Z" fill="#FA849B"/>
<path d="M171.941 100.591H156.071V84.7209H171.941V100.591Z" fill="#FFCD2E"/>
<path d="M171.208 100.591H155.337V84.7209H171.208V100.591Z" fill="#FFCD2E"/>
<path d="M166.893 85.1103C167.309 83.2396 166.129 81.3858 164.258 80.9697C162.387 80.5537 160.533 81.7333 160.117 83.6043C159.701 85.4753 160.881 87.3291 162.752 87.7448C164.623 88.1605 166.477 86.9812 166.893 85.1103Z" fill="#FA849B"/>
<path d="M160.117 67.8779L160.272 82.1125L166.508 81.8193L166.674 67.9869C166.809 65.8782 164.945 64.1939 162.86 64.5399C161.239 64.809 160.067 66.2355 160.117 67.8779Z" fill="#FFCD2E"/>
<path d="M152.108 61.9198L160.71 70.3153C162.114 71.5431 164.229 71.4756 165.551 70.1607C166.938 68.782 166.95 66.5409 165.576 65.148L157.502 56.1923C156.189 54.8613 154.122 54.6367 152.555 55.6548C150.364 57.0776 150.141 60.2005 152.108 61.9198Z" fill="#FFCD2E"/>
<path d="M142.508 55.8259L154.741 55.0215C155.843 54.9489 157.81 56.9519 157.694 58.0509L157.701 77.8978L141.95 78.4134L140.35 58.2675C140.277 56.9993 141.24 55.909 142.508 55.8259Z" fill="#FFCD2E"/>
<path d="M157.701 67.3748L154.149 63.9077L157.7 73.2981L157.701 67.3748Z" fill="#F2BB19"/>
<path d="M144.502 47.6194C144.58 48.5401 143.921 49.3511 143.03 49.4309C142.139 49.5112 141.353 48.8296 141.274 47.9093C141.196 46.9886 141.855 46.1776 142.746 46.0977C143.637 46.0175 144.424 46.699 144.502 47.6194Z" fill="#E6728C"/>
<path d="M145.443 51.5456L145.518 55.5414C145.541 56.9445 146.391 57.6778 147.729 57.6392C148.87 57.6064 150.115 57.0288 150.041 55.793L149.631 49.5112L145.443 51.5456Z" fill="#FA849B"/>
<path d="M145.484 54.2035C145.484 54.2035 148.744 54.4172 149.686 50.7331C149.983 49.5728 145.427 51.1368 145.427 51.1368L145.484 54.2035Z" fill="#312725"/>
<path d="M146.664 52.6865C144.382 52.7343 142.465 50.9121 142.363 48.9894L142.17 44.9655C142.041 42.5556 143.787 40.4767 146.115 40.2674C148.499 40.0534 151.02 41.8379 151.23 44.2993L151.342 47.4367C151.446 50.2616 149.391 52.4414 146.664 52.6865Z" fill="#F8879D"/>
<path d="M144.735 47.2246L144.628 48.5399L145.193 48.5512" stroke="#312725" stroke-width="0.5974" stroke-miterlimit="10" stroke-linecap="round" stroke-linejoin="round"/>
<path d="M147.209 44.5608C147.209 44.5608 146.273 44.4984 146.271 44.8911C146.271 44.8911 146.276 45.1569 147.093 45.1952C147.909 45.2335 148.12 45.1679 148.19 44.9166C148.26 44.6658 147.648 44.5553 147.209 44.5608Z" fill="#312725"/>
<path d="M143.303 45.4849C143.303 45.4849 144.073 45.389 144.143 45.7569C144.143 45.7569 144.184 46.006 143.51 46.0745C142.835 46.1431 142.614 46.0581 142.546 45.8579C142.47 45.6304 142.937 45.4973 143.303 45.4849Z" fill="#312725"/>
<path d="M143.893 46.9801C143.903 47.2036 143.737 47.3939 143.521 47.4049C143.304 47.4162 143.12 47.2441 143.109 47.0206C143.098 46.797 143.264 46.6067 143.481 46.5957C143.697 46.5844 143.881 46.7566 143.893 46.9801Z" fill="#312725"/>
<path d="M147.328 46.8023C147.339 47.0259 147.173 47.2162 146.956 47.2272C146.74 47.2385 146.555 47.0663 146.544 46.8428C146.533 46.6193 146.699 46.4289 146.916 46.418C147.133 46.4067 147.317 46.5788 147.328 46.8023Z" fill="#312725"/>
<path d="M146.382 49.1191C146.36 49.1837 145.823 49.7423 145.071 49.5487" stroke="#312725" stroke-width="0.5974" stroke-miterlimit="10" stroke-linecap="round" stroke-linejoin="round"/>
<path d="M143.108 38.3143C143.983 37.9384 146.213 37.5249 146.705 39.4976C148.925 39.328 152.458 39.3696 152.812 41.2942C153.334 44.1216 151.327 46.9236 151.327 46.9236L150.762 47.2109C150.762 47.2109 149.328 46.4634 149.699 43.081C149.699 43.081 144.568 44.3178 142.162 43.0164C139.755 41.7143 140.483 39.4433 143.108 38.3143Z" fill="#312725"/>
<path d="M153.438 47.3181C153.515 48.2297 152.863 49.033 151.98 49.1121C151.097 49.1913 150.319 48.5167 150.241 47.605C150.163 46.6934 150.816 45.8901 151.699 45.811C152.581 45.7319 153.36 46.4065 153.438 47.3181Z" fill="#F8879D"/>
<path d="M151.328 47.9089C151.328 47.9089 151.225 46.7121 152.35 46.8011" stroke="#312725" stroke-width="0.5974" stroke-miterlimit="10" stroke-linecap="round" stroke-linejoin="round"/>
<path d="M151.586 55.2358L144.265 55.7172C144.265 55.7172 144.034 58.2405 147.29 58.0666C150.954 57.8711 151.586 55.2358 151.586 55.2358Z" fill="#FA849B"/>
<path d="M185 132L1 132" stroke="#281F27" stroke-width="0.7565" stroke-miterlimit="10"/>
</svg>
