<svg width="70" height="70" viewBox="0 0 70 70" fill="none" xmlns="http://www.w3.org/2000/svg">
<rect width="70" height="70" rx="35" fill="#EDF5FF"/>
<path d="M38.4815 35.0714C38.3544 35.1985 38.2812 35.3742 38.2812 35.5547C38.2812 35.7345 38.3544 35.9108 38.4815 36.0379C38.6087 36.1651 38.7851 36.2383 38.9648 36.2383C39.1446 36.2383 39.321 36.1651 39.4481 36.0379C39.5753 35.9108 39.6484 35.7345 39.6484 35.5547C39.6484 35.3742 39.5753 35.1985 39.4481 35.0714C39.321 34.9436 39.1446 34.8711 38.9648 34.8711C38.7851 34.8711 38.6087 34.9436 38.4815 35.0714Z" fill="#0C75EB"/>
<path d="M46.5562 29.7489C46.6833 29.6218 46.7565 29.4454 46.7565 29.2656C46.7565 29.0851 46.6833 28.9087 46.5562 28.7823C46.429 28.6552 46.2527 28.582 46.0729 28.582C45.8924 28.582 45.7167 28.6551 45.5896 28.7823C45.4617 28.9095 45.3893 29.0852 45.3893 29.2656C45.3893 29.4454 45.4617 29.6218 45.5896 29.7489C45.7167 29.876 45.8924 29.9492 46.0729 29.9492C46.2527 29.9492 46.429 29.8761 46.5562 29.7489Z" fill="#0C75EB"/>
<path d="M24.8828 29.1207V28.3004H25.6247C25.9174 28.5019 26.2177 28.6926 26.5234 28.8748V34.4454C26.5234 35.4339 27.3277 36.2382 28.3162 36.2382H35.8887C36.2662 36.2382 36.5723 35.932 36.5723 35.5546C36.5723 35.1771 36.2662 34.871 35.8887 34.871H30.8376C30.572 33.3733 29.3884 32.1897 27.8907 31.924V29.605C29.2289 30.2397 30.6534 30.6956 32.1082 30.9485L34.5775 31.3779C34.7136 31.4015 34.8493 31.413 34.9836 31.413C35.1718 31.413 35.3569 31.3899 35.5359 31.3467C36.2541 32.5251 37.5521 33.2766 38.9649 33.2766C41.1766 33.2766 42.976 31.4772 42.976 29.2655C42.976 27.0538 41.1765 25.2544 38.9648 25.2544C37.7139 25.2544 36.5556 25.8315 35.8032 26.7964L32.611 25.0311C32.3769 24.9016 32.2314 24.6549 32.2314 24.3874C32.2314 23.9819 32.5613 23.652 32.9669 23.652H47.0922C47.3578 25.1496 48.5414 26.3332 50.0391 26.5989V31.924C48.5414 32.1896 47.3578 33.3732 47.0922 34.871H42.041C41.6635 34.871 41.3574 35.1771 41.3574 35.5546C41.3574 35.932 41.6635 36.2382 42.041 36.2382H49.6135C50.602 36.2382 51.4062 35.4339 51.4062 34.4454V24.0776C51.4062 23.089 50.602 22.2848 49.6135 22.2848H40.6334L37.2196 19.6525C36.334 18.9695 35.2302 18.5934 34.1117 18.5934H24.8828V18.1832C24.8828 17.8057 24.5768 17.4996 24.1992 17.4996H18.1836C17.806 17.4996 17.5 17.8057 17.5 18.1832V29.1207C17.5 29.4982 17.806 29.8043 18.1836 29.8043H24.1992C24.5768 29.8043 24.8828 29.4982 24.8828 29.1207ZM29.4358 34.8709H28.3162C28.0815 34.8709 27.8906 34.68 27.8906 34.4454V33.3257C28.6328 33.5428 29.2187 34.1287 29.4358 34.8709ZM38.9648 26.6216C40.4227 26.6216 41.6087 27.8077 41.6087 29.2654C41.6087 30.7233 40.4227 31.9093 38.9648 31.9093C38.0412 31.9093 37.1922 31.422 36.7164 30.6563C36.9224 30.4348 37.0887 30.1713 37.1997 29.8736C37.4848 29.1092 37.3425 28.2682 36.881 27.6398C37.3771 27.0033 38.14 26.6216 38.9648 26.6216ZM49.6135 34.8709H48.4939C48.711 34.1287 49.2969 33.5428 50.0391 33.3257V34.4454C50.0391 34.68 49.8482 34.8709 49.6135 34.8709ZM50.0391 24.0776V25.1972C49.2969 24.98 48.711 24.3941 48.4939 23.652H49.6135C49.8482 23.652 50.0391 23.8429 50.0391 24.0776ZM34.1117 19.9606C34.9297 19.9606 35.7369 20.2356 36.3847 20.7351L38.3944 22.2848H32.9669C31.8075 22.2848 30.8643 23.228 30.8643 24.3874C30.8643 25.1522 31.28 25.8572 31.9493 26.2275L35.4662 28.1725C35.8957 28.41 36.0902 28.9359 35.9188 29.3958C35.7507 29.8461 35.2851 30.1132 34.8117 30.0308L32.3423 29.6015C30.1567 29.2215 28.0448 28.3424 26.2352 27.0593C26.1197 26.9773 25.9815 26.9333 25.8398 26.9333H24.8828V19.9606H34.1117ZM23.5156 28.4371H18.8672V18.8668H23.5156V28.4371Z" fill="#0C75EB"/>
<path d="M51.8164 40.1957H45.8007C45.4555 40.1957 45.1708 40.4519 45.1245 40.7844C44.2382 40.3507 43.2663 40.1238 42.2622 40.1238C40.3319 40.1238 38.5114 40.9705 37.2678 42.4468L36.5799 43.2635H32.5818C31.2718 43.2635 30.206 44.3292 30.206 45.6392C30.206 45.8507 30.2341 46.0557 30.2862 46.2509C29.6562 45.9901 29.0776 45.605 28.581 45.1083L25.2579 41.7842C24.334 40.8601 22.8273 40.8565 21.8992 41.7762C21.446 42.2251 21.1956 42.8237 21.1941 43.4616C21.1926 44.0995 21.4402 44.6992 21.8913 45.1504L25.6051 48.8641C27.4209 50.68 29.8353 51.6801 32.4033 51.6801H45.1171V51.8168C45.1171 52.1943 45.4232 52.5004 45.8007 52.5004H51.8164C52.1939 52.5004 52.5 52.1943 52.5 51.8168V40.8793C52.5 40.5018 52.1939 40.1957 51.8164 40.1957ZM32.4033 50.3129C30.2004 50.3129 28.1294 49.455 26.5719 47.8974L22.8581 44.1836C22.6661 43.9916 22.5607 43.7364 22.5614 43.4648C22.562 43.1932 22.6685 42.9385 22.8615 42.7474C23.2565 42.3559 23.8978 42.3574 24.2911 42.7509L27.6142 46.0749C28.865 47.326 30.5281 48.015 32.2972 48.015H40.0257C40.4032 48.015 40.7093 47.7089 40.7093 47.3314C40.7093 46.954 40.4032 46.6479 40.0257 46.6479H32.5818C32.0256 46.6479 31.5732 46.1954 31.5732 45.6392C31.5732 45.083 32.0256 44.6306 32.5818 44.6306H36.8979C37.0995 44.6306 37.2908 44.5416 37.4207 44.3874L38.3135 43.3276C39.2968 42.1604 40.736 41.491 42.2623 41.491C43.2864 41.491 44.2687 41.7881 45.1171 42.3522V50.3129H32.4033ZM51.1328 51.1332H46.4843V41.5629H51.1328V51.1332Z" fill="#0C75EB"/>
</svg>
