<svg width="18" height="22" viewBox="0 0 18 22" fill="none" xmlns="http://www.w3.org/2000/svg">
<path fill-rule="evenodd" clip-rule="evenodd" d="M12.6111 0.58382C14.2678 0.347149 15.75 1.63267 15.75 3.30618V4.68268C16.9395 5.31143 17.75 6.56114 17.75 8.00016V18.0002C17.75 20.0712 16.0711 21.7502 14 21.7502H4C1.92893 21.7502 0.25 20.0712 0.25 18.0002V4.00016C0.25 3.99086 0.250169 3.98161 0.250505 3.97239C0.250169 3.958 0.25 3.94357 0.25 3.92909C0.25 3.02284 0.916381 2.25449 1.81353 2.12633L12.6111 0.58382ZM1.75 5.75016V18.0002C1.75 19.2428 2.75736 20.2502 4 20.2502H14C15.2426 20.2502 16.25 19.2428 16.25 18.0002V8.00016C16.25 6.75752 15.2426 5.75016 14 5.75016H1.75ZM2.07107 4.25016H14.25V3.30618C14.25 2.54549 13.5763 1.96117 12.8232 2.06874L2.02566 3.61125C1.86749 3.63385 1.75 3.76931 1.75 3.92909C1.75 4.10641 1.89375 4.25016 2.07107 4.25016ZM4.25 11.0002C4.25 10.5859 4.58579 10.2502 5 10.2502H13C13.4142 10.2502 13.75 10.5859 13.75 11.0002C13.75 11.4144 13.4142 11.7502 13 11.7502H5C4.58579 11.7502 4.25 11.4144 4.25 11.0002ZM4.25 14.5002C4.25 14.0859 4.58579 13.7502 5 13.7502H10.5C10.9142 13.7502 11.25 14.0859 11.25 14.5002C11.25 14.9144 10.9142 15.2502 10.5 15.2502H5C4.58579 15.2502 4.25 14.9144 4.25 14.5002Z" fill="#092333"/>
</svg>
