<svg width="24" height="16" viewBox="0 0 24 16" fill="none" xmlns="http://www.w3.org/2000/svg">
<path d="M21.0272 0.798828H2.97301C1.60937 0.798828 0.5 1.89133 0.5 3.23427V13.2459C0.5 14.5891 1.60937 15.6811 2.97301 15.6811H21.0272C22.3906 15.6811 23.5 14.5891 23.5 13.2459V3.23427C23.5 1.89133 22.3906 0.798828 21.0272 0.798828ZM22.1471 13.2459C22.1471 13.8439 21.6454 14.3279 21.0272 14.3279H2.97301C2.35457 14.3279 1.85291 13.8437 1.85291 13.2459V3.23427C1.85291 2.63627 2.35457 2.15199 2.97301 2.15199H21.0272C21.6454 2.15199 22.1471 2.63653 22.1471 3.23427V13.2459Z" fill="#092333"/>
<path d="M7.10575 9.26953C4.91385 9.26953 3.13672 9.94778 3.13672 10.7855C3.13672 11.6232 3.13672 12.302 7.10575 12.302C11.075 12.302 11.075 11.6232 11.075 10.7855C11.075 9.94778 9.29791 9.26953 7.10575 9.26953Z" fill="#092333"/>
<path d="M7.10628 8.68964C8.34931 8.68964 9.36003 7.67866 9.36003 6.43564C9.36003 5.19262 8.34931 4.18164 7.10628 4.18164C5.86352 4.18164 4.85254 5.19262 4.85254 6.43564C4.85254 7.67866 5.86352 8.68964 7.10628 8.68964Z" fill="#092333"/>
<path d="M20.2535 5.06055H12.5533C12.2173 5.06055 11.9443 5.33297 11.9443 5.66928C11.9443 6.00534 12.217 6.27801 12.5533 6.27801H20.2535C20.5895 6.27801 20.8622 6.00534 20.8622 5.66928C20.8622 5.33322 20.5895 5.06055 20.2535 5.06055Z" fill="#092333"/>
<path d="M20.2535 7.62891H12.5533C12.2173 7.62891 11.9443 7.90133 11.9443 8.23764C11.9443 8.57344 12.217 8.84663 12.5533 8.84663H20.2535C20.5895 8.84663 20.8622 8.57421 20.8622 8.23764C20.8622 7.90133 20.5895 7.62891 20.2535 7.62891Z" fill="#092333"/>
<path d="M16.6011 10.1953H12.5533C12.2173 10.1953 11.9443 10.4677 11.9443 10.804C11.9443 11.1404 12.217 11.4133 12.5533 11.4133H16.6011C16.9369 11.4133 17.2101 11.1404 17.2101 10.804C17.2101 10.4677 16.9369 10.1953 16.6011 10.1953Z" fill="#092333"/>
</svg>
