<svg width="216" height="204" viewBox="0 0 216 204" fill="none" xmlns="http://www.w3.org/2000/svg">
<path d="M135.835 190.827V128.296" stroke="#1E1E1E" stroke-width="2" stroke-miterlimit="10"/>
<path d="M23.6333 190.827V128.296" stroke="#1E1E1E" stroke-width="2" stroke-miterlimit="10"/>
<path d="M141.949 125.585H17.6918C16.879 125.585 16.2202 126.244 16.2202 127.057C16.2202 127.869 16.8791 128.528 17.6918 128.528H141.949C142.762 128.528 143.421 127.869 143.421 127.057C143.421 126.244 142.762 125.585 141.949 125.585Z" fill="#1E1E1E"/>
<path d="M52.793 69.333C54.0606 71.3134 54.4868 73.8132 53.9479 76.1019" stroke="black" stroke-width="0.5" stroke-miterlimit="10"/>
<path d="M54.8989 66.1826C56.7945 69.1863 57.4362 72.9548 56.6411 76.4164" stroke="black" stroke-width="0.5" stroke-miterlimit="10"/>
<path d="M51.6748 71.7939C52.2161 72.9347 52.3378 74.2687 52.011 75.4881" stroke="black" stroke-width="0.5" stroke-miterlimit="10"/>
<path d="M194.185 24.0518H90.0596C85.6413 24.0518 82.0596 27.6335 82.0596 32.0518V97.197C82.0596 101.615 85.6413 105.197 90.0596 105.197H194.185C198.603 105.197 202.185 101.615 202.185 97.197V32.0518C202.185 27.6335 198.603 24.0518 194.185 24.0518Z" fill="#E9F3FF"/>
<path d="M201.98 21.0091C201.98 23.2316 200.178 25.0333 197.956 25.0333H86.0339C83.8114 25.0333 82.0098 23.2316 82.0098 21.0091C82.0098 20.3035 82.5818 19.7314 83.2874 19.7314H200.702C201.408 19.7314 201.98 20.3035 201.98 21.0091Z" fill="#C2DFFF"/>
<path d="M88.1619 22.4323C88.1619 23.0015 87.7002 23.4632 87.131 23.4632C86.5618 23.4632 86.1001 23.0015 86.1001 22.4323C86.1001 21.8631 86.5618 21.4014 87.131 21.4014C87.7007 21.4014 88.1619 21.8631 88.1619 22.4323Z" fill="#D2E7FF"/>
<path d="M92.3797 22.4323C92.3797 23.0015 91.918 23.4632 91.3488 23.4632C90.7796 23.4632 90.3179 23.0015 90.3179 22.4323C90.3179 21.8631 90.7796 21.4014 91.3488 21.4014C91.918 21.4014 92.3797 21.8631 92.3797 22.4323Z" fill="black"/>
<path d="M96.596 22.4323C96.596 23.0015 96.1343 23.4632 95.5651 23.4632C94.9959 23.4632 94.5342 23.0015 94.5342 22.4323C94.5342 21.8631 94.9959 21.4014 95.5651 21.4014C96.1343 21.4014 96.596 21.8631 96.596 22.4323Z" fill="#D97777"/>
<mask id="mask0_960_22745" style="mask-type:luminance" maskUnits="userSpaceOnUse" x="82" y="24" width="121" height="82">
<path d="M194.185 24.0518H90.0596C85.6413 24.0518 82.0596 27.6335 82.0596 32.0517V97.339C82.0596 101.757 85.6413 105.339 90.0596 105.339H194.185C198.603 105.339 202.185 101.757 202.185 97.3391V32.0518C202.185 27.6335 198.603 24.0518 194.185 24.0518Z" fill="white"/>
</mask>
<g mask="url(#mask0_960_22745)">
<path d="M112.804 56.0804C113.991 56.1424 111.793 57.4508 111.498 57.6322C111.06 57.9002 110.654 58.2847 110.544 58.7857C110.531 58.8445 110.523 58.9075 110.547 58.9624C110.579 59.0348 110.658 59.0727 110.733 59.0988C111.414 59.3374 112.121 59.0273 112.7 58.6726C113.295 58.3084 113.853 58.0309 114.516 57.7634C115.208 57.484 115.958 57.153 116.288 56.4839C116.104 56.858 116.861 58.7285 116.954 59.2053C117.15 60.2192 117.292 61.2435 117.379 62.2725C117.54 64.1842 117.515 66.1702 117.903 68.0578C118.846 72.6474 120.075 76.8368 122.349 81.0054C123.26 82.6756 124.376 84.3771 126.108 85.1646C127.933 85.9942 130.059 85.6386 132.007 85.1684C137.479 83.8476 143.066 81.5145 147.003 77.3624C148.6 75.6785 150.607 73.3165 150.436 70.8521C150.315 69.1067 149.201 67.5747 147.745 66.6636C146.131 65.6536 143.729 66.0603 142.033 66.6982C140.615 67.2319 139.319 68.0412 138.045 68.8609C136.894 69.6017 135.75 70.3557 134.62 71.129C131.587 73.2053 128.308 72.5943 127.471 69.0153C126.96 66.8313 126.392 64.6572 125.658 62.5362C125.064 60.8154 124.397 58.9951 123.429 57.4433C121.964 55.0926 120.721 52.0898 117.793 51.3393C114.253 50.4315 110.54 51.6125 107.096 52.3782C106.457 52.5203 105.806 52.6671 105.246 53.0066C104.687 53.3457 104.226 53.9177 104.195 54.5712C104.169 55.1319 104.463 55.6698 104.865 56.0619C106.161 57.3277 107.918 57.2444 109.555 56.785C110.544 56.5071 111.524 56.1453 112.549 56.0837C112.648 56.0775 112.733 56.0766 112.804 56.0804Z" fill="#CF714E"/>
<path d="M148.219 48.8029C148.303 46.0824 148.002 43.3501 147.328 40.7129C147.059 39.6631 146.588 38.6824 146.329 37.6344C146.189 37.0709 146.24 36.308 145.932 35.8008C145.053 34.3579 143.106 35.189 142.153 36.1067C140.728 37.4781 139.965 39.5096 140.135 41.481C140.254 42.8477 141.089 44.0344 141.184 45.3716C141.259 46.4262 140.392 47.2796 139.944 48.2375C139.41 49.3793 139.497 50.789 140.166 51.8564C140.383 52.2025 140.657 52.5141 140.835 52.8821C141.368 53.9859 140.931 55.1934 140.965 56.3494C140.996 57.3964 141.427 58.397 142.114 59.1939C143.401 60.6851 145.797 61.6341 147.727 60.9906C150.013 60.2282 150.615 57.4778 150.519 55.3147C150.418 53.0398 148.149 51.0741 148.219 48.8029Z" fill="black"/>
<path d="M150.529 71.5459C151.283 69.3183 151.606 66.9662 151.346 64.6298C151.215 63.4539 150.919 62.2507 150.173 61.3325C148.716 59.5387 146.344 59.9895 144.694 61.1899C143.205 62.2736 141.74 63.3927 140.306 64.5504C135.925 68.0884 128.561 66.026 126.112 60.9546C124.842 58.3238 121.968 57.4296 119.289 58.5958C117.438 59.4018 115.727 60.167 115.73 60.1836C116.411 63.9265 118.768 78.327 120.107 81.6523C121.031 83.9471 122.266 86.2717 124.375 87.5645C126.195 88.6797 128.468 88.8762 130.566 88.4855C132.664 88.0949 134.621 87.1624 136.494 86.141C140.557 83.9262 144.423 81.191 147.267 77.5405C148.666 75.7439 149.8 73.7034 150.529 71.5459Z" fill="#D2E7FF"/>
<path d="M142.045 43.1852C142.105 44.7275 142.294 46.2845 143.001 47.6469C144.366 50.2818 147.602 52.4958 148.171 55.4084C148.421 56.6925 148.672 57.9765 148.923 59.2606C149.257 60.9701 150.263 62.154 152.179 61.7415C155.002 61.1335 155.646 59.2696 155.504 56.962C155.304 53.7045 157.014 47.5153 156.733 44.4931C156.462 41.5723 154.969 39.7165 154.176 36.8439C153.939 35.9863 153.658 35.1278 153.167 34.3858C151.853 32.3997 149.077 31.6122 146.839 32.4248C145.357 32.9628 143.571 34.3654 142.761 35.7562C141.709 37.5614 141.985 40.5452 142.026 42.552C142.031 42.7628 142.037 42.974 142.045 43.1852Z" fill="#CF714E"/>
<path d="M177.172 104.518C173.659 115.139 165.964 123.541 155.45 127.629C147.522 130.712 138.542 131.006 130.43 128.448C125.54 126.906 107.52 119.445 118.898 113.293C123.19 110.972 128.529 108.989 133.199 107.742C137.851 106.5 141.507 104.509 144.396 100.491C147.372 96.3503 148.887 91.352 150.082 86.3945C151.121 82.0824 151.956 77.7211 152.584 73.3303C153.265 68.5717 154.974 64.1919 159.645 62.2025C164.289 60.225 169.329 61.2313 173.033 64.6148C176.696 67.9599 178.374 72.9581 179.23 77.8437C180.595 85.6259 180.056 95.7958 177.172 104.518Z" fill="black"/>
<path d="M139.126 105.641C136.136 99.8316 135.079 95.4182 137.858 89.3739C140.88 82.8001 143.16 75.8859 144.648 68.8059C145.424 65.1175 145.687 53.5492 152.508 56.6585C156.684 58.5622 159.854 62.5627 161.35 66.8132C163.491 72.8954 163.046 79.2433 163.051 85.5528C163.056 92.0475 161.391 98.4626 158.102 104.062C156.762 106.343 155.142 108.53 152.977 110.057C150.889 111.531 148.234 112.335 145.735 111.8C142.572 111.111 140.613 108.529 139.126 105.641Z" fill="#D2E7FF"/>
<path d="M155.605 111.154C155.369 111.719 155.084 112.261 154.754 112.769C152.911 115.611 149.926 117.522 146.842 118.924C137.697 123.079 129.052 123.13 120.168 118.749C118.088 117.724 116.081 116.547 114.169 115.234C113.473 114.756 112.569 115.444 112.826 116.249C113.452 118.202 113.816 120.408 114.304 121.837C115.708 125.947 117.077 130.068 118.411 134.201C121.078 142.466 123.607 150.776 125.995 159.126C126.364 160.418 120.824 163.692 119.844 164.136C118.572 164.713 103.906 142.135 102.728 139.788C98.8881 132.133 95.3375 122.867 95.2452 114.194C95.1557 105.758 99.0402 96.7877 106.614 93.0695C118.16 87.4007 135.5 93.3375 146.172 97.3569C148.08 98.0753 149.923 98.9542 151.649 100.04C152.982 100.879 154.293 101.863 155.175 103.182C156.721 105.495 156.688 108.558 155.605 111.154Z" fill="#0C75EB"/>
<path d="M138.204 92.6995C130.905 88.1085 122.211 83.1992 113.287 83.66C104.462 84.1155 98.0335 92.466 93.8015 99.42C88.2937 108.47 84.5209 118.572 82.747 129.016C82.4231 130.924 82.1797 132.96 82.9606 134.729C84.0564 137.214 86.6225 138.176 89.0802 138.76C91.6033 139.359 94.4256 140.52 96.9695 140.839C97.9251 140.958 98.8907 140.795 99.8401 140.632C101.881 140.282 102.189 140.623 103.27 139.138C104.194 137.87 104.299 134.899 104.594 133.365C105.293 129.714 105.761 126.024 106.297 122.347C106.745 119.282 107.037 115.099 107.905 111.351C108.806 107.457 113.157 106.453 116.421 108.76C122.036 112.73 127.313 117.109 133.828 119.969C137.74 121.686 142.294 120.571 146.199 119.144C151.23 117.306 155.753 113.772 158.147 108.981C159.965 105.342 156.868 101.239 153.01 99.9453C147.717 98.1703 142.371 95.3198 138.204 92.6995Z" fill="#0C75EB"/>
<path d="M106.063 144.423C102.582 137.501 100.071 130.093 98.6257 122.482C97.6488 117.335 97.7563 111.491 99.0495 106.411C99.5751 104.346 100.438 102.264 102.074 100.897C102.502 100.539 102.988 100.233 103.531 100.105C104.248 99.9375 105.002 100.097 105.693 100.35C106.944 100.809 108.025 101.546 108.969 102.458C111.971 105.359 110.846 111.28 111.309 115.429C111.609 118.115 112.31 120.871 112.492 122.357C113.13 127.599 113.791 132.844 114.06 138.121C114.228 141.411 114.073 145.109 111.704 147.398" fill="#0C75EB"/>
<path d="M156.238 76.4915C156.069 72.3508 156.509 60.7892 163.988 64.0984C169.647 66.6029 170.918 76.7363 172.341 81.7777C174.03 87.7642 175.383 97.2389 169.62 101.583C166.954 103.592 163.487 104.11 160.179 104.564C154.008 105.41 147.828 104.676 141.58 104.837C139.816 104.882 135.695 106.158 134.802 104.293C133.928 102.469 134.668 100.139 136.031 98.7637C137.656 97.1243 139.998 96.4391 142.264 96.0049C143.052 95.8538 143.845 95.7255 144.637 95.5976C146.995 95.216 149.353 94.8343 151.717 94.4902C155.652 93.9174 158.487 90.677 157.632 86.7938C157.516 86.2661 157.403 85.7362 157.303 85.2019C156.764 82.3256 156.356 79.4185 156.238 76.4915Z" fill="#D2E7FF"/>
<path d="M153.267 78.3287C154.091 82.6393 158.818 85.6164 162.738 87.5891C163.277 87.8606 163.818 88.1445 164.36 88.4272C168.272 90.4693 171.732 87.3548 171.219 82.9717C170.479 76.6473 169.124 69.2569 167.262 65.5502C165.812 62.6634 163.949 59.862 161.236 58.1084C159.341 56.8843 155.301 55.5229 153.177 57.0316C151.187 58.4456 151.921 62.9736 151.948 65.2504C152.002 69.6371 152.444 74.0195 153.267 78.3287Z" fill="#D2E7FF"/>
<path d="M143.187 69.4817C143.692 65.9401 143.803 62.7294 145.965 59.7736C146.085 59.6097 146.202 59.4397 146.261 59.2456C146.313 59.0704 146.314 58.8843 146.315 58.701C146.319 57.5938 146.323 56.4872 146.327 55.38C146.327 55.2403 146.336 55.0817 146.444 54.9927C146.511 54.9377 146.601 54.9226 146.686 54.9103C148.64 54.6177 150.542 54.2093 152.477 53.9786C154.397 53.7498 156.126 55.5617 157.777 56.5686C158.763 57.1705 159.895 57.4845 160.935 57.9869C162.192 58.594 163.312 59.4809 164.191 60.5644C164.531 60.9825 164.84 61.4419 164.971 61.9642C165.2 62.881 164.834 63.8645 164.238 64.5976C163 66.1186 161.391 67.4109 160.077 68.903C158.703 70.4643 156.998 71.7083 155.235 72.7942C153.097 74.1111 150.667 75.2646 148.173 74.9729C145.678 74.6822 142.832 71.9683 143.187 69.4817Z" fill="#D2E7FF"/>
<path d="M152.373 30.5521C150.319 30.3419 148.831 30.8869 146.803 31.1379C145.836 31.2577 144.858 31.128 143.884 31.1123C142.519 31.0905 141.108 31.3103 139.956 32.0419C138.803 32.773 137.96 34.0904 138.071 35.4509C138.16 36.5434 138.854 37.536 139.777 38.1265C140.701 38.717 141.829 38.9339 142.924 38.8879C144.98 38.8013 146.98 37.7855 148.262 36.1759C148.413 35.9865 148.566 35.7805 148.791 35.6906C149.474 35.4183 149.972 36.3194 150.385 36.9289C151.088 37.9683 153.29 38.8088 154.321 37.7358C155.134 36.8886 155.017 34.3452 155.062 33.2887C155.1 32.3852 154.995 31.3141 154.215 30.8552C153.838 30.6336 153.381 30.6108 152.944 30.5938C152.756 30.5867 152.566 30.572 152.373 30.5521Z" fill="black"/>
<path d="M164.157 38.1537C163.743 37.9534 163.253 37.8099 162.672 37.7341C160.559 37.4585 160.903 35.4668 160.446 33.8511C160.045 32.4385 158.92 31.6481 157.6 31.1912C155.955 30.6229 152.318 29.8629 150.725 30.7863C149.144 31.7021 149.466 33.6597 149.827 35.1926C150.022 36.0199 150.252 36.859 150.731 37.5608C151.522 38.7191 152.98 39.5156 153.18 40.904C153.359 42.1542 152.401 43.3665 152.603 44.6133C152.86 46.1964 154.695 46.8787 155.076 48.3695C155.315 49.3047 154.882 50.4502 154.836 51.4167C154.778 52.6328 154.862 53.8607 155.212 55.0318C155.803 57.0117 157.255 58.8263 159.239 59.4026C161.012 59.9178 162.928 59.3969 164.6 58.6127C166.868 57.5491 168.98 55.9017 169.99 53.6088C171.001 51.3159 170.646 48.3197 168.711 46.7282C168.112 46.2357 167.364 45.8578 167.021 45.1621C166.857 44.8311 166.804 44.4585 166.753 44.0929C166.406 41.6196 166.246 39.1647 164.157 38.1537Z" fill="black"/>
<path d="M143.526 46.0479C144.167 46.9467 145.346 47.4269 146.433 47.2313C147.519 47.0357 148.456 46.1743 148.743 45.1084" fill="#D2E7FF"/>
<path d="M147.624 104.669H106.06C105.638 104.669 105.332 105.072 105.445 105.479L105.449 105.492C105.526 105.768 105.777 105.959 106.064 105.959H147.624C147.975 105.959 148.26 105.676 148.262 105.324C148.262 105.32 148.262 105.316 148.262 105.312C148.264 104.957 147.978 104.669 147.624 104.669Z" fill="black"/>
<path d="M138.312 95.7208C139.804 100.841 135.965 105.96 130.632 105.96H111.263C107.707 105.96 104.578 103.613 103.583 100.199L102.6 96.8262C101.107 91.7063 104.947 86.5869 110.28 86.5869H129.648C133.204 86.5869 136.333 88.934 137.328 92.3477L138.312 95.7208Z" fill="black"/>
<path d="M119.79 97.4088C120.417 97.4088 120.924 96.9004 120.924 96.2733C120.924 95.6461 120.417 95.1377 119.79 95.1377C119.163 95.1377 118.655 95.6461 118.655 96.2733C118.655 96.9004 119.163 97.4088 119.79 97.4088Z" stroke="#D2E7FF" stroke-width="0.5" stroke-miterlimit="10"/>
<path d="M148.302 47.2814C151.812 45.9697 154.597 42.867 155.523 39.2373" stroke="black" stroke-width="0.5" stroke-miterlimit="10"/>
<path d="M148.725 47.4376C148.725 48.1384 148.156 48.7062 147.456 48.7062C146.755 48.7062 146.188 48.1379 146.188 47.4376C146.188 46.7372 146.756 46.1689 147.456 46.1689C148.156 46.1689 148.725 46.7367 148.725 47.4376Z" fill="black"/>
<path d="M146.771 62.0127C145.609 63.6876 144.446 65.3621 143.283 67.037C142.109 68.729 140.893 70.5327 140.756 72.5874C140.669 73.8826 141.024 75.1616 141.2 76.4478C141.504 78.6701 141.271 80.9644 140.526 83.0802" stroke="black" stroke-width="0.5" stroke-miterlimit="10"/>
<path d="M159.486 72.2822C159.672 75.8641 159.764 79.4512 159.761 83.0378C159.76 84.8312 159.736 86.6245 159.687 88.4173C159.651 89.7674 159.705 91.1525 159.334 92.4576C158.966 93.7504 157.418 93.7902 156.329 93.9943C154.826 94.276 153.32 94.5388 151.81 94.7822C148.711 95.2818 146.502 95.109 143.381 95.4452" stroke="black" stroke-width="0.5" stroke-miterlimit="10"/>
</g>
<mask id="mask1_960_22745" style="mask-type:luminance" maskUnits="userSpaceOnUse" x="82" y="24" width="121" height="82">
<path d="M194.185 24.0518H90.0596C85.6413 24.0518 82.0596 27.6335 82.0596 32.0517V97.339C82.0596 101.757 85.6413 105.339 90.0596 105.339H194.185C198.603 105.339 202.185 101.757 202.185 97.3391V32.0518C202.185 27.6335 198.603 24.0518 194.185 24.0518Z" fill="white"/>
</mask>
<g mask="url(#mask1_960_22745)">
<path d="M183.759 90.8519C182.41 88.0855 181.751 84.5609 183.569 82.0781C184.191 81.2286 185.05 80.5836 185.931 80.0059C187.123 79.224 188.545 78.5156 189.923 78.8812C190.486 79.0308 190.991 79.3514 191.44 79.7222C193.763 81.6372 194.683 84.9018 194.294 87.8861C193.904 90.8704 192.366 93.598 190.486 95.9487C188.679 98.2089 188.214 98.4107 186.699 96.2191C185.582 94.6052 184.62 92.6192 183.759 90.8519Z" fill="#0C75EB"/>
<path d="M189.947 97.4246C190.244 94.5871 190.52 91.7354 190.387 88.8861V88.8861C190.209 85.0681 186.44 85.0761 186.885 88.8722C186.896 88.9653 186.907 89.0582 186.92 89.1508C187.178 91.1151 187.692 93.031 188.167 94.9508C188.384 95.8245 188.578 96.7039 188.825 97.5666C188.933 97.9445 188.906 99.3519 189.061 99.5248C187.334 97.605 186.623 95.4168 185.755 93.0557C184.834 90.553 184.09 88.3751 184.666 85.6437C185.165 83.2713 186.496 81.0821 188.371 79.5459" stroke="#1D2038" stroke-width="0.5" stroke-miterlimit="10"/>
<path d="M188.889 79.9541C191.372 81.0319 192.612 83.9437 192.644 86.6505C192.675 89.1603 191.83 91.465 191.281 93.8754C190.754 96.1867 190.149 98.4673 189.44 100.741" stroke="#1D2038" stroke-width="0.5" stroke-miterlimit="10"/>
<path d="M193.158 107.805H185.067C184.772 107.805 184.523 107.584 184.487 107.291L183.924 102.701C183.545 99.6094 185.957 96.8838 189.071 96.8838C192.149 96.8838 194.55 99.5492 194.229 102.61L193.739 107.281C193.708 107.579 193.457 107.805 193.158 107.805Z" fill="#0C75EB"/>
<path d="M195.721 96.4157C195.609 97.088 195.027 97.5807 194.345 97.5807H183.835C183.195 97.5807 182.638 97.1452 182.482 96.5245C182.262 95.6444 182.928 94.792 183.835 94.792H194.345C195.207 94.792 195.862 95.5658 195.721 96.4157Z" fill="#0C75EB"/>
<path d="M182.746 97.987L192.674 97.8838" stroke="#0C75EB" stroke-width="0.5" stroke-miterlimit="10"/>
</g>
<path d="M105.311 53.2096C103.192 51.6402 100.366 51.1177 98.1365 52.526C95.8301 53.9827 93.8426 55.9469 92.3838 58.2528C91.2997 59.966 90.4854 61.8718 89.6814 63.7732C87.599 68.6975 88.4532 75.815 92.8386 78.8732L93.4105 79.272C96.1912 81.2111 100.43 81.2182 101.945 78.1857C102.763 76.5506 105.379 69.5189 107.505 66.9026C110.588 63.1081 111.073 57.476 107.144 54.5667L105.311 53.2096Z" fill="#D2E7FF"/>
<path d="M99.6963 55.0029C101.318 56.031 102.85 57.1992 104.271 58.4906C105.45 59.5622 106.56 60.7248 107.884 61.6103" stroke="black" stroke-width="0.5" stroke-miterlimit="10"/>
<path d="M98.1016 56.7197C99.723 57.7478 101.255 58.916 102.676 60.2074C103.855 61.279 104.965 62.4416 106.29 63.3271" stroke="black" stroke-width="0.5" stroke-miterlimit="10"/>
<path d="M96.875 58.6826C98.4964 59.7107 100.029 60.8789 101.449 62.1703C102.629 63.2419 103.739 64.4045 105.063 65.29" stroke="black" stroke-width="0.5" stroke-miterlimit="10"/>
<path d="M119.967 178.795C120.947 180.251 120.545 182.22 119.128 183.258C117.675 184.322 115.623 184.066 114.543 182.624C113.214 180.851 111.885 179.078 110.557 177.306C109.487 175.879 108.365 174.254 108.652 172.536C108.85 171.351 109.77 170.303 110.967 169.899C113.967 168.887 114.758 170.868 116.042 172.872C117.318 174.863 118.644 176.829 119.967 178.795Z" fill="#CF714E"/>
<path d="M131.104 177.955C128.649 178.015 126.121 178.317 123.735 179.055C122.741 179.363 121.893 179.994 121.141 180.713C120.624 181.207 120.087 181.676 119.535 182.125C117.411 183.851 116.651 186.966 118.35 189.111C118.466 189.256 118.602 189.413 118.787 189.425C118.938 189.436 119.08 189.345 119.209 189.259C123.324 186.498 127.439 183.737 131.553 180.975C133.151 179.903 133.028 177.909 131.104 177.955Z" fill="#1C0C00"/>
<path d="M75.9361 185.714C75.8644 187.486 74.3596 188.849 72.5863 188.835C70.7937 188.822 69.3066 187.408 69.2751 185.616C69.2433 183.799 69.2112 181.982 69.1792 180.165C69.1518 178.603 69.1977 176.874 70.4393 175.818C71.2946 175.09 72.6551 174.836 73.8602 175.18C76.8824 176.041 76.3591 177.847 76.2213 179.926C76.0939 181.851 76.0142 183.783 75.9361 185.714Z" fill="#CF714E"/>
<path d="M85.1772 190.603C82.8543 189.173 80.2643 187.915 77.5005 187.211C77.0484 187.095 76.5838 187.038 76.1175 187.025C75.0494 186.994 73.9811 186.992 72.913 187.012C70.3399 187.058 68.1851 189.183 68.3086 191.753C68.3167 191.916 68.3351 192.097 68.4767 192.203C68.5927 192.29 68.7609 192.301 68.9166 192.307C73.9493 192.528 78.9817 192.749 84.0142 192.97C85.7843 193.048 86.6857 191.533 85.1772 190.603Z" fill="#1C0C00"/>
<path d="M44.5434 83.7813C44.5983 85.3918 44.6537 87.0028 44.7087 88.6134C44.7925 91.0668 44.3104 93.0737 41.4729 93.2247C37.0978 93.4577 34.1226 91.3765 34.1638 86.9621C34.1983 83.2495 33.873 79.5341 33.193 75.884C33.1793 75.8097 33.1651 75.7353 33.1509 75.661C32.5244 72.358 32.065 69.3889 34.8968 66.9672C36.1654 65.8818 37.7433 65.2084 39.3595 64.7888C40.2739 64.5511 41.2262 64.3892 42.1624 64.5161C46.2292 65.0668 47.8677 69.7724 48.122 73.2644C48.1281 73.3482 48.1333 73.4353 48.103 73.5134C48.0637 73.6148 47.9723 73.6853 47.8833 73.7483C47.6926 73.8841 47.4957 74.0112 47.2935 74.1293C46.8249 74.4029 46.7826 75.023 47.3161 75.1219C47.6128 75.1769 47.8595 75.4087 47.847 75.7102C47.793 77.0206 46.8173 78.2619 45.6969 78.8512C45.4284 78.9924 45.1363 79.1022 44.9151 79.3096C44.4421 79.7524 44.4307 80.4864 44.4529 81.1337C44.4833 82.0159 44.5136 82.8986 44.5434 83.7813Z" fill="#CF714E"/>
<path d="M57.2044 143.23C60.764 144.097 65.2968 142.909 66.8898 147.126C68.6102 151.681 68.0528 156.885 67.7592 161.627C67.6304 163.711 65.4531 180.75 66.8562 181.097C69.8921 181.846 73.0355 182.156 76.1594 182.016C76.6652 181.993 77.2022 181.948 77.6071 181.644C77.9745 181.368 78.1711 180.927 78.3486 180.503C82.8866 169.684 85.5404 157.479 87.507 145.941C87.8186 144.112 88.1018 142.249 87.8688 140.408C87.3986 136.697 84.3664 133.932 80.9858 132.715C78.9273 131.974 76.7518 131.618 74.6517 131.004C71.4855 130.079 68.4961 128.569 65.2693 127.885C60.8412 126.946 57.1902 128.169 52.9453 129.114C49.3 129.925 45.6674 131.012 42.4667 132.936C40.4006 134.179 38.3474 136.213 38.6741 138.601C38.8574 139.941 39.8016 141.095 40.9665 141.783C42.1315 142.47 43.4967 142.744 44.8453 142.849C47.7685 143.078 50.6827 142.594 53.6054 142.649C54.9049 142.674 55.9817 142.932 57.2044 143.23Z" fill="#1E253C"/>
<path d="M108.814 180.944C110.277 181.624 111.672 179.686 112.925 178.416C113.272 178.065 113.616 177.709 113.957 177.351C114.225 177.07 114.468 176.769 114.691 176.451C114.706 176.429 114.722 176.407 114.737 176.385C115.11 175.852 118.418 173.329 118.131 172.581C114.393 162.832 108.95 149.765 103.109 142.031C95.7211 132.247 84.2883 128.255 71.8582 126.143C64.962 124.971 58.1084 125.556 51.1738 125.798C48.5806 125.889 46.99 125.366 45.1124 127.346C43.5293 129.015 42.6888 131.622 42.6391 133.881C42.5643 137.301 44.2723 140.711 47.0563 142.7C49.4245 144.391 52.3785 145.03 55.2681 145.376C61.023 146.065 66.8353 145.754 72.6031 146.257C77.6629 146.699 82.1701 147.879 87.0633 149C87.426 149.083 87.7987 149.171 88.1027 149.385C88.4328 149.617 88.6482 149.974 88.8547 150.32C94.8408 160.362 101.128 170.225 107.704 179.891C108.078 180.44 108.448 180.774 108.814 180.944Z" fill="#1E253C"/>
<path d="M30.7017 194.154L42.6851 147.2C43.3683 144.523 45.7325 142.615 48.4936 142.512V142.512C51.5109 142.401 54.1744 144.468 54.8152 147.418L64.9641 194.154" stroke="black" stroke-width="2" stroke-miterlimit="10"/>
<path d="M48.1883 130.345C49.2831 132.018 51.3041 132.683 53.2683 132.311C55.1904 131.947 57.0855 131.443 58.9335 130.786C62.1503 129.642 64.8263 128.011 67.6695 126.277C68.9329 125.555 67.2428 123.889 66.764 123.11C65.1867 120.54 63.6088 117.971 62.031 115.402C60.6439 113.143 59.2546 110.88 58.0925 108.497C56.8632 105.977 55.8952 103.339 54.9297 100.707C54.0048 98.1846 53.0795 95.6625 52.1547 93.1399C51.4633 91.2552 51.0376 88.9363 49.904 87.2897C48.766 85.6371 47.388 84.1644 45.6439 83.2021C42.5328 81.486 38.5015 81.8965 35.5986 83.8565C32.1536 86.1826 31.4584 89.6636 31.6711 93.6343C32.0272 100.284 34.7917 106.553 37.8196 112.484C40.9511 118.619 44.4141 124.584 48.1883 130.345Z" fill="#A8A8A8"/>
<path d="M23.1395 125.293C24.5435 133.935 28.1481 141.987 35.5165 146.964C43.7728 152.54 56.8772 149.172 66.1004 148.413C71.3435 147.981 78.1843 141.154 72.4705 136.5C71.1654 135.437 69.5284 134.873 67.9003 134.445C64.1205 133.45 60.1972 133.077 56.4245 132.058C52.6513 131.038 48.9008 129.25 46.5861 126.1C45.4538 124.56 44.7184 122.765 44.1061 120.954C42.0301 114.811 40.9594 108.44 38.2129 102.544C36.9902 99.9196 35.0084 97.4889 32.2836 96.5115C26.4197 94.4076 23.8971 99.7496 23.219 104.534C22.3065 110.967 22.0067 118.322 23.1395 125.293Z" fill="#5B5B5B"/>
<path d="M32.3127 71.0555C32.4548 69.687 32.5736 68.1191 33.4719 67.0314C34.3475 65.9711 35.6313 65.2821 36.9103 64.8336C38.7359 64.1934 40.6902 63.9277 42.4513 63.1279C43.6712 62.5739 45.0198 61.7542 46.2453 62.2954C47.5509 62.8717 47.7858 64.7588 47.0816 66C46.4371 67.1355 44.7485 68.5699 43.6034 69.186C42.8841 69.5733 42.0156 69.8305 41.6027 70.5351C41.0832 71.4216 41.5411 72.5657 41.3157 73.5682C41.087 74.5849 40.2067 75.2976 39.4282 75.9904C38.2822 77.0104 37.9465 78.5058 36.6939 79.4089C35.6796 80.1405 33.8958 80.8077 33.042 79.4837C32.5561 78.7303 32.5878 77.1605 32.4827 76.284C32.2758 74.5522 32.1323 72.7968 32.3127 71.0555Z" fill="#1C0C00"/>
<path d="M40.0799 71.2401C39.4653 71.2747 38.9032 71.6663 38.5755 72.1877C38.2478 72.7091 38.136 73.3451 38.1678 73.9602C38.1952 74.491 38.3292 75.0271 38.6318 75.4637C38.9344 75.9003 39.4198 76.227 39.9502 76.2611C40.8092 76.3165 41.5702 75.5878 41.8089 74.7605C42.1621 73.5331 41.7871 71.1435 40.0799 71.2401Z" fill="#CF714E"/>
<path d="M40.415 72.5882C40.0366 72.5655 39.7056 72.8477 39.4916 73.1602C39.2988 73.4415 39.1615 73.7749 39.1805 74.1154C39.1994 74.4559 39.4016 74.7982 39.7222 74.9152" fill="#1C0C00"/>
<path d="M92.2155 73.5987C92.4726 73.4576 92.7146 73.2909 92.9329 73.0896C93.0816 72.9523 93.2213 72.7932 93.2738 72.5976C93.3264 72.4025 93.2677 72.1652 93.0929 72.063C92.9466 71.9772 92.7629 72.0038 92.5957 72.0331C91.9048 72.1539 91.2139 72.2746 90.523 72.3954C89.9765 72.491 89.4272 72.5872 88.903 72.7695C87.9948 73.0853 87.1817 73.6588 86.5547 74.3881C86.1456 74.8635 85.8145 75.4019 85.413 75.884C84.787 76.635 83.9223 76.9708 83.1546 77.5348C82.3212 78.1471 81.4338 78.6812 80.5918 79.2807C77.2183 81.684 73.6321 83.8637 70.7383 86.865C70.5565 87.054 70.3666 87.2524 70.1175 87.3348C69.8684 87.4172 69.5971 87.3703 69.3385 87.3239C65.8717 86.7035 62.3594 86.338 58.8391 86.2314C57.7783 86.1992 56.6451 86.2106 55.7591 86.7945C55.0701 87.2486 54.6293 87.9892 54.2566 88.7251C53.3682 90.4796 52.7232 92.4093 52.7876 94.375C52.8392 95.949 53.5567 98.5957 55.1677 99.332C56.9477 100.145 59.7871 99.3969 61.7125 99.5603C66.1231 99.9344 71.8061 100.849 75.8507 98.5516C77.5772 97.5709 79.093 96.2109 80.4559 94.6596C83.7087 90.956 85.9618 86.5781 88.2348 82.247C88.4124 81.9089 88.5919 81.5675 88.84 81.2772C89.0171 81.0703 89.2255 80.8931 89.4334 80.7165C89.4903 80.6682 89.5472 80.6199 89.6041 80.5715C90.907 79.4655 90.0236 77.7486 89.7881 76.0559C89.736 75.6813 89.8113 75.2736 89.9008 74.9104C90.0239 74.4117 90.0935 74.3412 90.5704 74.2119C91.132 74.0599 91.7031 73.8795 92.2155 73.5987Z" fill="#CF714E"/>
<path d="M50.8737 99.279C52.8718 99.96 56.1235 100.547 58.2331 100.623C61.4426 100.738 65.5121 100.97 65.4887 100.648C65.2656 97.5882 64.9387 94.5857 64.5007 91.7041C63.9757 88.2509 61.0787 85.6182 57.6592 84.906C52.8204 83.8982 46.7524 82.5113 44.4103 82.3763C42.5071 82.2664 43.2473 83.2898 41.6254 84.2918C39.2392 85.7654 38.6785 89.2332 39.8581 91.7776C41.1381 94.5379 44.0182 96.1285 46.4963 97.615C47.7905 98.3911 49.4569 98.7955 50.8737 99.279Z" fill="#A8A8A8"/>
<path d="M43.2439 78.715C42.921 78.5117 42.6543 78.2367 42.4044 77.9463C42.3581 77.8924 42.2744 77.8946 42.232 77.9516C42.2021 77.9914 42.3504 78.3087 42.3698 78.3617C42.4223 78.5047 42.4792 78.6458 42.5407 78.7851C42.6435 79.019 42.7496 79.2619 42.8803 79.4821C43.0574 79.7805 43.2956 80.0423 43.5759 80.2474C43.6414 80.2952 43.7098 80.3388 43.7795 80.3803C44.0491 80.541 44.4982 80.3159 44.5666 80.0097C44.594 79.8865 44.6437 79.7715 44.7025 79.6616C44.7876 79.4656 44.6756 79.1571 44.4644 79.1245C44.0369 79.0584 43.6194 78.9516 43.2439 78.715Z" fill="#1C0C00"/>
<path d="M42.6814 71.4788C42.7079 72.2005 42.8751 72.9222 42.786 73.6391C42.742 73.9943 42.5611 74.4067 42.205 74.4418C41.9247 74.4692 41.6784 74.2306 41.5794 73.9668C41.4805 73.7031 41.4862 73.4137 41.4502 73.1343C41.3839 72.6224 41.1736 72.1351 41.1357 71.6204C41.0656 70.6719 41.6893 69.604 42.6208 69.3062C43.288 69.0931 43.2326 69.471 43.0152 69.9256C42.7732 70.4309 42.6605 70.9139 42.6814 71.4788Z" fill="#1C0C00"/>
<path d="M55.1206 100.676C53.7918 100.22 52.463 99.7646 51.1343 99.3096" stroke="#1C0C00" stroke-width="0.5" stroke-miterlimit="10"/>
<path d="M107.96 126.027C104.735 126.027 102.12 123.412 102.12 120.186C102.12 117.846 104.017 115.948 106.358 115.948H109.661C111.975 115.948 113.85 117.823 113.85 120.137C113.85 123.39 111.213 126.027 107.96 126.027Z" fill="#A8A8A8"/>
<path d="M114.396 122.893C116.013 122.893 117.323 121.796 117.323 120.442C117.323 119.089 116.013 117.991 114.396 117.991C112.779 117.991 111.468 119.089 111.468 120.442C111.468 121.796 112.779 122.893 114.396 122.893Z" stroke="#A8A8A8" stroke-width="2" stroke-miterlimit="10"/>
<path d="M105.821 52.7217C105.457 52.8585 105.112 53.0721 104.883 53.3865C104.369 54.0931 104.802 54.926 105.246 55.5487C105.606 56.0526 105.994 56.4722 106.593 56.7212C107.201 56.9741 107.807 57.0025 108.453 56.9372C109.019 56.8799 109.59 56.8212 110.13 56.6535" fill="#CF714E"/>
</svg>
