<svg width="40" height="40" viewBox="0 0 40 40" fill="none" xmlns="http://www.w3.org/2000/svg">
<rect width="40" height="40" rx="8" fill="#FEF3F0"/>
<path fill-rule="evenodd" clip-rule="evenodd" d="M14.4844 11.2729H24.7874C25.0688 11.2729 25.2095 11.2729 25.3282 11.2838C26.6467 11.4049 27.692 12.5016 27.8074 13.885C27.8177 14.0094 27.8177 14.157 27.8177 14.4523V27.8727C27.8177 28.666 26.8553 29.0026 26.4017 28.368C26.087 27.9278 25.4576 27.9278 25.1429 28.368L24.7496 28.9183C24.2382 29.6336 23.2155 29.6336 22.7041 28.9183C22.1927 28.2029 21.17 28.2029 20.6586 28.9183C20.1473 29.6336 19.1246 29.6336 18.6132 28.9183C18.1018 28.2029 17.0791 28.2029 16.5677 28.9183C16.0564 29.6336 15.0336 29.6336 14.5223 28.9183L14.1289 28.368C13.8142 27.9278 13.1849 27.9278 12.8702 28.368C12.4166 29.0026 11.4541 28.666 11.4541 27.8727V14.4523C11.4541 14.157 11.4541 14.0094 11.4645 13.885C11.5798 12.5016 12.6252 11.4049 13.9437 11.2838C14.0623 11.2729 14.203 11.2729 14.4844 11.2729ZM18.2999 16.2454C18.0336 15.9791 17.6019 15.9791 17.3356 16.2454C17.0694 16.5116 17.0694 16.9433 17.3356 17.2096L18.6717 18.5457L17.3356 19.8817C17.0694 20.148 17.0694 20.5797 17.3357 20.846C17.6019 21.1122 18.0336 21.1122 18.2999 20.846L19.6359 19.5099L20.972 20.846C21.2382 21.1122 21.67 21.1122 21.9362 20.846C22.2025 20.5797 22.2025 20.148 21.9362 19.8817L20.6002 18.5457L21.9362 17.2096C22.2025 16.9434 22.2025 16.5117 21.9362 16.2454C21.67 15.9791 21.2383 15.9791 20.972 16.2454L19.6359 17.5814L18.2999 16.2454ZM15.545 22.8639C15.1685 22.8639 14.8632 23.1691 14.8632 23.5457C14.8632 23.9222 15.1685 24.2275 15.545 24.2275H23.7268C24.1034 24.2275 24.4086 23.9222 24.4086 23.5457C24.4086 23.1691 24.1034 22.8639 23.7268 22.8639H15.545Z" fill="#FA896B"/>
</svg>
