<svg width="144" height="124" viewBox="0 0 144 124" fill="none" xmlns="http://www.w3.org/2000/svg">
<g clip-path="url(#clip0_1_26992)">
<path d="M105.739 99.9934C124.736 81.0141 124.736 50.2425 105.739 31.2632C86.7411 12.2839 55.9402 12.2839 36.9428 31.2632C17.9454 50.2425 17.9454 81.0141 36.9428 99.9934C55.9402 118.973 86.7411 118.973 105.739 99.9934Z" fill="#BAF4EE"/>
<path opacity="0.73" d="M111.073 77.3099V93.6495C109.28 96.1827 107.265 98.5207 105.036 100.664V77.3099H105.026V77.2545C104.998 77.1335 102.063 74.7026 99.8066 72.8564V71.8353L102.537 71.1304C103.66 70.8431 104.84 70.9352 105.89 71.3903C106.363 71.5941 106.856 71.7892 107.348 71.9469V74.0812C109.604 75.9274 111.035 77.1335 111.062 77.2545V77.3099H111.073Z" fill="#7FD6CB"/>
<path d="M2.10742 3.27405L16.3826 36.737L26.8156 29.6058L32.862 38.3833L33.9536 23.5762L46.5808 15.8892L2.10742 3.27405Z" fill="#FFB031"/>
<path d="M29.1277 28.0218L16.3817 36.7369L26.8148 29.6058L32.8611 38.3833L33.9527 23.5761L13.832 11.605L29.1277 28.0218Z" fill="#FF9433"/>
<path d="M33.6855 27.2061L13.832 11.605L33.9527 23.5761L33.6855 27.2061Z" fill="#FF7733"/>
<path d="M33.1177 42.5567C33.0051 41.9048 32.8621 41.2545 32.6934 40.623L33.6724 40.3607C33.8498 41.0219 33.9983 41.7026 34.1163 42.3841L33.1177 42.5567Z" fill="#00C8B7"/>
<path d="M21.2971 65.2858C19.8257 65.1874 18.4184 64.719 17.2268 63.929L17.7871 63.0859C18.8318 63.7776 20.0687 64.189 21.3643 64.2756L21.2971 65.2858ZM25.5064 64.4598L25.0594 63.5512C26.1135 63.0336 27.1332 62.2311 28.0904 61.1663L28.8445 61.8424C27.7997 63.0039 26.6769 63.8861 25.5064 64.4598ZM14.4068 60.6956C13.8348 59.5387 13.5332 58.267 13.5332 57.018C13.5332 56.9157 13.5348 56.8127 13.5395 56.7104L13.5512 56.4911L14.5615 56.5652L14.5513 56.7495C14.5482 56.8408 14.5459 56.9298 14.5459 57.018C14.5459 58.1132 14.8108 59.2295 15.314 60.2483L14.4052 60.6964L14.4068 60.6956ZM53.6128 60.4645L53.6081 59.452C54.9279 59.4458 56.2867 59.3919 57.6448 59.292L57.719 60.3014C56.3383 60.4029 54.9568 60.4583 53.6128 60.4645ZM49.5027 60.3318L48.8557 60.2819C47.6102 60.1788 46.4819 60.0383 45.4051 59.8525L45.577 58.8548C46.6241 59.0359 47.7235 59.1726 48.9394 59.2733L49.5731 59.3209L49.5027 60.331V60.3318ZM61.8017 59.8712L61.665 58.8681C62.9684 58.6909 64.3116 58.4692 65.6579 58.21L65.8501 59.2038C64.4858 59.4669 63.1239 59.6917 61.8017 59.8712ZM41.3787 58.8478C40.1878 58.4427 39.0712 57.9485 38.0601 57.3779C37.9015 57.2889 37.7429 57.196 37.5858 57.1015L38.1093 56.2342C38.257 56.324 38.4055 56.4107 38.5563 56.495C39.5143 57.0352 40.5731 57.5036 41.7045 57.8892L41.3779 58.847L41.3787 58.8478ZM31.266 58.4442L30.3869 57.9399C31.0433 56.7986 31.6059 55.5847 32.0583 54.3303L33.0116 54.6737C32.5388 55.9836 31.952 57.2514 31.266 58.4442ZM69.8547 58.3318L69.6164 57.3482C70.8838 57.0414 72.2028 56.6925 73.5358 56.3107L73.8148 57.2842C72.4677 57.669 71.1362 58.0219 69.8547 58.3318ZM77.7287 56.0898L77.4162 55.1265C78.7039 54.7096 79.9862 54.2725 81.2606 53.8205L81.5989 54.7744C80.3167 55.2295 79.025 55.6706 77.7287 56.0898ZM34.2024 54.7557C33.2702 54.0773 32.2693 53.3654 31.1855 52.7721L30.8464 52.5925L31.3105 51.6925C31.4308 51.7541 31.552 51.8181 31.6715 51.8837C32.8084 52.5051 33.882 53.2686 34.7994 53.936L34.2024 54.7557ZM15.9821 53.2335L15.2733 52.5098C16.1657 51.637 17.3854 50.9829 19.0029 50.5106L19.3436 51.4653C17.8543 51.9009 16.7424 52.4895 15.9821 53.2335ZM27.1449 51.2569C25.9932 50.9993 24.8117 50.8681 23.6326 50.8681L23.2216 50.8736L23.1966 49.8611C24.5914 49.8267 25.9994 49.9626 27.3661 50.2686L27.1442 51.2561L27.1449 51.2569ZM34.0813 50.6605L33.0835 50.4833C33.3155 49.1749 33.4359 47.8408 33.4429 46.5192L34.4564 46.5238C34.4493 47.9032 34.3235 49.2943 34.0805 50.6597L34.0813 50.6605Z" fill="#00C8B7"/>
<path d="M85.4794 53.349L85.1191 52.4028C85.7497 52.1624 86.3803 51.9188 87.0085 51.6737L87.3766 52.6167C86.746 52.8626 86.1138 53.1077 85.4794 53.349Z" fill="#00C8B7"/>
<path d="M117.381 78.0218C116.866 78.0218 116.424 77.6299 116.374 77.1069C116.319 76.5511 116.727 76.0562 117.284 76.0023C123.408 75.4098 129.043 72.4886 133.148 67.7782C133.516 67.3551 134.157 67.3138 134.577 67.6799C135 68.0468 135.044 68.6861 134.676 69.1085C130.229 74.2115 124.122 77.3754 117.481 78.0179C117.447 78.0218 117.414 78.0218 117.381 78.0218Z" fill="#00C8B7"/>
<path d="M105.03 77.3107L69.7268 98.1093L34.4238 77.3107C34.4238 77.2935 34.4238 77.2701 34.4293 77.2529C34.4582 77.121 36.4062 75.4957 39.3778 73.0843C39.4067 73.0617 39.4294 73.0383 39.4583 73.0156C49.2061 65.1085 69.7261 48.9149 69.7261 48.9149C69.7261 48.9149 90.246 65.1077 99.9938 73.0156C103.012 75.4621 104.995 77.1155 105.023 77.2537C105.028 77.2709 105.028 77.2943 105.028 77.3115L105.03 77.3107Z" fill="#7A4C08"/>
<path d="M84.2455 31.6909H46.1561C42.8891 31.6909 40.2402 34.3373 40.2402 37.6011V95.1367C40.2402 98.4005 42.8883 101.047 46.1561 101.047H93.8831C97.1501 101.047 99.799 98.4005 99.799 95.1367V47.2296L84.2455 31.6909Z" fill="white"/>
<path d="M84.2461 41.3193C84.2461 44.5832 86.8942 47.2296 90.162 47.2296H99.7996L84.2461 31.6909V41.3193Z" fill="#E6E8E8"/>
<path d="M64.498 41.4161H51.3574C50.1935 41.4161 49.25 42.3588 49.25 43.5215V56.6495C49.25 57.8123 50.1935 58.7549 51.3574 58.7549H64.498C65.6618 58.7549 66.6054 57.8123 66.6054 56.6495V43.5215C66.6054 42.3588 65.6618 41.4161 64.498 41.4161Z" fill="#82EBE3"/>
<path d="M82.5007 63.5737H50.9694C50.0318 63.5737 49.2715 64.3333 49.2715 65.2701C49.2715 66.2068 50.0318 66.9664 50.9694 66.9664H82.5007C83.4384 66.9664 84.1986 66.2068 84.1986 65.2701C84.1986 64.3333 83.4384 63.5737 82.5007 63.5737Z" fill="#D9DBDB"/>
<path d="M82.5007 72.0234H50.9694C50.0318 72.0234 49.2715 72.783 49.2715 73.7198C49.2715 74.6565 50.0318 75.4161 50.9694 75.4161H82.5007C83.4384 75.4161 84.1986 74.6565 84.1986 73.7198C84.1986 72.783 83.4384 72.0234 82.5007 72.0234Z" fill="#D9DBDB"/>
<path d="M68.181 80.2201H50.9694C50.0318 80.2201 49.2715 80.9797 49.2715 81.9164C49.2715 82.8532 50.0318 83.6128 50.9694 83.6128H68.181C69.1187 83.6128 69.879 82.8532 69.879 81.9164C69.879 80.9797 69.1187 80.2201 68.181 80.2201Z" fill="#D9DBDB"/>
<path d="M105.033 77.3091V111.145C105.033 113.51 103.098 115.443 100.731 115.443H38.7183C36.3515 115.443 34.4277 113.51 34.4277 111.145V77.3091L69.73 98.1046L105.033 77.3091Z" fill="#FFB031"/>
<path d="M103.84 114.097L81.1184 91.3966L69.7313 98.1047L58.3387 91.3943L35.6152 114.096C36.3974 114.921 37.4952 115.444 38.7189 115.444H100.732C101.955 115.444 103.056 114.922 103.84 114.097Z" fill="#FF9433"/>
<path d="M112.165 30.8611C102.002 31.8572 93.8827 40.2256 93.1568 50.4021C92.795 55.4661 94.2319 60.1702 96.8769 63.9758C97.8732 65.4099 98.0373 67.2616 97.3669 68.8736L95.6908 72.9048L102.541 71.1304C103.658 70.8416 104.837 70.9313 105.895 71.3904C109.07 72.7666 112.647 73.3935 116.405 73.0305C126.38 72.0656 134.451 64.018 135.415 54.0531C136.707 40.6831 125.551 29.5504 112.165 30.8626V30.8611Z" fill="#00C8B7"/>
<path d="M114.833 62.6503L115.999 61.4856C115.999 61.4856 115.073 59.306 118.954 55.63C121.264 53.4419 121.781 51.324 121.594 49.5917C121.295 46.8345 119.041 44.5831 116.282 44.2849C114.548 44.0976 112.428 44.6136 110.238 46.9219C106.558 50.7994 104.377 49.8751 104.377 49.8751L103.211 51.0398L114.834 62.6511L114.833 62.6503Z" fill="white"/>
<path d="M105.84 55.5387C104.918 56.7955 105.021 58.5691 106.158 59.705C107.295 60.8408 109.071 60.9446 110.329 60.0235L105.84 55.5387Z" fill="white"/>
<path d="M122.408 45.6987L121.682 46.4239C121.117 45.5262 120.35 44.7596 119.445 44.2007L120.177 43.4692C120.796 42.8509 121.795 42.8509 122.414 43.4692C123.026 44.0812 123.026 45.0797 122.408 45.6979L122.408 45.6987Z" fill="white"/>
<path d="M113.737 30.7705C121.291 33.0305 126.8 40.0203 126.8 48.3021C126.8 58.4122 118.596 66.6089 108.476 66.6089C103.144 66.6089 98.36 64.3201 95.0117 60.6893C95.5392 61.8423 96.158 62.9446 96.8753 63.9758C97.8716 65.4091 98.0357 67.2615 97.3653 68.8736L95.6892 72.9048L102.54 71.1304C103.656 70.8416 104.835 70.9313 105.893 71.3904C109.069 72.7666 112.645 73.3935 116.404 73.0297C126.378 72.0656 134.45 64.0172 135.413 54.0523C136.655 41.2108 126.409 30.4388 113.737 30.7705Z" fill="#08B29D"/>
<path d="M3.31638 13.1967L7.94687 23.8118C8.18207 24.3528 7.93281 24.982 7.39052 25.2162L7.22565 25.2872C6.68103 25.5222 6.04888 25.2685 5.81838 24.722L1.35354 14.0359C1.11756 13.4754 1.39651 12.8321 1.96771 12.6213C2.49905 12.4254 3.09056 12.6776 3.31638 13.1967Z" fill="#FFB031"/>
<path d="M21.4553 87.9016C19.5753 87.9016 18.0508 89.4246 18.0508 91.3029C18.0508 93.1811 19.5753 94.7041 21.4553 94.7041C23.3353 94.7041 24.8598 93.1811 24.8598 91.3029C24.8598 89.4246 23.3353 87.9016 21.4553 87.9016ZM21.4553 92.6791C20.6942 92.6791 20.0777 92.0632 20.0777 91.3021C20.0777 90.541 20.6942 89.9258 21.4553 89.9258C22.2163 89.9258 22.8329 90.5425 22.8329 91.3021C22.8329 92.0616 22.2156 92.6791 21.4553 92.6791Z" fill="#BAF4EE"/>
<path d="M112.68 101.664C110.8 101.664 109.275 103.187 109.275 105.065C109.275 106.943 110.8 108.466 112.68 108.466C114.56 108.466 116.084 106.943 116.084 105.065C116.084 103.187 114.56 101.664 112.68 101.664ZM112.68 106.441C111.919 106.441 111.302 105.825 111.302 105.064C111.302 104.303 111.92 103.687 112.68 103.687C113.44 103.687 114.057 104.304 114.057 105.064C114.057 105.824 113.441 106.441 112.68 106.441Z" fill="#BAF4EE"/>
<path d="M140.531 48.84C139.091 48.84 137.924 50.0055 137.924 51.4442C137.924 52.8829 139.09 54.0484 140.531 54.0484C141.971 54.0484 143.137 52.8829 143.137 51.4442C143.137 50.0055 141.971 48.84 140.531 48.84ZM140.531 52.498C139.948 52.498 139.476 52.0258 139.476 51.4442C139.476 50.8626 139.948 50.3903 140.531 50.3903C141.113 50.3903 141.585 50.8626 141.585 51.4442C141.585 52.0258 141.113 52.498 140.531 52.498Z" fill="#BAF4EE"/>
<path d="M94.6349 7.18347C93.1127 7.18347 91.8789 8.4161 91.8789 9.93679C91.8789 11.4575 93.1127 12.6901 94.6349 12.6901C96.157 12.6901 97.3908 11.4575 97.3908 9.93679C97.3908 8.4161 96.157 7.18347 94.6349 7.18347ZM94.6349 11.0508C94.0191 11.0508 93.519 10.5519 93.519 9.93679C93.519 9.32165 94.0183 8.82204 94.6349 8.82204C95.2514 8.82204 95.7507 9.32086 95.7507 9.93679C95.7507 10.5527 95.2514 11.0508 94.6349 11.0508Z" fill="#BAF4EE"/>
<path d="M6.47941 71.3357C4.87913 71.3357 3.58203 72.6316 3.58203 74.2303C3.58203 75.8291 4.87913 77.1249 6.47941 77.1249C8.07969 77.1249 9.37757 75.8291 9.37757 74.2303C9.37757 72.6316 8.08047 71.3357 6.47941 71.3357Z" fill="#BAF4EE"/>
<path d="M122.732 80.9181C121.569 80.9181 120.625 81.8611 120.625 83.0235C120.625 84.1858 121.568 85.1289 122.732 85.1289C123.897 85.1289 124.84 84.1858 124.84 83.0235C124.84 81.8611 123.897 80.9181 122.732 80.9181Z" fill="#BAF4EE"/>
<path d="M52.9415 8.04919C51.2405 8.04919 49.8613 9.42702 49.8613 11.1265C49.8613 12.8259 51.2405 14.2038 52.9415 14.2038C54.6426 14.2038 56.0218 12.8259 56.0218 11.1265C56.0218 9.42702 54.6426 8.04919 52.9415 8.04919Z" fill="#BAF4EE"/>
<path d="M69.4316 119.515C68.1924 119.515 67.1875 120.519 67.1875 121.757C67.1875 122.995 68.1924 123.999 69.4316 123.999C70.6709 123.999 71.6758 122.995 71.6758 121.757C71.6758 120.519 70.6709 119.515 69.4316 119.515Z" fill="#BAF4EE"/>
<path d="M112.876 19.9181C111.421 19.9181 110.242 21.0961 110.242 22.5496C110.242 24.0032 111.421 25.1812 112.876 25.1812C114.331 25.1812 115.51 24.0032 115.51 22.5496C115.51 21.0961 114.331 19.9181 112.876 19.9181Z" fill="#BAF4EE"/>
<path d="M19.5659 43.3762C20.394 43.3762 21.0654 42.7055 21.0654 41.8782C21.0654 41.0508 20.394 40.3801 19.5659 40.3801C18.7377 40.3801 18.0664 41.0508 18.0664 41.8782C18.0664 42.7055 18.7377 43.3762 19.5659 43.3762Z" fill="#BAF4EE"/>
<path d="M141.441 35.7151C140.028 35.7151 138.883 36.8595 138.883 38.2709C138.883 39.6823 140.028 40.8267 141.441 40.8267C142.854 40.8267 143.999 39.6823 143.999 38.2709C143.999 36.8595 142.854 35.7151 141.441 35.7151Z" fill="#BAF4EE"/>
<path d="M5.04247 52.5011C5.94397 52.5011 6.67479 51.771 6.67479 50.8704C6.67479 49.9697 5.94397 49.2396 5.04247 49.2396C4.14097 49.2396 3.41016 49.9697 3.41016 50.8704C3.41016 51.771 4.14097 52.5011 5.04247 52.5011Z" fill="#BAF4EE"/>
<path d="M73.6638 2.58153L74.6889 1.55733C75.0445 1.20214 75.0445 0.621341 74.6889 0.266149C74.3334 -0.089042 73.7521 -0.089042 73.3965 0.266149L72.3713 1.29035L71.3462 0.266149C70.9906 -0.089042 70.4093 -0.089042 70.0538 0.266149C69.6982 0.621341 69.6982 1.20214 70.0538 1.55733L71.0789 2.58153L70.0538 3.60573C69.6982 3.96092 69.6982 4.54172 70.0538 4.89691C70.4093 5.2521 70.9906 5.2521 71.3462 4.89691L72.3713 3.87271L73.3965 4.89691C73.7521 5.2521 74.3334 5.2521 74.6889 4.89691C75.0445 4.54172 75.0445 3.96092 74.6889 3.60573L73.6638 2.58153Z" fill="#BAF4EE"/>
<path d="M3.87665 33.5339L4.90183 32.5097C5.25736 32.1545 5.25736 31.5737 4.90183 31.2185C4.5463 30.8634 3.96495 30.8634 3.60942 31.2185L2.58424 32.2427L1.55906 31.2185C1.20353 30.8634 0.622178 30.8634 0.266648 31.2185C-0.0888826 31.5737 -0.0888826 32.1545 0.266648 32.5097L1.29183 33.5339L0.266648 34.5581C-0.0888826 34.9133 -0.0888826 35.4941 0.266648 35.8493C0.622178 36.2045 1.20353 36.2045 1.55906 35.8493L2.58424 34.8251L3.60942 35.8493C3.96495 36.2045 4.5463 36.2045 4.90183 35.8493C5.25736 35.4941 5.25736 34.9133 4.90183 34.5581L3.87665 33.5339Z" fill="#BAF4EE"/>
<path d="M124.793 96.0765L125.661 95.2092C125.962 94.9087 125.962 94.4161 125.661 94.1155C125.36 93.815 124.868 93.815 124.566 94.1155L123.698 94.9828L122.83 94.1155C122.529 93.815 122.036 93.815 121.735 94.1155C121.435 94.4161 121.435 94.9087 121.735 95.2092L122.604 96.0765L121.735 96.9438C121.435 97.2444 121.435 97.7369 121.735 98.0375C122.036 98.338 122.528 98.338 122.83 98.0375L123.698 97.1702L124.566 98.0375C124.867 98.338 125.359 98.338 125.661 98.0375C125.962 97.7369 125.962 97.2444 125.661 96.9438L124.793 96.0765Z" fill="#BAF4EE"/>
</g>
<defs>
<clipPath id="clip0_1_26992">
<rect width="144" height="124" fill="white"/>
</clipPath>
</defs>
</svg>
