<svg width="49" height="44" viewBox="0 0 49 44" fill="none" xmlns="http://www.w3.org/2000/svg">
<path fill-rule="evenodd" clip-rule="evenodd" d="M41.2325 0.541424L41.5399 15.6772L38.3949 12.3631L34.4489 9.67173L41.2325 0.541424ZM36.7192 9.40988L39.8004 12.0193L39.6668 5.44267L36.7192 9.40988Z" fill="#092333"/>
<path d="M9.29991 3.38888L14.4127 9.74299L9.49541 14.2456L9.29991 3.38888Z" fill="#092333"/>
<path fill-rule="evenodd" clip-rule="evenodd" d="M45.9669 26.8655C44.8618 22.3463 43.2356 18.2578 41.2225 15.744C37.0512 10.5353 31.3965 7.62787 25.5272 7.54573C19.6579 7.46359 13.9245 10.2116 9.60965 15.3016C7.52728 17.7581 5.78785 21.7995 4.55727 26.2859C3.33504 30.742 2.6597 35.4701 2.60807 39.1756C2.5964 40.0136 2.72213 40.5039 2.8658 40.7848C2.98826 41.0243 3.15067 41.17 3.41924 41.2751C3.73075 41.397 4.20857 41.4694 4.92735 41.4401C5.63717 41.4113 6.49199 41.2882 7.51061 41.0914C8.49076 40.9021 9.60345 40.6462 10.8322 40.3637C14.6223 39.4922 19.5165 38.3668 25.0315 38.1562C31.4927 37.9095 36.9962 39.4524 40.9921 40.5726C41.5834 40.7384 42.1417 40.8949 42.6652 41.035C43.6923 41.3099 44.5552 41.5145 45.2798 41.6196C46.0179 41.7266 46.5015 41.7122 46.8107 41.6332C47.0627 41.5688 47.1795 41.4713 47.2748 41.3091C47.4031 41.0907 47.5445 40.6502 47.5563 39.8047C47.6079 36.0992 47.0645 31.354 45.9669 26.8655ZM42.2612 14.9084C46.6502 20.389 48.9948 32.161 48.8881 39.8233C48.8277 44.1524 45.8132 43.3087 40.6161 41.8541C36.6146 40.7341 31.3192 39.252 25.0822 39.4902C19.7069 39.6954 15.001 40.777 11.2237 41.6451C4.9259 43.0925 1.20955 43.9466 1.27627 39.157C1.38303 31.4947 4.05466 19.7928 8.59461 14.4372C13.1346 9.08164 19.2321 6.12255 25.5458 6.21091C31.8595 6.29927 37.8722 9.42785 42.2612 14.9084Z" fill="#092333"/>
<path d="M18.5787 28.108C18.5787 28.108 13.8614 22.4804 15.3531 15.4868C16.4698 10.2508 21.0195 8.28285 23.3571 7.81494C24.765 7.53313 30.296 6.95815 30.296 6.95815C30.296 6.95815 29.1287 6.66838 28.7953 6.60372C20.0318 4.90393 12.7998 9.08181 8.25981 14.4374C3.71985 19.793 1.04822 31.4948 0.941467 39.1572C0.834715 46.8195 9.7417 41.3997 14.9037 40.7322C20.8973 39.1572 25.7248 36.9205 44.431 42.9278C53.6064 45.8745 46.0241 22.7845 46.0484 23.4174C46.1178 25.2261 45.8984 26.0883 45.7402 27.4242C45.5913 30.262 42.3391 33.5683 40.8003 34.5937C31.9342 40.5021 24.5847 37.8002 21.9584 36.4996C16.4197 33.7565 18.5787 28.108 18.5787 28.108Z" fill="#092333"/>
<path d="M35.962 20.884C35.7946 22.1192 35.4345 23.29 34.7921 24.3771C32.8064 27.717 28.5745 29.2614 24.9488 27.9848C23.6248 27.5201 22.4995 26.758 21.5067 25.7916C20.9011 25.0734 20.35 24.3198 19.9803 23.4422C18.7507 20.5 18.98 17.6734 20.8351 15.077C22.624 12.5737 25.1515 11.4421 28.1887 11.6172C30.6128 11.7542 32.6156 12.8477 34.1386 14.7484C35.5703 16.5283 36.1286 18.5993 35.962 20.884ZM29.433 16.5102C27.177 15.3116 24.3311 16.605 23.799 19.0725C23.1469 22.0702 25.7689 24.5915 28.7178 23.799C30.2716 23.3804 31.4995 21.8242 31.5401 20.2217C31.5434 20.0227 31.5229 19.9572 31.3058 20.0626C30.9985 20.2028 30.6647 20.2015 30.3472 20.081C29.7872 19.8701 29.4781 19.453 29.4341 18.8552C29.3894 18.2936 29.6922 17.777 30.2597 17.5356C30.5813 17.4029 30.5002 17.3148 30.3163 17.1456C30.0405 16.8919 29.7496 16.6849 29.433 16.5102Z" fill="#092333"/>
<path d="M30.3758 31.6666C26.7182 32.5238 25.3292 32.1981 23.5523 32.0422C23.2219 32.563 28.2414 36.5186 34.8813 33.3073C41.4533 30.1288 40.9833 24.9197 40.8242 25.0936C38.6743 27.4434 37.5141 28.2848 36.1874 29.1274L35.2065 29.6735L33.2004 30.7382L31.5391 31.3257C31.5391 31.3257 30.8746 31.5498 30.3758 31.6666Z" fill="#092333"/>
</svg>
