<svg width="47" height="47" viewBox="0 0 47 47" fill="none" xmlns="http://www.w3.org/2000/svg">
<path fill-rule="evenodd" clip-rule="evenodd" d="M37.8212 4.4391L38.0924 17.7613L35.3178 14.8443L31.8368 12.4754L37.8212 4.4391ZM33.8396 12.245L36.5578 14.5417L36.4399 8.75309L33.8396 12.245Z" fill="#181A18"/>
<path d="M9.65112 6.94584L14.1615 12.5386L9.82358 16.5017L9.65112 6.94584Z" fill="#181A18"/>
<path fill-rule="evenodd" clip-rule="evenodd" d="M41.9963 27.6073C41.0214 23.6296 39.5868 20.031 37.8109 17.8183C34.131 13.2337 29.1426 10.6747 23.9648 10.6024C18.787 10.5301 13.7291 12.9488 9.92263 17.4289C8.0856 19.5911 6.55111 23.1483 5.46552 27.0972C4.38729 31.0193 3.79152 35.1809 3.74598 38.4424C3.73568 39.18 3.8466 39.6115 3.97334 39.8588C4.08137 40.0696 4.22465 40.1978 4.46158 40.2903C4.73638 40.3976 5.1579 40.4613 5.792 40.4356C6.41818 40.4102 7.1723 40.3019 8.0709 40.1287C8.93557 39.962 9.91716 39.7368 11.0011 39.4881C14.3447 38.721 18.6623 37.7305 23.5274 37.5451C29.2274 37.328 34.0825 38.686 37.6076 39.672C38.1292 39.818 38.6217 39.9557 39.0836 40.079C39.9897 40.321 40.7509 40.5011 41.3901 40.5935C42.0413 40.6877 42.4679 40.675 42.7406 40.6055C42.9629 40.5489 43.066 40.4631 43.1501 40.3203C43.2633 40.128 43.388 39.7403 43.3984 38.9961C43.4439 35.7346 42.9646 31.558 41.9963 27.6073ZM38.7272 17.0829C42.5991 21.9067 44.6674 32.2683 44.5733 39.0125C44.5201 42.8229 41.8607 42.0802 37.2759 40.7999C33.7458 39.8142 29.0743 38.5096 23.5722 38.7193C18.8302 38.8999 14.6787 39.8519 11.3465 40.616C5.79072 41.8899 2.51223 42.6417 2.57109 38.426C2.66527 31.6818 5.02213 21.382 9.02718 16.6681C13.0322 11.9542 18.4114 9.3497 23.9812 9.42747C29.551 9.50525 34.8553 12.259 38.7272 17.0829Z" fill="#181A18"/>
<path d="M17.8359 28.7006C17.8359 28.7006 13.6744 23.7472 14.9903 17.5916C15.9755 12.983 19.9891 11.2508 22.0513 10.839C23.2933 10.5909 28.1726 10.0848 28.1726 10.0848C28.1726 10.0848 27.1429 9.82979 26.8488 9.77288C19.1177 8.27676 12.7378 11.954 8.73276 16.6679C4.72771 21.3818 2.37085 31.6816 2.27667 38.4258C2.1825 45.1701 10.0401 40.3997 14.5938 39.8122C19.8813 38.4258 24.1401 36.4572 40.6422 41.7447C48.7366 44.3383 42.0476 24.0149 42.0691 24.572C42.1303 26.164 41.9368 26.9228 41.7972 28.0987C41.6658 30.5964 38.7968 33.5066 37.4393 34.4092C29.6179 39.6096 23.1343 37.2315 20.8174 36.0867C15.9312 33.6723 17.8359 28.7006 17.8359 28.7006Z" fill="#181A18"/>
<path d="M33.1719 22.3426C33.0242 23.4298 32.7065 24.4604 32.1399 25.4172C30.3881 28.3569 26.6548 29.7163 23.4563 28.5926C22.2882 28.1836 21.2955 27.5129 20.4197 26.6623C19.8855 26.0301 19.3993 25.3668 19.0731 24.5943C17.9884 22.0046 18.1907 19.5167 19.8272 17.2314C21.4054 15.0281 23.6351 14.0321 26.3144 14.1861C28.4529 14.3068 30.2198 15.2692 31.5634 16.9422C32.8264 18.5088 33.3189 20.3317 33.1719 22.3426ZM27.4121 18.4929C25.422 17.4379 22.9114 18.5764 22.4419 20.7482C21.8667 23.3868 24.1797 25.6059 26.7812 24.9084C28.152 24.5399 29.2352 23.1702 29.271 21.7597C29.2739 21.5845 29.2558 21.5269 29.0643 21.6197C28.7932 21.7431 28.4987 21.7419 28.2186 21.6359C27.7246 21.4502 27.452 21.0831 27.4131 20.557C27.3737 20.0627 27.6408 19.6079 28.1414 19.3955C28.4251 19.2786 28.3536 19.2011 28.1914 19.0522C27.9481 18.8289 27.6914 18.6467 27.4121 18.4929Z" fill="#181A18"/>
<path d="M28.2427 31.8348C25.0161 32.5893 23.7907 32.3026 22.2232 32.1655C21.9317 32.6238 26.3598 36.1055 32.2174 33.2789C38.0151 30.4813 37.6005 25.8963 37.4601 26.0494C35.5635 28.1176 34.54 28.8582 33.3696 29.5999L32.5043 30.0805L30.7346 31.0177L29.269 31.5347C29.269 31.5347 28.6827 31.732 28.2427 31.8348Z" fill="#181A18"/>
</svg>
