<svg width="25" height="25" viewBox="0 0 25 25" fill="none" xmlns="http://www.w3.org/2000/svg">
<path d="M19.25 13.5C19.8023 13.5 20.25 13.0523 20.25 12.5C20.25 11.9477 19.8023 11.5 19.25 11.5C18.6977 11.5 18.25 11.9477 18.25 12.5C18.25 13.0523 18.6977 13.5 19.25 13.5Z" stroke="black" stroke-width="2" stroke-linecap="round" stroke-linejoin="round"/>
<path d="M12.25 13.5C12.8023 13.5 13.25 13.0523 13.25 12.5C13.25 11.9477 12.8023 11.5 12.25 11.5C11.6977 11.5 11.25 11.9477 11.25 12.5C11.25 13.0523 11.6977 13.5 12.25 13.5Z" stroke="black" stroke-width="2" stroke-linecap="round" stroke-linejoin="round"/>
<path d="M5.25 13.5C5.80228 13.5 6.25 13.0523 6.25 12.5C6.25 11.9477 5.80228 11.5 5.25 11.5C4.69772 11.5 4.25 11.9477 4.25 12.5C4.25 13.0523 4.69772 13.5 5.25 13.5Z" stroke="black" stroke-width="2" stroke-linecap="round" stroke-linejoin="round"/>
</svg>
