<svg width="46" height="20" viewBox="0 0 46 20" fill="none" xmlns="http://www.w3.org/2000/svg">
<rect width="46" height="20" rx="10" fill="url(#paint0_linear_11407_127440)"/>
<path d="M13.31 13.07C13.1567 13.07 13.0367 13.0267 12.95 12.94C12.8633 12.8533 12.82 12.73 12.82 12.57V6.4C12.82 6.23333 12.86 6.10667 12.94 6.02C13.0267 5.92667 13.14 5.88 13.28 5.88C13.4 5.88 13.49 5.90333 13.55 5.95C13.6167 5.99 13.6933 6.06667 13.78 6.18L17.9 11.61H17.65V6.37C17.65 6.21667 17.69 6.09667 17.77 6.01C17.8567 5.92333 17.9767 5.88 18.13 5.88C18.29 5.88 18.41 5.92333 18.49 6.01C18.57 6.09667 18.61 6.21667 18.61 6.37V12.58C18.61 12.7333 18.57 12.8533 18.49 12.94C18.4167 13.0267 18.3167 13.07 18.19 13.07C18.07 13.07 17.97 13.0467 17.89 13C17.8167 12.9533 17.7367 12.8733 17.65 12.76L13.55 7.34H13.78V12.57C13.78 12.73 13.74 12.8533 13.66 12.94C13.58 13.0267 13.4633 13.07 13.31 13.07ZM22.4316 13.09C21.8983 13.09 21.4383 12.99 21.0516 12.79C20.6716 12.5833 20.375 12.2933 20.1616 11.92C19.955 11.54 19.8516 11.09 19.8516 10.57C19.8516 10.0633 19.955 9.62 20.1616 9.24C20.3683 8.86 20.6516 8.56333 21.0116 8.35C21.3716 8.13667 21.7816 8.03 22.2416 8.03C22.5816 8.03 22.885 8.08667 23.1516 8.2C23.4183 8.30667 23.645 8.46667 23.8316 8.68C24.025 8.88667 24.1683 9.14 24.2616 9.44C24.3616 9.74 24.4116 10.0767 24.4116 10.45C24.4116 10.5633 24.3783 10.65 24.3116 10.71C24.245 10.7633 24.145 10.79 24.0116 10.79H20.6516V10.17H23.7316L23.5616 10.31C23.5616 9.97667 23.5116 9.69333 23.4116 9.46C23.3183 9.22667 23.175 9.05 22.9816 8.93C22.795 8.80333 22.5616 8.74 22.2816 8.74C21.9683 8.74 21.7016 8.81333 21.4816 8.96C21.2683 9.10667 21.105 9.31 20.9916 9.57C20.8783 9.83 20.8216 10.1333 20.8216 10.48V10.54C20.8216 11.1267 20.9583 11.57 21.2316 11.87C21.5116 12.1633 21.915 12.31 22.4416 12.31C22.6416 12.31 22.8516 12.2833 23.0716 12.23C23.2983 12.1767 23.5116 12.0867 23.7116 11.96C23.825 11.8933 23.925 11.8633 24.0116 11.87C24.105 11.8767 24.1783 11.9067 24.2316 11.96C24.2916 12.0133 24.3283 12.08 24.3416 12.16C24.355 12.24 24.3416 12.3233 24.3016 12.41C24.2616 12.49 24.1916 12.5633 24.0916 12.63C23.865 12.7833 23.6016 12.9 23.3016 12.98C23.0016 13.0533 22.7116 13.09 22.4316 13.09ZM27.2244 13.07C27.0844 13.07 26.961 13.0367 26.8544 12.97C26.7544 12.8967 26.6744 12.7833 26.6144 12.63L25.1444 8.74C25.091 8.60667 25.0744 8.49 25.0944 8.39C25.1144 8.28333 25.1644 8.2 25.2444 8.14C25.331 8.08 25.441 8.05 25.5744 8.05C25.6944 8.05 25.791 8.08 25.8644 8.14C25.9444 8.19333 26.011 8.3 26.0644 8.46L27.3744 12.15H27.1344L28.4944 8.42C28.541 8.29333 28.6044 8.2 28.6844 8.14C28.7644 8.08 28.8677 8.05 28.9944 8.05C29.121 8.05 29.2244 8.08 29.3044 8.14C29.391 8.2 29.4544 8.29333 29.4944 8.42L30.8244 12.15H30.6044L31.9344 8.44C31.9877 8.28667 32.0544 8.18333 32.1344 8.13C32.221 8.07667 32.3177 8.05 32.4244 8.05C32.5577 8.05 32.6577 8.08333 32.7244 8.15C32.7977 8.21667 32.8377 8.30333 32.8444 8.41C32.8577 8.51 32.841 8.62 32.7944 8.74L31.3244 12.63C31.2644 12.7767 31.181 12.8867 31.0744 12.96C30.9744 13.0333 30.8577 13.07 30.7244 13.07C30.5844 13.07 30.461 13.0333 30.3544 12.96C30.2544 12.8867 30.1744 12.7767 30.1144 12.63L28.7144 8.84H29.2144L27.8244 12.63C27.771 12.7767 27.691 12.8867 27.5844 12.96C27.4844 13.0333 27.3644 13.07 27.2244 13.07Z" fill="white"/>
<defs>
<linearGradient id="paint0_linear_11407_127440" x1="0" y1="0" x2="33.1037" y2="32.9547" gradientUnits="userSpaceOnUse">
<stop stop-color="#E88CFF"/>
<stop offset="1" stop-color="#1A30FF"/>
</linearGradient>
</defs>
</svg>
