<svg width="160" height="183" viewBox="0 0 160 183" fill="none" xmlns="http://www.w3.org/2000/svg">
<path d="M126.828 155.081C127.453 155.672 128.078 156.264 128.752 156.902C129.111 156.664 129.534 156.473 129.835 156.163C130.23 155.757 130.584 155.894 130.883 156.17C131.586 156.817 132.285 157.478 132.911 158.198C134.36 159.867 135.764 161.574 137.187 163.265C138.901 165.303 140.608 167.348 142.332 169.377C143.697 170.983 145.093 172.563 146.461 174.167C148.241 176.254 147.085 174.58 148.751 176.755C149.13 177.251 148.995 178.188 148.989 178.921C148.975 180.562 147.975 181.99 146.603 182.422C146.353 182.501 146.084 182.519 145.798 182.623C145.377 182.684 144.981 182.688 144.51 182.686C144.14 182.617 143.847 182.519 143.548 182.499C142.093 182.399 141.526 181.136 140.685 180.272C139.591 179.147 138.621 177.902 137.583 176.721C135.558 174.415 136.507 175.843 134.472 173.545C133.533 172.484 132.577 171.439 131.638 170.379C129.603 168.081 127.577 165.774 125.54 163.479C125.061 162.94 124.55 162.43 124.044 161.896C124.605 161.181 125.121 160.523 125.673 159.82C125.038 159.201 124.4 158.579 123.766 157.856C124.568 157.001 125.361 156.241 126.171 155.5C126.36 155.327 126.607 155.219 126.828 155.081Z" fill="#092333"/>
<path d="M0.000444608 126.378C0.560209 124.811 1.4459 123.679 3.06695 123.217C5.30504 122.579 7.66681 123.823 8.36091 125.983C9.26847 128.807 7.28641 131.773 4.12562 131.663C2.23341 131.598 0.618625 130.413 0.0609316 128.471C0.00231778 127.785 -0.00178052 127.119 0.000444608 126.378ZM3.35548 129.93C5.42851 130.578 7.2907 129.076 6.97296 126.78C6.7854 125.425 4.99567 124.247 3.70828 124.621C2.43544 124.991 1.62689 125.839 1.48175 127.111C1.33331 128.412 2.10311 129.304 3.35548 129.93Z" fill="#8AA5AE"/>
<path d="M159.601 85.8335C159.098 87.0325 158.502 88.041 157.254 88.516C154.662 89.5022 152.477 88.3511 151.687 86.0561C150.945 83.9034 152.219 81.53 154.408 80.9732C156.587 80.4189 158.803 81.2883 159.541 83.7406C159.599 84.4264 159.603 85.0918 159.601 85.8335ZM155.351 82.319C153.774 82.6166 152.887 83.809 153.12 85.3202C153.304 86.5151 154.571 87.4923 155.831 87.3442C157.292 87.1725 158.057 86.174 158.105 84.8244C158.146 83.7102 157.32 82.3492 155.351 82.319Z" fill="#8AA5AE"/>
<path d="M55.951 0.000442452C57.1609 0.518749 58.096 1.1808 58.479 2.48576C59.1073 4.62727 57.8962 6.62009 55.7074 6.98152C54.3673 7.20282 53.2289 6.85443 52.3755 5.83116C51.4219 4.68772 51.3564 3.31194 51.8625 1.98985C52.2426 0.996818 53.0832 0.358421 54.1823 0.0608353C54.7603 0.00232052 55.3178 -0.00177504 55.951 0.000442452ZM56.4896 2.01839C55.8562 1.6296 55.247 1.25486 54.4349 1.60572C53.3163 2.08895 52.7743 3.23291 53.2572 4.24486C53.8432 5.47291 55.0159 5.8536 56.163 5.1882C57.2319 4.56817 57.3796 3.47314 56.4896 2.01839Z" fill="#8AA5AE"/>
<path d="M87.8403 142.411C75.8536 142.407 63.8669 142.403 51.8802 142.399C49.6073 142.398 47.3326 142.454 45.0621 142.379C43.5183 142.328 41.9489 142.206 40.5557 141.416C37.8312 139.872 36.2212 137.571 36.2188 134.392C36.1969 105.764 36.1901 77.1364 36.2297 48.5088C36.2338 45.5325 37.7274 43.2586 40.3243 41.7658C41.6317 41.0142 43.0395 40.7117 44.5644 40.7308C48.4872 40.7799 52.4111 40.7469 56.4866 40.7454C68.8817 40.7455 81.1246 40.7455 93.3676 40.7559C93.6997 40.7562 94.0317 40.8693 94.3592 41.0032C94.2902 42.5553 94.2374 44.0347 94.159 45.5127C94.008 48.3579 93.7872 51.2007 93.7054 54.0477C93.662 55.5591 94.4822 56.7114 95.7421 57.5192C97.2751 58.5021 99.0259 58.7208 100.778 58.7433C104.965 58.7969 109.153 58.7639 113.341 58.8423C113.339 78.1932 113.338 97.4675 113.265 116.743C111.555 116.74 109.912 116.659 108.279 116.749C105.019 116.929 101.994 117.954 99.184 119.591C98.0253 120.266 96.9289 121.048 95.7277 121.778C79.9931 121.774 64.3349 121.773 48.6767 121.772C46.5974 121.772 46.5974 121.772 46.5996 123.827C46.6007 124.861 46.6007 124.861 47.6662 124.861C62.3509 124.861 77.0355 124.86 91.7202 124.868C92.0545 124.868 92.3887 124.971 92.6965 125.074C92.4747 125.378 92.2642 125.624 92.0869 125.892C91.3785 126.963 90.6805 128.04 89.9007 129.105C76.2124 129.092 62.602 129.087 48.9917 129.092C48.2199 129.092 47.1981 128.899 46.7519 129.302C46.3635 129.654 46.6572 130.727 46.5897 131.475C46.5293 132.145 46.7586 132.346 47.4418 132.345C61.1874 132.325 74.9331 132.328 88.6755 132.394C88.1182 134.756 87.5707 137.052 87.6807 139.44C87.7264 140.431 87.7867 141.421 87.8403 142.411ZM92.9586 99.3673C78.2161 99.3673 63.4737 99.3673 48.7313 99.3673C46.598 99.3673 46.598 99.3673 46.5993 101.529C46.5999 102.611 46.5999 102.612 47.7003 102.612C66.0675 102.612 84.4347 102.612 102.802 102.612C102.991 102.612 103.182 102.598 103.37 102.614C103.805 102.651 103.936 102.436 103.924 102.032C103.905 101.411 103.876 100.784 103.931 100.167C103.99 99.5042 103.728 99.3496 103.102 99.3547C99.7755 99.3819 96.4482 99.3674 92.9586 99.3673ZM103.765 114.358C103.415 114.34 103.066 114.307 102.716 114.307C84.6695 114.304 66.6229 114.305 48.5763 114.305C46.5984 114.305 46.5984 114.305 46.5995 116.298C46.6002 117.393 46.6002 117.394 47.6883 117.394C66.0596 117.394 84.4309 117.394 102.802 117.394C102.992 117.394 103.212 117.454 103.363 117.378C103.575 117.27 103.883 117.068 103.892 116.894C103.934 116.087 103.885 115.275 103.765 114.358ZM75.7461 109.926C84.4302 109.926 93.1142 109.926 101.798 109.926C103.923 109.926 103.876 109.924 103.942 107.834C103.969 106.977 103.691 106.819 102.895 106.82C84.8503 106.842 66.8058 106.837 48.7613 106.837C46.5941 106.837 46.6313 106.838 46.5804 108.968C46.5613 109.768 46.8195 109.945 47.5837 109.943C56.917 109.917 66.2504 109.926 75.7461 109.926ZM85.2545 73.5811C86.0044 74.7894 87.2098 75.3297 88.4114 74.9597C89.3652 74.666 90.4348 73.8086 90.2971 72.2043C90.2044 71.1254 89.6633 70.2171 88.664 69.8289C87.6294 69.427 86.4263 69.6939 85.6812 70.4906C84.8688 71.3591 84.7002 72.4144 85.2545 73.5811ZM61.3725 74.6411C62.3398 74.0437 62.5661 73.1538 62.5361 72.0674C62.5054 70.9554 61.9226 70.2987 61.0185 69.8796C60.0269 69.4199 59.0458 69.5596 58.216 70.2783C57.4456 70.9455 56.914 71.8035 57.22 72.8475C57.7544 74.6708 59.3106 75.619 61.3725 74.6411Z" fill="#0C75EB" fill-opacity="0.05"/>
<path d="M113.336 116.741C113.337 97.4669 113.338 78.1925 113.379 58.8113C112.809 58.0609 112.23 57.3852 111.585 56.7794C108.383 53.7723 105.16 50.7876 101.951 47.7871C100.002 45.964 98.0762 44.1154 96.1173 42.3028C95.5739 41.8 94.9496 41.3847 94.3624 40.9292C94.0304 40.8687 93.6983 40.7556 93.3662 40.7553C81.1233 40.7448 68.8803 40.7449 56.56 40.7405C56.4893 37.3822 56.5521 34.0257 56.4879 30.6717C56.4113 26.6769 59.19 23.4749 62.9645 22.5857C63.5796 22.4407 64.2325 22.4052 64.868 22.4049C85.0568 22.3959 105.246 22.3911 125.434 22.4064C127.706 22.4081 129.753 23.1709 131.366 24.7888C132.651 26.0782 133.506 27.6488 133.632 29.5257C133.7 30.5399 133.789 31.5559 133.79 32.5711C133.798 64.018 133.8 95.4649 133.786 126.912C133.785 128.67 133.392 130.356 132.188 131.821C131.709 131.04 131.366 130.231 130.968 129.449C129.563 126.685 127.784 124.219 125.394 122.191C123.459 120.55 121.391 119.135 119.003 118.301C117.157 117.657 115.228 117.252 113.336 116.741Z" fill="#EAEAEA"/>
<path d="M113.263 116.744C115.227 117.255 117.156 117.659 119.002 118.303C121.39 119.137 123.458 120.552 125.393 122.193C127.783 124.221 129.561 126.687 130.967 129.451C131.365 130.233 131.708 131.042 132.136 131.848C132.407 132.883 132.614 133.909 132.83 134.934C133.293 137.137 133.39 139.339 133.177 141.595C132.895 144.58 132.084 147.376 130.704 150.011C129.757 151.817 128.64 153.517 127.159 155.008C126.93 155.2 126.683 155.309 126.494 155.482C125.684 156.223 124.891 156.983 124.07 157.787C121.256 159.852 118.154 161.234 114.792 161.847C110.095 162.704 105.499 162.217 101.087 160.261C98.0723 158.925 95.5248 156.974 93.2924 154.582C92.9522 154.217 92.6619 153.8 92.3841 153.384C91.8856 152.637 91.3242 152.059 90.3068 152.299C90.0772 152.353 89.8239 152.307 89.5226 152.307C89.5226 151.765 89.5226 151.245 89.5226 150.708C89.826 150.687 90.113 150.668 90.502 150.642C89.1073 148.065 88.1423 145.414 87.8393 142.483C87.7842 141.423 87.7239 140.432 87.6783 139.442C87.5682 137.053 88.1157 134.757 88.7153 132.359C89.1659 131.21 89.571 130.163 89.9761 129.117C90.678 128.042 91.376 126.964 92.0845 125.893C92.2617 125.626 92.4722 125.38 92.7367 125.044C93.8045 123.904 94.8031 122.844 95.8017 121.783C96.9264 121.05 98.0228 120.268 99.1815 119.593C101.991 117.956 105.016 116.931 108.276 116.75C109.909 116.66 111.552 116.742 113.263 116.744ZM113.196 122.261C112.961 122.21 112.725 122.109 112.492 122.115C110.738 122.159 108.97 122.103 107.237 122.325C106.101 122.47 105.017 123.026 103.789 123.402C102.964 123.886 102.14 124.371 101.195 124.86C100.95 124.961 100.649 125.004 100.469 125.174C99.167 126.409 97.8894 127.669 96.5173 128.986C95.898 130.101 95.2787 131.215 94.5685 132.399C94.4964 132.542 94.4164 132.683 94.3535 132.83C93.5455 134.722 93.1787 136.725 93.0737 138.755C93.0137 139.913 93.2575 141.086 93.367 142.381C93.4208 142.617 93.4779 142.852 93.528 143.088C94.3684 147.047 96.4303 150.306 99.5332 152.814C103.699 156.18 108.523 157.432 113.793 156.339C119.815 155.091 124.05 151.555 126.497 145.888C127.277 144.08 127.611 142.174 127.76 140.245C127.894 138.504 127.749 136.76 127.138 134.957C127.081 134.641 127.063 134.312 126.962 134.011C126.033 131.219 124.492 128.831 122.351 126.794C119.792 124.36 116.794 122.869 113.196 122.261Z" fill="#092333"/>
<path d="M33.8064 12.6186C34.7642 13.8536 35.6485 15.0351 36.0696 16.5442C36.7957 19.1464 35.9746 21.3241 34.4898 23.3795C33.8277 24.2962 33.0292 25.1206 33.1013 26.4059C33.2078 28.3035 32.7194 28.9271 30.8651 29.1756C30.3735 29.2416 29.6514 29.0521 29.3364 28.7059C28.281 27.5459 27.5021 26.1786 27.281 24.592C27.0858 23.1905 27.8264 22.2047 28.907 21.4234C29.9309 20.683 30.8739 19.9098 31.0219 18.5043C31.2166 16.6552 29.5158 14.9664 27.6878 15.5538C26.9272 15.7982 26.1586 16.0918 25.4839 16.509C24.8335 16.9112 24.6641 17.6522 24.6698 18.4071C24.6741 18.9752 24.6711 19.5433 24.6705 20.1113C24.6695 21.1387 24.1486 22.032 23.4056 22.2164C21.8934 22.5914 20.9137 22.1477 20.4032 21.146C19.1758 18.7373 19.4054 16.3839 20.9305 14.2432C23.0254 11.3026 26.0949 10.3596 29.5507 10.5715C31.1746 10.6711 32.5841 11.4361 33.8064 12.6186Z" fill="#8AA5AE"/>
<path d="M35.1777 30.5539C36.2262 31.5938 36.1354 33.4129 34.8974 34.1734C34.2742 34.5563 32.6159 34.5903 32.0619 34.1019C31.3735 33.4951 31.055 32.2524 31.413 31.3239C31.7811 30.3694 32.6222 29.7592 33.6258 29.8922C34.1465 29.9611 34.632 30.2962 35.1777 30.5539Z" fill="#94AAB2"/>
<path d="M78.1028 9.27507C78.7139 9.14181 79.3189 9.08524 79.9949 9.02204C79.9949 8.46395 79.9949 7.85826 79.9949 7.19385C80.5027 7.19385 80.9456 7.19385 81.4575 7.19385C81.4575 7.75481 81.4575 8.36146 81.4575 9.03638C82.1264 9.03638 82.7322 9.03638 83.396 9.03638C83.396 9.49076 83.396 9.8805 83.396 10.3371C82.8337 10.3371 82.2266 10.3371 81.5514 10.3371C81.5514 11.0055 81.5514 11.6112 81.5514 12.2742C81.0433 12.2742 80.5998 12.2742 80.0889 12.2742C80.0889 11.7086 80.0889 11.1019 80.0889 10.4271C79.42 10.4271 78.8142 10.4271 78.0967 10.4271C78.0967 10.0247 78.0967 9.68825 78.1028 9.27507Z" fill="#CED9DC"/>
<path d="M9.7516 105.251C10.3644 105.114 10.9677 105.052 11.6536 104.983C11.6536 104.418 11.6536 103.814 11.6536 103.158C12.1726 103.158 12.6139 103.158 13.1355 103.158C13.1355 103.761 13.1355 104.368 13.1355 105.05C13.8165 105.05 14.4231 105.05 15.0617 105.05C15.0617 105.497 15.0617 105.866 15.0617 106.314C14.47 106.314 13.8644 106.314 13.1796 106.314C13.1796 106.993 13.1796 107.598 13.1796 108.252C12.6606 108.252 12.2195 108.252 11.6977 108.252C11.6977 107.642 11.6977 107.036 11.6977 106.354C11.0157 106.354 10.4096 106.354 9.74219 106.354C9.74219 105.96 9.74219 105.643 9.7516 105.251Z" fill="#8AA5AE"/>
<path d="M146.293 67.877C146.293 68.3275 146.293 68.7008 146.293 69.1169C145.806 69.1169 145.363 69.1169 144.852 69.1169C144.852 68.5134 144.852 67.9057 144.852 67.2328C144.183 67.2328 143.575 67.2328 142.927 67.2328C142.927 66.778 142.927 66.3889 142.927 65.9321C143.532 65.9321 144.14 65.9321 144.813 65.9321C144.813 65.263 144.813 64.6554 144.813 64.0078C145.322 64.0078 145.765 64.0078 146.276 64.0078C146.276 64.6157 146.276 65.2234 146.276 65.8961C146.945 65.8961 147.553 65.8961 148.2 65.8961C148.2 66.3509 148.2 66.74 148.2 67.2126C147.747 67.2126 147.293 67.2459 146.847 67.2037C146.36 67.1576 146.227 67.368 146.293 67.877Z" fill="#CED9DC"/>
<path d="M21.916 113.005C21.916 111.957 21.916 110.99 21.916 109.973C22.4501 109.973 22.9467 109.973 23.4921 109.973C23.4921 111.594 23.4921 113.224 23.4921 114.906C23.0058 114.906 22.5093 114.906 21.916 114.906C21.916 114.307 21.916 113.696 21.916 113.005Z" fill="#092333"/>
<path d="M71.1365 150.681C72.5596 150.681 73.9034 150.681 75.2925 150.681C75.2925 151.225 75.2925 151.721 75.2925 152.262C73.6565 152.262 72.0258 152.262 70.3496 152.262C70.3496 151.76 70.3496 151.264 70.3496 150.714C70.5886 150.703 70.8229 150.692 71.1365 150.681Z" fill="#092333"/>
<path d="M36.4977 150.681C36.9985 150.621 37.2397 150.734 37.18 151.231C37.1419 151.548 37.1729 151.874 37.1729 152.25C35.5164 152.25 33.8851 152.25 32.1963 152.25C32.1963 151.783 32.1963 151.287 32.1963 150.681C33.5835 150.681 35.0015 150.681 36.4977 150.681Z" fill="#092333"/>
<path d="M21.916 140.936C21.916 140.104 21.916 139.352 21.916 138.551C22.45 138.551 22.9464 138.551 23.4921 138.551C23.4921 140.172 23.4921 141.802 23.4921 143.484C23.0058 143.484 22.5092 143.484 21.916 143.484C21.916 142.668 21.916 141.843 21.916 140.936Z" fill="#092333"/>
<path d="M21.916 64.6165C21.916 63.784 21.916 63.0326 21.916 62.231C22.45 62.231 22.9464 62.231 23.4921 62.231C23.4921 63.8519 23.4921 65.4824 23.4921 67.1638C23.0058 67.1638 22.5092 67.1638 21.916 67.1638C21.916 66.3486 21.916 65.523 21.916 64.6165Z" fill="#092333"/>
<path d="M22.7231 76.796C22.4335 76.796 22.2212 76.796 21.96 76.796C21.96 75.1265 21.96 73.4954 21.96 71.813C22.4446 71.813 22.9414 71.813 23.487 71.813C23.487 73.4343 23.487 75.0655 23.487 76.7554C23.2645 76.7686 23.0324 76.7823 22.7231 76.796Z" fill="#092333"/>
<path d="M23.5355 103.745C23.5355 104.308 23.5355 104.79 23.5355 105.323C23.0029 105.323 22.5064 105.323 21.96 105.323C21.96 103.704 21.96 102.073 21.96 100.391C22.4448 100.391 22.9414 100.391 23.5355 100.391C23.5355 101.474 23.5355 102.57 23.5355 103.745Z" fill="#092333"/>
<path d="M21.916 130.232C21.916 129.832 21.916 129.511 21.916 129.137C22.4445 129.137 22.9411 129.137 23.4894 129.137C23.4894 130.695 23.4894 132.271 23.4894 133.902C23.0106 133.902 22.5139 133.902 21.916 133.902C21.916 132.717 21.916 131.515 21.916 130.232Z" fill="#092333"/>
<path d="M21.916 83.4563C21.916 82.7319 21.916 82.0883 21.916 81.3945C22.45 81.3945 22.9466 81.3945 23.4921 81.3945C23.4921 82.9612 23.4921 84.5376 23.4921 86.1649C23.0058 86.1649 22.5093 86.1649 21.916 86.1649C21.916 85.296 21.916 84.4166 21.916 83.4563Z" fill="#092333"/>
<path d="M22.7231 95.7972C22.4335 95.7972 22.2212 95.7972 21.96 95.7972C21.96 94.1819 21.96 92.6049 21.96 90.9766C22.4446 90.9766 22.9413 90.9766 23.487 90.9766C23.487 92.5438 23.487 94.1208 23.487 95.7566C23.2644 95.7698 23.0324 95.7835 22.7231 95.7972Z" fill="#092333"/>
<path d="M42.2395 150.681C43.7149 150.681 45.1119 150.681 46.5503 150.681C46.5503 151.232 46.5503 151.728 46.5503 152.265C44.9572 152.265 43.3805 152.265 41.691 152.265C41.9791 151.738 41.1975 151.011 42.2395 150.681Z" fill="#092333"/>
<path d="M51.309 150.875C52.9124 150.798 54.5085 150.798 56.1384 150.798C56.1384 151.228 56.1384 151.706 56.1384 152.243C54.5777 152.243 53.0002 152.243 51.3018 152.243C51.3018 151.84 51.3018 151.396 51.309 150.875Z" fill="#092333"/>
<path d="M63.4747 152.301C62.5886 152.301 61.7832 152.301 60.9277 152.301C60.9277 151.767 60.9277 151.27 60.9277 150.725C62.4945 150.725 64.0708 150.725 65.6982 150.725C65.6982 151.211 65.6982 151.707 65.6982 152.301C64.9915 152.301 64.2735 152.301 63.4747 152.301Z" fill="#092333"/>
<path d="M23.5321 123.382C23.5321 123.728 23.5321 123.995 23.5321 124.317C23.006 124.317 22.5094 124.317 21.96 124.317C21.96 122.763 21.96 121.186 21.96 119.555C22.4355 119.555 22.9322 119.555 23.5321 119.555C23.5321 120.789 23.5321 122.046 23.5321 123.382Z" fill="#092333"/>
<path d="M80.4065 150.681C81.882 150.681 83.2789 150.681 84.7173 150.681C84.7173 151.232 84.7173 151.728 84.7173 152.265C83.1242 152.265 81.5475 152.265 79.858 152.265C80.1461 151.738 79.3645 151.011 80.4065 150.681Z" fill="#092333"/>
<path d="M26.8716 151.363C25.2824 150.727 24.1034 149.705 23.1973 148.311C23.6285 148.001 24.0125 147.726 24.2467 147.558C25.4737 148.516 26.6446 149.43 27.8754 150.391C27.7371 150.727 27.552 151.176 27.3678 151.622C27.2068 151.538 27.0668 151.465 26.8716 151.363Z" fill="#092333"/>
<path d="M23.1648 53.5279C23.3631 53.211 23.5243 52.9424 23.7482 52.5693C24.1708 52.9152 24.5626 53.2359 24.9923 53.5877C24.1376 54.808 23.4363 56.0496 23.5256 57.5986C22.9766 57.5986 22.4767 57.5986 21.9014 57.5986C22.0609 56.1531 22.2342 54.7608 23.1648 53.5279Z" fill="#092333"/>
<path d="M32.5904 50.9748C31.3011 51.0809 30.091 51.2083 28.8775 51.2718C28.6721 51.2825 28.3692 51.0646 28.2594 50.8691C28.1138 50.6099 28.1137 50.2689 28.0029 49.7282C29.7238 49.6276 31.3724 49.5313 33.2105 49.4238C32.8518 50.0263 33.6519 50.7309 32.5904 50.9748Z" fill="#092333"/>
<path d="M93.0392 99.3697C96.4476 99.3698 99.7749 99.3843 103.102 99.3571C103.728 99.352 103.99 99.5066 103.931 100.169C103.876 100.787 103.905 101.413 103.923 102.035C103.935 102.438 103.805 102.653 103.369 102.616C103.181 102.6 102.991 102.614 102.801 102.614C84.4342 102.614 66.067 102.614 47.6998 102.614C46.5993 102.614 46.5993 102.614 46.5987 101.531C46.5974 99.3697 46.5974 99.3697 48.7307 99.3697C63.4731 99.3697 78.2156 99.3697 93.0392 99.3697Z" fill="#CDDADC"/>
<path d="M103.816 114.412C103.884 115.276 103.933 116.087 103.891 116.894C103.883 117.069 103.574 117.271 103.362 117.379C103.211 117.455 102.991 117.394 102.801 117.394C84.43 117.394 66.0587 117.394 47.6875 117.394C46.5993 117.394 46.5993 117.394 46.5987 116.299C46.5976 114.305 46.5976 114.305 48.5754 114.305C66.622 114.305 84.6686 114.305 102.715 114.307C103.065 114.307 103.415 114.341 103.816 114.412Z" fill="#CCD9DB"/>
<path d="M75.6548 109.926C66.2403 109.926 56.9069 109.917 47.5736 109.943C46.8094 109.945 46.5512 109.769 46.5703 108.969C46.6212 106.838 46.584 106.837 48.7512 106.837C66.7957 106.837 84.8402 106.843 102.885 106.82C103.68 106.819 103.959 106.978 103.932 107.835C103.866 109.925 103.913 109.926 101.788 109.926C93.1041 109.926 84.4201 109.926 75.6548 109.926Z" fill="#CCD9DB"/>
<path d="M94.3478 41.0068C94.9396 41.3889 95.5639 41.8043 96.1073 42.3071C98.0662 44.1197 99.9919 45.9683 101.941 47.7914C105.15 50.7918 108.373 53.7766 111.575 56.7837C112.22 57.3895 112.799 58.0652 113.369 58.7391C109.142 58.7675 104.954 58.8006 100.766 58.7469C99.0146 58.7244 97.2638 58.5057 95.7307 57.5228C94.4708 56.7151 93.6506 55.5628 93.694 54.0513C93.7758 51.2044 93.9966 48.3615 94.1476 45.5163C94.226 44.0383 94.2788 42.5589 94.3478 41.0068Z" fill="#ACBFC6"/>
<path d="M95.7269 121.781C94.8047 122.845 93.8061 123.906 92.7649 124.998C92.3879 124.974 92.0537 124.871 91.7194 124.871C77.0347 124.863 62.3501 124.864 47.6654 124.864C46.5999 124.864 46.5999 124.864 46.5988 123.83C46.5966 121.775 46.5966 121.775 48.6759 121.775C64.3341 121.776 79.9923 121.777 95.7269 121.781Z" fill="#CCD9DB"/>
<path d="M89.8945 129.109C89.5674 130.165 89.1623 131.212 88.7149 132.294C74.927 132.331 61.1813 132.328 47.4356 132.349C46.7524 132.35 46.5232 132.149 46.5836 131.479C46.651 130.73 46.3574 129.658 46.7458 129.306C47.192 128.902 48.2138 129.096 48.9856 129.096C62.5959 129.091 76.2062 129.096 89.8945 129.109Z" fill="#CDDADC"/>
<path d="M83.3662 82.012C84.0264 81.9284 84.058 82.2847 83.9566 82.7037C83.0587 86.4166 80.8672 89.0671 77.1476 90.0069C72.4927 91.183 68.0694 89.4438 65.8483 84.7951C65.4559 83.9739 65.2973 83.0408 65.0003 82.0585C65.577 82.0585 65.9453 82.0585 66.2659 82.0585C66.6991 83.0748 67.0129 84.1502 67.5772 85.0723C69.3875 88.0308 72.1454 89.3501 75.5335 88.9511C78.9692 88.5465 81.2482 86.5241 82.406 83.2338C82.5648 82.7827 82.4401 82.002 83.3662 82.012Z" fill="#0C75EB"/>
<path d="M85.2303 73.5228C84.7004 72.4137 84.869 71.3584 85.6813 70.4899C86.4265 69.6931 87.6296 69.4263 88.6642 69.8282C89.6635 70.2164 90.2046 71.1247 90.2972 72.2036C90.435 73.8079 89.3654 74.6652 88.4116 74.9589C87.21 75.329 86.0046 74.7887 85.2303 73.5228Z" fill="#0C75EB"/>
<path d="M61.3136 74.6736C59.3055 75.6193 57.7492 74.6711 57.2149 72.8478C56.9089 71.8038 57.4405 70.9458 58.2108 70.2786C59.0407 69.5598 60.0217 69.4201 61.0134 69.8798C61.9175 70.2989 62.5003 70.9557 62.531 72.0677C62.561 73.1541 62.3346 74.044 61.3136 74.6736Z" fill="#0C75EB"/>
<path d="M113.344 135.26C112.664 139 110.283 141.44 106.577 142.179C106.289 142.237 105.986 142.231 105.69 142.231C101.633 142.237 97.5753 142.239 93.4423 142.245C93.2595 141.082 93.0157 139.908 93.0757 138.75C93.1807 136.721 93.5475 134.718 94.3555 132.826C94.4184 132.678 94.4984 132.538 94.6922 132.361C97.6014 132.328 100.389 132.316 103.176 132.338C103.722 132.342 103.973 132.207 103.929 131.615C103.884 131.023 103.879 130.422 103.93 129.831C103.984 129.194 103.712 129.061 103.131 129.07C101.237 129.102 99.342 129.089 97.4477 129.075C97.1668 129.073 96.8865 128.972 96.606 128.918C97.8914 127.665 99.169 126.404 100.471 125.17C100.651 124.999 100.952 124.957 101.333 124.856C101.817 124.857 102.163 124.865 102.51 124.857C104.093 124.824 103.913 125.143 103.912 123.394C105.019 123.022 106.103 122.466 107.239 122.321C108.972 122.099 110.74 122.155 112.494 122.111C112.727 122.105 112.963 122.206 113.267 122.336C113.339 126.696 113.341 130.978 113.344 135.26Z" fill="#CED9DE"/>
<path d="M113.42 135.262C113.343 130.983 113.34 126.701 113.337 122.343C116.797 122.869 119.796 124.361 122.355 126.795C124.496 128.831 126.036 131.22 126.966 134.012C127.066 134.313 127.085 134.641 127.141 135.025C126.772 135.146 126.405 135.248 126.037 135.249C121.857 135.261 117.676 135.257 113.42 135.262Z" fill="#B9C9CE"/>
<path d="M96.5515 128.955C96.8754 128.977 97.1557 129.077 97.4366 129.08C99.3309 129.094 101.226 129.106 103.119 129.075C103.701 129.066 103.973 129.198 103.918 129.836C103.868 130.427 103.873 131.028 103.917 131.62C103.962 132.211 103.711 132.347 103.165 132.343C100.378 132.321 97.5903 132.332 94.7266 132.331C95.2696 131.216 95.8889 130.101 96.5515 128.955Z" fill="#B8C9CD"/>
<path d="M103.854 123.399C103.915 125.146 104.095 124.827 102.512 124.861C102.165 124.868 101.818 124.86 101.396 124.857C102.144 124.37 102.968 123.885 103.854 123.399Z" fill="#B8C9CD"/>
<path d="M98.7317 146.271C98.8533 145.715 99.0153 145.221 99.0295 144.722C99.0464 144.123 99.4137 144.194 99.7936 144.182C100.207 144.168 100.53 144.186 100.513 144.758C100.467 146.395 99.7359 147.737 98.7373 149.096C98.3823 148.764 98.0629 148.466 97.7549 148.178C98.0946 147.518 98.4006 146.924 98.7317 146.271Z" fill="#092333"/>
</svg>
