<svg xmlns="http://www.w3.org/2000/svg" width="25.951" height="23.616" viewBox="0 0 25.951 23.616">
  <g id="Group_11992" data-name="Group 11992" transform="translate(-1511.269 -1006.682)">
    <path id="Vector" d="M7.5,1.29,1.29,7.5A4.395,4.395,0,1,1,7.5,1.29Z" transform="translate(1519.583 1014.407)" fill="none" stroke="#292d32" stroke-linecap="round" stroke-linejoin="round" stroke-width="1.5"/>
    <path id="Vector-2" data-name="Vector" d="M18.522,1.695A10.772,10.772,0,0,0,12.019,0,14,14,0,0,0,.829,5.933a4.845,4.845,0,0,0,0,5.421,15.942,15.942,0,0,0,3.329,3.311" transform="translate(1512.226 1010.166)" fill="none" stroke="#292d32" stroke-linecap="round" stroke-linejoin="round" stroke-width="1.5"/>
    <path id="Vector-3" data-name="Vector" d="M-.732,11.9a17.826,17.826,0,0,0,5.129.994,14,14,0,0,0,11.19-5.933,4.845,4.845,0,0,0,0-5.421,11.405,11.405,0,0,0-2.861-2.7" transform="translate(1519.847 1014.553)" fill="none" stroke="#292d32" stroke-linecap="round" stroke-linejoin="round" stroke-width="1.5"/>
    <path id="Vector-4" data-name="Vector" d="M3.464,0A4.378,4.378,0,0,1,0,3.464" transform="translate(1524.828 1019.664)" fill="none" stroke="#292d32" stroke-linecap="round" stroke-linejoin="round" stroke-width="1.5"/>
    <path id="Vector-5" data-name="Vector" d="M7.559,0,0,7.325" transform="translate(1513.314 1021.912)" fill="none" stroke="#292d32" stroke-linecap="round" stroke-linejoin="round" stroke-width="1.5"/>
    <path id="Vector-6" data-name="Vector" d="M7.92,0,0,7.955" transform="translate(1527.088 1007.742)" fill="none" stroke="#292d32" stroke-linecap="round" stroke-linejoin="round" stroke-width="1.5"/>
  </g>
</svg>
