<svg width="22" height="23" viewBox="0 0 22 23" fill="none" xmlns="http://www.w3.org/2000/svg">
<g clip-path="url(#clip0_48_22)">
<path d="M16.4448 17.3431C14.8779 18.5375 12.9699 19.1992 10.9998 19.2314C4.58317 19.2314 0.916504 11.8981 0.916504 11.8981C2.05674 9.77312 3.63821 7.91661 5.55484 6.45305M9.07484 4.78472C9.70581 4.63703 10.3518 4.5632 10.9998 4.56472C17.4165 4.56472 21.0832 11.8981 21.0832 11.8981C20.5267 12.939 19.8631 13.9191 19.1032 14.8222M12.9432 13.8414C12.6914 14.1116 12.3878 14.3283 12.0505 14.4786C11.7131 14.6289 11.349 14.7097 10.9798 14.7162C10.6105 14.7227 10.2437 14.6548 9.90131 14.5165C9.55889 14.3782 9.24783 14.1723 8.9867 13.9112C8.72556 13.6501 8.5197 13.339 8.38139 12.9966C8.24308 12.6542 8.17515 12.2874 8.18167 11.9181C8.18818 11.5489 8.269 11.1847 8.41931 10.8474C8.56961 10.5101 8.78632 10.2065 9.0565 9.95472" stroke="#262626" stroke-width="2" stroke-linecap="round" stroke-linejoin="round"/>
<path d="M16.4448 17.3431C14.8779 18.5375 12.9699 19.1992 10.9998 19.2314C4.58317 19.2314 0.916504 11.8981 0.916504 11.8981C2.05674 9.77312 3.63821 7.91661 5.55484 6.45305M9.07484 4.78472C9.70581 4.63703 10.3518 4.5632 10.9998 4.56472C17.4165 4.56472 21.0832 11.8981 21.0832 11.8981C20.5267 12.939 19.8631 13.9191 19.1032 14.8222M12.9432 13.8414C12.6914 14.1116 12.3878 14.3283 12.0505 14.4786C11.7131 14.6289 11.349 14.7097 10.9798 14.7162C10.6105 14.7227 10.2437 14.6548 9.90131 14.5165C9.55889 14.3782 9.24783 14.1723 8.9867 13.9112C8.72556 13.6501 8.5197 13.339 8.38139 12.9966C8.24308 12.6542 8.17515 12.2874 8.18167 11.9181C8.18818 11.5489 8.269 11.1847 8.41931 10.8474C8.56961 10.5101 8.78632 10.2065 9.0565 9.95472" stroke="black" stroke-opacity="0.2" stroke-width="2" stroke-linecap="round" stroke-linejoin="round"/>
<path d="M16.4448 17.3431C14.8779 18.5375 12.9699 19.1992 10.9998 19.2314C4.58317 19.2314 0.916504 11.8981 0.916504 11.8981C2.05674 9.77312 3.63821 7.91661 5.55484 6.45305M9.07484 4.78472C9.70581 4.63703 10.3518 4.5632 10.9998 4.56472C17.4165 4.56472 21.0832 11.8981 21.0832 11.8981C20.5267 12.939 19.8631 13.9191 19.1032 14.8222M12.9432 13.8414C12.6914 14.1116 12.3878 14.3283 12.0505 14.4786C11.7131 14.6289 11.349 14.7097 10.9798 14.7162C10.6105 14.7227 10.2437 14.6548 9.90131 14.5165C9.55889 14.3782 9.24783 14.1723 8.9867 13.9112C8.72556 13.6501 8.5197 13.339 8.38139 12.9966C8.24308 12.6542 8.17515 12.2874 8.18167 11.9181C8.18818 11.5489 8.269 11.1847 8.41931 10.8474C8.56961 10.5101 8.78632 10.2065 9.0565 9.95472" stroke="black" stroke-opacity="0.2" stroke-width="2" stroke-linecap="round" stroke-linejoin="round"/>
<path d="M16.4448 17.3431C14.8779 18.5375 12.9699 19.1992 10.9998 19.2314C4.58317 19.2314 0.916504 11.8981 0.916504 11.8981C2.05674 9.77312 3.63821 7.91661 5.55484 6.45305M9.07484 4.78472C9.70581 4.63703 10.3518 4.5632 10.9998 4.56472C17.4165 4.56472 21.0832 11.8981 21.0832 11.8981C20.5267 12.939 19.8631 13.9191 19.1032 14.8222M12.9432 13.8414C12.6914 14.1116 12.3878 14.3283 12.0505 14.4786C11.7131 14.6289 11.349 14.7097 10.9798 14.7162C10.6105 14.7227 10.2437 14.6548 9.90131 14.5165C9.55889 14.3782 9.24783 14.1723 8.9867 13.9112C8.72556 13.6501 8.5197 13.339 8.38139 12.9966C8.24308 12.6542 8.17515 12.2874 8.18167 11.9181C8.18818 11.5489 8.269 11.1847 8.41931 10.8474C8.56961 10.5101 8.78632 10.2065 9.0565 9.95472" stroke="black" stroke-opacity="0.2" stroke-width="2" stroke-linecap="round" stroke-linejoin="round"/>
<path d="M0.916504 1.8147L21.0832 21.9814" stroke="#262626" stroke-width="2" stroke-linecap="round" stroke-linejoin="round"/>
<path d="M0.916504 1.8147L21.0832 21.9814" stroke="black" stroke-opacity="0.2" stroke-width="2" stroke-linecap="round" stroke-linejoin="round"/>
<path d="M0.916504 1.8147L21.0832 21.9814" stroke="black" stroke-opacity="0.2" stroke-width="2" stroke-linecap="round" stroke-linejoin="round"/>
<path d="M0.916504 1.8147L21.0832 21.9814" stroke="black" stroke-opacity="0.2" stroke-width="2" stroke-linecap="round" stroke-linejoin="round"/>
</g>
<defs>
<clipPath id="clip0_48_22">
<rect width="22" height="22" fill="white" transform="translate(0 0.897949)"/>
</clipPath>
</defs>
</svg>
