<svg width="70" height="70" viewBox="0 0 70 70" fill="none" xmlns="http://www.w3.org/2000/svg">
<rect y="6.10352e-05" width="70" height="70" rx="35" fill="#EDF5FF"/>
<g clip-path="url(#clip0_1_1341)">
<path d="M29.4315 38.1837H23.0679C22.5906 38.1837 22.2725 38.5019 22.2725 38.9791C22.2725 39.4563 22.5907 39.7745 23.0679 39.7745H29.4315C29.9088 39.7745 30.227 39.4563 30.227 38.9791C30.227 38.5019 29.9088 38.1837 29.4315 38.1837Z" fill="#0C75EB"/>
<path d="M27.0458 34.2032H20.6821C20.2049 34.2032 19.8867 34.5214 19.8867 34.9986C19.8867 35.4758 20.2049 35.794 20.6821 35.794H27.0458C27.5231 35.794 27.8412 35.4758 27.8412 34.9986C27.8412 34.5214 27.5231 34.2032 27.0458 34.2032Z" fill="#0C75EB"/>
<path d="M24.6591 30.2266H18.2954C17.8182 30.2266 17.5 30.5448 17.5 31.0221C17.5 31.4993 17.8182 31.8175 18.2954 31.8175H24.6591C25.1364 31.8175 25.4545 31.4993 25.4545 31.0221C25.4545 30.5448 25.1364 30.2266 24.6591 30.2266Z" fill="#0C75EB"/>
<path d="M49.1589 28.1579C48.9202 27.8397 48.3634 27.7602 48.0452 27.9989L39.6134 34.4421C38.7384 35.0784 37.5452 35.0784 36.6702 34.4421L28.2384 27.9989C27.9202 27.7602 27.3634 27.7602 27.1248 28.1579C26.8861 28.4761 26.8861 29.0329 27.2839 29.2716L35.7952 35.7148C36.5111 36.2716 37.3861 36.5102 38.1816 36.5102C38.977 36.5102 39.9316 36.2716 40.5679 35.7148L48.9998 29.2716C49.318 29.0329 49.3975 28.4761 49.1589 28.1579Z" fill="#0C75EB"/>
<path d="M50.1133 24.6602H24.6587C24.1814 24.6602 23.8633 24.9784 23.8633 25.4556C23.8633 25.9329 24.1814 26.2511 24.6587 26.2511H50.1133C50.5906 26.2511 50.9087 26.5694 50.9087 27.0466V42.9556C50.9087 43.4329 50.5905 43.7511 50.1133 43.7511H24.6587C24.1814 43.7511 23.8633 44.0693 23.8633 44.5465C23.8633 45.0238 24.1815 45.3419 24.6587 45.3419H50.1133C51.4656 45.3419 52.4996 44.3079 52.4996 42.9556V27.0466C52.4996 25.6944 51.4656 24.6602 50.1133 24.6602Z" fill="#0C75EB"/>
<path d="M49.0791 40.8083L44.3064 36.0356C43.9882 35.7174 43.511 35.7174 43.1928 36.0356C42.8745 36.3538 42.8745 36.831 43.1928 37.1492L47.9655 41.922C48.1245 42.081 48.3632 42.1606 48.5223 42.1606C48.6813 42.1606 48.92 42.081 49.0791 41.922C49.3973 41.6038 49.3973 41.1265 49.0791 40.8083Z" fill="#0C75EB"/>
</g>
<defs>
<clipPath id="clip0_1_1341">
<rect width="35" height="35" fill="white" transform="translate(17.5 17.5001)"/>
</clipPath>
</defs>
</svg>
