<svg width="70" height="70" viewBox="0 0 70 70" fill="none" xmlns="http://www.w3.org/2000/svg">
<rect y="6.10352e-05" width="70" height="70" rx="35" fill="#FFECED"/>
<g clip-path="url(#clip0_1_1370)">
<path d="M39.8275 30.1797C39.3747 30.1797 39.0078 30.5467 39.0078 30.9994V46.4912C39.0078 46.9436 39.3747 47.3108 39.8275 47.3108C40.2802 47.3108 40.6472 46.9436 40.6472 46.4912V30.9994C40.6472 30.5467 40.2802 30.1797 39.8275 30.1797Z" fill="#FF4B55"/>
<path d="M30.1556 30.1797C29.7029 30.1797 29.3359 30.5467 29.3359 30.9994V46.4912C29.3359 46.9436 29.7029 47.3108 30.1556 47.3108C30.6083 47.3108 30.9753 46.9436 30.9753 46.4912V30.9994C30.9753 30.5467 30.6083 30.1797 30.1556 30.1797Z" fill="#FF4B55"/>
<path d="M23.1066 27.9198V48.1147C23.1066 49.3083 23.5443 50.4293 24.3088 51.2336C25.0699 52.0402 26.1291 52.498 27.2376 52.4999H42.746C43.8548 52.498 44.9139 52.0402 45.6747 51.2336C46.4393 50.4293 46.877 49.3083 46.877 48.1147V27.9198C48.3969 27.5163 49.3818 26.048 49.1785 24.4884C48.9748 22.9291 47.6464 21.7626 46.0736 21.7623H41.877V20.7377C41.8818 19.8761 41.5411 19.0488 40.9312 18.4401C40.3212 17.8318 39.4926 17.493 38.631 17.5H31.3526C30.4909 17.493 29.6623 17.8318 29.0524 18.4401C28.4424 19.0488 28.1017 19.8761 28.1065 20.7377V21.7623H23.9099C22.3372 21.7626 21.0087 22.9291 20.8051 24.4884C20.6018 26.048 21.5866 27.5163 23.1066 27.9198ZM42.746 50.8606H27.2376C25.8361 50.8606 24.7459 49.6567 24.7459 48.1147V27.9918H45.2376V48.1147C45.2376 49.6567 44.1474 50.8606 42.746 50.8606ZM29.7459 20.7377C29.7404 20.3109 29.9082 19.9001 30.2111 19.5988C30.5137 19.2976 30.9254 19.132 31.3526 19.1394H38.631C39.0581 19.132 39.4699 19.2976 39.7724 19.5988C40.0753 19.8998 40.2431 20.3109 40.2377 20.7377V21.7623H29.7459V20.7377ZM23.9099 23.4017H46.0736C46.8885 23.4017 47.549 24.0622 47.549 24.8771C47.549 25.6919 46.8885 26.3525 46.0736 26.3525H23.9099C23.095 26.3525 22.4345 25.6919 22.4345 24.8771C22.4345 24.0622 23.095 23.4017 23.9099 23.4017Z" fill="#FF4B55"/>
<path d="M34.9915 30.1797C34.5388 30.1797 34.1719 30.5467 34.1719 30.9994V46.4912C34.1719 46.9436 34.5388 47.3108 34.9915 47.3108C35.4443 47.3108 35.8112 46.9436 35.8112 46.4912V30.9994C35.8112 30.5467 35.4443 30.1797 34.9915 30.1797Z" fill="#FF4B55"/>
</g>
<defs>
<clipPath id="clip0_1_1370">
<rect width="35" height="35" fill="white" transform="translate(17.5 17.5001)"/>
</clipPath>
</defs>
</svg>
