<svg width="178" height="179" viewBox="0 0 178 179" fill="none" xmlns="http://www.w3.org/2000/svg">
<g clip-path="url(#clip0_213_1375)">
<path d="M178 0.632812H0V178.633H178V0.632812Z" fill="white"/>
<g opacity="0.3">
<path d="M49.0476 158.047C56.6343 157.963 63.9337 155.435 71.3862 154.06C80.3058 152.414 89.5501 152.429 98.464 154.104C107.915 155.88 117.009 159.499 126.607 160.23C142.641 161.453 155.473 153.825 164.522 140.966C173.571 128.106 174.875 110.514 167.814 96.5382C165.411 91.7809 162.135 87.4545 159.985 82.5854C152.933 66.6139 164.704 40.8594 153.918 26.9743C148.039 19.4058 138.15 15.4143 128.38 14.8447C118.609 14.2751 108.902 18.9152 99.7744 22.3346C90.9719 25.6326 79.1869 33.2093 69.9473 31.3385C63.5147 30.0359 58.0836 25.9021 51.8461 23.8992C38.5716 19.6368 23.1853 26.2556 15.4142 37.5027C7.64374 48.7498 6.73452 63.5163 10.4868 76.547C12.7424 84.3793 16.5857 91.9732 16.6092 100.104C16.6246 105.441 14.9795 110.634 14.092 115.901C10.6512 136.32 26.7346 158.293 49.0476 158.047Z" stroke="#2C54AC" stroke-width="1.0454" stroke-miterlimit="10" stroke-dasharray="4.32 4.32"/>
</g>
<path opacity="0.3" d="M40.3793 152.169C47.9144 153.027 55.489 151.425 63.0622 150.985C72.1266 150.459 81.2922 151.621 89.9106 154.387C99.0484 157.32 107.587 162.037 117.009 163.953C132.748 167.154 146.457 158.017 157.136 146.386C167.815 134.755 171.441 117.47 166.292 102.734C164.539 97.7178 161.864 93.0211 160.377 87.9253C155.501 71.2111 169.573 53.8686 162.303 37.9034C158.347 29.2163 150.161 23.5363 140.547 21.7599C130.932 19.9831 117.769 21.2629 108.264 23.5224C99.0965 25.7015 86.8234 32.1003 77.9081 29.0992C71.7012 27.0098 66.8632 22.2362 60.9429 19.4765C48.3433 13.6028 32.2059 18.2593 23.0079 28.4495C13.8099 38.64 10.9502 53.1715 12.9438 66.5603C14.1421 74.6077 16.9466 82.6156 15.8922 90.6818C15.1998 95.9763 12.8797 100.923 11.3012 106.036C5.18084 125.86 18.2179 149.646 40.3793 152.169Z" fill="#9DDCF9"/>
</g>
<g opacity="0.4">
<path d="M161.174 75.3015L160.877 73.8301C160.69 72.9047 160.65 72.1089 160.757 71.4419C160.863 70.7755 161.052 70.1834 161.324 69.6663C161.595 69.1496 161.88 68.678 162.179 68.2515C162.586 67.6886 162.938 67.1405 163.235 66.6089C163.532 66.0772 163.606 65.441 163.457 64.7008C163.375 64.2938 163.204 63.9718 162.945 63.7351C162.685 63.4985 162.396 63.3307 162.077 63.2312C161.759 63.132 161.461 63.11 161.183 63.1658C160.646 63.2742 160.223 63.4892 159.912 63.8119C159.601 64.1346 159.369 64.5135 159.216 64.9488C159.063 65.3842 158.947 65.8316 158.866 66.2908L155.371 65.435C155.415 65.0796 155.524 64.6148 155.697 64.0404C155.87 63.4665 156.158 62.8691 156.563 62.2478C156.968 61.6273 157.518 61.0637 158.216 60.5569C158.913 60.0508 159.798 59.689 160.872 59.4726C161.926 59.26 162.911 59.2494 163.826 59.4402C164.741 59.6314 165.524 60.0515 166.175 60.7004C166.825 61.3494 167.274 62.2844 167.52 63.5059C167.725 64.5241 167.753 65.3757 167.602 66.0609C167.451 66.7461 167.215 67.3474 166.896 67.8641C166.577 68.3812 166.256 68.8937 165.935 69.4012C165.684 69.7797 165.453 70.1873 165.243 70.6241C165.032 71.0616 164.894 71.5467 164.828 72.0798C164.762 72.6129 164.8 73.2316 164.942 73.9346L165.06 74.5175L161.174 75.3015ZM164.298 80.7678C163.631 80.9021 163.049 80.8317 162.55 80.5567C162.051 80.2816 161.743 79.848 161.624 79.2556C161.508 78.682 161.628 78.1567 161.985 77.6805C162.341 77.2042 162.843 76.9007 163.491 76.7699C164.139 76.6395 164.71 76.7266 165.206 77.0312C165.7 77.3361 166.006 77.7754 166.121 78.349C166.24 78.9414 166.133 79.4589 165.798 79.902C165.464 80.3449 164.964 80.6334 164.298 80.7678Z" fill="#55A3F3"/>
<path d="M16.5788 96.6845L16.0091 95.4413C15.6508 94.6595 15.449 93.9622 15.4046 93.3484C15.3598 92.7354 15.4042 92.171 15.5371 91.6557C15.67 91.1407 15.8246 90.6631 16.0013 90.2224C16.2444 89.6381 16.4423 89.0791 16.5951 88.5453C16.7479 88.0118 16.6811 87.4322 16.3943 86.8067C16.2369 86.463 16.018 86.2128 15.7386 86.0571C15.4589 85.9015 15.1675 85.8126 14.8644 85.791C14.5609 85.7693 14.2922 85.8119 14.0576 85.9193C13.6038 86.1272 13.2733 86.4065 13.0654 86.7573C12.8571 87.108 12.7306 87.4926 12.6854 87.9105C12.6403 88.3288 12.63 88.7496 12.6542 89.1736L9.37636 89.143C9.34118 88.8186 9.34082 88.3839 9.37458 87.8384C9.4087 87.2932 9.53984 86.7033 9.76942 86.0678C9.99865 85.4334 10.3697 84.8186 10.8825 84.2237C11.395 83.6294 12.1051 83.1241 13.012 82.7083C13.9034 82.2999 14.7744 82.0853 15.626 82.0639C16.4771 82.043 17.259 82.2523 17.9716 82.6919C18.6841 83.1315 19.2766 83.8676 19.7496 84.8996C20.1437 85.7597 20.3456 86.5096 20.3545 87.1486C20.3637 87.7879 20.2802 88.3704 20.1046 88.895C19.9291 89.4202 19.7514 89.9416 19.5726 90.4587C19.4283 90.8468 19.3089 91.2562 19.2133 91.6877C19.1177 92.1195 19.0964 92.5786 19.1493 93.0652C19.2019 93.5517 19.3647 94.0926 19.6369 94.6865L19.8626 95.1791L16.5788 96.6845ZM20.4888 100.881C19.9259 101.139 19.3946 101.198 18.8952 101.058C18.3956 100.918 18.0316 100.598 17.802 100.097C17.5799 99.6129 17.5771 99.1218 17.7942 98.6249C18.011 98.1285 18.3931 97.7546 18.9407 97.5033C19.488 97.2528 20.013 97.2108 20.5151 97.3779C21.0173 97.5453 21.3798 97.8712 21.6019 98.3559C21.8315 98.8567 21.8436 99.3379 21.6396 99.8006C21.4352 100.263 21.0518 100.623 20.4888 100.881Z" fill="#55A3F3"/>
<path d="M91.851 19.2163L92.0223 18.0794C92.13 17.3643 92.3092 16.7808 92.5604 16.3284C92.8113 15.8763 93.102 15.4996 93.4329 15.1982C93.7634 14.8968 94.0922 14.6321 94.4195 14.4035C94.8595 14.1043 95.2561 13.8022 95.6093 13.4969C95.9626 13.192 96.1822 12.7534 96.2686 12.1809C96.3159 11.8664 96.2771 11.5899 96.152 11.3514C96.0269 11.1133 95.8627 10.9168 95.6595 10.7615C95.4558 10.6065 95.2472 10.5127 95.0325 10.4803C94.6174 10.4178 94.2564 10.4622 93.9482 10.6133C93.6401 10.7643 93.3739 10.9765 93.15 11.2501C92.9258 11.5234 92.725 11.8152 92.5466 12.1248L90.2539 10.5944C90.3786 10.3499 90.5784 10.0436 90.8531 9.67538C91.1282 9.30754 91.4921 8.95286 91.9459 8.61133C92.3994 8.2705 92.9435 8.00858 93.5783 7.82626C94.2126 7.6443 94.9448 7.61516 95.7742 7.74025C96.5895 7.86322 97.3014 8.11306 97.9102 8.49014C98.5186 8.86721 98.9728 9.37436 99.2717 10.0119C99.5706 10.6495 99.6491 11.4399 99.5066 12.3842C99.3883 13.171 99.185 13.7912 98.8971 14.245C98.6092 14.6992 98.2826 15.0706 97.9173 15.3588C97.5519 15.6478 97.1869 15.9328 96.823 16.2143C96.543 16.4211 96.2704 16.6543 96.0045 16.9137C95.7384 17.1735 95.5123 17.4866 95.3254 17.8534C95.1384 18.2201 95.0041 18.6754 94.922 19.2188L94.8541 19.6691L91.851 19.2163ZM92.6706 23.9693C92.1556 23.8919 91.7547 23.6886 91.4679 23.3602C91.1808 23.0318 91.072 22.6387 91.141 22.181C91.2078 21.7378 91.4317 21.3909 91.8134 21.1415C92.1944 20.8916 92.6354 20.8045 93.1362 20.8799C93.6365 20.9552 94.0253 21.1674 94.3018 21.5164C94.5783 21.8654 94.6832 22.2617 94.6164 22.7048C94.5474 23.1626 94.3342 23.507 93.9777 23.7387C93.6209 23.97 93.1852 24.0472 92.6706 23.9693Z" fill="#55A3F3"/>
<path d="M81.8148 32.2375L81.642 31.3206C81.5336 30.7438 81.5148 30.249 81.5862 29.8354C81.6577 29.422 81.7796 29.0556 81.9526 28.7361C82.1254 28.417 82.3063 28.1263 82.496 27.8636C82.7533 27.5168 82.9762 27.1791 83.1652 26.8508C83.3543 26.5227 83.4051 26.1279 83.3184 25.6666C83.2708 25.4128 83.167 25.2113 83.0075 25.0624C82.8479 24.9132 82.6695 24.8065 82.4726 24.7422C82.2753 24.6779 82.0902 24.6619 81.9171 24.6946C81.5823 24.7575 81.3176 24.8879 81.1221 25.0862C80.9266 25.2842 80.7795 25.518 80.681 25.7874C80.5822 26.0568 80.5062 26.334 80.4525 26.6187L78.2871 26.0589C78.3173 25.8382 78.3884 25.5504 78.5007 25.1946C78.613 24.8392 78.7971 24.4703 79.0537 24.0872C79.3099 23.7048 79.6568 23.3587 80.0943 23.0495C80.5314 22.7403 81.0848 22.5224 81.7536 22.3966C82.4111 22.2729 83.0231 22.274 83.5907 22.4002C84.1575 22.5263 84.6412 22.7936 85.0403 23.2019C85.4398 23.6103 85.7109 24.1953 85.8545 24.9565C85.9739 25.5909 85.9842 26.1208 85.8847 26.5451C85.7856 26.9698 85.6345 27.3419 85.432 27.6604C85.229 27.9795 85.0257 28.2954 84.8221 28.6082C84.6629 28.8413 84.5161 29.0929 84.3821 29.363C84.2478 29.6331 84.1582 29.9335 84.1131 30.2647C84.0679 30.5956 84.0868 30.9804 84.1692 31.4186L84.2375 31.7819L81.8148 32.2375ZM83.7133 35.6599C83.2982 35.7381 82.9364 35.6898 82.629 35.5149C82.3212 35.3401 82.1328 35.0682 82.0632 34.6989C81.996 34.3414 82.0749 34.0159 82.3002 33.7227C82.5255 33.4295 82.8401 33.2447 83.2438 33.1686C83.6475 33.0926 84.0018 33.1512 84.3071 33.3445C84.6124 33.5379 84.7986 33.8137 84.8658 34.1708C84.9355 34.5401 84.8644 34.8606 84.6529 35.1336C84.4415 35.4065 84.1284 35.5817 83.7133 35.6599Z" fill="#55A3F3"/>
<path d="M101.449 32.1624L101.616 31.4939C101.722 31.0734 101.862 30.7355 102.037 30.4799C102.212 30.2244 102.408 30.0165 102.622 29.8555C102.836 29.6949 103.047 29.5556 103.256 29.4376C103.535 29.2844 103.789 29.1266 104.017 28.9645C104.245 28.8028 104.401 28.5537 104.485 28.2171C104.531 28.0323 104.524 27.865 104.463 27.7157C104.402 27.5664 104.315 27.4399 104.203 27.3358C104.09 27.2316 103.971 27.1641 103.845 27.1325C103.601 27.0717 103.383 27.0774 103.191 27.1499C102.998 27.2224 102.827 27.334 102.678 27.4843C102.529 27.6347 102.392 27.7971 102.268 27.9716L100.988 26.9281C101.076 26.7892 101.213 26.6182 101.398 26.4142C101.582 26.2102 101.82 26.0194 102.11 25.8417C102.4 25.664 102.74 25.5389 103.129 25.4664C103.517 25.3939 103.956 25.4184 104.444 25.5403C104.923 25.6601 105.333 25.8499 105.675 26.1093C106.017 26.3687 106.259 26.6971 106.4 27.0945C106.543 27.4918 106.544 27.9677 106.405 28.5228C106.29 28.9852 106.133 29.3437 105.936 29.5982C105.738 29.8527 105.522 30.0556 105.288 30.207C105.053 30.3584 104.819 30.5077 104.586 30.6548C104.407 30.7621 104.231 30.8858 104.058 31.0255C103.885 31.1651 103.732 31.3393 103.599 31.5475C103.467 31.7558 103.361 32.0195 103.281 32.339L103.215 32.6038L101.449 32.1624ZM101.668 35.0443C101.365 34.9686 101.137 34.8246 100.985 34.6125C100.832 34.3999 100.79 34.1597 100.857 33.8903C100.922 33.6298 101.076 33.4358 101.317 33.3085C101.559 33.1813 101.827 33.1543 102.121 33.2278C102.416 33.3014 102.635 33.45 102.781 33.6739C102.926 33.8978 102.966 34.1401 102.901 34.4007C102.834 34.6697 102.687 34.863 102.461 34.981C102.235 35.0986 101.97 35.12 101.668 35.0443Z" fill="#55A3F3"/>
<path d="M152.92 94.2132L153.068 93.2935C153.162 92.7149 153.312 92.2436 153.519 91.8794C153.726 91.5151 153.965 91.2123 154.236 90.9713C154.506 90.73 154.774 90.5182 155.042 90.3359C155.401 90.0974 155.725 89.8558 156.013 89.6116C156.302 89.3674 156.484 89.0138 156.559 88.5511C156.6 88.2966 156.571 88.0724 156.471 87.8783C156.372 87.6843 156.241 87.5237 156.077 87.3964C155.914 87.2692 155.745 87.1914 155.572 87.1633C155.236 87.1089 154.943 87.142 154.692 87.2617C154.441 87.3815 154.224 87.551 154.04 87.7706C153.856 87.9903 153.691 88.2248 153.544 88.474L151.699 87.2145C151.802 87.0176 151.967 86.7709 152.193 86.4749C152.419 86.1792 152.716 85.8949 153.087 85.6223C153.457 85.3501 153.9 85.1425 154.416 85C154.932 84.8578 155.525 84.8408 156.196 84.9492C156.855 85.0558 157.43 85.2644 157.92 85.5747C158.41 85.8853 158.773 86.3 159.01 86.8193C159.247 87.3381 159.304 87.9796 159.18 88.743C159.078 89.3795 158.908 89.8803 158.671 90.2456C158.434 90.611 158.166 90.9091 157.867 91.1398C157.569 91.3708 157.271 91.5986 156.974 91.8236C156.745 91.9885 156.522 92.175 156.304 92.3833C156.087 92.5916 155.901 92.8432 155.746 93.1389C155.591 93.4346 155.479 93.802 155.408 94.2417L155.349 94.606L152.92 94.2132ZM153.543 98.071C153.127 98.0039 152.804 97.8358 152.574 97.5674C152.344 97.2988 152.26 96.9796 152.319 96.6093C152.377 96.2507 152.562 95.9717 152.873 95.7727C153.184 95.5737 153.542 95.5069 153.947 95.5723C154.352 95.6377 154.665 95.8129 154.886 96.0979C155.107 96.3829 155.188 96.7049 155.131 97.0635C155.071 97.4338 154.896 97.711 154.605 97.8955C154.313 98.0799 153.96 98.1386 153.543 98.071Z" fill="#55A3F3"/>
<path d="M20.7454 76.0021L20.7212 75.0823C20.7059 74.5038 20.7653 74.019 20.8996 73.6277C21.034 73.2364 21.2102 72.8988 21.4284 72.6152C21.6467 72.3316 21.8684 72.0768 22.0941 71.8507C22.399 71.5533 22.6688 71.2597 22.9044 70.9697C23.14 70.6801 23.2516 70.3037 23.2392 69.8406C23.2324 69.5862 23.1631 69.3736 23.0313 69.2038C22.8994 69.0335 22.7423 68.9017 22.5607 68.8082C22.3788 68.7147 22.2011 68.67 22.0276 68.6746C21.6918 68.6835 21.4135 68.7688 21.1921 68.9312C20.9707 69.0932 20.7905 69.2979 20.6526 69.5446C20.5144 69.7912 20.3967 70.0492 20.2997 70.3179L18.2793 69.4337C18.3433 69.2237 18.4577 68.9543 18.6226 68.6259C18.7875 68.2975 19.0246 67.967 19.3345 67.6347C19.644 67.3024 20.0357 67.0199 20.5101 66.7874C20.9842 66.555 21.5571 66.4299 22.2281 66.4121C22.8873 66.3947 23.4833 66.4917 24.0157 66.7036C24.5481 66.9154 24.9767 67.2512 25.3015 67.7115C25.6264 68.1717 25.7987 68.7837 25.819 69.5471C25.8357 70.1836 25.7625 70.7007 25.5994 71.0984C25.4362 71.4964 25.2308 71.8347 24.9838 72.113C24.7365 72.3917 24.4887 72.6674 24.2417 72.94C24.0502 73.1422 23.8679 73.364 23.6948 73.6057C23.5217 73.8477 23.3874 74.126 23.2914 74.4412C23.1955 74.7564 23.1535 75.1339 23.1653 75.5735L23.1749 75.9378L20.7454 76.0021ZM22.0571 79.6314C21.6406 79.6424 21.2962 79.5386 21.0244 79.3201C20.7521 79.1015 20.6114 78.8072 20.6014 78.4369C20.5918 78.0783 20.7198 77.7737 20.9853 77.5235C21.2504 77.2733 21.5855 77.1429 21.9907 77.1323C22.3955 77.1216 22.7313 77.2343 22.9982 77.4702C23.2648 77.7062 23.403 78.0037 23.4126 78.3623C23.4226 78.7326 23.3028 79.0336 23.0544 79.266C22.806 79.4988 22.4733 79.6204 22.0571 79.6314Z" fill="#55A3F3"/>
</g>
<path d="M61.8522 43.8199C65.5985 30.5128 57.8478 16.6882 44.5405 12.9418C31.2333 9.19546 17.4086 16.9459 13.6622 30.253C9.91591 43.5601 17.6666 57.3847 30.9739 61.1311C44.2812 64.8775 58.1058 57.127 61.8522 43.8199Z" fill="#55A3F3"/>
<path d="M55.1397 55.0502C66.0347 44.6065 67.1117 28.05 57.5452 18.0702C47.9788 8.09048 31.3916 8.46658 20.4966 18.9103C9.60165 29.354 8.52465 45.9105 18.0911 55.8903C27.6575 65.8701 44.2447 65.4939 55.1397 55.0502Z" stroke="#55A3F3" stroke-width="1.0506" stroke-miterlimit="10"/>
<path d="M35.6035 60.8819L45.8904 69.7718L41.1829 57.4961L35.6035 60.8819Z" fill="#55A3F3"/>
<path d="M37.4915 45.5733L36.876 43.2607C36.489 41.8061 36.3472 40.5434 36.4517 39.4715C36.5558 38.4003 36.7989 37.4401 37.1806 36.5907C37.5619 35.7416 37.9699 34.9633 38.4049 34.2554C38.997 33.3196 39.5034 32.4137 39.9246 31.538C40.3461 30.6627 40.4015 29.6434 40.092 28.4792C39.9217 27.8398 39.6182 27.3437 39.1821 26.9922C38.7457 26.6411 38.2695 26.4019 37.7528 26.2743C37.2357 26.1474 36.7594 26.1414 36.323 26.2576C35.4789 26.4822 34.8261 26.8664 34.3634 27.4098C33.9006 27.9535 33.5683 28.5794 33.3675 29.287C33.166 29.9949 33.0242 30.7181 32.9404 31.457L31.7519 31.7733L27.2949 30.436C27.3301 29.8659 27.4577 29.1157 27.6773 28.1845C27.897 27.2545 28.2978 26.275 28.8818 25.2472C29.465 24.2201 30.2866 23.2691 31.3471 22.3948C32.4069 21.5213 33.7809 20.8592 35.4686 20.4099C37.1269 19.9685 38.6931 19.8555 40.168 20.0705C41.6425 20.2855 42.9298 20.8776 44.0287 21.8471C45.1279 22.8163 45.9329 24.261 46.4439 26.1812C46.8697 27.7815 46.9962 29.1345 46.8228 30.2394C46.6497 31.3447 46.3337 32.3249 45.876 33.1785C45.4179 34.0329 44.9573 34.8795 44.496 35.7189C44.1328 36.3458 43.8055 37.0168 43.5133 37.7329C43.2205 38.4494 43.0485 39.2352 42.9959 40.0902C42.9429 40.9453 43.0638 41.9262 43.358 43.0315L43.6018 43.9477L37.4915 45.5733ZM42.9966 53.9684C41.9492 54.247 41.0153 54.1919 40.1954 53.8028C39.3748 53.4136 38.8413 52.7537 38.5936 51.8225C38.3537 50.9209 38.4937 50.0733 39.0151 49.2804C39.5358 48.4875 40.3056 47.9555 41.3241 47.6847C42.342 47.4139 43.2603 47.4967 44.0774 47.9334C44.8944 48.3702 45.4232 49.0398 45.6631 49.9414C45.9112 50.8729 45.7896 51.7067 45.3013 52.4445C44.8119 53.1819 44.0439 53.6898 42.9966 53.9684Z" fill="#2C54AC"/>
<path d="M36.3005 45.8902L35.6849 43.5773C35.2979 42.1227 35.1561 40.86 35.2606 39.7881C35.3647 38.717 35.6078 37.7567 35.9895 36.9073C36.3709 36.0582 36.7788 35.2799 37.2138 34.572C37.8059 33.6362 38.3124 32.7303 38.7335 31.8543C39.155 30.979 39.2105 29.9597 38.9009 28.7958C38.7307 28.1561 38.4272 27.6603 37.9911 27.3088C37.5547 26.9577 37.0784 26.7185 36.5617 26.5909C36.0446 26.464 35.5684 26.458 35.132 26.5742C34.2879 26.7988 33.635 27.1826 33.1723 27.7264C32.7096 28.2701 32.3773 28.896 32.1765 29.6036C31.975 30.3115 31.8332 31.0347 31.7493 31.7733L26.1035 30.7522C26.1387 30.1822 26.2663 29.4319 26.4859 28.5008C26.7056 27.5707 27.1064 26.5916 27.6903 25.5635C28.2736 24.5367 29.0952 23.5857 30.1557 22.7111C31.2155 21.8375 32.5895 21.1754 34.2772 20.7262C35.9355 20.2848 37.5017 20.1721 38.977 20.3868C40.4515 20.6018 41.7387 21.1939 42.8376 22.1634C43.9368 23.1326 44.7418 24.5772 45.2529 26.4974C45.6786 28.0978 45.8052 29.4508 45.6317 30.5557C45.4586 31.6613 45.1427 32.6415 44.6849 33.4948C44.2268 34.3492 43.7663 35.1961 43.305 36.0351C42.9417 36.6617 42.6144 37.333 42.3223 38.0492C42.0294 38.7656 41.8574 39.5514 41.8048 40.4065C41.7519 41.2616 41.8727 42.2425 42.167 43.3477L42.4108 44.2639L36.3005 45.8902ZM41.8059 54.2854C40.7586 54.564 39.8246 54.5089 39.0047 54.1197C38.1841 53.7306 37.6506 53.071 37.4029 52.1395C37.163 51.2378 37.3031 50.3902 37.8244 49.5973C38.3451 48.8048 39.1149 48.2724 40.1334 48.0016C41.1513 47.7308 42.0692 47.8136 42.8867 48.2504C43.7037 48.6872 44.2325 49.3571 44.4724 50.2584C44.7205 51.1899 44.5989 52.0236 44.1106 52.7614C43.6209 53.4989 42.8532 54.0067 41.8059 54.2854Z" fill="white"/>
<path d="M145.174 58.0697C159.015 54.1976 167.097 39.838 163.225 25.9967C159.353 12.1554 144.993 4.07377 131.152 7.94589C117.31 11.818 109.229 26.1776 113.101 40.0189C116.973 53.8602 131.333 61.9418 145.174 58.0697Z" fill="#2C54AC"/>
<path d="M138.255 59.0261C153.947 59.0261 166.667 47.3744 166.667 33.0013C166.667 18.6282 153.947 6.9765 138.255 6.9765C122.564 6.9765 109.844 18.6282 109.844 33.0013C109.844 47.3744 122.564 59.0261 138.255 59.0261Z" stroke="#2C54AC" stroke-width="0.9215" stroke-miterlimit="10"/>
<path d="M148.268 55.243L141.755 67.7888L141.576 54.121L148.268 55.243Z" fill="#2C54AC"/>
<path d="M136.04 40.7355L136.158 38.3452C136.233 36.8418 136.482 35.5958 136.908 34.6068C137.334 33.6184 137.858 32.7775 138.48 32.0849C139.102 31.3922 139.728 30.7753 140.358 30.2336C141.207 29.5228 141.965 28.8142 142.633 28.1084C143.301 27.4033 143.665 26.449 143.725 25.246C143.757 24.585 143.62 24.0203 143.311 23.5526C143.002 23.0852 142.622 22.7124 142.168 22.4334C141.715 22.1552 141.263 22.0041 140.812 21.9817C139.939 21.9384 139.2 22.1054 138.594 22.4821C137.988 22.8592 137.48 23.3539 137.074 23.9666C136.666 24.5797 136.311 25.2251 136.006 25.9032L134.777 25.8424L130.939 23.2107C131.147 22.6783 131.497 22.0027 131.989 21.1828C132.482 20.3636 133.162 19.5533 134.031 18.7519C134.9 17.9516 135.972 17.2959 137.248 16.7862C138.524 16.2773 140.034 16.0651 141.779 16.1515C143.492 16.2364 145.018 16.606 146.358 17.26C147.697 17.9139 148.743 18.8703 149.494 20.1284C150.246 21.3865 150.573 23.0074 150.474 24.9923C150.393 26.6463 150.101 27.9733 149.599 28.9731C149.097 29.9731 148.498 30.8104 147.802 31.4839C147.105 32.1581 146.409 32.8241 145.714 33.483C145.177 33.9692 144.66 34.509 144.164 35.1018C143.667 35.6953 143.263 36.3908 142.953 37.1894C142.642 37.9876 142.458 38.9586 142.402 40.1012L142.355 41.0483L136.04 40.7355ZM138.725 50.4087C137.643 50.355 136.77 50.0181 136.108 49.3976C135.445 48.7767 135.138 47.9859 135.186 47.0232C135.232 46.0913 135.624 45.3269 136.362 44.7302C137.099 44.1338 137.994 43.8616 139.047 43.9135C140.099 43.9657 140.948 44.3243 141.593 44.9893C142.239 45.6542 142.538 46.4531 142.492 47.385C142.445 48.3477 142.075 49.1051 141.385 49.6588C140.694 50.2125 139.808 50.4623 138.725 50.4087Z" fill="#55A3F3"/>
<path d="M134.812 40.6766L134.93 38.2862C135.004 36.7829 135.254 35.5369 135.68 34.5478C136.106 33.5595 136.63 32.7186 137.252 32.0259C137.874 31.3333 138.499 30.7163 139.13 30.1747C139.979 29.4639 140.737 28.7552 141.405 28.0494C142.073 27.3443 142.437 26.3901 142.496 25.1871C142.529 24.5261 142.391 23.961 142.083 23.4936C141.774 23.0263 141.393 22.6535 140.94 22.3745C140.486 22.0962 140.034 21.9452 139.583 21.9231C138.711 21.8798 137.972 22.0468 137.365 22.4235C136.759 22.8006 136.252 23.2953 135.845 23.908C135.437 24.5211 135.082 25.1665 134.777 25.8446L129.711 23.1521C129.918 22.6197 130.268 21.9441 130.761 21.1242C131.253 20.305 131.934 19.4947 132.803 18.6933C133.671 17.893 134.743 17.2373 136.02 16.7276C137.295 16.2187 138.806 16.0065 140.55 16.0929C142.264 16.1778 143.79 16.5475 145.13 17.2014C146.468 17.8553 147.514 18.8117 148.266 20.0698C149.017 21.3275 149.344 22.9488 149.246 24.9333C149.164 26.5873 148.872 27.9144 148.371 28.9141C147.869 29.9142 147.269 30.7515 146.573 31.425C145.877 32.0991 145.18 32.7655 144.485 33.4241C143.948 33.9102 143.432 34.4497 142.936 35.0429C142.438 35.6364 142.035 36.3319 141.724 37.1305C141.413 37.929 141.23 38.8996 141.173 40.0422L141.126 40.9893L134.812 40.6766ZM137.498 50.3497C136.415 50.296 135.542 49.9591 134.88 49.3386C134.217 48.7177 133.91 47.927 133.958 46.9642C134.004 46.0324 134.396 45.2679 135.134 44.6712C135.871 44.0749 136.767 43.8026 137.819 43.8545C138.871 43.9068 139.721 44.2654 140.366 44.9299C141.011 45.5949 141.31 46.3938 141.264 47.3257C141.217 48.2884 140.847 49.0458 140.157 49.5995C139.466 50.1535 138.58 50.4034 137.498 50.3497Z" fill="white"/>
<path d="M91.7793 81.3071C102.899 79.6833 110.596 69.3529 108.973 58.2336C107.349 47.1142 97.0184 39.4165 85.899 41.0403C74.7796 42.6641 67.082 52.9945 68.7058 64.1139C70.3296 75.2332 80.6599 82.9309 91.7793 81.3071Z" fill="#0A2A6B"/>
<path d="M95.0094 80.7351C106.704 77.1218 113.495 65.4893 110.177 54.7531C106.86 44.0169 94.6908 38.2427 82.9965 41.856C71.3023 45.4693 64.5114 57.1018 67.8287 67.838C71.146 78.5742 83.3152 84.3484 95.0094 80.7351Z" stroke="#0A2A6B" stroke-width="1.1674" stroke-miterlimit="10"/>
<path d="M89.4395 80.5545L95.215 87.7317L94.5077 78.9883L89.4395 80.5545Z" fill="#0A2A6B"/>
<path d="M87.8193 67.9957L87.5772 66.0687C87.4251 64.8568 87.4489 63.8262 87.6505 62.9757C87.8513 62.126 88.1516 61.3804 88.5514 60.7389C88.9508 60.0978 89.3638 59.5167 89.791 58.995C90.3696 58.3073 90.8757 57.6342 91.31 56.976C91.7446 56.3185 91.9006 55.5046 91.7787 54.5351C91.7119 54.0024 91.5218 53.5702 91.2097 53.2401C90.8973 52.9099 90.5402 52.6657 90.1389 52.5069C89.737 52.3484 89.3546 52.2915 88.991 52.337C88.2877 52.4255 87.7208 52.6629 87.2894 53.0492C86.8579 53.4359 86.5224 53.9029 86.2836 54.4498C86.0441 54.9971 85.8511 55.5629 85.7029 56.1479L84.7128 56.2723L81.2754 54.71C81.366 54.2554 81.5505 53.6662 81.8287 52.9415C82.107 52.2176 82.5367 51.4741 83.1181 50.7114C83.6992 49.9495 84.4636 49.2746 85.4118 48.6875C86.3597 48.1011 87.5367 47.7187 88.9427 47.542C90.3241 47.3686 91.5957 47.4489 92.7585 47.783C93.9207 48.1171 94.8909 48.734 95.6685 49.6335C96.4461 50.533 96.9358 51.7826 97.1366 53.3822C97.304 54.7157 97.2578 55.817 96.9977 56.6867C96.7375 57.5567 96.3764 58.3101 95.9151 58.9463C95.4535 59.5831 94.9908 60.2136 94.5277 60.8377C94.167 61.3018 93.8304 61.8058 93.5173 62.3495C93.2035 62.8936 92.9792 63.5063 92.8435 64.1883C92.7074 64.87 92.6974 65.6718 92.8129 66.5926L92.9089 67.356L87.8193 67.9957ZM91.3281 75.3477C90.4556 75.4572 89.7103 75.3111 89.0941 74.9084C88.4767 74.5058 88.1199 73.9169 88.0226 73.1411C87.928 72.3901 88.1334 71.7238 88.6395 71.143C89.1449 70.5627 89.8219 70.219 90.6706 70.1124C91.5186 70.0058 92.2478 70.1728 92.857 70.6135C93.4661 71.0542 93.8183 71.6502 93.9125 72.4015C94.0099 73.1777 93.8212 73.8348 93.3478 74.3743C92.8737 74.9134 92.2009 75.2379 91.3281 75.3477Z" fill="#55A3F3"/>
<path d="M86.829 68.1214L86.587 66.1944C86.4349 64.9825 86.4587 63.9519 86.6602 63.1014C86.861 62.2517 87.1613 61.5061 87.5611 60.8646C87.9606 60.2235 88.3736 59.6424 88.8008 59.1207C89.3793 58.433 89.8854 57.7599 90.3197 57.1017C90.7544 56.4442 90.9104 55.6303 90.7885 54.6608C90.7217 54.1281 90.5315 53.6959 90.2195 53.3658C89.9067 53.0356 89.5503 52.7915 89.1487 52.6322C88.7467 52.4737 88.3647 52.4169 88.0008 52.4624C87.2974 52.5509 86.7306 52.7879 86.2991 53.1746C85.8677 53.5612 85.5322 54.0282 85.2934 54.5752C85.0538 55.1225 84.8609 55.6883 84.7127 56.2733L80.2852 54.835C80.3758 54.3804 80.5602 53.7912 80.8385 53.0665C81.1168 52.3426 81.5464 51.5991 82.1279 50.8364C82.7089 50.0745 83.4734 49.3996 84.4219 48.8125C85.3694 48.2261 86.5468 47.8437 87.9528 47.667C89.3342 47.4936 90.6058 47.5739 91.7687 47.908C92.9308 48.2421 93.901 48.8587 94.6786 49.7585C95.4566 50.658 95.946 51.9072 96.1468 53.5072C96.3141 54.8407 96.2679 55.942 96.0078 56.8117C95.7477 57.6817 95.3866 58.4351 94.9253 59.0713C94.4636 59.7081 94.0009 60.3386 93.5378 60.963C93.1771 61.4272 92.8405 61.9311 92.5274 62.4749C92.214 63.019 91.9894 63.6317 91.8536 64.3137C91.7175 64.9953 91.7075 65.7971 91.8234 66.7183L91.9193 67.4817L86.829 68.1214ZM90.3378 75.4731C89.4653 75.5829 88.7204 75.4365 88.1038 75.0338C87.4865 74.6311 87.13 74.0423 87.0323 73.2664C86.9378 72.5155 87.1432 71.8491 87.6493 71.2684C88.1546 70.688 88.8317 70.3444 89.6804 70.2378C90.5283 70.1311 91.2576 70.2982 91.8667 70.7385C92.4759 71.1792 92.8281 71.7752 92.9223 72.5265C93.0196 73.3027 92.8309 73.9598 92.3575 74.4993C91.8835 75.0388 91.2103 75.3636 90.3378 75.4731Z" fill="white"/>
<path d="M36.1373 171.483L21.3675 162.123L25.7054 153.266L15.168 149.301L7.76367 165.879C7.76367 165.879 18.2311 170.649 25.4836 173.393C32.7362 176.137 37.9555 176.29 37.9555 176.29L36.1373 171.483Z" fill="#FF8775"/>
<path d="M81.4504 162.762L83.8074 178.633H36.0605L39.6568 165.743L81.4504 162.762Z" fill="#0A2A6B"/>
<path d="M43.8151 96.4197V113.528L39.6562 115.583C39.6562 115.583 47.1696 128.843 53.6716 124.628C60.1732 120.414 60.0704 113.116 60.0704 113.116L55.0338 112.911L54.6226 106.949L46.5026 95.1289L43.8151 96.4197Z" fill="#FF8775"/>
<path d="M44.1459 81.1636C43.3015 83.7168 43.1458 86.4906 43.2254 89.2105C43.3829 94.6011 45.1737 100.029 47.5872 104.703C48.2177 105.925 48.9445 107.101 49.8756 108.054C52.5044 110.747 57.3616 111.362 60.4503 109.366C61.5567 108.652 62.5049 107.666 63.3557 106.602C65.6995 103.671 66.3218 99.7216 66.9836 95.5781C67.6467 91.4267 68.3465 87.0806 67.7384 83.2064C67.393 81.0055 66.3403 80.0679 65.1646 78.2583C63.4758 75.6593 60.6849 74.1066 57.8293 73.7032C54.898 73.2888 51.9536 74.0746 49.1634 75.0252C46.7396 75.8512 44.9839 78.63 44.1459 81.1636Z" fill="#FF8775"/>
<path d="M45.8346 81.1727C47.2114 86.1913 46.7106 91.7017 44.4518 96.39C42.3819 95.3725 40.4806 93.7121 39.3902 91.68C38.2999 89.6478 37.7302 87.3687 37.4587 85.0785C37.2628 83.4274 37.2294 81.6898 37.91 80.173C38.5909 78.6558 40.1547 77.4301 41.8076 77.6106C42.0205 75.641 43.4627 73.7642 45.0705 72.607C46.6779 71.4495 48.6262 70.8461 50.583 70.5376C56.2555 69.643 62.2712 71.1926 66.8057 74.7163C67.9675 75.619 69.0628 76.6838 69.6361 78.0385C70.2093 79.3933 70.1613 81.0896 69.2021 82.2048C68.0645 83.5272 66.1017 83.6669 64.3577 83.7085C57.7581 83.8645 51.8013 83.9978 45.8346 81.1727Z" fill="#0A2A6B"/>
<path d="M38.9655 93.5458C39.1759 95.0199 40.0452 96.3875 41.2908 97.2035C41.6807 97.459 42.1171 97.6655 42.582 97.6989C43.6304 97.7743 44.5782 96.9156 44.8981 95.9145C45.2179 94.9133 45.0328 93.8191 44.715 92.8172C44.3046 91.5218 43.5163 90.1624 42.1932 89.8529C40.0604 89.3535 38.7053 91.7194 38.9655 93.5458Z" fill="#FF8775"/>
<path d="M43.8157 96.4187C43.3573 96.2794 42.9397 96.0089 42.6251 95.6475C42.5619 95.575 42.5008 95.4943 42.4851 95.3994C42.4553 95.2178 42.5964 95.0575 42.7268 94.9278C42.9905 94.6655 43.2545 94.4029 43.5182 94.1406C43.5708 94.0884 43.6256 94.0326 43.6458 93.9611C43.6679 93.8826 43.6444 93.7987 43.621 93.7205C43.3224 92.723 42.9688 91.6475 42.1091 91.0594C41.877 90.9005 41.6077 90.7832 41.3265 90.7775C40.9093 90.7697 40.518 91.0121 40.2504 91.3327C39.9828 91.6532 39.8197 92.0459 39.6679 92.4347C39.6679 92.4347 39.4469 94.5707 40.9299 95.8572C42.4133 97.1437 43.8157 96.4187 43.8157 96.4187Z" fill="#FF8775"/>
<path d="M39.668 92.4363C39.781 92.0205 39.9281 91.6043 40.1996 91.2383C40.4736 90.8868 40.9108 90.5918 41.4201 90.6234C41.9226 90.6597 42.3263 90.9497 42.6494 91.2695C42.9728 91.6018 43.202 92.0027 43.3818 92.4082C43.5574 92.8183 43.6853 93.2377 43.8048 93.6532C43.8186 93.7047 43.8385 93.7676 43.8449 93.8501C43.8542 93.9289 43.8314 94.0441 43.7824 94.1173C43.6811 94.2637 43.6064 94.305 43.529 94.387L43.057 94.8281C42.9035 94.9766 42.7183 95.1185 42.6412 95.2535C42.6032 95.3235 42.595 95.3779 42.6259 95.4504C42.6568 95.5225 42.73 95.6064 42.7958 95.6846C43.0613 96.0055 43.4181 96.2493 43.8147 96.4199C43.3882 96.3385 42.9863 96.1221 42.6504 95.8267C42.5691 95.7493 42.4873 95.6789 42.4152 95.5609C42.3384 95.4443 42.3352 95.2592 42.3953 95.1376C42.4496 95.0104 42.5317 94.9187 42.6078 94.8356L42.8288 94.5985L43.2727 94.129C43.342 94.0544 43.4408 93.9613 43.4565 93.9254C43.4682 93.9094 43.4654 93.8767 43.4288 93.7658C43.2994 93.3578 43.1718 92.9527 43.0019 92.5738C42.8409 92.1911 42.6348 91.8335 42.3654 91.5389C42.101 91.2447 41.7556 90.9994 41.3906 90.9443C41.0266 90.8925 40.6346 91.0815 40.3521 91.3712C40.0553 91.6594 39.8663 92.0542 39.668 92.4363Z" fill="#0A2A6B"/>
<path d="M41.7415 114.55C41.7415 114.55 26.6646 121.542 24.1978 123.906C21.731 126.27 8.88281 147.033 8.88281 147.033C8.88281 147.033 12.9183 151.659 17.633 153.509C22.3476 155.359 27.487 155.462 27.487 155.462L33.0375 143.641L39.6564 165.74C39.6564 165.74 50.3058 173.552 64.0791 171.702C77.8524 169.852 81.4501 162.76 81.4501 162.76L78.7775 143.783C78.7775 143.783 83.9168 142.511 87.3087 139.838C90.7006 137.166 94.7094 132.129 94.7094 132.129C94.7094 132.129 78.3663 116.609 76.6192 114.656C74.8717 112.703 58.4244 113.047 58.4244 113.047C58.4244 113.047 59.0424 119.178 54.1089 120.206C49.1749 121.234 41.7415 114.55 41.7415 114.55Z" fill="#55A3F3"/>
<path d="M54.862 110.416C53.0381 110.041 51.3621 109.126 49.9359 107.929C48.654 106.853 47.6297 105.509 46.6172 104.176C46.9904 105.01 47.2356 105.635 47.725 106.407C48.5456 107.701 49.4905 108.934 50.6751 109.905C51.8596 110.877 53.4297 111.67 54.9569 111.794" fill="#0A2A6B"/>
<path d="M55.9363 91.4712C55.9363 92.193 55.5357 92.7783 55.0414 92.7783C54.547 92.7783 54.1465 92.193 54.1465 91.4712C54.1465 90.7494 54.547 90.1641 55.0414 90.1641C55.5357 90.1641 55.9363 90.7494 55.9363 91.4712Z" fill="#0A2A6B"/>
<path d="M64.9675 91.4712C64.9675 92.193 64.567 92.7783 64.0726 92.7783C63.5786 92.7783 63.1777 92.193 63.1777 91.4712C63.1777 90.7494 63.5783 90.1641 64.0726 90.1641C64.567 90.1641 64.9675 90.7494 64.9675 91.4712Z" fill="#0A2A6B"/>
<path d="M60.5313 89.7852C60.9137 90.4686 61.2321 91.1907 61.4926 91.9328C61.7535 92.6752 61.9618 93.4368 62.1178 94.2098C62.2781 94.9821 62.3772 95.7671 62.4284 96.5554C62.4742 97.3444 62.4668 98.1383 62.3779 98.9266L62.3577 99.105L62.1867 99.1011C61.5275 99.0858 60.8682 99.0659 60.2086 99.0343C59.5493 99.0012 58.8901 98.965 58.2305 98.9092C58.8897 98.8538 59.549 98.8172 60.2086 98.7841C60.8678 98.7525 61.5271 98.7326 62.1867 98.7173L61.9959 98.8918C62.094 97.3558 61.9777 95.8073 61.7226 94.283C61.5936 93.5207 61.4311 92.763 61.2335 92.0128C61.0345 91.2625 60.8064 90.5187 60.5313 89.7852Z" fill="#0A2A6B"/>
<path d="M60.0778 104.64C60.9978 104.64 61.7436 104.322 61.7436 103.93C61.7436 103.537 60.9978 103.219 60.0778 103.219C59.1579 103.219 58.4121 103.537 58.4121 103.93C58.4121 104.322 59.1579 104.64 60.0778 104.64Z" fill="#0A2A6B"/>
<path d="M51.0547 89.2739C51.3077 88.6086 51.7328 88.0052 52.2364 87.4707C52.7499 86.9436 53.3626 86.5054 54.0375 86.176C54.373 86.0111 54.7138 85.8454 55.0685 85.71C55.4235 85.5768 55.7981 85.5082 56.1738 85.5078C56.924 85.5146 57.6753 85.6745 58.3314 86.1333L58.3175 86.2748C57.5979 86.5996 56.9592 86.7563 56.3351 86.9201C56.0242 86.9983 55.7164 87.0484 55.3994 87.0776C55.0824 87.1046 54.7615 87.1455 54.454 87.234C54.1473 87.3203 53.8449 87.4309 53.551 87.5645C53.2535 87.6924 52.9639 87.8442 52.6867 88.0204C52.1202 88.3602 51.6173 88.8119 51.178 89.3447L51.0547 89.2739Z" fill="#0A2A6B"/>
<path d="M66.9257 89.3446C66.5415 88.8378 66.1069 88.3928 65.6072 88.0485C65.1171 87.6966 64.5851 87.4237 64.0374 87.2346C63.7623 87.1404 63.4723 87.0921 63.1862 87.0587C62.9005 87.0224 62.624 86.9709 62.3447 86.892C62.065 86.8135 61.7789 86.7324 61.481 86.6326C61.1825 86.537 60.874 86.4332 60.54 86.2758L60.5254 86.1421C60.8232 85.9157 61.1502 85.7779 61.4871 85.6869C61.8247 85.5909 62.1741 85.5529 62.5241 85.5593C62.8742 85.5653 63.2221 85.6414 63.548 85.7775C63.8736 85.9168 64.182 86.0863 64.4852 86.2566C65.0936 86.5967 65.6306 87.0409 66.0674 87.5584C66.4949 88.0829 66.8436 88.6615 67.0451 89.2831L66.9257 89.3446Z" fill="#0A2A6B"/>
<path d="M39.6562 115.581C39.6562 115.581 47.6022 123.421 54.9567 121.771C62.3208 120.119 60.6686 113.023 60.6686 113.023" stroke="#0A2A6B" stroke-miterlimit="10"/>
<path d="M78.942 144.506C78.7526 142.667 78.5596 140.831 78.3303 139C78.1004 137.17 77.8598 135.34 77.5598 133.52C77.2883 131.695 76.9599 129.88 76.6188 128.066C76.4489 127.159 76.2687 126.254 76.0825 125.35L75.5195 122.637C75.7832 123.523 76.016 124.417 76.2524 125.311C76.4734 126.209 76.6838 127.109 76.8867 128.012C77.2844 129.818 77.611 131.64 77.911 133.465C78.1821 135.295 78.4288 137.129 78.6012 138.97C78.7742 140.812 78.899 142.657 78.942 144.506Z" fill="#0A2A6B"/>
<path d="M92.8542 130.367C92.8542 130.367 90.0796 135.058 86.9074 137.305C83.7351 139.552 78.7188 141.534 78.7188 141.534" stroke="#0A2A6B" stroke-miterlimit="10"/>
<path d="M32.6262 144.309C33.1266 142.811 33.5431 141.289 33.8058 139.741C34.0673 138.195 34.1985 136.625 34.1043 135.063C34.0385 133.502 33.7446 131.952 33.2499 130.468C33.0047 129.725 32.7001 129 32.3373 128.305C31.9844 127.603 31.5607 126.938 31.0938 126.301C31.624 126.888 32.0814 127.54 32.4897 128.221C32.8885 128.908 33.2265 129.631 33.5076 130.376C34.0656 131.87 34.3641 133.455 34.4586 135.045C34.5247 136.638 34.3957 138.236 34.073 139.792C33.7517 141.347 33.2638 142.863 32.6262 144.309Z" fill="#0A2A6B"/>
<path d="M9.98633 145.266C9.98633 145.266 12.4247 148.607 17.7119 151.184C22.9991 153.762 28.502 153.307 28.502 153.307" stroke="#0A2A6B" stroke-miterlimit="10"/>
<g opacity="0.31">
<path d="M42.1094 76.0391C42.6599 76.3504 43.2271 76.6276 43.8146 76.8547C44.4049 77.0729 45.0058 77.2616 45.6207 77.3938C46.8457 77.6735 48.102 77.8018 49.358 77.8221C51.8738 77.8768 54.379 77.5356 56.8959 77.2748C58.1561 77.1571 59.4228 77.0619 60.6947 77.0558C61.3302 77.0544 61.967 77.0683 62.6018 77.1216C63.2365 77.1653 63.8723 77.2492 64.4964 77.3935C65.7363 77.6732 66.977 78.2087 67.8516 79.1722C68.2788 79.6531 68.6108 80.2192 68.7938 80.8333C68.9868 81.4435 68.9981 82.1088 68.8197 82.7155C69.1105 81.4666 68.5862 80.1677 67.7241 79.2909C66.8597 78.3907 65.6532 77.9013 64.4388 77.6607C61.9756 77.2058 59.4317 77.3746 56.9307 77.628C54.4217 77.858 51.8955 78.2077 49.3498 78.094C48.0807 78.0403 46.8112 77.88 45.5798 77.5619C44.3519 77.2339 43.1645 76.7395 42.1094 76.0391Z" fill="white"/>
<path d="M44.6797 72.9444C45.0919 73.0798 45.511 73.1875 45.9339 73.2706C46.3586 73.3467 46.7868 73.3943 47.2161 73.4188C48.0751 73.4693 48.9366 73.4242 49.7899 73.3165C51.4986 73.1043 53.1725 72.6658 54.8656 72.2784C56.5602 71.9209 58.3037 71.6006 60.0608 71.7275C60.9351 71.7929 61.8044 71.9518 62.6321 72.2404C63.4537 72.5421 64.2328 72.9696 64.8803 73.5503C64.5302 73.2937 64.161 73.0681 63.7779 72.8726C63.3901 72.6842 62.9882 72.5307 62.5777 72.406C61.7564 72.1565 60.902 72.0317 60.0462 72.0005C58.3304 71.9326 56.6241 72.2421 54.9421 72.6253C53.2525 72.981 51.5626 73.4299 49.819 73.5869C48.9494 73.6634 48.0719 73.679 47.2019 73.5916C46.3348 73.4906 45.4754 73.2934 44.6797 72.9444Z" fill="white"/>
<path d="M44.1584 80.8867C44.2668 81.3093 44.2522 81.7596 44.1805 82.1942C44.098 82.6285 43.9487 83.0479 43.7693 83.4495C43.4075 84.2527 42.8961 84.9833 42.3068 85.6373C41.7041 86.2791 41.0189 86.8481 40.253 87.2803C39.4953 87.7238 38.6676 88.0422 37.8164 88.2128C38.2191 88.049 38.6217 87.8969 38.9999 87.6911C39.3841 87.5006 39.7572 87.2899 40.1087 87.0478C40.8184 86.5744 41.4695 86.0204 42.0452 85.3967C42.6196 84.7719 43.1182 84.0767 43.5251 83.3286C43.7277 82.9551 43.8979 82.5638 44.0116 82.1548C44.1364 81.7486 44.1872 81.3203 44.1584 80.8867Z" fill="white"/>
<path d="M40.9422 79.0117C40.7951 79.9763 40.3317 80.8907 39.6945 81.6423C39.0551 82.3929 38.2263 82.9964 37.2984 83.3095L37.1836 83.3482L37.2373 83.2498C37.2966 83.141 37.3606 83.0341 37.4267 82.9278C37.3943 83.0483 37.3599 83.1681 37.3211 83.286L37.26 83.2263C38.0799 82.7238 38.8109 82.1232 39.4283 81.4128C40.0481 80.7041 40.5435 79.8967 40.9422 79.0117Z" fill="white"/>
</g>
<path d="M37.4241 176.256C37.4241 176.256 39.2978 175.86 40.0921 175.267C40.8867 174.673 41.6174 173.757 41.7265 172.771C42.7447 172.898 43.4992 173.758 44.43 174.189C44.537 174.239 44.6628 174.283 44.7691 174.232C44.9421 174.148 44.9244 173.898 44.87 173.714C44.291 171.756 42.5116 170.14 40.489 169.857C41.477 169.994 42.4842 170.138 43.3798 170.577C44.0064 170.885 44.5782 171.336 45.2623 171.473C45.3313 171.487 45.4077 171.496 45.467 171.459C45.5296 171.42 45.5541 171.341 45.5612 171.267C45.5978 170.887 45.3036 170.561 45.0175 170.308C43.4768 168.94 41.6089 168.072 39.5711 167.773C41.5947 167.398 43.7462 167.757 45.5388 168.768C45.7212 168.871 45.9099 168.983 46.1188 168.992C46.3282 169.001 46.5606 168.862 46.5723 168.653C46.5773 168.565 46.5435 168.48 46.5066 168.4C46.1409 167.607 45.424 167.031 44.6695 166.592C42.7668 165.484 40.4542 164.995 38.2881 165.391C40.2445 164.636 42.4586 164.571 44.4563 165.208C45.005 165.382 45.542 165.61 46.1117 165.693C46.1778 165.703 46.2525 165.708 46.304 165.666C46.3961 165.59 46.3399 165.442 46.2745 165.343C45.4045 164.024 43.9296 163.157 42.3723 162.89C40.8149 162.624 39.0362 162.606 37.8069 163.598C37.8069 163.598 37.1782 164.93 36.9141 166.573C36.6501 168.215 36.1376 171.482 36.1376 171.482L34.5781 171.56L37.1114 176.23L37.4241 176.256Z" fill="#FF8775"/>
<path d="M90.9692 136.41C90.9692 136.41 89.6937 137.905 87.1825 139.753C85.5267 140.972 83.1111 142.268 83.1111 142.268L91.9121 154.051L85.1408 165.637C85.1408 165.637 83.9974 162.591 83.4167 161.061C82.836 159.53 81.9653 158.372 81.9653 158.372C80.5835 157.66 78.873 158.031 77.4255 158.597C75.978 159.164 74.7288 160.292 74.1527 161.736C74.1093 161.845 74.0844 161.999 74.1886 162.053C74.2056 162.062 74.2234 162.066 74.2419 162.068C74.5344 162.092 74.8134 161.943 75.0515 161.772C76.9937 160.37 79.5006 159.803 81.8583 160.194C79.2718 160.253 76.7346 161.57 75.0699 163.519C74.7369 163.908 74.4978 164.396 74.5138 164.909C74.5145 164.934 74.5177 164.96 74.5244 164.985C74.5774 165.184 74.829 165.271 75.0287 165.221C75.2285 165.171 75.388 165.025 75.5433 164.89C77.0697 163.56 79.0717 162.786 81.096 162.745C79.1918 163.439 77.5645 164.646 76.3515 166.27C76.1265 166.571 75.9073 166.943 76.0181 167.303C76.0395 167.372 76.0789 167.444 76.1468 167.469C76.2115 167.493 76.2836 167.469 76.3472 167.442C76.9795 167.174 77.4404 166.625 77.9831 166.205C78.7586 165.603 79.7007 165.265 80.6255 164.936C78.7326 165.611 77.3391 167.521 77.1707 169.524C77.1547 169.712 77.1874 169.957 77.3708 170.002C77.4831 170.03 77.5957 169.963 77.6888 169.894C78.4999 169.293 79.0557 168.314 80.0121 167.99C80.3134 168.919 81.1994 169.656 82.0829 170.07C82.9664 170.484 83.8492 170.48 83.8492 170.48L83.8631 170.48C85.5566 170.412 87.1701 169.74 88.4104 168.585L103.479 151.937L90.9692 136.41Z" fill="#FF8775"/>
<path d="M90.4277 156.591C90.8602 155.646 91.3692 154.737 91.9239 153.856C92.4801 152.975 93.0982 152.13 93.8061 151.351C94.1597 150.964 94.5617 150.607 94.9928 150.3C95.4239 149.999 95.8724 149.724 96.3422 149.491C97.2762 149.02 98.2642 148.646 99.2909 148.469C98.7962 148.626 98.3129 148.811 97.8448 149.028C97.3732 149.235 96.9137 149.468 96.4709 149.728C95.5831 150.249 94.7383 150.825 94.0613 151.59C93.3523 152.327 92.7449 153.164 92.1468 154.004C91.845 154.423 91.5579 154.853 91.275 155.287C90.9825 155.715 90.7085 156.154 90.4277 156.591Z" fill="#0A2A6B"/>
<path d="M23.9105 163.735L22.8632 163.139C22.5166 162.938 22.1684 162.741 21.8172 162.548C21.4604 162.359 21.1253 162.15 20.7642 162.008C20.4042 161.856 20.0335 161.724 19.6515 161.627C18.8927 161.414 18.1073 161.291 17.3186 161.213C16.5279 161.14 15.7307 161.135 14.9297 161.214C15.3164 161.099 15.7169 161.037 16.1192 160.983C16.5226 160.95 16.9284 160.931 17.3343 160.94C18.1464 160.955 18.957 161.072 19.746 161.284C20.1398 161.392 20.5268 161.531 20.9014 161.701C21.2795 161.874 21.626 162.095 21.958 162.315C22.6318 162.755 23.295 163.214 23.9105 163.735Z" fill="#0A2A6B"/>
<path d="M113.141 128.905C113.141 128.905 110.984 124.462 109.521 123.391C108.058 122.321 104.503 121.09 103.823 121.116C103.144 121.142 103.511 122.519 103.803 122.786C104.095 123.054 106.171 124.472 106.171 124.472C106.171 124.472 102.706 123.242 101.917 122.621C101.127 122.001 96.5776 117.532 96.074 117.696C95.5704 117.859 96.0204 119.698 96.7191 120.487C97.4178 121.277 101.557 124.993 101.557 124.993C101.557 124.993 94.6951 119.445 94.2206 119.643C93.7462 119.841 93.3204 123.332 95.2424 125.461C97.1644 127.589 100.289 129.358 101.5 129.746C102.711 130.134 106.693 130.768 106.693 130.768L108.16 132.311L113.141 128.905Z" fill="#FF8775"/>
<path d="M106.161 124.449C106.269 125.175 106.438 125.864 106.713 126.517C106.983 127.173 107.352 127.779 107.79 128.367C107.186 127.942 106.732 127.314 106.444 126.629C106.162 125.942 106.037 125.177 106.161 124.449Z" fill="#0A2A6B"/>
<path d="M94.3242 123.751C94.3235 123.565 94.5293 123.44 94.7123 123.45C94.9046 123.461 95.0634 123.578 95.1967 123.688C95.4565 123.916 95.7135 124.14 95.9782 124.358C96.507 124.793 97.0387 125.223 97.5875 125.63C98.1316 126.044 98.6934 126.434 99.2592 126.819C99.8268 127.202 100.408 127.566 100.991 127.935C100.352 127.674 99.7376 127.356 99.1398 127.01C98.5403 126.666 97.9667 126.277 97.4122 125.864C96.8617 125.446 96.3279 125.005 95.8297 124.525C95.5812 124.286 95.3364 124.04 95.0997 123.793C94.9863 123.671 94.8609 123.557 94.7052 123.527C94.5577 123.503 94.3576 123.573 94.3242 123.751Z" fill="#0A2A6B"/>
<path d="M93.8594 121.814C93.9031 121.633 93.9614 121.448 94.0929 121.297C94.1568 121.222 94.2496 121.16 94.3573 121.142C94.4639 121.123 94.5776 121.154 94.6668 121.205C94.8452 121.315 94.9661 121.453 95.1093 121.572L95.5308 121.937C96.0955 122.421 96.6666 122.897 97.2591 123.348C97.837 123.816 98.4361 124.259 99.0286 124.712C99.6207 125.165 100.217 125.615 100.796 126.091C100.148 125.715 99.5194 125.311 98.8978 124.894C98.2762 124.478 97.6752 124.031 97.0789 123.577C96.4975 123.104 95.9178 122.626 95.3805 122.103L94.9828 121.705C94.8492 121.574 94.7255 121.423 94.5918 121.326C94.4611 121.221 94.2773 121.225 94.1476 121.351C94.0175 121.471 93.9315 121.643 93.8594 121.814Z" fill="#0A2A6B"/>
<path d="M106.693 130.77L117.592 166.504L123.739 153.935L113.141 128.906L106.693 130.77Z" fill="#FF8775"/>
<path d="M138.497 99.067C138.497 99.067 145.179 91.4772 144.66 86.4598C144.437 84.3011 143.847 82.1805 142.922 80.2173C142.284 78.8628 141.464 77.5564 140.29 76.6274C138.794 75.444 136.872 74.9795 135.027 74.4929C132.311 73.7768 129.524 72.9391 126.743 73.3301C124.679 73.6201 122.726 74.4826 120.877 75.4457C118.549 76.6587 117.642 79.0135 116.784 81.4949C115.927 83.9763 115.401 86.5902 115.393 89.2155C115.39 90.2404 115.407 91.2828 115.124 92.268C114.675 93.8328 111.697 96.2686 111.697 96.2686C111.697 96.2686 113.727 97.3345 114.738 97.5516C115.125 98.8818 115.432 100.023 115.772 101.145C115.812 101.142 115.852 101.137 115.894 101.137C116.532 101.137 117.436 101.477 117.436 101.886C117.436 102.218 116.705 102.488 116.234 102.581C116.49 103.332 116.778 104.103 117.136 104.947C117.406 105.584 118.342 107.252 118.91 107.646C119.486 108.045 120.232 108.093 120.933 108.077C122.974 108.029 125.004 107.547 126.848 106.672C126.995 107.548 126.983 108.242 127.062 109.127C127.123 109.809 127.164 110.5 127.059 111.177C126.825 112.686 125.902 113.986 125.005 115.222C127.082 116.12 129.386 115.914 131.623 115.572C134.091 115.193 136.735 114.599 138.376 112.716C139.003 112.73 138.807 112.606 138.997 112.009C139.187 111.412 139.135 110.143 139.135 110.143L138.497 99.067Z" fill="#FF8775"/>
<path d="M139.136 110.145C139.136 110.145 136.008 112.817 131.992 113.912C127.977 115.007 125.654 114.309 125.654 114.309C125.654 114.309 119.704 123.288 118.752 135.95C117.8 148.611 116.373 178.633 116.373 178.633H123.829H157.619L148.988 135.286L156.984 131.637C156.984 131.637 153.635 123.45 150.371 118.226C146.15 111.471 139.136 110.145 139.136 110.145Z" fill="#0A2A6B"/>
<path d="M152.743 133.57L141.711 138.504L147.227 155.39L138.16 178.632H145.452L156.886 154.647L152.743 133.57Z" fill="#FF8775"/>
<path d="M141.714 138.502L139.382 139.683C138.605 140.077 137.825 140.464 137.042 140.847L136.941 140.897L136.898 140.791C136.118 138.847 135.381 136.887 134.705 134.905C134.024 132.925 133.369 130.933 132.858 128.896C132.593 127.881 132.371 126.849 132.229 125.805C132.085 124.76 132.038 123.707 132.039 122.657C132.049 120.557 132.267 118.46 132.709 116.414C132.383 118.481 132.243 120.572 132.279 122.655C132.299 123.696 132.391 124.735 132.533 125.763C132.681 126.79 132.909 127.805 133.181 128.812C133.718 130.826 134.352 132.818 135.011 134.8C135.342 135.792 135.689 136.777 136.037 137.763C136.38 138.75 136.732 139.735 137.096 140.714L136.951 140.657C137.741 140.289 138.534 139.928 139.329 139.571L141.714 138.502Z" fill="white"/>
<path d="M126.678 106.726C128.18 105.754 129.489 104.484 130.507 103.012C129.824 105.002 128.491 107.107 127.026 108.616L126.678 106.726Z" fill="#0A2A6B"/>
<path d="M119.14 91.6987C119.14 92.3391 118.794 92.8584 118.367 92.8584C117.94 92.8584 117.594 92.3391 117.594 91.6987C117.594 91.0583 117.94 90.5391 118.367 90.5391C118.794 90.5391 119.14 91.0583 119.14 91.6987Z" fill="#0A2A6B"/>
<path d="M121.597 90.706C121.308 90.2017 120.96 89.7468 120.543 89.3754C120.134 88.9991 119.676 88.6924 119.191 88.4692C118.699 88.2442 118.166 88.2055 117.672 88.0392C117.166 87.8807 116.649 87.7538 116.035 87.5587L116.018 87.4535C116.552 87.064 117.216 86.9463 117.856 86.9886C118.51 87.0231 119.09 87.3778 119.611 87.7264C120.14 88.0768 120.592 88.5225 120.946 89.0257C121.292 89.5339 121.561 90.0869 121.696 90.6669L121.597 90.706Z" fill="#0A2A6B"/>
<path d="M141.094 102.631C141.112 103.014 141.346 103.347 141.489 103.702C141.632 104.057 141.653 104.532 141.343 104.756C141.14 104.903 140.865 104.89 140.616 104.854C137.937 104.476 135.647 102.176 135.281 99.4951C135.307 99.9276 135.332 100.36 135.357 100.793C135.368 100.973 135.373 101.171 135.261 101.313C135.134 101.474 134.9 101.503 134.697 101.473C133.951 101.362 133.442 100.678 133.048 100.036C130.72 96.2479 127.443 93.7733 127.443 93.7733C127.443 93.7733 125.295 89.0632 129.15 83.5869C127.556 84.8418 125.689 85.5434 123.688 85.8767C123.446 85.9169 123.192 85.9492 122.959 85.8739C122.725 85.7986 122.518 85.5853 122.53 85.3401C122.538 85.1788 122.635 85.0366 122.732 84.9072C123.258 84.2032 123.88 83.5709 124.575 83.0336C122.061 84.2778 119.024 84.6563 116.221 84.7612C115.842 84.7754 115.342 84.6876 115.293 84.3116C115.27 84.1382 115.365 83.9722 115.464 83.8275C115.781 83.3634 116.179 82.9543 116.633 82.6242C114.877 83.4313 113.097 84.1431 111.272 83.507C110.87 83.367 110.473 83.1455 110.251 82.7827C110.029 82.4198 110.039 81.8914 110.362 81.6152C110.511 81.4887 110.702 81.4286 110.885 81.3608C113.323 80.4556 114.685 77.9376 116.441 76.0185C118.743 73.5019 121.997 71.8792 125.392 71.5547C124.837 71.3518 124.295 70.9861 123.846 70.6008C123.639 70.4228 123.432 70.1943 123.441 69.9213C123.453 69.5112 123.915 69.2866 124.308 69.1704C127.542 68.2151 131.093 68.369 134.232 69.6008C137.371 70.8326 140.078 73.1344 141.8 76.0341C141.757 75.2128 141.706 74.5333 141.663 73.7116C141.64 73.2723 141.697 72.7101 142.117 72.5779C142.397 72.4898 142.692 72.6596 142.907 72.8597C143.872 73.7603 143.973 75.2291 144.01 76.5484C144.807 76.7417 145.518 77.0285 146.19 77.498C146.862 77.9678 147.406 78.663 147.555 79.4693C147.576 79.587 147.579 79.7323 147.479 79.7991C147.411 79.845 147.321 79.834 147.24 79.8208C146.384 79.6804 145.538 79.4818 144.708 79.227C146.792 81.0903 147.6 84.2167 147.374 87.0026C147.148 89.7886 146.01 92.4174 144.711 94.8927C143.412 97.3688 140.967 99.8391 141.094 102.631Z" fill="#0A2A6B"/>
<g opacity="0.29">
<path d="M116.285 82.5213C117.04 82.4432 117.673 81.9847 118.228 81.5042C118.792 81.018 119.306 80.4782 119.812 79.9305C120.823 78.837 121.779 77.6706 122.959 76.7146C124.14 75.761 125.576 75.1156 127.077 74.8665C128.577 74.6131 130.147 74.7304 131.582 75.255L131.391 75.5201C131.203 75.2795 131.043 75.0168 130.917 74.7386C130.854 74.5996 130.8 74.4571 130.754 74.3114C130.711 74.1671 130.661 74.0193 130.659 73.8344C130.651 73.6511 130.751 73.4357 130.911 73.3273C131.067 73.215 131.237 73.1763 131.398 73.1571C131.727 73.1297 132.012 73.172 132.313 73.22C133.508 73.4343 134.551 74.0207 135.58 74.5666C137.638 75.6921 139.552 77.0408 141.444 78.4073C139.481 77.1442 137.528 75.8595 135.463 74.7866C134.426 74.2687 133.38 73.7229 132.26 73.5267C131.987 73.4833 131.687 73.4481 131.434 73.4734C131.307 73.4883 131.184 73.5245 131.103 73.5857C131.023 73.6475 130.984 73.725 130.985 73.8341C130.985 73.9428 131.025 74.0772 131.068 74.2108C131.11 74.3434 131.161 74.4734 131.22 74.5996C131.337 74.8527 131.485 75.0908 131.658 75.3086L132.023 75.7681L131.467 75.5737C130.084 75.0908 128.581 74.9671 127.132 75.196C125.68 75.4245 124.299 76.0347 123.143 76.9463C121.971 77.8479 120.99 78.9838 119.949 80.0581C119.427 80.5958 118.881 81.1136 118.295 81.5831C117.718 82.048 117.046 82.4879 116.285 82.5213Z" fill="white"/>
<path d="M140.453 79.9181C139.182 79.1252 137.709 78.6916 136.237 78.6916C135.502 78.6945 134.77 78.8022 134.057 78.9859C133.345 79.1778 132.65 79.4362 131.972 79.7397C130.606 80.3215 129.288 81.0472 127.913 81.6499C127.228 81.9545 126.539 82.2505 125.845 82.5349C125.147 82.8082 124.449 83.0832 123.74 83.327C124.419 83.0082 125.102 82.7022 125.775 82.3753C126.453 82.059 127.128 81.7363 127.797 81.4026L129.802 80.3975C130.469 80.0581 131.14 79.7184 131.831 79.4138C133.212 78.8253 134.707 78.3586 136.243 78.4194C137.004 78.4524 137.759 78.5935 138.474 78.8437C139.184 79.1053 139.86 79.4582 140.453 79.9181Z" fill="white"/>
<path d="M141.928 81.1094C143.12 82.715 143.682 84.793 143.468 86.8103C143.268 88.8332 142.26 90.7534 140.753 92.1213L140.62 91.822C140.811 91.7996 141.018 91.8672 141.16 91.9844C141.303 92.1017 141.401 92.2481 141.474 92.3981C141.623 92.6952 141.649 93.0439 141.634 93.3452C141.612 93.9675 141.433 94.5639 141.2 95.1197C140.732 96.2364 140.018 97.2002 139.635 98.293C139.247 99.3788 139.245 100.596 139.572 101.713C139.888 102.835 140.543 103.872 141.465 104.618C140.49 103.939 139.775 102.905 139.396 101.767C139.025 100.627 138.985 99.3614 139.36 98.1996C139.743 97.0406 140.462 96.0672 140.894 94.9921C141.113 94.4573 141.271 93.8975 141.285 93.3332C141.296 93.0457 141.267 92.7876 141.155 92.5477C141.047 92.31 140.861 92.138 140.656 92.1636L140.105 92.2329L140.523 91.8643C141.993 90.5707 142.945 88.7223 143.215 86.7797C143.471 84.8318 143.008 82.7879 141.928 81.1094Z" fill="white"/>
<path d="M135.598 100.313C135.071 98.7552 134.749 97.1233 134.638 95.4732C134.525 93.8231 134.65 92.1538 134.998 90.5314C135.374 88.9154 135.98 87.3481 136.84 85.9301C137.272 85.2229 137.76 84.5508 138.303 83.9275C138.855 83.3123 139.451 82.7373 140.108 82.2422C139.504 82.7984 138.937 83.3933 138.437 84.0391C137.928 84.677 137.473 85.3565 137.077 86.068C136.281 87.4875 135.686 89.0196 135.345 90.6089C134.975 92.1932 134.857 93.8302 134.91 95.4593C134.964 97.0906 135.213 98.7161 135.598 100.313Z" fill="white"/>
</g>
<path d="M133.539 92.6671C133.328 94.1413 132.459 95.5089 131.213 96.3248C130.823 96.5804 130.387 96.7869 129.922 96.8203C128.874 96.8956 127.926 96.037 127.606 95.0355C127.286 94.0343 127.471 92.9404 127.789 91.9382C128.199 90.6428 128.988 89.2834 130.311 88.9739C132.444 88.4749 133.799 90.8411 133.539 92.6671Z" fill="#FF8775"/>
<path d="M128.689 95.5398C129.148 95.4005 129.566 95.13 129.88 94.7686C129.943 94.6961 130.004 94.6154 130.02 94.5205C130.05 94.3389 129.909 94.1787 129.778 94.0489C129.515 93.7867 129.251 93.524 128.987 93.2617C128.934 93.2091 128.88 93.1537 128.859 93.0819C128.837 93.0034 128.861 92.9198 128.884 92.8413C129.183 91.8437 129.536 90.7683 130.396 90.1801C130.628 90.0213 130.898 89.904 131.179 89.8986C131.596 89.8905 131.987 90.1332 132.255 90.4534C132.522 90.774 132.686 91.1667 132.837 91.5558C132.837 91.5558 133.058 93.6918 131.575 94.9783C130.092 96.2648 128.689 95.5398 128.689 95.5398Z" fill="#FF8775"/>
<path d="M132.836 91.557C132.637 91.1746 132.448 90.7798 132.151 90.4919C131.869 90.2026 131.477 90.0135 131.113 90.0651C130.748 90.1202 130.403 90.365 130.138 90.6597C129.869 90.9543 129.662 91.3122 129.502 91.6946C129.332 92.0738 129.205 92.4786 129.075 92.8866C129.038 92.9974 129.035 93.0305 129.047 93.0465C129.062 93.0824 129.161 93.1755 129.23 93.2501L129.674 93.7196L129.895 93.9567C129.971 94.0402 130.054 94.1319 130.108 94.2587C130.168 94.3806 130.165 94.5654 130.088 94.682C130.016 94.8 129.934 94.87 129.853 94.9478C129.517 95.2435 129.115 95.4596 128.688 95.541C129.085 95.3704 129.442 95.1263 129.707 94.8057C129.773 94.7275 129.846 94.6436 129.877 94.5715C129.908 94.499 129.9 94.4446 129.862 94.3746C129.785 94.2395 129.6 94.0974 129.446 93.9492L128.974 93.5081C128.897 93.4264 128.822 93.3848 128.721 93.2384C128.672 93.1652 128.649 93.0497 128.658 92.9711C128.665 92.8887 128.685 92.8258 128.698 92.7743C128.817 92.3588 128.945 91.9391 129.121 91.5293C129.301 91.1234 129.53 90.7226 129.853 90.3906C130.177 90.0708 130.581 89.7808 131.083 89.7445C131.592 89.7129 132.029 90.0079 132.303 90.3593C132.575 90.725 132.723 91.1412 132.836 91.557Z" fill="#0A2A6B"/>
<defs>
<clipPath id="clip0_213_1375">
<rect width="178" height="178" fill="white" transform="translate(0 0.632812)"/>
</clipPath>
</defs>
</svg>
