<svg viewBox="0 0 170 135" fill="none" xmlns="http://www.w3.org/2000/svg">
<path opacity="0.9" d="M99.6743 11.1441C80.99 29.4094 71.2171 30.7292 47.5439 40.8335C28.1899 49.0943 9.02553 65.1512 2.48804 85.1583C-14.7342 137.864 61.8148 144.455 97.9591 135.851C123.407 129.793 133.588 115.841 140.031 92.6958C142.537 83.6941 143.269 73.9579 147.397 65.3912C151.832 56.1875 160.914 51.7066 165.435 43.626C187.35 4.45801 124.58 -13.2028 99.6743 11.1441Z" fill="#FFE3E3" fill-opacity="0.56"/>
<path d="M1.44852 132.593L1 119.22L14.3732 118.771L14.8217 132.144L1.44852 132.593ZM2.19665 120.338L2.56754 131.396L13.625 131.025L13.2541 119.968L2.19665 120.338Z" fill="black"/>
<path d="M135.882 48.2502C135.882 50.0016 134.462 51.4218 132.71 51.4218C130.959 51.4218 129.539 50.0017 129.539 48.2502C129.539 46.4987 130.959 45.0786 132.71 45.0786C134.462 45.0786 135.882 46.4987 135.882 48.2502Z" fill="#EC6750"/>
<path d="M155.74 106.967C155.74 108.718 154.32 110.139 152.569 110.139C150.817 110.139 149.397 108.718 149.397 106.967C149.397 105.215 150.817 103.795 152.569 103.795C154.32 103.795 155.74 105.215 155.74 106.967Z" fill="#EC6750"/>
<path d="M32.5762 114.209C32.5762 116.533 30.6921 118.417 28.368 118.417C26.0441 118.417 24.1602 116.533 24.1602 114.209C24.1602 111.885 26.0441 110 28.368 110C30.6921 110 32.5762 111.885 32.5762 114.209Z" fill="#EC6750"/>
<path d="M98.7944 25.389L98.5615 26.2827L107.445 28.5979L107.678 27.7042L98.7944 25.389Z" fill="black"/>
<path d="M103.823 22.4478L101.507 31.3313L102.4 31.5643L104.717 22.6808L103.823 22.4478Z" fill="black"/>
<path d="M138.233 89.9418L138 90.8354L146.883 93.1506L147.116 92.257L138.233 89.9418Z" fill="black"/>
<path d="M143.262 87.0005L140.945 95.884L141.839 96.117L144.155 87.2335L143.262 87.0005Z" fill="black"/>
<path d="M121.85 40.0331C117.793 39.6575 114.798 36.0507 115.173 31.993C115.549 27.9353 119.156 24.9398 123.213 25.3155C127.271 25.6912 130.266 29.2979 129.89 33.3556C129.515 37.4133 125.908 40.4088 121.85 40.0331ZM123.112 26.4071C119.657 26.0872 116.585 28.6384 116.265 32.0941C115.945 35.5499 118.496 38.6216 121.951 38.9415C125.407 39.2614 128.479 36.7103 128.799 33.2545C129.119 29.7988 126.568 26.727 123.112 26.4071Z" fill="black"/>
<path d="M141.709 98.7499C137.651 98.3743 134.656 94.7675 135.032 90.7098C135.407 86.6521 139.014 83.6566 143.071 84.0323C147.129 84.408 150.125 88.0147 149.749 92.0724C149.373 96.1301 145.766 99.1256 141.709 98.7499ZM142.97 85.1239C139.515 84.804 136.443 87.3552 136.123 90.8109C135.804 94.2667 138.354 97.3384 141.81 97.6583C145.266 97.9782 148.337 95.4271 148.657 91.9713C148.977 88.5156 146.426 85.4438 142.97 85.1239Z" fill="black"/>
</svg>
