<svg width="87" height="87" viewBox="0 0 87 87" fill="none" xmlns="http://www.w3.org/2000/svg">
<path d="M43.5 0C19.4756 0 0 19.4756 0 43.5C0 67.5245 19.4757 87 43.5 87C67.5244 87 87 67.5244 87 43.5C87 19.4757 67.5244 0 43.5 0ZM43.5 76.9391C25.0321 76.9391 10.061 61.9679 10.061 43.5C10.061 25.0322 25.0321 10.061 43.5 10.061C61.9679 10.061 76.939 25.0322 76.939 43.5C76.939 61.9679 61.9679 76.9391 43.5 76.9391Z" fill="url(#paint0_linear_1_4811)"/>
<path d="M43 0C19.2518 0 0 19.2518 0 43C0 66.7482 19.2518 86 43 86C66.7482 86 86 66.7482 86 43C86 19.2518 66.7482 0 43 0ZM43 76.5419C24.4753 76.5419 9.45806 61.5247 9.45806 43C9.45806 24.4753 24.4753 9.45806 43 9.45806C61.5247 9.45806 76.5419 24.4753 76.5419 43C76.5419 61.5247 61.5247 76.5419 43 76.5419Z" fill="#F9A7A1"/>
<path d="M43 1C19.804 1 1 19.804 1 43C1 66.196 19.804 85 43 85C66.196 85 85 66.196 85 43C85 19.804 66.196 1 43 1ZM43 10.3669C50.4098 10.3669 56.387 12.1445 61.8856 16.2798L16.3364 61.8491C12.2011 56.3506 10.3871 50.4098 10.3871 43C10.387 24.8391 24.8391 10.3669 43 10.3669ZM43 75.575C35.5902 75.575 29.7784 73.8751 24.2799 69.7398L69.7131 24.0898C73.8484 29.5883 75.595 35.5903 75.595 43.0001C75.595 61.1609 61.1609 75.575 43 75.575Z" fill="url(#paint1_linear_1_4811)"/>
<path d="M43.5 1C20.0279 1 1 20.0279 1 43.5C1 66.9721 20.0279 86 43.5 86C66.9722 86 86 66.9721 86 43.5C86 20.0279 66.9722 1 43.5 1ZM43.5 10.2254C50.9981 10.2254 57.7762 12.6015 63.3402 16.786L16.7616 63.3073C12.577 57.7433 10.2254 50.9981 10.2254 43.5C10.2254 25.1229 25.1229 10.2254 43.5 10.2254ZM43.5 76.7746C36.002 76.7746 29.2564 74.4227 23.6923 70.2382L70.2374 23.6912C74.4219 29.2553 76.7747 36.002 76.7747 43.5001C76.7747 61.8771 61.8772 76.7746 43.5 76.7746Z" fill="#F9A7A1"/>
<path d="M43.5 1C20.0279 1 1 20.0279 1 43.5C1 66.9721 20.0279 86 43.5 86C66.9721 86 86 66.9721 86 43.5C86 20.0279 66.9722 1 43.5 1ZM43.5 10.2253C50.9981 10.2253 57.9163 12.7061 63.4803 16.8907L16.8906 63.4803C12.7061 57.9163 10.2253 50.998 10.2253 43.5C10.2253 25.1229 25.1229 10.2253 43.5 10.2253ZM43.5 76.7747C36.0019 76.7747 29.0837 74.2939 23.5197 70.1093L70.1094 23.5197C74.2939 29.0837 76.7747 36.0019 76.7747 43.4999C76.7747 61.8771 61.8771 76.7747 43.5 76.7747Z" fill="url(#paint2_linear_1_4811)"/>
<defs>
<linearGradient id="paint0_linear_1_4811" x1="18.6653" y1="6.60288" x2="68.4413" y2="80.5558" gradientUnits="userSpaceOnUse">
<stop stop-color="#F9A7A1"/>
<stop offset="0.502" stop-color="#F02213"/>
<stop offset="0.5205" stop-color="#EA2113"/>
<stop offset="0.6773" stop-color="#B91A0F"/>
<stop offset="0.815" stop-color="#96150C"/>
<stop offset="0.9273" stop-color="#80120B"/>
<stop offset="1" stop-color="#78110A"/>
</linearGradient>
<linearGradient id="paint1_linear_1_4811" x1="66.536" y1="79.5849" x2="19.9312" y2="7.14128" gradientUnits="userSpaceOnUse">
<stop stop-color="#F9A7A1"/>
<stop offset="0.502" stop-color="#F02213"/>
<stop offset="0.5205" stop-color="#EA2113"/>
<stop offset="0.6773" stop-color="#B91A0F"/>
<stop offset="0.815" stop-color="#96150C"/>
<stop offset="0.9273" stop-color="#80120B"/>
<stop offset="1" stop-color="#78110A"/>
</linearGradient>
<linearGradient id="paint2_linear_1_4811" x1="43.5" y1="0.999982" x2="43.5" y2="86.8526" gradientUnits="userSpaceOnUse">
<stop stop-color="#F34E42"/>
<stop offset="0.502" stop-color="#F02213"/>
<stop offset="0.6983" stop-color="#D21E10"/>
<stop offset="0.8814" stop-color="#BC1B0F"/>
<stop offset="1" stop-color="#B41A0E"/>
</linearGradient>
</defs>
</svg>
