<svg width="500" height="428" viewBox="0 0 500 428" fill="none" xmlns="http://www.w3.org/2000/svg">
<path d="M500 382.397H0V382.647H500V382.397Z" fill="#E0E0E0"/>
<path d="M362.001 390.341H328.879V390.591H362.001V390.341Z" fill="#E0E0E0"/>
<path d="M440.917 390.466H399.777V390.716H440.917V390.466Z" fill="#E0E0E0"/>
<path d="M375.954 396.999H356.762V397.249H375.954V396.999Z" fill="#E0E0E0"/>
<path d="M225.667 395.109H174V395.359H225.667V395.109Z" fill="#E0E0E0"/>
<path d="M165.096 395.109H130.707V395.359H165.096V395.109Z" fill="#E0E0E0"/>
<path d="M110.123 390.887H63.2852V391.137H110.123V390.887Z" fill="#E0E0E0"/>
<path d="M237.014 337.798H43.915C40.768 337.798 38.207 335.237 38.207 332.09V60.6592C38.207 57.5122 40.768 54.9512 43.915 54.9512H237.014C240.16 54.9512 242.721 57.5122 242.721 60.6592V332.091C242.721 335.238 240.16 337.798 237.014 337.798ZM43.915 55.2012C40.905 55.2012 38.457 57.6492 38.457 60.6592V332.091C38.457 335.101 40.905 337.549 43.915 337.549H237.014C240.023 337.549 242.471 335.101 242.471 332.091V60.6592C242.471 57.6502 240.023 55.2012 237.014 55.2012H43.915Z" fill="#E0E0E0"/>
<path d="M453.309 337.798H260.211C257.064 337.798 254.504 335.237 254.504 332.09V60.6592C254.504 57.5122 257.065 54.9512 260.211 54.9512H453.309C456.457 54.9512 459.017 57.5122 459.017 60.6592V332.091C459.018 335.238 456.457 337.798 453.309 337.798ZM260.211 55.2012C257.202 55.2012 254.754 57.6492 254.754 60.6592V332.091C254.754 335.101 257.202 337.549 260.211 337.549H453.309C456.319 337.549 458.767 335.101 458.767 332.091V60.6592C458.767 57.6502 456.319 55.2012 453.309 55.2012H260.211Z" fill="#E0E0E0"/>
<path d="M174.062 38.1436H34.7773V309.887H174.062V38.1436Z" fill="#F5F5F5"/>
<path d="M102.001 309.886H65.668V147.529L102.001 135.654V309.886Z" fill="#E0E0E0"/>
<path d="M132.33 309.887H95.9961V186.424L132.33 174.549V309.887Z" fill="#D3CECE"/>
<path d="M127.994 182.97H119.324V153.51L127.994 150.676V182.97Z" fill="#D3CECE"/>
<path d="M319.341 38.1436H180.055V309.887H319.341V38.1436Z" fill="#F5F5F5"/>
<path d="M220.947 213.37H180.055V309.885H220.947V213.37Z" fill="#D3CECE"/>
<path d="M465.222 38.1436H325.938V309.887H465.222V38.1436Z" fill="#F5F5F5"/>
<path d="M434.892 309.887H405.332V114.517L434.892 102.642V309.887Z" fill="#E0E0E0"/>
<path d="M465.22 309.887H428.887V186.424L465.22 174.549V309.887Z" fill="#D3CECE"/>
<path d="M334.996 309.883H407.663V213.89L334.996 204.657V309.883Z" fill="#D3CECE"/>
<path d="M460.886 182.97H456.551V153.51L460.886 150.676V182.97Z" fill="#D3CECE"/>
<path d="M446.714 190.057H442.379V160.596L446.714 157.762V190.057Z" fill="#D3CECE"/>
<path d="M73.1103 229.222H56.5553C50.6033 229.222 45.7773 234.047 45.7773 240V309.887H73.1103V229.222Z" fill="#E0E0E0"/>
<path d="M174.064 232.05H137.758V309.887H174.064V232.05Z" fill="#E0E0E0"/>
<path d="M257.256 244.111L220.949 232.05V309.887H257.256V244.111Z" fill="#E0E0E0"/>
<path d="M271.009 244.111L234.703 232.05V309.887H271.009V244.111Z" fill="#D3CECE"/>
<path d="M271.008 231.754L307.314 219.694V309.886H271.008V231.754Z" fill="#F0F0F0"/>
<path opacity="0.5" d="M110.851 309.884H73.418L150.567 38.1436H188L110.851 309.884Z" fill="white"/>
<path opacity="0.5" d="M223.05 309.884H185.617L262.766 38.1436H300.199L223.05 309.884Z" fill="white"/>
<path opacity="0.5" d="M269.906 309.884H232.473L309.621 38.1436H347.054L269.906 309.884Z" fill="white"/>
<path opacity="0.5" d="M360.002 309.884H341.285L418.434 38.1436H437.15L360.002 309.884Z" fill="white"/>
<path d="M110.836 332.966C121.643 275.049 150.103 247.867 174.323 234.03C151.12 255.976 135.344 331.906 110.836 332.966Z" fill="#FAFAFA"/>
<path d="M87.1722 328.444C79.2192 284.78 59.9403 267.696 43.6562 260.418C59.3722 274.179 70.8672 331.188 87.1722 328.444Z" fill="#FAFAFA"/>
<path d="M101.146 340.015C98.0745 277.215 74.1645 249.646 52.6445 236.404C72.1635 258.645 77.7355 340.845 101.146 340.015Z" fill="#FAFAFA"/>
<path d="M101.145 334.613C106.138 271.506 132.831 241.978 156.551 226.985C134.765 250.824 126.546 333.552 101.145 334.613Z" fill="#FAFAFA"/>
<path d="M105.087 344.478C113.105 279.656 95.401 240.596 77.457 217.12C91.957 248.739 82.921 334.315 105.087 344.478Z" fill="#FAFAFA"/>
<path d="M129.961 324.762C150.194 286.969 175.515 277.996 194.99 277.075C174.394 284.236 146.781 333.18 129.961 324.762Z" fill="#FAFAFA"/>
<path d="M125.812 326.19C138.545 283.402 162.636 265.229 182.439 256.772C162.814 271.427 144.876 327.391 125.812 326.19Z" fill="#FAFAFA"/>
<path d="M103.464 344.693C125.226 277.579 115.399 236.202 102.058 211.028C110.185 244.53 83.0328 333.196 103.464 344.693Z" fill="#FAFAFA"/>
<path d="M66.5469 320.555V362.777C66.5469 373.568 86.0239 382.398 109.829 382.398C133.634 382.398 153.112 373.569 153.112 362.777V320.555H66.5469Z" fill="#F5F5F5"/>
<path d="M400.043 348.456C397.646 308.629 380.502 289.936 365.109 280.421C379.105 295.513 383.349 347.726 400.043 348.456Z" fill="white"/>
<path d="M416.641 345.346C425.861 315.321 440.542 303.573 452.324 298.569C440.371 308.031 427.572 347.233 416.641 345.346Z" fill="white"/>
<path d="M406.07 353.303C413.6 310.119 432.358 291.161 448.242 282.056C432.951 297.35 422.032 353.875 406.07 353.303Z" fill="white"/>
<path d="M406.539 349.587C408.573 306.191 392.842 285.886 377.891 275.575C390.752 291.969 389.234 348.857 406.539 349.587Z" fill="white"/>
<path d="M402.988 356.372C403.098 311.797 418.598 284.938 432.917 268.794C420.254 290.537 419.048 349.384 402.988 356.372Z" fill="white"/>
<path d="M387.652 342.813C377.06 316.824 360.493 310.653 347.234 310.02C360.722 314.944 375.405 348.601 387.652 342.813Z" fill="white"/>
<path d="M390.371 343.796C385.348 314.373 370.418 301.875 357.586 296.06C369.762 306.138 377.211 344.621 390.371 343.796Z" fill="white"/>
<path d="M404.079 356.519C394.973 310.368 405.279 281.915 416.592 264.604C408.131 287.642 419.066 348.614 404.079 356.519Z" fill="white"/>
<path d="M429.257 339.956V368.932C429.257 376.338 415.89 382.397 399.553 382.397H399.552C383.215 382.397 369.848 376.338 369.848 368.932V339.956H429.257Z" fill="#F5F5F5"/>
<path d="M249.998 427.561C357.08 427.561 443.887 422.492 443.887 416.238C443.887 409.985 357.08 404.915 249.998 404.915C142.916 404.915 56.1094 409.985 56.1094 416.238C56.1094 422.492 142.916 427.561 249.998 427.561Z" fill="#F5F5F5"/>
<path d="M266.949 128.885V142.039C266.949 143.959 265.378 145.53 263.458 145.53H231.335C229.415 145.53 227.844 143.959 227.844 142.039V94.4734C227.844 92.5534 229.415 90.9824 231.335 90.9824H263.458C265.378 90.9824 266.949 92.5534 266.949 94.4734V115.207" fill="white"/>
<path d="M263.46 146.056H231.337C229.122 146.056 227.32 144.254 227.32 142.04V94.4731C227.32 92.2581 229.122 90.4561 231.337 90.4561H263.46C265.675 90.4561 267.476 92.2581 267.476 94.4731V115.207H266.424V94.4731C266.424 92.8381 265.094 91.5081 263.46 91.5081H231.337C229.702 91.5081 228.372 92.8391 228.372 94.4731V142.039C228.372 143.674 229.702 145.003 231.337 145.003H263.46C265.095 145.003 266.424 143.673 266.424 142.039V128.885H267.476V142.039C267.476 144.253 265.675 146.056 263.46 146.056Z" fill="#407BFF"/>
<path d="M244.976 138.966C245.638 138.562 246.315 138.178 247.024 137.862C247.363 137.711 247.71 137.579 248.064 137.467C248.417 137.356 248.863 137.179 249.237 137.203C249.101 137.125 248.964 137.047 248.828 136.968C248.759 136.859 248.723 137.143 248.701 137.204C248.659 137.323 248.609 137.439 248.561 137.555C248.458 137.808 248.343 138.068 248.306 138.341C248.244 138.785 248.493 139.122 248.956 139.114C250.032 139.094 250.961 138.364 251.9 137.962C251.778 137.978 251.657 137.994 251.535 138.01C251.639 138.039 251.766 138.16 251.88 138.2C252.043 138.258 252.215 138.287 252.388 138.298C252.781 138.323 253.168 138.234 253.562 138.272C254.169 138.33 254.165 137.382 253.562 137.324C253.153 137.285 252.724 137.416 252.321 137.338C251.942 137.264 251.803 136.966 251.384 137.16C250.985 137.345 250.626 137.601 250.215 137.771C250.023 137.85 249.827 137.92 249.629 137.982C249.505 138.021 249.38 138.057 249.254 138.089C249.139 138.119 248.942 138.095 249.104 138.243C249.15 138.355 249.197 138.466 249.243 138.578C249.21 137.936 249.923 137.335 249.74 136.674C249.555 136.007 248.72 136.302 248.256 136.423C246.915 136.773 245.675 137.428 244.498 138.145C243.978 138.465 244.453 139.285 244.976 138.966Z" fill="white"/>
<path d="M263.221 98.088H231.574V99.14H263.221V98.088Z" fill="white"/>
<path d="M259.643 105.545H231.574V106.597H259.643V105.545Z" fill="white"/>
<path d="M263.221 113H231.574V114.052H263.221V113Z" fill="white"/>
<path d="M240.271 120.457H231.574V121.509H240.271V120.457Z" fill="white"/>
<path d="M255.496 120.457H243.922V121.509H255.496V120.457Z" fill="white"/>
<path d="M263.221 127.913H231.574V128.965H263.221V127.913Z" fill="white"/>
<path d="M235.925 141.23C233.237 141.23 231.051 139.042 231.051 136.354C231.051 133.666 233.238 131.48 235.925 131.48C238.612 131.48 240.8 133.666 240.8 136.354C240.8 139.042 238.613 141.23 235.925 141.23ZM235.925 132.532C233.818 132.532 232.103 134.247 232.103 136.354C232.103 138.462 233.818 140.177 235.925 140.177C238.033 140.177 239.748 138.462 239.748 136.354C239.748 134.247 238.033 132.532 235.925 132.532Z" fill="#407BFF"/>
<path d="M238.801 136.356C238.801 137.945 237.513 139.233 235.924 139.233C234.335 139.233 233.047 137.945 233.047 136.356C233.047 134.767 234.335 133.479 235.924 133.479C237.512 133.478 238.801 134.766 238.801 136.356Z" fill="#407BFF"/>
<path d="M255.081 135.492C255.25 133.972 255.81 132.763 256.503 131.659C257.218 130.572 258.093 129.613 258.89 128.592C260.504 126.565 262.173 124.582 263.846 122.602C267.23 118.672 270.664 114.782 274.402 111.133C274.612 110.928 274.947 110.932 275.152 111.142C275.324 111.319 275.348 111.585 275.226 111.787C272.524 116.258 269.517 120.487 266.46 124.677C264.913 126.757 263.361 128.833 261.756 130.867C260.943 131.876 260.208 132.946 259.313 133.89C258.395 134.815 257.345 135.636 255.904 136.147C255.581 136.261 255.226 136.092 255.112 135.769C255.081 135.677 255.072 135.581 255.081 135.492Z" fill="#407BFF"/>
<path d="M257.654 170.918L251.086 176.646L251.777 177.438L258.346 171.711L257.654 170.918Z" fill="#407BFF"/>
<path d="M249.853 162.032L247.074 174.433L248.101 174.663L250.88 162.262L249.853 162.032Z" fill="#407BFF"/>
<path d="M240.065 171.505L239.297 172.225L242.951 176.126L243.719 175.407L240.065 171.505Z" fill="#407BFF"/>
<path d="M317.059 408.287H308.554L307.508 388.591H316.014L317.059 408.287Z" fill="#7F3E3B"/>
<path d="M359.962 408.287H351.456L348.121 388.591H356.627L359.962 408.287Z" fill="#7F3E3B"/>
<path d="M350.897 407.302H360.452C360.8 407.302 361.089 407.544 361.149 407.883L362.468 415.443C362.605 416.227 361.953 416.969 361.15 416.956C357.817 416.899 356.206 416.703 352.003 416.703C349.418 416.703 342.445 416.972 338.875 416.972C335.383 416.972 335.007 413.442 336.484 413.122C343.106 411.688 347.302 409.712 349.49 407.826C349.886 407.485 350.388 407.302 350.897 407.302Z" fill="#263238"/>
<path d="M308.338 407.302H317.626C317.974 407.302 318.263 407.544 318.323 407.883L319.642 415.443C319.779 416.227 319.148 416.97 318.346 416.956C314.998 416.899 310.166 416.703 305.954 416.703C301.03 416.703 299.779 416.972 294.005 416.972C290.513 416.972 289.713 413.442 291.189 413.122C297.912 411.667 300.338 411.511 306.257 407.965C306.901 407.58 307.604 407.302 308.338 407.302Z" fill="#263238"/>
<path d="M308.07 143.406L296.449 140.012C296.449 140.012 284.606 168.138 280.599 169.977C275.147 172.479 260.588 180.152 254.437 183.775C254.015 185.159 254.012 188.968 254.68 190.075C264.774 189.27 285.474 182.422 289.454 178.605C298.531 169.902 308.07 143.406 308.07 143.406Z" fill="#7F3E3B"/>
<path d="M311.589 138.1C314.892 145.456 292.234 177.734 292.234 177.734L281.215 166.316C281.215 166.316 290.946 141.893 296.205 132.515C301.605 122.887 307.965 130.028 311.589 138.1Z" fill="#407BFF"/>
<path opacity="0.4" d="M311.589 138.1C314.892 145.456 292.234 177.734 292.234 177.734L281.215 166.316C281.215 166.316 290.946 141.893 296.205 132.515C301.605 122.887 307.965 130.028 311.589 138.1Z" fill="white"/>
<path d="M280.427 165.314C279.738 165.719 278.262 168.414 277.928 169.748C277.594 171.082 285.346 181.428 288.353 181.008C291.36 180.588 294.802 177.662 295.42 176.081C296.037 174.499 281.885 164.456 280.427 165.314Z" fill="#407BFF"/>
<path d="M255.731 183.146L248.68 181.875L249.103 191.913C249.103 191.913 251.566 192.906 256.865 189.625L255.731 183.146Z" fill="#7F3E3B"/>
<path d="M240.273 185.201L241.549 191.347L249.102 191.913L248.679 181.875L240.273 185.201Z" fill="#7F3E3B"/>
<path opacity="0.2" d="M307.508 388.596L308.045 398.749H316.554L316.016 388.596H307.508Z" fill="black"/>
<path opacity="0.2" d="M356.625 388.596H348.117L349.84 398.749H358.349L356.625 388.596Z" fill="black"/>
<path d="M300.781 128.055C300.781 128.055 289.435 157.282 296.687 205.113C310.394 205.113 335.509 205.113 342.179 205.113C342.826 198.13 340.146 160.521 348.451 127.616C348.451 127.616 340.728 126.051 333.314 125.693C327.515 125.413 319.108 125.227 313.975 125.694C307.21 126.309 300.781 128.055 300.781 128.055Z" fill="#407BFF"/>
<path opacity="0.2" d="M300.781 128.055C300.781 128.055 289.435 157.282 296.687 205.113C310.394 205.113 335.509 205.113 342.179 205.113C342.826 198.13 340.146 160.521 348.451 127.616C348.451 127.616 340.728 126.051 333.314 125.693C327.515 125.413 319.108 125.227 313.975 125.694C307.21 126.309 300.781 128.055 300.781 128.055Z" fill="black"/>
<path opacity="0.2" d="M338.18 135.741C337.164 141.156 338.254 154.113 342.697 169.084C343.263 157.561 344.593 144.202 347.662 130.891L347.665 130.827C344.682 130.52 339.148 130.665 338.18 135.741Z" fill="black"/>
<path d="M331.651 107.608C330.134 113.83 329.16 121.542 333.316 125.694C333.316 125.694 330.514 132.006 318.953 132.006C308.388 132.006 313.978 125.695 313.978 125.695C320.996 124.038 321.043 115.457 320.065 110.623L331.651 107.608Z" fill="#7F3E3B"/>
<path d="M318.957 132.006C325.772 134.135 327.125 136.321 327.125 136.321C327.125 136.321 335.607 132.874 335.288 125.39C335.288 125.39 333.758 124.219 331.966 123.472C331.966 123.472 331.289 129.008 318.957 132.006Z" fill="#407BFF"/>
<path d="M318.959 132.006C315.14 132.371 311.92 135.641 311.92 135.641C311.92 135.641 309.496 133.094 311.819 125.695C311.819 125.695 314.096 124.919 315.97 124.516C315.97 124.516 314.468 130.404 318.959 132.006Z" fill="#407BFF"/>
<path opacity="0.2" d="M320.057 110.626C320.642 113.458 320.863 117.579 319.523 120.841C320.552 120.69 321.612 120.377 322.668 119.889C326.668 118.043 328.734 115.141 330.948 110.834C331.151 109.731 331.389 108.651 331.647 107.606L320.057 110.626Z" fill="black"/>
<path d="M318.712 87.7337C315.994 88.6227 309.912 93.8347 315.668 96.4727C321.424 99.1107 323.446 86.1857 318.712 87.7337Z" fill="#263238"/>
<path d="M337.059 100.024C334.411 108.181 333.267 113.071 328.059 116.416C320.226 121.448 311.18 115.471 311.386 106.796C311.572 98.9879 315.872 86.9609 324.682 85.4099C333.362 83.8819 339.708 91.8669 337.059 100.024Z" fill="#7F3E3B"/>
<path d="M324.284 91.0659C319.783 91.8259 316.032 91.5919 314.669 87.8509C313.306 84.1099 319.502 80.1939 323.769 81.9469C326.925 78.6739 335.518 81.1869 336.629 84.3439C341.656 84.0219 346.361 89.7769 342.971 92.7319C345.543 94.2259 347.326 98.8099 343.994 102.04C345.455 106.381 340.195 110.706 336.042 108.953C331.953 107.725 329.724 108.734 329.155 106.088C328.621 103.605 330.023 100.901 333.502 100.39C331.744 98.2859 331.31 94.9679 332.537 93.5429C328.271 95.4499 324.822 93.0539 324.284 91.0659Z" fill="#263238"/>
<path d="M318.88 108.654C321.564 108.866 323.235 107.309 323.311 107.236C323.392 107.159 323.397 107.032 323.321 106.952C323.246 106.872 323.119 106.871 323.037 106.948C323.018 106.966 321.117 108.742 318.179 108.149C318.07 108.126 317.963 108.198 317.939 108.307C317.914 108.416 317.983 108.522 318.091 108.543C318.363 108.598 318.626 108.634 318.88 108.654Z" fill="#263238"/>
<path d="M337.53 111.266C335.702 112.711 333.413 113.212 331.56 113.004C328.773 112.69 328.555 109.941 330.314 107.857C331.897 105.981 335.255 103.884 337.579 105.243C339.868 106.583 339.62 109.614 337.53 111.266Z" fill="#7F3E3B"/>
<path d="M326.589 205.113C326.589 205.113 325.435 215.804 323.95 230.304C322.257 246.73 320.149 268.055 318.808 284.307C318.806 284.389 318.793 284.458 318.791 284.528C318.534 287.616 318.304 290.506 318.115 293.153C316.212 319.656 319.609 396.784 319.609 396.784H305.203C305.203 396.784 291.928 318.077 292.252 291.098C292.563 265.164 296.685 205.113 296.685 205.113H326.589Z" fill="#407BFF"/>
<path d="M320.801 391.144C320.868 391.144 320.548 397.076 320.548 397.076H303.941L303.523 390.562L320.801 391.144Z" fill="#263238"/>
<path opacity="0.2" d="M323.948 230.305C322.255 246.731 320.147 268.056 318.806 284.308C318.804 284.39 318.791 284.459 318.789 284.529C315.617 269.124 314.634 249.958 315.865 218.406L323.948 230.305Z" fill="black"/>
<path d="M312.824 205.113C312.824 205.113 319.457 266.57 323.594 290.921C328.124 317.588 345.971 396.782 345.971 396.782H361.549C361.549 396.782 351.046 319.74 348.994 293.338C346.768 264.683 342.178 205.113 342.178 205.113H312.824Z" fill="#407BFF"/>
<path d="M361.773 391.499C361.84 391.499 362.313 397.077 362.313 397.077H345.19L343.941 390.854L361.773 391.499Z" fill="#263238"/>
<path d="M322.929 99.6403C322.754 100.313 322.261 100.782 321.829 100.687C321.396 100.592 321.188 99.9703 321.363 99.2973C321.538 98.6243 322.031 98.1553 322.463 98.2493C322.896 98.3453 323.104 98.9673 322.929 99.6403Z" fill="#263238"/>
<path d="M315.452 98.0057C315.277 98.6787 314.785 99.1477 314.352 99.0527C313.92 98.9587 313.711 98.3357 313.886 97.6627C314.061 96.9897 314.554 96.5207 314.986 96.6157C315.419 96.7107 315.628 97.3327 315.452 98.0057Z" fill="#263238"/>
<path d="M318.943 98.8604C318.943 98.8604 316.429 102.414 314.285 103.925C315.167 105.292 317.289 105.219 317.289 105.219L318.943 98.8604Z" fill="#630F0F"/>
<path d="M327.023 97.6793C326.905 97.6533 326.803 97.5743 326.754 97.4553C326.073 95.8213 324.623 95.5923 324.608 95.5923C324.402 95.5713 324.247 95.3563 324.288 95.1353C324.329 94.9143 324.54 94.7603 324.758 94.7923C324.835 94.8023 326.653 95.0853 327.497 97.1153C327.581 97.3183 327.483 97.5583 327.278 97.6523C327.194 97.6893 327.105 97.6973 327.023 97.6793Z" fill="#263238"/>
<path d="M313.997 94.5755C313.941 94.5595 313.888 94.5305 313.843 94.4875C313.684 94.3395 313.682 94.0845 313.837 93.9175C315.392 92.2475 317.215 92.5045 317.292 92.5155C317.506 92.5395 317.651 92.7535 317.608 92.9755C317.565 93.1955 317.355 93.3476 317.138 93.3156C317.077 93.3066 315.653 93.1216 314.412 94.4546C314.3 94.5746 314.138 94.6155 313.997 94.5755Z" fill="#263238"/>
<path d="M353.496 139.233L342.75 145.728C342.75 145.728 354.783 171.734 354.678 176.1C354.481 184.26 357.994 201.95 357.045 211.27C358.366 211.742 362.076 211.852 363.198 211.199C365.334 202.766 368.282 180.621 367.428 175.073C365.573 163.031 353.496 139.233 353.496 139.233Z" fill="#7F3E3B"/>
<path d="M348.45 127.617C356.441 128.787 367.851 169.392 367.851 169.392L353.046 174.975C353.046 174.975 340.159 152.956 336.959 143.107C333.605 132.789 339.879 126.362 348.45 127.617Z" fill="#407BFF"/>
<path opacity="0.4" d="M348.45 127.617C356.441 128.787 367.851 169.392 367.851 169.392L353.046 174.975C353.046 174.975 340.159 152.956 336.959 143.107C333.605 132.789 339.879 126.362 348.45 127.617Z" fill="white"/>
<path d="M348.013 408.787C347.365 408.787 346.766 408.677 346.396 408.354C346.103 408.097 345.98 407.739 346.03 407.289C346.066 406.954 346.252 406.795 346.402 406.719C347.356 406.237 350.028 407.921 350.33 408.115C350.396 408.159 350.429 408.239 350.412 408.32C350.395 408.399 350.332 408.463 350.252 408.482C349.656 408.625 348.799 408.787 348.013 408.787ZM346.834 407.028C346.729 407.028 346.64 407.044 346.57 407.078C346.514 407.106 346.449 407.158 346.432 407.314C346.396 407.635 346.474 407.874 346.67 408.046C347.115 408.438 348.224 408.49 349.682 408.199C348.749 407.643 347.485 407.028 346.834 407.028Z" fill="#407BFF"/>
<path d="M350.205 408.488C350.172 408.488 350.139 408.48 350.11 408.464C349.252 407.986 347.64 406.122 347.865 405.173C347.905 405.001 348.046 404.704 348.531 404.646C348.849 404.607 349.13 404.695 349.376 404.904C350.326 405.711 350.412 408.166 350.415 408.27C350.418 408.344 350.379 408.415 350.315 408.454C350.282 408.477 350.243 408.488 350.205 408.488ZM348.653 405.04C348.623 405.04 348.593 405.043 348.561 405.046C348.298 405.077 348.269 405.199 348.257 405.249C348.123 405.809 349.14 407.218 349.984 407.882C349.919 407.164 349.716 405.734 349.107 405.216C348.968 405.099 348.819 405.04 348.653 405.04Z" fill="#407BFF"/>
<path d="M304.727 408.789C303.883 408.789 303.108 408.658 302.685 408.267C302.416 408.018 302.305 407.688 302.355 407.287C302.385 407.048 302.508 406.862 302.713 406.752C303.772 406.171 307.109 407.909 307.487 408.109C307.561 408.148 307.6 408.232 307.583 408.317C307.567 408.402 307.5 408.47 307.415 408.487C306.687 408.629 305.664 408.789 304.727 408.789ZM303.271 407.028C303.115 407.028 302.985 407.052 302.891 407.102C302.809 407.148 302.767 407.212 302.754 407.318C302.721 407.59 302.79 407.803 302.966 407.966C303.467 408.43 304.863 408.509 306.756 408.197C305.607 407.637 304.076 407.028 303.271 407.028Z" fill="#407BFF"/>
<path d="M307.377 408.488C307.349 408.488 307.321 408.482 307.295 408.471C306.291 408.01 304.344 406.172 304.546 405.209C304.593 404.984 304.767 404.702 305.323 404.647C305.729 404.597 306.106 404.721 306.424 404.992C307.464 405.881 307.583 408.171 307.588 408.269C307.591 408.34 307.556 408.409 307.496 408.451C307.46 408.476 307.419 408.488 307.377 408.488ZM305.467 405.04C305.428 405.04 305.387 405.043 305.345 405.046C304.98 405.084 304.951 405.225 304.941 405.273C304.821 405.851 306.133 407.295 307.151 407.925C307.074 407.256 306.836 405.885 306.154 405.303C305.948 405.127 305.722 405.04 305.467 405.04Z" fill="#407BFF"/>
<path d="M388.086 260.934L336.967 267.605C334.736 267.896 332.672 266.309 332.381 264.078L328.027 230.708C327.736 228.477 329.323 226.413 331.554 226.122L382.673 219.451C384.904 219.16 386.968 220.747 387.259 222.979L391.614 256.349C391.905 258.579 390.317 260.642 388.086 260.934Z" fill="#263238"/>
<path opacity="0.3" d="M388.086 260.934L336.967 267.605C334.736 267.896 332.672 266.309 332.381 264.078L328.027 230.708C327.736 228.477 329.323 226.413 331.554 226.122L382.673 219.451C384.904 219.16 386.968 220.747 387.259 222.979L391.614 256.349C391.905 258.579 390.317 260.642 388.086 260.934Z" fill="black"/>
<path d="M354.695 230.516C353.844 230.516 353.02 230.236 352.332 229.707C351.507 229.072 350.979 228.158 350.845 227.131L349.939 220.192C349.662 218.067 351.165 216.112 353.291 215.834L364.845 214.327C365.875 214.196 366.891 214.469 367.715 215.103C368.54 215.738 369.068 216.652 369.202 217.679L370.107 224.618C370.384 226.743 368.881 228.698 366.756 228.976L355.202 230.483C355.033 230.505 354.863 230.516 354.695 230.516ZM365.347 216.553C365.277 216.553 365.207 216.558 365.136 216.567L353.582 218.074C352.692 218.19 352.062 219.009 352.178 219.9L353.084 226.839C353.14 227.267 353.361 227.65 353.708 227.916C354.055 228.183 354.48 228.3 354.91 228.243L366.464 226.736C367.354 226.62 367.984 225.801 367.868 224.91L366.962 217.971C366.907 217.543 366.685 217.16 366.338 216.894C366.049 216.671 365.703 216.553 365.347 216.553Z" fill="#263238"/>
<path d="M392.946 260.299L341.827 266.97C339.596 267.261 337.532 265.674 337.241 263.442L332.886 230.072C332.595 227.841 334.182 225.777 336.414 225.486L387.533 218.815C389.764 218.524 391.828 220.111 392.119 222.342L396.473 255.712C396.765 257.944 395.177 260.008 392.946 260.299Z" fill="#263238"/>
<path d="M357.525 209.865L354.258 216.224L363.826 216.662C363.826 216.662 366.286 212.295 362.585 208.084L357.525 209.865Z" fill="#7F3E3B"/>
<path d="M357.914 221.137L363.607 220.355L363.826 216.662L354.258 216.224L354.407 218.295C354.535 220.077 356.143 221.38 357.914 221.137Z" fill="#7F3E3B"/>
<path d="M350.819 172.685C350.671 173.471 351.729 176.355 352.513 177.484C353.297 178.613 366.189 179.586 367.852 177.045C369.514 174.504 369.577 169.987 368.793 168.482C368.008 166.977 351.132 171.023 350.819 172.685Z" fill="#407BFF"/>
<path d="M162.383 141.484C160.772 143.587 159.018 145.898 157.413 148.167C155.802 150.464 154.186 152.754 152.679 155.094C149.647 159.742 146.837 164.538 144.865 169.301C144.624 169.893 144.39 170.485 144.188 171.069C144.076 171.364 143.982 171.654 143.893 171.943L143.754 172.378L143.687 172.588L143.672 172.648C143.535 172.937 143.458 173.918 143.564 174.992C143.784 177.201 144.506 179.814 145.331 182.383C147.041 187.548 149.299 192.886 151.584 198.05L146.467 201.289C142.658 196.533 139.355 191.593 136.559 186.013C135.186 183.198 133.916 180.296 133.129 176.758C132.761 174.969 132.464 172.994 132.888 170.417L132.973 169.94L133.047 169.623L133.195 169.004C133.292 168.589 133.394 168.178 133.511 167.781C133.728 166.971 133.974 166.188 134.228 165.411C136.322 159.245 139.226 153.811 142.371 148.6C143.97 146.013 145.612 143.473 147.376 141.023C149.153 138.552 150.879 136.188 152.916 133.751L162.383 141.484Z" fill="#263238"/>
<path d="M150.213 196.199L155.478 198.994L149.426 206.081C149.426 206.081 145.648 203.525 145.477 199.622L150.213 196.199Z" fill="#FFC3BD"/>
<path d="M162.563 203.363L156.077 208.509L149.426 206.081L155.478 198.994L162.563 203.363Z" fill="#FFC3BD"/>
<path d="M241.181 181.021L247.4 184.229L246.852 186.473L241.825 191.486C241.825 191.486 238.22 188.692 238.302 184.786L241.181 181.021Z" fill="#FFC3BD"/>
<path d="M242.082 181.876L247.775 180.81L251.439 182.373L248.998 182.787L247.398 184.229L242.082 181.876Z" fill="#FFC3BD"/>
<path d="M253.633 192.193L247.448 193.519C246.802 193.657 246.128 193.576 245.533 193.287L241.824 191.487L246.851 186.473L250.156 185.438L254.3 190.186C254.916 190.89 254.548 191.997 253.633 192.193Z" fill="#FFC3BD"/>
<path d="M185.167 100.938C185.303 101.609 185.77 102.081 186.208 101.992C186.647 101.903 186.892 101.287 186.755 100.615C186.619 99.9436 186.152 99.4716 185.714 99.5606C185.275 99.6496 185.03 100.267 185.167 100.938Z" fill="#263238"/>
<path d="M185.711 102.093C185.711 102.093 188.024 105.655 190.084 107.182C189.122 108.532 187 108.435 187 108.435L185.711 102.093Z" fill="#FF5652"/>
<path d="M181.953 97.7096C181.855 97.7096 181.757 97.6746 181.68 97.6026C181.517 97.4516 181.507 97.1976 181.658 97.0346C183.168 95.4006 185.001 95.6906 185.08 95.7036C185.299 95.7406 185.446 95.9486 185.409 96.1676C185.371 96.3866 185.161 96.5326 184.947 96.4966C184.887 96.4866 183.454 96.2766 182.249 97.5806C182.169 97.6666 182.061 97.7096 181.953 97.7096Z" fill="#263238"/>
<path d="M167.007 112.789C168.164 118.689 168.862 126.864 164.734 130.801C164.734 130.801 166.347 136.786 177.311 136.786C189.367 136.786 183.11 131.533 183.11 131.533C178.1 129.978 178.143 124.27 179.289 119.685L167.007 112.789Z" fill="#FFC3BD"/>
<path d="M162.957 134.832C161.973 133.252 162.295 128.459 163.488 127.679C165.414 126.42 173.335 126.565 183.838 129.631C182.422 134.209 184.735 136.787 184.735 136.787L162.957 134.832Z" fill="#407BFF"/>
<path opacity="0.2" d="M154.199 143.325C150.453 147.018 149.359 154.604 149.769 159.77C150.695 158.202 151.673 156.635 152.683 155.098C154.188 152.752 155.797 150.458 157.418 148.164C157.871 147.533 158.333 146.891 158.796 146.249C158.891 145.839 158.975 145.428 159.049 145.028L154.199 143.325Z" fill="black"/>
<path d="M127.642 406.968C128.451 407.143 129.26 407.189 129.65 406.858C129.813 406.719 129.978 406.452 129.835 405.971C129.76 405.718 129.594 405.529 129.343 405.409C128.254 404.889 125.751 405.909 125.645 405.953C125.576 405.982 125.529 406.049 125.527 406.124C125.524 406.199 125.567 406.269 125.634 406.302C126.017 406.486 126.829 406.792 127.642 406.968ZM128.954 405.68C129.036 405.698 129.112 405.722 129.178 405.754C129.33 405.827 129.424 405.933 129.468 406.08C129.57 406.424 129.443 406.532 129.401 406.568C128.967 406.937 127.357 406.597 126.222 406.143C126.992 405.871 128.237 405.524 128.954 405.68Z" fill="#407BFF"/>
<path d="M125.678 406.316C125.708 406.323 125.741 406.322 125.772 406.312C126.684 406.046 128.635 404.66 128.658 403.745C128.662 403.579 128.604 403.278 128.169 403.127C127.886 403.029 127.603 403.052 127.322 403.195C126.244 403.745 125.563 405.979 125.535 406.074C125.515 406.141 125.533 406.214 125.582 406.264C125.61 406.29 125.642 406.308 125.678 406.316ZM127.961 403.465C127.989 403.471 128.017 403.479 128.045 403.489C128.281 403.571 128.278 403.687 128.277 403.737C128.264 404.278 126.976 405.365 126.032 405.805C126.268 405.16 126.807 403.889 127.498 403.537C127.655 403.455 127.807 403.431 127.961 403.465Z" fill="#407BFF"/>
<path d="M187.19 408.323C188.225 408.323 189.225 408.18 189.56 407.715C189.677 407.552 189.77 407.275 189.544 406.88C189.418 406.658 189.214 406.508 188.939 406.433C187.597 406.068 184.778 407.674 184.658 407.743C184.589 407.783 184.552 407.861 184.565 407.939C184.578 408.018 184.638 408.08 184.716 408.096C185.231 408.199 186.226 408.323 187.19 408.323ZM188.469 406.758C188.604 406.758 188.728 406.772 188.838 406.802C189.014 406.85 189.137 406.937 189.212 407.069C189.347 407.306 189.298 407.424 189.249 407.491C188.874 408.012 186.835 408.024 185.336 407.812C186.084 407.429 187.527 406.758 188.469 406.758Z" fill="#407BFF"/>
<path d="M184.753 408.099C184.78 408.099 184.806 408.093 184.831 408.082C185.804 407.645 187.733 405.901 187.585 404.989C187.55 404.775 187.399 404.508 186.874 404.455C186.482 404.415 186.128 404.526 185.815 404.783C184.789 405.626 184.572 407.798 184.563 407.89C184.557 407.958 184.587 408.024 184.642 408.063C184.675 408.087 184.714 408.099 184.753 408.099ZM186.721 404.829C186.759 404.829 186.797 404.831 186.836 404.835C187.18 404.87 187.202 405.005 187.208 405.05C187.297 405.597 185.986 406.968 184.993 407.565C185.097 406.931 185.384 405.631 186.058 405.078C186.26 404.911 186.479 404.829 186.721 404.829Z" fill="#407BFF"/>
<path d="M175.887 407.908H183.953L184.756 389.23H176.69L175.887 407.908Z" fill="#FFC3BD"/>
<path d="M116.832 404.464L124.61 406.112L131.666 388.239L123.888 386.591L116.832 404.464Z" fill="#FFC3BD"/>
<path d="M125.329 405.089L116.473 403.172C116.151 403.102 115.823 403.266 115.685 403.565L112.611 410.235C112.292 410.927 112.715 411.738 113.462 411.887C116.565 412.503 118.106 412.647 122.001 413.49C124.397 414.009 129.806 415.326 133.114 416.043C136.35 416.744 137.563 413.581 136.273 412.992C130.487 410.349 128.07 408.021 126.504 405.852C126.221 405.46 125.8 405.191 125.329 405.089Z" fill="#263238"/>
<path d="M183.898 406.975H175.09C174.76 406.975 174.475 407.204 174.403 407.526L172.81 414.695C172.645 415.438 173.209 416.143 173.97 416.13C177.147 416.076 181.738 415.89 185.732 415.89C190.401 415.89 192.055 416.145 197.53 416.145C200.841 416.145 201.76 412.798 200.374 412.494C194.065 411.114 191.292 410.966 185.84 407.604C185.249 407.238 184.594 406.975 183.898 406.975Z" fill="#263238"/>
<path opacity="0.2" d="M184.754 389.235L184.341 398.863H176.273L176.685 389.235H184.754Z" fill="black"/>
<path opacity="0.2" d="M123.887 386.595L131.667 388.244L128.026 397.456L120.246 395.807L123.887 386.595Z" fill="black"/>
<path d="M181.656 202.752C181.656 202.752 172.503 264.389 167.478 287.48C161.975 312.767 132.469 396.428 132.469 396.428L118.031 393.302C118.031 393.302 138.663 325.124 143.282 289.772C146.83 262.617 153.82 202.752 153.82 202.752H181.656Z" fill="#263238"/>
<path opacity="0.1" d="M181.656 202.752C181.656 202.752 172.503 264.389 167.478 287.48C161.975 312.767 132.469 396.428 132.469 396.428L118.031 393.302C118.031 393.302 138.663 325.124 143.282 289.772C146.83 262.617 153.82 202.752 153.82 202.752H181.656Z" fill="white"/>
<path d="M135.927 391.61C135.989 391.623 133.236 396.831 133.236 396.831L116.992 393.314L118.361 388.431L135.927 391.61Z" fill="#263238"/>
<path opacity="0.3" d="M175.874 224.713C165.291 226.788 166.41 266.256 167.684 286.556C170.736 272.207 175.204 244.596 178.256 224.999C177.554 224.647 176.763 224.538 175.874 224.713Z" fill="black"/>
<path d="M196.958 202.752C196.958 202.752 198.069 263.054 197.192 287.65C196.279 313.233 187.344 396.998 187.344 396.998H173.681C173.681 396.998 173.18 314.727 172.572 289.602C171.909 262.211 168.602 202.752 168.602 202.752H196.958Z" fill="#263238"/>
<path opacity="0.1" d="M196.958 202.752C196.958 202.752 198.069 263.054 197.192 287.65C196.279 313.233 187.344 396.998 187.344 396.998H173.681C173.681 396.998 173.18 314.727 172.572 289.602C171.909 262.211 168.602 202.752 168.602 202.752H196.958Z" fill="white"/>
<path d="M189.973 391.557C190.036 391.557 189.202 397.229 189.202 397.229H172.582L172.133 392.167L189.973 391.557Z" fill="#263238"/>
<path d="M198.062 140.712C199.71 149.425 202.773 173.794 197.986 209.228L151.312 208.509C151.035 202.325 155.957 168.724 151.408 138.895C150.866 135.339 153.369 132.025 156.934 131.546C159.297 131.229 162.041 130.932 164.734 130.802C170.246 130.536 178.226 130.361 183.072 130.803C185.095 130.988 187.08 131.28 188.849 131.593C193.514 132.417 197.181 136.057 198.062 140.712Z" fill="#263238"/>
<path opacity="0.2" d="M199.335 149.368L191.476 151.322C190.877 158.662 195.722 166.973 200.555 173.319C200.588 163.416 200.013 155.353 199.335 149.368Z" fill="black"/>
<path d="M196.11 136.786C197.441 139.176 198.886 141.769 200.358 144.215C201.842 146.684 203.333 149.143 204.893 151.537C207.994 156.315 211.299 160.981 214.913 164.863C215.367 165.333 215.819 165.811 216.281 166.245L216.625 166.58L216.886 166.818C217.038 166.975 217.297 167.16 217.496 167.334C218.409 168.047 219.53 168.813 220.686 169.54C223.033 170.988 225.55 172.409 228.109 173.782C233.229 176.533 238.531 179.234 243.764 181.958L241.688 187.647C235.755 186.216 229.995 184.476 224.247 182.343C221.377 181.265 218.517 180.112 215.637 178.7C214.19 177.983 212.736 177.241 211.213 176.238C210.818 175.963 210.452 175.739 210.036 175.413L209.429 174.949L208.94 174.54C208.276 173.998 207.66 173.438 207.038 172.878C204.597 170.629 202.454 168.238 200.441 165.802C198.418 163.372 196.575 160.854 194.797 158.314C193.037 155.762 191.352 153.18 189.781 150.534C188.204 147.864 186.694 145.281 185.25 142.4L196.11 136.786Z" fill="#263238"/>
<path d="M162.493 104.064C164.675 112.204 165.538 117.079 170.561 120.464C178.117 125.555 187.525 119.712 187.819 111.084C188.084 103.318 184.472 91.3113 175.736 89.6703C167.13 88.0553 160.311 95.9243 162.493 104.064Z" fill="#FFC3BD"/>
<path d="M179.4 104.16C181.333 101.309 182.074 96.9264 180.715 94.8224C181.986 95.3484 191.149 95.9754 187.554 89.4584C183.959 82.9414 176.769 81.1444 170.5 82.9414C172.034 83.3794 173.552 83.8184 173.552 83.8184C173.552 83.8184 164.976 83.2044 160.811 86.6684C162.079 86.7414 163.178 86.7124 163.178 86.7124C163.178 86.7124 154 91.0044 157.946 94.2924C151.501 99.2024 155.863 106.003 166.491 116.141C168.337 117.809 173.575 117.199 174.732 116.202C174.048 111.785 178.304 105.776 179.4 104.16Z" fill="#263238"/>
<path d="M180.476 98.6143C182.383 99.9953 184.729 104.094 185.824 106.133C186.92 108.172 188.06 107.908 188.608 108.72C189.156 109.531 191.414 123.231 189.003 125.423C186.592 127.615 179.336 124.152 178.394 121.631C177.451 119.11 179.18 112.929 179.653 111.526C180.126 110.123 180.06 106.594 179.227 104.205C178.394 101.814 180.476 98.6143 180.476 98.6143Z" fill="#263238"/>
<path d="M176.198 104.54C176.839 106.652 178.242 108.576 179.85 109.301C182.061 110.298 182.331 107.727 181.901 105.265C181.514 103.048 180.878 101.297 179.108 100.401C177.039 99.3544 175.465 102.125 176.198 104.54Z" fill="#FFC3BD"/>
</svg>
