<svg width="216" height="178" viewBox="0 0 216 178" fill="none" xmlns="http://www.w3.org/2000/svg">
<path d="M135.009 123.971L133.367 164.19" stroke="#2F2F2F" stroke-width="4" stroke-miterlimit="10"/>
<path d="M117.228 131.531L107.922 166.653" stroke="#2F2F2F" stroke-width="4" stroke-miterlimit="10"/>
<path d="M155.939 122.33L162.095 159.266" stroke="#2F2F2F" stroke-width="4" stroke-miterlimit="10"/>
<path d="M137.581 127.293L140.754 169.937" stroke="#2F2F2F" stroke-width="4" stroke-miterlimit="10"/>
<path d="M160.321 79.5017C158.768 77.1577 156.327 75.4091 153.732 74.2492C148.069 71.7182 141.348 71.6679 135.647 74.1133C131.143 76.0453 126.921 79.6863 124.711 84.1141C123.006 87.5293 123.356 92.6515 122.664 96.4929C121.486 103.033 120.308 109.573 119.13 116.113C119.064 116.48 114.615 119.12 114.088 119.711C112.415 121.585 110.954 123.861 111.219 126.484C111.444 128.703 112.913 130.654 114.743 131.928C116.574 133.203 118.743 133.889 120.903 134.446C126.32 135.843 132.052 136.532 137.506 135.286C140.792 134.535 143.882 133.104 146.864 131.531C150.444 129.643 153.969 127.488 156.647 124.452C160.713 119.843 161.037 113.55 161.813 107.725C162.732 100.84 162.921 93.8585 162.375 86.9339C162.222 84.9963 162.003 83.0306 161.252 81.2376C160.996 80.6264 160.682 80.048 160.321 79.5017Z" fill="#2F2F2F"/>
<path d="M158.812 168.277C158.566 168.624 158.166 168.801 157.785 168.964C154.819 170.231 151.851 171.498 148.885 172.764C147.986 173.148 146.465 173.48 146.071 174.565C145.362 176.519 154.197 175.858 155.654 175.836C160.443 175.764 165.231 175.617 170.016 175.395C169.923 175.4 170.791 156.958 167.011 155.137C165.526 154.421 163.712 155.214 162.666 156.527C161.621 157.839 161.167 159.553 160.741 161.21C160.206 163.289 159.671 165.367 159.137 167.445C159.062 167.737 158.983 168.036 158.812 168.277Z" fill="#A66104"/>
<path d="M195.501 166.791C195.305 167.164 194.94 167.387 194.592 167.591C191.876 169.19 189.161 170.788 186.445 172.386C185.623 172.87 184.192 173.374 183.942 174.5C183.492 176.528 191.951 174.869 193.357 174.682C197.978 174.068 202.588 173.38 207.187 172.617C207.098 172.632 205.721 154.152 201.848 152.765C200.328 152.22 198.669 153.216 197.816 154.642C196.963 156.068 196.731 157.828 196.517 159.529C196.25 161.661 195.983 163.792 195.716 165.924C195.678 166.223 195.638 166.53 195.501 166.791Z" fill="#A66104"/>
<path d="M190.025 85.8645C190.507 84.4483 190.926 83.0174 191.147 81.5425C191.745 77.5335 191.132 71.3164 186.974 69.4359C182.338 67.3391 177.197 69.7314 174.257 73.521C171.74 76.767 170.553 80.8279 169.556 84.8128C166.906 95.4018 166.123 106.248 163.923 116.851C161.235 129.808 159.612 142.985 159.088 156.207C159.058 156.965 159.002 157.844 158.948 158.797C158.726 162.674 161.762 165.796 165.627 166.184C169.012 166.524 172.331 164.702 173.418 161.478C176.991 150.885 178.125 138.218 180.963 128.024C182.346 123.056 183.444 118 184.343 112.923C185.085 108.732 186.661 104.575 187.188 100.374C187.422 98.5112 187.255 96.6176 187.446 94.7497C187.761 91.6748 189.027 88.8008 190.025 85.8645Z" fill="#434343"/>
<path d="M198.496 72.0226C200.818 75.6909 199.391 80.3805 199.927 84.5536C200.319 87.6138 201.306 90.5615 202.021 93.5624C204.501 103.957 203.707 114.717 204.631 125.282C205.587 136.202 208.31 146.829 208.076 157.887C207.987 162.084 207.53 162.587 203.686 163.463C202.473 163.739 201.256 164.042 200.031 164.314C196.331 165.137 193.049 162.495 192.353 158.768C189.255 142.172 184.984 115.593 184.598 113.423C182.79 103.251 180.987 92.7368 183.353 82.679C184.182 79.1568 185.643 75.5788 188.511 73.3727C191.378 71.1657 196.56 68.9655 198.496 72.0226Z" fill="#434343"/>
<path d="M171.771 25.927C172.205 26.0557 172.67 26.1013 173.123 26.1425C175.681 26.3758 178.735 26.7692 179.37 23.8816C179.855 21.6767 178.635 18.3166 176.949 16.8615C175.342 15.4746 172.227 15.0186 171.537 17.5437C171.282 18.4794 171.475 19.4888 171.855 20.3813C171.955 20.6174 172.071 20.8717 172.007 21.1237C171.68 22.3791 168.265 23.8139 171.086 25.6219C171.299 25.7582 171.53 25.8557 171.771 25.927Z" fill="#2F2F2F"/>
<path d="M172.696 34.2704C171.842 35.1566 171.43 36.6105 171.607 37.8449C172.196 41.9403 174.659 44.5624 179.179 44.1813C187.384 43.4888 198.328 36.1062 188.535 32.4109C184.834 31.0141 184.419 26.9468 184.949 23.87C186.024 17.6383 189.795 13.3228 179.397 12.8878C175.573 12.7278 172.178 15.7645 172.47 19.581C172.533 20.3973 172.647 21.2061 172.83 21.9994C173.051 22.9607 173.437 24.0629 174.035 24.9523C175.156 26.6186 177.29 28.0627 177.011 30.0515C176.879 30.9883 176.585 31.9355 175.961 32.6308C175.529 33.1113 175 33.2868 174.463 33.435C173.841 33.6061 173.207 33.7412 172.696 34.2704Z" fill="#EB9A7A"/>
<path d="M162.522 57.1884C162.246 58.033 161.942 58.8677 161.594 59.6869C160.981 61.1273 160.23 62.5217 159.846 64.039C159.169 66.711 159.917 69.757 162.624 70.8278C168.283 73.0656 172.854 62.845 173.636 58.6252C174.273 55.1886 180.071 37.2653 171.932 38.3222C171.482 38.3805 171.032 38.5354 170.693 38.8452C170.094 39.3918 169.705 40.2602 169.154 40.8833C168.451 41.6784 167.813 42.5036 167.262 43.4131C166.12 45.3 165.333 47.3833 164.696 49.4877C163.923 52.0393 163.348 54.6582 162.522 57.1884Z" fill="#EB9A7A"/>
<path d="M172.562 10.687C172.468 10.7797 172.376 10.8735 172.284 10.9674C171.823 11.4388 171.362 11.9107 170.901 12.3821C170.651 12.6376 170.392 12.9078 170.295 13.2512C170.035 14.1659 171.029 14.9598 171.952 15.1876C172.641 15.3575 173.365 15.3809 174.063 15.2553C174.644 15.1508 175.21 14.9448 175.799 14.9309C176.691 14.9099 177.525 15.3266 178.376 15.5952C179.96 16.0956 183.167 15.2807 184.137 17.1386C185.515 19.7786 184.079 21.867 184.349 24.5101C184.63 27.2709 187.495 26.7401 189.985 26.3645C191.439 26.1454 192.946 25.6713 193.903 24.5561C194.86 23.4409 195.006 21.5394 193.881 20.5934C193.443 20.2246 192.849 20.0151 192.553 19.5246C192.182 18.9094 192.428 18.1274 192.429 17.4092C192.431 15.1432 190.006 15.0319 188.561 13.9421C186.559 12.4324 184.628 10.2777 181.879 10.5974C181.055 10.6933 180.236 10.9853 179.416 10.8632C178.738 10.7622 178.138 10.3891 177.519 10.0951C176.265 9.5001 174.726 9.23468 173.519 9.92041C173.163 10.1224 172.855 10.397 172.562 10.687Z" fill="#2F2F2F"/>
<path d="M164.223 45.0664C164.217 45.0811 164.212 45.0961 164.206 45.1108C164.05 45.5095 163.897 45.9129 163.757 46.3208C163.059 48.3555 164.357 50.5058 166.503 50.6537C168.139 50.769 169.748 50.1771 171.141 49.3353C172.478 48.528 173.4 47.2246 174.83 46.67C174.893 46.6455 174.959 46.6189 175.002 46.5651C175.051 46.5037 175.061 46.4193 175.067 46.34C175.177 45.0518 174.821 33.3563 173.493 33.6257C168.13 34.7135 166.034 40.4347 164.223 45.0664Z" fill="#99C9FF"/>
<path d="M167.828 62.5458C168.043 68.2906 168.238 74.0574 168.606 79.796C168.758 82.1642 170.053 84.361 172.412 84.6223C172.582 84.6413 172.753 84.6585 172.922 84.675C182.442 85.6032 192.062 85.501 201.56 84.37C201.702 84.3529 201.338 64.021 201.22 62.6179C200.881 58.5997 199.309 54.7306 199.265 50.6986C199.251 49.4765 199.379 48.2504 199.256 47.0346C199.138 45.8604 198.788 44.7239 198.441 43.596C198.071 42.3973 197.699 41.1906 197.117 40.079C196.222 38.3708 194.682 36.2816 193.166 35.0535C192.829 34.7798 188.793 31.7496 188.535 32.4104C186.077 38.7167 179.153 43.3243 179.146 43.329C178.984 43.4368 177.332 40.9296 177.235 40.7731C177.052 40.4801 176.883 40.1856 176.725 39.8896C174.877 36.4128 171.253 34.4219 169.915 38.1254C169.221 40.0474 168.872 42.1902 168.62 43.7921C167.635 50.062 167.595 56.2957 167.828 62.5458Z" fill="#BED6F2"/>
<path d="M186.032 20.5299C183.524 22.0836 182.27 17.4906 184.929 17.0165C187.359 16.5823 187.934 19.3517 186.032 20.5299Z" fill="#EB9A7A"/>
<path d="M189.233 32.4074C188.913 32.2092 188.525 32.3822 188.373 32.7262C187.055 35.7037 184.774 38.3084 182.81 40.1775C180.829 42.063 177.771 41.6833 176.549 39.2365C175.835 37.8074 175.148 36.0388 174.75 34.0062C174.672 33.6069 174.256 33.3326 173.858 33.4139C173.541 33.4784 173.363 33.7821 173.423 34.0995C173.678 35.4623 174.141 37.3325 174.727 38.7714C174.777 38.895 174.83 39.0184 174.884 39.1415C176.597 43.0202 181.703 43.2454 184.834 40.3865C186.028 39.2972 188.257 35.681 189.533 33.5221C189.755 33.1472 189.603 32.6368 189.233 32.4074Z" fill="#001935"/>
<path d="M169.945 64.7794C169.623 66.2994 169.213 67.8349 168.228 69.0209C166.532 71.0631 161.745 72.1339 160.894 68.6866C160.318 66.3513 162.513 62.7614 163.54 60.7244C164.479 58.8629 165.516 57.0529 166.466 55.1974C167.286 53.5953 168.372 52.0943 169.018 50.4147C169.453 49.2829 170.098 48.3793 171.566 49.0899C172.429 49.5079 172.958 50.4448 173.088 51.3951C173.26 52.6517 172.917 53.8944 172.266 54.947C171.391 56.3604 171.371 57.7775 171.052 59.3426C170.721 60.9676 170.391 62.5926 170.06 64.2176C170.023 64.4042 169.984 64.5916 169.945 64.7794Z" fill="#EB9A7A"/>
<path d="M173.758 53.1135C173.739 53.0275 173.721 52.9393 173.737 52.8528C173.744 52.8132 173.757 52.7744 173.774 52.7367L173.823 52.6274C173.871 52.5113 173.971 52.4149 174.089 52.3737C174.09 52.3732 174.092 52.3727 174.093 52.3723C174.095 52.3715 174.097 52.3708 174.099 52.3701C174.213 52.3237 174.35 52.331 174.459 52.3889L174.563 52.4563C174.629 52.5133 174.678 52.5834 174.707 52.667C174.716 52.7102 174.725 52.753 174.735 52.7962C174.741 52.8825 174.727 52.9653 174.691 53.0441C174.674 53.0806 174.658 53.117 174.641 53.1531C174.594 53.2692 174.494 53.3656 174.375 53.4068C174.374 53.4073 174.373 53.4077 174.371 53.4082C174.37 53.409 174.368 53.4097 174.366 53.4104C174.251 53.4568 174.114 53.4495 174.005 53.3916C173.971 53.369 173.936 53.3464 173.902 53.3242C173.836 53.2672 173.787 53.1971 173.758 53.1135Z" fill="black"/>
<path d="M172.083 52.9635C172.085 52.8768 172.067 52.7952 172.028 52.7179L171.974 52.6114C171.92 52.4979 171.817 52.406 171.696 52.3709C171.695 52.3705 171.694 52.3701 171.692 52.3697C171.69 52.3691 171.689 52.3684 171.687 52.3678C171.57 52.3273 171.433 52.3411 171.327 52.4042L171.227 52.4763C171.163 52.5365 171.118 52.609 171.092 52.6938C171.078 52.7806 171.063 52.8695 171.083 52.9552C171.093 52.9944 171.107 53.0324 171.125 53.0693C171.143 53.105 171.161 53.1402 171.179 53.1759C171.232 53.2898 171.336 53.3812 171.457 53.4163C171.458 53.4167 171.46 53.4171 171.461 53.4175C171.463 53.4182 171.465 53.4188 171.467 53.4194C171.583 53.46 171.72 53.4461 171.826 53.3831C171.86 53.3589 171.893 53.3347 171.927 53.3106C171.99 53.2503 172.035 53.1778 172.061 53.0931C172.068 53.0507 172.076 53.0071 172.083 52.9635Z" fill="black"/>
<path d="M175.285 51.4305C175.414 51.6123 175.53 51.8044 175.63 52.01C175.718 52.1891 175.795 52.3808 175.789 52.5801C175.783 52.7793 175.672 52.9873 175.484 53.0523C175.39 53.0848 175.287 53.0792 175.188 53.0681C174.439 52.9842 173.771 52.6169 173.316 52.0211C172.884 51.4558 172.494 50.8394 172.181 50.2004C172.032 49.8954 171.445 47.6203 172.328 48.5909C173.246 49.6007 174.499 50.3201 175.285 51.4305Z" fill="#EB9A7A"/>
<path d="M163.551 43.2353L168.097 43.6548C168.906 43.7293 169.456 43.1168 169.325 42.2861L168.77 38.7755C168.639 37.9447 167.877 37.2111 167.068 37.1366L162.521 36.7171C161.712 36.6426 161.162 37.255 161.293 38.0858L161.848 41.5964C161.979 42.4267 162.741 43.1608 163.551 43.2353Z" fill="#191919"/>
<path d="M170.935 39.7821L173.779 57.7916L162.231 56.7259L159.387 38.7165L170.935 39.7821Z" fill="white" stroke="black"/>
<path d="M163.767 40.6724L167.053 40.9755C167.611 41.027 167.99 40.6047 167.899 40.0327L167.751 39.091C167.66 38.519 167.135 38.0131 166.578 37.962L163.291 37.6585C162.734 37.607 162.355 38.0293 162.445 38.6014L162.594 39.543C162.684 40.1155 163.209 40.6209 163.767 40.6724Z" fill="#191919"/>
<path d="M185.458 68.7932C182.875 66.6266 180.573 63.9899 178.5 61.5346C177.37 60.196 176.271 58.771 174.852 57.7204C173.516 56.7321 171.887 56.2175 170.471 55.3479C168.906 54.3877 166.239 52.3903 166.263 50.356C166.275 49.3962 166.974 48.3971 167.932 48.3408C168.942 48.2814 169.618 49.1308 170.339 49.6901C171.396 50.5109 172.814 50.4472 173.909 51.125C174.355 51.4015 174.699 51.8139 175.09 52.1641C175.865 52.8581 176.824 53.3058 177.767 53.7439C180.499 55.012 183.146 56.3731 185.796 57.802C188.74 59.3894 192.16 61.0505 194.49 63.4812C195.98 65.0345 197.603 67.1749 197.009 69.2428C196.466 71.1324 194.895 74.266 191.746 72.6715C190.179 71.8784 186.854 69.9642 185.458 68.7932Z" fill="#EB9A7A"/>
<path d="M194.935 49.9574C198.078 50.4274 200.399 53.0717 200.509 56.2476C200.664 60.7098 200.263 65.137 198.465 69.18C197.476 71.4036 195.422 73.7302 193.06 73.1475C191.502 72.7632 190.51 71.2155 190.03 69.6847C188.921 66.1539 188.841 62.6721 188.54 59.0058C188.462 58.0545 188.385 57.1014 188.321 56.1475C188.065 52.371 191.192 49.3968 194.935 49.9574Z" fill="#EB9A7A"/>
<path d="M188.394 52.7317C189.322 53.0609 190.388 53.2198 191.455 53.3406C191.848 53.3489 192.239 53.3573 192.632 53.3557C196.196 53.3414 199.765 52.914 203.204 51.968C203.741 51.8199 204.052 51.2601 203.899 50.7241C202.271 45.0177 199.094 38.8501 194.337 35.9897C194.22 35.9196 194.093 35.8491 193.957 35.8582C193.799 35.8689 193.67 35.9818 193.556 36.0904C189.874 39.5907 188.203 44.339 187.599 49.2797C187.422 50.73 186.852 52.1843 188.394 52.7317Z" fill="#001935"/>
<path d="M119.168 167.928C119.128 167.988 119.085 168.046 119.037 168.102C118.844 168.325 118.593 168.491 118.344 168.649C115.126 170.697 111.478 172.127 108.654 174.691C107.29 175.929 111.327 175.635 111.829 175.62C113.541 175.569 115.25 175.443 116.956 175.296C120.329 175.006 123.693 174.594 127.07 174.357C128.132 174.282 128.897 173.311 128.728 172.261C128.041 168 127.916 163.236 127.459 159.881C127.285 158.606 126.695 159.786 126.097 158.646C124.566 155.731 120.199 154.939 119.136 157.788C118.109 160.541 120.229 163.939 119.567 166.876C119.485 167.244 119.375 167.617 119.168 167.928Z" fill="#C4A03D"/>
<path d="M88.8537 163.323C88.7836 163.444 88.702 163.557 88.6037 163.657C88.2539 164.015 87.7465 164.163 87.2584 164.275C84.0199 164.923 81.1962 164.914 77.9058 164.706C77.1055 164.655 74.5013 164.808 75.0238 166.228C75.2115 166.739 75.7202 167.049 76.2063 167.294C78.5701 168.483 81.1649 168.89 83.6178 169.813C85.7507 170.616 87.7393 171.81 89.8722 172.574C90.3361 172.74 90.8273 172.858 91.3189 172.821C92.5799 172.729 93.5425 171.683 94.2746 170.653C96.4494 167.59 97.7425 163.91 99.1753 160.463C99.623 159.386 100.071 158.154 99.5846 157.094C98.6306 155.015 93.369 154.228 91.7111 155.744C89.9304 157.372 89.867 160.388 89.1722 162.543C89.087 162.81 88.9935 163.083 88.8537 163.323Z" fill="#C4A03D"/>
<path d="M141.562 101.17C141.372 100.099 140.978 99.1281 140.311 98.3449C139.258 97.1089 137.748 96.3404 136.195 95.865C133.742 95.1139 131.088 95.0295 128.592 95.6233C127.679 95.8408 126.764 96.1593 126.044 96.7611C125.468 97.242 125.046 97.8786 124.646 98.514C123.19 100.833 121.923 103.271 120.864 105.795C120.582 106.466 120.304 107.161 119.797 107.683C119.382 108.111 118.843 108.392 118.313 108.663C114.167 110.791 109.957 112.814 105.965 115.228C103.637 116.635 101.194 117.964 99.2167 119.863C96.6719 122.307 96.6045 124.885 95.4359 127.983C94.4776 130.524 94.022 133.311 93.3775 135.945C91.863 142.003 90.548 148.099 89.1252 154.184C88.3299 157.585 89.8176 161.115 93.173 162.087C93.3043 162.125 93.4348 162.162 93.5645 162.198C94.3552 162.422 98.6043 163.917 99.0424 163.144C100.197 161.102 101.352 159.06 102.507 157.018C104.093 154.213 105.696 151.366 106.488 148.243C107.168 145.559 107.24 142.702 108.352 140.165C108.89 138.938 109.656 137.826 110.281 136.641C111.115 135.058 111.697 133.341 111.996 131.577C112.087 131.043 112.173 130.461 112.564 130.087C112.842 129.82 113.228 129.707 113.599 129.602C115.735 128.998 117.686 128.147 119.705 127.237C123.442 125.554 127.14 123.712 130.516 121.375C134.188 118.834 137.458 115.552 139.454 111.518C140.732 108.935 142.164 104.555 141.562 101.17Z" fill="#5C5252"/>
<path d="M148.921 121.047C147.917 121.899 146.824 122.651 145.632 123.281C144.201 124.037 142.679 124.608 141.238 125.343C139.124 126.42 137.215 127.838 135.191 129.065C134.64 129.398 134.097 129.676 133.554 129.917C130.604 131.225 128.159 133.639 128.031 136.863C127.96 138.661 128.015 140.455 128.327 142.225C128.679 144.224 129.354 146.173 129.467 148.2C129.618 150.913 128.755 153.57 128.434 156.268C128.246 157.848 128.243 159.45 128.427 161.03C128.457 161.286 128.494 161.546 128.608 161.777C128.732 162.024 128.936 162.219 129.102 162.439C130.279 163.998 129.35 165.864 127.493 165.804C126.224 165.763 124.955 165.722 123.686 165.681C122.587 165.645 121.473 165.611 120.401 165.856C119.824 165.988 119.264 166.2 118.676 166.274C118.089 166.347 117.444 166.26 117.004 165.864C116.15 165.097 115.65 162.757 115.36 161.658C114.833 159.656 114.637 157.49 114.34 155.442C113.739 151.287 113.294 147.109 113.009 142.921C112.516 135.71 111.048 127.458 116.814 122.195C125.393 114.366 134.341 108.334 144.515 102.733C146.819 101.465 150.081 100.99 152.154 102.964C153.628 104.367 153.437 106.15 153.48 107.96C153.556 111.136 154.44 114.385 152.505 117.099C151.458 118.567 150.271 119.899 148.921 121.047Z" fill="#5C5252"/>
<path d="M128.936 39.9244C129.021 39.8595 129.106 39.7957 129.193 39.7335C130.957 38.4619 133.139 37.7135 135.308 37.8676C139.058 38.1338 142.868 40.9168 144.369 44.3138C145.145 46.0691 145.308 48.0225 145.702 49.901C146.198 52.2712 147.078 54.5609 148.296 56.6542C149.074 57.99 149.992 59.2545 150.581 60.6838C151.625 63.2187 151.199 67.1505 148.159 68.0505C144.721 69.069 141.358 69.1926 137.791 69.0659C135.014 68.9672 129.277 69.895 127.136 67.9903C124.265 65.4237 125.121 62.8483 125.624 59.5076C126.167 55.8975 124.461 52.3064 124.525 48.6563C124.585 45.2831 126.262 41.9773 128.936 39.9244Z" fill="#191919"/>
<path d="M110.302 74.3075C109.131 75.1363 107.909 75.8949 106.68 76.5981C103.406 78.4718 99.9233 79.9459 96.3865 81.2449C93.1598 82.4297 89.7046 83.1282 86.6282 84.6181C85.3288 85.2471 83.8638 85.8022 82.471 85.4242C81.9061 85.2709 81.3915 84.9714 80.8369 84.7833C78.2096 83.8915 74.9533 86.4566 72.6358 84.4941C72.1109 84.0496 71.6363 83.2961 70.9653 83.4471C70.625 83.5235 70.3821 83.8325 70.2558 84.1577C69.841 85.2254 70.4705 86.4839 71.4339 87.1039C73.4935 88.4294 76.6488 87.9778 78.9464 87.9017C83.684 87.7453 88.4267 87.735 93.1638 87.9037C98.3688 88.0887 104.199 88.9024 108.976 86.3397C114.847 83.1903 120.77 78.2262 124.377 72.5902C125.047 71.544 125.671 70.4237 125.828 69.1917C125.986 67.9596 125.586 66.5858 124.559 65.8866C123.363 65.0721 121.738 65.3815 120.398 65.9278C117.363 67.1662 116.188 69.0225 114.031 71.1926C112.895 72.3359 111.631 73.3671 110.302 74.3075Z" fill="#EB9A7A"/>
<path d="M116.097 68.7136C113.419 71.0532 110.539 73.1619 107.501 75.0092C106.246 75.7725 107.624 76.6243 108.111 77.3999C108.55 78.0967 109.101 78.7179 109.522 79.4246C109.796 79.8834 112.591 84.653 112.828 84.533C116.092 82.8771 119.593 80.3441 121.965 77.558C122.514 76.9138 120.494 74.329 120.224 73.7538C119.472 72.1524 118.697 70.5666 117.847 69.0058C117.499 68.3661 116.645 68.2346 116.097 68.7136Z" fill="#EAEAEA"/>
<path d="M138.006 52.2349C138.083 54.7156 138.222 57.1875 138.416 59.6714C138.61 62.1517 138.792 67.6874 135.388 68.3066C134.411 68.492 133.526 67.8598 132.902 67.176C132.436 66.6658 132.061 66.0735 131.741 65.4639C131.11 64.2635 130.442 63.1266 129.861 61.8882C129.677 61.4964 129.491 61.0995 129.41 60.6744C129.3 60.104 129.383 59.5161 129.466 58.9409C129.643 57.716 129.82 56.4911 129.998 55.2658C130.188 53.9498 130.658 52.9064 131.276 51.7492C132.113 50.1821 137.89 45.6921 137.951 49.8342C137.962 50.6352 137.981 51.4355 138.006 52.2349Z" fill="#EB9A7A"/>
<path d="M128.563 41.4577C128.705 41.2699 130.216 41.4922 130.475 41.5108C131.089 41.5548 131.701 41.6257 132.307 41.7295C133.378 41.9125 134.436 42.1945 135.437 42.6208C136.992 43.2836 138.485 44.3377 139.247 45.8922C139.729 46.8754 139.927 48.172 139.838 49.2491C139.702 50.9165 139.025 52.5356 137.933 53.8041C136.49 55.4805 134.419 56.364 132.27 56.6595C131.097 56.8207 130.031 56.3529 129.255 55.4802C127.37 53.362 127.028 49.9396 127.099 47.2335C127.149 45.334 127.381 43.0312 128.563 41.4577Z" fill="#EB9A7A"/>
<path d="M138.282 50.0421C139.485 51.5175 141.922 49.5431 140.548 47.7219C140.067 47.0838 139.116 46.6682 138.546 47.2281C137.912 47.8498 137.695 49.1652 138.282 50.0421Z" fill="#EB9A7A"/>
<path d="M150.343 69.0049C149.493 67.1073 148.442 65.3243 147.145 63.7064C146.264 62.6075 145.074 61.7261 143.873 61.0082C142.642 60.2722 141.146 59.6269 139.722 59.3872C138.896 59.2483 137.895 59.5274 137.335 60.1496C136.585 60.9826 135.72 61.7079 134.746 62.2743C134.112 62.6435 133.415 62.9747 132.682 62.9486C131.791 62.9169 130.987 62.35 130.453 61.6357C129.918 60.9223 129.61 60.0698 129.309 59.2311C129.173 58.854 119.069 64.7213 118.06 65.1959C118.04 65.2051 118.02 65.2146 118 65.2243C117.292 65.57 115.902 66.4733 115.195 66.8216C114.847 66.9929 114.716 67.4082 114.86 67.7682C115.316 68.911 116.169 69.8954 117.244 70.4968C117.617 70.7059 118.025 70.8771 118.321 71.1861C118.576 71.4531 118.727 71.8009 118.868 72.1428C119.564 73.8359 119.985 75.72 120.868 77.2475C121.412 78.1884 121.684 78.2486 121.709 79.5487C121.745 81.4336 121.599 83.328 121.514 85.2117C121.372 88.3432 121.256 91.4756 121.198 94.6099C121.173 95.9981 121.071 97.3897 120.929 98.7819C120.498 102.991 123.224 106.857 127.383 107.631C127.86 107.719 128.336 107.808 128.812 107.897C131.429 108.384 133.796 109.091 136.495 109.312C140.196 109.615 143.923 109.61 147.624 109.294C151.315 108.979 154.023 105.844 154.009 102.14C154.001 100.074 153.966 98.0089 153.966 95.8871C153.966 87.4392 154 77.1604 150.343 69.0049Z" fill="#EAEAEA"/>
<path d="M148.742 89.6744C149.828 90.0646 151.084 90.0503 152.495 90.0523C153.251 90.0535 154.029 90.0507 154.729 89.7635C155.956 89.26 156.705 87.946 156.875 86.63C157.243 83.7853 156.303 79.3468 155.364 76.6459C154.72 74.7899 153.753 72.9764 152.205 71.7661C150.657 70.5559 148.439 70.0663 146.679 70.9402C145.225 71.6623 144.296 73.1923 143.955 74.7792C143.613 76.3662 143.786 78.0177 144.058 79.6186C144.512 82.3017 145.063 85.7343 146.656 88.0292C147.258 88.8967 147.956 89.3919 148.742 89.6744Z" fill="#EB9A7A"/>
<path d="M134.649 39.9685C134.924 40.0149 135.197 40.07 135.467 40.1341C137.127 40.5275 138.237 42.2313 139.222 43.6234C140.151 44.9373 139.973 47.5473 138.418 47.1324C138.367 47.1188 138.317 47.1035 138.267 47.0865C137.216 46.7284 136.442 45.845 135.766 44.9652C135.029 44.0049 134.311 42.864 134.511 41.67C134.245 43.2562 131.078 45.3791 129.816 46.1358C129.074 46.5806 124.897 47.4886 125.405 45.7135C125.93 43.8765 126.559 41.8899 128.139 40.8155C128.941 40.2704 129.91 40.0244 130.871 39.8984C132.124 39.7344 133.402 39.7586 134.649 39.9685Z" fill="#191919"/>
<path d="M156.223 158.208V93.1913C156.223 92.4363 155.611 91.8242 154.856 91.8242C154.101 91.8242 153.489 92.4363 153.489 93.1913V158.208C153.489 158.963 154.101 159.575 154.856 159.575C155.611 159.575 156.223 158.963 156.223 158.208Z" fill="#B2B2B2"/>
<path d="M154.928 80.6866C154.97 80.677 155.012 80.6672 155.054 80.6575C156.251 80.378 157.576 78.8502 156.465 78.322C154.833 77.5467 154.939 73.9739 154.507 72.2613C154.046 70.4347 153.252 67.8894 152.121 66.3385C149.207 62.3453 145.621 59.8936 140.739 58.9535C140.528 58.9127 138.419 58.5356 138.383 58.6691C138.018 59.9859 136.439 60.6106 135.88 61.8573C135.728 62.1944 135.72 62.6932 136.064 62.8286C136.324 62.9309 136.599 62.7494 136.839 62.6068C138.119 61.8462 140.635 62.0035 140.833 63.8733C141.486 70.0532 141.627 76.2874 141.252 82.4907C141.247 82.5754 147.118 81.9448 147.503 81.8964C150.052 81.5752 152.492 81.2468 154.928 80.6866Z" fill="#EAEAEA"/>
<path d="M120.469 88.8003C117.938 88.5852 117.777 86.4256 120.293 86.0697C121.311 85.9257 122.325 85.9155 123.285 86.1034C123.842 86.2123 124.392 86.3767 124.959 86.4052C125.714 86.4432 126.457 86.2396 127.19 86.0534C132.578 84.682 138.226 84.293 143.747 83.757C146.697 83.4709 149.697 83.2852 152.602 83.8699C153.511 84.0525 154.432 84.3243 155.151 84.9098C155.869 85.4953 156.344 86.4587 156.123 87.3587C155.664 89.227 151.206 89.351 149.679 89.4389C147.075 89.5883 144.469 89.3181 141.864 89.3763C138.049 89.4615 134.231 89.469 130.417 89.3569C127.097 89.2595 123.779 89.0804 120.469 88.8003Z" fill="#EB9A7A"/>
<path d="M163.216 88.9746H64.7832" stroke="#989898" stroke-width="6" stroke-miterlimit="10"/>
<path d="M158.762 89.4609H69.633C68.2414 89.4609 67.1133 90.589 67.1133 91.9806C67.1133 93.3722 68.2414 94.5003 69.633 94.5003H158.762C160.154 94.5003 161.282 93.3722 161.282 91.9806C161.282 90.589 160.154 89.4609 158.762 89.4609Z" fill="#B2B2B2"/>
<path d="M70.7525 158.364V93.0354C70.7525 92.3665 70.2102 91.8242 69.5413 91.8242C68.8724 91.8242 68.3301 92.3665 68.3301 93.0354V158.364C68.3301 159.033 68.8724 159.575 69.5413 159.575C70.2102 159.575 70.7525 159.033 70.7525 158.364Z" fill="#B2B2B2"/>
<path d="M112.936 129.996C113.251 125.235 116.346 122.379 120.11 119.881C121.965 118.65 124.103 117.755 125.814 116.326C127.681 114.766 129.343 112.898 131.072 111.189" stroke="black" stroke-miterlimit="10"/>
<path d="M114.899 171.767C114.922 171.844 114.796 171.892 114.734 171.841C114.673 171.789 114.666 171.698 114.665 171.618C114.661 171.282 114.67 170.946 114.693 170.611C114.703 170.468 114.721 170.312 114.826 170.215C115.058 170 115.425 170.27 115.566 170.553C115.707 170.835 115.84 171.197 116.152 171.245C116.471 171.294 116.726 170.945 116.742 170.623C116.758 170.3 116.623 169.992 116.571 169.673C116.52 169.355 116.588 168.969 116.875 168.822C117.269 168.619 117.698 168.999 117.999 169.324C118.3 169.649 118.815 169.963 119.14 169.663C119.626 169.215 118.756 168.437 118.93 167.801" stroke="#092409" stroke-miterlimit="10"/>
<path d="M83.464 165.461C83.4169 164.901 83.5167 164.33 83.7512 163.819C83.8317 163.644 83.9434 163.462 84.126 163.401C84.4512 163.292 84.7666 163.64 84.8204 163.978C84.8743 164.317 84.7765 164.665 84.8173 165.005C84.8581 165.346 85.1374 165.713 85.4729 165.641C85.9142 165.547 85.8932 164.928 85.9372 164.479C85.9839 164.004 86.2351 163.552 86.6146 163.262C86.6946 163.2 86.7845 163.144 86.8852 163.134C87.212 163.102 87.3724 163.539 87.3269 163.865C87.2813 164.19 87.151 164.546 87.3221 164.826C87.5281 165.164 88.0645 165.137 88.3604 164.875C88.6563 164.613 88.7732 164.209 88.8766 163.828" stroke="#092409" stroke-miterlimit="10"/>
<path d="M71.2239 135.657C70.1289 133.908 65.8913 133.617 63.9438 133.288C62.9967 133.128 61.9385 132.936 61.3804 132.154" stroke="#0C75EB" stroke-miterlimit="10"/>
<path d="M75.7757 175.193C81.294 175.974 86.8826 176.256 92.4514 176.036C93.3012 176.002 93.7624 175.226 93.11 174.68C90.2434 172.283 86.9867 171.198 83.5945 169.685C83.4186 169.607 83.2364 169.523 83.1151 169.374C83.0026 169.235 82.9555 169.056 82.9143 168.882C82.6358 167.708 82.3775 166.385 82.4504 165.172C82.5011 164.331 83.0133 163.535 82.2626 162.84C81.1277 161.789 78.3598 163.071 77.4138 163.859C75.1736 165.727 74.8669 170.271 74.4605 173.455C74.3531 174.297 74.9359 175.075 75.7757 175.193Z" fill="#EB9A7A"/>
<path d="M51.8807 165.045C55.9452 168.234 60.2873 171.067 64.8423 173.504C65.4234 173.815 66.0897 173.243 65.8699 172.622C65.8683 172.616 65.8663 172.612 65.8647 172.607C64.6283 169.127 62.5105 165.964 59.7636 163.495C59.7018 163.439 63.2359 158.733 62.6745 157.54C62.0847 156.287 59.4214 155.815 58.1727 156.018C55.6164 156.435 53.3112 159.557 51.4853 161.947C50.7469 162.913 50.924 164.295 51.8807 165.045Z" fill="#EB9A7A"/>
<path d="M73.8683 146.759C73.6857 145.999 73.5031 145.239 73.3204 144.479C72.9413 142.902 72.5622 141.325 72.1831 139.748" stroke="#0C75EB" stroke-miterlimit="10"/>
<path d="M49.8907 134.092L47.9849 173.423" stroke="#2F2F2F" stroke-width="4" stroke-miterlimit="10"/>
<path d="M38.104 128.58L41.6432 169.935" stroke="#2F2F2F" stroke-width="4" stroke-miterlimit="10"/>
<path d="M28.1838 131.719L22.1548 168.997" stroke="#2F2F2F" stroke-width="4" stroke-miterlimit="10"/>
<path d="M57.4107 52.0902C56.7717 54.1909 55.0833 56.1115 52.9057 56.3947C52.3677 56.4648 51.7711 56.4525 51.3568 56.8031C50.9816 57.1205 50.8707 57.6438 50.7816 58.1267C50.3874 60.2686 49.9932 62.411 49.5991 64.553C49.5495 64.822 49.4858 65.1159 49.2699 65.2843C49.0718 65.4388 48.7992 65.4439 48.5481 65.4427C47.492 65.4367 46.0852 65.5884 44.6448 65.6352C41.1005 65.7505 40.285 62.0948 40.8645 58.5963C41.0472 57.4928 41.163 56.3736 41.2518 55.2641C41.5002 52.1619 41.5727 49.0097 42.4514 46.0243C43.33 43.039 45.1626 40.1641 47.9891 38.8624C56.2337 35.0653 59.2037 46.1923 57.4107 52.0902Z" fill="#EB9A7A"/>
<path d="M21.1027 121.797C20.5869 125.558 21.2715 129.157 24.7592 131.364C26.4297 132.42 28.5135 132.717 30.5211 132.967C35.9908 133.647 41.4786 134.177 46.9771 134.56C52.2035 134.923 56.9406 134.46 62.1025 133.577C63.1071 133.405 64.122 133.237 65.1401 133.287C66.7608 133.366 68.2768 133.993 69.7287 134.67C71.408 135.453 71.406 135.638 71.2685 137.342C70.9892 140.803 71.4674 144.348 71.5712 147.809C71.7039 152.233 71.8366 156.658 71.9693 161.083C71.9951 161.941 72.0232 162.815 72.2918 163.631C72.8773 165.409 74.5443 166.661 76.3257 167.235C78.1076 167.809 80.0159 167.81 81.8877 167.806C83.1177 167.803 84.4389 167.773 85.4348 167.051C86.7333 166.109 87.042 164.336 87.2472 162.744C88.3144 154.463 87.8022 146.879 88.2229 138.54C88.5021 133.002 89.9711 126.06 85.6067 122.249C82.6617 119.677 78.5584 118.645 74.6346 117.703C72.5944 117.213 55.7807 115.181 55.7368 114.977C54.5055 109.237 51.7852 103.285 46.2914 100.363C41.9912 98.0753 36.358 98.103 32.0843 100.432C27.5675 102.894 26.8821 106.436 24.9996 110.498C23.6626 113.386 21.6664 117.688 21.1027 121.797Z" fill="#858585"/>
<path d="M44.3857 129.588C49.1933 129.924 54.0057 130.202 58.8221 130.373C63.196 130.529 63.0633 133.728 61.9267 137.053C60.257 141.936 57.9748 146.603 55.4006 151.074C54.3425 152.912 53.1822 155.001 53.7843 157.034C54.2573 158.631 55.7052 159.722 57.127 160.589C58.7615 161.586 60.48 162.445 62.2579 163.155C62.7895 163.367 63.3449 163.569 63.9174 163.545C66.9542 163.418 68.1118 158.407 69.6104 156.407C72.6659 152.329 74.7144 147.828 76.9716 143.327C79.5141 138.259 82.0598 133.357 83.8801 127.958C84.8625 125.044 85.631 121.627 83.9308 119.065C82.7138 117.232 80.5326 116.333 78.481 115.536C69.6183 112.093 59.8137 108.379 50.1425 109.362C46.7875 109.703 43.4147 110.669 40.6148 112.596C37.917 114.454 34.7007 115.359 32.6316 118.107C30.4662 120.981 30.8822 123.667 32.3836 126.628C34.5679 130.935 40.4274 129.312 44.3857 129.588Z" fill="#858585"/>
<path d="M58.2521 116.101C58.2949 116.074 58.3377 116.047 58.3805 116.021C59.1031 115.57 59.872 115.064 60.1742 114.268C60.6108 113.118 59.9164 111.885 59.3621 110.787C57.423 106.946 57.0922 101.959 56.8613 97.714C56.6493 93.8151 57.3267 89.7181 57.505 85.8145C57.7684 80.0533 57.0637 77.8151 57.7447 72.0824C58.4344 66.2725 51.9324 62.0527 47.6037 61.7109C43.3209 61.3722 40.1121 60.9412 37.0832 64.3544C34.1251 67.688 32.6261 72.0436 31.2598 76.2071C27.6307 87.2656 24.3383 98.4342 21.389 109.693C19.8416 115.6 23.8467 117.117 28.9106 117.405C31.5882 117.557 34.2254 118.082 36.8677 118.154C39.3959 118.223 42.1828 118.524 44.6552 119.058C46.6917 119.497 48.1777 120.777 50.4651 120.279C52.1225 119.917 53.5982 119.004 55.0374 118.106C56.1086 117.438 57.1806 116.77 58.2521 116.101Z" fill="#CBE1FB"/>
<path d="M81.1676 74.5255C79.7799 74.686 78.141 75.1078 76.9827 75.9136C75.7645 76.761 74.8359 77.9554 73.6293 78.8186C73.0921 79.2028 72.5066 79.513 71.9243 79.8248C70.0695 80.8183 68.2298 81.8404 66.4063 82.8902C64.6995 83.8729 61.401 82.1845 61.1352 80.233C60.9564 78.9207 60.7208 77.6156 60.4788 76.3371C59.875 73.1485 55.7907 73.446 53.6935 70.9697C53.3112 70.5185 54.5231 66.5871 53.9455 66.7887C50.8234 67.8789 48.26 69.5396 47.0228 72.7222C45.5151 76.6017 46.0946 80.9712 47.1317 85.002C48.5701 90.5929 50.9106 96.0629 54.7615 100.364C55.4536 101.137 56.2067 101.88 57.1242 102.366C60.1531 103.968 62.6235 102.15 64.613 99.9305C67.464 96.749 70.2034 93.4673 72.8239 90.0933C74.9338 87.377 77.2148 82.0107 81.2468 82.2349C82.2998 82.2936 83.3369 82.5574 84.3914 82.5594C85.6496 82.5618 87.4632 82.0761 88.4959 81.3389C88.563 81.291 88.6226 81.2304 88.6718 81.1621C88.9723 80.7459 88.9016 80.0267 89.4138 80.0609C89.6927 80.0799 89.9747 80.1655 90.2465 80.1005C90.5183 80.0355 90.7591 79.723 90.6165 79.4825C90.5468 79.3649 90.4109 79.3062 90.2837 79.2551C88.465 78.5234 87.0088 77.4903 85.2451 76.6881C84.9908 76.5724 83.4585 75.8177 84.4623 75.525C84.6739 75.4632 84.8989 75.5262 85.1188 75.54C85.4835 75.563 85.4132 75.1683 85.0699 75.0431C83.6979 74.5425 82.4327 74.3791 81.1676 74.5255Z" fill="#EB9A7A"/>
<path d="M43.4377 82.9218C43.6842 86.1195 43.8894 88.7344 43.7951 88.7653C48.4861 87.2396 53.0782 85.4107 57.5342 83.2947C60.3539 81.9557 62.0822 78.9614 61.1836 75.9721C59.4671 70.2617 55.5151 64.2984 50.0479 62.3617C43.2005 59.9357 43.8268 65.7598 42.8701 71.5507C42.6645 72.7958 43.0919 78.4326 43.4377 82.9218Z" fill="#CBE1FB"/>
<path d="M41.5547 39.7402C40.2648 40.9596 40.6174 41.9991 40.5948 43.5349C40.5727 45.0514 39.7201 45.2697 38.9821 46.5433C37.9137 48.3862 39.1006 49.0925 40.0137 50.4806C40.7731 51.6354 40.062 53.0793 40.6935 54.1093C42.368 56.8412 47.7707 54.1315 49.3049 52.6507C50.3151 51.6758 51.5262 50.6101 52.2487 49.3928C52.6881 48.6532 52.8053 47.2908 53.8927 47.227C54.1292 47.2132 54.3705 47.2659 54.601 47.2108C55.9796 46.8808 54.6593 44.0448 55.7542 43.0615C56.3393 42.5363 57.0908 42.1766 57.5282 41.5229C58.078 40.7009 57.9988 39.6186 57.8134 38.6473C57.6458 37.7698 57.3927 36.8733 56.8092 36.1971C56.0565 35.3248 54.8209 34.9484 53.6788 35.1017C52.5367 35.2551 51.4949 35.8901 50.7061 36.7303C50.2624 37.2029 49.8774 37.7512 49.3192 38.0808C48.4243 38.6092 47.3064 38.4611 46.2685 38.4084C44.9782 38.343 43.6392 38.4639 42.496 39.066C42.1569 39.2451 41.8372 39.4736 41.5547 39.7402Z" fill="#191919"/>
<path d="M49.7455 49.918C49.1124 48.7755 49.5244 47.1715 50.6293 46.4751C52.618 45.222 55.0285 47.1418 54.2945 49.359C53.6135 51.4158 50.8571 51.9249 49.7455 49.918Z" fill="#EB9A7A"/>
<path d="M52.9671 47.0525C51.8171 46.8822 50.6318 47.8623 50.5835 49.0238" stroke="black" stroke-miterlimit="10"/>
<path d="M55.4912 51.4629C55.9404 51.7861 56.5786 51.8222 57.0615 51.5508" stroke="black" stroke-miterlimit="10"/>
<path d="M62.5529 131.816C62.5066 131.816 62.4598 131.816 62.4119 131.816C57.2929 131.816 54.5072 129.137 52.1901 124.819C49.7609 120.291 47.5318 115.321 45.8236 110.487C44.159 105.775 43.9268 100.696 42.3664 95.9534C41.382 92.9617 39.8826 90.1403 37.9537 87.6505C37.1693 86.638 36.2974 85.6654 35.2049 84.9971C34.2291 84.4005 33.1164 84.0705 32.006 83.7976C27.4804 82.6852 21.5278 81.3506 16.9119 82.2914C16.1573 82.4451 15.3939 82.6468 14.7553 83.0778C13.4147 83.9822 12.8946 85.6836 12.5745 87.269C11.4605 92.7854 12.4632 98.192 12.0021 103.679C11.5207 109.405 13.1204 115.561 13.9713 121.211C16.6275 138.853 38.3019 137.692 51.6799 136.383C55.5756 136.002 59.4757 135.62 63.3314 134.946C63.8709 134.852 64.4426 134.735 64.8375 134.356C66.3409 132.912 63.638 131.817 62.5529 131.816Z" fill="#2F2F2F"/>
<path d="M76.3409 85.0781C75.7237 85.9829 75.1065 86.8881 74.4893 87.7929" stroke="#191919" stroke-miterlimit="10"/>
<path d="M60.0557 134.092L67.0881 173.423" stroke="#2F2F2F" stroke-width="4" stroke-miterlimit="10"/>
<path d="M54.8445 133.822C54.7534 133.959 54.6623 134.096 54.5708 134.233L54.8445 133.822Z" fill="#99C9FF"/>
</svg>
