<svg width="40" height="40" viewBox="0 0 40 40" fill="none" xmlns="http://www.w3.org/2000/svg">
<rect width="40" height="40" rx="8" fill="#FFF8EA"/>
<path fill-rule="evenodd" clip-rule="evenodd" d="M24.7874 11.2739H14.4844C14.203 11.2739 14.0623 11.2739 13.9437 11.2848C12.6252 11.4058 11.5798 12.5026 11.4645 13.8859C11.4541 14.0104 11.4541 14.158 11.4541 14.4533V27.8737C11.4541 28.6669 12.4166 29.0035 12.8702 28.369C13.1849 27.9287 13.8142 27.9287 14.1289 28.369L14.5223 28.9192C15.0336 29.6346 16.0564 29.6346 16.5677 28.9192C17.0791 28.2039 18.1018 28.2039 18.6132 28.9192C19.1246 29.6346 20.1473 29.6346 20.6586 28.9192C21.17 28.2039 22.1927 28.2039 22.7041 28.9192C23.2155 29.6346 24.2382 29.6346 24.7496 28.9192L25.1429 28.369C25.4576 27.9287 26.087 27.9287 26.4017 28.369C26.8553 29.0035 27.8177 28.6669 27.8177 27.8737V14.4533C27.8177 14.1581 27.8177 14.0104 27.8074 13.8859C27.692 12.5026 26.6467 11.4058 25.3282 11.2848C25.2095 11.2739 25.0688 11.2739 24.7874 11.2739ZM19.6359 16.9179C17.7329 16.9179 16.1901 18.4607 16.1901 20.3637C16.1901 22.2668 17.7329 23.8095 19.6359 23.8095C21.539 23.8095 23.0817 22.2668 23.0817 20.3637C23.0817 18.4607 21.539 16.9179 19.6359 16.9179ZM14.6901 20.3637C14.6901 17.6322 16.9044 15.4179 19.6359 15.4179C22.3674 15.4179 24.5817 17.6322 24.5817 20.3637C24.5817 23.0952 22.3674 25.3095 19.6359 25.3095C16.9044 25.3095 14.6901 23.0952 14.6901 20.3637ZM20.3859 18.6854C20.3859 18.2712 20.0501 17.9354 19.6359 17.9354C19.2217 17.9354 18.8859 18.2712 18.8859 18.6854V20.3637C18.8859 20.5627 18.9649 20.7534 19.1056 20.8941L20.1545 21.943C20.4474 22.2359 20.9223 22.2359 21.2152 21.943C21.5081 21.6501 21.5081 21.1753 21.2152 20.8824L20.3859 20.0531V18.6854Z" fill="#FFB126"/>
</svg>
