<svg width="18" height="22" viewBox="0 0 18 22" fill="none" xmlns="http://www.w3.org/2000/svg">
<path fill-rule="evenodd" clip-rule="evenodd" d="M9 8.25014C6.92893 8.25014 5.25 9.92907 5.25 12.0001C5.25 14.0712 6.92893 15.7501 9 15.7501C11.0711 15.7501 12.75 14.0712 12.75 12.0001C12.75 9.92907 11.0711 8.25014 9 8.25014ZM6.75 12.0001C6.75 10.7575 7.75736 9.75014 9 9.75014C10.2426 9.75014 11.25 10.7575 11.25 12.0001C11.25 13.2428 10.2426 14.2501 9 14.2501C7.75736 14.2501 6.75 13.2428 6.75 12.0001Z" fill="#092333"/>
<path d="M7 17.2501C6.58579 17.2501 6.25 17.5859 6.25 18.0001C6.25 18.4144 6.58579 18.7501 7 18.7501H11C11.4142 18.7501 11.75 18.4144 11.75 18.0001C11.75 17.5859 11.4142 17.2501 11 17.2501H7Z" fill="#092333"/>
<path fill-rule="evenodd" clip-rule="evenodd" d="M12.6111 0.58382C14.2678 0.347149 15.75 1.63267 15.75 3.30618V4.68266C16.9395 5.31141 17.75 6.56112 17.75 8.00014V18.0001C17.75 20.0712 16.0711 21.7501 14 21.7501H4C1.92893 21.7501 0.25 20.0712 0.25 18.0001V4.00014H0.25136C0.250456 3.97657 0.25 3.95289 0.25 3.92909C0.25 3.02284 0.916381 2.25449 1.81353 2.12633L12.6111 0.58382ZM2.07107 5.75016L2.06244 5.75014H1.75V18.0001C1.75 19.2428 2.75736 20.2501 4 20.2501H14C15.2426 20.2501 16.25 19.2428 16.25 18.0001V8.00014C16.25 6.7607 15.2478 5.75533 14.0096 5.75016H2.07107ZM14.25 4.25016H14.0125L14 4.25014H2.0674C1.89177 4.24818 1.75 4.10519 1.75 3.92909C1.75 3.76931 1.86749 3.63385 2.02566 3.61125L12.8232 2.06874C13.5763 1.96117 14.25 2.54549 14.25 3.30618V4.25016Z" fill="#092333"/>
</svg>
