<svg width="233" height="236" viewBox="0 0 233 236" fill="none" xmlns="http://www.w3.org/2000/svg">
<path opacity="0.9" d="M188.4 101.811C159.515 93.2915 153.693 84.5615 131.8 66.9997C113.902 52.6422 87.2942 42.5141 61.83 46.6013C-5.25174 57.3682 21.2552 134.536 46.9858 164.891C65.1016 186.263 85.3516 188.829 114.313 183.023C125.577 180.765 136.883 176.415 148.375 175.945C160.722 175.44 169.803 181.864 180.922 182.025C234.815 182.806 226.903 113.167 188.4 101.811Z" fill="#CEE5FF"/>
<path d="M166.948 57.7795H68.3626C67.4647 57.7795 66.7368 57.0521 66.7368 56.1547V49.6247C66.7368 48.7274 67.4647 48 68.3626 48H166.948C167.846 48 168.574 48.7274 168.574 49.6247V56.1547C168.574 57.0521 167.846 57.7795 166.948 57.7795Z" fill="#4A5258"/>
<path d="M166.804 53.2831C165.494 53.2831 164.317 53.8111 163.469 54.669C162.611 55.5159 162.082 56.6928 162.082 58.0016V183.05C162.082 187.441 158.521 191 154.127 191H68.3672V63.633C68.3672 57.9136 73.0007 53.2831 78.7127 53.2831H166.804Z" fill="#F3F6FD"/>
<path d="M155.222 191C126.327 191 97.432 191 68.537 191C61.2129 191 61.2129 180.021 68.537 180.021C97.432 180.021 126.327 180.021 155.222 180.021C147.898 180.021 147.898 191 155.222 191Z" fill="#BBCAEA"/>
<path d="M138.46 80.9652C138.46 81.3754 138.121 81.7145 137.71 81.7145H88.8079C88.3895 81.7145 88.0581 81.3754 88.0581 80.9652C88.0581 80.555 88.3895 80.2159 88.8079 80.2159H137.71C138.121 80.2159 138.46 80.555 138.46 80.9652Z" fill="#BBCAEA"/>
<path d="M128.348 86.65C128.348 87.0602 128.009 87.3993 127.598 87.3993H98.9207C98.5023 87.3993 98.1709 87.0602 98.1709 86.65C98.1709 86.2399 98.5023 85.9008 98.9207 85.9008H127.598C128.009 85.9007 128.348 86.2399 128.348 86.65Z" fill="#BBCAEA"/>
<path d="M80.1289 96.7541H77.8242C77.5856 96.7541 77.3921 96.5607 77.3921 96.3222C77.3921 96.0838 77.5856 95.8904 77.8242 95.8904H80.1289C80.3675 95.8904 80.5611 96.0838 80.5611 96.3222C80.5611 96.5607 80.3675 96.7541 80.1289 96.7541Z" fill="#4A5258"/>
<path d="M146.188 96.7541H141.469C141.231 96.7541 141.037 96.5607 141.037 96.3222C141.037 96.0838 141.231 95.8904 141.469 95.8904H146.188C146.427 95.8904 146.62 96.0838 146.62 96.3222C146.62 96.5607 146.427 96.7541 146.188 96.7541ZM136.751 96.7541H132.032C131.794 96.7541 131.6 96.5607 131.6 96.3222C131.6 96.0838 131.794 95.8904 132.032 95.8904H136.751C136.99 95.8904 137.183 96.0838 137.183 96.3222C137.183 96.5607 136.99 96.7541 136.751 96.7541ZM127.314 96.7541H122.595C122.357 96.7541 122.163 96.5607 122.163 96.3222C122.163 96.0838 122.357 95.8904 122.595 95.8904H127.314C127.553 95.8904 127.746 96.0838 127.746 96.3222C127.746 96.5607 127.552 96.7541 127.314 96.7541ZM117.877 96.7541H113.158C112.92 96.7541 112.726 96.5607 112.726 96.3222C112.726 96.0838 112.92 95.8904 113.158 95.8904H117.877C118.116 95.8904 118.309 96.0838 118.309 96.3222C118.309 96.5607 118.115 96.7541 117.877 96.7541ZM108.44 96.7541H103.721C103.483 96.7541 103.289 96.5607 103.289 96.3222C103.289 96.0838 103.483 95.8904 103.721 95.8904H108.44C108.678 95.8904 108.872 96.0838 108.872 96.3222C108.872 96.5607 108.678 96.7541 108.44 96.7541ZM99.0028 96.7541H94.2842C94.0456 96.7541 93.8521 96.5607 93.8521 96.3222C93.8521 96.0838 94.0456 95.8904 94.2842 95.8904H99.0028C99.2414 95.8904 99.4349 96.0838 99.4349 96.3222C99.4349 96.5607 99.2414 96.7541 99.0028 96.7541ZM89.5657 96.7541H84.8472C84.6086 96.7541 84.415 96.5607 84.415 96.3222C84.415 96.0838 84.6086 95.8904 84.8472 95.8904H89.5657C89.8043 95.8904 89.9979 96.0838 89.9979 96.3222C89.9979 96.5607 89.8043 96.7541 89.5657 96.7541Z" fill="#4A5258"/>
<path d="M153.211 96.7541H150.907C150.668 96.7541 150.475 96.5607 150.475 96.3222C150.475 96.0838 150.668 95.8904 150.907 95.8904H153.211C153.45 95.8904 153.644 96.0838 153.644 96.3222C153.644 96.5607 153.45 96.7541 153.211 96.7541Z" fill="#4A5258"/>
<path d="M120.003 114.399H78.307C77.7626 114.399 77.3213 113.958 77.3213 113.414V113.388C77.3213 112.844 77.7626 112.403 78.307 112.403H120.003C120.548 112.403 120.989 112.844 120.989 113.388V113.414C120.989 113.958 120.548 114.399 120.003 114.399Z" fill="#D1DCF8"/>
<path d="M147.926 114.483H130.024C129.48 114.483 129.039 114.042 129.039 113.498V113.473C129.039 112.928 129.48 112.487 130.024 112.487H147.926C148.47 112.487 148.911 112.928 148.911 113.473V113.498C148.911 114.042 148.47 114.483 147.926 114.483Z" fill="#D1DCF8"/>
<path d="M120.003 123.199H78.307C77.7626 123.199 77.3213 122.758 77.3213 122.214V122.188C77.3213 121.644 77.7626 121.203 78.307 121.203H120.003C120.548 121.203 120.989 121.644 120.989 122.188V122.214C120.989 122.758 120.548 123.199 120.003 123.199Z" fill="#D1DCF8"/>
<path d="M147.926 123.283H130.024C129.48 123.283 129.039 122.842 129.039 122.298V122.272C129.039 121.728 129.48 121.287 130.024 121.287H147.926C148.47 121.287 148.911 121.728 148.911 122.272V122.298C148.911 122.842 148.47 123.283 147.926 123.283Z" fill="#D1DCF8"/>
<path d="M120.003 131.998H78.307C77.7626 131.998 77.3213 131.557 77.3213 131.013V130.987C77.3213 130.443 77.7626 130.002 78.307 130.002H120.003C120.548 130.002 120.989 130.443 120.989 130.987V131.013C120.989 131.557 120.548 131.998 120.003 131.998Z" fill="#D1DCF8"/>
<path d="M147.926 132.082H130.024C129.48 132.082 129.039 131.641 129.039 131.097V131.071C129.039 130.527 129.48 130.086 130.024 130.086H147.926C148.47 130.086 148.911 130.527 148.911 131.071V131.097C148.911 131.641 148.47 132.082 147.926 132.082Z" fill="#D1DCF8"/>
<path d="M120.003 140.798H78.307C77.7626 140.798 77.3213 140.357 77.3213 139.813V139.787C77.3213 139.243 77.7626 138.802 78.307 138.802H120.003C120.548 138.802 120.989 139.243 120.989 139.787V139.813C120.989 140.357 120.548 140.798 120.003 140.798Z" fill="#D1DCF8"/>
<path d="M147.926 140.882H130.024C129.48 140.882 129.039 140.441 129.039 139.897V139.871C129.039 139.327 129.48 138.886 130.024 138.886H147.926C148.47 138.886 148.911 139.327 148.911 139.871V139.897C148.911 140.441 148.47 140.882 147.926 140.882Z" fill="#D1DCF8"/>
<path d="M126.428 151.154H123.868V168.769H126.428V151.154Z" fill="#BBCAEA"/>
<path d="M146.896 151.154H146.005V168.769H146.896V151.154Z" fill="#BBCAEA"/>
<path d="M139.195 151.154H136.974V168.769H139.195V151.154Z" fill="#BBCAEA"/>
<path d="M135.236 151.154H134.109V168.769H135.236V151.154Z" fill="#BBCAEA"/>
<path d="M152.029 151.154H148.258V168.769H152.029V151.154Z" fill="#BBCAEA"/>
<path d="M144.444 151.154H143.316V168.769H144.444V151.154Z" fill="#BBCAEA"/>
<path d="M141.885 151.154H140.758V168.769H141.885V151.154Z" fill="#BBCAEA"/>
<path d="M132.372 151.154H128.209V168.769H132.372V151.154Z" fill="#BBCAEA"/>
<path d="M91.4085 171.536C98.164 171.536 103.64 166.064 103.64 159.312C103.64 152.561 98.164 147.089 91.4085 147.089C84.6531 147.089 79.1768 152.561 79.1768 159.312C79.1768 166.064 84.6531 171.536 91.4085 171.536Z" fill="#FF7545"/>
<path d="M84.2288 75.112C83.9941 75.112 83.8128 75.048 83.6848 74.92C83.5568 74.7813 83.4928 74.5893 83.4928 74.344V64.472C83.4928 64.2267 83.5568 64.04 83.6848 63.912C83.8235 63.784 84.0101 63.72 84.2448 63.72H88.0528C89.2688 63.72 90.2021 64.0187 90.8528 64.616C91.5141 65.2133 91.8448 66.0507 91.8448 67.128C91.8448 68.216 91.5141 69.0587 90.8528 69.656C90.2021 70.2533 89.2688 70.552 88.0528 70.552H84.9808V74.344C84.9808 74.5893 84.9168 74.7813 84.7888 74.92C84.6715 75.048 84.4848 75.112 84.2288 75.112ZM84.9808 69.352H87.8608C88.6928 69.352 89.3168 69.1653 89.7328 68.792C90.1595 68.408 90.3728 67.8533 90.3728 67.128C90.3728 66.4027 90.1595 65.8587 89.7328 65.496C89.3168 65.1227 88.6928 64.936 87.8608 64.936H84.9808V69.352ZM95.5777 75.144C95.0444 75.144 94.559 75.0373 94.1217 74.824C93.695 74.6107 93.359 74.3227 93.1137 73.96C92.879 73.5973 92.7617 73.192 92.7617 72.744C92.7617 72.168 92.9057 71.7147 93.1937 71.384C93.4817 71.0533 93.967 70.8187 94.6497 70.68C95.3324 70.5307 96.2497 70.456 97.4017 70.456H98.1537V71.384H97.4337C96.6124 71.384 95.9617 71.4213 95.4817 71.496C95.0124 71.5707 94.6817 71.704 94.4897 71.896C94.2977 72.0773 94.2017 72.3333 94.2017 72.664C94.2017 73.08 94.3457 73.4213 94.6337 73.688C94.9324 73.9547 95.3377 74.088 95.8497 74.088C96.255 74.088 96.6124 73.992 96.9217 73.8C97.231 73.5973 97.4764 73.3307 97.6577 73C97.839 72.6587 97.9297 72.2693 97.9297 71.832V69.992C97.9297 69.3627 97.8017 68.9093 97.5457 68.632C97.2897 68.344 96.8577 68.2 96.2497 68.2C95.8977 68.2 95.535 68.248 95.1617 68.344C94.7884 68.44 94.399 68.5893 93.9937 68.792C93.8337 68.8667 93.695 68.8933 93.5777 68.872C93.4604 68.84 93.3644 68.776 93.2897 68.68C93.2257 68.5733 93.1884 68.4613 93.1777 68.344C93.1777 68.216 93.2044 68.0933 93.2577 67.976C93.3217 67.8587 93.4284 67.7733 93.5777 67.72C94.047 67.4853 94.511 67.32 94.9697 67.224C95.439 67.1173 95.8764 67.064 96.2817 67.064C96.975 67.064 97.5457 67.176 97.9937 67.4C98.4417 67.6133 98.7777 67.9493 99.0017 68.408C99.2257 68.856 99.3377 69.432 99.3377 70.136V74.36C99.3377 74.6053 99.279 74.792 99.1617 74.92C99.0444 75.048 98.8737 75.112 98.6497 75.112C98.4364 75.112 98.2657 75.048 98.1377 74.92C98.0204 74.792 97.9617 74.6053 97.9617 74.36V73.224H98.1057C98.0204 73.6187 97.8604 73.96 97.6257 74.248C97.391 74.536 97.0977 74.76 96.7457 74.92C96.4044 75.0693 96.015 75.144 95.5777 75.144ZM103.343 77.992C103.172 77.992 103.028 77.944 102.911 77.848C102.804 77.7627 102.74 77.64 102.719 77.48C102.708 77.3307 102.74 77.1707 102.815 77L103.903 74.536V75.144L100.879 68.104C100.804 67.9227 100.777 67.7573 100.799 67.608C100.82 67.4587 100.889 67.336 101.007 67.24C101.135 67.144 101.305 67.096 101.519 67.096C101.7 67.096 101.844 67.1387 101.951 67.224C102.057 67.3093 102.159 67.4587 102.255 67.672L104.767 73.864H104.319L106.879 67.672C106.964 67.4587 107.065 67.3093 107.183 67.224C107.3 67.1387 107.46 67.096 107.663 67.096C107.844 67.096 107.983 67.144 108.079 67.24C108.185 67.336 108.249 67.4587 108.271 67.608C108.292 67.7573 108.26 67.9173 108.175 68.088L104.143 77.416C104.036 77.64 103.924 77.7893 103.807 77.864C103.7 77.9493 103.545 77.992 103.343 77.992ZM110.568 75.112C110.344 75.112 110.168 75.048 110.04 74.92C109.912 74.792 109.848 74.6053 109.848 74.36V67.832C109.848 67.5867 109.912 67.4053 110.04 67.288C110.168 67.16 110.344 67.096 110.568 67.096C110.792 67.096 110.963 67.16 111.08 67.288C111.208 67.4053 111.272 67.5867 111.272 67.832V69.192L111.096 68.904C111.299 68.3173 111.624 67.864 112.072 67.544C112.531 67.224 113.075 67.064 113.704 67.064C114.366 67.064 114.899 67.224 115.304 67.544C115.71 67.8533 115.982 68.328 116.12 68.968H115.896C116.088 68.3813 116.43 67.9173 116.92 67.576C117.422 67.2347 118.003 67.064 118.664 67.064C119.251 67.064 119.731 67.1813 120.104 67.416C120.488 67.64 120.776 67.9813 120.968 68.44C121.16 68.888 121.256 69.464 121.256 70.168V74.36C121.256 74.6053 121.192 74.792 121.064 74.92C120.936 75.048 120.76 75.112 120.536 75.112C120.302 75.112 120.12 75.048 119.992 74.92C119.864 74.792 119.8 74.6053 119.8 74.36V70.232C119.8 69.5493 119.683 69.048 119.448 68.728C119.214 68.408 118.819 68.248 118.264 68.248C117.656 68.248 117.171 68.4613 116.808 68.888C116.456 69.304 116.28 69.88 116.28 70.616V74.36C116.28 74.6053 116.216 74.792 116.088 74.92C115.971 75.048 115.795 75.112 115.56 75.112C115.326 75.112 115.144 75.048 115.016 74.92C114.888 74.792 114.824 74.6053 114.824 74.36V70.232C114.824 69.5493 114.707 69.048 114.472 68.728C114.238 68.408 113.843 68.248 113.288 68.248C112.68 68.248 112.195 68.4613 111.832 68.888C111.48 69.304 111.304 69.88 111.304 70.616V74.36C111.304 74.8613 111.059 75.112 110.568 75.112ZM127.198 75.144C126.355 75.144 125.63 74.984 125.022 74.664C124.424 74.3333 123.96 73.8693 123.63 73.272C123.299 72.664 123.134 71.9493 123.134 71.128C123.134 70.3173 123.294 69.608 123.614 69C123.944 68.392 124.392 67.9173 124.958 67.576C125.534 67.2347 126.19 67.064 126.926 67.064C127.448 67.064 127.918 67.1547 128.334 67.336C128.76 67.5067 129.123 67.7573 129.422 68.088C129.72 68.4187 129.944 68.824 130.094 69.304C130.254 69.7733 130.334 70.3067 130.334 70.904C130.334 71.0747 130.28 71.208 130.174 71.304C130.078 71.3893 129.934 71.432 129.742 71.432H124.27V70.504H129.374L129.102 70.728C129.102 70.1733 129.016 69.704 128.846 69.32C128.686 68.9253 128.446 68.6267 128.126 68.424C127.816 68.2213 127.427 68.12 126.958 68.12C126.446 68.12 126.008 68.2427 125.646 68.488C125.283 68.7227 125.006 69.0587 124.814 69.496C124.622 69.9227 124.526 70.4187 124.526 70.984V71.08C124.526 72.04 124.755 72.7653 125.214 73.256C125.672 73.7467 126.334 73.992 127.198 73.992C127.539 73.992 127.886 73.9493 128.238 73.864C128.6 73.7787 128.947 73.624 129.278 73.4C129.438 73.304 129.582 73.2613 129.71 73.272C129.848 73.272 129.96 73.3147 130.046 73.4C130.131 73.4747 130.184 73.5707 130.206 73.688C130.227 73.7947 130.211 73.912 130.158 74.04C130.104 74.168 130.003 74.28 129.854 74.376C129.502 74.6213 129.08 74.8133 128.59 74.952C128.11 75.08 127.646 75.144 127.198 75.144ZM132.865 75.112C132.641 75.112 132.465 75.048 132.337 74.92C132.209 74.792 132.145 74.6053 132.145 74.36V67.832C132.145 67.5867 132.209 67.4053 132.337 67.288C132.465 67.16 132.641 67.096 132.865 67.096C133.089 67.096 133.259 67.16 133.377 67.288C133.505 67.4053 133.569 67.5867 133.569 67.832V69.144L133.393 68.904C133.617 68.296 133.979 67.8373 134.481 67.528C134.993 67.2187 135.574 67.064 136.225 67.064C136.854 67.064 137.371 67.176 137.777 67.4C138.182 67.624 138.486 67.9653 138.689 68.424C138.891 68.8827 138.993 69.464 138.993 70.168V74.36C138.993 74.6053 138.929 74.792 138.801 74.92C138.683 75.048 138.507 75.112 138.273 75.112C138.038 75.112 137.857 75.048 137.729 74.92C137.601 74.792 137.537 74.6053 137.537 74.36V70.248C137.537 69.5547 137.403 69.048 137.137 68.728C136.87 68.408 136.443 68.248 135.857 68.248C135.174 68.248 134.625 68.4613 134.209 68.888C133.803 69.304 133.601 69.8693 133.601 70.584V74.36C133.601 74.8613 133.355 75.112 132.865 75.112ZM144.533 75.144C143.903 75.144 143.375 75.032 142.949 74.808C142.533 74.584 142.218 74.2587 142.005 73.832C141.802 73.4053 141.701 72.8827 141.701 72.264V68.328H140.677C140.485 68.328 140.335 68.28 140.229 68.184C140.122 68.0773 140.069 67.9387 140.069 67.768C140.069 67.5867 140.122 67.448 140.229 67.352C140.335 67.256 140.485 67.208 140.677 67.208H141.701V65.464C141.701 65.2187 141.765 65.0373 141.893 64.92C142.021 64.792 142.202 64.728 142.437 64.728C142.671 64.728 142.847 64.792 142.965 64.92C143.093 65.0373 143.157 65.2187 143.157 65.464V67.208H145.093C145.295 67.208 145.45 67.256 145.557 67.352C145.663 67.448 145.717 67.5867 145.717 67.768C145.717 67.9387 145.663 68.0773 145.557 68.184C145.45 68.28 145.295 68.328 145.093 68.328H143.157V72.136C143.157 72.7227 143.279 73.1653 143.525 73.464C143.77 73.7627 144.175 73.912 144.741 73.912C144.943 73.912 145.114 73.896 145.253 73.864C145.391 73.8213 145.514 73.8 145.621 73.8C145.717 73.7893 145.797 73.8213 145.861 73.896C145.935 73.9707 145.973 74.1093 145.973 74.312C145.973 74.4613 145.946 74.6 145.893 74.728C145.85 74.8453 145.759 74.9253 145.621 74.968C145.493 75.0107 145.322 75.048 145.109 75.08C144.895 75.1227 144.703 75.144 144.533 75.144Z" fill="black"/>
<path d="M91.5268 162.792C91.1588 162.792 90.8708 162.68 90.6628 162.456C90.4548 162.232 90.3268 161.904 90.2788 161.472L89.5108 153.264C89.4308 152.544 89.5668 151.968 89.9188 151.536C90.2708 151.088 90.8068 150.864 91.5268 150.864C92.2148 150.864 92.7348 151.088 93.0868 151.536C93.4388 151.968 93.5748 152.544 93.4948 153.264L92.7268 161.472C92.6788 161.904 92.5508 162.232 92.3428 162.456C92.1508 162.68 91.8788 162.792 91.5268 162.792ZM91.5268 168.12C90.8868 168.12 90.3748 167.928 89.9908 167.544C89.6228 167.16 89.4388 166.664 89.4388 166.056C89.4388 165.464 89.6228 164.984 89.9908 164.616C90.3748 164.232 90.8868 164.04 91.5268 164.04C92.1668 164.04 92.6628 164.232 93.0148 164.616C93.3828 164.984 93.5668 165.464 93.5668 166.056C93.5668 166.664 93.3828 167.16 93.0148 167.544C92.6628 167.928 92.1668 168.12 91.5268 168.12Z" fill="white"/>
<path d="M19.4485 176.59L19 163.217L32.3732 162.769L32.8217 176.142L19.4485 176.59ZM20.1966 164.336L20.5675 175.394L31.625 175.023L31.2541 163.965L20.1966 164.336Z" fill="black"/>
<path d="M215.343 68.1707C215.343 69.9221 213.923 71.3423 212.171 71.3423C210.42 71.3423 209 69.9222 209 68.1707C209 66.4192 210.42 64.9991 212.171 64.9991C213.923 64.9991 215.343 66.4192 215.343 68.1707Z" fill="#407BFF"/>
<path d="M50.5762 158.207C50.5762 160.531 48.6921 162.415 46.368 162.415C44.0441 162.415 42.1602 160.531 42.1602 158.207C42.1602 155.883 44.0441 153.999 46.368 153.999C48.6921 153.999 50.5762 155.883 50.5762 158.207Z" fill="#407BFF"/>
<path d="M175.233 36.9404L175 37.8341L183.883 40.1493L184.116 39.2556L175.233 36.9404Z" fill="black"/>
<path d="M180.261 33.9992L177.945 42.8827L178.838 43.1157L181.155 34.2322L180.261 33.9992Z" fill="black"/>
<path d="M200.709 57.7486C196.651 57.3729 193.656 53.7662 194.032 49.7085C194.407 45.6508 198.014 42.6553 202.071 43.031C206.129 43.4066 209.125 47.0134 208.749 51.0711C208.373 55.1287 204.766 58.1242 200.709 57.7486ZM201.97 44.1226C198.515 43.8027 195.443 46.3538 195.123 49.8096C194.804 53.2654 197.354 56.337 200.81 56.657C204.266 56.9769 207.337 54.4258 207.657 50.97C207.977 47.5142 205.426 44.4425 201.97 44.1226Z" fill="black"/>
</svg>
