<svg width="200" height="150" viewBox="0 0 200 150" fill="none" xmlns="http://www.w3.org/2000/svg">
<g clip-path="url(#clip0_1_2458)">
<g opacity="0.3">
<path d="M16.9802 144.41H188.298C195.313 144.41 200.132 137.149 197.424 130.565C197.406 130.522 197.388 130.478 197.37 130.435C194.554 123.663 190.374 117.131 190.241 109.786C190.097 101.81 194.739 94.6848 197.719 87.2965C200.698 79.9082 201.525 70.1738 195.437 65.0927C188.801 59.5541 192.287 8.52132 142.026 1.5901C134.582 0.563656 127.13 1.96572 120.629 5.75982C114.129 9.55439 107.878 14.3053 100.483 15.6155C90.3983 17.4026 70.5533 4.55149 60.5382 2.40055C44.4403 -1.05677 27.0373 4.02524 15.1165 15.5032C-2.30696 32.2806 2.56908 85.4908 0.830595 100.968C-0.348258 111.464 -0.873899 122.537 3.48208 132.14C5.10045 135.708 7.40415 138.925 10.1869 141.653C12.0074 143.437 14.4526 144.409 16.9798 144.409L16.9802 144.41Z" fill="#D2E4FF"/>
</g>
<path d="M142.927 6.49733H129.598C129.517 6.49733 129.451 6.43054 129.451 6.34812C129.451 6.2657 129.517 6.19891 129.598 6.19891H142.927C143.008 6.19891 143.073 6.2657 143.073 6.34812C143.073 6.43054 143.008 6.49733 142.927 6.49733Z" fill="#C6E2FA"/>
<path d="M142.927 13.2192H129.598C129.517 13.2192 129.451 13.1524 129.451 13.07C129.451 12.9876 129.517 12.9208 129.598 12.9208H142.927C143.008 12.9208 143.073 12.9876 143.073 13.07C143.073 13.1524 143.008 13.2192 142.927 13.2192Z" fill="#C6E2FA"/>
<path d="M140.506 9.85801H121.652C121.571 9.85801 121.505 9.79123 121.505 9.70881C121.505 9.62639 121.571 9.5596 121.652 9.5596H140.506C140.587 9.5596 140.652 9.62639 140.652 9.70881C140.652 9.79123 140.587 9.85801 140.506 9.85801Z" fill="#C6E2FA"/>
<path d="M132.341 6.49733C132.26 6.49733 132.194 6.43054 132.194 6.34812V3.49094C132.194 3.40852 132.26 3.34174 132.341 3.34174C132.422 3.34174 132.488 3.40852 132.488 3.49094V6.34812C132.488 6.43054 132.422 6.49733 132.341 6.49733Z" fill="#C6E2FA"/>
<path d="M137.028 9.85803C136.947 9.85803 136.881 9.79124 136.881 9.70883V6.34766C136.881 6.26524 136.947 6.19846 137.028 6.19846C137.109 6.19846 137.174 6.26524 137.174 6.34766V9.70883C137.174 9.79124 137.109 9.85803 137.028 9.85803Z" fill="#C6E2FA"/>
<path d="M133.462 13.1069C133.381 13.1069 133.315 13.0401 133.315 12.9577V9.70881C133.315 9.62639 133.381 9.5596 133.462 9.5596C133.543 9.5596 133.609 9.62639 133.609 9.70881V12.9577C133.609 13.0401 133.543 13.1069 133.462 13.1069Z" fill="#C6E2FA"/>
<path d="M64.358 110.979L62.5119 110.326L62.6404 109.95L64.4865 110.603L64.358 110.979ZM60.6659 109.668C60.0513 109.448 59.4372 109.226 58.8227 109.001L58.9549 108.627C59.5685 108.851 60.1822 109.073 60.7958 109.293L60.6659 109.668ZM56.9845 108.32C56.3723 108.091 55.761 107.859 55.1511 107.624L55.2893 107.252C55.8983 107.486 56.5082 107.718 57.1195 107.947L56.9845 108.32V108.32ZM53.3241 106.907C52.7161 106.664 52.1104 106.418 51.506 106.167L51.6541 105.799C52.2561 106.049 52.8604 106.294 53.4666 106.536L53.3237 106.907L53.3241 106.907ZM49.6986 105.399C49.0971 105.137 48.4988 104.871 47.9034 104.599L48.0635 104.236C48.6567 104.507 49.2526 104.772 49.8518 105.033L49.6982 105.399H49.6986ZM46.1239 103.765C45.5326 103.479 44.9451 103.188 44.3621 102.891L44.5372 102.535C45.1178 102.831 45.703 103.121 46.2915 103.405L46.1244 103.764L46.1239 103.765ZM42.6199 101.974C42.0408 101.66 41.463 101.336 40.9024 101.011L41.0956 100.665C41.6529 100.988 42.2284 101.31 42.8038 101.623L42.6199 101.974ZM39.2128 99.9984C38.6518 99.6503 38.0945 99.2912 37.5549 98.9317L37.7695 98.5992C38.3054 98.9568 38.8594 99.313 39.4167 99.6588L39.2128 99.9984ZM35.9328 97.8082C35.3964 97.4217 34.8643 97.0243 34.3521 96.6254L34.5896 96.3095C35.098 96.705 35.6255 97.1 36.1586 97.4832L35.9323 97.8082H35.9328ZM32.8176 95.3811C32.3115 94.9534 31.8124 94.5138 31.3342 94.0738L31.5964 93.7787C32.0708 94.2149 32.5657 94.6512 33.0671 95.0751L32.8176 95.3811ZM29.9077 92.7011C29.4449 92.235 28.9863 91.7509 28.5449 91.2616L28.8327 90.9925C29.2703 91.4771 29.7243 91.9569 30.1824 92.4183L29.9072 92.7011H29.9077ZM27.2511 89.7581C26.8335 89.2494 26.4219 88.7232 26.028 88.195L26.3395 87.9544C26.7292 88.4778 27.137 88.9989 27.5509 89.5033L27.2506 89.7581H27.2511ZM24.8766 86.5756C24.5074 86.0294 24.1452 85.4672 23.8011 84.904L24.1335 84.6937C24.4748 85.2517 24.8333 85.8092 25.1993 86.3501L24.8771 86.5756H24.8766ZM22.802 83.1841C22.4831 82.6048 22.1734 82.0108 21.8815 81.4192L22.2312 81.2411C22.5198 81.8275 22.8267 82.4158 23.1433 82.9899L22.802 83.1846V83.1841ZM21.0407 79.6131C20.7762 79.0092 20.5211 78.3891 20.2823 77.77L20.6463 77.6246C20.8829 78.238 21.1357 78.8528 21.3978 79.4511L21.0402 79.6131H21.0407ZM19.6086 75.8933C19.3976 75.2615 19.1998 74.6201 19.0201 73.9873L19.3958 73.8769C19.5736 74.5036 19.7696 75.1393 19.9787 75.7655L19.6081 75.8933H19.6086ZM18.5177 72.0552C18.3645 71.4058 18.2258 70.7483 18.1052 70.1013L18.4893 70.0269C18.609 70.6678 18.7463 71.3186 18.8981 71.9624L18.5177 72.0552ZM17.7835 68.1304C17.6913 67.4686 17.614 66.8008 17.5539 66.1452L17.9436 66.1083C18.0028 66.7572 18.0791 67.4189 18.1708 68.074L17.7835 68.1299V68.1304ZM17.418 64.152C17.3915 63.5462 17.3784 62.9337 17.3784 62.3331V62.1536L17.77 62.1564V62.3331C17.77 62.928 17.783 63.5343 17.8091 64.1345L17.418 64.152ZM17.8268 60.1779L17.4366 60.1561C17.4697 59.5404 17.5167 58.9194 17.5777 58.3117L17.5926 58.1643L17.9813 58.2051L17.9664 58.3519C17.9069 58.9535 17.8598 59.5678 17.8272 60.1779H17.8268ZM18.2332 56.2431L17.8468 56.1816C17.9474 55.5303 18.0652 54.869 18.1983 54.2154L18.581 54.2964C18.4493 54.9434 18.3324 55.5985 18.2332 56.2431ZM19.0229 52.3695L18.6439 52.2695C18.8064 51.6324 18.987 50.9859 19.1821 50.3478L19.5555 50.4658C19.3627 51.0981 19.1835 51.7385 19.0229 52.3695ZM20.1766 48.59L19.8092 48.4541C20.0318 47.8308 20.2715 47.2046 20.523 46.5931L20.8838 46.7461C20.6352 47.3519 20.3972 47.9724 20.1766 48.59ZM21.6743 44.9371L21.321 44.7675C21.5994 44.1674 21.8955 43.5663 22.2004 42.9813L22.5454 43.1679C22.2433 43.7477 21.9504 44.3431 21.6743 44.9376V44.9371ZM23.4948 41.4395L23.1582 41.2377C23.4887 40.6665 23.8365 40.0952 24.1922 39.5396L24.52 39.7566C24.1675 40.307 23.8225 40.873 23.4952 41.4395H23.4948ZM25.6183 38.1224L25.3008 37.8903C25.6821 37.3503 26.0787 36.8127 26.4801 36.2936L26.7869 36.5394C26.3888 37.0543 25.9959 37.5867 25.6178 38.1219L25.6183 38.1224ZM28.0244 35.0118L27.7283 34.7518C28.1548 34.2487 28.5975 33.75 29.0436 33.2687L29.3276 33.542C28.8853 34.0185 28.4472 34.513 28.0244 35.0118ZM30.695 32.1338L30.4231 31.8477C30.8896 31.3882 31.3743 30.9316 31.8641 30.4911L32.1229 30.789C31.6378 31.2258 31.1573 31.6781 30.695 32.1333V32.1338ZM33.61 29.5125L33.3646 29.2027C33.8726 28.7859 34.3964 28.3766 34.9215 27.9854L35.152 28.3061C34.6319 28.6935 34.1128 29.0995 33.6095 29.512L33.61 29.5125ZM36.748 27.1745L36.532 26.8429C36.6633 26.7543 36.7955 26.6662 36.9282 26.5786C37.3454 26.3034 37.7672 26.0362 38.1927 25.7762L38.3943 26.1172C37.973 26.3749 37.5544 26.6402 37.141 26.9125C37.0097 26.9992 36.8788 27.0864 36.7485 27.1745H36.748ZM40.083 25.1334L39.8958 24.7843C40.4643 24.4693 41.0505 24.1605 41.6385 23.8654L41.8112 24.2226C41.2283 24.5148 40.6468 24.8213 40.083 25.1334ZM43.5748 23.3823L43.4161 23.0185C44.0055 22.7518 44.614 22.4908 45.2239 22.2426L45.3692 22.6121C44.7639 22.8584 44.1601 23.1175 43.5753 23.3823H43.5748ZM133.974 22.6893C133.483 22.6893 132.993 22.6869 132.503 22.6831L132.506 22.2852C133.016 22.2895 133.521 22.2895 134.036 22.2914H134.459L134.46 22.6888H134.036C134.016 22.6888 133.995 22.6888 133.974 22.6888L133.974 22.6893ZM136.417 22.6741L136.412 22.2762C137.063 22.2677 137.714 22.2559 138.365 22.2407L138.374 22.6386C137.722 22.6542 137.07 22.6661 136.417 22.6741ZM130.546 22.658C129.894 22.6467 129.241 22.632 128.59 22.614L128.6 22.2161C129.251 22.2336 129.902 22.2483 130.553 22.2601L130.546 22.658ZM140.33 22.5813L140.316 22.1839C140.967 22.1611 141.617 22.1346 142.267 22.1038L142.286 22.5012C141.634 22.5316 140.982 22.5586 140.33 22.5813H140.33ZM126.633 22.5519C125.981 22.5282 125.33 22.5017 124.678 22.4723L124.695 22.0749C125.346 22.1043 125.996 22.1308 126.647 22.1545L126.633 22.5519ZM144.241 22.3989L144.218 22.002C144.868 21.9636 145.517 21.9215 146.167 21.8755L146.194 22.2725C145.543 22.3189 144.892 22.361 144.241 22.3989ZM122.724 22.3762C122.073 22.3411 121.421 22.3037 120.77 22.2639L120.794 21.867C121.444 21.9068 122.094 21.9447 122.744 21.9793L122.724 22.3767V22.3762ZM118.818 22.136C118.167 22.091 117.517 22.0432 116.866 21.9935L116.896 21.597C117.545 21.6467 118.195 21.6946 118.845 21.7391L118.818 22.136ZM148.146 22.1209L148.114 21.7244C148.763 21.6699 149.411 21.6112 150.059 21.5482L150.096 21.9442C149.447 22.0077 148.796 22.0664 148.146 22.1209H148.146ZM47.1901 21.911L47.0579 21.5364C47.6664 21.3147 48.2912 21.0992 48.9155 20.896L49.0347 21.2749C48.415 21.4767 47.7939 21.6908 47.1901 21.911ZM114.916 21.8372C114.266 21.7822 113.617 21.7258 112.967 21.6671L113.001 21.2706C113.65 21.3294 114.299 21.3857 114.948 21.4402L114.916 21.8367V21.8372ZM152.043 21.7419L152 21.3464C152.647 21.2749 153.294 21.1986 153.94 21.1181L153.988 21.5127C153.339 21.5937 152.691 21.6699 152.043 21.7419ZM111.019 21.4847C110.37 21.4222 109.721 21.3573 109.071 21.2905L109.111 20.8945C109.759 20.9613 110.407 21.0262 111.055 21.0888L111.019 21.4847H111.019ZM155.93 21.2564L155.876 20.8623C156.521 20.7728 157.165 20.6781 157.808 20.5791L157.867 20.9722C157.221 21.0717 156.575 21.1664 155.93 21.2569V21.2564ZM107.126 21.084L105.182 20.8675L105.225 20.472L107.167 20.6885L107.126 21.084ZM50.9003 20.7027L50.7932 20.32C51.4157 20.1405 52.0531 19.9671 52.6881 19.8056L52.7827 20.1911C52.1518 20.3522 51.5186 20.5241 50.9003 20.7027ZM159.802 20.6558L159.735 20.2636C160.383 20.1499 161.027 20.0277 161.652 19.9008L161.728 20.2906C161.1 20.4185 160.453 20.5412 159.801 20.6553L159.802 20.6558ZM103.239 20.6426C102.592 20.5663 101.944 20.4891 101.297 20.4109L101.342 20.0159C101.99 20.0936 102.637 20.1713 103.284 20.2475L103.239 20.6426ZM99.3548 20.176L97.4133 19.9396L97.4599 19.5446L99.4014 19.781L99.3548 20.176ZM163.646 19.8709L163.557 19.483C164.199 19.3319 164.835 19.1709 165.448 19.0037L165.549 19.3878C164.932 19.556 164.291 19.7184 163.646 19.8705V19.8709ZM54.6799 19.7393L54.5966 19.3509C55.2265 19.2107 55.8732 19.0766 56.5171 18.9525L56.5897 19.3433C55.9495 19.4664 55.3066 19.6 54.6799 19.7393ZM95.4719 19.7047C94.8247 19.627 94.1775 19.5498 93.5304 19.4735L93.5755 19.0785C94.2227 19.1543 94.8703 19.2315 95.5175 19.3096L95.4719 19.7047ZM91.5884 19.25C90.9413 19.1765 90.2936 19.1045 89.646 19.0349L89.6875 18.6394C90.336 18.7095 90.9841 18.781 91.6322 18.8545L91.5884 19.25ZM58.5102 19.0022L58.4483 18.6096C59.0927 18.5039 59.7394 18.4068 60.3875 18.3183L60.4396 18.7123C59.7952 18.8009 59.1518 18.8971 58.5107 19.0022H58.5102ZM167.436 18.8365L167.32 18.4566C167.95 18.2586 168.572 18.0483 169.169 17.8318L169.3 18.2065C168.698 18.4253 168.071 18.637 167.435 18.8365H167.436ZM87.7032 18.8317C87.0551 18.7663 86.407 18.7034 85.7584 18.6432L85.7943 18.2467C86.4433 18.3069 87.0928 18.3704 87.7423 18.4357L87.7032 18.8317ZM62.376 18.4722L62.3331 18.0767C62.9826 18.0042 63.633 17.9403 64.2839 17.8834L64.3174 18.2799C63.6694 18.3367 63.0222 18.4007 62.3755 18.4722H62.376ZM83.8123 18.4717C83.1637 18.4177 82.5142 18.3666 81.8652 18.3192L81.8927 17.9227C82.5436 17.9701 83.194 18.0208 83.8444 18.0753L83.8123 18.4717ZM79.9168 18.1899C79.2673 18.1506 78.6173 18.1155 77.9669 18.0852L77.9851 17.6878C78.6369 17.7181 79.2882 17.7536 79.9396 17.793L79.9168 18.1899ZM66.2631 18.1326L66.2389 17.7356C66.8916 17.694 67.5435 17.6594 68.1957 17.6319L68.2116 18.0293C67.5625 18.0568 66.9126 18.0909 66.2631 18.1326ZM76.0161 18.008C75.3662 17.9872 74.7158 17.9711 74.0649 17.9611L74.0709 17.5632C74.7237 17.5736 75.3759 17.5893 76.0282 17.6101L76.0161 18.008ZM70.1619 17.9687L70.1544 17.5708L70.7807 17.5599C71.2253 17.5533 71.6694 17.55 72.1131 17.549L72.1141 17.9469C71.6713 17.9478 71.229 17.9512 70.7858 17.9578L70.1619 17.9687ZM171.136 17.4889L170.987 17.1213C171.598 16.8641 172.196 16.5932 172.763 16.3156L172.933 16.6741C172.358 16.955 171.754 17.2293 171.135 17.4889H171.136ZM174.681 15.751L174.489 15.4042C175.062 15.0769 175.62 14.7307 176.147 14.3759L176.363 14.7075C175.828 15.0675 175.262 15.4184 174.681 15.751ZM177.962 13.5337L177.72 13.2211C177.966 13.0236 178.209 12.8208 178.445 12.6134L178.7 12.9146C178.459 13.1259 178.213 13.3319 177.962 13.5337Z" fill="black"/>
<g opacity="0.1">
<path d="M187.258 50.4518V131.698C187.258 136.176 175.346 139.849 160.636 139.849H63.9031C41.6532 139.849 23.8228 134.421 23.8228 127.651V42.2929H160.636C175.346 42.2929 187.258 45.9417 187.258 50.4518Z" fill="black"/>
</g>
<path d="M34.0197 38.7463H185.828C189.954 38.7463 193.263 42.1376 193.263 46.2592V129.036C193.263 133.213 189.954 136.559 185.828 136.559H34.0197C29.9484 136.559 26.585 133.213 26.585 129.036V46.2592C26.585 42.1376 29.9484 38.7463 34.0197 38.7463Z" fill="#060405"/>
<path d="M34.2618 42.4565H184.818C187.338 42.4565 189.378 44.3943 189.378 46.7683V128.273C189.378 130.691 187.369 132.6 184.818 132.6H34.2618C31.7426 132.6 29.687 130.662 29.687 128.273V46.7683C29.687 44.4378 31.7886 42.4565 34.2618 42.4565Z" fill="white"/>
<g opacity="0.05">
<path d="M130.481 35.0146V132.6H75.7441C73.9987 132.6 72.5731 131.154 72.5731 129.374V76.098L60.2607 76.1378C62.475 76.1297 64.2671 74.2904 64.2596 72.0377L64.0059 38.8646C63.998 36.7511 65.681 35.027 67.7627 35.0189C69.1422 35.0123 61.137 35.0165 130.481 35.0146Z" fill="black"/>
</g>
<path d="M62.9902 73.5368L137.456 73.2924C138.781 73.2924 139.852 72.1954 139.845 70.8469L139.583 34.6329C139.583 33.2914 138.505 32.4171 137.179 32.4171H70.4931C68.4101 32.4246 66.727 34.1512 66.7344 36.2633L66.9896 69.4386C66.997 71.6914 65.205 73.5293 62.9907 73.5368H62.9902Z" fill="black"/>
<path d="M62.9907 73.7358L62.9893 73.3379C64.008 73.3346 64.9652 72.9268 65.684 72.1897C66.4029 71.4527 66.7972 70.476 66.7935 69.4391L66.5384 36.2647C66.5305 34.0389 68.3006 32.2257 70.4916 32.2181H137.179C138.685 32.2181 139.779 33.2337 139.779 34.6329L140.041 70.845C140.044 71.5517 139.777 72.2158 139.288 72.716C138.8 73.2157 138.149 73.4909 137.456 73.4909L62.9911 73.7353L62.9907 73.7358ZM70.4926 32.616C68.5213 32.6226 66.9225 34.2549 66.9295 36.2623L67.1846 69.4372C67.1897 71.1566 66.1957 72.6459 64.7594 73.3322L137.455 73.0935C138.044 73.0935 138.596 72.86 139.011 72.4356C139.426 72.0111 139.652 71.4475 139.649 70.8478L139.387 34.6343C139.387 33.4643 138.458 32.616 137.178 32.616H70.4921H70.4926Z" fill="#060405"/>
<path d="M148.159 35.6314V126.774C148.159 128.552 146.743 129.999 144.995 129.999H78.4731C76.7286 129.999 75.303 128.552 75.303 126.774V36.4935C75.303 34.2393 73.517 32.4128 71.3018 32.4128H144.995C146.743 32.4128 148.159 33.8532 148.159 35.6314Z" fill="white"/>
<path d="M144.995 130.199H78.4745C76.6178 130.199 75.1079 128.663 75.1079 126.774V36.492C75.1079 34.3525 73.4001 32.6113 71.3018 32.6113V32.2134H144.995C146.848 32.2134 148.354 33.7462 148.354 35.6309V126.774C148.354 128.663 146.848 130.199 144.995 130.199H144.995ZM73.0682 32.6113C74.5026 33.2924 75.4985 34.7759 75.4985 36.492V126.774C75.4985 128.443 76.8333 129.802 78.474 129.802H144.994C146.631 129.802 147.962 128.444 147.962 126.774V35.6309C147.962 33.966 146.631 32.6113 144.994 32.6113H73.0677H73.0682Z" fill="#060405"/>
<path d="M136.772 38.6614H86.7461V46.2956H136.772V38.6614Z" fill="#6193F6"/>
<path d="M135.395 49.5312H89.0107V50.6245H135.395V49.5312Z" fill="#D2E4FF"/>
<path d="M120.359 52.8564H89.0107V53.9496H120.359V52.8564Z" fill="#D2E4FF"/>
<path d="M135.395 52.8564H123.837V53.9496H135.395V52.8564Z" fill="#D2E4FF"/>
<path d="M100.158 56.182H89.0107V57.2757H100.158V56.182Z" fill="#D2E4FF"/>
<path d="M123.125 56.182H104.098V57.2757H123.125V56.182Z" fill="#D2E4FF"/>
<path d="M93.1265 62.668V70.7185C93.1265 71.5275 92.4854 72.185 91.6902 72.185H83.7725C82.9773 72.185 82.3311 71.5275 82.3311 70.7185V62.668C82.3311 61.859 82.9773 61.2015 83.7725 61.2015H91.6902C92.4854 61.2015 93.1265 61.859 93.1265 62.668Z" fill="#4ADE80"/>
<path d="M86.2893 69.2065L84.9135 67.8068C84.6844 67.5738 84.6844 67.1958 84.9135 66.9632C85.1426 66.7302 85.5136 66.7302 85.7427 66.9632L86.7037 67.9409L90.3999 64.1804C90.629 63.9474 91.0001 63.9474 91.2291 64.1804C91.4582 64.4135 91.4582 64.7915 91.2291 65.024L87.118 69.2065C86.889 69.4396 86.5179 69.4396 86.2888 69.2065H86.2893Z" fill="white"/>
<path d="M140.467 63.856H98.2153V65.7639H140.467V63.856Z" fill="#D2E4FF"/>
<path d="M111.143 67.6226H98.2153V69.5305H111.143V67.6226Z" fill="#D2E4FF"/>
<path d="M121.24 67.6226H113.623V69.5305H121.24V67.6226Z" fill="#D2E4FF"/>
<path d="M128.316 67.6226H123.087V69.5305H128.316V67.6226Z" fill="#D2E4FF"/>
<path d="M93.1265 76.9435V84.994C93.1265 85.803 92.4854 86.4604 91.6902 86.4604H83.7725C82.9773 86.4604 82.3311 85.803 82.3311 84.994V76.9435C82.3311 76.1344 82.9773 75.477 83.7725 75.477H91.6902C92.4854 75.477 93.1265 76.1344 93.1265 76.9435Z" fill="#4ADE80"/>
<path d="M86.2893 83.482L84.9135 82.0823C84.6844 81.8493 84.6844 81.4718 84.9135 81.2387C85.1426 81.0057 85.5136 81.0057 85.7427 81.2387L86.7037 82.2164L90.3999 78.4559C90.629 78.2229 91.0001 78.2229 91.2291 78.4559C91.4582 78.6889 91.4582 79.0669 91.2291 79.2995L87.118 83.482C86.889 83.7151 86.5179 83.7151 86.2888 83.482H86.2893Z" fill="white"/>
<path d="M140.467 78.1314H98.2153V80.0394H140.467V78.1314Z" fill="#D2E4FF"/>
<path d="M109.25 81.8981H98.2153V83.806H109.25V81.8981Z" fill="#D2E4FF"/>
<path d="M118.552 81.8981H112.315V83.806H118.552V81.8981Z" fill="#D2E4FF"/>
<path d="M141.075 123.347H82.4454C81.6013 123.347 80.9141 122.648 80.9141 121.789V93.5503C80.9141 92.6916 81.6008 91.9924 82.4454 91.9924H141.075C141.919 91.9924 142.606 92.6911 142.606 93.5503V121.789C142.606 122.648 141.92 123.347 141.075 123.347ZM82.4454 92.7882C82.0324 92.7882 81.6962 93.1302 81.6962 93.5503V121.789C81.6962 122.209 82.0324 122.551 82.4454 122.551H141.075C141.488 122.551 141.824 122.209 141.824 121.789V93.5503C141.824 93.1302 141.488 92.7882 141.075 92.7882H82.4454Z" fill="#BDD6FF"/>
<path d="M142.215 97.8636V93.5503C142.215 92.9109 141.704 92.3903 141.075 92.3903H82.4454C81.8127 92.3903 81.3052 92.9109 81.3052 93.5503V97.8636H142.215Z" fill="#BDD6FF"/>
<path d="M121.163 101.366H84.2168V102.856H121.163V101.366Z" fill="#BDD6FF"/>
<path d="M121.163 105.346H84.2168V106.836H121.163V105.346Z" fill="#BDD6FF"/>
<path d="M121.163 109.326H84.2168V110.817H121.163V109.326Z" fill="#BDD6FF"/>
<path d="M121.163 113.307H84.2168V114.797H121.163V113.307Z" fill="#BDD6FF"/>
<path d="M121.163 117.287H84.2168V118.778H121.163V117.287Z" fill="#BDD6FF"/>
<path d="M125.525 102.856H139.304V101.365H125.525V102.856Z" fill="#BDD6FF"/>
<path d="M125.525 106.836H139.304V105.346H125.525V106.836Z" fill="#BDD6FF"/>
<path d="M125.525 110.817H139.304V109.327H125.525V110.817Z" fill="#BDD6FF"/>
<path d="M125.525 114.797H139.304V113.307H125.525V114.797Z" fill="#BDD6FF"/>
<path d="M125.525 118.778H139.304V117.288H125.525V118.778Z" fill="#BDD6FF"/>
<path d="M135.007 64.3059C135.007 64.3059 133.83 64.3628 133.612 66.3579C133.32 69.0322 136.552 68.4326 136.552 68.4326C136.552 68.4326 155.675 85.6438 161.201 82.4849C164.02 80.8711 162.195 69.3685 162.195 69.3685L157.218 65.3646L154.817 72.1395L138.21 63.9194C138.21 63.9194 138.401 61.0073 137.34 61.1006C136.306 61.1897 136.787 63.0948 136.815 63.216C136.636 63.0706 132.291 59.5029 131.484 60.3243C130.66 61.1617 135.007 64.3069 135.007 64.3069V64.3059Z" fill="#F4DFC9"/>
<path d="M159.551 83.0661C152.758 83.0661 137.82 69.8327 136.493 68.6438C136.113 68.6983 134.727 68.8361 133.939 68.0887C133.511 67.6827 133.336 67.093 133.419 66.3366C133.569 64.9587 134.158 64.4324 134.573 64.2311C133.656 63.5405 131.27 61.6543 131.188 60.6487C131.172 60.4649 131.227 60.3034 131.346 60.1826C132.087 59.4276 134.752 61.3157 136.524 62.7262C136.453 62.2185 136.449 61.6179 136.715 61.2422C136.858 61.0414 137.068 60.9235 137.324 60.9017C137.535 60.8818 137.733 60.9557 137.89 61.1124C138.458 61.6799 138.436 63.2909 138.413 63.7977L154.707 71.8629L157.035 65.2964C157.056 65.2362 157.105 65.1903 157.166 65.1723C157.226 65.1557 157.291 65.168 157.341 65.2078L162.318 69.2117C162.356 69.2425 162.382 69.2871 162.389 69.3358C162.465 69.8109 164.202 80.9948 161.299 82.6573C160.809 82.9373 160.219 83.0652 159.552 83.0652L159.551 83.0661ZM136.553 68.2336C136.6 68.2336 136.647 68.2511 136.682 68.2833C136.873 68.4543 155.761 85.3672 161.106 82.3111C163.659 80.8498 162.164 70.4717 162.014 69.4756L157.31 65.6914L155.001 72.2058C154.982 72.2589 154.942 72.3015 154.89 72.3228C154.839 72.3441 154.781 72.3422 154.731 72.3176L138.125 64.0975C138.054 64.062 138.01 63.9862 138.015 63.9052C138.051 63.3543 138.049 61.8291 137.615 61.3962C137.538 61.3199 137.457 61.2896 137.357 61.2977C137.212 61.31 137.109 61.3663 137.032 61.4748C136.796 61.8083 136.861 62.5609 137.002 63.154C137.021 63.2369 136.989 63.3302 136.918 63.3756C136.848 63.4211 136.758 63.4235 136.693 63.3704C134.18 61.3213 132.005 60.0732 131.622 60.464C131.597 60.4891 131.569 60.5294 131.576 60.6156C131.637 61.3616 133.782 63.1758 135.12 64.1439C135.188 64.1932 135.218 64.2804 135.194 64.3618C135.171 64.4428 135.1 64.4997 135.017 64.5044C134.973 64.5077 134.001 64.5987 133.806 66.3801C133.738 67.0049 133.872 67.4819 134.205 67.7978C134.961 68.5154 136.501 68.2398 136.517 68.2374C136.528 68.235 136.54 68.2341 136.552 68.2341L136.553 68.2336Z" fill="#F4DFC9"/>
<path d="M157.388 144.005V142.696H165.065C165.166 145.227 165.363 150 165.421 150H152.929C152.504 145.823 157.387 144.005 157.387 144.005H157.388Z" fill="#6193F6"/>
<path d="M153.101 148.183C152.94 148.732 152.862 149.333 152.929 150H165.422C165.398 150 165.353 149.247 165.301 148.183H153.101Z" fill="#060405"/>
<path d="M185.216 144.005V142.696H192.893C192.994 145.227 193.191 150 193.249 150H180.757C180.332 145.823 185.216 144.005 185.216 144.005H185.216Z" fill="#6193F6"/>
<path d="M180.929 148.183C180.767 148.732 180.689 149.333 180.757 150H193.249C193.226 150 193.181 149.247 193.129 148.183H180.929Z" fill="#060405"/>
<path d="M193.249 144.038C193.249 144.648 184.253 144.648 184.253 144.038L173.081 106.63L165.552 143.557C165.552 144.2 156.563 144.2 156.563 143.557L160.24 89.3669H185.207L193.249 144.038Z" fill="#060405"/>
<path d="M165.451 53.565C165.451 53.565 159.422 55.0935 157.313 60.7018C156.737 62.2331 154.911 69.6717 154.911 69.6717C156.455 71.7198 161.05 72.1418 165.763 72.5009L165.451 53.5654V53.565Z" fill="#FF7545"/>
<path d="M186.228 54.437C184.529 51.5329 165.46 51.0304 162.191 55.6164C158.813 60.355 159.529 91.9162 159.529 91.9162C159.297 95.1191 187.17 95.2669 187.402 92.0635C187.402 92.0635 187.981 57.4339 186.228 54.437H186.228Z" fill="#FF7545"/>
<path d="M175.791 92.7152H169.134C168.948 92.7152 168.777 92.6072 168.696 92.4367L163.808 82.2334C163.65 81.9037 163.886 81.5201 164.246 81.5201H170.903C171.089 81.5201 171.26 81.628 171.341 81.7986L176.229 92.0019C176.387 92.3316 176.151 92.7152 175.791 92.7152Z" fill="white"/>
<path d="M195.869 74.9545C195.634 78.7889 177.723 87.3339 177.723 87.3339C177.723 87.3339 173.608 93.4532 170.177 90.4847C166.75 87.512 173.302 85.8868 173.302 85.8868L172.409 84.0229C172.453 82.9392 175.158 84.4175 175.158 84.4175L186.562 74.1739L183.914 69.5026L192.815 65.3651C192.815 65.3651 196.012 72.5805 195.869 74.955V74.9545Z" fill="#F4DFC9"/>
<path d="M170.051 90.6363C169.207 89.905 168.864 89.1741 169.03 88.4641C169.396 86.8981 172.183 85.9948 173.023 85.7566L172.235 84.1106C172.221 84.0807 172.214 84.048 172.215 84.0154C172.226 83.7354 172.371 83.5943 172.49 83.5251C173.1 83.1708 174.61 83.9045 175.13 84.1788L186.312 74.1332L183.744 69.6025C183.717 69.5537 183.711 69.4959 183.727 69.4424C183.744 69.3889 183.782 69.3453 183.833 69.3221L192.734 65.1846C192.782 65.1628 192.835 65.1604 192.884 65.1794C192.933 65.1979 192.972 65.2357 192.993 65.2841C193.124 65.5806 196.207 72.5719 196.063 74.9678C195.828 78.8126 179.087 86.901 177.853 87.4921C177.55 87.9302 175.269 91.1138 172.683 91.4657C171.686 91.6021 170.805 91.29 170.05 90.6368L170.051 90.6363ZM172.61 83.9865L173.479 85.7997C173.505 85.8537 173.505 85.9171 173.48 85.9716C173.455 86.0261 173.406 86.0659 173.349 86.0806C173.313 86.0891 169.777 86.9848 169.41 88.5564C169.281 89.1092 169.582 89.707 170.304 90.3336C171.002 90.9376 171.783 91.1848 172.631 91.0711C175.177 90.7254 177.538 87.2572 177.561 87.2221C177.581 87.1927 177.608 87.169 177.64 87.1544C177.817 87.0696 195.449 78.6165 195.673 74.9427C195.8 72.8514 193.209 66.7643 192.717 65.6298L184.191 69.593L186.732 74.0749C186.778 74.1569 186.761 74.2606 186.692 74.3236L175.288 84.5672C175.226 84.6221 175.138 84.6321 175.066 84.5932C174.29 84.1693 173.04 83.6644 172.683 83.8704C172.653 83.8879 172.621 83.9159 172.61 83.9865Z" fill="#F4DFC9"/>
<path d="M185.125 53.6095C185.351 53.7744 187.722 54.6928 189.631 57.667C191.002 59.8046 193.808 65.8165 193.808 65.8165C194.632 66.8268 185.851 73.6207 184.842 72.3119C184.842 72.3119 180.879 66.058 180.726 62.6978C180.529 58.3926 185.124 53.609 185.124 53.609L185.125 53.6095Z" fill="#FF7545"/>
<path d="M185.283 72.6572C185.041 72.6572 184.861 72.5847 184.75 72.4412C184.576 72.1684 180.746 66.0874 180.592 62.713C180.586 62.6031 180.67 62.5098 180.777 62.505C180.887 62.5012 180.977 62.5851 180.982 62.6945C181.132 65.9633 185.028 72.148 185.067 72.2101C185.095 72.2437 185.2 72.2669 185.345 72.2574C187.046 72.1447 192.375 68.3463 193.49 66.4517C193.546 66.3569 193.666 66.3271 193.759 66.383C193.851 66.4393 193.882 66.5615 193.826 66.6558C192.643 68.6656 187.19 72.5336 185.37 72.6544C185.34 72.6563 185.31 72.6572 185.282 72.6572H185.283Z" fill="#FF6840"/>
<path d="M170.974 49.2044C170.974 49.2044 170.099 50.9356 169.121 52.4798C168.386 53.6417 169.772 55.85 171.037 56.5235C173.098 57.621 177.128 52.6645 177.128 52.6645L177.289 41.7346L170.974 49.2044Z" fill="#F4DFC9"/>
<path d="M177.04 40.3089C176.935 40.4576 175.963 50.6154 169.953 49.9277C163.942 49.2399 165.507 36.6057 168.191 33.8054C170.875 31.005 176.354 33.5155 176.354 33.5155L178.151 37.9163L177.04 40.3089Z" fill="#F4DFC9"/>
<path d="M172.457 40.406C172.445 40.7413 172.247 41.0056 172.016 40.9966C171.784 40.9876 171.607 40.7086 171.62 40.3733C171.632 40.0379 171.83 39.7736 172.062 39.7826C172.293 39.7916 172.47 40.0706 172.457 40.406Z" fill="#060405"/>
<path d="M168.485 40.3723C168.472 40.7077 168.274 40.972 168.043 40.963C167.812 40.954 167.634 40.675 167.647 40.3396C167.66 40.0043 167.858 39.74 168.089 39.749C168.32 39.758 168.498 40.037 168.485 40.3723Z" fill="#060405"/>
<path d="M170.025 44.2484C169.967 44.201 169.891 44.1891 169.644 44.1569C169.348 44.1105 169.146 43.949 169.102 43.7254C169.05 43.4583 169.244 43.2541 169.372 43.1187C169.899 42.563 170.123 41.7299 169.95 40.9886L170.33 40.8967C170.533 41.7663 170.27 42.744 169.661 43.3877C169.578 43.4753 169.473 43.5852 169.485 43.6482C169.495 43.6956 169.589 43.7453 169.705 43.7638C169.915 43.7908 170.109 43.8059 170.27 43.9386L170.025 44.2484Z" fill="#060405"/>
<path d="M170.205 47.2822L170.346 46.9113C170.587 47.0065 170.86 47.0008 171.096 46.8962C171.332 46.7915 171.522 46.5916 171.617 46.3477L171.981 46.4945C171.848 46.8351 171.583 47.1145 171.253 47.2609C170.923 47.4068 170.541 47.4153 170.205 47.2827V47.2822Z" fill="#060405"/>
<path d="M164.737 35.4978C164.986 35.6536 165.251 35.7844 165.55 35.8928C167.916 36.6876 174.319 35.198 174.506 36.1235C174.695 37.0334 175.083 42.4863 175.496 41.8142C176.274 40.5466 176.561 38.453 176.607 42.0823C176.578 43.4341 176.977 45.4842 176.977 45.4842C180.415 45.3918 183.698 37.1983 180.325 36.6322C180.325 36.6322 181.348 35.009 180.712 33.5567C180.078 32.093 175.553 24.0639 166.891 30.241C166.726 30.0231 165.177 28.1602 164.534 29.4912C163.954 30.7137 162.966 34.3733 164.737 35.4968V35.4978Z" fill="#060405"/>
<path d="M159.671 72.0926C159.666 72.0926 159.66 72.0926 159.655 72.0917C159.547 72.0827 159.467 71.986 159.476 71.8766L160.049 64.9544C160.059 64.845 160.153 64.7649 160.261 64.773C160.368 64.782 160.448 64.8781 160.439 64.988L159.866 71.9102C159.858 72.014 159.772 72.0926 159.672 72.0926H159.671Z" fill="#FF6840"/>
<path d="M52.0346 86.072C57.5661 86.072 62.0502 81.51 62.0502 75.8825C62.0502 70.2549 57.5661 65.6929 52.0346 65.6929C46.5032 65.6929 42.019 70.2549 42.019 75.8825C42.019 81.51 46.5032 86.072 52.0346 86.072Z" fill="#EFC102"/>
<path d="M52.0346 83.5767C56.2115 83.5767 59.5975 80.1319 59.5975 75.8824C59.5975 71.633 56.2115 68.1881 52.0346 68.1881C47.8577 68.1881 44.4717 71.633 44.4717 75.8824C44.4717 80.1319 47.8577 83.5767 52.0346 83.5767Z" fill="#EFC102"/>
<g opacity="0.15">
<path d="M58.4694 71.8444C57.0959 70.376 55.1558 69.4623 53.0058 69.4623C48.8272 69.4623 45.4396 72.9083 45.4396 77.1599C45.4396 78.6397 45.8521 80.0256 46.5663 81.198C45.2669 79.8158 44.4712 77.9467 44.4712 75.8829C44.4712 71.635 47.8583 68.1891 52.0336 68.1891C54.7545 68.1891 57.1401 69.6499 58.4694 71.8449V71.8444Z" fill="black"/>
</g>
<path d="M54.2776 78.4346C54.0942 78.7159 53.8339 78.94 53.4964 79.1067C53.1584 79.2734 52.7678 79.3701 52.3241 79.3961V80.0929C52.3241 80.1777 52.2966 80.2483 52.2421 80.3042C52.1872 80.3596 52.115 80.3875 52.0252 80.3875C51.9414 80.3875 51.8724 80.361 51.818 80.3089C51.7635 80.2563 51.736 80.1843 51.736 80.0929V79.3961C51.0414 79.3502 50.3919 79.1967 49.7871 78.9348C49.7098 78.9021 49.6456 78.8481 49.5939 78.7728C49.5422 78.6975 49.5166 78.6174 49.5166 78.5322C49.5166 78.4208 49.5534 78.3247 49.6274 78.2427C49.7014 78.1613 49.7964 78.1201 49.9119 78.1201C49.9761 78.1201 50.0371 78.1333 50.0949 78.1594C50.6158 78.3948 51.1624 78.526 51.7351 78.552V76.2945C51.2974 76.1766 50.9296 76.0492 50.6303 75.9118C50.3314 75.7744 50.0818 75.5798 49.8825 75.3278C49.6833 75.0758 49.5832 74.757 49.5832 74.3705C49.5832 74.0304 49.6651 73.7163 49.8295 73.4284C49.9934 73.1404 50.2378 72.9016 50.5628 72.7117C50.8873 72.5222 51.2784 72.4076 51.7351 72.3683V71.681C51.7351 71.5962 51.7626 71.5237 51.817 71.465C51.8715 71.4063 51.9409 71.3764 52.0242 71.3764C52.1076 71.3764 52.1788 71.4058 52.2365 71.465C52.2943 71.5237 52.3231 71.5962 52.3231 71.681V72.3583C52.9535 72.3844 53.5132 72.4924 54.002 72.6823C54.1822 72.7477 54.272 72.8784 54.272 73.075C54.272 73.1797 54.2367 73.2749 54.1659 73.3597C54.0951 73.4449 54.002 73.4871 53.8861 73.4871C53.8474 73.4871 53.7958 73.4738 53.7315 73.4478C53.2939 73.2905 52.8246 73.2024 52.3227 73.1825V75.5187C52.7859 75.63 53.17 75.7508 53.4759 75.882C53.7813 76.0132 54.0369 76.2074 54.2427 76.466C54.4485 76.7246 54.5514 77.0666 54.5514 77.492C54.5514 77.8387 54.4597 78.1532 54.2762 78.4341L54.2776 78.4346ZM50.7848 74.9697C51.0004 75.1269 51.317 75.261 51.7351 75.3723V73.2128C51.3491 73.2654 51.0405 73.3848 50.8091 73.5709C50.5777 73.7576 50.4617 74.0015 50.4617 74.3023C50.4617 74.6031 50.5693 74.8129 50.7848 74.9697ZM53.684 77.4332C53.684 77.1779 53.57 76.9799 53.3414 76.8393C53.1128 76.6986 52.7738 76.5659 52.3236 76.4418V78.552C53.2305 78.4867 53.684 78.1139 53.684 77.4332Z" fill="white"/>
<path d="M45.8041 61.3237C48.7576 58.3189 48.7576 53.4471 45.8041 50.4423C42.8506 47.4375 38.062 47.4375 35.1085 50.4423C32.155 53.4471 32.155 58.3189 35.1085 61.3237C38.062 64.3285 42.8506 64.3285 45.8041 61.3237Z" fill="#EFC102"/>
<path d="M44.4944 59.9913C46.7246 57.7224 46.7246 54.0436 44.4944 51.7747C42.2642 49.5057 38.6483 49.5057 36.418 51.7747C34.1878 54.0436 34.1878 57.7224 36.418 59.9913C38.6483 62.2603 42.2642 62.2603 44.4944 59.9913Z" fill="#EFC102"/>
<g opacity="0.15">
<path d="M45.3152 52.8332C44.2784 51.7243 42.8132 51.0342 41.1897 51.0342C38.0345 51.0342 35.4765 53.6365 35.4765 56.8466C35.4765 57.964 35.788 59.0103 36.3272 59.8956C35.3457 58.8521 34.7451 57.4406 34.7451 55.8822C34.7451 52.6745 37.303 50.0726 40.4555 50.0726C42.5101 50.0726 44.3114 51.1758 45.3152 52.8332Z" fill="black"/>
</g>
<path d="M42.1504 57.8096C42.0121 58.0222 41.8152 58.1913 41.5605 58.3173C41.3054 58.4433 41.0102 58.5163 40.6755 58.5362V59.0624C40.6755 59.1264 40.655 59.1799 40.6135 59.2216C40.5721 59.2633 40.5176 59.2846 40.4497 59.2846C40.3863 59.2846 40.3342 59.2647 40.2932 59.2254C40.2518 59.1856 40.2313 59.1316 40.2313 59.0624V58.5362C39.7066 58.5016 39.2163 58.3855 38.7596 58.1876C38.7014 58.1629 38.653 58.1222 38.6139 58.0653C38.5748 58.0085 38.5557 57.9479 38.5557 57.8839C38.5557 57.8001 38.5836 57.7271 38.6395 57.6651C38.6953 57.6035 38.767 57.5723 38.8546 57.5723C38.903 57.5723 38.9491 57.5822 38.9928 57.6021C39.3863 57.7802 39.7992 57.8787 40.2313 57.8986V56.1939C39.9007 56.1048 39.6228 56.0087 39.397 55.9049C39.1712 55.8012 38.9826 55.6544 38.8322 55.4639C38.6814 55.274 38.6064 55.0329 38.6064 54.7411C38.6064 54.4844 38.6683 54.2471 38.7922 54.0297C38.916 53.8123 39.1004 53.6318 39.3458 53.4887C39.5911 53.3457 39.8858 53.259 40.2308 53.2292V52.7105C40.2308 52.6466 40.2513 52.5921 40.2927 52.5476C40.3337 52.503 40.3863 52.4808 40.4492 52.4808C40.512 52.4808 40.5656 52.503 40.6093 52.5476C40.6531 52.5921 40.675 52.6466 40.675 52.7105V53.2221C41.1508 53.242 41.5736 53.3234 41.9428 53.4665C42.0787 53.5157 42.1467 53.6147 42.1467 53.763C42.1467 53.8421 42.1202 53.9136 42.0666 53.978C42.0131 54.0425 41.9428 54.0742 41.8552 54.0742C41.8259 54.0742 41.7873 54.0643 41.7388 54.0444C41.4083 53.9259 41.054 53.8592 40.675 53.8445V55.6084C41.0246 55.6923 41.3147 55.7837 41.5456 55.8827C41.7761 55.9817 41.9693 56.1285 42.1248 56.3237C42.2803 56.5188 42.3581 56.777 42.3581 57.0981C42.3581 57.3601 42.2887 57.5974 42.1504 57.8096ZM39.5129 55.193C39.6754 55.3114 39.9147 55.4128 40.2304 55.4971V53.8663C39.9389 53.906 39.7057 53.996 39.5311 54.1367C39.356 54.2774 39.2689 54.4617 39.2689 54.689C39.2689 54.9164 39.3504 55.0746 39.5129 55.193ZM41.7021 57.0536C41.7021 56.8608 41.6159 56.7116 41.4432 56.605C41.2709 56.4989 41.0144 56.399 40.6745 56.3047V57.8981C41.3594 57.8489 41.7016 57.567 41.7016 57.0531L41.7021 57.0536Z" fill="white"/>
<path d="M28.2394 82.4816C33.0936 82.4816 37.0287 78.4782 37.0287 73.5397C37.0287 68.6012 33.0936 64.5977 28.2394 64.5977C23.3853 64.5977 19.4502 68.6012 19.4502 73.5397C19.4502 78.4782 23.3853 82.4816 28.2394 82.4816Z" fill="#EFC102"/>
<path d="M28.2394 80.2918C31.9048 80.2918 34.8763 77.2688 34.8763 73.5397C34.8763 69.8106 31.9048 66.7875 28.2394 66.7875C24.574 66.7875 21.6025 69.8106 21.6025 73.5397C21.6025 77.2688 24.574 80.2918 28.2394 80.2918Z" fill="#EFC102"/>
<g opacity="0.15">
<path d="M33.8864 69.9957C32.6815 68.7073 30.9784 67.9054 29.0919 67.9054C25.4249 67.9054 22.4522 70.9297 22.4522 74.6604C22.4522 75.9587 22.814 77.1751 23.4406 78.2039C22.3 76.9908 21.6021 75.3505 21.6021 73.5397C21.6021 69.8119 24.5743 66.788 28.2385 66.788C30.626 66.788 32.7197 68.0697 33.886 69.9961L33.8864 69.9957Z" fill="black"/>
</g>
<path d="M30.2079 75.7792C30.0468 76.026 29.8182 76.223 29.5221 76.3694C29.2255 76.5157 28.8829 76.6005 28.4932 76.6237V77.2352C28.4932 77.3096 28.469 77.3717 28.4215 77.4205C28.3735 77.4692 28.3097 77.4939 28.2311 77.4939C28.1575 77.4939 28.097 77.4707 28.049 77.4247C28.0011 77.3788 27.9768 77.3158 27.9768 77.2352V76.6237C27.3674 76.5835 26.7971 76.4485 26.2668 76.2188C26.1993 76.1903 26.1425 76.1425 26.0973 76.0767C26.0521 76.0108 26.0298 75.9402 26.0298 75.8654C26.0298 75.7678 26.0624 75.683 26.1271 75.611C26.1918 75.5395 26.2751 75.5035 26.3771 75.5035C26.4334 75.5035 26.487 75.5154 26.5377 75.5381C26.9949 75.7446 27.4749 75.8597 27.9773 75.8825V73.9011C27.5932 73.7978 27.2701 73.6856 27.008 73.5653C26.7454 73.4445 26.5266 73.2739 26.352 73.0527C26.1769 72.8315 26.0894 72.5516 26.0894 72.2129C26.0894 71.9145 26.1615 71.6388 26.3054 71.3859C26.4493 71.1334 26.6639 70.9236 26.9488 70.7569C27.2338 70.5906 27.5764 70.4897 27.9773 70.4551V69.8522C27.9773 69.7778 28.0015 69.7143 28.0495 69.6627C28.0974 69.6111 28.158 69.585 28.2315 69.585C28.3051 69.585 28.367 69.6111 28.4178 69.6627C28.4685 69.7143 28.4941 69.7778 28.4941 69.8522V70.4466C29.0472 70.4698 29.5384 70.5646 29.9672 70.7308C30.125 70.7881 30.2042 70.9032 30.2042 71.0752C30.2042 71.1671 30.173 71.2504 30.1111 71.3248C30.0492 71.3996 29.9672 71.4366 29.8657 71.4366C29.8317 71.4366 29.7866 71.4252 29.7302 71.402C29.3461 71.2642 28.9346 71.1865 28.4941 71.1694V73.2195C28.9006 73.3171 29.2376 73.4232 29.5058 73.5383C29.774 73.6534 29.9979 73.8239 30.1791 74.0508C30.3597 74.2777 30.45 74.5775 30.45 74.9507C30.45 75.2553 30.3695 75.531 30.2088 75.7778L30.2079 75.7792ZM27.143 72.7387C27.332 72.8765 27.61 72.9945 27.9768 73.0921V71.1969C27.6379 71.2428 27.3674 71.3475 27.1639 71.5114C26.9609 71.6748 26.859 71.8889 26.859 72.1532C26.859 72.4176 26.9535 72.6013 27.1425 72.7392L27.143 72.7387ZM29.6874 74.901C29.6874 74.677 29.5873 74.5036 29.3866 74.38C29.186 74.2563 28.8885 74.1403 28.4932 74.0313V75.8834C29.2893 75.8261 29.6869 75.4988 29.6869 74.9015L29.6874 74.901Z" fill="white"/>
<path d="M162.197 11.324V25.9699C162.197 26.4564 161.82 26.8396 161.342 26.8396H144.27C143.792 26.8396 143.416 26.4569 143.416 25.9699V11.324C143.416 10.847 143.792 10.4544 144.27 10.4544H161.342C161.82 10.4544 162.197 10.8466 162.197 11.324Z" fill="#6193F6"/>
<path d="M152.255 15.5397V17.2184C152.255 17.3681 152.136 17.4931 151.988 17.4931H150.33C150.182 17.4931 150.063 17.3681 150.063 17.2184V15.5397C150.063 15.3896 150.182 15.2688 150.33 15.2688H151.988C152.136 15.2688 152.255 15.3896 152.255 15.5397Z" fill="white"/>
<path d="M156.16 15.5397V17.2184C156.16 17.3681 156.041 17.4931 155.893 17.4931H154.235C154.087 17.4931 153.969 17.3681 153.969 17.2184V15.5397C153.969 15.3896 154.087 15.2688 154.235 15.2688H155.893C156.041 15.2688 156.16 15.3896 156.16 15.5397Z" fill="white"/>
<path d="M160.065 15.5397V17.2184C160.065 17.3681 159.946 17.4931 159.799 17.4931H158.14C157.993 17.4931 157.874 17.3681 157.874 17.2184V15.5397C157.874 15.3896 157.993 15.2688 158.14 15.2688H159.799C159.946 15.2688 160.065 15.3896 160.065 15.5397Z" fill="white"/>
<path d="M148.349 18.8876V20.5663C148.349 20.716 148.231 20.841 148.083 20.841H146.425C146.277 20.841 146.158 20.716 146.158 20.5663V18.8876C146.158 18.7375 146.277 18.6167 146.425 18.6167H148.083C148.231 18.6167 148.349 18.7375 148.349 18.8876Z" fill="white"/>
<path d="M152.255 18.8876V20.5663C152.255 20.716 152.136 20.841 151.988 20.841H150.33C150.182 20.841 150.063 20.716 150.063 20.5663V18.8876C150.063 18.7375 150.182 18.6167 150.33 18.6167H151.988C152.136 18.6167 152.255 18.7375 152.255 18.8876Z" fill="white"/>
<path d="M156.16 18.8876V20.5663C156.16 20.716 156.041 20.841 155.893 20.841H154.235C154.087 20.841 153.969 20.716 153.969 20.5663V18.8876C153.969 18.7375 154.087 18.6167 154.235 18.6167H155.893C156.041 18.6167 156.16 18.7375 156.16 18.8876Z" fill="white"/>
<path d="M158.141 18.6167H159.799C159.946 18.6167 160.066 18.7379 160.066 18.8876V20.5706C160.066 20.7202 159.946 20.8415 159.799 20.8415H158.141C157.994 20.8415 157.875 20.7202 157.875 20.5706V18.8876C157.875 18.7384 157.994 18.6167 158.141 18.6167Z" fill="white"/>
<path d="M148.349 22.236V23.9147C148.349 24.0644 148.231 24.1894 148.083 24.1894H146.425C146.277 24.1894 146.158 24.0644 146.158 23.9147V22.236C146.158 22.0858 146.277 21.9651 146.425 21.9651H148.083C148.231 21.9651 148.349 22.0858 148.349 22.236Z" fill="white"/>
<path d="M152.255 22.236V23.9147C152.255 24.0644 152.136 24.1894 151.988 24.1894H150.33C150.182 24.1894 150.063 24.0644 150.063 23.9147V22.236C150.063 22.0858 150.182 21.9651 150.33 21.9651H151.988C152.136 21.9651 152.255 22.0858 152.255 22.236Z" fill="white"/>
<path d="M147.665 9.77419V11.6589C147.665 11.891 147.48 12.0748 147.257 12.0748C147.034 12.0748 146.843 11.891 146.843 11.6589V9.77419C146.843 9.54209 147.029 9.35831 147.257 9.35831C147.485 9.35831 147.665 9.54209 147.665 9.77419Z" fill="#F2CB2A"/>
<path d="M159.465 9.77419V11.6589C159.465 11.891 159.28 12.0748 159.056 12.0748C158.833 12.0748 158.643 11.891 158.643 11.6589V9.77419C158.643 9.54209 158.828 9.35831 159.056 9.35831C159.285 9.35831 159.465 9.54209 159.465 9.77419Z" fill="#F2CB2A"/>
<path d="M181.059 11.2294L182.735 17L194 0L178 5.14089L179.98 8.31888L186.893 5.00232L181.059 11.2294Z" fill="#BDD6FF"/>
<path d="M179.103 9.17661L181.207 10.1379L184.364 6.86736L179.103 9.17661Z" fill="#060405"/>
<path d="M25.2903 71.7535H11.9616C11.8806 71.7535 11.8149 71.6867 11.8149 71.6042C11.8149 71.5218 11.8806 71.455 11.9616 71.455H25.2903C25.3713 71.455 25.4369 71.5218 25.4369 71.6042C25.4369 71.6867 25.3713 71.7535 25.2903 71.7535Z" fill="#C6E2FA"/>
<path d="M25.2903 78.4758H11.9616C11.8806 78.4758 11.8149 78.409 11.8149 78.3266C11.8149 78.2442 11.8806 78.1774 11.9616 78.1774H25.2903C25.3713 78.1774 25.4369 78.2442 25.4369 78.3266C25.4369 78.409 25.3713 78.4758 25.2903 78.4758Z" fill="#C6E2FA"/>
<path d="M22.869 75.1146H4.01531C3.9343 75.1146 3.86865 75.0478 3.86865 74.9654C3.86865 74.883 3.9343 74.8162 4.01531 74.8162H22.869C22.9501 74.8162 23.0157 74.883 23.0157 74.9654C23.0157 75.0478 22.9501 75.1146 22.869 75.1146Z" fill="#C6E2FA"/>
<path d="M14.7038 71.7535C14.6228 71.7535 14.5571 71.6867 14.5571 71.6043V68.7471C14.5571 68.6647 14.6228 68.5979 14.7038 68.5979C14.7848 68.5979 14.8504 68.6647 14.8504 68.7471V71.6043C14.8504 71.6867 14.7848 71.7535 14.7038 71.7535Z" fill="#C6E2FA"/>
<path d="M19.3903 75.1146C19.3093 75.1146 19.2437 75.0478 19.2437 74.9654V71.6042C19.2437 71.5218 19.3093 71.455 19.3903 71.455C19.4713 71.455 19.537 71.5218 19.537 71.6042V74.9654C19.537 75.0478 19.4713 75.1146 19.3903 75.1146Z" fill="#C6E2FA"/>
<path d="M15.8249 78.3635C15.7439 78.3635 15.6782 78.2968 15.6782 78.2143V74.9654C15.6782 74.883 15.7439 74.8162 15.8249 74.8162C15.9059 74.8162 15.9715 74.883 15.9715 74.9654V78.2143C15.9715 78.2968 15.9059 78.3635 15.8249 78.3635Z" fill="#C6E2FA"/>
<path d="M29.6866 19.8615H18.3669C18.2859 19.8615 18.2202 19.7947 18.2202 19.7123C18.2202 19.6298 18.2859 19.563 18.3669 19.563H29.6866C29.7676 19.563 29.8332 19.6298 29.8332 19.7123C29.8332 19.7947 29.7676 19.8615 29.6866 19.8615Z" fill="#C6E2FA"/>
<path d="M29.6866 25.5706H18.3669C18.2859 25.5706 18.2202 25.5038 18.2202 25.4214C18.2202 25.339 18.2859 25.2722 18.3669 25.2722H29.6866C29.7676 25.2722 29.8332 25.339 29.8332 25.4214C29.8332 25.5038 29.7676 25.5706 29.6866 25.5706Z" fill="#C6E2FA"/>
<path d="M27.6311 22.7158H11.6193C11.5383 22.7158 11.4727 22.649 11.4727 22.5666C11.4727 22.4842 11.5383 22.4174 11.6193 22.4174H27.6311C27.7122 22.4174 27.7778 22.4842 27.7778 22.5666C27.7778 22.649 27.7122 22.7158 27.6311 22.7158Z" fill="#C6E2FA"/>
<path d="M20.697 19.8615C20.6159 19.8615 20.5503 19.7947 20.5503 19.7123V17.2856C20.5503 17.2032 20.6159 17.1364 20.697 17.1364C20.778 17.1364 20.8436 17.2032 20.8436 17.2856V19.7123C20.8436 19.7947 20.778 19.8615 20.697 19.8615Z" fill="#C6E2FA"/>
<path d="M24.6764 22.7158C24.5954 22.7158 24.5298 22.649 24.5298 22.5666V19.7123C24.5298 19.6298 24.5954 19.563 24.6764 19.563C24.7575 19.563 24.8231 19.6298 24.8231 19.7123V22.5666C24.8231 22.649 24.7575 22.7158 24.6764 22.7158Z" fill="#C6E2FA"/>
<path d="M21.6491 25.4749C21.5681 25.4749 21.5024 25.4081 21.5024 25.3257V22.5666C21.5024 22.4842 21.5681 22.4174 21.6491 22.4174C21.7301 22.4174 21.7958 22.4842 21.7958 22.5666V25.3257C21.7958 25.4081 21.7301 25.4749 21.6491 25.4749Z" fill="#C6E2FA"/>
</g>
<defs>
<clipPath id="clip0_1_2458">
<rect width="200" height="150" fill="white"/>
</clipPath>
</defs>
</svg>
