<svg width="200" height="150" viewBox="0 0 200 150" fill="none" xmlns="http://www.w3.org/2000/svg">
<path d="M35.8014 78.9988H22.1995C22.1995 78.9988 -11.1923 119.45 3.93057 135.23C10.7026 142.297 20.4639 142.096 29 141.957C37.5361 142.096 47.2974 142.296 54.0694 135.23C69.1923 119.45 35.8005 78.9988 35.8005 78.9988H35.8014Z" fill="#304064"/>
<path d="M21.8366 78.3999L14.2363 67.7495L41.619 67.2175L35.2844 78.3999H21.8366Z" fill="#304064"/>
<path d="M18.9727 67.6589L23.6871 76.4036L22.4206 67.6589H18.9727Z" fill="#283856"/>
<path d="M27.1309 67.5006L28.4637 77.3368L29.633 67.4519L27.1309 67.5006Z" fill="#283856"/>
<path d="M34.896 67.4833L32.2656 76.4027L37.7225 67.3503L34.896 67.4833Z" fill="#283856"/>
<path d="M36.8675 77.7332H20.4941V79.5972H36.8675V77.7332Z" fill="#5F48A8"/>
<path d="M35.3705 120.03C34.2838 121.315 32.7343 122.164 30.723 122.575V125.999H26.9244V122.728C25.5775 122.646 24.2881 122.409 23.058 122.019C21.8273 121.628 20.8084 121.145 20 120.569L22.0476 115.262C22.9455 115.858 23.9511 116.337 25.065 116.697C26.1784 117.057 27.2475 117.237 28.2713 117.237C29.1511 117.237 29.7797 117.139 30.1573 116.943C30.5342 116.748 30.723 116.455 30.723 116.064C30.723 115.612 30.4762 115.273 29.9824 115.046C29.4881 114.82 28.6755 114.574 27.544 114.306C26.0894 113.956 24.8769 113.581 23.9069 113.18C22.937 112.779 22.0923 112.121 21.3747 111.205C20.6559 110.29 20.2971 109.051 20.2971 107.488C20.2971 105.678 20.8671 104.125 22.0076 102.829C23.1482 101.534 24.7867 100.711 26.9244 100.361V96.9988H30.723V100.3C32.8783 100.526 34.7013 101.123 36.1922 102.089L34.2796 107.364C32.4293 106.295 30.6782 105.76 29.0258 105.76C27.3734 105.76 26.5741 106.213 26.5741 107.118C26.5741 107.549 26.8167 107.874 27.3014 108.089C27.786 108.305 28.5853 108.537 29.6992 108.783C31.1357 109.092 32.3482 109.446 33.3363 109.848C34.3238 110.249 35.1818 110.902 35.9091 111.806C36.6364 112.712 37 113.946 37 115.509C37 117.236 36.4566 118.743 35.3699 120.028L35.3705 120.03Z" fill="#FFD32F"/>
<path opacity="0.15" d="M97.5622 5.74951C72.1815 5.74951 54.4912 33.4954 34.0989 65.811C21.4254 85.8935 27.1996 104.212 36.2794 117.602C45.7605 131.585 60.2433 139.978 75.6674 140.454C89.3689 140.877 109.454 141.362 129.513 141.362C141.361 141.362 153.225 141.231 163.727 140.788C215.451 138.606 198.89 24.1019 173.299 24.107C172.722 24.107 172.134 24.1659 171.538 24.2847C161.17 26.3599 156.553 27.9052 152.678 27.9052C146.438 27.9052 142.123 23.8978 118.841 11.6463C111.121 7.58414 104.089 5.75053 97.5622 5.75053V5.74951Z" fill="#7D5EE0"/>
<path opacity="0.15" d="M152.236 4.81348C148.697 4.81348 143.691 5.74247 143.691 10.2301C143.691 14.7176 150.121 19.258 153.661 19.258C157.201 19.258 157.934 16.5228 157.934 12.0363C157.934 7.54968 155.776 4.81449 152.236 4.81449V4.81348Z" fill="#7D5EE0"/>
<path d="M178.094 39.5974H55.4126C52.9108 39.5974 50.8828 41.927 50.8828 44.8008V130.937C50.8828 133.811 52.9108 136.14 55.4126 136.14H178.094C180.596 136.14 182.624 133.811 182.624 130.937V44.8008C182.624 41.927 180.596 39.5974 178.094 39.5974Z" fill="#3B2D6A"/>
<path d="M173.371 39.5974H50.6899C48.1882 39.5974 46.1602 41.927 46.1602 44.8008V130.937C46.1602 133.811 48.1882 136.14 50.6899 136.14H173.371C175.873 136.14 177.901 133.811 177.901 130.937V44.8008C177.901 41.927 175.873 39.5974 173.371 39.5974Z" fill="#3B2D6A"/>
<path d="M175.118 131.421H52.5546C50.0551 131.421 48.0293 129.28 48.0293 126.638V47.4608C48.0293 44.819 50.056 42.6777 52.5546 42.6777H175.117C177.616 42.6777 179.642 44.819 179.642 47.4608V126.637C179.642 129.279 177.615 131.42 175.117 131.42L175.118 131.421Z" fill="#D7E4FF"/>
<path d="M191.986 142.818H36.2516C34.4653 142.818 33.0176 141.155 33.0176 139.103V137.545C33.0176 136.344 33.8652 135.37 34.9117 135.37H193.326C194.372 135.37 195.22 136.343 195.22 137.545V139.103C195.22 141.155 193.773 142.818 191.986 142.818Z" fill="#9966CC"/>
<path d="M129.068 135.338H97.3535V136.14H129.068V135.338Z" fill="#3B2D6A"/>
<path d="M156.51 8.54175H66.1484V131.421H156.51V8.54175Z" fill="#EEF7FF"/>
<path d="M87.7975 16.1727C88.3941 16.4773 88.8537 16.9149 89.1763 17.4855C89.4998 18.0561 89.6607 18.7221 89.6607 19.4836C89.6607 20.2451 89.4989 20.9111 89.1763 21.4817C88.8528 22.0523 88.3932 22.4909 87.7975 22.7945C87.2009 23.0991 86.5009 23.2513 85.6975 23.2513H84.4424V25.7063H81.5098V15.7148H85.6975C86.5009 15.7148 87.2009 15.8671 87.7975 16.1717V16.1727ZM86.4054 20.3476C86.6043 20.1435 86.7033 19.8552 86.7033 19.4846C86.7033 19.114 86.6043 18.8257 86.4054 18.6206C86.2066 18.4165 85.9087 18.314 85.511 18.314H84.4424V20.6552H85.511C85.9087 20.6552 86.2066 20.5527 86.4054 20.3486V20.3476Z" fill="#B8D4F5"/>
<path d="M96.1094 23.9651H92.8046L92.2204 25.7063H89.2383L93.0406 15.7148H95.9229L99.7252 25.7063H96.6936L96.1094 23.9651ZM95.3015 21.5385L94.4565 19.0267L93.6116 21.5385H95.3015Z" fill="#B8D4F5"/>
<path d="M104.806 22.0817V25.7073H101.874V22.039L98.5938 15.7158H101.687L103.464 19.1698L105.253 15.7158H108.085L104.805 22.0817H104.806Z" fill="#B8D4F5"/>
<path d="M112.189 23.1945H111.394V25.7063H108.461V15.7148H112.649C113.452 15.7148 114.152 15.8671 114.749 16.1717C115.345 16.4763 115.805 16.9139 116.127 17.4845C116.451 18.0551 116.612 18.7211 116.612 19.4826C116.612 20.1963 116.471 20.8197 116.189 21.3528C115.907 21.8858 115.502 22.3092 114.971 22.6229L116.798 25.7063H113.667L112.188 23.1945H112.189ZM113.357 18.6196C113.158 18.4155 112.86 18.313 112.462 18.313H111.394V20.6542H112.462C112.86 20.6542 113.158 20.5517 113.357 20.3476C113.555 20.1435 113.654 19.8552 113.654 19.4846C113.654 19.114 113.555 18.8257 113.357 18.6206V18.6196Z" fill="#B8D4F5"/>
<path d="M119.755 25.2646C119.01 24.8179 118.425 24.1965 118.003 23.4015C117.58 22.6076 117.369 21.7101 117.369 20.711C117.369 19.712 117.58 18.8155 118.003 18.0205C118.425 17.2265 119.01 16.6052 119.755 16.1574C120.501 15.7107 121.341 15.4863 122.277 15.4863C123.213 15.4863 124.054 15.7097 124.8 16.1574C125.546 16.6052 126.129 17.2255 126.551 18.0205C126.974 18.8155 127.185 19.712 127.185 20.711C127.185 21.7101 126.974 22.6076 126.551 23.4015C126.129 24.1965 125.545 24.8168 124.8 25.2646C124.055 25.7113 123.213 25.9357 122.277 25.9357C121.341 25.9357 120.501 25.7123 119.755 25.2646ZM123.264 22.902C123.559 22.6979 123.792 22.4076 123.966 22.0309C124.14 21.6552 124.227 21.2146 124.227 20.711C124.227 20.2074 124.14 19.7668 123.966 19.3911C123.792 19.0155 123.558 18.7251 123.264 18.52C122.97 18.3159 122.641 18.2134 122.276 18.2134C121.911 18.2134 121.582 18.3159 121.288 18.52C120.994 18.7251 120.76 19.0145 120.586 19.3911C120.412 19.7668 120.326 20.2074 120.326 20.711C120.326 21.2146 120.412 21.6552 120.586 22.0309C120.76 22.4065 120.995 22.6969 121.288 22.902C121.582 23.1071 121.911 23.2086 122.276 23.2086C122.641 23.2086 122.97 23.1061 123.264 22.902Z" fill="#B8D4F5"/>
<path d="M128.254 15.7158H131.187V23.095H135.113V25.7073H128.254V15.7158Z" fill="#B8D4F5"/>
<path d="M135.92 15.7158H138.853V23.095H142.779V25.7073H135.92V15.7158Z" fill="#B8D4F5"/>
<path d="M72.1171 3.87278e-05H166.556V8.54168H66.1484V6.85528C66.1484 3.07129 68.823 -0.000976562 72.1171 -0.000976562V3.87278e-05Z" fill="#EEF7FF"/>
<path d="M164.044 0H167.749C171.906 0 175.281 3.87739 175.281 8.6523V39.5973H156.512V8.6523C156.512 3.87739 159.887 0 164.044 0Z" fill="#B8D4F5"/>
<path d="M134.118 99.938H148.404V97.9734H134.118V99.938Z" fill="#B8D4F5"/>
<path d="M111.342 99.938H130.184V97.9734H111.342V99.938Z" fill="#B8D4F5"/>
<path d="M69.5181 99.938H107.201V97.9734H69.5181V99.938Z" fill="#B8D4F5"/>
<path d="M83.8042 64.7705H69.5176V66.7351H83.8042V64.7705Z" fill="#B8D4F5"/>
<path d="M106.58 64.7705H87.7383V66.7351H106.58V64.7705Z" fill="#B8D4F5"/>
<path d="M148.404 64.7705H110.721V66.7351H148.404V64.7705Z" fill="#B8D4F5"/>
<path d="M106.58 53.3748H69.5176V55.3393H106.58V53.3748Z" fill="#B8D4F5"/>
<path d="M148.404 53.3748H110.721V55.3393H148.404V53.3748Z" fill="#B8D4F5"/>
<path d="M92.0859 59.0728H69.5176V61.0373H92.0859V59.0728Z" fill="#B8D4F5"/>
<path d="M148.404 59.0728H96.8477V61.0373H148.404V59.0728Z" fill="#B8D4F5"/>
<path d="M92.0859 91.0969H69.5176V93.0615H92.0859V91.0969Z" fill="#B8D4F5"/>
<path d="M148.404 91.0969H96.8477V93.0615H148.404V91.0969Z" fill="#B8D4F5"/>
<path d="M148.404 77.3438H134.117V79.3083H148.404V77.3438Z" fill="#B8D4F5"/>
<path d="M130.183 77.3438H69.5176V79.3083H130.183V77.3438Z" fill="#B8D4F5"/>
<path d="M114.654 47.677H69.7246V49.6416H114.654V47.677Z" fill="#B8D4F5"/>
<path d="M148.405 47.677H119.418V49.6416H148.405V47.677Z" fill="#B8D4F5"/>
<path d="M114.447 104.85H69.5176V106.815H114.447V104.85Z" fill="#B8D4F5"/>
<path d="M148.405 104.85H119.418V106.815H148.405V104.85Z" fill="#B8D4F5"/>
<path d="M114.447 84.2205H69.5176V86.185H114.447V84.2205Z" fill="#B8D4F5"/>
<path d="M148.405 84.2205H119.418V86.185H148.405V84.2205Z" fill="#B8D4F5"/>
<path d="M114.447 70.4673H69.5176V72.4319H114.447V70.4673Z" fill="#B8D4F5"/>
<path d="M148.405 70.4673H119.418V72.4319H148.405V70.4673Z" fill="#B8D4F5"/>
<path d="M148.404 31.4609H69.7246V44.08H148.404V31.4609Z" fill="#B8D4F5"/>
<path d="M123.364 44.2565H69.5723V31.2842H123.364V44.2565ZM69.879 43.9042H123.058V31.6375H69.879V43.9042Z" fill="white"/>
<path d="M148.558 44.2565H89.2676V31.2842H148.558V44.2565ZM89.5743 43.9042H148.251V31.6375H89.5743V43.9042Z" fill="white"/>
<path d="M148.559 40.0248H69.5723V35.5149H148.559V40.0248ZM69.879 39.6725H148.252V35.8682H69.879V39.6725Z" fill="white"/>
<path d="M134.579 125.54H87.2862C83.6722 125.54 80.7422 122.416 80.7422 118.562C80.7422 114.708 83.6722 111.583 87.2862 111.583H134.579C138.194 111.583 141.123 114.708 141.123 118.562C141.123 122.416 138.194 125.54 134.579 125.54Z" fill="#4ABE43"/>
<path d="M54.954 101.428L20.2805 141.258C18.5393 143.258 18.5393 146.5 20.2805 148.5C22.0217 150.5 24.8438 150.5 26.585 148.5L61.2586 108.671L54.954 101.428Z" fill="#3B2D6A"/>
<path d="M92.9476 64.9298C82.9662 53.4641 66.7838 53.4641 56.8024 64.9298C46.8211 76.3955 46.8211 94.9844 56.8024 106.45C66.7838 117.916 82.9662 117.916 92.9476 106.45C102.929 94.9844 102.929 76.3955 92.9476 64.9298ZM90.426 67.8264C99.0144 77.692 99.0144 93.6869 90.426 103.552C81.8376 113.418 67.9133 113.418 59.3249 103.552C50.7365 93.6869 50.7365 77.692 59.3249 67.8264C67.9133 57.9609 81.8376 57.9609 90.426 67.8264Z" fill="#3B2D6A"/>
<path opacity="0.39" d="M74.9601 111.184C87.1713 111.184 97.0705 99.8131 97.0705 85.7859C97.0705 71.7587 87.1713 60.3875 74.9601 60.3875C62.7488 60.3875 52.8496 71.7587 52.8496 85.7859C52.8496 99.8131 62.7488 111.184 74.9601 111.184Z" fill="#679AE2"/>
<g opacity="0.53">
<path d="M94.9644 96.6201C94.1795 98.5329 93.1746 100.356 91.9504 102.041L60.8105 66.27C62.2769 64.8638 63.8643 63.7094 65.5294 62.8079L94.9644 96.6201Z" fill="#EFF8FF"/>
<path d="M59.3256 67.8264C59.3637 67.7828 59.4025 67.7412 59.4405 67.6975L90.7068 103.613C90.6688 103.657 90.6326 103.702 90.5946 103.745C90.0104 104.416 89.4005 105.041 88.7694 105.622L57.6914 69.922C58.197 69.1981 58.7405 68.4976 59.3248 67.8254L59.3256 67.8264Z" fill="#EFF8FF"/>
<path d="M55.7646 73.1709C56.0209 72.6572 56.294 72.1505 56.5839 71.6541L87.2615 106.894C86.8293 107.227 86.3883 107.541 85.9411 107.835L55.7637 73.1699L55.7646 73.1709Z" fill="#EFF8FF"/>
</g>
<path d="M197.336 138.571H165.072V142.701H197.336V138.571Z" fill="url(#paint0_linear_3_5848)"/>
<path style="mix-blend-mode:multiply" d="M197.336 141.829H165.072V142.701H197.336V141.829Z" fill="url(#paint1_linear_3_5848)"/>
<path style="mix-blend-mode:screen" d="M197.366 138.571H165.102V139.443H197.366V138.571Z" fill="url(#paint2_linear_3_5848)"/>
<path d="M195.245 134.441H162.98V138.571H195.245V134.441Z" fill="url(#paint3_linear_3_5848)"/>
<path style="mix-blend-mode:multiply" d="M195.245 137.699H162.98V138.571H195.245V137.699Z" fill="url(#paint4_linear_3_5848)"/>
<path style="mix-blend-mode:screen" d="M195.274 134.441H163.01V135.313H195.274V134.441Z" fill="url(#paint5_linear_3_5848)"/>
<path d="M198.84 131.183H166.576V135.313H198.84V131.183Z" fill="url(#paint6_linear_3_5848)"/>
<path style="mix-blend-mode:multiply" d="M198.84 134.441H166.576V135.313H198.84V134.441Z" fill="url(#paint7_linear_3_5848)"/>
<path style="mix-blend-mode:screen" d="M198.87 131.183H166.605V132.055H198.87V131.183Z" fill="url(#paint8_linear_3_5848)"/>
<path d="M197.678 127.489H165.414V131.619H197.678V127.489Z" fill="url(#paint9_linear_3_5848)"/>
<path style="mix-blend-mode:multiply" d="M197.678 130.747H165.414V131.619H197.678V130.747Z" fill="url(#paint10_linear_3_5848)"/>
<path style="mix-blend-mode:screen" d="M197.708 127.489H165.443V128.361H197.708V127.489Z" fill="url(#paint11_linear_3_5848)"/>
<path d="M199.596 123.816H167.332V127.946H199.596V123.816Z" fill="url(#paint12_linear_3_5848)"/>
<path style="mix-blend-mode:multiply" d="M199.596 127.075H167.332V127.947H199.596V127.075Z" fill="url(#paint13_linear_3_5848)"/>
<path style="mix-blend-mode:screen" d="M199.625 123.816H167.361V124.688H199.625V123.816Z" fill="url(#paint14_linear_3_5848)"/>
<path d="M199.61 119.686H167.346V123.816H199.61V119.686Z" fill="url(#paint15_linear_3_5848)"/>
<path style="mix-blend-mode:multiply" d="M199.61 122.945H167.346V123.817H199.61V122.945Z" fill="url(#paint16_linear_3_5848)"/>
<path style="mix-blend-mode:screen" d="M199.639 119.686H167.375V120.558H199.639V119.686Z" fill="url(#paint17_linear_3_5848)"/>
<path d="M198.825 115.556H166.561V119.687H198.825V115.556Z" fill="url(#paint18_linear_3_5848)"/>
<path style="mix-blend-mode:multiply" d="M198.825 118.814H166.561V119.687H198.825V118.814Z" fill="url(#paint19_linear_3_5848)"/>
<path style="mix-blend-mode:screen" d="M198.854 115.556H166.59V116.429H198.854V115.556Z" fill="url(#paint20_linear_3_5848)"/>
<path d="M199.971 111.426H167.707V115.556H199.971V111.426Z" fill="url(#paint21_linear_3_5848)"/>
<path style="mix-blend-mode:multiply" d="M199.971 114.684H167.707V115.556H199.971V114.684Z" fill="url(#paint22_linear_3_5848)"/>
<path style="mix-blend-mode:screen" d="M200 111.426H167.736V112.298H200V111.426Z" fill="url(#paint23_linear_3_5848)"/>
<path d="M198.073 107.311H165.809V111.441H198.073V107.311Z" fill="url(#paint24_linear_3_5848)"/>
<path style="mix-blend-mode:multiply" d="M198.073 110.569H165.809V111.441H198.073V110.569Z" fill="url(#paint25_linear_3_5848)"/>
<path style="mix-blend-mode:screen" d="M198.102 107.311H165.838V108.183H198.102V107.311Z" fill="url(#paint26_linear_3_5848)"/>
<path d="M199.395 103.166H167.131V107.296H199.395V103.166Z" fill="url(#paint27_linear_3_5848)"/>
<path style="mix-blend-mode:multiply" d="M199.395 106.424H167.131V107.296H199.395V106.424Z" fill="url(#paint28_linear_3_5848)"/>
<path style="mix-blend-mode:screen" d="M199.424 103.166H167.16V104.038H199.424V103.166Z" fill="url(#paint29_linear_3_5848)"/>
<path d="M95.26 122.109C94.7067 122.109 94.1767 122.042 93.67 121.909C93.1633 121.769 92.7467 121.586 92.42 121.359L92.93 119.929C93.2367 120.136 93.5967 120.299 94.01 120.419C94.4233 120.539 94.84 120.599 95.26 120.599C95.7 120.599 96.0067 120.542 96.18 120.429C96.36 120.309 96.45 120.162 96.45 119.989C96.45 119.836 96.3867 119.712 96.26 119.619C96.14 119.526 95.9233 119.446 95.61 119.379L94.44 119.129C93.1733 118.856 92.54 118.192 92.54 117.139C92.54 116.679 92.6633 116.276 92.91 115.929C93.1633 115.582 93.5133 115.316 93.96 115.129C94.4067 114.936 94.9267 114.839 95.52 114.839C96.0067 114.839 96.4667 114.909 96.9 115.049C97.34 115.182 97.6967 115.366 97.97 115.599L97.46 116.939C97.2067 116.752 96.9133 116.609 96.58 116.509C96.2467 116.402 95.8867 116.349 95.5 116.349C95.1267 116.349 94.84 116.416 94.64 116.549C94.44 116.676 94.34 116.842 94.34 117.049C94.34 117.196 94.4 117.316 94.52 117.409C94.64 117.502 94.8533 117.582 95.16 117.649L96.32 117.899C97.6067 118.172 98.25 118.819 98.25 119.839C98.25 120.299 98.1267 120.699 97.88 121.039C97.6333 121.379 97.2867 121.642 96.84 121.829C96.3933 122.016 95.8667 122.109 95.26 122.109ZM100.874 122.109C100.234 122.109 99.7603 121.936 99.4537 121.589C99.1537 121.236 99.0037 120.699 99.0037 119.979V117.079H100.784V120.029C100.784 120.509 100.99 120.749 101.404 120.749C101.644 120.749 101.84 120.662 101.994 120.489C102.147 120.316 102.224 120.086 102.224 119.799V117.079H104.004V121.999H102.264V121.389C101.944 121.869 101.48 122.109 100.874 122.109ZM107.55 122.109C106.996 122.109 106.513 122.006 106.1 121.799C105.693 121.592 105.376 121.296 105.15 120.909C104.923 120.522 104.81 120.062 104.81 119.529C104.81 118.996 104.923 118.539 105.15 118.159C105.376 117.772 105.693 117.479 106.1 117.279C106.513 117.072 106.996 116.969 107.55 116.969C107.876 116.969 108.2 117.016 108.52 117.109C108.846 117.196 109.113 117.319 109.32 117.479L108.85 118.699C108.696 118.579 108.516 118.486 108.31 118.419C108.11 118.346 107.92 118.309 107.74 118.309C107.386 118.309 107.113 118.416 106.92 118.629C106.726 118.842 106.63 119.142 106.63 119.529C106.63 119.922 106.726 120.229 106.92 120.449C107.113 120.662 107.386 120.769 107.74 120.769C107.92 120.769 108.11 120.736 108.31 120.669C108.516 120.596 108.696 120.499 108.85 120.379L109.32 121.599C109.113 121.759 108.846 121.886 108.52 121.979C108.193 122.066 107.87 122.109 107.55 122.109ZM112.296 122.109C111.742 122.109 111.259 122.006 110.846 121.799C110.439 121.592 110.122 121.296 109.896 120.909C109.669 120.522 109.556 120.062 109.556 119.529C109.556 118.996 109.669 118.539 109.896 118.159C110.122 117.772 110.439 117.479 110.846 117.279C111.259 117.072 111.742 116.969 112.296 116.969C112.622 116.969 112.946 117.016 113.266 117.109C113.592 117.196 113.859 117.319 114.066 117.479L113.596 118.699C113.442 118.579 113.262 118.486 113.056 118.419C112.856 118.346 112.666 118.309 112.486 118.309C112.132 118.309 111.859 118.416 111.666 118.629C111.472 118.842 111.376 119.142 111.376 119.529C111.376 119.922 111.472 120.229 111.666 120.449C111.859 120.662 112.132 120.769 112.486 120.769C112.666 120.769 112.856 120.736 113.056 120.669C113.262 120.596 113.442 120.499 113.596 120.379L114.066 121.599C113.859 121.759 113.592 121.886 113.266 121.979C112.939 122.066 112.616 122.109 112.296 122.109ZM117.212 122.109C116.612 122.109 116.092 122.006 115.652 121.799C115.218 121.586 114.885 121.286 114.652 120.899C114.418 120.512 114.302 120.056 114.302 119.529C114.302 119.029 114.412 118.586 114.632 118.199C114.858 117.812 115.165 117.512 115.552 117.299C115.945 117.079 116.392 116.969 116.892 116.969C117.385 116.969 117.812 117.072 118.172 117.279C118.538 117.486 118.818 117.782 119.012 118.169C119.212 118.549 119.312 118.996 119.312 119.509V119.899H116.002C116.062 120.219 116.195 120.449 116.402 120.589C116.608 120.729 116.895 120.799 117.262 120.799C117.515 120.799 117.778 120.762 118.052 120.689C118.332 120.609 118.578 120.496 118.792 120.349L119.232 121.519C118.978 121.699 118.668 121.842 118.302 121.949C117.935 122.056 117.572 122.109 117.212 122.109ZM116.972 118.119C116.705 118.119 116.485 118.199 116.312 118.359C116.145 118.519 116.038 118.752 115.992 119.059H117.852C117.832 118.746 117.745 118.512 117.592 118.359C117.445 118.199 117.238 118.119 116.972 118.119ZM122.039 122.109C121.585 122.109 121.165 122.062 120.779 121.969C120.399 121.876 120.075 121.746 119.809 121.579L120.219 120.429C120.465 120.569 120.752 120.686 121.079 120.779C121.405 120.866 121.729 120.909 122.049 120.909C122.295 120.909 122.472 120.876 122.579 120.809C122.685 120.736 122.739 120.642 122.739 120.529C122.739 120.429 122.702 120.356 122.629 120.309C122.562 120.256 122.465 120.216 122.339 120.189L121.229 120.009C120.815 119.942 120.495 119.792 120.269 119.559C120.042 119.326 119.929 119.022 119.929 118.649C119.929 118.302 120.025 118.006 120.219 117.759C120.412 117.506 120.682 117.312 121.029 117.179C121.375 117.039 121.772 116.969 122.219 116.969C122.572 116.969 122.922 117.012 123.269 117.099C123.615 117.179 123.919 117.312 124.179 117.499L123.739 118.629C123.545 118.496 123.305 118.386 123.019 118.299C122.732 118.206 122.475 118.159 122.249 118.159C121.975 118.159 121.782 118.199 121.669 118.279C121.555 118.352 121.499 118.442 121.499 118.549C121.499 118.729 121.622 118.839 121.869 118.879L122.979 119.069C123.405 119.136 123.732 119.282 123.959 119.509C124.192 119.729 124.309 120.029 124.309 120.409C124.309 120.949 124.102 121.369 123.689 121.669C123.275 121.962 122.725 122.109 122.039 122.109ZM127 122.109C126.546 122.109 126.126 122.062 125.74 121.969C125.36 121.876 125.036 121.746 124.77 121.579L125.18 120.429C125.426 120.569 125.713 120.686 126.04 120.779C126.366 120.866 126.69 120.909 127.01 120.909C127.256 120.909 127.433 120.876 127.54 120.809C127.646 120.736 127.7 120.642 127.7 120.529C127.7 120.429 127.663 120.356 127.59 120.309C127.523 120.256 127.426 120.216 127.3 120.189L126.19 120.009C125.776 119.942 125.456 119.792 125.23 119.559C125.003 119.326 124.89 119.022 124.89 118.649C124.89 118.302 124.986 118.006 125.18 117.759C125.373 117.506 125.643 117.312 125.99 117.179C126.336 117.039 126.733 116.969 127.18 116.969C127.533 116.969 127.883 117.012 128.23 117.099C128.576 117.179 128.88 117.312 129.14 117.499L128.7 118.629C128.506 118.496 128.266 118.386 127.98 118.299C127.693 118.206 127.436 118.159 127.21 118.159C126.936 118.159 126.743 118.199 126.63 118.279C126.516 118.352 126.46 118.442 126.46 118.549C126.46 118.729 126.583 118.839 126.83 118.879L127.94 119.069C128.366 119.136 128.693 119.282 128.92 119.509C129.153 119.729 129.27 120.029 129.27 120.409C129.27 120.949 129.063 121.369 128.65 121.669C128.236 121.962 127.686 122.109 127 122.109Z" fill="white"/>
<defs>
<linearGradient id="paint0_linear_3_5848" x1="165.072" y1="140.636" x2="197.336" y2="140.636" gradientUnits="userSpaceOnUse">
<stop stop-color="#FCE559"/>
<stop offset="1" stop-color="#F6AA28"/>
</linearGradient>
<linearGradient id="paint1_linear_3_5848" x1="-0.000488301" y1="142.266" x2="0.087897" y2="142.266" gradientUnits="userSpaceOnUse">
<stop stop-color="#FCE559"/>
<stop offset="1" stop-color="#F6AA28"/>
</linearGradient>
<linearGradient id="paint2_linear_3_5848" x1="165.102" y1="139.007" x2="197.366" y2="139.007" gradientUnits="userSpaceOnUse">
<stop stop-color="#FCE559"/>
<stop offset="1" stop-color="#F6AA28"/>
</linearGradient>
<linearGradient id="paint3_linear_3_5848" x1="162.98" y1="136.506" x2="195.245" y2="136.506" gradientUnits="userSpaceOnUse">
<stop stop-color="#FCE559"/>
<stop offset="1" stop-color="#F6AA28"/>
</linearGradient>
<linearGradient id="paint4_linear_3_5848" x1="162.98" y1="138.135" x2="195.245" y2="138.135" gradientUnits="userSpaceOnUse">
<stop stop-color="#FCE559"/>
<stop offset="1" stop-color="#F6AA28"/>
</linearGradient>
<linearGradient id="paint5_linear_3_5848" x1="163.01" y1="134.877" x2="195.274" y2="134.877" gradientUnits="userSpaceOnUse">
<stop stop-color="#FCE559"/>
<stop offset="1" stop-color="#F6AA28"/>
</linearGradient>
<linearGradient id="paint6_linear_3_5848" x1="166.576" y1="133.248" x2="198.84" y2="133.248" gradientUnits="userSpaceOnUse">
<stop stop-color="#FCE559"/>
<stop offset="1" stop-color="#F6AA28"/>
</linearGradient>
<linearGradient id="paint7_linear_3_5848" x1="166.576" y1="134.877" x2="198.84" y2="134.877" gradientUnits="userSpaceOnUse">
<stop stop-color="#FCE559"/>
<stop offset="1" stop-color="#F6AA28"/>
</linearGradient>
<linearGradient id="paint8_linear_3_5848" x1="166.605" y1="131.618" x2="198.869" y2="131.618" gradientUnits="userSpaceOnUse">
<stop stop-color="#FCE559"/>
<stop offset="1" stop-color="#F6AA28"/>
</linearGradient>
<linearGradient id="paint9_linear_3_5848" x1="165.414" y1="129.553" x2="197.678" y2="129.553" gradientUnits="userSpaceOnUse">
<stop stop-color="#FCE559"/>
<stop offset="1" stop-color="#F6AA28"/>
</linearGradient>
<linearGradient id="paint10_linear_3_5848" x1="165.414" y1="131.183" x2="197.678" y2="131.183" gradientUnits="userSpaceOnUse">
<stop stop-color="#FCE559"/>
<stop offset="1" stop-color="#F6AA28"/>
</linearGradient>
<linearGradient id="paint11_linear_3_5848" x1="165.443" y1="127.925" x2="197.707" y2="127.925" gradientUnits="userSpaceOnUse">
<stop stop-color="#FCE559"/>
<stop offset="1" stop-color="#F6AA28"/>
</linearGradient>
<linearGradient id="paint12_linear_3_5848" x1="167.332" y1="125.881" x2="199.595" y2="125.881" gradientUnits="userSpaceOnUse">
<stop stop-color="#FCE559"/>
<stop offset="1" stop-color="#F6AA28"/>
</linearGradient>
<linearGradient id="paint13_linear_3_5848" x1="167.332" y1="127.51" x2="199.595" y2="127.51" gradientUnits="userSpaceOnUse">
<stop stop-color="#FCE559"/>
<stop offset="1" stop-color="#F6AA28"/>
</linearGradient>
<linearGradient id="paint14_linear_3_5848" x1="167.361" y1="124.252" x2="199.625" y2="124.252" gradientUnits="userSpaceOnUse">
<stop stop-color="#FCE559"/>
<stop offset="1" stop-color="#F6AA28"/>
</linearGradient>
<linearGradient id="paint15_linear_3_5848" x1="167.346" y1="121.751" x2="199.61" y2="121.751" gradientUnits="userSpaceOnUse">
<stop stop-color="#FCE559"/>
<stop offset="1" stop-color="#F6AA28"/>
</linearGradient>
<linearGradient id="paint16_linear_3_5848" x1="167.346" y1="123.38" x2="199.61" y2="123.38" gradientUnits="userSpaceOnUse">
<stop stop-color="#FCE559"/>
<stop offset="1" stop-color="#F6AA28"/>
</linearGradient>
<linearGradient id="paint17_linear_3_5848" x1="167.375" y1="120.122" x2="199.639" y2="120.122" gradientUnits="userSpaceOnUse">
<stop stop-color="#FCE559"/>
<stop offset="1" stop-color="#F6AA28"/>
</linearGradient>
<linearGradient id="paint18_linear_3_5848" x1="166.561" y1="117.621" x2="198.825" y2="117.621" gradientUnits="userSpaceOnUse">
<stop stop-color="#FCE559"/>
<stop offset="1" stop-color="#F6AA28"/>
</linearGradient>
<linearGradient id="paint19_linear_3_5848" x1="166.561" y1="119.25" x2="198.825" y2="119.25" gradientUnits="userSpaceOnUse">
<stop stop-color="#FCE559"/>
<stop offset="1" stop-color="#F6AA28"/>
</linearGradient>
<linearGradient id="paint20_linear_3_5848" x1="166.59" y1="115.992" x2="198.854" y2="115.992" gradientUnits="userSpaceOnUse">
<stop stop-color="#FCE559"/>
<stop offset="1" stop-color="#F6AA28"/>
</linearGradient>
<linearGradient id="paint21_linear_3_5848" x1="167.707" y1="113.491" x2="199.971" y2="113.491" gradientUnits="userSpaceOnUse">
<stop stop-color="#FCE559"/>
<stop offset="1" stop-color="#F6AA28"/>
</linearGradient>
<linearGradient id="paint22_linear_3_5848" x1="167.707" y1="115.12" x2="199.971" y2="115.12" gradientUnits="userSpaceOnUse">
<stop stop-color="#FCE559"/>
<stop offset="1" stop-color="#F6AA28"/>
</linearGradient>
<linearGradient id="paint23_linear_3_5848" x1="167.736" y1="111.862" x2="200" y2="111.862" gradientUnits="userSpaceOnUse">
<stop stop-color="#FCE559"/>
<stop offset="1" stop-color="#F6AA28"/>
</linearGradient>
<linearGradient id="paint24_linear_3_5848" x1="165.809" y1="109.376" x2="198.072" y2="109.376" gradientUnits="userSpaceOnUse">
<stop stop-color="#FCE559"/>
<stop offset="1" stop-color="#F6AA28"/>
</linearGradient>
<linearGradient id="paint25_linear_3_5848" x1="165.809" y1="111.005" x2="198.072" y2="111.005" gradientUnits="userSpaceOnUse">
<stop stop-color="#FCE559"/>
<stop offset="1" stop-color="#F6AA28"/>
</linearGradient>
<linearGradient id="paint26_linear_3_5848" x1="165.838" y1="107.747" x2="198.102" y2="107.747" gradientUnits="userSpaceOnUse">
<stop stop-color="#FCE559"/>
<stop offset="1" stop-color="#F6AA28"/>
</linearGradient>
<linearGradient id="paint27_linear_3_5848" x1="167.131" y1="105.231" x2="199.394" y2="105.231" gradientUnits="userSpaceOnUse">
<stop stop-color="#FCE559"/>
<stop offset="1" stop-color="#F6AA28"/>
</linearGradient>
<linearGradient id="paint28_linear_3_5848" x1="167.131" y1="106.859" x2="199.394" y2="106.859" gradientUnits="userSpaceOnUse">
<stop stop-color="#FCE559"/>
<stop offset="1" stop-color="#F6AA28"/>
</linearGradient>
<linearGradient id="paint29_linear_3_5848" x1="167.16" y1="103.601" x2="199.424" y2="103.601" gradientUnits="userSpaceOnUse">
<stop stop-color="#FCE559"/>
<stop offset="1" stop-color="#F6AA28"/>
</linearGradient>
</defs>
</svg>
