<svg width="42" height="42" viewBox="0 0 42 42" fill="none" xmlns="http://www.w3.org/2000/svg">
<path d="M0 4C0 1.79086 1.79086 0 4 0H38C40.2091 0 42 1.79086 42 4V38C42 40.2091 40.2091 42 38 42H4C1.79086 42 0 40.2091 0 38V4Z" fill="#F6F6F6"/>
<path d="M9.6314 5.66832C9.45859 5.68634 9.29868 5.76791 9.18255 5.89697C9.0663 6.02614 9.00223 6.19385 9.00244 6.3675V35.6288C9.00213 35.8145 9.07546 35.9927 9.20619 36.1245C9.33702 36.2562 9.51473 36.3308 9.70035 36.332H32.2993C32.4849 36.3308 32.6626 36.2562 32.7934 36.1245C32.9242 35.9927 32.9975 35.8145 32.9972 35.6288V6.3675C32.9965 6.1825 32.9227 6.00532 32.7921 5.87438C32.6614 5.74344 32.4843 5.66938 32.2993 5.66834H9.70036C9.67734 5.66719 9.65431 5.66719 9.6313 5.66834L9.6314 5.66832ZM10.4048 7.07072H31.595V34.9294H10.4048V7.07072ZM18.4856 13.667C18.3108 13.659 18.1327 13.6763 17.9583 13.723C17.2607 13.91 16.7445 14.5301 16.6809 15.1801C16.6173 15.83 16.8352 16.4742 17.1731 17.1606C17.4775 17.7792 18.1731 18.4536 18.6717 19.1163C18.5529 19.9109 18.5884 20.5575 18.3657 21.3884C18.1429 22.2198 17.7894 22.7616 17.4947 23.5094C16.7315 23.834 15.7916 24.0699 15.2187 24.4534C14.5829 24.8789 14.0693 25.3236 13.7994 25.9183C13.5295 26.513 13.6676 27.3086 14.1782 27.8193C14.6889 28.33 15.4872 28.4668 16.0819 28.1969C16.6766 27.927 17.1212 27.4199 17.5467 26.7842C17.9304 26.211 18.1647 25.2667 18.4894 24.5029C19.2372 24.2082 19.7792 23.8546 20.6104 23.6319C21.4418 23.4092 22.089 23.4446 22.8839 23.3259C23.5471 23.8251 24.2219 24.5214 24.841 24.8259C25.5274 25.1638 26.1675 25.3843 26.8175 25.3207C27.4674 25.2571 28.0889 24.7384 28.2759 24.0407C28.4629 23.3431 28.1818 22.5888 27.6509 22.2088C27.1197 21.8288 26.4572 21.693 25.6939 21.6424C25.0063 21.5968 24.0752 21.8675 23.2525 21.9679C22.6235 21.4674 22.0447 21.174 21.4362 20.5653C20.8276 19.9569 20.5353 19.3793 20.035 18.7502C20.1358 17.9265 20.3998 16.9946 20.3541 16.3063C20.3035 15.5428 20.1703 14.8764 19.7903 14.3454C19.5052 13.947 19.0098 13.6913 18.4856 13.6669V13.667ZM18.4791 14.9548C18.6105 14.9333 18.6251 14.9775 18.7225 15.1137C18.8524 15.2952 18.9968 15.7579 19.039 16.3923C19.0544 16.6245 18.9227 17.0362 18.9153 17.3064C18.7747 17.0772 18.4565 16.7877 18.3541 16.5798C18.0733 16.0094 17.9703 15.5325 17.9921 15.3102C18.0138 15.088 17.9915 15.0805 18.3006 14.9977C18.3779 14.9771 18.4352 14.9619 18.4791 14.9547L18.4791 14.9548ZM19.7928 20.5708C20.0749 20.882 20.2015 21.1969 20.5025 21.4979C20.804 21.7994 21.1193 21.9277 21.4308 22.2101C21.02 22.2989 20.6822 22.2522 20.2707 22.3624C19.8596 22.4726 19.5925 22.6818 19.1926 22.8103C19.3215 22.4091 19.53 22.1395 19.6405 21.727C19.7505 21.3163 19.7043 20.9807 19.7928 20.5707L19.7928 20.5708ZM25.6054 22.9575C26.2397 22.9996 26.7051 23.1505 26.8866 23.2804C27.0683 23.4104 27.0838 23.393 27.0012 23.7022C26.9183 24.0115 26.9109 23.9852 26.6887 24.0069C26.4665 24.0286 25.9948 23.9269 25.4244 23.6463C25.2147 23.5432 24.9237 23.222 24.6927 23.0799C24.9622 23.0726 25.3736 22.9421 25.6055 22.9575L25.6054 22.9575ZM16.8046 25.1958C16.6758 25.4336 16.5838 25.8564 16.4544 26.05C16.1007 26.5783 15.7384 26.9044 15.5351 26.9965C15.3317 27.0888 15.3383 27.1123 15.112 26.8858C14.8856 26.6595 14.9115 26.6685 15.0039 26.4652C15.0962 26.2619 15.4235 25.9009 15.9519 25.5473C16.1454 25.4177 16.5668 25.3245 16.8048 25.1957L16.8046 25.1958Z" fill="#E61A1A"/>
</svg>
