<svg width="16" height="17" viewBox="0 0 16 17" fill="none" xmlns="http://www.w3.org/2000/svg">
<g clip-path="url(#clip0_12731_58760)">
<path d="M10.8501 9.91194L8.61926 8.23881V4.83062C8.61926 4.48794 8.34226 4.21094 7.99957 4.21094C7.65688 4.21094 7.37988 4.48794 7.37988 4.83062V8.54869C7.37988 8.74388 7.4716 8.92794 7.62776 9.04444L10.1064 10.9035C10.218 10.9871 10.3481 11.0274 10.4776 11.0274C10.6666 11.0274 10.8525 10.9425 10.974 10.7789C11.1798 10.5056 11.124 10.1171 10.8501 9.91194Z" fill="#E08100"/>
<path d="M8 0.5C3.58853 0.5 0 4.08853 0 8.5C0 12.9115 3.58853 16.5 8 16.5C12.4115 16.5 16 12.9115 16 8.5C16 4.08853 12.4115 0.5 8 0.5ZM8 15.2607C4.27266 15.2607 1.23934 12.2273 1.23934 8.5C1.23934 4.77266 4.27266 1.73934 8 1.73934C11.728 1.73934 14.7607 4.77266 14.7607 8.5C14.7607 12.2273 11.7273 15.2607 8 15.2607Z" fill="#E08100"/>
</g>
<defs>
<clipPath id="clip0_12731_58760">
<rect width="16" height="16" fill="white" transform="translate(0 0.5)"/>
</clipPath>
</defs>
</svg>
