<svg width="75" height="26" viewBox="0 0 75 26" fill="none" xmlns="http://www.w3.org/2000/svg">
<rect x="0.5" y="0.5" width="74" height="25" rx="3.5" stroke="#0C75EB"/>
<path d="M9.34 16.07C9.17333 16.07 9.04333 16.0233 8.95 15.93C8.86333 15.8367 8.82 15.7067 8.82 15.54V9.48C8.82 9.30667 8.86667 9.17667 8.96 9.09C9.05333 8.99667 9.18333 8.95 9.35 8.95H11.74C12.5 8.95 13.0867 9.13 13.5 9.49C13.9133 9.85 14.12 10.36 14.12 11.02C14.12 11.4467 14.0267 11.8133 13.84 12.12C13.6533 12.4267 13.38 12.66 13.02 12.82C12.6667 12.98 12.24 13.06 11.74 13.06L11.83 12.92H12.09C12.3567 12.92 12.5867 12.9867 12.78 13.12C12.98 13.2533 13.16 13.4667 13.32 13.76L14.18 15.36C14.2467 15.48 14.2767 15.5967 14.27 15.71C14.27 15.8167 14.23 15.9033 14.15 15.97C14.0767 16.0367 13.97 16.07 13.83 16.07C13.6833 16.07 13.5633 16.04 13.47 15.98C13.3833 15.9133 13.3033 15.8167 13.23 15.69L12.18 13.75C12.04 13.49 11.88 13.3167 11.7 13.23C11.52 13.1367 11.2833 13.09 10.99 13.09H9.86V15.54C9.86 15.7067 9.81667 15.8367 9.73 15.93C9.64333 16.0233 9.51333 16.07 9.34 16.07ZM9.86 12.31H11.57C12.0767 12.31 12.46 12.2033 12.72 11.99C12.98 11.7767 13.11 11.46 13.11 11.04C13.11 10.6267 12.98 10.3133 12.72 10.1C12.46 9.88667 12.0767 9.78 11.57 9.78H9.86V12.31ZM17.6504 16.09C17.1171 16.09 16.6571 15.99 16.2704 15.79C15.8904 15.5833 15.5937 15.2933 15.3804 14.92C15.1737 14.54 15.0704 14.09 15.0704 13.57C15.0704 13.0633 15.1737 12.62 15.3804 12.24C15.5871 11.86 15.8704 11.5633 16.2304 11.35C16.5904 11.1367 17.0004 11.03 17.4604 11.03C17.8004 11.03 18.1037 11.0867 18.3704 11.2C18.6371 11.3067 18.8637 11.4667 19.0504 11.68C19.2437 11.8867 19.3871 12.14 19.4804 12.44C19.5804 12.74 19.6304 13.0767 19.6304 13.45C19.6304 13.5633 19.5971 13.65 19.5304 13.71C19.4637 13.7633 19.3637 13.79 19.2304 13.79H15.8704V13.17H18.9504L18.7804 13.31C18.7804 12.9767 18.7304 12.6933 18.6304 12.46C18.5371 12.2267 18.3937 12.05 18.2004 11.93C18.0137 11.8033 17.7804 11.74 17.5004 11.74C17.1871 11.74 16.9204 11.8133 16.7004 11.96C16.4871 12.1067 16.3237 12.31 16.2104 12.57C16.0971 12.83 16.0404 13.1333 16.0404 13.48V13.54C16.0404 14.1267 16.1771 14.57 16.4504 14.87C16.7304 15.1633 17.1337 15.31 17.6604 15.31C17.8604 15.31 18.0704 15.2833 18.2904 15.23C18.5171 15.1767 18.7304 15.0867 18.9304 14.96C19.0437 14.8933 19.1437 14.8633 19.2304 14.87C19.3237 14.8767 19.3971 14.9067 19.4504 14.96C19.5104 15.0133 19.5471 15.08 19.5604 15.16C19.5737 15.24 19.5604 15.3233 19.5204 15.41C19.4804 15.49 19.4104 15.5633 19.3104 15.63C19.0837 15.7833 18.8204 15.9 18.5204 15.98C18.2204 16.0533 17.9304 16.09 17.6504 16.09ZM21.1887 13.74C21.0687 13.74 20.9687 13.7 20.8887 13.62C20.8087 13.54 20.7687 13.4433 20.7687 13.33C20.7687 13.21 20.8087 13.1133 20.8887 13.04C20.9687 12.96 21.0687 12.92 21.1887 12.92H23.3887C23.502 12.92 23.5987 12.96 23.6787 13.04C23.7587 13.1133 23.7987 13.21 23.7987 13.33C23.7987 13.4433 23.7587 13.54 23.6787 13.62C23.5987 13.7 23.502 13.74 23.3887 13.74H21.1887ZM25.0202 16.07C24.8869 16.07 24.7802 16.04 24.7002 15.98C24.6202 15.92 24.5736 15.84 24.5602 15.74C24.5469 15.64 24.5669 15.5267 24.6202 15.4L27.3302 9.32C27.3969 9.16 27.4802 9.04667 27.5802 8.98C27.6869 8.91333 27.8036 8.88 27.9302 8.88C28.0502 8.88 28.1602 8.91333 28.2602 8.98C28.3669 9.04667 28.4536 9.16 28.5202 9.32L31.2302 15.4C31.2902 15.5267 31.3136 15.6433 31.3002 15.75C31.2869 15.85 31.2436 15.93 31.1702 15.99C31.0969 16.0433 30.9936 16.07 30.8602 16.07C30.7136 16.07 30.5969 16.0333 30.5102 15.96C30.4236 15.8867 30.3469 15.7733 30.2802 15.62L29.5802 14L30.0502 14.28H25.7902L26.2502 14L25.5602 15.62C25.4936 15.78 25.4202 15.8967 25.3402 15.97C25.2602 16.0367 25.1536 16.07 25.0202 16.07ZM27.9102 10.1L26.4002 13.68L26.1502 13.44H29.6802L29.4502 13.68L27.9302 10.1H27.9102ZM33.9552 16.09C33.6618 16.09 33.3585 16.0567 33.0452 15.99C32.7385 15.9233 32.4552 15.81 32.1952 15.65C32.1085 15.59 32.0485 15.5233 32.0152 15.45C31.9818 15.3767 31.9685 15.3033 31.9752 15.23C31.9885 15.15 32.0185 15.0833 32.0652 15.03C32.1185 14.97 32.1818 14.9333 32.2552 14.92C32.3352 14.9067 32.4185 14.9233 32.5052 14.97C32.7652 15.1167 33.0152 15.22 33.2552 15.28C33.4952 15.3333 33.7318 15.36 33.9652 15.36C34.3185 15.36 34.5852 15.2967 34.7652 15.17C34.9452 15.0433 35.0352 14.8733 35.0352 14.66C35.0352 14.4867 34.9752 14.3533 34.8552 14.26C34.7352 14.16 34.5552 14.0833 34.3152 14.03L33.3652 13.84C32.9518 13.7533 32.6385 13.6 32.4252 13.38C32.2118 13.16 32.1052 12.88 32.1052 12.54C32.1052 12.2333 32.1885 11.9667 32.3552 11.74C32.5218 11.5133 32.7552 11.34 33.0552 11.22C33.3552 11.0933 33.7018 11.03 34.0952 11.03C34.3885 11.03 34.6652 11.0667 34.9252 11.14C35.1852 11.2133 35.4252 11.3233 35.6452 11.47C35.7318 11.5167 35.7885 11.58 35.8152 11.66C35.8418 11.7333 35.8452 11.8067 35.8252 11.88C35.8118 11.9533 35.7785 12.02 35.7252 12.08C35.6718 12.1333 35.6052 12.1667 35.5252 12.18C35.4518 12.1867 35.3685 12.1667 35.2752 12.12C35.0752 11.9933 34.8752 11.9033 34.6752 11.85C34.4818 11.7967 34.2885 11.77 34.0952 11.77C33.7418 11.77 33.4752 11.8367 33.2952 11.97C33.1218 12.0967 33.0352 12.27 33.0352 12.49C33.0352 12.6567 33.0885 12.7933 33.1952 12.9C33.3018 13.0067 33.4685 13.0833 33.6952 13.13L34.6452 13.32C35.0785 13.4067 35.4052 13.5533 35.6252 13.76C35.8518 13.9667 35.9652 14.2467 35.9652 14.6C35.9652 15.06 35.7818 15.4233 35.4152 15.69C35.0485 15.9567 34.5618 16.09 33.9552 16.09ZM38.7989 16.09C38.5056 16.09 38.2022 16.0567 37.8889 15.99C37.5822 15.9233 37.2989 15.81 37.0389 15.65C36.9522 15.59 36.8922 15.5233 36.8589 15.45C36.8256 15.3767 36.8122 15.3033 36.8189 15.23C36.8322 15.15 36.8622 15.0833 36.9089 15.03C36.9622 14.97 37.0256 14.9333 37.0989 14.92C37.1789 14.9067 37.2622 14.9233 37.3489 14.97C37.6089 15.1167 37.8589 15.22 38.0989 15.28C38.3389 15.3333 38.5756 15.36 38.8089 15.36C39.1622 15.36 39.4289 15.2967 39.6089 15.17C39.7889 15.0433 39.8789 14.8733 39.8789 14.66C39.8789 14.4867 39.8189 14.3533 39.6989 14.26C39.5789 14.16 39.3989 14.0833 39.1589 14.03L38.2089 13.84C37.7956 13.7533 37.4822 13.6 37.2689 13.38C37.0556 13.16 36.9489 12.88 36.9489 12.54C36.9489 12.2333 37.0322 11.9667 37.1989 11.74C37.3656 11.5133 37.5989 11.34 37.8989 11.22C38.1989 11.0933 38.5456 11.03 38.9389 11.03C39.2322 11.03 39.5089 11.0667 39.7689 11.14C40.0289 11.2133 40.2689 11.3233 40.4889 11.47C40.5756 11.5167 40.6322 11.58 40.6589 11.66C40.6856 11.7333 40.6889 11.8067 40.6689 11.88C40.6556 11.9533 40.6222 12.02 40.5689 12.08C40.5156 12.1333 40.4489 12.1667 40.3689 12.18C40.2956 12.1867 40.2122 12.1667 40.1189 12.12C39.9189 11.9933 39.7189 11.9033 39.5189 11.85C39.3256 11.7967 39.1322 11.77 38.9389 11.77C38.5856 11.77 38.3189 11.8367 38.1389 11.97C37.9656 12.0967 37.8789 12.27 37.8789 12.49C37.8789 12.6567 37.9322 12.7933 38.0389 12.9C38.1456 13.0067 38.3122 13.0833 38.5389 13.13L39.4889 13.32C39.9222 13.4067 40.2489 13.5533 40.4689 13.76C40.6956 13.9667 40.8089 14.2467 40.8089 14.6C40.8089 15.06 40.6256 15.4233 40.2589 15.69C39.8922 15.9567 39.4056 16.09 38.7989 16.09ZM42.4327 16.06C42.2727 16.06 42.1493 16.0133 42.0627 15.92C41.976 15.82 41.9327 15.6833 41.9327 15.51V11.61C41.9327 11.4367 41.976 11.3033 42.0627 11.21C42.1493 11.1167 42.2727 11.07 42.4327 11.07C42.5927 11.07 42.716 11.1167 42.8027 11.21C42.896 11.3033 42.9427 11.4367 42.9427 11.61V15.51C42.9427 15.6833 42.8993 15.82 42.8127 15.92C42.726 16.0133 42.5993 16.06 42.4327 16.06ZM42.4327 10.03C42.2327 10.03 42.076 9.98 41.9627 9.88C41.856 9.78 41.8027 9.64 41.8027 9.46C41.8027 9.27333 41.856 9.13333 41.9627 9.04C42.076 8.94 42.2327 8.89 42.4327 8.89C42.6327 8.89 42.786 8.94 42.8927 9.04C43.006 9.13333 43.0627 9.27333 43.0627 9.46C43.0627 9.64 43.006 9.78 42.8927 9.88C42.786 9.98 42.6327 10.03 42.4327 10.03ZM46.5743 17.89C46.2143 17.89 45.8643 17.8533 45.5243 17.78C45.191 17.7067 44.8876 17.5867 44.6143 17.42C44.5143 17.3667 44.4476 17.3 44.4143 17.22C44.381 17.1467 44.371 17.07 44.3843 16.99C44.4043 16.91 44.441 16.84 44.4943 16.78C44.5476 16.72 44.611 16.68 44.6843 16.66C44.7643 16.64 44.8476 16.6533 44.9343 16.7C45.2276 16.86 45.5043 16.9667 45.7643 17.02C46.031 17.08 46.2776 17.11 46.5043 17.11C46.971 17.11 47.321 16.99 47.5543 16.75C47.7876 16.5167 47.9043 16.17 47.9043 15.71V14.69H47.9943C47.8943 15.0567 47.6843 15.3467 47.3643 15.56C47.0443 15.7733 46.6743 15.88 46.2543 15.88C45.8143 15.88 45.431 15.78 45.1043 15.58C44.7776 15.3733 44.5243 15.09 44.3443 14.73C44.1643 14.3633 44.0743 13.9367 44.0743 13.45C44.0743 13.0833 44.1243 12.7533 44.2243 12.46C44.331 12.1667 44.4776 11.9133 44.6643 11.7C44.8576 11.4867 45.0876 11.3233 45.3543 11.21C45.6276 11.09 45.9276 11.03 46.2543 11.03C46.681 11.03 47.051 11.1367 47.3643 11.35C47.6843 11.5633 47.891 11.8533 47.9843 12.22L47.8843 12.39V11.56C47.8843 11.3933 47.9276 11.2667 48.0143 11.18C48.1076 11.0933 48.231 11.05 48.3843 11.05C48.5443 11.05 48.6676 11.0933 48.7543 11.18C48.841 11.2667 48.8843 11.3933 48.8843 11.56V15.59C48.8843 16.35 48.6876 16.9233 48.2943 17.31C47.901 17.6967 47.3276 17.89 46.5743 17.89ZM46.4943 15.09C46.7876 15.09 47.0376 15.0233 47.2443 14.89C47.451 14.7567 47.611 14.5667 47.7243 14.32C47.8376 14.0733 47.8943 13.7833 47.8943 13.45C47.8943 12.95 47.7676 12.5533 47.5143 12.26C47.2676 11.9667 46.9276 11.82 46.4943 11.82C46.2076 11.82 45.961 11.8867 45.7543 12.02C45.5476 12.1533 45.3843 12.3433 45.2643 12.59C45.151 12.83 45.0943 13.1167 45.0943 13.45C45.0943 13.9567 45.221 14.3567 45.4743 14.65C45.7276 14.9433 46.0676 15.09 46.4943 15.09ZM50.8018 16.07C50.6418 16.07 50.5185 16.0267 50.4318 15.94C50.3451 15.8467 50.3018 15.72 50.3018 15.56V11.56C50.3018 11.3933 50.3451 11.2667 50.4318 11.18C50.5185 11.0933 50.6385 11.05 50.7918 11.05C50.9518 11.05 51.0718 11.0933 51.1518 11.18C51.2385 11.2667 51.2818 11.3933 51.2818 11.56V12.34L51.1718 12.16C51.3185 11.7867 51.5485 11.5067 51.8618 11.32C52.1751 11.1267 52.5351 11.03 52.9418 11.03C53.3285 11.03 53.6485 11.1033 53.9018 11.25C54.1618 11.39 54.3551 11.6067 54.4818 11.9C54.6085 12.1867 54.6718 12.55 54.6718 12.99V15.56C54.6718 15.72 54.6285 15.8467 54.5418 15.94C54.4551 16.0267 54.3318 16.07 54.1718 16.07C54.0051 16.07 53.8785 16.0267 53.7918 15.94C53.7051 15.8467 53.6618 15.72 53.6618 15.56V13.05C53.6618 12.63 53.5785 12.3233 53.4118 12.13C53.2518 11.9367 52.9985 11.84 52.6518 11.84C52.2451 11.84 51.9185 11.9667 51.6718 12.22C51.4318 12.4733 51.3118 12.8133 51.3118 13.24V15.56C51.3118 15.9 51.1418 16.07 50.8018 16.07ZM58.3535 16.09C57.8202 16.09 57.3602 15.99 56.9735 15.79C56.5935 15.5833 56.2968 15.2933 56.0835 14.92C55.8768 14.54 55.7735 14.09 55.7735 13.57C55.7735 13.0633 55.8768 12.62 56.0835 12.24C56.2902 11.86 56.5735 11.5633 56.9335 11.35C57.2935 11.1367 57.7035 11.03 58.1635 11.03C58.5035 11.03 58.8068 11.0867 59.0735 11.2C59.3402 11.3067 59.5668 11.4667 59.7535 11.68C59.9468 11.8867 60.0902 12.14 60.1835 12.44C60.2835 12.74 60.3335 13.0767 60.3335 13.45C60.3335 13.5633 60.3002 13.65 60.2335 13.71C60.1668 13.7633 60.0668 13.79 59.9335 13.79H56.5735V13.17H59.6535L59.4835 13.31C59.4835 12.9767 59.4335 12.6933 59.3335 12.46C59.2402 12.2267 59.0968 12.05 58.9035 11.93C58.7168 11.8033 58.4835 11.74 58.2035 11.74C57.8902 11.74 57.6235 11.8133 57.4035 11.96C57.1902 12.1067 57.0268 12.31 56.9135 12.57C56.8002 12.83 56.7435 13.1333 56.7435 13.48V13.54C56.7435 14.1267 56.8802 14.57 57.1535 14.87C57.4335 15.1633 57.8368 15.31 58.3635 15.31C58.5635 15.31 58.7735 15.2833 58.9935 15.23C59.2202 15.1767 59.4335 15.0867 59.6335 14.96C59.7468 14.8933 59.8468 14.8633 59.9335 14.87C60.0268 14.8767 60.1002 14.9067 60.1535 14.96C60.2135 15.0133 60.2502 15.08 60.2635 15.16C60.2768 15.24 60.2635 15.3233 60.2235 15.41C60.1835 15.49 60.1135 15.5633 60.0135 15.63C59.7868 15.7833 59.5235 15.9 59.2235 15.98C58.9235 16.0533 58.6335 16.09 58.3535 16.09ZM63.2946 16.09C62.8679 16.09 62.4913 15.99 62.1646 15.79C61.8446 15.5833 61.5946 15.29 61.4146 14.91C61.2346 14.5233 61.1446 14.0733 61.1446 13.56C61.1446 13.0333 61.2346 12.5833 61.4146 12.21C61.5946 11.8367 61.8446 11.5467 62.1646 11.34C62.4913 11.1333 62.8679 11.03 63.2946 11.03C63.7213 11.03 64.0879 11.1367 64.3946 11.35C64.7079 11.5567 64.9179 11.8367 65.0246 12.19H64.9146V9.39C64.9146 9.22333 64.9579 9.09667 65.0446 9.01C65.1313 8.92333 65.2546 8.88 65.4146 8.88C65.5746 8.88 65.6979 8.92333 65.7846 9.01C65.8779 9.09667 65.9246 9.22333 65.9246 9.39V15.56C65.9246 15.72 65.8813 15.8467 65.7946 15.94C65.7079 16.0267 65.5846 16.07 65.4246 16.07C65.2646 16.07 65.1413 16.0267 65.0546 15.94C64.9679 15.8467 64.9246 15.72 64.9246 15.56V14.68L65.0346 14.9C64.9279 15.26 64.7179 15.55 64.4046 15.77C64.0979 15.9833 63.7279 16.09 63.2946 16.09ZM63.5546 15.31C63.8279 15.31 64.0679 15.2433 64.2746 15.11C64.4813 14.9767 64.6413 14.78 64.7546 14.52C64.8746 14.26 64.9346 13.94 64.9346 13.56C64.9346 12.9867 64.8079 12.5533 64.5546 12.26C64.3013 11.9667 63.9679 11.82 63.5546 11.82C63.2746 11.82 63.0313 11.8867 62.8246 12.02C62.6179 12.1467 62.4546 12.34 62.3346 12.6C62.2213 12.86 62.1646 13.18 62.1646 13.56C62.1646 14.1267 62.2913 14.56 62.5446 14.86C62.7979 15.16 63.1346 15.31 63.5546 15.31Z" fill="#0C75EB"/>
</svg>
