<svg width="18" height="18" viewBox="0 0 18 18" fill="none" xmlns="http://www.w3.org/2000/svg">
<path fill-rule="evenodd" clip-rule="evenodd" d="M9 17.5C13.6944 17.5 17.5 13.6944 17.5 9C17.5 4.30558 13.6944 0.5 9 0.5C4.30558 0.5 0.5 4.30558 0.5 9C0.5 13.6944 4.30558 17.5 9 17.5ZM11.5043 6.49566C11.781 6.77228 11.781 7.22078 11.5043 7.4974L10.0017 9.00002L11.5043 10.5026C11.7809 10.7792 11.7809 11.2277 11.5043 11.5044C11.2277 11.781 10.7792 11.781 10.5026 11.5044L8.99998 10.0017L7.4974 11.5043C7.22078 11.781 6.77228 11.781 6.49566 11.5043C6.21904 11.2277 6.21904 10.7792 6.49566 10.5026L7.99825 9.00002L6.49565 7.49741C6.21903 7.22079 6.21903 6.7723 6.49565 6.49568C6.77227 6.21906 7.22076 6.21906 7.49738 6.49568L8.99998 7.99828L10.5026 6.49566C10.7792 6.21904 11.2277 6.21904 11.5043 6.49566Z" fill="white"/>
</svg>
