<svg width="196" height="196" viewBox="0 0 196 196" fill="none" xmlns="http://www.w3.org/2000/svg">
<path d="M196 149.902H0V150H196V149.902Z" fill="#EBEBEB"/>
<path d="M176.361 156.211H163.377V156.309H176.361V156.211Z" fill="#EBEBEB"/>
<path d="M129.838 157.273H126.431V157.371H129.838V157.273Z" fill="#EBEBEB"/>
<path d="M162.985 152.57H155.462V152.668H162.985V152.57Z" fill="#EBEBEB"/>
<path d="M37.4951 153.23H20.5635V153.328H37.4951V153.23Z" fill="#EBEBEB"/>
<path d="M43.4689 153.23H40.9863V153.328H43.4689V153.23Z" fill="#EBEBEB"/>
<path d="M88.2581 154.887H51.5371V154.985H88.2581V154.887Z" fill="#EBEBEB"/>
<path d="M92.9099 132.419H17.2151C15.9815 132.419 14.9775 131.415 14.9775 130.182V23.7805C14.9775 22.5469 15.9815 21.543 17.2151 21.543H92.9099C94.1431 21.543 95.147 22.5469 95.147 23.7805V130.182C95.147 131.415 94.1431 132.419 92.9099 132.419ZM17.2151 21.6414C16.0352 21.6414 15.0755 22.601 15.0755 23.7809V130.182C15.0755 131.362 16.0352 132.322 17.2151 132.322H92.9099C94.0894 132.322 95.049 131.362 95.049 130.182V23.7805C95.049 22.601 94.0894 21.641 92.9099 21.641L17.2151 21.6414Z" fill="#EBEBEB"/>
<path d="M177.697 132.419H102.003C100.769 132.419 99.7656 131.415 99.7656 130.182V23.7805C99.7656 22.5469 100.77 21.543 102.003 21.543H177.697C178.931 21.543 179.935 22.5469 179.935 23.7805V130.182C179.935 131.415 178.931 132.419 177.697 132.419ZM102.003 21.6414C100.823 21.6414 99.8636 22.601 99.8636 23.7809V130.182C99.8636 131.362 100.823 132.322 102.003 132.322H177.697C178.877 132.322 179.837 131.362 179.837 130.182V23.7805C179.837 22.601 178.877 21.641 177.697 21.641L102.003 21.6414Z" fill="#EBEBEB"/>
<path d="M113.559 68.2305H167.569V32.8615L113.559 32.8615V68.2305Z" fill="#E6E6E6"/>
<path d="M111.912 68.2305H166.8V32.8615L111.912 32.8615V68.2305Z" fill="#F0F0F0"/>
<path d="M113.559 75.1719H167.569V68.2303H113.559V75.1719Z" fill="#E6E6E6"/>
<path d="M109.166 75.1719H164.054V68.2303H109.166V75.1719Z" fill="#F0F0F0"/>
<path d="M164.492 65.9266V35.1719L114.219 35.1719V65.9266L164.492 65.9266Z" fill="#FAFAFA"/>
<path d="M153.156 65.9266L146.735 35.1719H136.715L143.136 65.9266H153.156Z" fill="white"/>
<path d="M163.424 63.6295C163.515 63.6295 163.589 63.5558 163.589 63.4649V36.6725C163.589 36.5815 163.515 36.5078 163.424 36.5078C163.333 36.5078 163.259 36.5815 163.259 36.6725V63.4649C163.259 63.5558 163.333 63.6295 163.424 63.6295Z" fill="#F0F0F0"/>
<path d="M140.983 65.9266L134.562 35.1719H130.655L137.077 65.9266H140.983Z" fill="white"/>
<path d="M114.512 65.9266V35.1719H114.219V65.9266H114.512Z" fill="#E6E6E6"/>
<path opacity="0.6" d="M111.365 38.6481H165.375L165.587 36.0664H111.577L111.365 38.6481Z" fill="#EBEBEB"/>
<path opacity="0.6" d="M111.365 42.8825H165.375L165.587 40.3008H111.577L111.365 42.8825Z" fill="#EBEBEB"/>
<path opacity="0.6" d="M111.365 47.1169H165.375L165.587 44.5352H111.577L111.365 47.1169Z" fill="#EBEBEB"/>
<path opacity="0.6" d="M111.365 51.3512H165.375L165.587 48.7695H111.577L111.365 51.3512Z" fill="#EBEBEB"/>
<path opacity="0.6" d="M111.365 55.5856H165.375L165.587 53.0039H111.577L111.365 55.5856Z" fill="#EBEBEB"/>
<path opacity="0.6" d="M111.365 59.82H165.375L165.587 57.2383H111.577L111.365 59.82Z" fill="#EBEBEB"/>
<path d="M159.814 124.18H148.489V126.413H159.814V124.18Z" fill="#E6E6E6"/>
<path d="M127.129 149.902H129.22V98.5249H127.129V149.902Z" fill="#E6E6E6"/>
<path d="M119.888 126.41H148.489V124.177H119.888V126.41Z" fill="#F5F5F5"/>
<path d="M159.814 136.395H148.489V138.627H159.814V136.395Z" fill="#E6E6E6"/>
<path d="M119.888 138.629H148.489V136.396H119.888V138.629Z" fill="#F5F5F5"/>
<path d="M159.814 99.7461H148.489V101.979H159.814V99.7461Z" fill="#E6E6E6"/>
<path d="M119.888 101.977H148.489V99.7437H119.888V101.977Z" fill="#F5F5F5"/>
<path d="M159.814 111.961H148.489V114.194H159.814V111.961Z" fill="#E6E6E6"/>
<path d="M119.888 114.195H148.489V111.962H119.888V114.195Z" fill="#F5F5F5"/>
<path d="M155.73 149.902H157.82V98.5249H155.73V149.902Z" fill="#E6E6E6"/>
<path d="M146.399 149.902H148.489V98.5249H146.399V149.902Z" fill="#F5F5F5"/>
<path d="M119.888 149.902H121.979V98.5249H119.888V149.902Z" fill="#F5F5F5"/>
<path d="M25.6259 149.902H47.0205L47.0205 108.393H25.6259L25.6259 149.902Z" fill="#E6E6E6"/>
<path d="M31.339 149.902H25.626V144.172H37.3287L31.339 149.902Z" fill="#FAFAFA"/>
<path d="M83.9589 149.902H105.354V108.393H83.9589V149.902Z" fill="#E6E6E6"/>
<path d="M25.6259 147.93H88.9453V108.392H25.6259L25.6259 147.93Z" fill="#FAFAFA"/>
<path d="M83.2323 149.902H88.9453V144.172H77.2422L83.2323 149.902Z" fill="#FAFAFA"/>
<path d="M30.0582 133.02H84.5137V123.125H30.0582V133.02Z" fill="#F0F0F0"/>
<path d="M30.0582 145.027H84.5137V135.133H30.0582V145.027Z" fill="#F0F0F0"/>
<path d="M40.408 124.181H74.1624C75.153 124.181 75.9562 123.377 75.9562 122.386V122.266H38.6143V122.386C38.6143 123.377 39.4175 124.181 40.408 124.181Z" fill="#FAFAFA"/>
<path d="M30.0582 121.008H84.5137V111.113H30.0582V121.008Z" fill="#F0F0F0"/>
<path d="M40.408 112.173H74.1624C75.153 112.173 75.9562 111.37 75.9562 110.379V110.258H38.6143V110.379C38.6143 111.37 39.4175 112.173 40.408 112.173Z" fill="#FAFAFA"/>
<path d="M40.408 136.192H74.1624C75.153 136.192 75.9562 135.389 75.9562 134.398V134.277H38.6143V134.398C38.6143 135.389 39.4175 136.192 40.408 136.192Z" fill="#FAFAFA"/>
<path d="M29.0348 68.2305H83.0449V32.8615L29.0348 32.8615L29.0348 68.2305Z" fill="#E6E6E6"/>
<path d="M27.3876 68.2305H82.2754V32.8615L27.3876 32.8615L27.3876 68.2305Z" fill="#F0F0F0"/>
<path d="M29.0348 75.1719H83.0449V68.2303H29.0348V75.1719Z" fill="#E6E6E6"/>
<path d="M24.6415 75.1719H79.5293V68.2303H24.6415V75.1719Z" fill="#F0F0F0"/>
<path d="M79.9678 65.9266V35.1719L29.6942 35.1719L29.6942 65.9266L79.9678 65.9266Z" fill="#FAFAFA"/>
<path d="M68.6317 65.9266L62.2103 35.1719H52.1904L58.6118 65.9266H68.6317Z" fill="white"/>
<path d="M78.8994 63.6295C78.9904 63.6295 79.064 63.5558 79.064 63.4649V36.6725C79.064 36.5815 78.9904 36.5078 78.8994 36.5078C78.8085 36.5078 78.7344 36.5815 78.7344 36.6725V63.4649C78.7348 63.5558 78.8085 63.6295 78.8994 63.6295Z" fill="#F0F0F0"/>
<path d="M56.4595 65.9266L50.0381 35.1719H46.1318L52.5532 65.9266H56.4595Z" fill="white"/>
<path d="M29.9873 65.9266L29.9873 35.1719H29.6945L29.6945 65.9266H29.9873Z" fill="#E6E6E6"/>
<path opacity="0.6" d="M26.8408 38.6481H80.851L81.0634 36.0664H27.0533L26.8408 38.6481Z" fill="#EBEBEB"/>
<path opacity="0.6" d="M26.8408 40.1055H80.851L81.0634 37.5234H27.0533L26.8408 40.1055Z" fill="#EBEBEB"/>
<path opacity="0.6" d="M26.8408 41.5622H80.851L81.0634 38.9805H27.0533L26.8408 41.5622Z" fill="#EBEBEB"/>
<path opacity="0.6" d="M26.8408 43.0196H80.851L81.0634 40.4375H27.0533L26.8408 43.0196Z" fill="#EBEBEB"/>
<path opacity="0.6" d="M26.8408 44.4762H80.851L81.0634 41.8945H27.0533L26.8408 44.4762Z" fill="#EBEBEB"/>
<path opacity="0.6" d="M26.8408 45.9294H80.851L81.0634 43.3477H27.0533L26.8408 45.9294Z" fill="#EBEBEB"/>
<path d="M37.6368 107.125H39.5039V86.3129H37.6368V107.125Z" fill="#F5F5F5"/>
<path d="M37.878 107.109H38.4053V86.2973H37.878V107.109Z" fill="#FAFAFA"/>
<path d="M38.6254 107.109H38.832V86.2973H38.6254V107.109Z" fill="#FAFAFA"/>
<path d="M31.6592 108.394H45.4827C45.4827 107.432 44.703 106.652 43.741 106.652H33.4008C32.4389 106.652 31.6592 107.432 31.6592 108.394Z" fill="#F0F0F0"/>
<path d="M35.2148 99.2313C35.5103 99.2313 35.7518 98.9895 35.7518 98.6943V85.0488C35.7518 84.7536 35.51 84.5117 35.2148 84.5117C34.9192 84.5117 34.6777 84.7536 34.6777 85.0488V98.6943C34.6777 98.9899 34.9192 99.2313 35.2148 99.2313Z" fill="#F0F0F0"/>
<path d="M30.2129 91.2593H46.9286L45.0058 79.5781H32.1357L30.2129 91.2593Z" fill="#E0E0E0"/>
<path d="M97.9996 167.604C139.976 167.604 174.004 165.617 174.004 163.165C174.004 160.714 139.976 158.727 97.9996 158.727C56.0235 158.727 21.9951 160.714 21.9951 163.165C21.9951 165.617 56.0235 167.604 97.9996 167.604Z" fill="#F5F5F5"/>
<path d="M40.8099 79.3234L40.4189 79.3516L40.9393 86.5804L41.3303 86.5523L40.8099 79.3234Z" fill="#407BFF"/>
<path d="M41.6058 90.2843L41.2148 90.3125L41.4109 93.0318L41.8018 93.0036L41.6058 90.2843Z" fill="#407BFF"/>
<path d="M132.382 123.543H48.4325C46.5337 123.543 44.8685 121.99 44.7317 120.091L40.6066 62.8078C40.4698 60.909 41.9116 59.3555 43.8105 59.3555H127.76C129.659 59.3555 131.324 60.909 131.461 62.8078L135.586 120.091C135.723 121.99 134.281 123.543 132.382 123.543Z" fill="#407BFF"/>
<path d="M132.705 123.543H48.7548C46.8559 123.543 45.1907 121.99 45.0539 120.091L40.9289 62.8078C40.7921 60.909 42.2339 59.3555 44.1327 59.3555H128.083C129.981 59.3555 131.647 60.909 131.784 62.8078L135.909 120.091C136.045 121.99 134.604 123.543 132.705 123.543Z" fill="#407BFF"/>
<path opacity="0.5" d="M132.705 123.543H48.7548C46.8559 123.543 45.1907 121.99 45.0539 120.091L40.9289 62.8078C40.7921 60.909 42.2339 59.3555 44.1327 59.3555H128.083C129.981 59.3555 131.647 60.909 131.784 62.8078L135.909 120.091C136.045 121.99 134.604 123.543 132.705 123.543Z" fill="white"/>
<path d="M128.207 61.082H44.2574C44.1626 61.082 44.0689 61.086 43.9764 61.0934C41.8306 61.2702 42.2688 64.5344 44.4346 64.5344H128.528C130.693 64.5344 130.662 61.2702 128.49 61.0934C128.397 61.086 128.302 61.082 128.207 61.082Z" fill="#407BFF"/>
<path d="M46.4434 62.8071C46.4747 63.2442 46.1462 63.5985 45.7088 63.5985C45.2717 63.5985 44.8918 63.2442 44.8605 62.8071C44.8291 62.37 45.1576 62.0156 45.5951 62.0156C46.0325 62.0156 46.412 62.3696 46.4434 62.8071Z" fill="#FAFAFA"/>
<path d="M49.1357 62.8071C49.1671 63.2442 48.8386 63.5985 48.4011 63.5985C47.9641 63.5985 47.5842 63.2442 47.5529 62.8071C47.5215 62.37 47.85 62.0156 48.2875 62.0156C48.7245 62.0156 49.1044 62.3696 49.1357 62.8071Z" fill="#FAFAFA"/>
<path d="M51.8285 62.8071C51.8599 63.2442 51.531 63.5985 51.0939 63.5985C50.6568 63.5985 50.277 63.2442 50.2452 62.8071C50.2139 62.37 50.5428 62.0156 50.9798 62.0156C51.4169 62.0156 51.7968 62.3696 51.8285 62.8071Z" fill="#FAFAFA"/>
<path d="M130.478 117.826H50.1564C49.4653 117.826 48.8644 117.266 48.8146 116.575L45.4222 69.4667C45.3725 68.7756 45.8926 68.2151 46.5837 68.2151H126.906C127.597 68.2151 128.198 68.7753 128.248 69.4667L131.64 116.575C131.69 117.266 131.169 117.826 130.478 117.826Z" fill="white"/>
<path d="M96.6385 99.8821L95.3312 81.725L91.3689 79.3401H80.4697L81.9491 99.8821H96.6385Z" fill="white"/>
<path d="M96.639 100.071H81.9495C81.85 100.071 81.7673 99.9937 81.7602 99.8941L80.2808 79.3521C80.2769 79.2996 80.2953 79.2475 80.3314 79.2091C80.3674 79.1702 80.4176 79.1487 80.4705 79.1487H91.3697C91.4042 79.1487 91.4383 79.1581 91.4677 79.1761L95.4296 81.5607C95.4826 81.5924 95.5167 81.6481 95.521 81.7096L96.8283 99.8667C96.8322 99.9192 96.8138 99.9713 96.7777 100.01C96.742 100.049 96.6915 100.071 96.639 100.071ZM82.1263 99.6907H96.4347L95.149 81.8355L91.3168 79.5285H80.6744L82.1263 99.6907Z" fill="#407BFF"/>
<path d="M95.3325 81.7248L91.3701 79.3398L92.8248 82.4994L95.3325 81.7248Z" fill="#EBEBEB"/>
<path d="M92.8243 82.6875C92.7518 82.6875 92.6836 82.6456 92.6519 82.577L91.1972 79.4178C91.1623 79.3422 91.1807 79.2524 91.243 79.1967C91.305 79.1411 91.3963 79.1328 91.4676 79.1756L95.4296 81.5605C95.4939 81.5989 95.5291 81.6718 95.5201 81.7463C95.5111 81.8208 95.4594 81.8827 95.3876 81.9047L92.8804 82.6793C92.862 82.6848 92.8432 82.6875 92.8243 82.6875ZM91.8004 79.8192L92.9274 82.2669L94.8702 81.6667L91.8004 79.8192Z" fill="#407BFF"/>
<path d="M86.6189 88.5916C86.6519 89.0498 86.3073 89.4214 85.8487 89.4214C85.39 89.4214 84.9921 89.0498 84.9592 88.5916C84.9263 88.1333 85.2708 87.7617 85.7291 87.7617C86.1873 87.7617 86.586 88.1333 86.6189 88.5916Z" fill="#407BFF"/>
<path d="M92.0031 88.5916C92.036 89.0498 91.6915 89.4214 91.2328 89.4214C90.7746 89.4214 90.3763 89.0498 90.343 88.5916C90.3101 88.1333 90.6546 87.7617 91.1133 87.7617C91.5719 87.7621 91.9702 88.1333 92.0031 88.5916Z" fill="#407BFF"/>
<path d="M93.5224 93.9726C93.4236 93.9726 93.3405 93.8961 93.3331 93.7962C93.237 92.4618 91.1446 91.3763 88.6683 91.3763C87.0278 91.3763 85.555 91.864 84.8243 92.6492C84.4994 92.9984 84.3492 93.3747 84.3775 93.7687C84.3849 93.8734 84.3061 93.9643 84.2015 93.9718C84.0964 93.9784 84.0058 93.9004 83.9984 93.7958C83.9627 93.2995 84.1521 92.8134 84.546 92.39C85.3461 91.53 86.9255 90.9961 88.6683 90.9961C91.3845 90.9961 93.6 92.214 93.7122 93.7683C93.7196 93.873 93.6408 93.9639 93.5361 93.9714C93.5314 93.9725 93.5267 93.9726 93.5224 93.9726Z" fill="#407BFF"/>
<path d="M83.5603 86.9135C83.514 86.9135 83.4678 86.8966 83.4309 86.8629C83.3541 86.7916 83.3494 86.6712 83.4207 86.5944L84.2533 85.6975C84.3247 85.6203 84.445 85.6164 84.5219 85.6873C84.5987 85.7587 84.603 85.879 84.532 85.9558L83.6998 86.8527C83.6622 86.8931 83.6112 86.9135 83.5603 86.9135Z" fill="#407BFF"/>
<path d="M93.1322 86.9135C93.0859 86.9135 93.0393 86.8966 93.0024 86.8625L92.0409 85.9656C91.964 85.8943 91.9601 85.7739 92.0314 85.6971C92.1028 85.6203 92.2231 85.6163 92.3 85.6877L93.2615 86.5846C93.3384 86.6559 93.3423 86.7763 93.2709 86.8531C93.2337 86.8931 93.1831 86.9135 93.1322 86.9135Z" fill="#407BFF"/>
<path d="M65.17 110.09C64.8633 110.09 64.5633 110.067 64.27 110.02C63.9767 109.973 63.7 109.903 63.44 109.81C63.18 109.71 62.9467 109.59 62.74 109.45C62.64 109.377 62.57 109.293 62.53 109.2C62.4967 109.107 62.4867 109.017 62.5 108.93C62.52 108.837 62.56 108.757 62.62 108.69C62.68 108.623 62.7533 108.583 62.84 108.57C62.9267 108.55 63.0233 108.577 63.13 108.65C63.43 108.843 63.7467 108.987 64.08 109.08C64.4133 109.167 64.7767 109.21 65.17 109.21C65.7367 109.21 66.1533 109.11 66.42 108.91C66.6933 108.703 66.83 108.437 66.83 108.11C66.83 107.843 66.7333 107.633 66.54 107.48C66.3467 107.32 66.0233 107.193 65.57 107.1L64.5 106.88C63.8667 106.747 63.3933 106.527 63.08 106.22C62.7733 105.913 62.62 105.5 62.62 104.98C62.62 104.667 62.6833 104.38 62.81 104.12C62.9433 103.86 63.1267 103.637 63.36 103.45C63.5933 103.257 63.8733 103.11 64.2 103.01C64.5267 102.91 64.8833 102.86 65.27 102.86C65.6833 102.86 66.07 102.913 66.43 103.02C66.7967 103.127 67.1233 103.29 67.41 103.51C67.4967 103.57 67.5533 103.647 67.58 103.74C67.6133 103.827 67.62 103.913 67.6 104C67.5867 104.087 67.55 104.16 67.49 104.22C67.43 104.28 67.3533 104.317 67.26 104.33C67.1667 104.337 67.0633 104.303 66.95 104.23C66.69 104.057 66.4233 103.933 66.15 103.86C65.8833 103.78 65.5867 103.74 65.26 103.74C64.9333 103.74 64.6467 103.79 64.4 103.89C64.16 103.99 63.9733 104.13 63.84 104.31C63.7133 104.49 63.65 104.703 63.65 104.95C63.65 105.23 63.74 105.453 63.92 105.62C64.1 105.787 64.4 105.913 64.82 106L65.88 106.22C66.5467 106.36 67.0433 106.577 67.37 106.87C67.6967 107.163 67.86 107.553 67.86 108.04C67.86 108.353 67.7967 108.637 67.67 108.89C67.5433 109.137 67.3633 109.35 67.13 109.53C66.8967 109.71 66.6133 109.85 66.28 109.95C65.9533 110.043 65.5833 110.09 65.17 110.09ZM69.4307 110.07C69.2707 110.07 69.1474 110.027 69.0607 109.94C68.974 109.847 68.9307 109.72 68.9307 109.56V103.39C68.9307 103.223 68.974 103.097 69.0607 103.01C69.1474 102.923 69.2707 102.88 69.4307 102.88C69.5907 102.88 69.714 102.923 69.8007 103.01C69.894 103.097 69.9407 103.223 69.9407 103.39V107.25H69.9607L71.8307 105.39C71.9374 105.283 72.034 105.2 72.1207 105.14C72.2074 105.08 72.3207 105.05 72.4607 105.05C72.6007 105.05 72.7074 105.087 72.7807 105.16C72.854 105.233 72.8907 105.323 72.8907 105.43C72.8907 105.53 72.8407 105.633 72.7407 105.74L70.7607 107.7V107.23L72.9207 109.38C73.0274 109.487 73.0774 109.593 73.0707 109.7C73.064 109.807 73.0207 109.897 72.9407 109.97C72.8607 110.037 72.7607 110.07 72.6407 110.07C72.4874 110.07 72.364 110.04 72.2707 109.98C72.184 109.92 72.0807 109.83 71.9607 109.71L69.9607 107.77H69.9407V109.56C69.9407 109.9 69.7707 110.07 69.4307 110.07ZM74.587 110.06C74.427 110.06 74.3036 110.013 74.217 109.92C74.1303 109.82 74.087 109.683 74.087 109.51V105.61C74.087 105.437 74.1303 105.303 74.217 105.21C74.3036 105.117 74.427 105.07 74.587 105.07C74.747 105.07 74.8703 105.117 74.957 105.21C75.0503 105.303 75.097 105.437 75.097 105.61V109.51C75.097 109.683 75.0536 109.82 74.967 109.92C74.8803 110.013 74.7536 110.06 74.587 110.06ZM74.587 104.03C74.387 104.03 74.2303 103.98 74.117 103.88C74.0103 103.78 73.957 103.64 73.957 103.46C73.957 103.273 74.0103 103.133 74.117 103.04C74.2303 102.94 74.387 102.89 74.587 102.89C74.787 102.89 74.9403 102.94 75.047 103.04C75.1603 103.133 75.217 103.273 75.217 103.46C75.217 103.64 75.1603 103.78 75.047 103.88C74.9403 103.98 74.787 104.03 74.587 104.03ZM77.0186 111.87C76.8586 111.87 76.7353 111.827 76.6486 111.74C76.5619 111.653 76.5186 111.527 76.5186 111.36V105.56C76.5186 105.393 76.5619 105.267 76.6486 105.18C76.7353 105.093 76.8553 105.05 77.0086 105.05C77.1686 105.05 77.2919 105.093 77.3786 105.18C77.4653 105.267 77.5086 105.393 77.5086 105.56V106.43L77.3986 106.22C77.5053 105.86 77.7153 105.573 78.0286 105.36C78.3419 105.14 78.7119 105.03 79.1386 105.03C79.5719 105.03 79.9486 105.133 80.2686 105.34C80.5953 105.547 80.8453 105.837 81.0186 106.21C81.1986 106.583 81.2886 107.033 81.2886 107.56C81.2886 108.073 81.1986 108.523 81.0186 108.91C80.8453 109.29 80.5986 109.583 80.2786 109.79C79.9586 109.99 79.5786 110.09 79.1386 110.09C78.7186 110.09 78.3519 109.983 78.0386 109.77C77.7253 109.557 77.5153 109.273 77.4086 108.92H77.5286V111.36C77.5286 111.527 77.4819 111.653 77.3886 111.74C77.3019 111.827 77.1786 111.87 77.0186 111.87ZM78.8886 109.31C79.1686 109.31 79.4119 109.243 79.6186 109.11C79.8253 108.977 79.9853 108.78 80.0986 108.52C80.2119 108.26 80.2686 107.94 80.2686 107.56C80.2686 106.987 80.1419 106.553 79.8886 106.26C79.6419 105.967 79.3086 105.82 78.8886 105.82C78.6153 105.82 78.3719 105.887 78.1586 106.02C77.9519 106.147 77.7919 106.34 77.6786 106.6C77.5653 106.86 77.5086 107.18 77.5086 107.56C77.5086 108.127 77.6353 108.56 77.8886 108.86C78.1419 109.16 78.4753 109.31 78.8886 109.31ZM85.6935 110.07C85.5268 110.07 85.3968 110.023 85.3035 109.93C85.2168 109.837 85.1735 109.707 85.1735 109.54V103.48C85.1735 103.307 85.2202 103.177 85.3135 103.09C85.4068 102.997 85.5368 102.95 85.7035 102.95H88.0935C88.8535 102.95 89.4402 103.14 89.8535 103.52C90.2668 103.893 90.4735 104.42 90.4735 105.1C90.4735 105.787 90.2668 106.32 89.8535 106.7C89.4402 107.073 88.8535 107.26 88.0935 107.26H86.2135V109.54C86.2135 109.707 86.1702 109.837 86.0835 109.93C85.9968 110.023 85.8668 110.07 85.6935 110.07ZM86.2135 106.43H87.9435C88.4435 106.43 88.8202 106.32 89.0735 106.1C89.3335 105.873 89.4635 105.54 89.4635 105.1C89.4635 104.667 89.3335 104.34 89.0735 104.12C88.8202 103.893 88.4435 103.78 87.9435 103.78H86.2135V106.43ZM92.7954 110.09C92.4554 110.09 92.1487 110.023 91.8754 109.89C91.6087 109.757 91.3987 109.577 91.2454 109.35C91.0921 109.123 91.0154 108.867 91.0154 108.58C91.0154 108.22 91.1054 107.937 91.2854 107.73C91.4721 107.517 91.7754 107.367 92.1954 107.28C92.6221 107.187 93.1954 107.14 93.9154 107.14H94.3854V107.76H93.9254C93.4454 107.76 93.0654 107.783 92.7854 107.83C92.5054 107.877 92.3054 107.957 92.1854 108.07C92.0721 108.177 92.0154 108.327 92.0154 108.52C92.0154 108.773 92.1021 108.98 92.2754 109.14C92.4487 109.293 92.6887 109.37 92.9954 109.37C93.2421 109.37 93.4587 109.313 93.6454 109.2C93.8321 109.08 93.9787 108.92 94.0854 108.72C94.1987 108.52 94.2554 108.29 94.2554 108.03V106.88C94.2554 106.5 94.1754 106.227 94.0154 106.06C93.8554 105.893 93.5921 105.81 93.2254 105.81C93.0121 105.81 92.7887 105.837 92.5554 105.89C92.3287 105.943 92.0921 106.033 91.8454 106.16C91.7321 106.213 91.6354 106.23 91.5554 106.21C91.4754 106.19 91.4121 106.147 91.3654 106.08C91.3187 106.007 91.2921 105.93 91.2854 105.85C91.2854 105.763 91.3054 105.68 91.3454 105.6C91.3921 105.52 91.4687 105.46 91.5754 105.42C91.8687 105.28 92.1587 105.18 92.4454 105.12C92.7321 105.06 93.0021 105.03 93.2554 105.03C93.7021 105.03 94.0687 105.1 94.3554 105.24C94.6487 105.38 94.8654 105.593 95.0054 105.88C95.1454 106.167 95.2154 106.537 95.2154 106.99V109.56C95.2154 109.72 95.1754 109.847 95.0954 109.94C95.0154 110.027 94.8987 110.07 94.7454 110.07C94.5987 110.07 94.4821 110.027 94.3954 109.94C94.3087 109.847 94.2654 109.72 94.2654 109.56V108.91H94.3554C94.3021 109.157 94.2021 109.37 94.0554 109.55C93.9154 109.723 93.7387 109.857 93.5254 109.95C93.3121 110.043 93.0687 110.09 92.7954 110.09ZM97.7077 111.87C97.5877 111.87 97.4877 111.837 97.4077 111.77C97.3343 111.71 97.291 111.627 97.2777 111.52C97.271 111.42 97.291 111.31 97.3377 111.19L98.0177 109.66V110.09L96.1477 105.74C96.101 105.62 96.0843 105.507 96.0977 105.4C96.111 105.293 96.161 105.21 96.2477 105.15C96.3343 105.083 96.451 105.05 96.5977 105.05C96.7243 105.05 96.8243 105.08 96.8977 105.14C96.971 105.2 97.0377 105.303 97.0977 105.45L98.6077 109.18H98.3277L99.8577 105.45C99.9177 105.297 99.9877 105.193 100.068 105.14C100.148 105.08 100.258 105.05 100.398 105.05C100.518 105.05 100.611 105.083 100.678 105.15C100.751 105.21 100.794 105.293 100.808 105.4C100.828 105.5 100.811 105.61 100.758 105.73L98.2577 111.48C98.191 111.633 98.1143 111.737 98.0277 111.79C97.9477 111.843 97.841 111.87 97.7077 111.87ZM102.263 110.07C102.096 110.07 101.97 110.027 101.883 109.94C101.796 109.847 101.753 109.72 101.753 109.56V105.56C101.753 105.393 101.796 105.267 101.883 105.18C101.97 105.093 102.09 105.05 102.243 105.05C102.403 105.05 102.523 105.093 102.603 105.18C102.69 105.267 102.733 105.393 102.733 105.56V106.29H102.633C102.74 105.89 102.936 105.587 103.223 105.38C103.51 105.173 103.876 105.053 104.323 105.02C104.443 105.013 104.536 105.043 104.603 105.11C104.676 105.177 104.716 105.28 104.723 105.42C104.736 105.56 104.706 105.673 104.633 105.76C104.56 105.84 104.446 105.887 104.293 105.9L104.103 105.92C103.67 105.96 103.34 106.097 103.113 106.33C102.886 106.563 102.773 106.883 102.773 107.29V109.56C102.773 109.72 102.73 109.847 102.643 109.94C102.563 110.027 102.436 110.07 102.263 110.07ZM107.535 110.09C107.042 110.09 106.615 109.987 106.255 109.78C105.902 109.573 105.625 109.28 105.425 108.9C105.225 108.52 105.125 108.073 105.125 107.56C105.125 107.167 105.182 106.817 105.295 106.51C105.408 106.203 105.568 105.94 105.775 105.72C105.988 105.493 106.242 105.323 106.535 105.21C106.835 105.09 107.168 105.03 107.535 105.03C108.022 105.03 108.442 105.133 108.795 105.34C109.155 105.547 109.435 105.84 109.635 106.22C109.835 106.593 109.935 107.04 109.935 107.56C109.935 107.947 109.878 108.297 109.765 108.61C109.652 108.923 109.488 109.19 109.275 109.41C109.068 109.63 108.815 109.8 108.515 109.92C108.222 110.033 107.895 110.09 107.535 110.09ZM107.535 109.31C107.808 109.31 108.048 109.243 108.255 109.11C108.462 108.977 108.622 108.78 108.735 108.52C108.855 108.26 108.915 107.94 108.915 107.56C108.915 106.987 108.788 106.553 108.535 106.26C108.282 105.967 107.948 105.82 107.535 105.82C107.255 105.82 107.012 105.887 106.805 106.02C106.598 106.147 106.435 106.34 106.315 106.6C106.202 106.86 106.145 107.18 106.145 107.56C106.145 108.127 106.272 108.56 106.525 108.86C106.778 109.16 107.115 109.31 107.535 109.31ZM112.639 110.09C112.119 110.09 111.726 109.94 111.459 109.64C111.199 109.333 111.069 108.893 111.069 108.32V103.39C111.069 103.223 111.113 103.097 111.199 103.01C111.286 102.923 111.409 102.88 111.569 102.88C111.729 102.88 111.853 102.923 111.939 103.01C112.033 103.097 112.079 103.223 112.079 103.39V108.26C112.079 108.593 112.146 108.843 112.279 109.01C112.419 109.17 112.619 109.25 112.879 109.25C112.939 109.25 112.993 109.25 113.039 109.25C113.086 109.243 113.133 109.237 113.179 109.23C113.259 109.223 113.316 109.247 113.349 109.3C113.383 109.347 113.399 109.447 113.399 109.6C113.399 109.74 113.369 109.85 113.309 109.93C113.249 110.003 113.153 110.05 113.019 110.07C112.959 110.077 112.896 110.08 112.829 110.08C112.763 110.087 112.699 110.09 112.639 110.09ZM115.696 110.09C115.176 110.09 114.783 109.94 114.516 109.64C114.256 109.333 114.126 108.893 114.126 108.32V103.39C114.126 103.223 114.169 103.097 114.256 103.01C114.343 102.923 114.466 102.88 114.626 102.88C114.786 102.88 114.909 102.923 114.996 103.01C115.089 103.097 115.136 103.223 115.136 103.39V108.26C115.136 108.593 115.203 108.843 115.336 109.01C115.476 109.17 115.676 109.25 115.936 109.25C115.996 109.25 116.049 109.25 116.096 109.25C116.143 109.243 116.189 109.237 116.236 109.23C116.316 109.223 116.373 109.247 116.406 109.3C116.439 109.347 116.456 109.447 116.456 109.6C116.456 109.74 116.426 109.85 116.366 109.93C116.306 110.003 116.209 110.05 116.076 110.07C116.016 110.077 115.953 110.08 115.886 110.08C115.819 110.087 115.756 110.09 115.696 110.09Z" fill="#407BFF"/>
<path d="M138.646 67.845C138.997 67.6694 139.414 67.4425 139.801 67.2304C140.194 67.0144 140.585 66.789 140.97 66.5546C141.738 66.0818 142.512 65.6146 143.247 65.0956C144.729 64.0744 146.118 62.9411 147.368 61.7036C147.532 61.5538 147.671 61.3876 147.822 61.2293L148.045 60.9894L148.158 60.8694L148.214 60.8094C148.229 60.7937 148.225 60.7969 148.218 60.8063L148.205 60.8255C148.15 60.9302 148.196 60.8984 148.218 60.7973C148.244 60.7001 148.266 60.5413 148.273 60.3696C148.298 59.6577 148.158 58.7604 147.987 57.8929C147.638 56.1348 147.11 54.3265 146.588 52.5547L148.111 51.8867C149.065 53.5904 149.86 55.3304 150.507 57.2171C150.815 58.1728 151.098 59.1324 151.181 60.3112C151.196 60.6115 151.203 60.927 151.148 61.2951C151.091 61.6573 150.999 62.0909 150.669 62.5824L150.603 62.673L150.553 62.7388L150.492 62.8125L150.372 62.9592L150.13 63.2532C149.966 63.4468 149.811 63.651 149.637 63.8325C148.286 65.3335 146.782 66.6592 145.177 67.8121C144.378 68.3958 143.562 68.9501 142.714 69.4546C142.292 69.7102 141.864 69.9556 141.429 70.1935C140.989 70.4381 140.57 70.651 140.07 70.8858L138.646 67.845Z" fill="#FFB573"/>
<path d="M135.16 160.004C135.463 160.004 135.795 159.941 136.026 159.886C136.057 159.879 136.08 159.855 136.085 159.824C136.091 159.794 136.077 159.763 136.052 159.746C135.939 159.672 134.942 159.028 134.56 159.201C134.5 159.229 134.424 159.289 134.405 159.42C134.38 159.594 134.424 159.733 134.534 159.833C134.674 159.961 134.907 160.004 135.16 160.004ZM135.807 159.776C135.235 159.89 134.805 159.87 134.639 159.718C134.568 159.654 134.542 159.563 134.559 159.442C134.568 159.376 134.599 159.355 134.624 159.343C134.825 159.252 135.4 159.53 135.807 159.776Z" fill="#407BFF"/>
<path d="M136.009 159.889C136.022 159.889 136.036 159.886 136.048 159.879C136.072 159.865 136.087 159.839 136.087 159.811C136.087 159.771 136.082 158.826 135.725 158.51C135.631 158.426 135.52 158.391 135.396 158.406C135.201 158.429 135.149 158.552 135.134 158.623C135.06 158.993 135.657 159.701 135.97 159.879C135.982 159.886 135.995 159.889 136.009 159.889ZM135.45 158.558C135.514 158.558 135.571 158.58 135.622 158.626C135.836 158.815 135.908 159.346 135.926 159.66C135.614 159.411 135.242 158.879 135.287 158.653C135.295 158.616 135.316 158.573 135.415 158.56C135.427 158.559 135.438 158.558 135.45 158.558Z" fill="#407BFF"/>
<path d="M135.72 58.0391C135.338 59.9873 134.533 63.9336 135.896 65.2338C135.896 65.2338 135.364 67.2103 131.744 67.2103C127.763 67.2103 129.841 65.2342 129.841 65.2342C132.014 64.7152 131.958 63.1033 131.579 61.5894L135.72 58.0391Z" fill="#FFB573"/>
<path d="M129.08 66.0221C128.455 66.1068 128.986 64.4882 129.241 64.3204C129.827 63.9327 137.414 63.3839 137.365 64.3047C137.333 64.7011 137.147 65.4745 136.816 65.7371C136.484 65.9998 134.534 65.2059 129.08 66.0221Z" fill="#263238"/>
<path d="M130.316 65.4779C129.819 65.6457 129.866 64.0146 130.035 63.8182C130.426 63.3642 136.568 61.7864 136.75 62.679C136.82 63.0644 136.854 63.8342 136.643 64.1333C136.433 64.432 134.628 63.9377 130.316 65.4779Z" fill="#263238"/>
<path d="M128.031 54.5307C127.983 54.5334 127.934 54.5142 127.901 54.4738C127.462 53.9368 126.892 53.9917 126.886 53.9924C126.799 54.0015 126.724 53.9399 126.715 53.8545C126.705 53.769 126.767 53.6922 126.853 53.6832C126.883 53.68 127.598 53.6106 128.142 54.2766C128.197 54.3433 128.187 54.4413 128.121 54.4954C128.094 54.5173 128.063 54.5287 128.031 54.5307Z" fill="#263238"/>
<path d="M127.271 56.4453C127.271 56.4453 126.936 57.6241 126.497 58.2199C126.877 58.5104 127.454 58.3038 127.454 58.3038L127.271 56.4453Z" fill="#FF5652"/>
<path d="M127.463 55.9709C127.488 56.2343 127.37 56.4617 127.198 56.4789C127.025 56.4958 126.865 56.2959 126.838 56.0325C126.813 55.769 126.931 55.5417 127.103 55.5244C127.276 55.5076 127.437 55.7075 127.463 55.9709Z" fill="#263238"/>
<path d="M127.181 55.5305L126.53 55.4102C126.53 55.4102 126.904 55.8731 127.181 55.5305Z" fill="#263238"/>
<path d="M139.826 159.811H136.543L136.801 152.207H140.084L139.826 159.811Z" fill="#FFB573"/>
<path d="M136.283 159.43H139.972C140.106 159.43 140.215 159.523 140.234 159.654L140.654 162.572C140.698 162.875 140.437 163.162 140.128 163.156C138.841 163.134 138.222 163.059 136.6 163.059C135.602 163.059 134.143 163.162 132.765 163.162C131.417 163.162 131.314 161.799 131.888 161.676C134.461 161.123 134.867 160.36 135.734 159.632C135.89 159.5 136.087 159.43 136.283 159.43Z" fill="#263238"/>
<g opacity="0.2">
<path d="M140.085 152.211H136.8L136.669 156.131H139.954L140.085 152.211Z" fill="black"/>
</g>
<path d="M126.763 69.7929C124.731 68.9976 122.793 68.1324 120.863 67.1454C118.937 66.1595 117.04 65.1093 115.217 63.7063C114.763 63.3492 114.314 62.9588 113.875 62.5029C113.766 62.3853 113.657 62.2763 113.549 62.1415C113.436 61.9996 113.351 61.9161 113.205 61.6981C112.94 61.3171 112.735 60.8055 112.68 60.2834C112.629 59.7609 112.723 59.2618 112.873 58.864C113.022 58.459 113.219 58.1286 113.424 57.842C113.836 57.2681 114.293 56.844 114.753 56.4622C115.671 55.7021 116.643 55.1494 117.615 54.6327C118.102 54.3748 118.597 54.1423 119.099 53.9283C119.603 53.7107 120.095 53.5085 120.63 53.3242L121.326 54.8346C119.616 55.9122 117.845 57.0968 116.543 58.4249C116.226 58.7538 115.949 59.098 115.775 59.401C115.589 59.7095 115.591 59.9404 115.623 59.9228C115.639 59.9228 115.633 59.9157 115.678 59.9612L115.834 60.1286C115.893 60.1987 115.976 60.2705 116.05 60.3426C116.358 60.6299 116.719 60.9184 117.108 61.1928C117.886 61.7467 118.743 62.265 119.63 62.7491C120.514 63.2399 121.423 63.7095 122.348 64.1552C124.196 65.0399 126.111 65.8913 127.99 66.6691L126.763 69.7929Z" fill="#FFB573"/>
<path d="M122.292 53.7649L122.835 52.5874L120.367 51.7305C120.367 51.7305 119.599 54.0444 120.515 55.1123C121.295 54.9872 121.962 54.4823 122.292 53.7649Z" fill="#FFB573"/>
<path d="M122.835 50.0414L120.862 49.4727L120.367 51.7298L122.835 52.5871V50.0414Z" fill="#FFB573"/>
<path d="M148.313 52.7011L148.601 49.9492L146.058 50.547C146.058 50.547 146.02 53.1264 147.366 53.5376L148.313 52.7011Z" fill="#FFB573"/>
<path d="M147.376 48.0195L145.719 48.7933L146.057 50.5436L148.601 49.9458L147.376 48.0195Z" fill="#FFB573"/>
<path d="M136.236 54.1952C136.355 57.4516 136.476 58.8275 135.004 60.6499C132.791 63.3907 128.765 62.8255 127.674 59.6703C126.693 56.8302 126.662 51.982 129.704 50.3818C132.701 48.806 136.116 50.9385 136.236 54.1952Z" fill="#FFB573"/>
<path d="M134.818 60.6418C138.014 59.2604 140.117 56.3475 139.23 51.7928C138.38 47.4353 135.438 47.0049 134.223 47.9089C133.008 48.8128 129.979 47.4655 128.161 48.9951C125.012 51.6454 127.989 54.5027 129.54 56.1958C130.467 58.1001 131.681 61.9974 134.818 60.6418Z" fill="#263238"/>
<path d="M133.49 51.0121C134.569 52.5742 136.638 53.0152 138.112 51.9972C139.586 50.9795 139.906 48.8882 138.827 47.3261C137.749 45.764 135.68 45.323 134.206 46.341C132.732 47.3586 132.411 49.45 133.49 51.0121Z" fill="#407BFF"/>
<path d="M134.32 48.2155C133.859 45.5899 136.343 43.5652 139.665 44.5436C142.987 45.522 141.23 48.4671 140.549 50.8191C139.867 53.1711 141.655 55.4114 142.403 53.62C143.15 51.8289 141.894 51.2758 141.894 51.2758C141.894 51.2758 145.421 52.1904 142.144 56.1668C138.867 60.1436 135.9 55.7525 136.703 53.1609C137.351 51.0669 134.756 50.6972 134.32 48.2155Z" fill="#263238"/>
<path d="M131 49.2091C129.483 48.418 126.915 47.7783 125.453 50.2373C124.762 51.4 125.03 52.977 125.03 52.977L129.494 53.2741L131 49.2091Z" fill="#263238"/>
<path d="M124.504 52.2044C124.502 52.2044 124.501 52.2044 124.498 52.204C124.444 52.2009 124.403 52.1543 124.406 52.1002C124.41 52.0335 124.519 50.4565 125.47 49.4671C127.771 47.0767 130.468 49.0594 131.24 49.7242C131.281 49.7595 131.286 49.8215 131.25 49.8626C131.215 49.9038 131.153 49.9081 131.112 49.8728C130.373 49.2366 127.793 47.3366 125.611 49.6031C124.71 50.5396 124.603 52.0966 124.602 52.1123C124.599 52.1641 124.556 52.2044 124.504 52.2044Z" fill="#263238"/>
<path d="M130.087 56.066C130.082 56.7003 129.798 57.3212 129.438 57.7426C128.896 58.3761 128.275 58.0641 128.133 57.3616C128.005 56.7293 128.132 55.638 128.817 55.2554C129.491 54.8787 130.092 55.3408 130.087 56.066Z" fill="#FFB573"/>
<path d="M129.381 85.8945C129.381 85.8945 129.59 108.687 131.567 121.388C133.164 131.647 136.12 155.37 136.12 155.37H140.597C140.597 155.37 141.035 132.468 140.224 122.322C138.173 96.6463 143.466 91.8463 139.195 85.8945H129.381Z" fill="#263238"/>
<path opacity="0.1" d="M129.381 85.8945C129.381 85.8945 129.59 108.687 131.567 121.388C133.164 131.647 136.12 155.37 136.12 155.37H140.597C140.597 155.37 141.035 132.468 140.224 122.322C138.173 96.6463 143.466 91.8463 139.195 85.8945H129.381Z" fill="white"/>
<path opacity="0.3" d="M131.734 96.2343C133.306 103.114 132.052 113.949 131.193 118.719C130.284 111.475 129.825 102.087 129.598 95.2072C130.409 93.8901 131.177 93.8039 131.734 96.2343Z" fill="black"/>
<path d="M135.507 155.459H141.21L141.51 153.458L135.475 153.254L135.507 155.459Z" fill="#407BFF"/>
<path d="M137.135 66.6534C137.671 65.5867 140.555 64.9156 142.131 64.918L143.311 70.1571C143.311 70.1571 140.17 74.8179 138.865 74.3236C137.322 73.7407 135.985 68.9387 137.135 66.6534Z" fill="#407BFF"/>
<path opacity="0.4" d="M137.135 66.6534C137.671 65.5867 140.555 64.9156 142.131 64.918L143.311 70.1571C143.311 70.1571 140.17 74.8179 138.865 74.3236C137.322 73.7407 135.985 68.9387 137.135 66.6534Z" fill="black"/>
<path d="M133.81 154.177C133.824 154.154 133.826 154.124 133.813 154.1C133.797 154.071 133.765 154.054 133.732 154.06C133.568 154.084 132.117 154.315 131.921 154.729C131.883 154.809 131.888 154.894 131.936 154.974C132.016 155.108 132.129 155.183 132.272 155.197C132.748 155.246 133.434 154.587 133.801 154.189C133.804 154.185 133.808 154.181 133.81 154.177ZM132.069 154.779C132.204 154.559 132.954 154.357 133.527 154.251C133.009 154.777 132.554 155.07 132.287 155.042C132.194 155.032 132.123 154.984 132.069 154.894C132.048 154.858 132.045 154.828 132.061 154.795C132.064 154.79 132.066 154.784 132.069 154.779Z" fill="#407BFF"/>
<path d="M133.811 154.178C133.814 154.173 133.816 154.168 133.818 154.162C133.827 154.136 133.821 154.107 133.803 154.086C133.778 154.058 133.197 153.388 132.661 153.353C132.497 153.342 132.354 153.391 132.234 153.498C132.073 153.642 132.087 153.768 132.127 153.847C132.297 154.184 133.339 154.301 133.76 154.213C133.781 154.209 133.799 154.196 133.811 154.178ZM132.276 153.684C132.288 153.664 132.308 153.641 132.338 153.614C132.426 153.534 132.529 153.5 132.651 153.508C133.003 153.531 133.403 153.896 133.585 154.081C133.121 154.12 132.368 153.979 132.266 153.777C132.26 153.765 132.245 153.735 132.276 153.684Z" fill="#407BFF"/>
<path d="M137.233 152.788L134.23 154.122L132.891 151.337L131.143 147.69L130.938 147.266L133.937 145.93L134.169 146.407L135.865 149.939L137.233 152.788Z" fill="#FFB573"/>
<path opacity="0.2" d="M135.865 149.938L132.891 151.336L131.143 147.689L134.169 146.406L135.865 149.938Z" fill="black"/>
<path d="M125.859 85.8945C125.859 85.8945 116.265 109.742 118.866 120.971C121.216 131.12 131.608 150.341 131.608 150.341L135.626 148.324C135.626 148.324 129.201 125.122 128.504 120.082C127.149 110.275 135.865 96.4311 135.865 85.8945H125.859Z" fill="#263238"/>
<path opacity="0.1" d="M125.859 85.8945C125.859 85.8945 116.265 109.742 118.866 120.971C121.216 131.12 131.608 150.341 131.608 150.341L135.626 148.324C135.626 148.324 129.201 125.122 128.504 120.082C127.149 110.275 135.865 96.4311 135.865 85.8945H125.859Z" fill="white"/>
<path d="M133.694 153.704L136.676 151.533C136.785 151.454 136.928 151.465 137.02 151.56L139.077 153.673C139.29 153.892 139.249 154.277 138.995 154.455C137.942 155.194 137.397 155.497 136.086 156.452C135.278 157.039 133.67 158.338 132.556 159.149C131.467 159.942 130.581 158.901 130.972 158.464C132.727 156.502 133.097 155.289 133.369 154.19C133.418 153.992 133.535 153.82 133.694 153.704Z" fill="#263238"/>
<path d="M131.348 151.193L136.535 148.82L135.869 146.707L130.315 149.24L131.348 151.193Z" fill="#407BFF"/>
<path d="M128.406 66.3866C127.975 65.273 124.228 64.0515 122.348 63.625L121.522 69.8061C121.522 69.8061 124.592 74.218 125.94 73.8531C127.532 73.4223 129.328 68.7727 128.406 66.3866Z" fill="#407BFF"/>
<path opacity="0.4" d="M128.406 66.3866C127.975 65.273 124.228 64.0515 122.348 63.625L121.522 69.8061C121.522 69.8061 124.592 74.218 125.94 73.8531C127.532 73.4223 129.328 68.7727 128.406 66.3866Z" fill="black"/>
<path d="M124.29 66.0758C124.29 66.0758 122.726 66.6266 125.859 85.8934C131.151 85.8934 136.62 85.8934 139.194 85.8934C138.971 80.4658 138.964 77.1193 141.558 65.9806C141.558 65.9806 138.764 65.3726 135.895 65.2346C133.651 65.1264 131.813 65.0547 129.84 65.235C127.24 65.4722 124.29 66.0758 124.29 66.0758Z" fill="#407BFF"/>
<path opacity="0.4" d="M124.29 66.0758C124.29 66.0758 122.726 66.6266 125.859 85.8934C131.151 85.8934 136.62 85.8934 139.194 85.8934C138.971 80.4658 138.964 77.1193 141.558 65.9806C141.558 65.9806 138.764 65.3726 135.895 65.2346C133.651 65.1264 131.813 65.0547 129.84 65.235C127.24 65.4722 124.29 66.0758 124.29 66.0758Z" fill="black"/>
<path d="M139.395 85.1121L139.996 86.3057C140.043 86.3982 139.933 86.4927 139.779 86.4927H125.793C125.673 86.4927 125.574 86.4339 125.566 86.3582L125.446 85.1646C125.438 85.0819 125.542 85.0117 125.673 85.0117H139.178C139.277 85.0121 139.365 85.0525 139.395 85.1121Z" fill="#407BFF"/>
<path opacity="0.3" d="M139.395 85.1121L139.996 86.3057C140.043 86.3982 139.933 86.4927 139.779 86.4927H125.793C125.673 86.4927 125.574 86.4339 125.566 86.3582L125.446 85.1646C125.438 85.0819 125.542 85.0117 125.673 85.0117H139.178C139.277 85.0121 139.365 85.0525 139.395 85.1121Z" fill="white"/>
<path d="M137.581 86.6216H137.942C138.014 86.6216 138.069 86.5844 138.064 86.5393L137.895 84.9886C137.889 84.9431 137.827 84.9062 137.755 84.9062H137.393C137.321 84.9062 137.266 84.9435 137.271 84.9886L137.441 86.5393C137.446 86.5848 137.509 86.6216 137.581 86.6216Z" fill="#263238"/>
<path d="M128.815 86.6216H129.177C129.249 86.6216 129.304 86.5844 129.299 86.5393L129.129 84.9886C129.124 84.9431 129.061 84.9062 128.989 84.9062H128.627C128.555 84.9062 128.5 84.9435 128.505 84.9886L128.675 86.5393C128.68 86.5848 128.743 86.6216 128.815 86.6216Z" fill="#263238"/>
</svg>
