<svg width="31" height="30" viewBox="0 0 31 30" fill="none" xmlns="http://www.w3.org/2000/svg">
<circle cx="15.5" cy="15" r="15" fill="#E8F3FF"/>
<g clip-path="url(#clip0_3838_46726)">
<path d="M15.375 9.5H11C10.6685 9.5 10.3505 9.6317 10.1161 9.86612C9.8817 10.1005 9.75 10.4185 9.75 10.75V19.5C9.75 19.8315 9.8817 20.1495 10.1161 20.3839C10.3505 20.6183 10.6685 20.75 11 20.75H19.75C20.0815 20.75 20.3995 20.6183 20.6339 20.3839C20.8683 20.1495 21 19.8315 21 19.5V15.125" stroke="#3A90ED" stroke-width="1.8" stroke-linecap="round" stroke-linejoin="round"/>
<path d="M20.0625 8.56215C20.3111 8.31351 20.6484 8.17383 21 8.17383C21.3516 8.17383 21.6889 8.31351 21.9375 8.56215C22.1861 8.81079 22.3258 9.14802 22.3258 9.49965C22.3258 9.85128 22.1861 10.1885 21.9375 10.4372L16 16.3747L13.5 16.9997L14.125 14.4997L20.0625 8.56215Z" stroke="#3A90ED" stroke-width="1.5" stroke-linecap="round" stroke-linejoin="round"/>
</g>
<defs>
<clipPath id="clip0_3838_46726">
<rect width="15" height="15" fill="white" transform="translate(8.5 7)"/>
</clipPath>
</defs>
</svg>
