<svg xmlns="http://www.w3.org/2000/svg" width="642.606" height="651.85" viewBox="0 0 642.606 651.85">
  <g id="Startup_life-pana" data-name="Startup life-pana" transform="translate(-44 -23.263)">
    <g id="freepik--background-complete--inject-51" transform="translate(74.089 23.263)">
      <path id="Path_905" data-name="Path 905" d="M428.554,132.309a7.331,7.331,0,0,1,2.291.718,9.808,9.808,0,0,1,3.956,14.067,9.3,9.3,0,0,1-1.863,2.169,9.163,9.163,0,0,1-2.52,1.527,10.035,10.035,0,0,1-6.109.611,9.912,9.912,0,0,1-5.315-3.192,9.025,9.025,0,0,1-1.527-2.52,8.876,8.876,0,0,1-.748-2.749,9.867,9.867,0,0,1,.748-5.178,9.7,9.7,0,0,1,8.828-5.85,7.177,7.177,0,0,1,2.383.321c0,.076-.855-.168-2.367-.107a9.637,9.637,0,0,0-5.85,2.306,9.362,9.362,0,0,0-2.581,3.513,9.608,9.608,0,0,0-.657,4.933,8.935,8.935,0,0,0,.733,2.6,8.8,8.8,0,0,0,1.527,2.383,9.3,9.3,0,0,0,5.025,3.055,9.439,9.439,0,0,0,5.819-.565,8.509,8.509,0,0,0,2.383-1.527,8.338,8.338,0,0,0,1.772-2.047,9.408,9.408,0,0,0,1.527-4.735,9.577,9.577,0,0,0-5.132-8.859C429.409,132.522,428.538,132.385,428.554,132.309Z" transform="translate(122.427 34.032)" fill="#e0e0e0"/>
      <path id="Path_906" data-name="Path 906" d="M442.514,127.969a2.684,2.684,0,0,1,0-.336v-5.117l.076.092-8.813-1.924.153-.076-2.322,4.933v.092H431.5a22.009,22.009,0,0,0-5.743,1.023h-.183l-4.017-3.864h.305l-7.637,4.857v-.275l1.833,5.132v.122l-.092.107a22.4,22.4,0,0,0-3.345,4.765v.122h-5.59l.229-.2c-.611,2.765-1.283,5.743-1.955,8.813l-.137-.29,4.918,2.322h.137v.153a22.234,22.234,0,0,0,.993,5.728v.153l-.122.122-3.849,3.864v-.336l4.826,7.637-.321-.122,5.132-1.833h.153l.137.107a21.58,21.58,0,0,0,4.735,3.345h0c.076.107-.137-.244.153.244h0v5.437l-.214-.275,8.8,1.986-.305.153c.779-1.665,1.527-3.3,2.337-4.933l.076-.137h.168a21.749,21.749,0,0,0,5.712-.993h.153l.122.122,3.864,3.849h-.336l7.637-4.811-.107.29-1.833-5.132v-.137l.107-.122a21.992,21.992,0,0,0,3.36-4.75v-.122h5.59l-.214.183c.7-3.055,1.359-6.018,1.986-8.813l.122.244-4.918-2.352h-.107v-.122a21.7,21.7,0,0,0-.978-5.743v-.183c1.405-1.405,2.658-2.673,3.864-3.864v.214l-4.8-7.637h.153l-5.147,1.787h0a23.975,23.975,0,0,0-3.5-2.688l-.947-.565-.305-.2.336.153.962.519a22.085,22.085,0,0,1,3.574,2.658h-.092l5.117-1.863h.092v.092l4.857,7.637.076.122-.092.092-3.665,3.7v-.183a21.871,21.871,0,0,1,1.023,5.85l-.107-.168,4.933,2.322.153.076v.168c-.611,2.78-1.268,5.7-1.955,8.8v.183h-5.667l.214-.122a22.909,22.909,0,0,1-3.421,4.872v-.26c.6,1.68,1.222,3.391,1.833,5.132l.076.2-.183.107-7.637,4.842-.183.107-.153-.153-3.834-3.8h.275a22.176,22.176,0,0,1-5.865,1.023l.229-.153c-.764,1.619-1.527,3.269-2.337,4.918l-.092.2h-.214l-8.8-1.879h-.214v-5.667h0c.29.489.076.137.153.244h0a22.146,22.146,0,0,1-4.857-3.421h.275l-5.132,1.818-.214.076-.107-.183-4.826-7.637-.122-.183.153-.153,3.849-3.864v.275a22.665,22.665,0,0,1-1.023-5.865l.153.229-4.888-2.413-.183-.092v-.2l1.986-8.8v-.2H412.5l-.214.122a22.7,22.7,0,0,1,3.437-4.842v.229l-1.818-5.147v-.153l.153-.107,7.637-4.811h.138l.107.107,3.864,3.864h-.183a22.039,22.039,0,0,1,5.835-.993l-.138.092c.855-1.772,1.65-3.437,2.352-4.918V120.5h.107l8.782,2.031h.076v5.086A3.322,3.322,0,0,1,442.514,127.969Z" transform="translate(116.225 28.016)" fill="#e0e0e0"/>
      <path id="Path_907" data-name="Path 907" d="M519.437,445.329v-6.491c0-4.231,0-10.447-.076-18.42,0-15.93-.076-38.917-.122-67.112l.244.244-159.044.076h0l.336-.321v92.023l-.306-.306,114.4.138,32.853.092h.122l-32.792.092-114.552.137h-.29V353H519.85v.26c0,28.271-.092,51.289-.122,67.2v23.094A4.953,4.953,0,0,1,519.437,445.329Z" transform="translate(92.668 150.628)" fill="#e0e0e0"/>
      <path id="Path_908" data-name="Path 908" d="M519.345,360.6c0,.183-35.572.321-79.423.321s-79.423-.137-79.423-.321,35.557-.321,79.423-.321S519.345,360.417,519.345,360.6Z" transform="translate(92.821 154.467)" fill="#e0e0e0"/>
      <rect id="Rectangle_1938" data-name="Rectangle 1938" width="49.135" height="49.135" transform="translate(466.823 530.249)" fill="#f5f5f5"/>
      <path id="Path_909" data-name="Path 909" d="M481.474,375.8a2.66,2.66,0,0,1-.718,0h-2.077l-7.637.092L445.9,376l-25.14-.107-7.637-.092h-2.077a2.659,2.659,0,0,1-.718,0,3.274,3.274,0,0,1,.718,0h2.077l7.637-.107,25.14-.092,25.14.092,7.637.107h2.077a3.279,3.279,0,0,1,.718,0Z" transform="translate(119.099 162.546)" fill="#e0e0e0"/>
      <path id="Path_910" data-name="Path 910" d="M483.037,383.015a3.361,3.361,0,0,1-.733,0h-2.123l-7.79.107-25.69.092L421,383.122l-7.79-.107h-2.123a3.362,3.362,0,0,1-.733,0,2.715,2.715,0,0,1,.733-.076h2.123l7.79-.092,25.705-.107,25.69.107,7.79.092H482.3A2.72,2.72,0,0,1,483.037,383.015Z" transform="translate(119.109 166.311)" fill="#e0e0e0"/>
      <path id="Path_911" data-name="Path 911" d="M483.037,390.169a2.719,2.719,0,0,1-.733,0h-2.123l-7.79.092-25.69.107L421,390.26l-7.79-.092h-2.123a2.72,2.72,0,0,1-.733,0,3.359,3.359,0,0,1,.733,0h2.123l7.79-.107,25.705-.092,25.736.046,7.79.107h2.123A3.355,3.355,0,0,1,483.037,390.169Z" transform="translate(119.11 170.124)" fill="#e0e0e0"/>
      <path id="Path_912" data-name="Path 912" d="M483.037,397.385a3.353,3.353,0,0,1-.733,0h-2.123l-7.79.107-25.69.092L421,397.492l-7.79-.107h-2.123a3.354,3.354,0,0,1-.733,0,2.715,2.715,0,0,1,.733-.076h2.123l7.79-.092,25.705-.107,25.69.107,7.79.092H482.3A2.718,2.718,0,0,1,483.037,397.385Z" transform="translate(119.109 173.89)" fill="#e0e0e0"/>
      <circle id="Ellipse_54" data-name="Ellipse 54" cx="66.104" cy="66.104" r="66.104" transform="translate(58.699 93.486) rotate(-45)" fill="#f5f5f5"/>
      <path id="Path_913" data-name="Path 913" d="M193.637,99.221a14.238,14.238,0,0,1-2.337.153l-6.43.122c-5.453,0-13.044.137-21.612.137h-.428V94.945c0-9.577,0-18.237.122-24.438,0-3.055.107-5.529.137-7.438a15.594,15.594,0,0,1,.168-2.719,17.8,17.8,0,0,1,.168,2.719c0,1.909,0,4.414.137,7.438,0,6.277.122,14.938.122,24.438v4.292l-.412-.428c8.568,0,16.159,0,21.612.137l6.43.137a12.343,12.343,0,0,1,2.322.137Z" transform="translate(-11.423 -3.704)" fill="#e0e0e0"/>
      <path id="Path_914" data-name="Path 914" d="M163.395,48.3a18.574,18.574,0,0,1,.428,5.544,18.726,18.726,0,0,1-.428,5.56,18.725,18.725,0,0,1-.428-5.56,18.573,18.573,0,0,1,.428-5.544Z" transform="translate(-11.377 -10.059)" fill="#e0e0e0"/>
      <path id="Path_915" data-name="Path 915" d="M185.674,54.13a17.869,17.869,0,0,1-3.574,4.185,17.671,17.671,0,0,1-4.17,3.559A17.979,17.979,0,0,1,181.5,57.7,18.451,18.451,0,0,1,185.674,54.13Z" transform="translate(-3.46 -6.985)" fill="#e0e0e0"/>
      <path id="Path_916" data-name="Path 916" d="M197.718,66.73a22.818,22.818,0,0,1-4.582,3.055,23.265,23.265,0,0,1-4.8,2.642,14.754,14.754,0,0,1,4.353-3.375,14.3,14.3,0,0,1,5.025-2.322Z" transform="translate(2.03 -0.34)" fill="#e0e0e0"/>
      <path id="Path_917" data-name="Path 917" d="M206.514,85.586a33.343,33.343,0,0,1-7.637.428,33.343,33.343,0,0,1-7.637-.428,34.426,34.426,0,0,1,7.637-.428A34.427,34.427,0,0,1,206.514,85.586Z" transform="translate(3.56 9.351)" fill="#e0e0e0"/>
      <path id="Path_918" data-name="Path 918" d="M137.426,84.925a30.639,30.639,0,0,1-7.148.428,30.746,30.746,0,0,1-7.148-.428,30.745,30.745,0,0,1,7.148-.428A30.64,30.64,0,0,1,137.426,84.925Z" transform="translate(-32.359 9.003)" fill="#e0e0e0"/>
      <path id="Path_919" data-name="Path 919" d="M141.278,98.68a32.685,32.685,0,0,1-5.407,4.9,32.3,32.3,0,0,1-5.941,4.231,31.2,31.2,0,0,1,5.407-4.9A30.15,30.15,0,0,1,141.278,98.68Z" transform="translate(-28.773 16.509)" fill="#e0e0e0"/>
      <path id="Path_920" data-name="Path 920" d="M151.966,109.44a49.4,49.4,0,0,1-3.681,6.369,50.708,50.708,0,0,1-3.895,6.247,23.689,23.689,0,0,1,3.162-6.69,23.841,23.841,0,0,1,4.414-5.926Z" transform="translate(-21.147 22.184)" fill="#e0e0e0"/>
      <path id="Path_921" data-name="Path 921" d="M163.4,128.594a34.427,34.427,0,0,1-.428-7.637,34.427,34.427,0,0,1,.428-7.637,34.428,34.428,0,0,1,.428,7.637,34.428,34.428,0,0,1-.428,7.637Z" transform="translate(-11.378 24.23)" fill="#e0e0e0"/>
      <path id="Path_922" data-name="Path 922" d="M188.513,120.117a21.932,21.932,0,0,1-6.247-4.277,22.558,22.558,0,0,1-5.086-5.59,68.648,68.648,0,0,1,5.651,4.949A70.046,70.046,0,0,1,188.513,120.117Z" transform="translate(-3.855 22.611)" fill="#e0e0e0"/>
      <path id="Path_923" data-name="Path 923" d="M197.884,109.164a26.377,26.377,0,0,1-5.025-4.4,26.377,26.377,0,0,1-4.4-5.025,26.5,26.5,0,0,1,5.01,4.414,26.5,26.5,0,0,1,4.414,5.01Z" transform="translate(2.094 17.068)" fill="#e0e0e0"/>
      <path id="Path_924" data-name="Path 924" d="M139.748,74.278a20.115,20.115,0,0,1-4.429-3.818A20.116,20.116,0,0,1,131.5,66.03a20.115,20.115,0,0,1,4.429,3.818,20.116,20.116,0,0,1,3.818,4.429Z" transform="translate(-27.945 -0.709)" fill="#e0e0e0"/>
      <path id="Path_925" data-name="Path 925" d="M152.064,61.169a19.092,19.092,0,0,1-4.353-3.65A19.288,19.288,0,0,1,144,53.12a19.215,19.215,0,0,1,4.338,3.727A19.138,19.138,0,0,1,152.064,61.169Z" transform="translate(-21.353 -7.517)" fill="#e0e0e0"/>
      <g id="Group_1953" data-name="Group 1953" transform="translate(437.711 45.099)" opacity="0.8">
        <path id="Path_926" data-name="Path 926" d="M424.3,67.3a44.69,44.69,0,0,1,9.561,6.705l10.157-3.62L453.56,85.46,445.923,93.1a43.5,43.5,0,0,1,1.986,11.455l9.745,4.582-3.941,17.473H443.021a43.713,43.713,0,0,1-6.69,9.515l3.62,10.157-15.075,9.546-7.637-7.637a43.514,43.514,0,0,1-11.455,2l-4.582,9.729-17.412-3.895V145.241a43.253,43.253,0,0,1-9.516-6.705l-10.157,3.62-9.683-15.029,7.637-7.637a43.746,43.746,0,0,1-2.047-11.394l-9.745-4.582L354.19,86.1h10.783a43.257,43.257,0,0,1,6.705-9.515l-3.62-10.157,15.075-9.546,7.637,7.637a43.744,43.744,0,0,1,11.471-2l4.582-9.729,17.412,3.91V67.392Zm-15.35,20.5a19.123,19.123,0,1,0,12,8.447,19.138,19.138,0,0,0-12-8.447Z" transform="translate(-350.28 -52.79)" fill="#ebebeb" fill-rule="evenodd"/>
      </g>
      <path id="Path_927" data-name="Path 927" d="M63.7,171.562H176.725s-9.989-18.176-39.07-15.533c-27.767,2.535-29.188-8.935-43.316-10.355S68.4,155.1,63.7,171.562Z" transform="translate(-63.7 41.226)" fill="#f5f5f5"/>
      <path id="Path_928" data-name="Path 928" d="M223.8,304.34h91.443s-8.08-14.709-31.616-12.57c-22.483,2.047-23.628-7.24-35.129-8.385S227.6,291.006,223.8,304.34Z" transform="translate(20.73 113.862)" fill="#f5f5f5"/>
    </g>
    <g id="freepik--Screens--inject-51" transform="translate(44 208.802)">
      <rect id="Rectangle_1939" data-name="Rectangle 1939" width="221.895" height="148.582" transform="translate(406.14 0.596)" fill="#fff"/>
      <path id="Path_929" data-name="Path 929" d="M531.895,293.9V283.363c0-6.873,0-16.969-.092-29.875,0-25.828-.092-62.927-.168-108.152l.321.305-221.88.092h0l.4-.4V293.9l-.367-.367,159.869.183,45.668.092h.153L470.2,293.9l-160.1.183h-.367V144.74h.412l221.88.092h.321v.321c0,45.317-.122,82.477-.168,108.336,0,12.891,0,22.91-.076,29.814v7.79A15.383,15.383,0,0,1,531.895,293.9Z" transform="translate(96.141 -144.74)" fill="#35a3be"/>
      <path id="Path_930" data-name="Path 930" d="M309.91,153.947c0-.229,49.639-.4,110.856-.4s110.856.168,110.856.4-49.624.4-110.856.4S309.91,154.237,309.91,153.947Z" transform="translate(96.23 -140.094)" fill="#35a3be"/>
      <g id="Group_1954" data-name="Group 1954" transform="translate(411.318 5.376)" opacity="0.3">
        <path id="Path_931" data-name="Path 931" d="M316.874,150.047a1.772,1.772,0,1,1-.513-1.263A1.787,1.787,0,0,1,316.874,150.047Z" transform="translate(-313.3 -148.26)" fill="#35a3be"/>
      </g>
      <g id="Group_1955" data-name="Group 1955" transform="translate(417.412 5.376)" opacity="0.3">
        <path id="Path_932" data-name="Path 932" d="M320.864,150.047a1.772,1.772,0,1,1-.513-1.263,1.787,1.787,0,0,1,.513,1.263Z" transform="translate(-317.29 -148.26)" fill="#35a3be"/>
      </g>
      <g id="Group_1956" data-name="Group 1956" transform="translate(423.415 5.376)" opacity="0.3">
        <path id="Path_933" data-name="Path 933" d="M324.794,150.047a1.772,1.772,0,1,1-.513-1.263A1.787,1.787,0,0,1,324.794,150.047Z" transform="translate(-321.22 -148.26)" fill="#35a3be"/>
      </g>
      <rect id="Rectangle_1940" data-name="Rectangle 1940" width="59.185" height="59.185" transform="translate(425.217 29.341)" fill="#35a3be"/>
      <path id="Path_934" data-name="Path 934" d="M470.877,175.037c0,.229-23.094.4-51.564.4s-51.564-.168-51.564-.4,23.094-.4,51.564-.4S470.877,174.823,470.877,175.037Z" transform="translate(126.733 -128.972)" fill="#35a3be"/>
      <path id="Path_935" data-name="Path 935" d="M470.877,182.247c0,.214-23.094.4-51.564.4s-51.564-.183-51.564-.4,23.094-.4,51.564-.4S470.877,182.079,470.877,182.247Z" transform="translate(126.733 -125.17)" fill="#35a3be"/>
      <path id="Path_936" data-name="Path 936" d="M470.877,189.447c0,.214-23.094.4-51.564.4s-51.564-.183-51.564-.4,23.094-.4,51.564-.4S470.877,189.218,470.877,189.447Z" transform="translate(126.733 -121.373)" fill="#35a3be"/>
      <path id="Path_937" data-name="Path 937" d="M428.707,196.647a13.106,13.106,0,0,1-2.4.153l-6.537.122c-5.514.076-13.135.122-21.536.122s-16.037,0-21.551-.122l-6.537-.122a13.106,13.106,0,0,1-2.4-.153,13.1,13.1,0,0,1,2.4-.153l6.537-.122c5.514-.076,13.135-.122,21.551-.122s16.022,0,21.536.122l6.537.122A13.1,13.1,0,0,1,428.707,196.647Z" transform="translate(126.733 -117.576)" fill="#35a3be"/>
      <g id="Group_1957" data-name="Group 1957" transform="translate(428.913 108.488)" opacity="0.3">
        <rect id="Rectangle_1941" data-name="Rectangle 1941" width="27.813" height="27.813" fill="#35a3be"/>
      </g>
      <rect id="Rectangle_1942" data-name="Rectangle 1942" width="27.813" height="27.813" transform="translate(479.362 108.488)" fill="#35a3be"/>
      <rect id="Rectangle_1943" data-name="Rectangle 1943" width="27.813" height="27.813" transform="translate(529.811 108.488)" fill="#35a3be"/>
      <rect id="Rectangle_1944" data-name="Rectangle 1944" width="27.813" height="27.813" transform="translate(580.26 108.488)" fill="#35a3be"/>
      <g id="Group_1958" data-name="Group 1958" transform="translate(425.217 29.341)" opacity="0.3">
        <rect id="Rectangle_1945" data-name="Rectangle 1945" width="59.185" height="59.185" fill="#fff"/>
      </g>
      <g id="Group_1959" data-name="Group 1959" transform="translate(479.362 108.488)" opacity="0.3">
        <rect id="Rectangle_1946" data-name="Rectangle 1946" width="27.813" height="27.813" fill="#fff"/>
      </g>
      <g id="Group_1960" data-name="Group 1960" transform="translate(529.811 108.488)" opacity="0.3">
        <rect id="Rectangle_1947" data-name="Rectangle 1947" width="27.813" height="27.813" fill="#fff"/>
      </g>
      <g id="Group_1961" data-name="Group 1961" transform="translate(580.26 108.488)" opacity="0.3">
        <rect id="Rectangle_1948" data-name="Rectangle 1948" width="27.813" height="27.813" fill="#fff"/>
      </g>
      <rect id="Rectangle_1949" data-name="Rectangle 1949" width="197.671" height="80.293" transform="translate(0.321 54.114)" fill="#fff"/>
      <path id="Path_938" data-name="Path 938" d="M241.992,260.553V238.971c0-13.853,0-33.907-.122-58.712l.214.214-197.656.092h0l.321-.305v80.293l-.305-.305,141.724.137,41.117.092h.137l-41.04.076-141.938.137H44V180h.321l197.656.107h.229v.214c0,24.865-.092,44.95-.122,58.849v20.054A6.531,6.531,0,0,1,241.992,260.553Z" transform="translate(-44 -126.145)" fill="#35a3be"/>
      <path id="Path_939" data-name="Path 939" d="M44.34,187.371c0-.168,44.187-.321,98.667-.321s98.7.153,98.7.321-44.187.305-98.7.305S44.34,187.539,44.34,187.371Z" transform="translate(-43.821 -122.427)" fill="#35a3be"/>
      <g id="Group_1962" data-name="Group 1962" transform="translate(5.926 58.666)" opacity="0.3">
        <path id="Path_940" data-name="Path 940" d="M50.751,184.586a1.436,1.436,0,1,1-1.436-1.436A1.436,1.436,0,0,1,50.751,184.586Z" transform="translate(-47.88 -183.15)" fill="#35a3be"/>
      </g>
      <g id="Group_1963" data-name="Group 1963" transform="translate(10.875 58.666)" opacity="0.3">
        <path id="Path_941" data-name="Path 941" d="M53.991,184.586a1.436,1.436,0,1,1-1.436-1.436A1.436,1.436,0,0,1,53.991,184.586Z" transform="translate(-51.12 -183.15)" fill="#35a3be"/>
      </g>
      <g id="Group_1964" data-name="Group 1964" transform="translate(15.686 58.666)" opacity="0.3">
        <path id="Path_942" data-name="Path 942" d="M57.141,184.586a1.436,1.436,0,1,1-1.436-1.436A1.436,1.436,0,0,1,57.141,184.586Z" transform="translate(-54.27 -183.15)" fill="#35a3be"/>
      </g>
      <rect id="Rectangle_1950" data-name="Rectangle 1950" width="47.745" height="47.745" transform="translate(17.122 77.987)" fill="#35a3be"/>
      <path id="Path_943" data-name="Path 943" d="M202.576,204.285c0,.168-24.575.321-54.878.321s-54.878-.153-54.878-.321,24.575-.305,54.878-.305S202.576,204.117,202.576,204.285Z" transform="translate(-18.254 -113.499)" fill="#35a3be"/>
      <path id="Path_944" data-name="Path 944" d="M202.576,210.661c0,.168-24.575.305-54.878.305s-54.878-.137-54.878-.305,24.575-.321,54.878-.321S202.576,210.493,202.576,210.661Z" transform="translate(-18.254 -110.145)" fill="#35a3be"/>
      <path id="Path_945" data-name="Path 945" d="M163.5,216.989a5.267,5.267,0,0,1-.718,0h-2.062l-7.56.092-24.988.092L103.2,217.08l-7.637-.092H93.5a5.663,5.663,0,0,1-.718,0,2.489,2.489,0,0,1,.718,0H95.56l7.637-.107,24.972-.092,24.988.092,7.56.107h2.062A2.4,2.4,0,0,1,163.5,216.989Z" transform="translate(-18.275 -106.744)" fill="#35a3be"/>
      <g id="Group_1965" data-name="Group 1965" transform="translate(17.122 77.987)" opacity="0.3">
        <rect id="Rectangle_1951" data-name="Rectangle 1951" width="47.745" height="47.745" fill="#f5f5f5"/>
      </g>
    </g>
    <g id="freepik--Rocket--inject-51" transform="translate(272.796 107.672)">
      <path id="Path_946" data-name="Path 946" d="M291.166,114.5c-3.314-2.215-7.866-.871-11.18,1.344s-6.109,5.239-9.851,6.675c-6.965,2.7-16.114-.5-21.521,4.582-3.437,3.269-3.788,8.645-6.415,12.6-4.429,6.659-15.06,9.164-15.961,17.106-.535,4.582,3.131,9.073,7.637,10.371a16.327,16.327,0,0,0,13.288-2.658c4.582-3.055,8.11-7.637,13.273-9.378s11.806-.29,15.976-3.971,3.543-10.478,6.537-15.182a30.548,30.548,0,0,1,6.339-6.2c2.245-1.94,4.384-4.338,4.765-7.286s-.825-7.973-2.856-8.08" transform="translate(-176.718 -60.155)" fill="#f5f5f5"/>
      <path id="Path_947" data-name="Path 947" d="M212.4,326.564c.2-.107.809.5,1.39,1.375s.9,1.7.718,1.818-.794-.489-1.39-1.375S212.215,326.686,212.4,326.564Z" transform="translate(-184.017 52.27)" fill="#263238"/>
      <path id="Path_948" data-name="Path 948" d="M208.1,317.54a9.79,9.79,0,0,1,1.818,3.391A9.683,9.683,0,0,1,211,324.612a18.725,18.725,0,0,1-2.9-7.072Z" transform="translate(-186.256 47.518)" fill="#263238"/>
      <path id="Path_949" data-name="Path 949" d="M205.8,307.82a18.589,18.589,0,0,1,1.39,7.515,9.439,9.439,0,0,1-1.085-3.681A9.654,9.654,0,0,1,205.8,307.82Z" transform="translate(-187.504 42.392)" fill="#263238"/>
      <path id="Path_950" data-name="Path 950" d="M205.611,297.83a18.924,18.924,0,0,1-.107,7.637,9.073,9.073,0,0,1-.351-3.818,9.165,9.165,0,0,1,.458-3.818Z" transform="translate(-187.846 37.123)" fill="#263238"/>
      <path id="Path_951" data-name="Path 951" d="M207.569,288a9.531,9.531,0,0,1-.412,3.818,9.789,9.789,0,0,1-1.191,3.65,9.546,9.546,0,0,1,.412-3.818,9.9,9.9,0,0,1,1.191-3.65Z" transform="translate(-187.405 31.939)" fill="#263238"/>
      <path id="Path_952" data-name="Path 952" d="M211.695,278.652a17.977,17.977,0,0,1-3.055,6.965,9.638,9.638,0,0,1,1.207-3.65C210.717,280.026,211.5,278.545,211.695,278.652Z" transform="translate(-185.971 27.007)" fill="#263238"/>
      <path id="Path_953" data-name="Path 953" d="M217.727,270.313a9.683,9.683,0,0,1-1.955,3.314,11.012,11.012,0,0,1-2.581,2.841c-.214-.137.672-1.619,1.94-3.314S217.5,270.176,217.727,270.313Z" transform="translate(-183.588 22.607)" fill="#263238"/>
      <path id="Path_954" data-name="Path 954" d="M224.7,262.916c.168.153-.886,1.527-2.337,3.055s-2.764,2.627-2.933,2.49.886-1.527,2.352-3.055S224.543,262.748,224.7,262.916Z" transform="translate(-180.293 18.702)" fill="#263238"/>
      <path id="Path_955" data-name="Path 955" d="M231.766,255.795c.168.153-.916,1.527-2.4,3.055s-2.81,2.6-2.963,2.444.916-1.527,2.4-3.055S231.613,255.642,231.766,255.795Z" transform="translate(-176.611 14.948)" fill="#263238"/>
      <path id="Path_956" data-name="Path 956" d="M238.167,248.253a9.592,9.592,0,0,1-2.123,3.207c-1.344,1.65-2.566,2.856-2.734,2.7a10.2,10.2,0,0,1,2.123-3.208C236.762,249.4,237.984,248.131,238.167,248.253Z" transform="translate(-172.962 10.974)" fill="#263238"/>
      <path id="Path_957" data-name="Path 957" d="M242.8,239.67a8.31,8.31,0,0,1-1.283,3.635,8.462,8.462,0,0,1-2.215,3.162,10.9,10.9,0,0,1,1.527-3.528,11.334,11.334,0,0,1,1.97-3.269Z" transform="translate(-169.803 6.452)" fill="#263238"/>
      <path id="Path_958" data-name="Path 958" d="M244.44,230a7.774,7.774,0,0,1-.076,3.849,8.065,8.065,0,0,1-1.176,3.681,11.624,11.624,0,0,1,.4-3.8A11.913,11.913,0,0,1,244.44,230Z" transform="translate(-167.764 1.353)" fill="#263238"/>
      <path id="Path_959" data-name="Path 959" d="M243.294,220.07a7.836,7.836,0,0,1,1.13,3.681,8.05,8.05,0,0,1,0,3.864,11.576,11.576,0,0,1-.825-3.742,11.82,11.82,0,0,1-.305-3.8Z" transform="translate(-167.717 -3.884)" fill="#263238"/>
      <path id="Path_960" data-name="Path 960" d="M239.35,210.923c.183-.122,1.3,1.207,2.306,3.055a8.019,8.019,0,0,1,1.314,3.635,12.051,12.051,0,0,1-2.016-3.253,12.463,12.463,0,0,1-1.6-3.437Z" transform="translate(-169.776 -8.712)" fill="#263238"/>
      <path id="Path_961" data-name="Path 961" d="M232.383,203.82a8.08,8.08,0,0,1,3.3,2c1.634,1.375,2.7,2.749,2.551,2.9s-1.527-.947-3.055-2.291S232.246,204,232.383,203.82Z" transform="translate(-173.455 -12.454)" fill="#263238"/>
      <path id="Path_962" data-name="Path 962" d="M223.29,199.765a7.957,7.957,0,0,1,3.788.7,7.851,7.851,0,0,1,3.437,1.772,12.217,12.217,0,0,1-3.7-1.023,11.286,11.286,0,0,1-3.528-1.451Z" transform="translate(-178.246 -14.6)" fill="#263238"/>
      <path id="Path_963" data-name="Path 963" d="M213.35,199.613a7.637,7.637,0,0,1,3.773-.794,7.836,7.836,0,0,1,3.849.4,12.752,12.752,0,0,1-3.8.4A12.217,12.217,0,0,1,213.35,199.613Z" transform="translate(-183.488 -15.135)" fill="#263238"/>
      <path id="Path_964" data-name="Path 964" d="M204.133,204.245c-.137-.183,1.176-1.329,3.055-2.337a7.332,7.332,0,0,1,3.65-1.268,13.383,13.383,0,0,1-3.284,1.955A12.753,12.753,0,0,1,204.133,204.245Z" transform="translate(-188.353 -14.131)" fill="#263238"/>
      <path id="Path_965" data-name="Path 965" d="M197.26,212.268a7.775,7.775,0,0,1,1.879-3.376c1.3-1.7,2.642-2.81,2.8-2.658s-.9,1.527-2.169,3.146S197.443,212.375,197.26,212.268Z" transform="translate(-191.973 -11.188)" fill="#263238"/>
      <path id="Path_966" data-name="Path 966" d="M193.934,222.083a7.514,7.514,0,0,1,.29-3.849,7.637,7.637,0,0,1,1.527-3.574,12.662,12.662,0,0,1-.718,3.757,12.494,12.494,0,0,1-1.1,3.666Z" transform="translate(-193.794 -6.737)" fill="#263238"/>
      <path id="Path_967" data-name="Path 967" d="M195.756,231.933a7.637,7.637,0,0,1-1.527-3.574,7.438,7.438,0,0,1-.305-3.849,13.822,13.822,0,0,1,1.084,3.666A13.273,13.273,0,0,1,195.756,231.933Z" transform="translate(-193.798 -1.543)" fill="#263238"/>
      <path id="Path_968" data-name="Path 968" d="M201.69,240.073c-.168.153-1.436-1.039-2.673-2.78a8.049,8.049,0,0,1-1.787-3.421c.2-.107,1.207,1.268,2.428,2.963A11.759,11.759,0,0,1,201.69,240.073Z" transform="translate(-191.989 3.391)" fill="#263238"/>
      <path id="Path_969" data-name="Path 969" d="M209.566,246.341a8.569,8.569,0,0,1-3.284-2.016c-1.665-1.329-2.81-2.627-2.658-2.8a11.256,11.256,0,0,1,3.146,2.184C208.405,245.028,209.7,246.158,209.566,246.341Z" transform="translate(-188.624 7.433)" fill="#263238"/>
      <path id="Path_970" data-name="Path 970" d="M218.532,250.847a18.328,18.328,0,0,1-6.812-3.467,9.9,9.9,0,0,1,3.589,1.375,9.578,9.578,0,0,1,3.223,2.092Z" transform="translate(-184.347 10.518)" fill="#263238"/>
      <path id="Path_971" data-name="Path 971" d="M228.258,253.339a8.37,8.37,0,0,1-3.834-.458,8.172,8.172,0,0,1-3.574-1.451,11.653,11.653,0,0,1,3.773.687A10.875,10.875,0,0,1,228.258,253.339Z" transform="translate(-179.532 12.654)" fill="#263238"/>
      <path id="Path_972" data-name="Path 972" d="M238.3,253.281a13.914,13.914,0,0,1-7.637.153,11.226,11.226,0,0,1,3.8-.336,11.623,11.623,0,0,1,3.834.183Z" transform="translate(-174.359 13.491)" fill="#263238"/>
      <path id="Path_973" data-name="Path 973" d="M247.759,250.62a13.655,13.655,0,0,1-7.179,2.581,11.423,11.423,0,0,1,3.513-1.527,11.211,11.211,0,0,1,3.666-1.054Z" transform="translate(-169.128 12.227)" fill="#263238"/>
      <path id="Path_974" data-name="Path 974" d="M255.711,245.15c.153.168-1.008,1.527-2.7,2.749a8.265,8.265,0,0,1-3.345,1.909c-.122-.2,1.207-1.252,2.871-2.535a12.067,12.067,0,0,1,3.177-2.123Z" transform="translate(-164.342 9.342)" fill="#263238"/>
      <path id="Path_975" data-name="Path 975" d="M261.719,237.593a8.278,8.278,0,0,1-1.879,3.36c-1.268,1.711-2.535,2.887-2.7,2.749s.825-1.527,2.077-3.223S261.52,237.471,261.719,237.593Z" transform="translate(-160.406 5.353)" fill="#263238"/>
      <path id="Path_976" data-name="Path 976" d="M265.446,228.59a8.1,8.1,0,0,1-.932,3.742c-.794,1.986-1.726,3.452-1.924,3.345a11.363,11.363,0,0,1,1.176-3.635A11.743,11.743,0,0,1,265.446,228.59Z" transform="translate(-157.52 0.609)" fill="#263238"/>
      <path id="Path_977" data-name="Path 977" d="M266.76,218.8a14.57,14.57,0,0,1-1.039,7.56A25.02,25.02,0,0,1,266.76,218.8Z" transform="translate(-155.871 -4.554)" fill="#263238"/>
      <path id="Path_978" data-name="Path 978" d="M266.192,208.815a9.164,9.164,0,0,1,.7,3.773,9.8,9.8,0,0,1-.107,3.849,18.924,18.924,0,0,1-.6-7.637Z" transform="translate(-155.7 -9.827)" fill="#263238"/>
      <path id="Path_979" data-name="Path 979" d="M264,199.05a9.331,9.331,0,0,1,1.39,3.589,9.486,9.486,0,0,1,.611,3.788,9.607,9.607,0,0,1-1.39-3.589A9.439,9.439,0,0,1,264,199.05Z" transform="translate(-156.78 -14.969)" fill="#263238"/>
      <path id="Path_980" data-name="Path 980" d="M260.14,189.812c.2-.107,1.115,1.359,2.031,3.269a9.394,9.394,0,0,1,1.191,3.666A22.454,22.454,0,0,1,260.14,189.812Z" transform="translate(-158.812 -19.844)" fill="#263238"/>
      <path id="Path_981" data-name="Path 981" d="M255.22,181.1c.2-.122,1.207,1.268,2.276,3.055a9.409,9.409,0,0,1,1.527,3.5,9.82,9.82,0,0,1-2.276-3.055,9.929,9.929,0,0,1-1.527-3.5Z" transform="translate(-161.407 -24.438)" fill="#263238"/>
      <path id="Path_982" data-name="Path 982" d="M250.26,172.412c.2-.107,1.176,1.314,2.2,3.146a9.834,9.834,0,0,1,1.527,3.544,9.792,9.792,0,0,1-2.2-3.162A9.394,9.394,0,0,1,250.26,172.412Z" transform="translate(-164.023 -29.02)" fill="#263238"/>
      <path id="Path_983" data-name="Path 983" d="M246.35,163.21a18.405,18.405,0,0,1,2.673,7.163,9.163,9.163,0,0,1-1.711-3.452A9.5,9.5,0,0,1,246.35,163.21Z" transform="translate(-166.085 -33.87)" fill="#263238"/>
      <path id="Path_984" data-name="Path 984" d="M244.747,153.38a10.691,10.691,0,0,1,.672,3.773,11.132,11.132,0,0,1,.137,3.818,8.11,8.11,0,0,1-.917-3.742A8.355,8.355,0,0,1,244.747,153.38Z" transform="translate(-167.078 -39.054)" fill="#263238"/>
      <path id="Path_985" data-name="Path 985" d="M245.942,143.43a11.547,11.547,0,0,1-.275,3.818,10.8,10.8,0,0,1-.84,3.742,8.523,8.523,0,0,1,0-3.864,8.278,8.278,0,0,1,1.115-3.7Z" transform="translate(-167.005 -44.301)" fill="#263238"/>
      <path id="Path_986" data-name="Path 986" d="M249.758,134a11.148,11.148,0,0,1-1.222,3.635,11.441,11.441,0,0,1-1.726,3.421A14.312,14.312,0,0,1,249.758,134Z" transform="translate(-165.842 -49.274)" fill="#263238"/>
      <path id="Path_987" data-name="Path 987" d="M255.924,125.714c.168.153-.84,1.527-2.123,3.192s-2.367,3.055-2.551,2.856a8.1,8.1,0,0,1,1.924-3.345C254.473,126.737,255.771,125.576,255.924,125.714Z" transform="translate(-163.501 -53.65)" fill="#263238"/>
      <path id="Path_988" data-name="Path 988" d="M263.913,119.13c.122.183-1.207,1.268-2.856,2.551a11.38,11.38,0,0,1-3.192,2.123c-.153-.168,1.023-1.527,2.7-2.749A8.308,8.308,0,0,1,263.913,119.13Z" transform="translate(-160.019 -57.116)" fill="#263238"/>
      <path id="Path_989" data-name="Path 989" d="M273.142,114.61a11.455,11.455,0,0,1-3.406,1.756,11.027,11.027,0,0,1-3.6,1.268c-.107-.2,1.344-1.146,3.3-1.986a8.019,8.019,0,0,1,3.712-1.039Z" transform="translate(-155.655 -59.5)" fill="#263238"/>
      <path id="Path_990" data-name="Path 990" d="M279.3,112.826c0,.214-.779.55-1.8.733s-1.909.183-1.955,0,.764-.55,1.8-.748S279.3,112.612,279.3,112.826Z" transform="translate(-150.692 -60.526)" fill="#263238"/>
      <path id="Path_991" data-name="Path 991" d="M298.38,85.862s17.931-12.8,42.766-4.582c0,0,2.031,20.558-17.87,36.9" transform="translate(-138.646 -78.528)" fill="#35a3be"/>
      <path id="Path_992" data-name="Path 992" d="M261.35,122.5c.764,1.146,20.238,32.441,20.238,32.441l58.452-36.015a20.467,20.467,0,0,0,5.712-29.6h0a20.451,20.451,0,0,0-27.844-4.8Z" transform="translate(-158.174 -77.197)" fill="#35a3be"/>
      <path id="Path_993" data-name="Path 993" d="M275.054,135.2l-1.314,22.025s37.879-18.328,28.424-38.734Z" transform="translate(-151.64 -57.453)" fill="#263238"/>
      <path id="Path_994" data-name="Path 994" d="M295.249,97.593s-25.69-11.333-46.829,5.285l19.749,12.891Z" transform="translate(-164.993 -70.463)" fill="#263238"/>
      <path id="Path_995" data-name="Path 995" d="M291.62,108.34l-36.55,22.91s1.252,3.941,2.23,3.6,28.3-16.5,37.207-21.765a2.749,2.749,0,0,0,.718-4.109h0a2.764,2.764,0,0,0-3.6-.641Z" transform="translate(-161.486 -63.02)" fill="#263238"/>
      <circle id="Ellipse_55" data-name="Ellipse 55" cx="11.7" cy="11.7" r="11.7" transform="translate(149.692 36.697) rotate(-76.76)" fill="#fafafa"/>
      <path id="Path_996" data-name="Path 996" d="M316.929,101.008a21.35,21.35,0,0,0-.519-2.81,11.577,11.577,0,0,0-4.277-6.262,11.334,11.334,0,0,0-4.811-2.092,11.486,11.486,0,0,0-5.957.519,11.3,11.3,0,0,0-5.315,17.336,11.348,11.348,0,0,0,5.254,3.971,11.5,11.5,0,0,0,5.957.519,11.333,11.333,0,0,0,4.811-2.092,11.639,11.639,0,0,0,4.277-6.262c.474-1.772.428-2.826.519-2.826a2.461,2.461,0,0,1,0,.764,9.424,9.424,0,0,1-.26,2.138,11.806,11.806,0,0,1-9.271,8.92,12.034,12.034,0,1,1,5.04-21.337,11.653,11.653,0,0,1,4.338,6.69,9.421,9.421,0,0,1,.26,2.138A2.307,2.307,0,0,1,316.929,101.008Z" transform="translate(-141.478 -73.024)" fill="#263238"/>
      <path id="Path_997" data-name="Path 997" d="M325.347,113.386c-.153,0-.321-2.276-1.222-5.835a45.821,45.821,0,0,0-2.031-6.109A44.705,44.705,0,0,0,313.6,88.291a45.189,45.189,0,0,0-4.72-4.368c-2.887-2.276-4.888-3.375-4.811-3.513a6.765,6.765,0,0,1,1.451.687,17.707,17.707,0,0,1,1.634.962c.611.412,1.329.84,2.062,1.42a37.872,37.872,0,0,1,4.9,4.307,40.858,40.858,0,0,1,8.645,13.38,39.573,39.573,0,0,1,1.909,6.247c.229.9.321,1.741.443,2.474a16.809,16.809,0,0,1,.2,1.879,5.635,5.635,0,0,1,.031,1.619Z" transform="translate(-135.646 -77.535)" fill="#263238"/>
      <path id="Path_998" data-name="Path 998" d="M323.392,114.667c-.153,0-.336-2.306-1.252-5.926a47.355,47.355,0,0,0-2.062-6.2,48.874,48.874,0,0,0-3.711-7.087,49.5,49.5,0,0,0-4.888-6.323,45.687,45.687,0,0,0-4.8-4.475c-2.917-2.337-4.949-3.467-4.872-3.6a6.874,6.874,0,0,1,1.527.718,15.659,15.659,0,0,1,1.634.993,16.6,16.6,0,0,1,2.092,1.527,41.923,41.923,0,0,1,4.949,4.322,45.5,45.5,0,0,1,5.025,6.4,46.534,46.534,0,0,1,3.711,7.24,40.913,40.913,0,0,1,1.94,6.354c.229.916.321,1.772.443,2.5a14.809,14.809,0,0,1,.214,1.909,7.386,7.386,0,0,1,.046,1.65Z" transform="translate(-136.838 -77.198)" fill="#263238"/>
    </g>
    <g id="freepik--Chart--inject-51" transform="translate(591.513 399.509)">
      <rect id="Rectangle_1952" data-name="Rectangle 1952" width="10.646" height="34.396" transform="translate(0 27.737)" fill="#35a3be"/>
      <rect id="Rectangle_1953" data-name="Rectangle 1953" width="10.646" height="48.54" transform="translate(19.596 13.578)" fill="#35a3be"/>
      <rect id="Rectangle_1954" data-name="Rectangle 1954" width="10.646" height="55.153" transform="translate(40.445 6.965)" fill="#35a3be"/>
      <rect id="Rectangle_1955" data-name="Rectangle 1955" width="10.646" height="62.133" transform="translate(61.308)" fill="#35a3be"/>
    </g>
    <g id="freepik--Gears--inject-51" transform="translate(164.661 384.846)">
      <path id="Path_999" data-name="Path 999" d="M171.649,317.112a7.329,7.329,0,0,1,2.291.718A9.808,9.808,0,0,1,177.9,331.9a9.974,9.974,0,0,1-4.384,3.773,9.851,9.851,0,0,1-11.47-2.581,9.392,9.392,0,0,1-1.527-2.52,8.874,8.874,0,0,1-.748-2.749,9.866,9.866,0,0,1,.748-5.178,9.7,9.7,0,0,1,8.828-5.85,7.072,7.072,0,0,1,2.383.321,11.222,11.222,0,0,0-2.367-.107,9.546,9.546,0,0,0-5.85,2.306,9.362,9.362,0,0,0-2.581,3.513,9.607,9.607,0,0,0-.657,4.934,8.936,8.936,0,0,0,.733,2.6,8.8,8.8,0,0,0,1.527,2.383,9.378,9.378,0,0,0,10.844,2.429,8.506,8.506,0,0,0,2.383-1.527,8.749,8.749,0,0,0,1.787-2.047A9.546,9.546,0,0,0,173.91,318,10.323,10.323,0,0,0,171.649,317.112Z" transform="translate(-103.651 -230.053)" fill="#263238"/>
      <path id="Path_1000" data-name="Path 1000" d="M185.636,312.8a2.689,2.689,0,0,1,0-.336v-5.117l.076.092L176.9,305.51l.153-.076-2.322,4.933v.092h-.107a22.013,22.013,0,0,0-5.743,1.023h-.107l-.076-.076-3.879-3.834h.046l-7.637,4.857.092-.26,1.833,5.132v.122l-.092.107a22.4,22.4,0,0,0-3.345,4.765v.122h-5.453l.229-.2c-.611,2.765-1.283,5.743-1.955,8.8l-.137-.29,4.918,2.337.137.076v.153a22.909,22.909,0,0,0,.993,5.728v.153l-.122.122-3.849,3.864v-.336l4.826,7.637-.321-.122,5.132-1.833h.168l.122.107a21.581,21.581,0,0,0,4.735,3.345h0c.076.107-.137-.244.153.244h0v5.437l-.214-.275,8.8,1.986-.305.153c.779-1.665,1.527-3.3,2.337-4.933l.076-.137h.168a21.641,21.641,0,0,0,5.712-.993h.168l.107.107L186,357.409h-.336L193.3,352.6l-.107.29c-.626-1.741-1.222-3.452-1.833-5.132v-.137l.107-.122a21.993,21.993,0,0,0,3.36-4.75v-.122h5.59l-.214.183c.7-3.055,1.359-6.018,1.986-8.813l.122.244-4.918-2.352h-.107v-.122a21.7,21.7,0,0,0-.978-5.743v-.183l3.864-3.864v.214l-4.8-7.637h.153l-5.147,1.787h0a23.98,23.98,0,0,0-3.5-2.688l-.947-.565-.305-.2.336.153.962.519a22.748,22.748,0,0,1,3.574,2.642h-.092l5.117-1.863h.092v.092l4.857,7.637v.107l-.092.107-3.834,3.864v-.183a21.869,21.869,0,0,1,1.023,5.85l-.107-.168,4.933,2.322.153.076v.168c-.611,2.78-1.268,5.7-1.955,8.8v.183h-5.636l.214-.122a22.391,22.391,0,0,1-3.421,4.857v-.244c.6,1.68,1.222,3.391,1.833,5.132l.076.2-.183.107-7.637,4.826-.183.122-.153-.153-3.864-3.849h.275a22.175,22.175,0,0,1-5.865,1.023l.229-.153c-.764,1.619-1.527,3.269-2.337,4.918l-.092.2h-.214l-8.8-1.97h-.214v-5.865h0c.29.489,0,.137.153.244h0a22.146,22.146,0,0,1-4.857-3.421h.275l-5.132,1.818-.214.076-.107-.183-4.826-7.637-.122-.183.153-.153,3.849-3.864v.275a22.665,22.665,0,0,1-1.023-5.865l.153.214-4.872-2.26-.183-.092v-.2l1.986-8.8v-.2H155.7l-.2.122a22.128,22.128,0,0,1,3.421-4.842v.229l-1.818-5.147v-.168l.153-.092,7.637-4.811.137-.076.122.107L169,311.176h-.183a22.041,22.041,0,0,1,5.835-.993l-.137.092,2.367-4.918v-.107h.107l8.782,2.031h.076v5.086a3.309,3.309,0,0,1-.214.428Z" transform="translate(-109.879 -236.137)" fill="#263238"/>
      <path id="Path_1001" data-name="Path 1001" d="M176,268.141a24.683,24.683,0,0,1,5.315,3.742l5.682-2.016,5.33,8.416-4.246,4.277a24.88,24.88,0,0,1,1.115,6.415l5.437,2.581-2.184,9.683h-6.018a24.743,24.743,0,0,1-3.757,5.315l2.031,5.682-8.431,5.33-4.277-4.109a24.875,24.875,0,0,1-6.4,1.115l-2.581,5.437-9.729-2.184v-6.018a24.44,24.44,0,0,1-5.315-3.757l-5.682,2.031-5.346-8.431,4.261-4.261a25.109,25.109,0,0,1-1.115-6.415l-5.437-2.581,2.169-9.729h6a24.315,24.315,0,0,1,3.742-5.315l-2-5.712,8.416-5.346,4.277,4.261a24.884,24.884,0,0,1,6.415-1.115L166.251,260l9.729,2.184V268.2ZM167.412,279.6a10.692,10.692,0,1,0,6.7,4.714,10.692,10.692,0,0,0-6.7-4.714Z" transform="translate(-116.856 -260)" fill="#35a3be" fill-rule="evenodd"/>
      <g id="Group_1966" data-name="Group 1966" transform="translate(17.794)" opacity="0.8">
        <path id="Path_1002" data-name="Path 1002" d="M176,268.141a24.683,24.683,0,0,1,5.315,3.742l5.682-2.016,5.33,8.416-4.246,4.277a24.88,24.88,0,0,1,1.115,6.415l5.437,2.581-2.184,9.683h-6.018a24.743,24.743,0,0,1-3.757,5.315l2.031,5.682-8.431,5.33-4.277-4.109a24.875,24.875,0,0,1-6.4,1.115l-2.581,5.437-9.729-2.184v-6.018a24.44,24.44,0,0,1-5.315-3.757l-5.682,2.031-5.346-8.431,4.261-4.261a25.109,25.109,0,0,1-1.115-6.415l-5.437-2.581,2.169-9.729h6a24.315,24.315,0,0,1,3.742-5.315l-2-5.712,8.416-5.346,4.277,4.261a24.884,24.884,0,0,1,6.415-1.115L166.251,260l9.729,2.184V268.2ZM167.412,279.6a10.692,10.692,0,1,0,6.7,4.714,10.692,10.692,0,0,0-6.7-4.714Z" transform="translate(-134.65 -260)" fill="#fff" fill-rule="evenodd"/>
      </g>
      <path id="Path_1003" data-name="Path 1003" d="M146.949,304.526A14.2,14.2,0,0,1,150,306.695l3.314-1.176,3.055,4.9-2.474,2.49a14.449,14.449,0,0,1,.657,3.727l3.162,1.527-1.115,5.651h-3.513a14.448,14.448,0,0,1-2.169,3.055l1.176,3.3-4.918,3.055-2.474-2.474a14.663,14.663,0,0,1-3.742.642l-1.527,3.177-5.667-1.283v-3.5a13.991,13.991,0,0,1-3.055-2.184L127.4,328.78l-3.055-4.9,2.474-2.49a14.434,14.434,0,0,1-.641-3.727L123,316.134l1.268-5.667h3.314a14.739,14.739,0,0,1,2.184-3.055l-1.176-3.3,4.9-3.055,2.49,2.49a13.823,13.823,0,0,1,3.727-.657l1.527-3.162L146.9,301v3.513Zm-4.994,6.659a6.232,6.232,0,1,0,4.7,7.438,6.232,6.232,0,0,0-4.7-7.438Z" transform="translate(-123 -239.048)" fill="#35a3be" fill-rule="evenodd"/>
      <g id="Group_1967" data-name="Group 1967" transform="translate(0 60.682)" opacity="0.4">
        <path id="Path_1004" data-name="Path 1004" d="M146.949,304.526A14.2,14.2,0,0,1,150,306.695l3.314-1.176,3.055,4.9-2.474,2.49a14.449,14.449,0,0,1,.657,3.727l3.162,1.527-1.115,5.651h-3.513a14.448,14.448,0,0,1-2.169,3.055l1.176,3.3-4.918,3.055-2.474-2.474a14.663,14.663,0,0,1-3.742.642l-1.527,3.177-5.667-1.283v-3.5a13.991,13.991,0,0,1-3.055-2.184L127.4,328.78l-3.055-4.9,2.474-2.49a14.434,14.434,0,0,1-.641-3.727L123,316.134l1.268-5.667h3.314a14.739,14.739,0,0,1,2.184-3.055l-1.176-3.3,4.9-3.055,2.49,2.49a13.823,13.823,0,0,1,3.727-.657l1.527-3.162L146.9,301v3.513Zm-4.994,6.659a6.232,6.232,0,1,0,4.7,7.438,6.232,6.232,0,0,0-4.7-7.438Z" transform="translate(-123 -299.73)" fill="#fff" fill-rule="evenodd"/>
      </g>
    </g>
    <g id="freepik--Character--inject-51" transform="translate(238.296 295.41)">
      <path id="Path_1005" data-name="Path 1005" d="M362.093,290.479a14.938,14.938,0,0,0,10.8-14.892c-.183-3.055-1.3-5.9-1.176-8.889.2-4.582,3.284-8.569,5.605-12.6s3.864-9.332,1.161-13.12c-1.741-2.459-4.842-3.559-6.965-5.7s-3.055-4.995-4.185-7.728-2.551-5.56-5.117-7.011-6.491-.825-7.545,1.94" transform="translate(-74.46 -191.772)" fill="#263238"/>
      <path id="Path_1006" data-name="Path 1006" d="M372.732,224.806c4.582-2.917,5.682-9.653,3.192-14.464s-7.744-7.744-13.089-8.614a24.957,24.957,0,0,0-21.49,7.117c-2.948,3.055-5.346,7.011-9.347,8.4-3.513,1.237-7.408.122-11.1.611a16.8,16.8,0,0,0-11.745,8.462,36.107,36.107,0,0,0-4.17,14.281c-.535,4.582-.9,9.546-4.047,12.86s-7.958,3.925-11.776,6.232a16.129,16.129,0,0,0-4.8,22.025c1.527,2.2,3.7,4.231,3.864,6.9s-1.405,4.582-2.154,6.965a10.875,10.875,0,0,0,9.317,13.5c3.177.183,6.568-1.054,9.424.367s3.88,4.826,5.682,7.423a13.639,13.639,0,0,0,16.6,4.277c2.337-1.146,4.582-3.055,7.133-2.856s4.582,2.383,7.179,2.871c3.345.642,6.507-1.818,8.492-4.582s3.375-6.018,5.911-8.278c3.33-2.963,8-3.681,12.219-5.132a34.442,34.442,0,0,0,19.413-48.234" transform="translate(-112.836 -201.444)" fill="#263238"/>
      <path id="Path_1007" data-name="Path 1007" d="M369.135,224.116a7.316,7.316,0,0,1,6.522,7.438h0l-4.368,98.774C371.105,342,354.06,348.55,341.566,348.26h0c-12.616-.29-13.013-6.476-13.181-17.58-.26-18.542-.229-25.507-.244-25.4s-15.93-2.673-19.184-23.476c-1.619-10.355-1.069-27.309-.168-41.162.825-12.479,9.164-27.767,21.551-26.423Z" transform="translate(-99.113 -194.751)" fill="#ffbe9d"/>
      <path id="Path_1008" data-name="Path 1008" d="M311.44,241.131a2.688,2.688,0,0,0,2.566,2.7,2.551,2.551,0,0,0,2.749-2.4,2.658,2.658,0,0,0-2.551-2.7,2.566,2.566,0,0,0-2.764,2.4Z" transform="translate(-97.258 -181.784)" fill="#263238"/>
      <path id="Path_1009" data-name="Path 1009" d="M310.855,238.235c.336.351,2.352-1.146,5.224-1.13s4.964,1.451,5.285,1.1-.183-.779-1.1-1.451a7.316,7.316,0,0,0-4.231-1.314,6.98,6.98,0,0,0-4.154,1.329C310.993,237.441,310.687,238.082,310.855,238.235Z" transform="translate(-97.59 -183.516)" fill="#263238"/>
      <path id="Path_1010" data-name="Path 1010" d="M330.17,241.131a2.688,2.688,0,0,0,2.566,2.7,2.551,2.551,0,0,0,2.749-2.4,2.658,2.658,0,0,0-2.566-2.7,2.551,2.551,0,0,0-2.749,2.4Z" transform="translate(-87.381 -181.784)" fill="#263238"/>
      <path id="Path_1011" data-name="Path 1011" d="M329.325,238.625c.336.351,2.352-1.146,5.224-1.13s4.964,1.527,5.285,1.1-.183-.779-1.1-1.451a7.315,7.315,0,0,0-4.231-1.314,7.087,7.087,0,0,0-4.154,1.329C329.463,237.846,329.157,238.472,329.325,238.625Z" transform="translate(-87.85 -183.31)" fill="#263238"/>
      <path id="Path_1012" data-name="Path 1012" d="M324.951,259.834a18.926,18.926,0,0,0-4.582-.855c-.733-.076-1.436-.229-1.527-.718a3.68,3.68,0,0,1,.5-2.169c.687-1.772,1.42-3.635,2.169-5.575,3.055-7.942,5.224-14.479,4.9-14.586s-3.055,6.216-6.109,14.143c-.718,1.97-1.42,3.834-2.077,5.621a4.185,4.185,0,0,0-.4,2.871,1.818,1.818,0,0,0,1.207,1.069,5.06,5.06,0,0,0,1.253.183,18.908,18.908,0,0,0,4.658.015Z" transform="translate(-93.938 -183.258)" fill="#263238"/>
      <path id="Path_1013" data-name="Path 1013" d="M321.11,276.347A52.97,52.97,0,0,0,348.984,269s-7.056,14.663-27.874,12.662Z" transform="translate(-92.159 -165.818)" fill="#eb996e"/>
      <path id="Path_1014" data-name="Path 1014" d="M323.359,256.779a5.193,5.193,0,0,1,4.582-1.909,4.659,4.659,0,0,1,3.253,1.757,3.055,3.055,0,0,1,.229,3.421,3.513,3.513,0,0,1-3.773.947,11.18,11.18,0,0,1-3.666-2.2,3.573,3.573,0,0,1-.809-.855.962.962,0,0,1,0-1.069" transform="translate(-91.155 -173.284)" fill="#35a3be"/>
      <path id="Path_1015" data-name="Path 1015" d="M331.164,252.89c-.473,0-.489,3.055-3.162,5.3s-5.987,1.848-6,2.291c0,.183.733.6,2.138.642a7.637,7.637,0,0,0,5.01-1.741,6.72,6.72,0,0,0,2.444-4.429C331.7,253.654,331.347,252.875,331.164,252.89Z" transform="translate(-91.689 -174.314)" fill="#263238"/>
      <path id="Path_1016" data-name="Path 1016" d="M328.475,235.107c.275.779,3.146.412,6.507.825s6.109,1.344,6.537.641c.214-.336-.26-1.069-1.359-1.833a11.5,11.5,0,0,0-9.943-1.115C328.979,234.114,328.353,234.74,328.475,235.107Z" transform="translate(-88.283 -184.817)" fill="#263238"/>
      <path id="Path_1017" data-name="Path 1017" d="M311.564,232.838c.5.657,2.49,0,4.857,0s4.4.443,4.857-.229c.214-.336-.107-.993-.993-1.6a6.98,6.98,0,0,0-7.82.229C311.625,231.845,311.35,232.517,311.564,232.838Z" transform="translate(-97.229 -186.428)" fill="#263238"/>
      <path id="Path_1018" data-name="Path 1018" d="M340.473,217.5a20.207,20.207,0,0,1,16.48-3.055c5.544,1.527,10.142,6.6,10.34,12.219.122,3.666-1.527,7.637.168,10.89s5.361,4.429,8.08,6.72a12.4,12.4,0,0,1,2.871,15c-2.276,4.17-7.041,7.224-7.438,11.929-.382,4.429,3.345,8.171,4.261,12.524.993,4.8-1.665,9.76-5.468,12.952s-8.63,4.949-13.334,6.629c-3.666,1.329-7.637,2.673-11.409,1.8a11.684,11.684,0,0,1-8.553-9.745,15.9,15.9,0,0,1,4.322-12.555c2.673-2.948,6.43-5.437,7.072-9.332.993-6.109-6.216-11.012-5.773-17.122.229-3.146,2.459-5.758,4.307-8.355s3.467-5.85,2.322-8.8c-1.527-3.849-6.522-4.857-9.577-7.637a9.332,9.332,0,0,1-2.551-9.454,9.622,9.622,0,0,1,7.545-6.43" transform="translate(-84.197 -194.903)" fill="#263238"/>
      <path id="Path_1019" data-name="Path 1019" d="M362.472,215.278a14.22,14.22,0,0,1-16.8,14.052c-3.177-.58-6.659-2.184-9.409-.489s-3.055,6.109-5.575,8.355c-3.666,3.192-9.485.2-14.143,1.527-3.589,1.069-5.835,4.49-8.233,7.392s-5.957,5.636-9.561,4.582a42.2,42.2,0,0,1,1.436-9.592,14.189,14.189,0,0,1,5.437-7.8,52.447,52.447,0,0,0,4.582-2.688c3.055-2.4,3.681-6.6,5.514-9.958a15.61,15.61,0,0,1,11.883-7.881c4.093-.412,8.309.81,12.219-.2,2.948-.733,5.529-2.642,8.507-3.223,5.819-1.1,11.226,3.055,15.442,7.224" transform="translate(-103.95 -197.368)" fill="#263238"/>
      <path id="Path_1020" data-name="Path 1020" d="M377.568,261.309a4.369,4.369,0,0,0,.473-2.4,6.109,6.109,0,0,0-4.2-4.811,31.156,31.156,0,0,0-4.582-1.237,13.3,13.3,0,0,1-5.178-2.138,7.239,7.239,0,0,1-2.688-5.56,55.238,55.238,0,0,1,.321-6.537,14.818,14.818,0,0,0-.168-3.207,6.844,6.844,0,0,0-1.222-2.734,10.477,10.477,0,0,0-5.01-2.871,21.7,21.7,0,0,1-5.1-2.2,17.015,17.015,0,0,1-3.757-3.055,17.472,17.472,0,0,1-3.666-5.926,10.69,10.69,0,0,1-.535-1.818c-.092-.428-.122-.642-.092-.657s.275.871.9,2.367a18.5,18.5,0,0,0,12.479,10.615,11.013,11.013,0,0,1,5.376,3.055,7.637,7.637,0,0,1,1.405,3.055,15.744,15.744,0,0,1,.183,3.391,59.878,59.878,0,0,0-.336,6.461,6.522,6.522,0,0,0,2.367,5.04,12.876,12.876,0,0,0,4.872,2.062,30.111,30.111,0,0,1,4.582,1.359,7.423,7.423,0,0,1,3.238,2.413,5.635,5.635,0,0,1,1.054,2.856,3.742,3.742,0,0,1-.382,1.894C377.767,261.156,377.583,261.324,377.568,261.309Z" transform="translate(-81.062 -193.684)" fill="#455a64"/>
      <path id="Path_1021" data-name="Path 1021" d="M285.661,280.563l-.351-.168a2.46,2.46,0,0,1-.779-.779,4.2,4.2,0,0,1,.428-4.109,5.391,5.391,0,0,1,2.23-2.138,28.618,28.618,0,0,1,3.345-1.405,10.432,10.432,0,0,0,3.5-1.986,7.637,7.637,0,0,0,2-3.941c.336-1.527.443-3.269.733-5.04a10.981,10.981,0,0,1,2.062-5.254c2.413-3.177,6.384-4.872,9.347-7.866a14.6,14.6,0,0,0,3.253-5.514,38.421,38.421,0,0,0,1.527-6.659c.642-4.582,1.3-9.683,4.368-13.868a10.081,10.081,0,0,1,6.277-4.048,22.055,22.055,0,0,1,7.24.168,25.584,25.584,0,0,0,6.766.4,8.8,8.8,0,0,0,5.529-2.856c2.841-3.055,4.46-7.179,7.958-9.286A13.288,13.288,0,0,1,361.6,204.76a11.669,11.669,0,0,1,6.9,5.376,13.044,13.044,0,0,1,1.8,6.415,11.378,11.378,0,0,1-.657,4.154,6.773,6.773,0,0,1-.626,1.344s.183-.473.474-1.39a12.22,12.22,0,0,0,.5-4.093,12.981,12.981,0,0,0-1.863-6.2,11.226,11.226,0,0,0-6.69-5.056,12.707,12.707,0,0,0-10,1.527,14.647,14.647,0,0,0-4.017,4.139,47.754,47.754,0,0,1-3.757,5.086,10.522,10.522,0,0,1-2.658,2.092,10.08,10.08,0,0,1-3.314,1.023,26.668,26.668,0,0,1-6.965-.382,21.384,21.384,0,0,0-6.98-.183,9.393,9.393,0,0,0-5.789,3.757,19.29,19.29,0,0,0-2.978,6.522,64.6,64.6,0,0,0-1.268,7,38.322,38.322,0,0,1-1.527,6.781,15.075,15.075,0,0,1-3.452,5.773c-3.131,3.055-7.056,4.765-9.347,7.774a10.525,10.525,0,0,0-1.986,4.933c-.29,1.741-.412,3.452-.794,5.071a7.9,7.9,0,0,1-2.2,4.185,10.691,10.691,0,0,1-3.681,2.031,29.026,29.026,0,0,0-3.33,1.329,5.237,5.237,0,0,0-2.138,1.955,4.139,4.139,0,0,0-.55,3.88A3.589,3.589,0,0,0,285.661,280.563Z" transform="translate(-111.633 -199.955)" fill="#455a64"/>
      <path id="Path_1022" data-name="Path 1022" d="M254.8,374.816l36.886-3.375s22.7-59.8,50.678-74.291l18.13,31.662-38.81,72.9H245.93Z" transform="translate(-131.806 -150.973)" fill="#35a3be"/>
      <path id="Path_1023" data-name="Path 1023" d="M254.8,374.816l36.886-3.375s22.7-59.8,50.678-74.291l18.13,31.662-38.81,72.9H245.93Z" transform="translate(-131.806 -150.973)" opacity="0.3"/>
      <path id="Path_1024" data-name="Path 1024" d="M261.28,362.987a55.21,55.21,0,0,1,6.9-11.547A58.163,58.163,0,0,1,261.28,362.987Z" transform="translate(-123.711 -122.342)" fill="#fafafa"/>
      <path id="Path_1025" data-name="Path 1025" d="M281.291,362.132a56.831,56.831,0,0,1-8.4-10.432,26.56,26.56,0,0,1,4.506,4.964,29.023,29.023,0,0,1,3.895,5.468Z" transform="translate(-117.588 -122.205)" fill="#fafafa"/>
      <path id="Path_1026" data-name="Path 1026" d="M281.5,352.9a29.707,29.707,0,0,1,0-9.684,29.71,29.71,0,0,1,0,9.683Z" transform="translate(-113.258 -126.677)" fill="#fafafa"/>
      <path id="Path_1027" data-name="Path 1027" d="M275.137,365.042a9.8,9.8,0,0,1-3.528-1.818c-1.833-1.207-3.207-2.322-3.055-2.5a10.325,10.325,0,0,1,3.528,1.833C273.823,363.744,275.259,364.859,275.137,365.042Z" transform="translate(-119.881 -117.448)" fill="#fafafa"/>
      <path id="Path_1028" data-name="Path 1028" d="M288.739,327.57a32.717,32.717,0,0,1-2.551,6.659,32.247,32.247,0,0,1-3.269,6.339,31.068,31.068,0,0,1,2.535-6.659,32.762,32.762,0,0,1,3.284-6.339Z" transform="translate(-112.299 -134.93)" fill="#fafafa"/>
      <path id="Path_1029" data-name="Path 1029" d="M298.727,311.71c.122.168-1.191,1.39-2.948,2.734a10.464,10.464,0,0,1-3.437,2.092c-.122-.183,1.191-1.405,2.948-2.734A10.155,10.155,0,0,1,298.727,311.71Z" transform="translate(-107.334 -143.294)" fill="#fafafa"/>
      <path id="Path_1030" data-name="Path 1030" d="M332.64,395.86l19.031-76.842a26.118,26.118,0,0,1,30-19.443h0a26.164,26.164,0,0,1,21.2,29.738l-11.638,75.1a37.573,37.573,0,0,1-31.189,30.44l-15.121,2.352Z" transform="translate(-86.078 -149.915)" fill="#35a3be"/>
      <path id="Path_1031" data-name="Path 1031" d="M384.973,297.781a17.321,17.321,0,0,0-6.8-3.406,18.069,18.069,0,0,0-8.187,0,22.164,22.164,0,0,0-8.9,4.582c-5.575,4.674-8.6,10.691-10.692,15-1.023,2.154-1.8,3.925-2.352,5.147a11.569,11.569,0,0,1-.932,1.879,10.863,10.863,0,0,1,.642-1.986c.473-1.268,1.161-3.055,2.123-5.285a61,61,0,0,1,3.91-7.5,33.466,33.466,0,0,1,6.766-7.866,22.3,22.3,0,0,1,9.241-4.75,18.129,18.129,0,0,1,8.492.107,14.586,14.586,0,0,1,5.163,2.49,9.39,9.39,0,0,1,1.146,1.054A4.47,4.47,0,0,1,384.973,297.781Z" transform="translate(-78.447 -153.085)" fill="#263238"/>
      <path id="Path_1032" data-name="Path 1032" d="M309.969,307.5a4.064,4.064,0,0,1-.535.718l-1.619,1.955c-1.42,1.7-3.421,4.17-5.712,7.362a78.7,78.7,0,0,0-13,27.584c-2.642,11.715-2.78,22.681-3.223,30.547-.2,3.941-.382,7.133-.55,9.332-.092,1.039-.168,1.879-.229,2.535a6.005,6.005,0,0,1-.122.886,3.054,3.054,0,0,1,0-.886c0-.672,0-1.527.076-2.551,0-2.306.168-5.468.29-9.332.305-7.851.336-18.863,3.055-30.7a75.881,75.881,0,0,1,13.3-27.722c2.367-3.177,4.445-5.621,5.926-7.255.733-.825,1.344-1.436,1.741-1.848a4.8,4.8,0,0,1,.6-.626Z" transform="translate(-111.229 -145.514)" fill="#263238"/>
      <path id="Path_1033" data-name="Path 1033" d="M432.32,323.92c-2.092-13.746-9.668-17.03-17.534-21.307-2.566-1.405-14.953-4.582-24.774-6.98-.947-5.941-2.627-16.6-3.055-18.848-.519-3.162-50.036,4.735-50.663,5.926-.412.779-1.527,13.12-2.276,21.383l-11.852,4.139-15.411,19.672-8.049,11.425a61.461,61.461,0,0,0-9.974,21.963,119.531,119.531,0,0,0-2.215,26.607l-2.4,50.4L387.8,467.6l7.942-51.105,26.729-36.382C424.744,365.4,434.886,340.813,432.32,323.92Z" transform="translate(-111.666 -162.103)" fill="#35a3be"/>
      <path id="Path_1034" data-name="Path 1034" d="M324.151,303.638a15.593,15.593,0,0,1-.687-3.5c-.321-2.169-.718-5.178-1.1-8.507-.183-1.65-.351-3.223-.519-4.7a38.156,38.156,0,0,1-.275-3.879,4.582,4.582,0,0,1,.748-2.581c.4-.519.733-.657.764-.626s-.229.275-.5.794a4.994,4.994,0,0,0-.443,2.413c0,1.069.275,2.352.443,3.8s.367,3.055.58,4.689c.382,3.33.687,6.354.871,8.538a15.52,15.52,0,0,1,.122,3.559Z" transform="translate(-91.916 -160.103)" fill="#263238"/>
      <path id="Path_1035" data-name="Path 1035" d="M332.857,301.243a12.127,12.127,0,0,1-1.1-3.207,50.618,50.618,0,0,1-1.527-16.221,12.466,12.466,0,0,1,.489-3.345c.244,0-.2,5.147.4,11.44S333.1,301.182,332.857,301.243Z" transform="translate(-87.41 -160.824)" fill="#263238"/>
      <path id="Path_1036" data-name="Path 1036" d="M349.334,298.673a53.049,53.049,0,0,0-.29-11.394,50.64,50.64,0,0,0-3.574-10.829,9.946,9.946,0,0,1,1.818,2.887,29.02,29.02,0,0,1,2.78,16.022A11,11,0,0,1,349.334,298.673Z" transform="translate(-79.312 -161.889)" fill="#263238"/>
      <path id="Path_1037" data-name="Path 1037" d="M302,324.642a47.346,47.346,0,0,1,9.088-12.112Q306.842,318.8,302,324.642Z" transform="translate(-102.237 -142.862)" fill="#fafafa"/>
      <path id="Path_1038" data-name="Path 1038" d="M319.867,311.438a48.876,48.876,0,0,1-7.637-9.958,26.178,26.178,0,0,1,4.109,4.735A25.139,25.139,0,0,1,319.867,311.438Z" transform="translate(-96.842 -148.689)" fill="#fafafa"/>
      <path id="Path_1039" data-name="Path 1039" d="M336.618,300.22a43.81,43.81,0,0,1-4.872,4.933,46.132,46.132,0,0,1-5.056,4.75,23.471,23.471,0,0,1,4.506-5.315A22.909,22.909,0,0,1,336.618,300.22Z" transform="translate(-89.216 -149.354)" fill="#fafafa"/>
      <path id="Path_1040" data-name="Path 1040" d="M331.157,292.915a14.265,14.265,0,0,1-3.8-2.9,14.967,14.967,0,0,1-3.284-3.513,15.181,15.181,0,0,1,3.818,2.917,14.724,14.724,0,0,1,3.268,3.5Z" transform="translate(-90.598 -156.589)" fill="#fafafa"/>
      <path id="Path_1041" data-name="Path 1041" d="M346.307,283.24a18.053,18.053,0,0,1-5.147,1.527,18.661,18.661,0,0,1-5.3.733,18.414,18.414,0,0,1,5.132-1.527A18.745,18.745,0,0,1,346.307,283.24Z" transform="translate(-84.38 -158.308)" fill="#fafafa"/>
      <path id="Path_1042" data-name="Path 1042" d="M345.78,309.082a17.946,17.946,0,0,1-.672-5.331,18.544,18.544,0,0,1,.122-5.361,17.948,17.948,0,0,1,.672,5.33,18.547,18.547,0,0,1-.122,5.361Z" transform="translate(-79.576 -150.319)" fill="#fafafa"/>
      <path id="Path_1043" data-name="Path 1043" d="M341.993,320.34a28.563,28.563,0,0,1-2.688-6.109,29.474,29.474,0,0,1-1.925-6.461,58.315,58.315,0,0,1,4.582,12.631Z" transform="translate(-83.579 -145.372)" fill="#fafafa"/>
      <path id="Path_1044" data-name="Path 1044" d="M328.312,328.117a31.675,31.675,0,0,1-2.933-6.461,31.039,31.039,0,0,1-2.2-6.766,33.1,33.1,0,0,1,2.933,6.476,32.4,32.4,0,0,1,2.2,6.751Z" transform="translate(-91.067 -141.617)" fill="#fafafa"/>
      <path id="Path_1045" data-name="Path 1045" d="M314.418,336.532a54.239,54.239,0,0,1-2.658-12.952,27.894,27.894,0,0,1,1.711,6.4,28.182,28.182,0,0,1,.947,6.552Z" transform="translate(-97.09 -137.034)" fill="#fafafa"/>
      <path id="Path_1046" data-name="Path 1046" d="M299.962,336.429a54.266,54.266,0,0,1-5.682-11.669A54.257,54.257,0,0,1,299.962,336.429Z" transform="translate(-106.308 -136.412)" fill="#fafafa"/>
      <path id="Path_1047" data-name="Path 1047" d="M302.079,342.34a34.011,34.011,0,0,1-6.2,3.5,31.844,31.844,0,0,1-6.568,2.8,32.378,32.378,0,0,1,6.216-3.513,31.952,31.952,0,0,1,6.552-2.78Z" transform="translate(-108.929 -127.141)" fill="#fafafa"/>
      <path id="Path_1048" data-name="Path 1048" d="M298.916,362.015a17.214,17.214,0,0,1-2.154-5.575,17.029,17.029,0,0,1-.9-5.88,31.314,31.314,0,0,1,1.665,5.682,31.782,31.782,0,0,1,1.39,5.773Z" transform="translate(-105.476 -122.806)" fill="#fafafa"/>
      <path id="Path_1049" data-name="Path 1049" d="M297.9,372.074a27.616,27.616,0,0,1-4.979-4.032,25.145,25.145,0,0,1-4.445-4.582,27.608,27.608,0,0,1,4.979,4.032,25.139,25.139,0,0,1,4.445,4.582Z" transform="translate(-109.366 -116.003)" fill="#fafafa"/>
      <path id="Path_1050" data-name="Path 1050" d="M320.212,361.56c0,.229-3.452,1.237-7.545,3.055s-7.209,3.681-7.347,3.482a24.193,24.193,0,0,1,7.026-4.216,23.812,23.812,0,0,1,7.866-2.322Z" transform="translate(-100.486 -117.005)" fill="#fafafa"/>
      <path id="Path_1051" data-name="Path 1051" d="M310.4,359.792a20.938,20.938,0,0,1-2.245-5.239,20.375,20.375,0,0,1-1.527-5.483,20.649,20.649,0,0,1,2.23,5.224,20.118,20.118,0,0,1,1.543,5.5Z" transform="translate(-99.795 -123.592)" fill="#fafafa"/>
      <path id="Path_1052" data-name="Path 1052" d="M324.327,342.57a44.567,44.567,0,0,1-4.17,7.377,45.974,45.974,0,0,1-4.857,7.026,91.647,91.647,0,0,1,9.027-14.327Z" transform="translate(-95.223 -127.02)" fill="#fafafa"/>
      <path id="Path_1053" data-name="Path 1053" d="M337.273,348.929a30.766,30.766,0,0,1-5.086-6.934,31.462,31.462,0,0,1-3.727-7.744c.214-.092,1.986,3.3,4.414,7.347S337.456,348.806,337.273,348.929Z" transform="translate(-88.283 -131.408)" fill="#fafafa"/>
      <path id="Path_1054" data-name="Path 1054" d="M346.04,331.006a15.122,15.122,0,0,1-5.819,1.039,15.274,15.274,0,0,1-5.88-.458,39.184,39.184,0,0,1,5.85-.336,40.77,40.77,0,0,1,5.85-.244Z" transform="translate(-85.182 -133.128)" fill="#fafafa"/>
      <path id="Path_1055" data-name="Path 1055" d="M365.8,316.39a88.775,88.775,0,0,1-15.274,7.3,91.872,91.872,0,0,1,15.274-7.3Z" transform="translate(-76.644 -140.826)" fill="#fafafa"/>
      <path id="Path_1056" data-name="Path 1056" d="M361.76,311.309a59.138,59.138,0,0,1,6.109-12.219,29.025,29.025,0,0,1-2.688,6.277A30.157,30.157,0,0,1,361.76,311.309Z" transform="translate(-70.721 -149.95)" fill="#fafafa"/>
      <path id="Path_1057" data-name="Path 1057" d="M375.028,319.215a50.972,50.972,0,0,1-2.322-6.949,50.51,50.51,0,0,1-2.047-7.026,40.981,40.981,0,0,1,4.368,13.975Z" transform="translate(-66.028 -146.706)" fill="#fafafa"/>
      <path id="Path_1058" data-name="Path 1058" d="M380.122,324.07a23.817,23.817,0,0,1-6.705,2.444,23.047,23.047,0,0,1-7.056,1.085,51.7,51.7,0,0,1,6.858-1.848A52.263,52.263,0,0,1,380.122,324.07Z" transform="translate(-68.296 -136.776)" fill="#fafafa"/>
      <path id="Path_1059" data-name="Path 1059" d="M355.227,341.691c-.229,0,.428-3.757.611-8.385s-.122-8.385.107-8.416a25.14,25.14,0,0,1,.687,8.446A24.79,24.79,0,0,1,355.227,341.691Z" transform="translate(-74.192 -136.344)" fill="#fafafa"/>
      <path id="Path_1060" data-name="Path 1060" d="M354.618,352.2a37.588,37.588,0,0,1-9.928-11.975c.2-.122,2.215,2.7,4.964,6a73.329,73.329,0,0,1,4.964,5.972Z" transform="translate(-79.724 -128.261)" fill="#fafafa"/>
      <path id="Path_1061" data-name="Path 1061" d="M375.9,345.506a30.947,30.947,0,0,1-6.369,3.055,32.272,32.272,0,0,1-6.675,2.352A64.241,64.241,0,0,1,375.9,345.46Z" transform="translate(-70.141 -125.496)" fill="#fafafa"/>
      <path id="Path_1062" data-name="Path 1062" d="M364.267,374.191a90.8,90.8,0,0,1,.168-16.8A87.391,87.391,0,0,1,364.267,374.191Z" transform="translate(-69.563 -119.204)" fill="#fafafa"/>
      <path id="Path_1063" data-name="Path 1063" d="M348.65,372.908A48.877,48.877,0,0,1,352.881,356c.214.076-.947,3.788-2.108,8.446S348.879,372.954,348.65,372.908Z" transform="translate(-77.635 -119.937)" fill="#fafafa"/>
      <path id="Path_1064" data-name="Path 1064" d="M355.182,373.109c0,.229-3.788.6-8.431,1.375s-8.37,1.634-8.431,1.405a31.13,31.13,0,0,1,8.294-2.2,30.41,30.41,0,0,1,8.568-.58Z" transform="translate(-83.083 -110.959)" fill="#fafafa"/>
      <path id="Path_1065" data-name="Path 1065" d="M332.2,372.674a31.557,31.557,0,0,1,4.582-5.269,30.08,30.08,0,0,1,5.1-4.7,31.551,31.551,0,0,1-4.582,5.27A30.744,30.744,0,0,1,332.2,372.674Z" transform="translate(-86.31 -116.404)" fill="#fafafa"/>
      <path id="Path_1066" data-name="Path 1066" d="M322.54,384.119a51.57,51.57,0,0,1-2.062-5.972,54.044,54.044,0,0,1-2.138-5.957A24.439,24.439,0,0,1,322.54,384.119Z" transform="translate(-93.619 -111.399)" fill="#fafafa"/>
      <path id="Path_1067" data-name="Path 1067" d="M344.184,388.519a84.48,84.48,0,0,1-15.014-6.659,43.057,43.057,0,0,1,7.637,2.963,44.615,44.615,0,0,1,7.377,3.7Z" transform="translate(-87.908 -106.3)" fill="#fafafa"/>
      <path id="Path_1068" data-name="Path 1068" d="M307.76,388.181a20.617,20.617,0,0,1,1.436-5.59,21.258,21.258,0,0,1,2.184-5.331,20.759,20.759,0,0,1-1.436,5.59,22.288,22.288,0,0,1-2.184,5.331Z" transform="translate(-99.199 -108.726)" fill="#fafafa"/>
      <path id="Path_1069" data-name="Path 1069" d="M335.126,388.484c0,.229-4.384-.474-9.79-.748s-9.79,0-9.806-.306a34.78,34.78,0,0,1,9.852-.489A34.351,34.351,0,0,1,335.126,388.484Z" transform="translate(-95.101 -103.699)" fill="#fafafa"/>
      <path id="Path_1070" data-name="Path 1070" d="M332.648,379.81a2.155,2.155,0,0,1,0-.611,5.639,5.639,0,0,1,.26-1.726,3.788,3.788,0,0,1,1.649-2.276,5.33,5.33,0,0,1,3.727-.611l-.305.183c1.665-5.865,4.338-14.418,7.011-24.01,2.5-8.981,4.2-17.244,5.376-23.246.58-2.887,1.039-5.285,1.405-7.1a18.925,18.925,0,0,1,.6-2.581,15.109,15.109,0,0,1-.29,2.642c-.244,1.7-.642,4.139-1.161,7.148a234.98,234.98,0,0,1-5.163,23.353c-2.673,9.607-5.437,18.13-7.27,23.949l-.076.229h-.229a4.9,4.9,0,0,0-3.406.458,3.666,3.666,0,0,0-1.6,2A17.915,17.915,0,0,0,332.648,379.81Z" transform="translate(-86.086 -140.067)" fill="#263238"/>
      <path id="Path_1071" data-name="Path 1071" d="M365.138,381.47c-.122,0-1.069-2.016-3.055-5.1a52.709,52.709,0,0,0-20.772-18.878c-3.253-1.634-5.407-2.383-5.361-2.52a7.449,7.449,0,0,1,1.527.412,34.159,34.159,0,0,1,4.047,1.6,47.685,47.685,0,0,1,21.017,19.092,34.546,34.546,0,0,1,1.97,3.879,5.1,5.1,0,0,1,.626,1.512Z" transform="translate(-84.333 -120.481)" fill="#263238"/>
      <g id="Group_1968" data-name="Group 1968" transform="translate(252.106 233.374)" opacity="0.2">
        <path id="Path_1072" data-name="Path 1072" d="M336.7,354.24a53.245,53.245,0,0,1,16.1,2.917c5.483,2.047,10.554,5.987,12.57,11.486a3.742,3.742,0,0,1-.29,3.956,2.81,2.81,0,0,1-2.887.473,7.529,7.529,0,0,1-2.535-1.741c-3.36-3.055-6.858-5.865-10.325-8.859s-8.538-6.109-13.059-6.827" transform="translate(-336.27 -354.24)"/>
      </g>
      <path id="Path_1073" data-name="Path 1073" d="M343.552,351.542a6.95,6.95,0,0,1-1.527.916,26.7,26.7,0,0,1-4.689,1.772,31.326,31.326,0,0,1-30.761-7.988,27.96,27.96,0,0,1-3.238-3.834,6.845,6.845,0,0,1-.947-1.527c.122-.092,1.527,2.138,4.582,5.01a32.4,32.4,0,0,0,30.211,7.851C341.17,352.672,343.476,351.389,343.552,351.542Z" transform="translate(-102.031 -127.912)" fill="#263238"/>
      <g id="Group_1969" data-name="Group 1969" transform="translate(201.108 214.099)" opacity="0.2">
        <path id="Path_1074" data-name="Path 1074" d="M302.88,341.62c2.581,5.59,5.59,11.226,10.478,14.983A16.8,16.8,0,0,0,323,360.636c5.1.092,9.485-3.391,13.38-6.69-12.616,1.986-26.82-3.742-33.495-12.326" transform="translate(-302.88 -341.62)"/>
      </g>
      <path id="Path_1075" data-name="Path 1075" d="M340.639,300.631c-.244,0,0-5.254-.58-11.654s-1.879-11.486-1.649-11.547a12.293,12.293,0,0,1,1.054,3.284,56.132,56.132,0,0,1,1.375,8.187,57.23,57.23,0,0,1,.214,8.309,13.144,13.144,0,0,1-.412,3.421Z" transform="translate(-83.05 -161.372)" fill="#263238"/>
      <path id="Path_1076" data-name="Path 1076" d="M247.624,426.44s-16.6,3.589-31.418,1.359c-13.9-2.077-45.011.076-45,18.328,0,20.421,41.5,15.38,57.673,12.143s32.3-6.109,32.3-6.109Z" transform="translate(-171.21 -82.79)" fill="#35a3be"/>
      <path id="Path_1077" data-name="Path 1077" d="M197.953,448.538a35.341,35.341,0,0,1-2-7.1,34.825,34.825,0,0,1-1.222-7.285,35.336,35.336,0,0,1,1.94,7.1,34.823,34.823,0,0,1,1.283,7.286Z" transform="translate(-158.807 -78.724)" fill="#263238"/>
      <path id="Path_1078" data-name="Path 1078" d="M201.246,448.823a68.643,68.643,0,0,1-2.016-14.693,34.58,34.58,0,0,1,1.405,7.285A35.711,35.711,0,0,1,201.246,448.823Z" transform="translate(-156.433 -78.735)" fill="#263238"/>
      <path id="Path_1079" data-name="Path 1079" d="M204.682,446.78a27.068,27.068,0,0,1-1.161-6.369,25.969,25.969,0,0,1-.382-6.461,53.453,53.453,0,0,1,1.527,12.83Z" transform="translate(-154.401 -78.83)" fill="#263238"/>
      <path id="Path_1080" data-name="Path 1080" d="M210.718,444.908a14.921,14.921,0,0,1-2.123-5.468,14.678,14.678,0,0,1-.611-5.85,43.422,43.422,0,0,1,1.375,5.651,41.064,41.064,0,0,1,1.359,5.667Z" transform="translate(-151.854 -79.02)" fill="#263238"/>
      <path id="Path_1081" data-name="Path 1081" d="M211,440.474a6.964,6.964,0,0,1,2.169-.153,18.634,18.634,0,0,1,5.819,1.146,6.888,6.888,0,0,1,1.8.962,2.734,2.734,0,0,1,1.115,2.031,3.055,3.055,0,0,1-3.757,2.734,7.759,7.759,0,0,1-4.322-3.055,13.517,13.517,0,0,1-.626-15.686,2.2,2.2,0,0,1,1.222-.748,1.726,1.726,0,0,1,1.39.443,3.727,3.727,0,0,1,1.039,2.23,11.135,11.135,0,0,1-.214,4.139,11.394,11.394,0,0,1-2.81,5.239,8.177,8.177,0,0,1-1.207,1.084,1.71,1.71,0,0,1-.489.29s.58-.519,1.527-1.527a11.929,11.929,0,0,0,2.49-5.162,10.784,10.784,0,0,0,.107-3.925,3.146,3.146,0,0,0-.84-1.8,1.069,1.069,0,0,0-1.6.275A12.937,12.937,0,0,0,214.5,443.7a7.041,7.041,0,0,0,3.849,2.841,2.383,2.383,0,0,0,2.963-1.985,2.108,2.108,0,0,0-.855-1.527,5.975,5.975,0,0,0-1.6-.916,20.24,20.24,0,0,0-5.636-1.344C211.706,440.5,211,440.535,211,440.474Z" transform="translate(-150.229 -82.131)" fill="#263238"/>
      <path id="Path_1082" data-name="Path 1082" d="M258.677,449.352l-.412.137-1.252.306-4.811,1.1c-4.185.916-10.264,2.215-17.809,3.666s-16.557,3.055-26.668,4.475a71.55,71.55,0,0,1-16.022.809,35.124,35.124,0,0,1-8.385-1.6,23.751,23.751,0,0,1-4.032-1.8,12.222,12.222,0,0,1-3.528-2.841h0a8.464,8.464,0,0,1-1.436-1.726,10.692,10.692,0,0,1-.84-8.935,14.3,14.3,0,0,1,5.315-6.965,27.5,27.5,0,0,1,7.56-3.742c1.329-.382,2.612-.84,3.925-1.13s2.612-.611,3.91-.794c10.4-1.634,19.856-.81,27.737-.81,3.941.076,7.5,0,10.615-.214a73.721,73.721,0,0,0,7.942-1.008l2.871-.611,2.062-.58,1.268-.351a1.668,1.668,0,0,1,.443-.092,2.683,2.683,0,0,1-.412.168l-1.252.428-2.047.657-2.856.687a71.208,71.208,0,0,1-7.988,1.146c-3.131.229-6.705.382-10.692.336-7.881.076-17.336-.7-27.6.962-1.283.183-2.551.535-3.849.809s-2.551.748-3.864,1.115a26.635,26.635,0,0,0-7.347,3.65,13.548,13.548,0,0,0-5.025,6.583,9.974,9.974,0,0,0,.764,8.263,7.743,7.743,0,0,0,1.3,1.527h0a12.035,12.035,0,0,0,3.284,2.612,22.652,22.652,0,0,0,3.88,1.741,34.136,34.136,0,0,0,8.2,1.527,72.355,72.355,0,0,0,15.869-.748c10.081-1.329,19.107-2.933,26.652-4.307s13.639-2.6,17.855-3.421l4.842-.947,1.252-.229a1.4,1.4,0,0,1,.58.153Z" transform="translate(-170.334 -82.685)" fill="#263238"/>
      <path id="Path_1083" data-name="Path 1083" d="M190.639,457.925a26.9,26.9,0,0,1-.412-4.246c-.183-2.612-.489-6.232-1.023-10.188s-1.176-7.53-1.7-10.111a25.459,25.459,0,0,1-.718-4.2,19.855,19.855,0,0,1,1.268,4.078A92.846,92.846,0,0,1,190,443.384a95.285,95.285,0,0,1,.794,10.264,20.783,20.783,0,0,1-.153,4.277Z" transform="translate(-162.994 -81.345)" fill="#263238"/>
      <path id="Path_1084" data-name="Path 1084" d="M217.89,427.326l10.524,26.347,8.156-1.512L220.945,426.44Z" transform="translate(-146.593 -82.79)" opacity="0.4"/>
      <path id="Path_1085" data-name="Path 1085" d="M379.454,394.872c-1.7.55-110.4-29.906-154.355-42.262a41.712,41.712,0,0,0-34,5.147l-.535.336a41.727,41.727,0,0,0-17.977,44.523h0a41.789,41.789,0,0,0,18.848,26.148c29.02,17.763,90.343,55.122,92.222,54.389,2.459-.947,79.071-2.933,79.071-2.933l-92.176-66.3,43.85,28.348,65.05-47.348Z" transform="translate(-171.061 -122.55)" fill="#263238"/>
      <path id="Path_1086" data-name="Path 1086" d="M249.719,362.209l23.109-11.959,22.666,14.2,84.83,2.78,12.219,41.239L269.743,380s-22.345,1.986-24.025-3.055S249.719,362.209,249.719,362.209Z" transform="translate(-132.082 -122.97)" fill="#ffbe9d"/>
      <path id="Path_1087" data-name="Path 1087" d="M297.685,412.062,286.26,449.6l1.42,11.44h0a58.7,58.7,0,0,0,77.407,5.208h0a57.5,57.5,0,0,0,22.483-45.821L387.4,381.24Z" transform="translate(-110.537 -106.627)" fill="#263238"/>
      <path id="Path_1088" data-name="Path 1088" d="M269.483,416.711c-.122.168-13.38-9.5-29.6-21.6S210.6,373.059,210.74,372.891s13.38,9.485,29.616,21.582S269.62,416.527,269.483,416.711Z" transform="translate(-150.364 -111.031)" fill="#455a64"/>
      <path id="Path_1089" data-name="Path 1089" d="M270.229,355.15a91.49,91.49,0,0,1-11.3,4.048,94.683,94.683,0,0,1-11.547,3.284,90.353,90.353,0,0,1,11.3-4.047A93.8,93.8,0,0,1,270.229,355.15Z" transform="translate(-131.041 -120.386)" fill="#eb996e"/>
      <path id="Path_1090" data-name="Path 1090" d="M272.636,359.767a22.42,22.42,0,0,1-3.941.748c-2.429.4-5.773.993-9.439,1.833s-6.934,1.772-9.3,2.474a24.846,24.846,0,0,1-3.864,1.054,17.34,17.34,0,0,1,3.681-1.527,83.295,83.295,0,0,1,18.848-4.338A19.047,19.047,0,0,1,272.636,359.767Z" transform="translate(-131.721 -117.961)" fill="#eb996e"/>
      <path id="Path_1091" data-name="Path 1091" d="M271.044,364a104.2,104.2,0,0,1-12.723,2.932,107.634,107.634,0,0,1-12.891,2.154,107.56,107.56,0,0,1,12.738-2.933A108.229,108.229,0,0,1,271.044,364Z" transform="translate(-132.069 -115.719)" fill="#eb996e"/>
      <path id="Path_1092" data-name="Path 1092" d="M279.806,322.325l21.307,70.136A2.047,2.047,0,0,0,302.9,393.9l58.04,4.353a2.031,2.031,0,0,1,1.894,2.031v3.62a2.031,2.031,0,0,1-2.077,2.031l-158.845-3.055a2.031,2.031,0,0,1-1.863-1.313l-27.92-73.145a2.031,2.031,0,0,1,1.8-2.764l103.723-4.842A2.047,2.047,0,0,1,279.806,322.325Z" transform="translate(-170.799 -138.498)" fill="#455a64"/>
      <path id="Path_1093" data-name="Path 1093" d="M214.372,341.7a5.04,5.04,0,0,0-3.146,3.574,4.827,4.827,0,0,0,2.062,4.368,5.224,5.224,0,0,0,5.8.214,4.826,4.826,0,0,0,1.527-5.85c-.7-1.94-4.246-3.3-6.293-2.306" transform="translate(-150.116 -127.657)" fill="#e0e0e0"/>
      <path id="Path_1094" data-name="Path 1094" d="M235.921,490.1l-16.8-27.615,123.411-96.728a49.578,49.578,0,0,1,26.958-11.043h0A49.593,49.593,0,0,1,423.4,408.168l-1.97,23.6L339.6,458.143Z" transform="translate(-145.944 -120.725)" fill="#263238"/>
      <path id="Path_1095" data-name="Path 1095" d="M388.406,400.36a3.4,3.4,0,0,1-.321.305l-1.008.825-3.925,3.146-2.856,2.245c-1.039.825-2.276,1.527-3.544,2.49l-4.093,2.81c-.733.489-1.527,1.023-2.245,1.527l-2.459,1.527c-3.345,2-6.965,4.292-11.073,6.369-2.031,1.069-4.109,2.23-6.293,3.314l-6.827,3.223a333.577,333.577,0,0,1-31.2,12.433c-22.544,7.774-43.377,13.365-58.3,17.885-3.742,1.1-7.118,2.138-10.081,3.055s-5.5,1.7-7.637,2.4l-4.765,1.527-1.252.382a2.181,2.181,0,0,1-.443.107l.412-.183,1.222-.458,4.735-1.7c2.047-.748,4.582-1.527,7.545-2.535s6.308-2.047,10.035-3.177c14.892-4.674,35.71-10.34,58.208-18.1,11.272-3.834,21.765-8.11,31.158-12.341l6.812-3.192c2.2-1.069,4.277-2.215,6.308-3.269,4.109-2.047,7.728-4.307,11.089-6.262l2.459-1.451c.779-.489,1.527-1.008,2.26-1.527l4.261-2.765c1.268-.871,2.5-1.619,3.559-2.428l2.887-2.2,4.017-3.055,1.069-.764Z" transform="translate(-140.164 -96.544)" fill="#455a64"/>
      <path id="Path_1096" data-name="Path 1096" d="M347.639,408.81a4.809,4.809,0,0,1-1.237.657c-.825.367-2.031.871-3.543,1.421a89.4,89.4,0,0,1-12.1,3.513,91.069,91.069,0,0,1-12.479,1.772c-1.6.107-2.917.153-3.818.153a5.513,5.513,0,0,1-1.405-.076,47.741,47.741,0,0,1,5.178-.642,123.547,123.547,0,0,0,12.356-1.986c4.72-1.023,9.027-2.276,12.081-3.253A47.962,47.962,0,0,1,347.639,408.81Z" transform="translate(-96.404 -92.088)" fill="#455a64"/>
      <path id="Path_1097" data-name="Path 1097" d="M337.6,364.91c.137.183-26.271,20.94-58.987,46.355s-59.353,45.912-59.475,45.729,26.271-20.925,58.987-46.355S337.48,364.742,337.6,364.91Z" transform="translate(-145.934 -115.239)" fill="#455a64"/>
      <path id="Path_1098" data-name="Path 1098" d="M319.661,436.821c-5.911-3.146-12.555-1.283-18.221.626-3.773,1.268-7.637,3.284-11.516,2.2-2.764-.779-4.826-3.055-6.949-4.964a43.591,43.591,0,0,0-31.891-11.44,13.1,13.1,0,0,0-8.767,3.956c-5.819,6.308-1.436,14.495,3.773,19.856a57.383,57.383,0,0,0,34.686,16.8c10.829,1.13,25.721-.367,36.657-5.071,6.766-2.9,10.233-10.89,6.69-17.336A11.134,11.134,0,0,0,319.661,436.821Z" transform="translate(-135.171 -84.511)" fill="#35a3be"/>
      <g id="Group_1970" data-name="Group 1970" transform="translate(104.685 343.707)" opacity="0.4">
        <path id="Path_1099" data-name="Path 1099" d="M319.555,440.121c-5.926-3.146-12.57-1.283-18.237.626-3.773,1.268-7.637,3.284-11.516,2.2-2.765-.779-4.826-3.055-6.949-4.964a43.591,43.591,0,0,0-31.891-11.44,13.1,13.1,0,0,0-8.767,3.956,10.264,10.264,0,0,0-2.444,4.429,23.079,23.079,0,0,0,6.216,10.325,57.384,57.384,0,0,0,34.686,16.8c10.829,1.13,25.721-.367,36.657-5.071a13.4,13.4,0,0,0,7.8-9.3,11.3,11.3,0,0,0-5.605-7.5Z" transform="translate(-239.75 -426.477)"/>
      </g>
      <path id="Path_1100" data-name="Path 1100" d="M325.3,447.707a10.081,10.081,0,0,0-1.451-3.513,11.55,11.55,0,0,0-3.162-3.055,12.769,12.769,0,0,0-5.453-2.077c-4.384-.519-9.485,1.329-15.136,2.856-2.8.748-5.85,1.879-9.164,1.527A12.218,12.218,0,0,1,286.2,441.8a29.127,29.127,0,0,1-4.063-3.055,42.444,42.444,0,0,0-16.19-9.622,41.4,41.4,0,0,0-8.049-1.863,25.172,25.172,0,0,0-7.179,0,15.93,15.93,0,0,0-5.529,1.924,14.555,14.555,0,0,0-3.437,2.764c-1.527,1.909-2.092,3.208-2.184,3.146a12.493,12.493,0,0,1,1.955-3.345,13.745,13.745,0,0,1,3.391-3.055,15.7,15.7,0,0,1,5.7-2.108,24.944,24.944,0,0,1,7.331,0,42.562,42.562,0,0,1,8.2,1.818,48.582,48.582,0,0,1,8.492,3.757,34.782,34.782,0,0,1,4.139,2.688c1.329,1.039,2.566,2.169,3.849,3.268a29.007,29.007,0,0,0,3.956,3.055A11.561,11.561,0,0,0,291,442.7c3.055.412,6.109-.657,8.9-1.39,5.636-1.527,10.814-3.314,15.411-2.719a12.723,12.723,0,0,1,8.8,5.575,8.263,8.263,0,0,1,1.1,2.673,4.166,4.166,0,0,1,.092.871Z" transform="translate(-135.16 -82.857)" fill="#263238"/>
      <path id="Path_1101" data-name="Path 1101" d="M325.3,447.707a10.081,10.081,0,0,0-1.451-3.513,11.55,11.55,0,0,0-3.162-3.055,12.769,12.769,0,0,0-5.453-2.077c-4.384-.519-9.485,1.329-15.136,2.856-2.8.748-5.85,1.879-9.164,1.527A12.218,12.218,0,0,1,286.2,441.8a29.127,29.127,0,0,1-4.063-3.055,42.444,42.444,0,0,0-16.19-9.622,41.4,41.4,0,0,0-8.049-1.863,25.172,25.172,0,0,0-7.179,0,15.93,15.93,0,0,0-5.529,1.924,14.555,14.555,0,0,0-3.437,2.764c-1.527,1.909-2.092,3.208-2.184,3.146a12.493,12.493,0,0,1,1.955-3.345,13.745,13.745,0,0,1,3.391-3.055,15.7,15.7,0,0,1,5.7-2.108,24.944,24.944,0,0,1,7.331,0,42.562,42.562,0,0,1,8.2,1.818,48.582,48.582,0,0,1,8.492,3.757,34.782,34.782,0,0,1,4.139,2.688c1.329,1.039,2.566,2.169,3.849,3.268a29.007,29.007,0,0,0,3.956,3.055A11.561,11.561,0,0,0,291,442.7c3.055.412,6.109-.657,8.9-1.39,5.636-1.527,10.814-3.314,15.411-2.719a12.723,12.723,0,0,1,8.8,5.575,8.263,8.263,0,0,1,1.1,2.673,4.166,4.166,0,0,1,.092.871Z" transform="translate(-135.16 -82.857)" fill="#263238"/>
      <path id="Path_1102" data-name="Path 1102" d="M247.63,443.056a15.674,15.674,0,0,1,3.055-2.092,83.358,83.358,0,0,1,7.835-4.185,86.626,86.626,0,0,1,8.233-3.375,16.094,16.094,0,0,1,3.543-.993,19.858,19.858,0,0,1-3.345,1.527c-2.092.871-4.964,2.092-8.1,3.559s-5.9,2.9-7.9,3.956A18.456,18.456,0,0,1,247.63,443.056Z" transform="translate(-130.909 -79.642)" fill="#263238"/>
      <path id="Path_1103" data-name="Path 1103" d="M249,447.178a107.4,107.4,0,0,1,11.562-6.033,108.6,108.6,0,0,1,11.913-5.315,107.428,107.428,0,0,1-11.562,6.033A105.782,105.782,0,0,1,249,447.178Z" transform="translate(-130.187 -77.838)" fill="#263238"/>
      <path id="Path_1104" data-name="Path 1104" d="M274.609,450.981c-.122.183-6.43-3.574-14.082-8.4s-13.746-8.9-13.746-9.088,6.415,3.574,14.082,8.416S274.761,450.8,274.609,450.981Z" transform="translate(-131.357 -79.075)" fill="#263238"/>
      <path id="Path_1105" data-name="Path 1105" d="M274.517,445.9a20.144,20.144,0,0,1-3.055-2.062c-1.848-1.344-4.414-3.192-7.285-5.178s-5.483-3.742-7.392-5.01a18.7,18.7,0,0,1-3.055-2.169,17.331,17.331,0,0,1,3.314,1.7c1.986,1.146,4.689,2.841,7.637,4.826s5.407,3.925,7.179,5.392a14.726,14.726,0,0,1,2.658,2.5Z" transform="translate(-127.692 -80.132)" fill="#263238"/>
    </g>
  </g>
</svg>
