<svg width="164" height="164" viewBox="0 0 164 164" fill="none" xmlns="http://www.w3.org/2000/svg">
<g clip-path="url(#clip0_1673_42079)">
<path d="M4.88275 117.175C20.5871 153.361 68.5493 161.643 100.834 153.502C107.173 151.904 152.196 139.731 162.037 97.037C168.946 67.066 155.232 36.3048 132.028 20.0391C99.5508 -2.72666 57.2384 9.04088 32.9179 29.5159C10.9089 48.0446 -9.26881 84.567 4.88275 117.175Z" fill="#C2E5FF"/>
<mask id="mask0_1673_42079" style="mask-type:luminance" maskUnits="userSpaceOnUse" x="0" y="7" width="164" height="150">
<path d="M4.72185 117.248C20.4589 153.509 68.5211 161.809 100.873 153.651C107.225 152.049 152.342 139.851 162.204 97.0682C169.127 67.0347 155.385 36.2094 132.132 19.9097C99.5874 -2.90349 57.1868 8.88852 32.8155 29.4062C10.7607 47.9737 -9.45909 84.5721 4.72185 117.248Z" fill="white"/>
</mask>
<g mask="url(#mask0_1673_42079)">
<path d="M70.4064 42.5228C70.2309 42.5228 70.0576 42.5314 69.8834 42.536C67.8704 34.0225 60.2268 27.6855 51.0983 27.6855C44.7791 27.6855 39.1696 30.7217 35.6471 35.4143C32.7888 34.2587 29.6654 33.6208 26.3928 33.6208C12.7482 33.6208 1.68726 44.6818 1.68726 58.3264C1.68726 71.9709 12.7482 83.0319 26.3928 83.0319C29.888 83.0319 33.213 82.3044 36.2266 80.9953C39.3049 84.3466 43.7222 86.4484 48.6314 86.4484C54.2896 86.4484 59.2923 83.6552 62.3461 79.3755C64.7998 80.5048 67.5283 81.1392 70.4064 81.1392C81.07 81.1392 89.7145 72.4946 89.7145 61.831C89.7145 51.1675 81.07 42.5228 70.4064 42.5228ZM111.051 72.1222C111.189 72.1222 111.326 72.1153 111.464 72.1116C113.055 78.8397 119.095 83.8479 126.309 83.8479C131.303 83.8479 135.737 81.4484 138.52 77.7399C140.779 78.6532 143.248 79.1572 145.834 79.1572C156.617 79.1572 165.359 70.4157 165.359 59.6327C165.359 48.8496 156.617 40.1083 145.834 40.1083C143.072 40.1083 140.444 40.6831 138.063 41.7178C135.63 39.0693 132.139 37.4083 128.259 37.4083C123.788 37.4083 119.834 39.6157 117.421 42.998C115.423 42.0779 113.25 41.6024 111.051 41.6042C102.623 41.6042 95.7917 48.4359 95.7917 56.8632C95.7917 65.2905 102.623 72.1222 111.051 72.1222Z" fill="white"/>
</g>
<mask id="mask1_1673_42079" style="mask-type:luminance" maskUnits="userSpaceOnUse" x="0" y="7" width="164" height="150">
<path d="M4.72185 117.248C20.4589 153.509 68.5211 161.809 100.873 153.651C107.225 152.049 152.342 139.851 162.204 97.0682C169.127 67.0347 155.385 36.2094 132.132 19.9097C99.5874 -2.90349 57.1868 8.88852 32.8155 29.4062C10.7607 47.9737 -9.45909 84.5721 4.72185 117.248Z" fill="white"/>
</mask>
<g mask="url(#mask1_1673_42079)">
<path d="M7.0105 148.507C7.0105 148.507 38.3006 68.7631 54.3803 64.466C68.7154 60.6353 107.24 117.325 107.24 117.325C107.24 117.325 123.625 92.5431 134.946 82.3349C137.666 79.882 141.913 80.3397 144.061 83.3069C151.147 93.0962 167.332 117.026 180.801 148.507H7.0105Z" fill="#FFBE55"/>
</g>
<mask id="mask2_1673_42079" style="mask-type:luminance" maskUnits="userSpaceOnUse" x="0" y="7" width="164" height="150">
<path d="M4.72185 117.248C20.4589 153.509 68.5211 161.809 100.873 153.651C107.225 152.049 152.342 139.851 162.204 97.0682C169.127 67.0347 155.385 36.2094 132.132 19.9097C99.5874 -2.90349 57.1868 8.88852 32.8155 29.4062C10.7607 47.9737 -9.45909 84.5721 4.72185 117.248Z" fill="white"/>
</mask>
<g mask="url(#mask2_1673_42079)">
<path opacity="0.25" d="M7.0105 148.507C7.0105 148.507 38.3006 68.7631 54.3803 64.466C68.7154 60.6353 107.24 117.325 107.24 117.325C107.24 117.325 123.625 92.5431 134.946 82.3349C137.666 79.882 141.913 80.3397 144.061 83.3069C151.147 93.0962 167.332 117.026 180.801 148.507H7.0105Z" fill="#282828"/>
</g>
<mask id="mask3_1673_42079" style="mask-type:luminance" maskUnits="userSpaceOnUse" x="0" y="7" width="164" height="150">
<path d="M4.72185 117.248C20.4589 153.509 68.5211 161.809 100.873 153.651C107.225 152.049 152.342 139.851 162.204 97.0682C169.127 67.0347 155.385 36.2094 132.132 19.9097C99.5874 -2.90349 57.1868 8.88852 32.8155 29.4062C10.7607 47.9737 -9.45909 84.5721 4.72185 117.248Z" fill="white"/>
</mask>
<g mask="url(#mask3_1673_42079)">
<path d="M42.369 120.029L30.6392 158.02H44.686L42.369 120.029Z" fill="#FFBE55"/>
</g>
<mask id="mask4_1673_42079" style="mask-type:luminance" maskUnits="userSpaceOnUse" x="0" y="7" width="164" height="150">
<path d="M4.72185 117.248C20.4589 153.509 68.5211 161.809 100.873 153.651C107.225 152.049 152.342 139.851 162.204 97.0682C169.127 67.0347 155.385 36.2094 132.132 19.9097C99.5874 -2.90349 57.1868 8.88852 32.8155 29.4062C10.7607 47.9737 -9.45909 84.5721 4.72185 117.248Z" fill="white"/>
</mask>
<g mask="url(#mask4_1673_42079)">
<path d="M173.195 158.02C165.784 152.23 158.295 146.542 150.73 140.955C130.176 125.779 101.371 105.687 79.0362 104.034C75.9489 103.805 73.3969 103.959 72.8417 103.995C67.1726 104.361 53.7195 105.229 45.4776 115.27C32.0424 131.637 44.1702 156.933 44.6863 158.02L173.195 158.02Z" fill="#FFBE55"/>
</g>
<mask id="mask5_1673_42079" style="mask-type:luminance" maskUnits="userSpaceOnUse" x="0" y="7" width="164" height="150">
<path d="M4.72185 117.248C20.4589 153.509 68.5211 161.809 100.873 153.651C107.225 152.049 152.342 139.851 162.204 97.0682C169.127 67.0347 155.385 36.2094 132.132 19.9097C99.5874 -2.90349 57.1868 8.88852 32.8155 29.4062C10.7607 47.9737 -9.45909 84.5721 4.72185 117.248Z" fill="white"/>
</mask>
<g mask="url(#mask5_1673_42079)">
<path opacity="0.5" d="M173.195 158.02C165.784 152.23 158.295 146.542 150.73 140.955C130.176 125.779 101.371 105.687 79.0362 104.034C75.9489 103.805 73.3969 103.959 72.8417 103.995C67.1726 104.361 53.7195 105.229 45.4776 115.27C32.0424 131.637 44.1702 156.933 44.6863 158.02L173.195 158.02Z" fill="white"/>
</g>
<mask id="mask6_1673_42079" style="mask-type:luminance" maskUnits="userSpaceOnUse" x="0" y="7" width="164" height="150">
<path d="M4.72185 117.248C20.4589 153.509 68.5211 161.809 100.873 153.651C107.225 152.049 152.342 139.851 162.204 97.0682C169.127 67.0347 155.385 36.2094 132.132 19.9097C99.5874 -2.90349 57.1868 8.88852 32.8155 29.4062C10.7607 47.9737 -9.45909 84.5721 4.72185 117.248Z" fill="white"/>
</mask>
<g mask="url(#mask6_1673_42079)">
<path opacity="0.5" d="M59.1592 128.462L87.3926 158.02H103.775L66.8545 128.462H59.1592ZM80.4805 128.462L119.156 158.02H135.538L88.1758 128.462H80.4805ZM87.3926 112.011L137.012 148.507C137.012 148.507 150.221 145.342 160.829 148.507L89.4753 112.011H87.3926Z" fill="#0B4870"/>
</g>
<mask id="mask7_1673_42079" style="mask-type:luminance" maskUnits="userSpaceOnUse" x="0" y="7" width="164" height="150">
<path d="M4.72185 117.248C20.4589 153.509 68.5211 161.809 100.873 153.651C107.225 152.049 152.342 139.851 162.204 97.0682C169.127 67.0347 155.385 36.2094 132.132 19.9097C99.5874 -2.90349 57.1868 8.88852 32.8155 29.4062C10.7607 47.9737 -9.45909 84.5721 4.72185 117.248Z" fill="white"/>
</mask>
<g mask="url(#mask7_1673_42079)">
<path d="M87.3926 112.01V38.8037H89.4752V112.01C89.4565 112.038 89.0434 112.616 88.3431 112.566C87.7532 112.524 87.4323 112.069 87.3926 112.01Z" fill="#0B4870"/>
</g>
<mask id="mask8_1673_42079" style="mask-type:luminance" maskUnits="userSpaceOnUse" x="0" y="7" width="164" height="150">
<path d="M4.72185 117.248C20.4589 153.509 68.5211 161.809 100.873 153.651C107.225 152.049 152.342 139.851 162.204 97.0682C169.127 67.0347 155.385 36.2094 132.132 19.9097C99.5874 -2.90349 57.1868 8.88852 32.8155 29.4062C10.7607 47.9737 -9.45909 84.5721 4.72185 117.248Z" fill="white"/>
</mask>
<g mask="url(#mask8_1673_42079)">
<path d="M75.4974 66.2567C75.8903 65.705 76.2431 65.1256 76.5528 64.5232C77.2899 63.09 78.4256 60.8819 77.5352 59.5304C77.3965 59.3199 77.1318 59.0134 76.5963 58.7705C76.5395 58.9478 76.4823 59.1249 76.4247 59.3019C75.3181 62.6978 74.8947 63.4431 75.0152 64.6371C75.0546 65.0261 75.1645 65.5902 75.4974 66.2567Z" fill="#0B4870"/>
<path d="M75.3029 64.749C74.5885 67.3087 71.1421 67.4359 71.1421 67.4359L75.3029 64.749ZM71.532 68.6172C71.532 68.6172 67.2957 70.0633 66.4219 70.6194C66.4219 70.6194 72.198 76.7091 80.6429 70.4059C79.9707 69.9905 79.8507 69.9742 78.9394 69.5758C77.7636 69.0617 76.1033 68.3685 75.1696 68.1457L71.532 68.6172Z" fill="#EFB68F"/>
<path d="M71.3489 67.42L71.6176 69.1764L75.3029 69.0312L75.885 64.4658H75.0017L71.3489 67.42Z" fill="#EFB68F"/>
<path d="M76.8145 63.4023C76.6683 63.8564 76.3351 64.2376 75.885 64.4659C74.6077 65.1004 74.3109 63.4783 74.8625 62.7401C75.5188 61.8605 77.204 62.1827 76.8145 63.4023Z" fill="#EFB68F"/>
<path d="M70.8228 68.9432C70.8228 68.9432 73.0703 71.7346 76.4283 68.5479C76.9835 68.5934 77.5809 68.9036 78.3139 69.1097C79.1272 69.3386 79.9094 69.6662 80.643 70.0852L80.1993 90.3165H67.6507L66.3018 70.6889C66.8108 70.4054 67.4075 69.9282 68.0899 69.6688C68.9733 69.333 69.8892 69.0899 70.8228 68.9432Z" fill="#FFBE55"/>
<path d="M80.9881 96.7555C80.0717 98.11 79.1411 98.5358 78.5578 98.6938C78.3778 98.7426 77.8031 98.7568 76.6549 98.8067C75.7702 98.8451 74.8495 98.8652 73.8808 98.863C73.331 98.8618 72.7811 98.8533 72.2315 98.8377C70.5249 98.7892 69.6715 98.7743 69.3398 98.689C68.7285 98.5318 67.6545 98.0602 66.6213 96.3245L67.6176 90.3164H80.191L80.9881 96.7555Z" fill="#0B4870"/>
<path d="M83.9355 126.204L82.9396 120.028L80.4807 120.363L81.4711 126.532L83.9355 126.204Z" fill="#FFBE55"/>
<path d="M81.0799 126.017L80.6428 127.953H88.3381V127.897C88.3381 127.678 88.2762 127.464 88.1595 127.279C88.0428 127.094 87.8762 126.946 87.6788 126.852L84.1075 125.427C83.979 125.366 83.8139 125.369 83.7161 125.472C83.2545 125.959 82.7476 126.753 81.3387 125.892C81.2365 125.83 81.1027 125.899 81.0799 126.017Z" fill="#0B4870"/>
<path d="M80.6428 127.953H88.3381V128.461H80.6428V127.953Z" fill="#FFBE55"/>
<path d="M77.266 108.798L82.2723 108.137L80.8945 95.9249C80.7018 94.217 79.1449 92.9999 77.4409 93.2251C76.6585 93.4895 75.9426 93.9201 75.3425 94.4875C74.4499 95.3328 74.0516 96.2594 73.8809 96.746C75.009 100.763 76.1375 104.781 77.266 108.798Z" fill="#0B4870"/>
<path d="M79.9512 123.786L84.1636 123.23L81.8209 103.94C81.638 102.442 80.2678 101.381 78.7713 101.578C77.2532 101.779 76.2017 103.195 76.4485 104.706L79.9512 123.786Z" fill="#0B4870"/>
<path d="M63.7327 126.204L64.7284 120.028L67.1873 120.363L66.1969 126.532L63.7327 126.204Z" fill="#FFBE55"/>
<path d="M70.2912 108.798L65.3958 108.137L66.6628 95.9249C66.8555 94.217 68.4124 92.9999 70.1164 93.2251C70.2113 93.2377 70.5462 93.2869 70.9521 93.466C70.9521 93.466 71.7249 93.8115 72.2147 94.4875C72.7566 95.2353 72.7767 96.1519 72.7226 96.8831C72.5904 98.6647 71.7432 103.05 70.2912 108.798Z" fill="#0B4870"/>
<path d="M67.7169 123.786L63.5044 123.23L65.8471 103.94C66.03 102.442 67.4002 101.381 68.8967 101.578C70.4148 101.779 71.4663 103.195 71.2195 104.706L67.7169 123.786Z" fill="#0B4870"/>
<path d="M79.4166 89.1893C79.7625 89.0743 79.9582 89.1505 79.9582 89.1505C80.1552 88.8739 80.5194 88.8388 80.7558 89.0736L80.9232 89.2398C81.1419 89.4569 81.1707 89.8272 80.9888 90.0833L80.9785 90.098C80.9785 90.098 80.6561 90.9657 79.9261 91.7483C78.9831 92.7593 78.1223 92.7395 77.8638 92.389C77.6197 92.0577 78.6763 90.8031 79.0633 90.3321L78.4653 90.5247C78.3894 90.5492 78.3081 90.5157 78.2645 90.442C78.2177 90.3627 78.2265 90.2578 78.2857 90.1897L78.755 89.6502C78.9387 89.439 79.1638 89.2735 79.4166 89.1893Z" fill="#EFB68F"/>
<path d="M80.2268 88.9456L85.1173 80.7004C85.5451 79.9901 86.435 79.8647 87.0071 80.434C87.5238 80.9483 87.5748 81.8313 87.1214 82.4156L81.1031 89.7786L80.2268 88.9456Z" fill="#EFB68F"/>
<path d="M81.6828 71.4347C82.9025 73.0802 84.5599 74.8063 86.9853 79.3398C87.2422 79.82 87.7142 80.7297 87.4724 81.6324C87.3602 82.0512 87.1284 82.3414 86.9498 82.5207C86.7009 82.4843 86.3094 82.391 85.8845 82.125C85.3424 81.7858 85.0185 81.3362 84.8604 81.0821L78.2657 73.129C77.659 72.3398 77.7473 71.1508 78.4585 70.5312C79.1206 69.9546 81.1298 70.6888 81.6828 71.4347Z" fill="#EFB68F"/>
<path d="M76.8252 68.8076C77.6428 68.9085 78.6312 69.1273 79.6803 69.5903C82.8753 71 84.4318 73.7011 84.982 74.7925L82.0812 78.4686C81.425 77.9022 80.8027 77.2976 80.2175 76.658C79.0121 75.3411 77.9656 74.198 77.3382 72.4937C77.0656 71.7529 76.722 70.4986 76.8252 68.8076Z" fill="#FFBE55"/>
<path d="M68.2978 89.1893C67.9538 89.0743 67.7594 89.1505 67.7594 89.1505C67.5637 88.8739 67.2015 88.8388 66.9664 89.0736L66.8 89.2398C66.5825 89.4569 66.554 89.8272 66.7348 90.0833L66.7452 90.098C66.7452 90.098 67.0656 90.9657 67.7913 91.7483C68.7289 92.7593 69.5848 92.7395 69.8416 92.389C70.0843 92.0577 69.0339 90.8031 68.6491 90.3321L69.2437 90.5247C69.3191 90.5492 69.4001 90.5157 69.4434 90.442C69.49 90.3627 69.4812 90.2578 69.4223 90.1897L68.9556 89.6502C68.7729 89.439 68.5492 89.2735 68.2978 89.1893Z" fill="#EFB68F"/>
<path d="M67.4923 88.9456L62.6301 80.7004C62.205 79.9901 61.32 79.8647 60.7512 80.434C60.2375 80.9483 60.1868 81.8313 60.6375 82.4156L66.6209 89.7786L67.4923 88.9456Z" fill="#EFB68F"/>
<path d="M66.0447 71.4347C64.832 73.0802 63.1842 74.8063 60.7727 79.3398C60.5173 79.82 60.0481 80.7297 60.2884 81.6324C60.3999 82.0512 60.6303 82.3414 60.808 82.5207C61.0555 82.4843 61.4447 82.391 61.8672 82.125C62.406 81.7858 62.728 81.3362 62.8853 81.0821L69.4418 73.129C70.0449 72.3398 69.9572 71.1508 69.25 70.5312C68.5921 69.9546 66.5945 70.6888 66.0447 71.4347Z" fill="#EFB68F"/>
<path d="M70.8802 68.8076C70.0673 68.9067 69.0774 69.1241 68.0251 69.5903C64.9118 70.9693 63.3832 73.5807 62.8367 74.6485L65.7868 78.8414C66.3693 78.3056 66.9205 77.7367 67.4376 77.1375C68.4939 75.9135 69.6882 74.5294 70.367 72.4939C70.6259 71.7177 70.9389 70.4594 70.8802 68.8076Z" fill="#FFBE55"/>
<path d="M66.4177 126.017L66.8547 127.953H59.1594V127.897C59.1594 127.678 59.2214 127.464 59.338 127.279C59.4547 127.094 59.6214 126.946 59.8187 126.852L63.3901 125.427C63.5185 125.366 63.6836 125.369 63.7815 125.472C64.243 125.959 64.7499 126.753 66.1588 125.892C66.261 125.83 66.3948 125.899 66.4177 126.017Z" fill="#0B4870"/>
<path d="M66.8545 128.462H59.1592V127.954H66.8545V128.462Z" fill="#FFBE55"/>
<path d="M71.3489 67.42C71.4905 67.6253 71.6975 67.8414 71.9883 67.9193C72.9017 68.1643 73.9436 66.8605 74.3625 66.3365C74.7477 65.8533 75.0642 65.319 75.3031 64.749C75.1034 65.0718 74.841 65.4265 71.3489 67.42Z" fill="#E0A882"/>
<path d="M75.8388 58.768C74.4603 57.0807 71.392 56.7772 69.8688 58.1072C69.1777 58.7107 68.991 59.488 68.7155 60.6347C68.6313 60.9853 68.0391 63.6116 69.3484 66.0307C69.8551 66.9669 70.2954 67.2232 70.6026 67.3303C71.222 67.5464 71.8126 67.3272 72.3579 67.138C73.4629 66.7545 74.139 66.0563 74.3865 65.7949C75.569 64.5453 77.6521 60.9873 75.8388 58.768Z" fill="#EFB68F"/>
<path d="M73.9846 59.7568C73.9846 59.7568 76.0197 60.5476 75.0904 63.1483L75.7829 63.2422C75.7829 63.2422 75.9314 62.2126 76.8358 62.3673C76.8358 62.3673 77.5679 58.7505 75.7229 57.8711L73.9846 59.7568Z" fill="#0B4870"/>
<path d="M73.9846 59.7566C73.9846 59.7566 71.6022 58.1463 69.6342 59.1203C69.4194 59.0685 68.9256 58.9163 68.5608 58.4614C68.0753 57.856 68.0175 56.9625 68.4024 56.1709C68.4024 56.1709 68.7702 56.3164 69.2496 56.4293C69.9264 56.5887 70.4604 56.516 70.766 56.4915C71.4285 56.4385 72.664 56.3397 73.5356 56.5253C74.1098 56.6475 74.8873 56.97 75.7228 57.8709C76.2328 58.3483 76.2725 59.1457 75.832 59.6567C75.3713 60.1915 74.5269 60.2478 73.9846 59.7566Z" fill="#0B4870"/>
<path d="M69.6343 59.1203C69.6343 59.1203 68.9758 59.9796 68.5908 61.8074C68.5908 61.8074 68.7637 58.9537 69.4134 58.8095C70.0631 58.6653 69.6343 59.1203 69.6343 59.1203Z" fill="#0B4870"/>
</g>
<mask id="mask9_1673_42079" style="mask-type:luminance" maskUnits="userSpaceOnUse" x="0" y="7" width="164" height="150">
<path d="M4.72185 117.248C20.4589 153.509 68.5211 161.809 100.873 153.651C107.225 152.049 152.342 139.851 162.204 97.0682C169.127 67.0347 155.385 36.2094 132.132 19.9097C99.5874 -2.90349 57.1868 8.88852 32.8155 29.4062C10.7607 47.9737 -9.45909 84.5721 4.72185 117.248Z" fill="white"/>
</mask>
<g mask="url(#mask9_1673_42079)">
<path d="M123.867 56.1318C121.417 55.679 117.67 55.2246 113.183 55.6969C106.728 56.3763 104.178 58.4009 98.6789 58.6045C95.9005 58.7074 91.8528 58.3645 86.843 56.1318V35.2203C90.193 37.0203 94.542 38.5837 99.4717 38.1648C103.705 37.8051 105.6 36.2191 110.512 35.2203C113.835 34.5448 118.3 34.1862 123.867 35.2203L123.867 56.1318Z" fill="#FFBE55"/>
</g>
<mask id="mask10_1673_42079" style="mask-type:luminance" maskUnits="userSpaceOnUse" x="0" y="7" width="164" height="150">
<path d="M4.72185 117.248C20.4589 153.509 68.5211 161.809 100.873 153.651C107.225 152.049 152.342 139.851 162.204 97.0682C169.127 67.0347 155.385 36.2094 132.132 19.9097C99.5874 -2.90349 57.1868 8.88852 32.8155 29.4062C10.7607 47.9737 -9.45909 84.5721 4.72185 117.248Z" fill="white"/>
</mask>
<g mask="url(#mask10_1673_42079)">
<path d="M105.633 40.5449L107.599 44.5293L111.996 45.1682L108.815 48.2696L109.566 52.6488L105.633 50.5812L101.7 52.6488L102.451 48.2696L99.2695 45.1682L103.667 44.5293L105.633 40.5449Z" fill="white"/>
</g>
</g>
<defs>
<clipPath id="clip0_1673_42079">
<rect width="164" height="164" fill="white"/>
</clipPath>
</defs>
</svg>
