<svg width="62" height="62" viewBox="0 0 62 62" fill="none" xmlns="http://www.w3.org/2000/svg">
<circle cx="31" cy="31" r="31" fill="#0C75EB" fill-opacity="0.1"/>
<path d="M26.9766 29.3979C26.835 29.3837 26.665 29.3837 26.5091 29.3979C23.1375 29.2845 20.46 26.522 20.46 23.122C20.46 19.6512 23.265 16.832 26.75 16.832C30.2208 16.832 33.04 19.6512 33.04 23.122C33.0258 26.522 30.3483 29.2845 26.9766 29.3979Z" fill="#0C75EB" stroke="#0C75EB" stroke-width="1.5" stroke-linecap="round" stroke-linejoin="round"/>
<g opacity="0.4">
<path d="M37.2476 19.668C39.996 19.668 42.206 21.8921 42.206 24.6263C42.206 27.3038 40.081 29.4855 37.4318 29.5846C37.3185 29.5705 37.191 29.5705 37.0635 29.5846" fill="#0C75EB"/>
<path d="M37.2476 19.668C39.996 19.668 42.206 21.8921 42.206 24.6263C42.206 27.3038 40.081 29.4855 37.4318 29.5846C37.3185 29.5705 37.191 29.5705 37.0635 29.5846" stroke="#0C75EB" stroke-width="1.5" stroke-linecap="round" stroke-linejoin="round"/>
</g>
<path d="M19.8935 34.628C16.4652 36.923 16.4652 40.663 19.8935 42.9438C23.7893 45.5505 30.1785 45.5505 34.0743 42.9438C37.5027 40.6488 37.5027 36.9088 34.0743 34.628C30.1927 32.0355 23.8035 32.0355 19.8935 34.628Z" fill="#0C75EB" stroke="#0C75EB" stroke-width="1.5" stroke-linecap="round" stroke-linejoin="round"/>
<g opacity="0.4">
<path d="M39.9814 42.332C41.0014 42.1195 41.9648 41.7087 42.7581 41.0995C44.9681 39.442 44.9681 36.7079 42.7581 35.0504C41.9789 34.4554 41.0298 34.0587 40.0239 33.832" fill="#0C75EB"/>
<path d="M39.9814 42.332C41.0014 42.1195 41.9648 41.7087 42.7581 41.0995C44.9681 39.442 44.9681 36.7079 42.7581 35.0504C41.9789 34.4554 41.0298 34.0587 40.0239 33.832" stroke="#0C75EB" stroke-width="1.5" stroke-linecap="round" stroke-linejoin="round"/>
</g>
</svg>
