<svg width="16" height="14" viewBox="0 0 16 14" fill="none" xmlns="http://www.w3.org/2000/svg">
<path d="M10.9173 12.25V11.0833C10.9173 10.4645 10.6715 9.871 10.2339 9.43342C9.79632 8.99583 9.20282 8.75 8.58398 8.75H3.91732C3.29848 8.75 2.70499 8.99583 2.2674 9.43342C1.82982 9.871 1.58398 10.4645 1.58398 11.0833V12.25" stroke="#171717" stroke-linecap="round" stroke-linejoin="round"/>
<path d="M6.24935 6.41667C7.53801 6.41667 8.58268 5.372 8.58268 4.08333C8.58268 2.79467 7.53801 1.75 6.24935 1.75C4.96068 1.75 3.91602 2.79467 3.91602 4.08333C3.91602 5.372 4.96068 6.41667 6.24935 6.41667Z" stroke="#171717" stroke-linecap="round" stroke-linejoin="round"/>
<path d="M14.416 12.2484V11.0817C14.4156 10.5647 14.2436 10.0625 13.9268 9.6539C13.6101 9.2453 13.1666 8.95347 12.666 8.82422" stroke="#171717" stroke-linecap="round" stroke-linejoin="round"/>
<path d="M10.334 1.82422C10.8359 1.95273 11.2808 2.24463 11.5984 2.6539C11.9161 3.06317 12.0886 3.56654 12.0886 4.08464C12.0886 4.60273 11.9161 5.1061 11.5984 5.51537C11.2808 5.92464 10.8359 6.21654 10.334 6.34505" stroke="#171717" stroke-linecap="round" stroke-linejoin="round"/>
</svg>
