<svg width="24" height="24" viewBox="0 0 24 24" fill="none" xmlns="http://www.w3.org/2000/svg">
<g clip-path="url(#clip0_8684_8207)">
<path d="M22.125 15.5625V5.625C22.125 4.59113 21.2839 3.75 20.25 3.75H19.0312V4.6875C19.0312 5.20528 18.6115 5.625 18.0938 5.625C17.576 5.625 17.1562 5.20528 17.1562 4.6875V3.75H12.8906V4.6875C12.8906 5.20528 12.4709 5.625 11.9531 5.625C11.4353 5.625 11.0156 5.20528 11.0156 4.6875V3.75H6.79688V4.6875C6.79688 5.20528 6.37716 5.625 5.85938 5.625C5.34159 5.625 4.92188 5.20528 4.92188 4.6875V3.75H3.75C2.71613 3.75 1.875 4.59113 1.875 5.625V20.25C1.875 21.2839 2.71613 22.125 3.75 22.125H20.25C21.2839 22.125 22.125 21.2839 22.125 20.25C22.125 19.7322 22.5447 19.3125 23.0625 19.3125C23.5803 19.3125 24 19.7322 24 20.25C24 22.3177 22.3177 24 20.25 24H3.75C1.68225 24 0 22.3177 0 20.25V5.625C0 3.55725 1.68225 1.875 3.75 1.875H4.92188V0.9375C4.92188 0.419719 5.34159 0 5.85938 0C6.37716 0 6.79688 0.419719 6.79688 0.9375V1.875H11.0156V0.9375C11.0156 0.419719 11.4353 0 11.9531 0C12.4709 0 12.8906 0.419719 12.8906 0.9375V1.875H17.1562V0.9375C17.1562 0.419719 17.576 0 18.0938 0C18.6115 0 19.0312 0.419719 19.0312 0.9375V1.875H20.25C22.3177 1.875 24 3.55725 24 5.625V15.5625C24 16.0803 23.5803 16.5 23.0625 16.5C22.5447 16.5 22.125 16.0803 22.125 15.5625ZM10.7005 18.5156H10.7007C10.89 18.5156 11.0691 18.4293 11.187 18.2812L13.9495 14.8125H15.375C15.9041 14.8125 16.4531 14.4036 16.4531 13.8745C16.4531 13.3454 15.9041 12.9375 15.375 12.9375H13.9645L11.1869 9.46809C11.069 9.32081 10.8906 9.23508 10.7019 9.23498C10.2437 9.2347 9.94266 9.71348 10.1415 10.1264L11.4953 12.9375H9.21586L8.3888 12.0306C8.31783 11.9528 8.21756 11.9082 8.11223 11.9078C7.90378 11.907 7.73433 12.0757 7.73433 12.2842V15.4205C7.73433 15.6284 7.90284 15.7969 8.11069 15.7969H8.15512C8.25891 15.7969 8.35809 15.754 8.4292 15.6785L9.24417 14.8125H11.4921L10.1403 17.6246C9.94186 18.0374 10.2427 18.5156 10.7005 18.5156Z" fill="black"/>
</g>
<defs>
<clipPath id="clip0_8684_8207">
<rect width="24" height="24" fill="white"/>
</clipPath>
</defs>
</svg>
