<svg width="18" height="18" viewBox="0 0 18 18" fill="none" xmlns="http://www.w3.org/2000/svg">
<path d="M15.75 0H2.25C1.00912 0 0 1.00912 0 2.25V15.75C0 16.9909 1.00912 18 2.25 18H15.75C16.9909 18 18 16.9909 18 15.75V2.25C18 1.00912 16.9909 0 15.75 0ZM11.25 1.5V16.5H6.75V1.5H11.25ZM1.5 15.75V2.25C1.5 1.83637 1.83637 1.5 2.25 1.5H5.25V16.5H2.25C1.83637 16.5 1.5 16.1636 1.5 15.75ZM16.5 15.75C16.5 16.1636 16.1636 16.5 15.75 16.5H12.75V1.5H15.75C16.1636 1.5 16.5 1.83637 16.5 2.25V15.75Z" fill="#344054"/>
</svg>
