<svg width="20" height="20" viewBox="0 0 20 20" fill="none" xmlns="http://www.w3.org/2000/svg">
<path d="M8.78945 1.95103C9.57362 1.13411 10.881 1.13411 11.6652 1.95103C12.153 2.4592 12.8733 2.672 13.5589 2.51017C14.6554 2.25133 15.748 2.95329 15.9685 4.05818L15.9755 4.09351C16.1127 4.78149 16.6075 5.3498 17.2677 5.587C18.3249 5.96681 18.8747 7.14716 18.4697 8.19494L18.4498 8.24648C18.1986 8.8961 18.3035 9.62957 18.7267 10.1827L18.7593 10.2254C19.4403 11.1157 19.2568 12.3918 18.3525 13.0541L18.3195 13.0783C17.756 13.4909 17.4487 14.1675 17.5086 14.8633L17.5124 14.9082C17.6091 16.0315 16.7585 17.0127 15.6329 17.0765C14.929 17.1165 14.2951 17.5296 13.9694 18.1549C13.448 19.1557 12.1938 19.5324 11.2142 18.9721C10.6028 18.6224 9.85187 18.6224 9.2404 18.9721C8.26083 19.5324 7.00661 19.1557 6.48524 18.1549C6.15951 17.5296 5.52565 17.1165 4.82175 17.0765C3.6961 17.0127 2.84554 16.0315 2.94221 14.9082L2.94608 14.8633C3.00596 14.1675 2.69859 13.4909 2.13519 13.0783L2.10213 13.0541C1.19783 12.3918 1.01431 11.1157 1.69532 10.2254L1.72796 10.1827C2.1511 9.62957 2.256 8.8961 2.00488 8.24648L1.98495 8.19494C1.57991 7.14716 2.12978 5.96681 3.18696 5.587C3.84718 5.3498 4.3419 4.78149 4.47914 4.09351L4.48618 4.05818C4.70659 2.95329 5.79921 2.25133 6.89574 2.51017C7.58132 2.672 8.30163 2.4592 8.78945 1.95103Z" fill="white"/>
<path d="M8.51415 11.9904L6.82752 10.2864C6.73671 10.1945 6.61342 10.1428 6.48485 10.1428C6.35627 10.1428 6.23298 10.1945 6.14217 10.2864C5.95261 10.4779 5.95261 10.7873 6.14217 10.9788L8.1739 13.0314C8.36347 13.2229 8.66969 13.2229 8.85925 13.0314L14.0018 7.83602C14.1913 7.64451 14.1913 7.33514 14.0018 7.14363C13.911 7.05168 13.7877 7 13.6591 7C13.5305 7 13.4072 7.05168 13.3164 7.14363L8.51415 11.9904Z" fill="#4ABE43" stroke="#4ABE43" stroke-width="0.38438"/>
</svg>
