<svg width="16" height="17" viewBox="0 0 16 17" fill="none" xmlns="http://www.w3.org/2000/svg">
<path d="M2 4.5H3.33333H14" stroke="#E61A1A" stroke-width="1.3" stroke-linecap="round" stroke-linejoin="round"/>
<path d="M5.33398 4.49967V3.16634C5.33398 2.81272 5.47446 2.47358 5.72451 2.22353C5.97456 1.97348 6.3137 1.83301 6.66732 1.83301H9.33398C9.68761 1.83301 10.0267 1.97348 10.2768 2.22353C10.5268 2.47358 10.6673 2.81272 10.6673 3.16634V4.49967M12.6673 4.49967V13.833C12.6673 14.1866 12.5268 14.5258 12.2768 14.7758C12.0267 15.0259 11.6876 15.1663 11.334 15.1663H4.66732C4.3137 15.1663 3.97456 15.0259 3.72451 14.7758C3.47446 14.5258 3.33398 14.1866 3.33398 13.833V4.49967H12.6673Z" stroke="#E61A1A" stroke-width="1.3" stroke-linecap="round" stroke-linejoin="round"/>
<path d="M9.33398 7.83301V11.833" stroke="#E61A1A" stroke-width="1.3" stroke-linecap="round" stroke-linejoin="round"/>
<path d="M6.66602 7.83301V11.833" stroke="#E61A1A" stroke-width="1.3" stroke-linecap="round" stroke-linejoin="round"/>
</svg>
