<svg width="139" height="129" viewBox="0 0 139 129" fill="none" xmlns="http://www.w3.org/2000/svg">
<path opacity="0.9" d="M92.5329 30.8862C76.6116 38.0428 70.3409 36.549 53.4255 37.3237C39.5963 37.9571 23.9349 43.5945 14.9627 54.7592C-8.67329 84.1709 36.2153 106.64 60.3374 109.797C77.3208 112.019 86.9951 105.576 96.6941 92.3929C100.466 87.2657 103.343 81.2475 107.993 76.7842C112.988 71.9891 119.628 71.3074 124.395 67.2472C147.502 47.5666 113.756 21.3468 92.5329 30.8862Z" fill="#E0E9FF" fill-opacity="0.5"/>
<path d="M25.8111 31.9377L25.5349 23.702L33.7706 23.4258L34.0468 31.6615L25.8111 31.9377ZM26.2718 24.3911L26.5002 31.2007L33.3099 30.9723L33.0814 24.1627L26.2718 24.3911Z" fill="black"/>
<path d="M109.449 34.5557C109.449 35.6343 108.574 36.5089 107.495 36.5089C106.417 36.5089 105.542 35.6344 105.542 34.5557C105.542 33.4771 106.417 32.6025 107.495 32.6025C108.574 32.6025 109.449 33.4771 109.449 34.5557Z" fill="#407BFF"/>
<path d="M44.9805 20.616C44.9805 22.0472 43.8202 23.2076 42.389 23.2076C40.9578 23.2076 39.7976 22.0472 39.7976 20.616C39.7976 19.1848 40.9578 18.0244 42.389 18.0244C43.8202 18.0244 44.9805 19.1848 44.9805 20.616Z" fill="#407BFF"/>
<path d="M86.6086 20.476L86.4652 21.0264L91.936 22.4522L92.0794 21.9018L86.6086 20.476Z" fill="black"/>
<path d="M89.7053 18.6639L88.2787 24.1348L88.8291 24.2783L90.2556 18.8074L89.7053 18.6639Z" fill="black"/>
<path d="M100.807 29.4944C98.3087 29.2631 96.464 27.0419 96.6954 24.543C96.9268 22.0441 99.1478 20.1994 101.647 20.4307C104.145 20.6621 105.99 22.8833 105.759 25.3822C105.527 27.881 103.306 29.7258 100.807 29.4944ZM101.584 21.103C99.4563 20.906 97.5647 22.4771 97.3677 24.6053C97.1707 26.7335 98.7416 28.6252 100.87 28.8222C102.998 29.0192 104.889 27.4481 105.087 25.3199C105.284 23.1917 103.712 21.3 101.584 21.103Z" fill="black"/>
<path d="M106.312 77.4668C106.228 67.5057 98.1306 59.4556 88.1497 59.4556C85.7449 59.4556 83.4513 59.9272 81.3503 60.7762C77.7832 53.4786 70.2896 48.4512 61.62 48.4512C51.1355 48.4512 42.3732 55.8039 40.1945 65.6328C30.334 66.267 22.5315 74.4609 22.5315 84.4817C22.5315 94.916 30.9903 103.375 41.4244 103.375H101.542C108.939 103.375 114.935 97.3788 114.935 89.982C114.935 84.2658 111.353 79.3888 106.312 77.4668Z" fill="#8763FC"/>
<path d="M105.607 73.8879L105.642 74.2256L105.968 74.3181C111.091 75.7694 115.065 80.3018 115.6 86.006C116.293 93.3898 110.964 99.9142 103.717 100.594L42.5162 106.335C32.1766 107.305 22.9816 99.5735 21.9942 89.0476C21.0459 78.9395 28.0159 69.9591 37.7275 68.4038L38.0992 68.3443L38.1448 67.9706C39.3818 57.8184 47.4104 49.5674 57.8393 48.5891C66.4632 47.7801 74.3999 52.1614 78.6458 59.2139L78.889 59.6178L79.3065 59.3988C81.307 58.3493 83.5333 57.6619 85.9146 57.4385C95.7942 56.5117 104.583 63.8573 105.607 73.8879Z" stroke="black"/>
<path d="M92.7878 71.361H44.6785C43.866 71.361 43.2011 70.6961 43.2011 69.8836C43.2011 69.0711 43.866 68.4062 44.6785 68.4062H92.7878C93.6003 68.4062 94.2652 69.0711 94.2652 69.8836C94.2652 70.6961 93.6003 71.361 92.7878 71.361Z" fill="#263238"/>
<path d="M94.1619 42.7006L87.7836 69.8839H49.7254L60.3698 24.5176L86.7229 30.7009L94.1619 42.7006Z" fill="#8763FC"/>
<path opacity="0.8" d="M94.1619 42.7006L87.7836 69.8839H49.7254L60.3698 24.5176L86.7229 30.7009L94.1619 42.7006Z" fill="#FAFAFA"/>
<path d="M89.1976 47.7523L60.2901 40.9696C59.8759 40.8724 59.616 40.4537 59.7136 40.0395C59.8107 39.6252 60.2294 39.3654 60.6437 39.4629L89.5512 46.2456C89.9655 46.3428 90.2249 46.7615 90.1278 47.1757C90.0306 47.59 89.6119 47.8495 89.1976 47.7523Z" fill="#8763FC"/>
<path d="M88.0936 52.4574L59.1861 45.6747C58.7718 45.5775 58.512 45.1588 58.6095 44.7445C58.7067 44.3303 59.1254 44.0705 59.5396 44.168L88.4471 50.9507C88.8614 51.0478 89.1212 51.4665 89.0237 51.8808C88.9269 52.2951 88.5082 52.5545 88.0936 52.4574Z" fill="#8763FC"/>
<path d="M86.99 57.1615L58.0825 50.3788C57.6682 50.2816 57.4084 49.8629 57.5059 49.4486C57.6031 49.0344 58.0218 48.7746 58.4361 48.8721L87.3436 55.6548C87.7578 55.7519 88.0176 56.1706 87.9201 56.5849C87.823 56.9992 87.4043 57.2586 86.99 57.1615Z" fill="#8763FC"/>
<path d="M85.8859 61.8675L56.9784 55.0848C56.5642 54.9876 56.3043 54.5689 56.4019 54.1547C56.499 53.7404 56.9177 53.4806 57.3323 53.5781L86.2399 60.3608C86.6541 60.458 86.9139 60.8767 86.8164 61.2913C86.7189 61.7052 86.3005 61.9647 85.8859 61.8675Z" fill="#8763FC"/>
<path d="M73.2896 63.875L55.8744 59.7889C55.4601 59.6917 55.2003 59.2731 55.2978 58.8588C55.395 58.4445 55.8137 58.1847 56.228 58.2822L73.6431 62.3683C74.0574 62.4654 74.3172 62.8841 74.2197 63.2984C74.1229 63.7127 73.7042 63.9721 73.2896 63.875Z" fill="#8763FC"/>
<path d="M94.1619 42.7009L84.4425 40.4202L86.7229 30.7012L94.1619 42.7009Z" fill="#8763FC"/>
</svg>
