<svg xmlns="http://www.w3.org/2000/svg" width="554.332" height="590.646" viewBox="0 0 554.332 590.646">
  <g id="Group_1916" data-name="Group 1916" transform="translate(-353.795 -253.34)">
    <g id="Group_1874" data-name="Group 1874" transform="translate(541.347 253.34)">
      <rect id="Rectangle_1892" data-name="Rectangle 1892" width="97.084" height="183.416" transform="translate(209.579 191.122)" fill="#fff"/>
      <rect id="Rectangle_1893" data-name="Rectangle 1893" width="97.084" height="183.416" transform="translate(209.579)" fill="#fff"/>
      <rect id="Rectangle_1894" data-name="Rectangle 1894" width="97.084" height="183.416" transform="translate(104.789 191.122)" fill="#fff"/>
      <rect id="Rectangle_1895" data-name="Rectangle 1895" width="97.084" height="183.416" transform="translate(104.789)" fill="#fff"/>
      <rect id="Rectangle_1896" data-name="Rectangle 1896" width="97.084" height="183.416" transform="translate(0 191.122)" fill="#fff"/>
      <rect id="Rectangle_1897" data-name="Rectangle 1897" width="97.084" height="183.416" transform="translate(0)" fill="#fff"/>
    </g>
    <path id="Path_348" data-name="Path 348" d="M857.07,950.966c-25-16.675-40.875-7.5-43.12-14.089-2.653-7.791.31-34.415-2.852-46.61-1.855-7.156-6.058-13.748-32.563-18.091-31.9-5.226-66.64-7.542-101.9-7.361-35.264-.182-70.008,2.135-101.9,7.361-26.5,4.343-30.708,10.935-32.563,18.091-3.162,12.2-.2,38.819-2.852,46.61-2.246,6.593-18.117-2.586-43.12,14.089-39.286,26.2,16.2,158.72,45.716,181.673,9.283,7.219,24.433,6.152,27.285,6.257,52.531,1.938,81.262,2.928,107.116,2.929h.644c25.854,0,54.584-.991,107.116-2.929,2.852-.1,18,.962,27.284-6.257C840.869,1109.686,896.356,977.166,857.07,950.966Z" transform="translate(-128.812 -335.776)" fill="#3e1a4a"/>
    <path id="Path_349" data-name="Path 349" d="M650.142,1475.945h7.725c1.656,0,3.011-1.355,3.011-5.584l19.822-74.34c0,.918-1.355-.437-3.011-.437h-17.77a3.019,3.019,0,0,0-3.011,3.01l-9.776,74.34A3.02,3.02,0,0,0,650.142,1475.945Z" transform="translate(-220.619 -631.96)" fill="#3e1a4a"/>
    <path id="Path_350" data-name="Path 350" d="M758.7,1497.321h4.489a1.755,1.755,0,0,0,1.749-1.75l11.518-43.2a1.754,1.754,0,0,0-1.749-1.749H764.386a1.754,1.754,0,0,0-1.749,1.749l-5.681,43.2A1.755,1.755,0,0,0,758.7,1497.321Z" transform="translate(-281.903 -662.673)" fill="#3e1a4a"/>
    <path id="Path_351" data-name="Path 351" d="M1150.662,1475.945h-7.724c-1.656,0-3.011-1.355-3.011-5.584l-19.822-74.34c0,.918,1.355-.437,3.011-.437h17.77a3.02,3.02,0,0,1,3.011,3.01l9.776,74.34A3.02,3.02,0,0,1,1150.662,1475.945Z" transform="translate(-484.547 -631.96)" fill="#3e1a4a"/>
    <path id="Path_352" data-name="Path 352" d="M1059.851,1497.321h-4.489a1.755,1.755,0,0,1-1.749-1.75l-11.519-43.2a1.755,1.755,0,0,1,1.75-1.749h10.326a1.754,1.754,0,0,1,1.749,1.749l5.681,43.2A1.755,1.755,0,0,1,1059.851,1497.321Z" transform="translate(-441.016 -662.673)" fill="#3e1a4a"/>
    <path id="Path_353" data-name="Path 353" d="M864.815,1074.06a48.5,48.5,0,0,0-6.217-2.779c-7.094-2.589-14.264-1.8-16.826-1.513a46.873,46.873,0,0,0-23.314,11.3c-32.708,28.891-14.44,109.65-35.279,115.258-22.211,5.979-63.882,5.64-105.18,5.49v-.006l-.783,0-.783,0v.006c-41.3.151-82.969.489-105.179-5.49-20.84-5.609-2.571-86.367-35.279-115.258a46.875,46.875,0,0,0-23.314-11.3c-2.562-.288-9.732-1.076-16.826,1.513a48.541,48.541,0,0,0-6.217,2.779c-23.018,38.406,26.164,152.4,53.337,173.531,9.284,7.219,24.435,6.135,27.285,6.257,45.154,1.924,75.164,3.344,106.194,3.437v0l.783,0,.783,0v0c31.029-.094,61.04-1.513,106.193-3.437,2.851-.122,18,.962,27.285-6.257C838.65,1226.46,887.833,1112.466,864.815,1074.06Z" transform="translate(-129.397 -449.959)" fill="#52275f"/>
    <path id="Path_354" data-name="Path 354" d="M880.709,936.876c-2.653-7.79.31-34.414-2.852-46.61-1.855-7.156-6.058-13.748-32.563-18.091-31.9-5.226-66.64-7.542-101.9-7.361-35.264-.182-70.008,2.135-101.9,7.361-26.5,4.343-30.708,10.935-32.563,18.091-3.162,12.2-.2,38.819-2.852,46.61-.531,1.559-1.832,2.233-3.828,2.578a51.334,51.334,0,0,1,25.242,7.864c25.114,15.986,25.729,77.358,25.911,77.328.007,0-.015-.091-.007-.14.12-.8,179.525-.8,179.645,0,.007.049-.015.139-.008.14.183.03.8-61.342,25.911-77.328a51.3,51.3,0,0,1,25.543-7.873C882.518,939.095,881.235,938.421,880.709,936.876Z" transform="translate(-195.571 -335.776)" fill="#3e1a4a"/>
    <path id="Path_355" data-name="Path 355" d="M889.295,1214.194c-6.669-11.111-22.982-14.374-32.33-15.289-30.329-2.967-132.559-2.967-162.887,0-9.348.914-25.661,4.178-32.33,15.289-6.109,10.178,4.029,40.766,6.933,45.767a8.212,8.212,0,0,0,5.291,4.233c22.582,4.308,180.518,4.308,203.1,0a8.213,8.213,0,0,0,5.291-4.233C885.266,1254.96,895.4,1224.372,889.295,1214.194Z" transform="translate(-227.702 -520.968)" fill="#52275f"/>
    <g id="Group_1883" data-name="Group 1883" transform="translate(735.361 450.273)">
      <g id="Group_1880" data-name="Group 1880" transform="translate(16.925)">
        <g id="Group_1878" data-name="Group 1878">
          <path id="Path_356" data-name="Path 356" d="M1507.508,763.312,1493.3,688.341a2.115,2.115,0,0,0-2.078-1.721h-68.545a2.115,2.115,0,0,0-2.078,1.721l-14.211,74.971a2.115,2.115,0,0,0,2.078,2.509h96.967A2.115,2.115,0,0,0,1507.508,763.312Z" transform="translate(-1406.348 -686.62)" fill="#fccc44"/>
          <path id="Path_357" data-name="Path 357" d="M1499.9,894.06c-.878-8.256,4.4-15.953,5.936-17.991a.327.327,0,0,0-.262-.524h-19.328a.327.327,0,0,0-.262.524c1.533,2.038,6.814,9.736,5.936,17.991-1.772,16.664-15.745,31.444-15.745,44.939,0,6.281,3.341,16.094,4.4,19.46a1.324,1.324,0,0,0,1.263.924h28.134a1.325,1.325,0,0,0,1.263-.924c1.063-3.367,4.4-13.179,4.4-19.46C1515.647,925.5,1501.675,910.724,1499.9,894.06Z" transform="translate(-1445.314 -792.043)" fill="#3e1a4a"/>
          <path id="Path_358" data-name="Path 358" d="M1473.26,987.96a7.64,7.64,0,0,0-5.593-3.938,9.234,9.234,0,0,0-4.251.164c.038-1.484.047-2.976.024-4.466a.414.414,0,0,0-.414-.406h-30.943a.414.414,0,0,0-.414.406c-.238,15.788,3.072,31.675,5.878,37.127a.811.811,0,0,0,.721.442h18.571a.811.811,0,0,0,.721-.442,37.123,37.123,0,0,0,2.488-7.189c3.9-1.412,10.474-5.522,13.431-12.426A11.285,11.285,0,0,0,1473.26,987.96Zm-2.56,8.079c-2.108,4.921-6.53,8.3-9.794,9.963a122.737,122.737,0,0,0,2.382-18.526,5.812,5.812,0,0,1,3.843-.475,4.648,4.648,0,0,1,3.465,2.394A8.23,8.23,0,0,1,1470.7,996.039Z" transform="translate(-1420.471 -849.948)" fill="#ff6285"/>
        </g>
        <g id="Group_1879" data-name="Group 1879" transform="translate(76.306 85.199)">
          <path id="Path_359" data-name="Path 359" d="M1636.731,916.206c-5-7.467-1.232-20.7,10.744-26.8,2.819-1.435,6.622-4.172,7.89-7.968.365-1.094.038-2.072.32-2.052.352.024.455,2.379.483,3.018a42.832,42.832,0,0,1-1.328,11.227c-1.526,7.672.966,17.776-6,24.627C1643.827,923.188,1639.215,919.914,1636.731,916.206Z" transform="translate(-1610.01 -879.386)" fill="#2b83a1"/>
          <path id="Path_360" data-name="Path 360" d="M1611.024,894.846c.262.026-.323.365-.055,1.226a7.079,7.079,0,0,0,2.01,2.617c2.205,2.413,2.695,5.514,2.541,8.685-.113,2.319-1.883,5.674-3.538,4.511-7.925-5.564-2.447-13.469-1.8-14.86C1610.962,895.333,1610.685,894.813,1611.024,894.846Z" transform="translate(-1595.032 -888.012)" fill="#2b83a1"/>
          <path id="Path_361" data-name="Path 361" d="M1602.212,943.184c3.719-3.677-1.188-24.4-17.987-34.611-1.737-1.056-4.581-3.059-5.113-2.649-.267.206,1.559.538,1.008,2.293-6.059,19.3,14.213,19.3,15.259,31.647C1595.689,943.508,1600.119,945.252,1602.212,943.184Z" transform="translate(-1578.992 -894.164)" fill="#6ab3c4"/>
          <path id="Path_362" data-name="Path 362" d="M1678.178,916c-1.108,1.029-4.515.629-7.7,2.023-2.976,1.3-4.254,4.264-5.57,8.519-2.26,7.308-8.7,18.473-17.721,18.553-14.595.129-1.388-16.455,11.659-25.425,5.633-3.873,13.384-3.945,16.866-3.989C1677.775,915.65,1678.693,915.518,1678.178,916Z" transform="translate(-1613.48 -899.616)" fill="#6ab3c4"/>
          <path id="Path_363" data-name="Path 363" d="M1623.673,879.6c1.111-.537-.377,3.88,5.191,9.537,11.878,12.068,9.423,36.439-3.018,37.665-4.943.487-23.332-19.2-3.5-42.252C1624.687,881.831,1623.26,879.8,1623.673,879.6Z" transform="translate(-1598.159 -879.483)" fill="#6ab3c4"/>
          <path id="Path_364" data-name="Path 364" d="M1642.538,921.185c.072-.851,3.028,7.886,3.38,12.157.764,9.269-.433,14.37-4.033,18.229-4.189,4.492-11.3,6.335-15.524,2.293-3.772-3.613-3.984-10.02-.724-14.486,2.325-3.186,3.121-3.315,9.537-10.14C1639.14,925.018,1642.208,925.106,1642.538,921.185Z" transform="translate(-1603.745 -902.678)" fill="#87c8dc"/>
          <path id="Path_365" data-name="Path 365" d="M1638.61,984.093a2.255,2.255,0,0,0-2.247-2.065h-31.657a2.254,2.254,0,0,0-2.247,2.065l-1.408,15.866v2.273c0,8.642,7.005,16.438,15.647,16.438h7.673c8.641,0,15.647-7.8,15.647-16.438v-2.273Z" transform="translate(-1591.302 -936.662)" fill="#fccc44"/>
        </g>
      </g>
      <g id="Group_1882" data-name="Group 1882" transform="translate(0 167.839)">
        <path id="Rectangle_1898" data-name="Rectangle 1898" d="M3.411,0h150.5A5.191,5.191,0,0,1,159.1,5.191v0a5.191,5.191,0,0,1-5.191,5.191H3.411A3.411,3.411,0,0,1,0,6.97V3.411A3.411,3.411,0,0,1,3.411,0Z" transform="translate(161.587 10.381) rotate(180)" fill="#eaa288"/>
        <g id="Group_1881" data-name="Group 1881" transform="translate(0 5.597)">
          <path id="Path_366" data-name="Path 366" d="M1664.2,1299.3h-3.665a1.82,1.82,0,0,1-1.755-1.335l-50.672-215.158a2.985,2.985,0,0,1,2.877-3.782h7.626a2.985,2.985,0,0,1,2.9,2.268l44.458,215.749A1.821,1.821,0,0,1,1664.2,1299.3Z" transform="translate(-1501.947 -1079.024)" fill="#eaa288"/>
          <path id="Path_367" data-name="Path 367" d="M1599.435,1299.3h-3.665a1.822,1.822,0,0,1-1.755-1.335l-21.371-215.158a2.985,2.985,0,0,1,2.877-3.782h7.626a2.985,2.985,0,0,1,2.9,2.268l15.157,215.749A1.821,1.821,0,0,1,1599.435,1299.3Z" transform="translate(-1482.157 -1079.024)" fill="#eaa288"/>
          <path id="Path_368" data-name="Path 368" d="M1369.876,1299.3h3.665a1.822,1.822,0,0,0,1.755-1.335l59.624-215.158a2.985,2.985,0,0,0-2.877-3.782h-7.627a2.985,2.985,0,0,0-2.9,2.268l-53.411,215.749A1.821,1.821,0,0,0,1369.876,1299.3Z" transform="translate(-1368.054 -1079.024)" fill="#eaa288"/>
        </g>
      </g>
    </g>
    <g id="Group_1900" data-name="Group 1900" transform="translate(360.937 416.386)">
      <path id="Path_369" data-name="Path 369" d="M771.948,630.928c-15.18-1.153-26.98,9.493-47.746,28.778-9.205,8.549-15.854,12.305-19.948,18.968-3.856,6.274-11.434,22.45-7.849,39.9,3.768,18.338,20.239,35.074,38.262,36.627,30.924,2.666,54.1-40.753,58.21-50.362,7.848-18.326,11.119-46.437-4.905-68.021C783.208,630.4,774.47,631.119,771.948,630.928Z" transform="translate(-608.529 -621.607)" fill="#3e1a4a"/>
      <path id="Path_370" data-name="Path 370" d="M952.637,1002.549c.815-.925,5.953-6.757,13.214-6.33a11.931,11.931,0,0,1,8.1,3.413c.8.839,2.583,4.28,3.13,15.5.876,17.96,5.775,16.943,8.35,22.1,3.347,6.7,3.476,11.567-1.967,13.389-6.048,2.025-29.461-10.1-29.88-10.455C944.008,1032.138,944.227,1012.095,952.637,1002.549Z" transform="translate(-748.533 -825.481)" fill="#d66730"/>
      <path id="Path_371" data-name="Path 371" d="M925.441,807.481c2.869-1.093,13.481,1.858,20.318,15.465,6.692,13.318,4.986,21.531,7.138,31.443,2.506,11.546,4.737,30.249,7.679,35.341.836,1.447,3.692,5.374,4.552,9.462.311,1.478,1.578,11.71-3.087,9.933-12.84-4.893-16.821,9.521-24.145,4.915-8.878-5.583-3.058-30.249-5.968-70.539C930.481,823.459,920.759,809.264,925.441,807.481Z" transform="translate(-736.152 -720.058)" fill="#fff"/>
      <path id="Path_372" data-name="Path 372" d="M852.38,1111.827c-37.469.413-72.491-.813-76.655-16.434-3.833-14.377,4.7-33.971,12.989-43.245,3.882-4.344,58-6.167,61.709-4.342a35.381,35.381,0,0,1,7.558,4.812c9.678,8.12,8.527,16.369,14.92,22.536,2.777,2.679,5.851,3.878,25.157,5.668,28.93,2.681,38.323,1.5,39.262,4.709C938.49,1089.535,886.779,1111.448,852.38,1111.827Z" transform="translate(-652.786 -853.887)" fill="#eaa288"/>
      <path id="Path_373" data-name="Path 373" d="M936.3,1142.216c6.287-2.88,12.617-5.665,18.916-8.517,9.553-4.326,10.033-4.582,11.82-5.1a42.894,42.894,0,0,1,24.66-.21c3.716,1.148,7.212,2.228,10.484,5.443,5.9,5.8,6.146,13.7,6.214,15.946.4,13.057-9.3,21.313-10.318,22.151-4.457,3.668-9.065,4.7-11.828,5.69-23.612,8.446-55.04,8.965-95.289,12.048-30.523,2.338-40.543.572-43.948-5.368-2.919-5.09.681-12.117,1.38-13.481,4.922-9.608,14.785-7.4,46.637-16.9C915.374,1147.844,925.75,1147.051,936.3,1142.216Z" transform="translate(-692.466 -898.277)" fill="#eaa288"/>
      <path id="Path_374" data-name="Path 374" d="M957.073,1156.367a165.16,165.16,0,0,1,18.231-6.029c6.152-1.742,12.368-3.15,18.226-5.283.735-.261,1.454-.557,2.182-.834l2.146-.921,4.389-1.913c2.934-1.259,5.869-2.514,8.833-3.707,2.951-1.221,5.927-2.385,8.9-3.551,1.5-.562,2.985-1.143,4.492-1.686a28.833,28.833,0,0,1,4.61-1.395,20.748,20.748,0,0,0-2.166,1.011l-2.111,1.126-4.23,2.256c-2.835,1.474-5.68,2.923-8.548,4.323-2.855,1.427-5.739,2.792-8.624,4.153l-4.339,2.016-2.244.985c-.761.3-1.515.615-2.282.89a85.311,85.311,0,0,1-9.322,2.722c-3.128.742-6.252,1.4-9.379,2.024C969.589,1153.823,963.364,1155.129,957.073,1156.367Z" transform="translate(-754.509 -900.73)" fill="#ffdcc9"/>
      <path id="Path_375" data-name="Path 375" d="M693.8,821.771c3.077-7.206,11.945-11.15,18.392-12.635,20.325-4.68,24.284-11.2,33.083-13.585a35.061,35.061,0,0,1,15.856-.345c4.6,1.1,12.534,5.768,22.241,4.449,7.416-1.008,9.129-1.438,16.434.728,2.061.611,12.272,3.232,11.506,14.962-.912,13.964,4.461,24.848,5.431,28.85,1.192,4.923,1.707,4.715,2.222,8.253.957,6.57-.558,9.078-2.057,19.342-1.942,13.295-4.017,13.148.69,31.712.877,3.461,2.809,8.262-3.683,10.511-1.331.461-23.7-4.765-60.011,8.477-6.5,2.37-9.7.732-13.491-.793-1.418-.571-16.779-16.107-20.964-49.634-1.689-13.53-4.3-20-6.694-23C705.161,839.551,688.322,834.6,693.8,821.771Z" transform="translate(-606.999 -712.908)" fill="#fff"/>
      <path id="Path_376" data-name="Path 376" d="M958.5,843.091A39.981,39.981,0,0,0,960.331,854c1.057,3.523,2.53,6.917,3.839,10.437a59.539,59.539,0,0,1,3.151,10.946,42.507,42.507,0,0,1,.61,5.735,56.141,56.141,0,0,1-.112,5.736c-.605,7.559-1.965,14.858-2.7,22.214a80.629,80.629,0,0,0,.389,22.13,48.813,48.813,0,0,1-2.4-11,76.358,76.358,0,0,1-.277-11.3c.133-3.764.549-7.5.929-11.21.417-3.707.891-7.392,1.135-11.047a53.218,53.218,0,0,0,.174-5.439,48.231,48.231,0,0,0-.48-5.387,67.775,67.775,0,0,0-2.572-10.645,109.986,109.986,0,0,1-3.071-10.826A33.065,33.065,0,0,1,958.5,843.091Z" transform="translate(-755.142 -740.045)" fill="#eaa288"/>
      <path id="Path_377" data-name="Path 377" d="M668.2,1203.948c-6.864-1.13-36.268,8.854-36.268,8.854-5.8.856-11.145,1.177-22.393,1.286-12.154.117-13.025-.19-14.742,1.062-5.379,3.923-7.027,14.38-2.679,19.266,2.094,2.353,6.441,2.592,15.133,3.07,10.066.553,15.1.83,20.047-1.4,2.652-1.194,5.057-2.872,9.576-3.658a25.957,25.957,0,0,1,7.064-.252c11.908,1.126,23.918-.49,35.878-.646C708.439,1231.162,693.271,1208.079,668.2,1203.948Z" transform="translate(-549.47 -941.36)" fill="#ec7d40"/>
      <path id="Path_378" data-name="Path 378" d="M564.166,1211.746c.115-.984-1.234-1.908-3.937-3.713-2.643-1.765-4.113-2.728-6.31-3.238a16.147,16.147,0,0,0-4.691-.223,72.52,72.52,0,0,1-15.217-1.311c-3.442-.717-3.046-1.017-5.808-1.451a26.954,26.954,0,0,0-10.582.085c-5.862,1.43-18.064,9.131-18.845,25.549a9.967,9.967,0,0,0,2.6,7.175c2.471,2.639,6.062,3.077,8.069,3.322,2.555.312,9.141-.471,18.819-.281,6.459.127,29.959.249,33.505-.17.34-.04.485-.432.614-.558a13.762,13.762,0,0,0,3.964-9.214c.028-6.666-7.352-10.232-5.836-13.206C561.344,1212.871,564,1213.139,564.166,1211.746Z" transform="translate(-498.766 -939.939)" fill="#fff"/>
      <g id="Group_1896" data-name="Group 1896" transform="translate(9.005 265.242)">
        <g id="Group_1885" data-name="Group 1885">
          <g id="Group_1884" data-name="Group 1884">
            <path id="Path_379" data-name="Path 379" d="M565.762,1212.123a142.05,142.05,0,0,1-17.373-.847c-1.44-.151-2.875-.3-4.3-.35a21.9,21.9,0,0,0-4.247.275,30.486,30.486,0,0,0-4.171.922,19.688,19.688,0,0,0-10.16,7.175,28.5,28.5,0,0,0-3.883,7.48,18.154,18.154,0,0,0-1.27,8.22,9.141,9.141,0,0,0,1.253,3.918,5.613,5.613,0,0,0,3.4,2.274l-.025.141a5.785,5.785,0,0,1-3.9-2.027,9.409,9.409,0,0,1-1.724-4.159,17.96,17.96,0,0,1,.918-8.848,30.034,30.034,0,0,1,1.7-4.1,23.629,23.629,0,0,1,2.413-3.765,21.682,21.682,0,0,1,6.852-5.67,21.214,21.214,0,0,1,4.139-1.636,31.454,31.454,0,0,1,4.329-.847,22.791,22.791,0,0,1,4.417-.177c1.469.085,2.913.276,4.349.462a141.619,141.619,0,0,0,17.29,1.416Z" transform="translate(-519.141 -1210.065)" fill="#52275f"/>
          </g>
        </g>
        <g id="Group_1887" data-name="Group 1887" transform="translate(24.706 10.42)">
          <g id="Group_1886" data-name="Group 1886">
            <path id="Path_380" data-name="Path 380" d="M576.573,1233.64a17.149,17.149,0,0,1,1.186,4.993,27.358,27.358,0,0,1,0,5.116,31.161,31.161,0,0,1-.856,5.029,25.527,25.527,0,0,1-.761,2.442,12.2,12.2,0,0,1-1.1,2.327l.384-5.023.434-4.943c.144-1.642.3-3.281.4-4.927S576.471,1235.359,576.573,1233.64Z" transform="translate(-575.039 -1233.64)" fill="#52275f"/>
          </g>
        </g>
        <g id="Group_1889" data-name="Group 1889" transform="translate(29.397 10.643)">
          <g id="Group_1888" data-name="Group 1888">
            <path id="Path_381" data-name="Path 381" d="M587.186,1234.145a17.147,17.147,0,0,1,1.186,4.993,27.37,27.37,0,0,1,0,5.117,31.158,31.158,0,0,1-.856,5.028,25.525,25.525,0,0,1-.761,2.442,12.21,12.21,0,0,1-1.1,2.328l.384-5.023.434-4.943c.144-1.642.3-3.281.4-4.927S587.084,1235.864,587.186,1234.145Z" transform="translate(-585.652 -1234.145)" fill="#52275f"/>
          </g>
        </g>
        <g id="Group_1891" data-name="Group 1891" transform="translate(34.087 10.866)">
          <g id="Group_1890" data-name="Group 1890">
            <path id="Path_382" data-name="Path 382" d="M597.8,1234.649a17.151,17.151,0,0,1,1.186,4.993,27.37,27.37,0,0,1,0,5.116,31.182,31.182,0,0,1-.856,5.028,25.482,25.482,0,0,1-.761,2.442,12.214,12.214,0,0,1-1.1,2.328l.384-5.023.434-4.943c.144-1.642.3-3.281.4-4.927S597.7,1236.368,597.8,1234.649Z" transform="translate(-596.265 -1234.649)" fill="#52275f"/>
          </g>
        </g>
        <g id="Group_1893" data-name="Group 1893" transform="translate(38.778 11.089)">
          <g id="Group_1892" data-name="Group 1892">
            <path id="Path_383" data-name="Path 383" d="M608.412,1235.154a17.154,17.154,0,0,1,1.186,4.993,27.367,27.367,0,0,1,0,5.117,31.151,31.151,0,0,1-.856,5.028,25.427,25.427,0,0,1-.762,2.442,12.231,12.231,0,0,1-1.1,2.328l.384-5.023.434-4.943c.144-1.642.3-3.281.4-4.927S608.31,1236.873,608.412,1235.154Z" transform="translate(-606.878 -1235.154)" fill="#52275f"/>
          </g>
        </g>
        <g id="Group_1895" data-name="Group 1895" transform="translate(43.469 11.312)">
          <g id="Group_1894" data-name="Group 1894">
            <path id="Path_384" data-name="Path 384" d="M619.025,1235.658a17.153,17.153,0,0,1,1.186,4.993,27.337,27.337,0,0,1,0,5.117,31.138,31.138,0,0,1-.855,5.028,25.415,25.415,0,0,1-.762,2.442,12.235,12.235,0,0,1-1.1,2.328l.384-5.023.434-4.943c.144-1.642.3-3.281.4-4.927S618.922,1237.377,619.025,1235.658Z" transform="translate(-617.491 -1235.658)" fill="#52275f"/>
          </g>
        </g>
      </g>
      <path id="Path_385" data-name="Path 385" d="M781.248,1171.65c-6.672-2.279-9.535-5.482-10.467-6.617-4.591-5.6-9.474-13.941-2.957-37.031,6.8-24.091,76.987-5.283,94.487,2.03,3.724,1.556,8.392,2.913,12.218,7.231,3,3.391,8.5,10.471,6.8,15.955-2.778,8.966-20.018,4.629-53.635,13.858C812.348,1171.29,794.714,1176.249,781.248,1171.65Z" transform="translate(-647.145 -892.402)" fill="#ffdcc9"/>
      <path id="Path_386" data-name="Path 386" d="M704.35,939.38a14.472,14.472,0,0,1,4.109.063c1.761.027,3.259-2,1.253-6.4-2.94-6.444-.1-21.892.539-34.078.674-12.916-5.374-26.162-7.182-29.464-6-10.952-13.822-22.775-18.478-20.242-1.108.6-2.755,3.315-3.62,6.4-2.431,8.681-5.771,30.187-6.371,32.779-3.478,15.02-.855,25.509-.556,36.39.065,2.357-.043,4.232-.072,4.7-.178,2.912-1.79,10.36-1.94,11.712a21.975,21.975,0,0,0,1.609,10c1.63,4.711,6.407,11.231,8.642,10.7.965-.229.835-1.608,1.815-3.495C688.938,949.125,697.289,940.447,704.35,939.38Z" transform="translate(-595.396 -743.292)" fill="#fff"/>
      <path id="Path_387" data-name="Path 387" d="M733.832,920.135c-.144-5.684.226-11.36.282-16.948a59.478,59.478,0,0,0-2.54-16.273c-.761-2.66-1.669-5.284-2.687-7.861-.51-1.285-1.056-2.564-1.638-3.8-.284-.6-.621-1.231-.937-1.855l-.962-1.875c-1.31-2.484-2.631-4.964-4.047-7.389a72.833,72.833,0,0,0-4.575-7.107,42.168,42.168,0,0,1,5.772,6.305q2.584,3.414,4.836,7.052c.764,1.217,1.494,2.392,2.213,3.685s1.313,2.587,1.9,3.9a65.926,65.926,0,0,1,2.939,8.126,56.987,56.987,0,0,1,1.767,8.486,40.557,40.557,0,0,1,.232,8.7A166.554,166.554,0,0,1,733.832,920.135Z" transform="translate(-620.393 -747.824)" fill="#eaa288"/>
      <path id="Path_388" data-name="Path 388" d="M816.365,1157.355c-15.6,3.109-11.68,1.256-28.423,4.526-25.732,5.025-22.223,6.909-40.429,9.831-10.224,1.641-15.412,2.793-16.082,4.524-3.07,7.934.868,31.188,7.234,33.253,1.322.429,2.264.01,4.132-.392,7.954-1.708,12.589-.84,21.192-.755,13.992.137,18.006-2,44.813-3.159a158.741,158.741,0,0,0,33.114-4.3,29.428,29.428,0,0,0,10.8-4.775c1.672-1.223,9.768-7.143,10.832-17.7a22.19,22.19,0,0,0-2.877-13.653c-4.057-6.747-10.785-9.1-13.626-10.05C838.423,1151.821,832.435,1154.152,816.365,1157.355Z" transform="translate(-628.004 -913.2)" fill="#ffdcc9"/>
      <path id="Path_389" data-name="Path 389" d="M818,1163.574a102.276,102.276,0,0,1-10.658,2.7c-1.81.346-3.622.614-5.4.918s-3.546.651-5.317,1.015c-7.081,1.5-14.2,3.048-21.171,4.825-3.5.887-6.9,1.943-10.422,2.993a78.138,78.138,0,0,1-10.829,2.417c-3.651.567-7.275.908-10.872,1.352-1.8.2-3.6.452-5.378.757a22.278,22.278,0,0,0-2.629.589,7.862,7.862,0,0,0-1.253.464,2.32,2.32,0,0,0-1.009.848,2.3,2.3,0,0,1,.863-1.081,8.239,8.239,0,0,1,1.2-.726,22.354,22.354,0,0,1,2.582-1.039c1.751-.6,3.532-1.055,5.31-1.512,3.565-.888,7.16-1.558,10.663-2.37,1.76-.393,3.5-.84,5.223-1.306,1.719-.494,3.423-1,5.134-1.58s3.451-1.149,5.212-1.7,3.539-1.038,5.319-1.513a196.871,196.871,0,0,1,21.6-4.139c1.821-.237,3.653-.446,5.493-.581s3.656-.212,5.458-.337C810.734,1164.345,814.355,1163.9,818,1163.574Z" transform="translate(-629.511 -918.88)" fill="#eaa288"/>
      <g id="Group_1897" data-name="Group 1897" transform="translate(86.657 195.455)">
        <path id="Path_390" data-name="Path 390" d="M695.089,1073.6c.95,3.1,4.154,4.561,4.623,4.767,1.879.824,17.545,4.378,36.345,3.491,12-.566,36.292-4.584,41.744-4.059,4.19.4,4.4,1.557,9.943,2.5,6.877,1.169,5.964-.525,12.9.784,5.791,1.092,9.942,2.5,12.877,2.545a6.453,6.453,0,0,0,3.54-1.12c.462-.448,1.014-.009,1.173.018a5.221,5.221,0,0,1,2.33,1.21c1.6,1.107,4.289,1.621,5.86.677.761-.457.96-1.077,1.778-1.147.651-.056.846.309,1.752.614a8.147,8.147,0,0,0,3.522.054c1.321-.133,1.989-.207,2.357-.551.9-.843.7-2.427.632-2.925a5.628,5.628,0,0,0-.56-1.77c-2.2-4.121-10.422-9.552-10.422-9.552-8.183-5.409-11.631-7.222-14.557-7.854-1.18-.255-8.226.462-12.361,2.16-5.31,1.68-19.19-.314-24.055-.954-10.7-1.408-46.286-8.8-50.929-9.583a34.191,34.191,0,0,0-7.622-.7c-11.747.633-18.686,13.267-19,13.8C695.7,1068.164,694.225,1070.781,695.089,1073.6Z" transform="translate(-694.831 -1052.17)" fill="#ec7d40"/>
        <path id="Path_391" data-name="Path 391" d="M958.695,1082.1a28.158,28.158,0,0,1,6.512,2.4,50.876,50.876,0,0,1,5.978,3.542,65.189,65.189,0,0,1,5.5,4.226,50.552,50.552,0,0,1,4.97,4.826l-5.54-4.108c-1.851-1.349-3.7-2.693-5.592-3.975q-2.818-1.949-5.753-3.71A61.381,61.381,0,0,0,958.695,1082.1Z" transform="translate(-842.072 -1068.869)" fill="#d66730"/>
        <path id="Path_392" data-name="Path 392" d="M949.931,1090.6a24,24,0,0,1,5.768,2.072,43.391,43.391,0,0,1,5.286,3.114,55.2,55.2,0,0,1,4.844,3.741,41.9,41.9,0,0,1,4.35,4.3l-4.92-3.58c-1.638-1.181-3.271-2.362-4.937-3.491q-2.481-1.719-5.061-3.281A58.805,58.805,0,0,0,949.931,1090.6Z" transform="translate(-837.181 -1073.612)" fill="#d66730"/>
        <path id="Path_393" data-name="Path 393" d="M938.512,1099.056a16.65,16.65,0,0,1,3.866,1.068,28.1,28.1,0,0,1,3.6,1.75,32.921,32.921,0,0,1,3.328,2.208,24.161,24.161,0,0,1,3,2.639c-1.211-.579-2.363-1.224-3.507-1.874l-3.41-1.957c-1.127-.663-2.266-1.3-3.406-1.94Z" transform="translate(-830.809 -1078.333)" fill="#d66730"/>
      </g>
      <g id="Group_1899" data-name="Group 1899" transform="translate(157.092 150.021)">
        <path id="Path_394" data-name="Path 394" d="M854.192,1125.779H964.4v-5.116H858.173c-.743,0-3.334,3.429-3.334,3.429a1.035,1.035,0,0,0,.875,1.686Z" transform="translate(-854.192 -1044.957)" fill="#ef4f79"/>
        <g id="Group_1898" data-name="Group 1898" transform="translate(60.742)">
          <path id="Path_395" data-name="Path 395" d="M996.052,1030.2h83.872a7.9,7.9,0,0,0,7.607-5.763l19.8-70.4a3.669,3.669,0,0,0-3.532-4.663H1018.98a7.97,7.97,0,0,0-7.672,5.812L991.79,1024.57A4.427,4.427,0,0,0,996.052,1030.2Z" transform="translate(-991.622 -949.374)" fill="#fff"/>
          <path id="Path_396" data-name="Path 396" d="M998.427,1032.554h84.153a7.813,7.813,0,0,0,7.521-5.7l19.682-69.965a2.591,2.591,0,0,0-2.494-3.293h-84.153a7.812,7.812,0,0,0-7.521,5.7l-19.682,69.965A2.591,2.591,0,0,0,998.427,1032.554Z" transform="translate(-993.972 -951.732)" fill="#ff6285"/>
        </g>
      </g>
      <path id="Path_397" data-name="Path 397" d="M829.079,749.486c.914,3.065-2.7,21-3.117,22.666-2.07,8.334-8.7,10.578-15.142,10.389-8.943-.262-12.958-7.375-12.724-13.86.314-8.735,1.122-16.183-.3-33.516C797.413,730.51,827.313,743.569,829.079,749.486Z" transform="translate(-665.628 -679.272)" fill="#ec7d40"/>
      <path id="Path_398" data-name="Path 398" d="M821.913,744.285c-3.323-1.214-3.4-2.887-7.778-1.259-3.1,1.151-5.47,4.147-7.184,8.008a36.726,36.726,0,0,0,7.42,14.74c2.2,2.6,5.62,6.642,11.432,7.328a16.738,16.738,0,0,0,5.644-.337c1.369-5.912,3.424-16.444,2.744-18.721C832.425,748.127,825.073,745.44,821.913,744.285Z" transform="translate(-670.739 -683.83)" fill="#d66730"/>
      <path id="Path_399" data-name="Path 399" d="M780.59,644.719c-.164-8.01,3.76-14.038,5.185-16.166,6.8-10.152,14.112-12.791,16.829-13.421,9.437-2.19,17.512-2.02,25.012,3.661,13.692,10.371,11.524,33.206,10.522,40.263-.966,6.8-5.259,27.275-16.625,35.993a12.282,12.282,0,0,1-8.49,3.05c-5.714-.187-11.006-4.358-12.912-6.405-6.6-7.092-8.183-12.3-10.626-25.317C786.992,653.081,780.754,652.73,780.59,644.719Z" transform="translate(-656.026 -612.113)" fill="#f79556"/>
      <path id="Path_400" data-name="Path 400" d="M844.828,776a.382.382,0,0,1,.306-.577,48.965,48.965,0,0,1,7.617.147,30.5,30.5,0,0,1,5.414,1.11.384.384,0,0,1,.218.562,6.9,6.9,0,0,1-6.872,3.558C847.783,780.389,845.578,777.272,844.828,776Z" transform="translate(-691.844 -702.241)" fill="#d65b5b"/>
      <path id="Path_401" data-name="Path 401" d="M884.925,704.687a6.238,6.238,0,0,1,1.491-2.167,8.537,8.537,0,0,1,2.124-1.534,9.152,9.152,0,0,1,5.2-.662,10.728,10.728,0,0,1,1.294.188l.636.132c.221.058.453.133.674.2a7.655,7.655,0,0,1,2.281,1.394c1.29,1.142-2.171.627-2.82.534l-.484-.054-.541-.016a8.506,8.506,0,0,0-2.122.192c-.343.1-.685.177-1.014.306-.667.214-1.319.432-2.011.591l-2.134.549c-.74.2-1.5.4-2.375.574Z" transform="translate(-714.25 -660.327)" fill="#3e1a4a"/>
      <path id="Path_402" data-name="Path 402" d="M817.223,696.348A15.718,15.718,0,0,1,822.038,694a14.16,14.16,0,0,1,5.552-.48c.477.039.945.139,1.43.194.474.091.949.2,1.429.31a7.1,7.1,0,0,1,2.586,1.34,7.794,7.794,0,0,1,2.919,4.891l-.278.2c-1.769-.808-3.136-1.569-4.524-2.218-.687-.327-1.332-.678-1.987-1.064-.332-.179-.667-.37-1.013-.544a10.12,10.12,0,0,0-1.084-.412,11.918,11.918,0,0,0-2.312-.45,13.146,13.146,0,0,0-2.426-.076,17.2,17.2,0,0,0-4.943.96Z" transform="translate(-676.471 -656.531)" fill="#3e1a4a"/>
      <path id="Path_403" data-name="Path 403" d="M830.951,716.847c.019.455,1.44,1.76,5.53,1.586,1.817-.077,3.616-.609,3.577-1.517a3.473,3.473,0,0,0-2.842-2.611C834.47,713.967,830.912,715.938,830.951,716.847Z" transform="translate(-684.131 -668.159)" fill="#e6e6e6"/>
      <path id="Path_404" data-name="Path 404" d="M837.66,715.733a2.343,2.343,0,0,1,4.377,1.658C841.193,720.645,836.158,719.592,837.66,715.733Z" transform="translate(-687.72 -668.201)" fill="#3e1a4a"/>
      <path id="Path_405" data-name="Path 405" d="M835.579,717.153a5.35,5.35,0,0,0-1.43-1.071,3.679,3.679,0,0,0-1.445-.339,15.272,15.272,0,0,0-3.221.364,26.554,26.554,0,0,1-3.665.5,7.234,7.234,0,0,1-2.031-.172,3.146,3.146,0,0,1-1-.432,1.66,1.66,0,0,1-.648-.831,1.993,1.993,0,0,0,.873.182,4.13,4.13,0,0,0,.817-.136c.538-.138,1.082-.332,1.641-.528a23.311,23.311,0,0,1,3.57-1.019,7.972,7.972,0,0,1,4.117.185,3.872,3.872,0,0,1,1.8,1.329A3.292,3.292,0,0,1,835.579,717.153Z" transform="translate(-679.214 -667.725)" fill="#3e1a4a"/>
      <path id="Path_406" data-name="Path 406" d="M887.668,721.3c.038.44,1.428,1.652,5.263,1.326,1.7-.145,2.47-.955,2.4-1.835a2.087,2.087,0,0,0-1.879-2.2C890.853,718.372,887.594,720.421,887.668,721.3Z" transform="translate(-715.78 -670.565)" fill="#e6e6e6"/>
      <path id="Path_407" data-name="Path 407" d="M894.366,720.619a2.134,2.134,0,0,1,4.046,1.34C897.769,724.952,893.148,724.187,894.366,720.619Z" transform="translate(-719.404 -670.95)" fill="#3e1a4a"/>
      <path id="Path_408" data-name="Path 408" d="M893.246,720.42a15.373,15.373,0,0,0-1.394-.686,3.721,3.721,0,0,0-1.215-.271,6.11,6.11,0,0,0-2.321.515,19.072,19.072,0,0,1-2.913.943,4.562,4.562,0,0,1-1.79.032,2.08,2.08,0,0,1-1.451-1.021,2.549,2.549,0,0,0,1.42-.152,8.511,8.511,0,0,0,1.182-.625,16.149,16.149,0,0,1,2.727-1.418,6.366,6.366,0,0,1,1.74-.387,4.1,4.1,0,0,1,1.918.313,3.574,3.574,0,0,1,1.452,1.175A3.828,3.828,0,0,1,893.246,720.42Z" transform="translate(-712.708 -669.874)" fill="#3e1a4a"/>
      <path id="Path_409" data-name="Path 409" d="M793.221,727.849c-.392.655-1.335,3.029-3.155,2.972-1.94-.06-4.133-1.892-6.24-6.64-2-4.51-1.894-7.135-1.651-8.221a5.258,5.258,0,0,1,2.312-3.633c2.16-1.139,4.809.375,5.284.661C794.163,715.628,795.995,723.217,793.221,727.849Z" transform="translate(-656.841 -666.843)" fill="#f79556"/>
      <path id="Path_410" data-name="Path 410" d="M720.347,663.233a126.219,126.219,0,0,1,21.3-8.36c27.193-7.479,37.092-25.828,37.092-25.828s25.724,28.845,18.3,51.446c-2.669,8.126-6,12.035-6.142,13.977a24.929,24.929,0,0,0,2.592-.16c.154-.018.309-.031.464-.045,2.636-3.981,6.515-13.772,6.515-13.772,3.244-9.345,1.957-17.427-.617-33.591-3-18.822-6.822-23.171-7.993-24.9-7.221-10.688-14.114-11.5-18.333-9.616-.216-.065-.442-.1-.655-.186-16.118-6.466-32.785,1.173-41.414,20.9-6.375,14.571-19.929,23.072-25.058,33.018-6.26,12.136-6.1,20.247-5.782,21.519C700.786,688.293,704.713,670.92,720.347,663.233Z" transform="translate(-611.336 -609.947)" fill="#3e1a4a"/>
      <path id="Path_411" data-name="Path 411" d="M769.477,612.727a34.486,34.486,0,0,0-14.542-.221,30.241,30.241,0,0,0-3.469.953,31.009,31.009,0,0,0-3.308,1.362,28,28,0,0,0-5.969,3.847,35.239,35.239,0,0,0-8.727,11.126c-.269.532-.521,1.074-.783,1.61-.278.562-.546,1.157-.846,1.719-.577,1.144-1.225,2.247-1.887,3.339a59.024,59.024,0,0,1-4.461,6.176,148.389,148.389,0,0,1-10.3,10.866c-1.741,1.738-3.466,3.469-5.024,5.312a36.867,36.867,0,0,0-4.092,5.946,37.984,37.984,0,0,0-2.933,6.63,38.522,38.522,0,0,0-1.666,7.094,49.479,49.479,0,0,0,.342,14.7,45.423,45.423,0,0,1-1.473-14.821,38.185,38.185,0,0,1,4.019-14.509q.848-1.7,1.844-3.323c.333-.537.673-1.076,1.031-1.61s.732-1.046,1.115-1.553c1.534-2.025,3.189-3.919,4.873-5.753,3.372-3.663,6.81-7.165,9.831-10.957q1.136-1.418,2.195-2.882t2-3c.626-1.02,1.24-2.049,1.783-3.113.286-.528.528-1.063.8-1.607.29-.571.571-1.147.87-1.714a38.413,38.413,0,0,1,4.268-6.414,32.236,32.236,0,0,1,5.565-5.362,30.447,30.447,0,0,1,6.709-3.809,29.469,29.469,0,0,1,7.41-1.932,28.585,28.585,0,0,1,3.8-.219,30.089,30.089,0,0,1,3.775.249,32.065,32.065,0,0,1,3.691.712l.9.246c.3.088.6.187.892.281C768.317,612.279,768.9,612.515,769.477,612.727Z" transform="translate(-611.185 -610.318)" fill="#3e1a4a"/>
    </g>
    <g id="Group_1915" data-name="Group 1915" transform="translate(837.813 627.876)">
      <path id="Path_618" data-name="Path 618" d="M1611.085,1101.8l13.717,2.309-3.036-14.734h-13.607Z" transform="translate(-1554.489 -1089.376)" fill="#3e1a4a"/>
      <path id="Path_619" data-name="Path 619" d="M1573.722,1098.835l13.285,2.236-.822-11.695h-13.4Z" transform="translate(-1534.748 -1089.376)" fill="#3e1a4a"/>
      <path id="Path_620" data-name="Path 620" d="M1486.728,1092.275l12.978,2.184,1.409-5.083h-13.669Z" transform="translate(-1486.728 -1089.376)" fill="#3e1a4a"/>
    </g>
  </g>
</svg>
