<svg width="200" height="150" viewBox="0 0 200 150" fill="none" xmlns="http://www.w3.org/2000/svg">
<g clip-path="url(#clip0_2767_105187)">
<path d="M117.537 15.3037C99.0418 34.2212 89.3678 35.5881 65.934 46.0532C46.7758 54.609 27.8052 71.2392 21.3338 91.9607C4.28583 146.548 80.0605 153.375 115.839 144.463C141.03 138.189 151.107 123.739 157.486 99.7673C159.967 90.4442 160.69 80.3604 164.777 71.4878C169.167 61.9555 178.157 57.3146 182.633 48.9454C204.326 8.37891 142.191 -9.91252 117.537 15.3037Z" fill="#407BFF"/>
<path opacity="0.9" d="M117.537 15.3037C99.0418 34.2212 89.3678 35.5881 65.934 46.0532C46.7758 54.609 27.8052 71.2392 21.3338 91.9607C4.28583 146.548 80.0605 153.375 115.839 144.463C141.03 138.189 151.107 123.739 157.486 99.7673C159.967 90.4442 160.69 80.3604 164.777 71.4878C169.167 61.9555 178.157 57.3146 182.633 48.9454C204.326 8.37891 142.191 -9.91252 117.537 15.3037Z" fill="white"/>
<path d="M4.38428 22.7359C4.38428 21.0756 5.75822 19.7168 7.43807 19.7168H143.723C145.402 19.7168 146.777 21.0751 146.777 22.7359V32.4538H4.38428V22.7359Z" fill="#002E45"/>
<path d="M29.0741 28.6367C27.652 28.6367 26.4945 27.4928 26.4945 26.0869C26.4945 24.681 27.6515 23.5371 29.0741 23.5371C30.4962 23.5371 31.6532 24.681 31.6532 26.0869C31.6532 27.4928 30.4962 28.6367 29.0741 28.6367ZM29.0741 24.0713C27.9502 24.0713 27.0353 24.9757 27.0353 26.0869C27.0353 27.1981 27.9497 28.1025 29.0741 28.1025C30.1981 28.1025 31.1129 27.1981 31.1129 26.0869C31.1124 24.9752 30.1981 24.0713 29.0741 24.0713Z" fill="#F0F0F0"/>
<path d="M20.8931 28.6367C19.471 28.6367 18.314 27.4928 18.314 26.0869C18.314 24.681 19.471 23.5371 20.8931 23.5371C22.3152 23.5371 23.4727 24.681 23.4727 26.0869C23.4722 27.4928 22.3152 28.6367 20.8931 28.6367ZM20.8931 24.0713C19.7691 24.0713 18.8543 24.9757 18.8543 26.0869C18.8543 27.1981 19.7686 28.1025 20.8931 28.1025C22.0175 28.1025 22.9319 27.1981 22.9319 26.0869C22.9314 24.9752 22.017 24.0713 20.8931 24.0713Z" fill="#F0F0F0"/>
<path d="M12.7112 28.6367C11.2891 28.6367 10.1316 27.4928 10.1316 26.0869C10.1316 24.681 11.2886 23.5371 12.7112 23.5371C14.1333 23.5371 15.2903 24.681 15.2903 26.0869C15.2908 27.4928 14.1338 28.6367 12.7112 28.6367ZM12.7112 24.0713C11.5872 24.0713 10.6724 24.9757 10.6724 26.0869C10.6724 27.1981 11.5868 28.1025 12.7112 28.1025C13.8351 28.1025 14.75 27.1981 14.75 26.0869C14.75 24.9752 13.8356 24.0713 12.7112 24.0713Z" fill="#F0F0F0"/>
<path d="M143.723 125.175H7.43758C5.75821 125.175 4.38379 123.817 4.38379 122.156V32.4551H146.776V122.156C146.777 123.817 145.402 125.175 143.723 125.175Z" fill="#407BFF"/>
<path d="M145.912 35.0352H5.24878V114.531H145.912V35.0352Z" fill="white"/>
<path d="M67.5748 52.5873H13.9956C12.9723 52.5873 12.1426 51.767 12.1426 50.7554V43.6815C12.1426 42.6699 12.9723 41.8496 13.9956 41.8496H67.5752C68.5985 41.8496 69.4282 42.6699 69.4282 43.6815V50.7554C69.4277 51.767 68.598 52.5873 67.5748 52.5873Z" fill="#407BFF"/>
<path d="M137.166 42.3304C137.92 42.3304 138.532 42.9367 138.532 43.682V50.7559C138.532 51.5007 137.919 52.107 137.166 52.107H83.5865C82.8327 52.107 82.2194 51.5007 82.2194 50.7559V43.682C82.2194 42.9367 82.8327 42.3304 83.5865 42.3304H137.166ZM137.166 41.8496H83.5865C82.5632 41.8496 81.733 42.6699 81.733 43.682V50.7559C81.733 51.7675 82.5627 52.5878 83.5865 52.5878H137.166C138.189 52.5878 139.019 51.7675 139.019 50.7559V43.682C139.019 42.6699 138.189 41.8496 137.166 41.8496Z" fill="#407BFF"/>
<path d="M21.6649 57.3968C26.6476 57.3968 30.7013 61.4045 30.7013 66.3305C30.7013 71.2565 26.6476 75.2642 21.6649 75.2642C16.6823 75.2642 12.6286 71.2565 12.6286 66.3305C12.6286 61.4045 16.6823 57.3968 21.6649 57.3968ZM21.6649 56.916C16.4056 56.916 12.1422 61.1314 12.1422 66.3305C12.1422 71.5296 16.4056 75.745 21.6649 75.745C26.9238 75.745 31.1877 71.5301 31.1877 66.3305C31.1877 61.1314 26.9243 56.916 21.6649 56.916Z" fill="#407BFF"/>
<path opacity="0.4" d="M28.574 70.0304C27.2482 72.4523 24.6526 74.0991 21.6645 74.0991C18.6768 74.0991 16.0807 72.4518 14.7549 70.0304C16.7334 68.7235 19.1077 67.9609 21.6645 67.9609C24.2212 67.9605 26.5956 68.7235 28.574 70.0304Z" fill="#407BFF"/>
<path opacity="0.4" d="M21.6652 67.1328C23.5986 67.1328 25.1659 65.5833 25.1659 63.6719C25.1659 61.7605 23.5986 60.2109 21.6652 60.2109C19.7318 60.2109 18.1644 61.7605 18.1644 63.6719C18.1644 65.5833 19.7318 67.1328 21.6652 67.1328Z" fill="#407BFF"/>
<path opacity="0.4" d="M134.124 71.1692H41.4326C38.729 71.1692 36.5375 69.0026 36.5375 66.3297C36.5375 63.6568 38.729 61.4902 41.4326 61.4902H134.124C136.828 61.4902 139.019 63.6568 139.019 66.3297C139.019 69.0026 136.827 71.1692 134.124 71.1692Z" fill="#407BFF"/>
<path d="M21.6649 83.0414C26.6476 83.0414 30.7013 87.049 30.7013 91.975C30.7013 96.9011 26.6476 100.909 21.6649 100.909C16.6823 100.909 12.6286 96.9011 12.6286 91.975C12.6286 87.049 16.6823 83.0414 21.6649 83.0414ZM21.6649 82.5605C16.4056 82.5605 12.1422 86.7754 12.1422 91.975C12.1422 97.1742 16.4056 101.39 21.6649 101.39C26.9238 101.39 31.1877 97.1747 31.1877 91.975C31.1877 86.7754 26.9243 82.5605 21.6649 82.5605Z" fill="#407BFF"/>
<path opacity="0.4" d="M28.574 95.6749C27.2482 98.0968 24.6526 99.7437 21.6645 99.7437C18.6768 99.7437 16.0807 98.0964 14.7549 95.6749C16.7334 94.3681 19.1077 93.6055 21.6645 93.6055C24.2212 93.6055 26.5956 94.3685 28.574 95.6749Z" fill="#407BFF"/>
<path opacity="0.4" d="M21.6652 92.7774C23.5986 92.7774 25.1659 91.2279 25.1659 89.3164C25.1659 87.405 23.5986 85.8555 21.6652 85.8555C19.7318 85.8555 18.1644 87.405 18.1644 89.3164C18.1644 91.2279 19.7318 92.7774 21.6652 92.7774Z" fill="#407BFF"/>
<path opacity="0.4" d="M134.124 96.8137H41.4326C38.729 96.8137 36.5375 94.6471 36.5375 91.9742C36.5375 89.3014 38.729 87.1348 41.4326 87.1348H134.124C136.828 87.1348 139.019 89.3014 139.019 91.9742C139.019 94.6471 136.827 96.8137 134.124 96.8137Z" fill="#407BFF"/>
<path opacity="0.1" d="M111.293 96.6759C111.293 99.6234 111.585 102.556 112.164 105.436C106.736 108.62 103.22 114.481 103.22 120.933C103.22 122.395 103.395 123.814 103.73 125.174H143.723C145.401 125.174 146.777 123.818 146.777 122.155V52.9355C126.496 57.388 111.293 75.3082 111.293 96.6759Z" fill="black"/>
<path d="M185.22 126.854C201.02 111.233 201.02 85.9074 185.22 70.287C169.42 54.6665 143.803 54.6665 128.003 70.287C112.203 85.9074 112.203 111.233 128.003 126.854C143.803 142.474 169.42 142.474 185.22 126.854Z" fill="#407BFF"/>
<path d="M182.881 124.301C197.285 110.061 197.285 86.9739 182.881 72.7342C168.478 58.4944 145.125 58.4944 130.722 72.7342C116.318 86.9739 116.318 110.061 130.722 124.301C145.125 138.541 168.478 138.541 182.881 124.301Z" fill="white"/>
<path d="M144.361 74.0527L142.007 77.0329C142.007 77.0329 139.94 78.5845 139.157 79.9096C138.242 80.8059 137.403 81.7218 136.577 82.6864C135.646 83.7817 134.763 84.926 133.933 86.1536C133.121 87.3979 132.328 88.6813 131.734 90.2843C131.447 91.096 131.17 91.9749 131.146 93.1649C131.14 93.7587 131.216 94.4564 131.513 95.2079C131.805 95.9595 132.382 96.7221 133.056 97.2269L133.573 97.614L134.346 97.7587C135.904 98.0501 137.453 98.1938 138.977 98.2078C139.01 98.2083 139.558 98.1573 139.591 98.1573L138.972 92.0739C138.45 92.0932 137.333 92.1749 136.82 92.1638C136.838 92.0701 136.858 91.9744 136.882 91.8773C137.13 90.8546 137.601 89.6674 138.15 88.5163C138.694 87.3508 139.321 86.1815 139.974 85.0145C140.546 83.988 141.161 82.9532 141.762 81.944L144.673 80.1279L146.384 77.131L144.361 74.0527ZM136.768 93.0462C136.758 93.0106 136.753 92.9615 136.75 92.9067C136.77 92.9471 136.786 92.9861 136.793 93.0173C136.827 93.1318 136.79 93.139 136.768 93.0462Z" fill="#7F3E3B"/>
<path d="M160.935 80.494C161.009 80.1247 160.89 80.0997 160.795 80.1017C160.721 80.1031 160.486 80.282 160.431 80.5046C159.979 81.1979 159.422 81.7965 158.684 82.323C158.588 82.3913 158.495 82.4611 158.392 82.5269C157.456 83.1328 156.476 83.4232 155.525 83.4602C155.544 83.5612 155.563 83.6621 155.579 83.7631C155.616 83.9997 155.643 84.2348 155.659 84.4685C155.768 86.0023 155.364 87.427 153.618 88.2415C153.611 88.3372 153.38 88.4367 153.302 88.5055C152.814 88.9348 152.137 89.8768 152.144 90.6927C152.15 91.3202 152.739 91.8135 153.437 92.4097L154.42 93.0603L155.753 92.9348C159.844 91.7472 161.751 88.0516 161.663 87.7785C160.603 86.0672 160.618 83.0832 160.935 80.494Z" fill="#7F3E3B"/>
<path d="M169.778 89.2566C169.778 89.2566 169.504 89.207 169.036 89.133C168.067 88.9796 163.727 88.0093 161.632 87.8223C161.631 87.8237 161.63 87.8242 161.63 87.8256C161.137 88.8459 159.55 91.3467 155.459 92.5343L154.447 92.7714L153.494 92.2708C152.795 91.6746 152.438 91.0543 152.432 90.4269C152.425 89.6109 153.005 88.9282 153.492 88.4988C153.529 88.4666 153.556 88.4286 153.577 88.3877C153.568 88.2714 153.567 88.1963 153.578 88.1853C153.274 88.2233 149.395 88.8065 149.066 88.858C144.017 89.6499 138.333 91.8039 138.333 91.8039L138.373 92.1492L139.076 98.2075L139.342 100.5C139.342 100.5 141.291 100.284 143.84 99.8394C143.141 105.967 143.009 114.842 145.133 126.252C147.371 126.211 153.436 126.092 153.436 126.099C159.397 125.988 165.652 125.872 167.86 125.831C167.919 124.872 167.813 122.88 167.707 120.159L167.578 115.959C167.499 112.247 167.515 107.795 167.852 103.011C167.905 102.259 167.967 101.497 168.037 100.729C168.038 100.73 168.039 100.731 168.04 100.732C170.987 103.885 173.94 106.895 173.94 106.895L175.333 105.567C177.118 104.714 178.524 103.192 179.751 101.357L181.388 99.7967C181.389 99.7967 173.765 89.9191 169.778 89.2566Z" fill="#407BFF"/>
<path opacity="0.3" d="M165.783 98.2852C165.89 99.2747 166.214 100.245 166.732 101.12L167.852 103.013C167.905 102.261 167.967 101.499 168.037 100.731C167.268 99.9084 166.499 99.0761 165.783 98.2852Z" fill="black"/>
<path opacity="0.3" d="M168.04 100.731C168.039 100.73 168.039 100.729 168.038 100.729C167.968 101.496 167.905 102.258 167.852 103.01L167.853 103.012C167.906 102.26 167.97 101.498 168.04 100.731Z" fill="black"/>
<path d="M155.524 83.459C155.543 83.56 155.562 83.6614 155.578 83.7619C155.563 83.6609 155.544 83.56 155.524 83.459Z" fill="#7F3E3B"/>
<path opacity="0.2" d="M155.659 84.471C155.642 84.2378 155.616 84.0022 155.578 83.7656C155.615 84.0022 155.644 84.2378 155.659 84.471Z" fill="black"/>
<path d="M158.683 82.3242C158.587 82.393 158.494 82.4622 158.392 82.5281C157.456 83.1339 156.475 83.4243 155.525 83.4614C155.544 83.5623 155.563 83.6633 155.578 83.7643C155.616 84.0008 155.642 84.236 155.659 84.4696C155.66 84.4831 155.662 84.4971 155.663 84.5105C156.709 84.3422 158.072 83.3916 158.683 82.3242Z" fill="#7F3E3B"/>
<path d="M164.142 88.5509C164.055 88.1619 163.754 87.8335 163.336 87.7354L162.326 87.4974C162.06 87.4344 161.798 87.5517 161.662 87.7777C161.652 87.794 161.638 87.8065 161.629 87.8239C161.137 88.8442 159.55 91.3449 155.459 92.5325L155.14 92.6071L154.446 92.7696L153.494 92.2691C152.795 91.6728 152.437 91.0526 152.432 90.4251C152.425 89.6091 153.004 88.9264 153.492 88.497C153.529 88.4648 153.611 88.3595 153.632 88.3186C153.676 88.208 153.667 88.1527 153.589 88.1042C152.518 87.3401 150.111 88.5186 150.015 88.7235C149.913 88.8216 149.811 88.9293 149.711 89.0485C149.221 89.6317 148.808 90.4708 148.933 91.5969C149.21 94.0976 151.308 95.2809 151.397 95.33C151.419 95.342 151.443 95.3478 151.467 95.3478C151.493 95.3478 151.52 95.3401 151.543 95.3256C151.588 95.2978 151.613 95.2477 151.61 95.1963C151.605 95.1246 151.516 93.4567 153.41 92.546L154.263 92.9936C150.603 107.835 153.086 125.618 153.154 126.1C153.334 126.097 153.436 126.095 153.436 126.096C153.436 126.09 153.442 126.085 153.441 126.079C153.414 125.899 150.86 107.957 154.547 93.0369L155.44 92.8278C156.476 94.0784 155.984 95.9344 155.979 95.9531C155.965 96.0055 155.982 96.0618 156.024 96.0974C156.05 96.12 156.084 96.132 156.118 96.132C156.137 96.132 156.156 96.1281 156.175 96.1204C156.369 96.0363 160.969 94.0418 162.577 92.1436C163.532 91.016 163.957 89.8217 164.144 89.0192C164.181 88.86 164.176 88.7014 164.142 88.5509Z" fill="white"/>
<path opacity="0.2" d="M158.683 82.3242C158.587 82.393 158.494 82.4622 158.392 82.5281C157.456 83.1339 156.475 83.4243 155.525 83.4614C155.544 83.5623 155.563 83.6633 155.578 83.7643C155.616 84.0008 155.642 84.236 155.659 84.4696C155.66 84.4831 155.662 84.4971 155.663 84.5105C156.709 84.3422 158.072 83.3916 158.683 82.3242Z" fill="black"/>
<path d="M151.606 71.1046C152.095 70.241 152.688 69.4592 153.391 68.8327C153.058 68.585 152.777 68.3057 152.566 67.9922C151.8 68.3475 151.076 69.3539 150.701 71.6022C150.604 72.1835 150.604 72.7172 150.661 73.2125C150.808 72.7894 150.975 72.3715 151.164 71.9657L151.606 71.1046Z" fill="#263238"/>
<path d="M160.646 77.009C162.84 74.4977 161.445 71.2993 160.161 70.5795C160.398 67.2224 155.514 66.7834 153.392 68.8341C152.689 69.4606 152.096 70.2424 151.607 71.106L151.165 71.9667C150.976 72.3725 150.809 72.7903 150.662 73.2134C150.097 74.8324 149.828 76.5287 149.835 77.9389C149.851 81.1566 152.535 83.5775 155.525 83.4612H155.526C156.476 83.4242 157.457 83.1333 158.393 82.5279C158.495 82.462 158.588 82.3928 158.684 82.324C159.422 81.7971 159.98 81.1989 160.432 80.5056C161.524 78.778 161.238 77.9077 160.646 77.009Z" fill="#7F3E3B"/>
<path d="M150.898 71.6804C150.828 71.766 150.842 71.8915 150.929 71.9602C150.967 71.9905 151.013 72.0049 151.059 72.004C151.097 72.0035 151.132 71.9881 151.165 71.967C151.181 71.9559 151.199 71.9458 151.212 71.9299C151.779 71.2313 152.509 71.2674 152.542 71.2693C152.649 71.276 152.748 71.1933 152.755 71.0842C152.762 70.975 152.68 70.8803 152.569 70.8721C152.543 70.8702 152.105 70.8515 151.607 71.1058C151.371 71.226 151.123 71.4025 150.898 71.6804Z" fill="#263238"/>
<path d="M156.158 77.446C156.119 77.4066 156.055 77.4061 156.016 77.4441C156.006 77.4532 155.072 78.3302 153.597 78.0398C153.543 78.0293 153.49 78.0639 153.479 78.1182C153.468 78.1721 153.503 78.2245 153.558 78.235C153.808 78.2846 154.043 78.3028 154.261 78.2985C155.424 78.2774 156.122 77.6196 156.156 77.5864C156.196 77.5484 156.197 77.4854 156.158 77.446Z" fill="#263238"/>
<path d="M153.535 74.0078C153.535 74.0078 152.318 75.7614 151.257 76.5143C151.722 77.1764 152.792 77.1264 152.792 77.1264L153.535 74.0078Z" fill="#630F0F"/>
<path d="M151.826 74.1263C152.046 74.1696 152.288 73.9368 152.366 73.607C152.445 73.2767 152.33 72.9742 152.111 72.931C151.891 72.8877 151.649 73.1204 151.571 73.4502C151.492 73.7806 151.606 74.0835 151.826 74.1263Z" fill="#263238"/>
<path d="M155.626 74.8763C155.846 74.9196 156.087 74.6868 156.166 74.357C156.245 74.0271 156.131 73.7247 155.911 73.681C155.691 73.6377 155.449 73.8704 155.371 74.2002C155.292 74.5306 155.407 74.833 155.626 74.8763Z" fill="#263238"/>
<path d="M160.605 70.5683C160.472 70.576 160.322 70.5804 160.161 70.5808C159.928 71.1141 159.729 71.7973 159.584 72.6705C159.262 74.5943 159.921 76.0459 160.646 77.0104C161.643 78.6851 162.92 78.638 164.026 77.3623C165.808 75.6718 167.524 72.3012 163.981 69.6543C163.424 70.125 162.378 70.4659 160.605 70.5683Z" fill="#263238"/>
<path d="M163.083 76.3714C162.279 76.0458 161.369 76.4281 160.646 77.0089C160.233 77.3397 159.881 77.734 159.643 78.1004C158.955 79.163 159.199 80.4006 160.431 80.5059C160.499 80.5117 160.569 80.516 160.643 80.5146C160.739 80.5132 160.836 80.505 160.935 80.4954C161.807 80.4122 162.773 80.0266 163.5 79.2928C164.051 78.7356 164.229 77.985 164.027 77.3609C163.89 76.9392 163.584 76.5743 163.083 76.3714Z" fill="#7F3E3B"/>
<path d="M153.391 68.8342C155.17 70.1584 158.409 70.5868 160.16 70.5796C160.322 70.5791 160.471 70.5748 160.605 70.5671C162.377 70.4647 163.424 70.1238 163.98 69.6531C166.036 67.9135 161.35 64.3809 161.35 64.3809C161.35 64.3809 161.873 65.6488 160.783 65.9983C159.693 66.3479 152.012 63.5236 152.143 66.7287C152.162 67.2028 152.316 67.6221 152.566 67.9942C152.777 68.3073 153.059 68.5861 153.391 68.8342Z" fill="#263238"/>
<path d="M145.133 126.254C145.133 126.254 145.002 127.375 144.798 129.266C148.509 130.507 152.479 131.189 156.613 131.189C160.512 131.189 164.267 130.586 167.795 129.478C167.847 127.196 167.879 125.832 167.879 125.832L153.435 126.1L153.154 126.106L145.133 126.254Z" fill="#263238"/>
<path d="M182.738 106.889C182.698 106.487 182.6 106.076 182.457 105.69C182.382 105.5 182.304 105.305 182.208 105.133L182.065 104.871L181.987 104.74C181.296 103.555 180.542 102.436 179.752 101.355L175.334 105.566C175.922 106.285 176.488 107.01 177.014 107.749C176.941 107.939 176.816 108.188 176.641 108.444C176.063 109.29 175.185 110.229 174.232 111.094C172.424 112.759 170.324 114.346 168.252 115.867L167.578 115.958L164.863 116.322L162.195 118.103L163.949 121.636L166.156 120.518C166.156 120.518 166.896 120.433 167.708 120.158C168.456 119.904 169.266 119.488 169.619 118.82C170.937 118.31 172.169 117.74 173.411 117.109C174.714 116.44 175.992 115.702 177.25 114.856C177.877 114.43 178.495 113.971 179.108 113.464C179.723 112.958 180.329 112.399 180.911 111.72C181.485 111.03 182.083 110.245 182.496 109.043C182.696 108.445 182.82 107.698 182.738 106.889ZM177.054 107.646C177.051 107.622 177.044 107.596 177.044 107.574C177.043 107.458 177.085 107.416 177.085 107.485C177.087 107.521 177.075 107.577 177.054 107.646Z" fill="#7F3E3B"/>
<path d="M134.617 121.099C135.798 113.904 130.856 107.124 123.578 105.956C116.3 104.788 109.442 109.675 108.261 116.87C107.08 124.065 112.022 130.845 119.301 132.013C126.579 133.181 133.436 128.294 134.617 121.099Z" fill="#002E45"/>
<path d="M156.355 72.3744C156.393 72.3797 157.102 72.4889 157.461 73.2663C157.496 73.3409 157.571 73.3841 157.648 73.3827C157.675 73.3822 157.702 73.3765 157.728 73.3649C157.829 73.3192 157.874 73.201 157.827 73.1009C157.37 72.1119 156.445 71.985 156.406 71.9801C156.297 71.9662 156.195 72.0431 156.181 72.1523C156.167 72.2605 156.244 72.3605 156.355 72.3744Z" fill="#263238"/>
<path d="M115.612 119.671L119.113 123.937L127.771 113.84" stroke="#4ADE80" stroke-width="3" stroke-linecap="round" stroke-linejoin="round"/>
</g>
<defs>
<clipPath id="clip0_2767_105187">
<rect width="200" height="150" fill="white"/>
</clipPath>
</defs>
</svg>
