<svg width="200" height="150" viewBox="0 0 200 150" fill="none" xmlns="http://www.w3.org/2000/svg">
<g clip-path="url(#clip0_5842_44800)">
<path opacity="0.9" d="M109.674 26.1441C90.99 44.4094 81.2171 45.7292 57.5439 55.8335C38.1899 64.0943 19.0255 80.1512 12.488 100.158C-4.73416 152.864 71.8148 159.455 107.959 150.851C133.407 144.793 143.588 130.841 150.031 107.696C152.537 98.6941 153.269 88.9579 157.397 80.3912C161.832 71.1875 170.914 66.7066 175.435 58.626C197.35 19.458 134.58 1.79718 109.674 26.1441Z" fill="#E6EFFE"/>
<path d="M11.4485 147.591L11 134.218L24.3732 133.77L24.8217 147.143L11.4485 147.591ZM12.1966 135.337L12.5675 146.394L23.625 146.024L23.2541 134.966L12.1966 135.337Z" fill="black"/>
<path d="M145.882 63.2497C145.882 65.0011 144.462 66.4213 142.71 66.4213C140.959 66.4213 139.539 65.0012 139.539 63.2497C139.539 61.4982 140.959 60.0781 142.71 60.0781C144.462 60.0781 145.882 61.4982 145.882 63.2497Z" fill="#EC6750"/>
<path d="M165.74 121.966C165.74 123.718 164.32 125.138 162.569 125.138C160.817 125.138 159.397 123.718 159.397 121.966C159.397 120.215 160.817 118.795 162.569 118.795C164.32 118.795 165.74 120.215 165.74 121.966Z" fill="#EC6750"/>
<path d="M42.5762 129.208C42.5762 131.532 40.6921 133.416 38.368 133.416C36.0441 133.416 34.1602 131.532 34.1602 129.208C34.1602 126.884 36.0441 125 38.368 125C40.6921 125 42.5762 126.884 42.5762 129.208Z" fill="#EC6750"/>
<path d="M108.794 40.3895L108.562 41.2832L117.445 43.5984L117.678 42.7047L108.794 40.3895Z" fill="black"/>
<path d="M113.823 37.4466L111.507 46.3301L112.4 46.5631L114.717 37.6796L113.823 37.4466Z" fill="black"/>
<path d="M148.233 104.942L148 105.836L156.883 108.151L157.116 107.257L148.233 104.942Z" fill="black"/>
<path d="M153.262 101.999L150.945 110.883L151.839 111.116L154.155 102.232L153.262 101.999Z" fill="black"/>
<path d="M131.85 55.0326C127.793 54.657 124.798 51.0502 125.173 46.9926C125.549 42.9349 129.156 39.9394 133.213 40.315C137.271 40.6907 140.266 44.2975 139.89 48.3551C139.515 52.4128 135.908 55.4083 131.85 55.0326ZM133.112 41.4066C129.657 41.0867 126.585 43.6379 126.265 47.0936C125.945 50.5494 128.496 53.6211 131.951 53.941C135.407 54.2609 138.479 51.7098 138.799 48.2541C139.119 44.7983 136.568 41.7265 133.112 41.4066Z" fill="black"/>
<path d="M151.709 113.749C147.651 113.374 144.656 109.767 145.032 105.709C145.407 101.652 149.014 98.6561 153.071 99.0318C157.129 99.4075 160.125 103.014 159.749 107.072C159.373 111.13 155.766 114.125 151.709 113.749ZM152.97 100.123C149.515 99.8035 146.443 102.355 146.123 105.81C145.804 109.266 148.354 112.338 151.81 112.658C155.266 112.978 158.337 110.427 158.657 106.971C158.977 103.515 156.426 100.443 152.97 100.123Z" fill="black"/>
<path d="M94.5 51C70.4756 51 51 70.4756 51 94.5C51 118.524 70.4757 138 94.5 138C118.524 138 138 118.524 138 94.5C138 70.4757 118.524 51 94.5 51ZM94.5 127.939C76.0321 127.939 61.061 112.968 61.061 94.5C61.061 76.0322 76.0321 61.061 94.5 61.061C112.968 61.061 127.939 76.0322 127.939 94.5C127.939 112.968 112.968 127.939 94.5 127.939Z" fill="url(#paint0_linear_5842_44800)"/>
<path d="M94 51C70.2518 51 51 70.2518 51 94C51 117.748 70.2518 137 94 137C117.748 137 137 117.748 137 94C137 70.2518 117.748 51 94 51ZM94 127.542C75.4753 127.542 60.4581 112.525 60.4581 94C60.4581 75.4753 75.4753 60.4581 94 60.4581C112.525 60.4581 127.542 75.4753 127.542 94C127.542 112.525 112.525 127.542 94 127.542Z" fill="#F9A7A1"/>
<path d="M94 52C70.804 52 52 70.804 52 94C52 117.196 70.804 136 94 136C117.196 136 136 117.196 136 94C136 70.804 117.196 52 94 52ZM94 61.3669C101.41 61.3669 107.387 63.1445 112.886 67.2798L67.3364 112.849C63.2011 107.351 61.3871 101.41 61.3871 94C61.387 75.8391 75.8391 61.3669 94 61.3669ZM94 126.575C86.5902 126.575 80.7784 124.875 75.2799 120.74L120.713 75.0898C124.848 80.5883 126.595 86.5903 126.595 94.0001C126.595 112.161 112.161 126.575 94 126.575Z" fill="url(#paint1_linear_5842_44800)"/>
<path d="M94.5 52C71.0279 52 52 71.0279 52 94.5C52 117.972 71.0279 137 94.5 137C117.972 137 137 117.972 137 94.5C137 71.0279 117.972 52 94.5 52ZM94.5 61.2254C101.998 61.2254 108.776 63.6015 114.34 67.786L67.7616 114.307C63.577 108.743 61.2254 101.998 61.2254 94.5C61.2254 76.1229 76.1229 61.2254 94.5 61.2254ZM94.5 127.775C87.002 127.775 80.2564 125.423 74.6923 121.238L121.237 74.6912C125.422 80.2553 127.775 87.002 127.775 94.5001C127.775 112.877 112.877 127.775 94.5 127.775Z" fill="#F9A7A1"/>
<path d="M94.5 52C71.0279 52 52 71.0279 52 94.5C52 117.972 71.0279 137 94.5 137C117.972 137 137 117.972 137 94.5C137 71.0279 117.972 52 94.5 52ZM94.5 61.2253C101.998 61.2253 108.916 63.7061 114.48 67.8907L67.8906 114.48C63.7061 108.916 61.2253 101.998 61.2253 94.5C61.2253 76.1229 76.1229 61.2253 94.5 61.2253ZM94.5 127.775C87.0019 127.775 80.0837 125.294 74.5197 121.109L121.109 74.5197C125.294 80.0837 127.775 87.0019 127.775 94.4999C127.775 112.877 112.877 127.775 94.5 127.775Z" fill="url(#paint2_linear_5842_44800)"/>
</g>
<defs>
<linearGradient id="paint0_linear_5842_44800" x1="69.6653" y1="57.6029" x2="119.441" y2="131.556" gradientUnits="userSpaceOnUse">
<stop stop-color="#F9A7A1"/>
<stop offset="0.502" stop-color="#F02213"/>
<stop offset="0.5205" stop-color="#EA2113"/>
<stop offset="0.6773" stop-color="#B91A0F"/>
<stop offset="0.815" stop-color="#96150C"/>
<stop offset="0.9273" stop-color="#80120B"/>
<stop offset="1" stop-color="#78110A"/>
</linearGradient>
<linearGradient id="paint1_linear_5842_44800" x1="117.536" y1="130.585" x2="70.9312" y2="58.1413" gradientUnits="userSpaceOnUse">
<stop stop-color="#F9A7A1"/>
<stop offset="0.502" stop-color="#F02213"/>
<stop offset="0.5205" stop-color="#EA2113"/>
<stop offset="0.6773" stop-color="#B91A0F"/>
<stop offset="0.815" stop-color="#96150C"/>
<stop offset="0.9273" stop-color="#80120B"/>
<stop offset="1" stop-color="#78110A"/>
</linearGradient>
<linearGradient id="paint2_linear_5842_44800" x1="94.5" y1="52" x2="94.5" y2="137.853" gradientUnits="userSpaceOnUse">
<stop stop-color="#F34E42"/>
<stop offset="0.502" stop-color="#F02213"/>
<stop offset="0.6983" stop-color="#D21E10"/>
<stop offset="0.8814" stop-color="#BC1B0F"/>
<stop offset="1" stop-color="#B41A0E"/>
</linearGradient>
<clipPath id="clip0_5842_44800">
<rect width="200" height="150" fill="white"/>
</clipPath>
</defs>
</svg>
