<svg width="44" height="44" viewBox="0 0 44 44" fill="none" xmlns="http://www.w3.org/2000/svg">
<circle cx="22" cy="22" r="22" fill="#F4F4F4"/>
<path d="M10 17.1992V17.8562H14.6725V17.1992H10ZM15.3325 17.1992V17.8562H21.9895C21.9895 17.8562 21.3092 17.1992 20.4093 17.1992H15.3325ZM23.296 17.1992V17.8562H27.3235L27.0835 17.1992H23.296ZM30.211 17.1992L29.971 17.8562H33.961V17.1992H30.211ZM10 18.4765V19.1335H14.6725V18.4765H10ZM15.3325 18.4772V19.1335H22.762C22.762 19.1335 22.675 18.628 22.5243 18.4772H15.3325ZM23.296 18.4772V19.1335H27.766L27.5448 18.4772H23.296ZM29.7332 18.4772L29.512 19.1335H33.9632V18.4772H29.7332ZM11.35 19.7537V20.4115H13.3728V19.7537H11.35ZM16.6825 19.7537V20.4115H18.7V19.7537H16.6825ZM20.6725 19.7537V20.4115H22.696C22.696 20.4115 22.8235 20.0642 22.8235 19.7537H20.6725ZM24.6445 19.7537V20.4115H28.225L27.985 19.7537H24.6445ZM29.2983 19.7537L29.0583 20.4115H32.65V19.7537H29.2983ZM11.35 21.0317V21.6887H13.3728V21.0317H11.35ZM16.6825 21.0317V21.6887H21.8575C21.8575 21.6887 22.2895 21.3512 22.4275 21.0317H16.6825ZM24.646 21.0317V21.6887H26.6688V21.3242L26.7962 21.6895H30.5012L30.6392 21.3242V21.6895H32.65V21.0325H28.852L28.6495 21.589L28.447 21.0325L24.646 21.0317ZM11.35 22.3097V22.9667H13.3728V22.3097H11.35ZM16.6825 22.3097V22.9667H22.42C22.282 22.648 21.85 22.3097 21.85 22.3097H16.6825ZM24.646 22.3097V22.9667H26.6688V22.3097H24.646ZM27.037 22.3097L27.2815 22.9667H30.0602L30.2853 22.3097H27.037ZM30.6415 22.3097V22.9667H32.65V22.3097H30.6415ZM11.35 23.587V24.244H13.3728V23.587H11.35ZM16.6825 23.587V24.244H18.7V23.587H16.6825ZM20.6725 23.587V24.244H22.825C22.825 23.9342 22.6975 23.587 22.6975 23.587H20.6725ZM24.6445 23.587V24.244H26.6672V23.587H24.6445ZM27.4945 23.587L27.7315 24.244H29.5945L29.8345 23.587H27.4945ZM30.64 23.587V24.244H32.65V23.587H30.64ZM10.0375 24.8642V25.522H14.71V24.8642H10.0375ZM15.3348 24.8642V25.522H22.5272C22.6787 25.372 22.765 24.8642 22.765 24.8642H15.3348ZM23.3342 24.8642V25.522H26.6642V24.8642H23.3342ZM27.9505 24.8642L28.1943 25.522H29.1423L29.371 24.8642H27.9505ZM30.6355 24.8642V25.522H34V24.8642H30.6355ZM10.0375 26.1422V26.7992H14.71V26.1422H10.0375ZM15.3348 26.1422V26.7985H20.4123C21.3123 26.7985 21.9932 26.1422 21.9932 26.1422H15.3348ZM23.3342 26.1422V26.7992H26.6642V26.1422H23.3342ZM28.4118 26.1422L28.6465 26.797L28.687 26.7977L28.9255 26.1415L28.4118 26.1422ZM30.6348 26.1422V26.7992H34V26.1422H30.6348Z" fill="#1F70C1"/>
</svg>
