<svg width="150" height="114" viewBox="0 0 150 114" fill="none" xmlns="http://www.w3.org/2000/svg">
<path d="M143.755 69.2805C143.755 86.1522 137.72 101.622 127.688 113.638H21.2597C11.2282 101.622 5.19336 86.1522 5.19336 69.2805C5.19336 31.0198 36.2132 0 74.4739 0C112.735 0 143.755 31.0198 143.755 69.2805Z" fill="#CEEDED"/>
<path d="M41.3736 58.377H18.9671C17.3542 58.377 16.0469 57.0697 16.0469 55.4567V54.2386C16.0469 52.6256 17.3542 51.3184 18.9671 51.3184H41.3739C42.9869 51.3184 44.2942 52.626 44.2942 54.2386V55.4567C44.2942 57.0693 42.9865 58.377 41.3736 58.377Z" fill="#D3EDE8"/>
<path d="M34.4947 53.418H29.5745C27.9616 53.418 26.6543 52.1107 26.6543 50.4978V49.2796C26.6543 47.6667 27.9616 46.3594 29.5745 46.3594H34.4947C36.1076 46.3594 37.4149 47.667 37.4149 49.2796V50.4978C37.4149 52.1107 36.1076 53.418 34.4947 53.418Z" fill="#D3EDE8"/>
<path d="M109.125 76.7598H131.532C133.145 76.7598 134.452 75.4525 134.452 73.8396V72.6214C134.452 71.0085 133.145 69.7012 131.532 69.7012H109.125C107.512 69.7012 106.205 71.0085 106.205 72.6214V73.8396C106.205 75.4521 107.512 76.7598 109.125 76.7598Z" fill="#D3EDE8"/>
<path d="M116.004 71.8027H120.924C122.537 71.8027 123.845 70.4955 123.845 68.8825V67.6644C123.845 66.0514 122.537 64.7441 120.924 64.7441H116.004C114.391 64.7441 113.084 66.0514 113.084 67.6644V68.8825C113.084 70.4951 114.392 71.8027 116.004 71.8027Z" fill="#D3EDE8"/>
<path d="M122.752 113.573H26.1962C24.855 113.573 23.7676 112.486 23.7676 111.145V110.132C23.7676 108.791 24.855 107.703 26.1962 107.703H122.752C124.093 107.703 125.18 108.791 125.18 110.132V111.145C125.18 112.486 124.093 113.573 122.752 113.573Z" fill="#A4D8D6"/>
<path d="M106.532 109.187H42.4153C39.0642 109.187 36.3477 106.47 36.3477 103.119V60.0195H112.599V103.119C112.6 106.47 109.883 109.187 106.532 109.187Z" fill="#F49600"/>
<path d="M112.6 60.0184H74.4736H36.3477L70.53 23.9156C72.6721 21.6531 76.2747 21.6531 78.4168 23.9156L112.6 60.0184Z" fill="#F49600"/>
<path d="M101.184 78.5518H41.2382C39.8488 78.5518 38.7227 77.4257 38.7227 76.0363V33.4472C38.7227 32.0577 39.8488 30.9316 41.2382 30.9316H101.184C102.573 30.9316 103.699 32.0577 103.699 33.4472V76.0363C103.7 77.4257 102.573 78.5518 101.184 78.5518Z" fill="#EDEDED"/>
<path d="M31.5785 36.1122H53.345C55.5921 36.1122 57.4138 34.2904 57.4138 32.0434V30.3461C57.4138 28.0991 55.5921 26.2773 53.345 26.2773H31.5785C29.3315 26.2773 27.5098 28.0991 27.5098 30.3461V32.0434C27.5098 34.2904 29.3315 36.1122 31.5785 36.1122Z" fill="#13D2C2"/>
<path d="M41.1625 29.2056H48.0179C50.2649 29.2056 52.0866 27.3838 52.0866 25.1368V23.4399C52.0866 21.1928 50.2649 19.3711 48.0179 19.3711H41.1625C38.9155 19.3711 37.0938 21.1928 37.0938 23.4399V25.1368C37.0938 27.3838 38.9155 29.2056 41.1625 29.2056Z" fill="#13D2C2"/>
<path opacity="0.0951" d="M108.934 79.8311H48.9882C47.5988 79.8311 46.4727 78.705 46.4727 77.3156V34.7264C46.4727 33.337 47.5988 32.2109 48.9882 32.2109H108.934C110.323 32.2109 111.449 33.337 111.449 34.7264V77.3156C111.449 78.705 110.323 79.8311 108.934 79.8311Z" fill="#020202"/>
<path d="M107.266 81.667H47.3202C45.9308 81.667 44.8047 80.5409 44.8047 79.1515V36.5624C44.8047 35.173 45.9308 34.0469 47.3202 34.0469H107.266C108.655 34.0469 109.781 35.173 109.781 36.5624V79.1515C109.781 80.5409 108.655 81.667 107.266 81.667Z" fill="#F7F7F7"/>
<path opacity="0.0951" d="M104.448 88.1943H44.5018C43.1124 88.1943 41.9863 87.0682 41.9863 85.6788V43.0897C41.9863 41.7003 43.1124 40.5742 44.5018 40.5742H104.448C105.837 40.5742 106.963 41.7003 106.963 43.0897V85.6788C106.963 87.0679 105.837 88.1943 104.448 88.1943Z" fill="#020202"/>
<path d="M102.889 90.1982H42.9432C41.5538 90.1982 40.4277 89.0721 40.4277 87.6827V45.0936C40.4277 43.7042 41.5538 42.5781 42.9432 42.5781H102.889C104.278 42.5781 105.405 43.7042 105.405 45.0936V87.6827C105.405 89.0721 104.278 90.1982 102.889 90.1982Z" fill="white"/>
<path d="M96.2121 64.2376H49.6227C49.3178 64.2376 49.0703 63.9905 49.0703 63.6852V63.4547C49.0703 63.1498 49.3178 62.9023 49.6227 62.9023H96.2121C96.517 62.9023 96.7645 63.1498 96.7645 63.4547V63.6852C96.7645 63.9905 96.5174 64.2376 96.2121 64.2376Z" fill="#B5BBC1"/>
<path d="M96.2121 68.6888H49.6227C49.3178 68.6888 49.0703 68.4413 49.0703 68.1364V67.9059C49.0703 67.601 49.3178 67.3535 49.6227 67.3535H96.2121C96.517 67.3535 96.7645 67.601 96.7645 67.9059V68.1364C96.7645 68.4413 96.5174 68.6888 96.2121 68.6888Z" fill="#B5BBC1"/>
<path d="M96.2121 73.138H49.6227C49.3178 73.138 49.0703 72.8905 49.0703 72.5856V72.3551C49.0703 72.0502 49.3178 71.8027 49.6227 71.8027H96.2121C96.517 71.8027 96.7645 72.0502 96.7645 72.3551V72.5856C96.7645 72.8909 96.5174 73.138 96.2121 73.138Z" fill="#B5BBC1"/>
<path d="M96.2121 77.5892H49.6227C49.3178 77.5892 49.0703 77.3417 49.0703 77.0368V76.8063C49.0703 76.5014 49.3178 76.2539 49.6227 76.2539H96.2121C96.517 76.2539 96.7645 76.5014 96.7645 76.8063V77.0368C96.7645 77.3417 96.5174 77.5892 96.2121 77.5892Z" fill="#B5BBC1"/>
<path d="M96.2121 82.0404H49.6227C49.3178 82.0404 49.0703 81.7929 49.0703 81.488V81.2575C49.0703 80.9525 49.3178 80.7051 49.6227 80.7051H96.2121C96.517 80.7051 96.7645 80.9525 96.7645 81.2575V81.488C96.7645 81.7933 96.5174 82.0404 96.2121 82.0404Z" fill="#B5BBC1"/>
<path d="M112.601 60.0195V101.854C112.601 105.904 109.316 109.189 105.266 109.189H43.6801C39.6301 109.189 36.3457 105.904 36.3457 101.854V60.0195L74.4731 84.6885L112.601 60.0195Z" fill="#FDAD13"/>
<path opacity="0.3323" d="M102.213 66.7397V91.471C102.213 95.521 98.9329 98.801 94.8829 98.801H36.3457V101.854C36.3457 105.904 39.6301 109.189 43.6801 109.189H105.266C109.316 109.189 112.6 105.904 112.6 101.854V60.0195L102.213 66.7397Z" fill="#FDAD13"/>
<path d="M43.6128 94.4147H42.8064C41.7384 94.4147 40.873 93.5493 40.873 92.4814V87.1462C40.873 86.0783 41.7384 85.2129 42.8064 85.2129H43.6128C44.6807 85.2129 45.5461 86.0783 45.5461 87.1462V92.4814C45.5461 93.5493 44.6807 94.4147 43.6128 94.4147Z" fill="#FDAD13"/>
<path d="M43.6128 83.5355H42.8064C41.7384 83.5355 40.873 82.6701 40.873 81.6022V80.1833C40.873 79.1154 41.7384 78.25 42.8064 78.25H43.6128C44.6807 78.25 45.5461 79.1154 45.5461 80.1833V81.6022C45.5461 82.6697 44.6807 83.5355 43.6128 83.5355Z" fill="#FDAD13"/>
<path d="M84.1215 54.7239H61.9352C61.6303 54.7239 61.3828 54.4765 61.3828 54.1716V53.941C61.3828 53.6361 61.6303 53.3887 61.9352 53.3887H84.1215C84.4264 53.3887 84.6738 53.6361 84.6738 53.941V54.1716C84.6738 54.4769 84.4264 54.7239 84.1215 54.7239Z" fill="#B5BBC1"/>
<path d="M95.8078 59.1751H61.9352C61.6303 59.1751 61.3828 58.9277 61.3828 58.6227V58.3922C61.3828 58.0873 61.6303 57.8398 61.9352 57.8398H95.8078C96.1128 57.8398 96.3602 58.0873 96.3602 58.3922V58.6227C96.3602 58.9277 96.1128 59.1751 95.8078 59.1751Z" fill="#B5BBC1"/>
<path d="M5.07848 91.8295H24.652C26.6726 91.8295 28.3109 90.1915 28.3109 88.1709V86.6449C28.3109 84.6243 26.673 82.9863 24.652 82.9863H5.07848C3.05789 82.9863 1.41992 84.6243 1.41992 86.6449V88.1709C1.41992 90.1915 3.05789 91.8295 5.07848 91.8295Z" fill="#CEEDED"/>
<path d="M10.3015 85.6189H16.466C18.4866 85.6189 20.1249 83.9809 20.1249 81.96V80.4339C20.1249 78.4134 18.4869 76.7754 16.466 76.7754H10.3015C8.28092 76.7754 6.64258 78.4134 6.64258 80.4339V81.96C6.64258 83.9806 8.28055 85.6189 10.3015 85.6189Z" fill="#CEEDED"/>
<path d="M3.65855 90.5662H23.2321C25.2527 90.5662 26.8907 88.9282 26.8907 86.9076V85.3816C26.8907 83.361 25.2527 81.7227 23.2321 81.7227H3.65855C1.63797 81.7227 6.20662e-08 83.3606 6.20662e-08 85.3816V86.9076C-0.000368187 88.9282 1.63797 90.5662 3.65855 90.5662Z" fill="#13D2C2"/>
<path d="M8.88121 84.3548H15.0457C17.0663 84.3548 18.7046 82.7169 18.7046 80.6963V79.1703C18.7046 77.1497 17.0667 75.5117 15.0457 75.5117H8.88121C6.86063 75.5117 5.22266 77.1497 5.22266 79.1703V80.6963C5.22266 82.7169 6.86063 84.3548 8.88121 84.3548Z" fill="#13D2C2"/>
<path d="M37.9861 45.5039C37.5807 45.7783 37.1738 46.0537 36.7676 46.3314" stroke="#0284C4" stroke-miterlimit="10"/>
<path d="M34.379 48.011C31.5748 50.0621 28.954 52.3375 27.0826 55.2367C24.4208 59.3597 23.6475 65.1139 26.5604 69.0634C29.0501 72.4395 33.4989 73.6915 37.6664 74.1699C47.3363 75.2791 57.1865 73.3789 66.2488 69.8268C75.311 66.2746 83.6567 61.1144 91.641 55.5479C95.3165 52.9856 98.9714 50.3077 102.054 47.034C105.508 43.3659 107.075 38.6758 109.13 34.1166C109.82 32.5854 110.437 30.5828 109.242 29.4022C108.592 28.7589 107.583 28.6156 106.677 28.7478C104.879 29.0111 103.263 30.2853 102.588 31.9726C101.913 33.6599 102.205 35.6967 103.325 37.1274C104.869 39.0986 107.697 39.708 110.147 39.1936C112.598 38.6792 114.742 37.2286 116.71 35.6794C120.873 32.4001 124.568 28.528 127.653 24.2188" stroke="#0284C4" stroke-miterlimit="10" stroke-dasharray="7.93 7.93"/>
<path d="M128.488 23.0194C128.764 22.6128 129.034 22.2026 129.298 21.7891" stroke="#0284C4" stroke-miterlimit="10"/>
<path d="M116.539 37.1081L124.908 29.2787L120.196 27.9707L116.539 37.1081Z" fill="#06637F"/>
<path d="M116.592 25.6222L116.538 37.1086L120.445 28.1734L143.699 9.85156L116.393 24.9454L116.592 25.6222Z" fill="#0775A0"/>
<path d="M109.789 22.3904L116.68 25.5511L143.7 9.85156L109.829 21.5696C109.452 21.7 109.427 22.224 109.789 22.3904Z" fill="#0284C4"/>
<path d="M143.7 9.85156L120.445 28.1734L129.37 32.4923C129.662 32.6337 130.014 32.5291 130.181 32.2514L143.7 9.85156Z" fill="#0284C4"/>
<path d="M114.713 21.7735L130.697 15.6543" stroke="#0284C4" stroke-width="3" stroke-miterlimit="10" stroke-linecap="round"/>
<path opacity="0.4972" d="M23.2423 50.4786C23.2423 51.6176 22.3191 52.5408 21.1797 52.5408C20.0404 52.5408 19.1172 51.6176 19.1172 50.4786C19.1172 49.3396 20.0404 48.416 21.1797 48.416C22.3191 48.416 23.2423 49.3396 23.2423 50.4786Z" fill="white"/>
<path opacity="0.4972" d="M64.2247 22.5508C64.2247 23.6898 63.3012 24.6134 62.1622 24.6134C61.0232 24.6134 60.0996 23.6902 60.0996 22.5508C60.0996 21.4115 61.0228 20.4883 62.1622 20.4883C63.3012 20.4886 64.2247 21.4118 64.2247 22.5508Z" fill="white"/>
<path opacity="0.4972" d="M31.588 97.0215C31.588 98.1605 30.6648 99.0841 29.5255 99.0841C28.3861 99.0841 27.4629 98.1605 27.4629 97.0215C27.4629 95.8825 28.3861 94.959 29.5255 94.959C30.6648 94.959 31.588 95.8825 31.588 97.0215Z" fill="white"/>
<path opacity="0.4972" d="M13.9829 61.4737C16.201 61.4737 17.999 59.6756 17.999 57.4575C17.999 55.2395 16.201 53.4414 13.9829 53.4414C11.7649 53.4414 9.9668 55.2395 9.9668 57.4575C9.9668 59.6756 11.7649 61.4737 13.9829 61.4737Z" fill="white"/>
<path opacity="0.4972" d="M132.873 80.5164C134.138 79.2518 134.138 77.2014 132.873 75.9367C131.609 74.672 129.558 74.672 128.294 75.9367C127.029 77.2014 127.029 79.2518 128.294 80.5164C129.558 81.7811 131.609 81.7811 132.873 80.5164Z" fill="white"/>
<path opacity="0.4972" d="M132.909 86.3844C132.909 87.6269 131.902 88.634 130.66 88.634C129.417 88.634 128.41 87.6269 128.41 86.3844C128.41 85.1419 129.417 84.1348 130.66 84.1348C131.902 84.1348 132.909 85.1419 132.909 86.3844Z" fill="white"/>
<path opacity="0.3323" d="M37.832 64.6816L74.4003 89.0851L109.336 67.055" stroke="#FDAD13" stroke-width="2" stroke-miterlimit="10" stroke-linecap="round" stroke-linejoin="round"/>
<path d="M145.611 69.2078H122.133C119.709 69.2078 117.744 67.2428 117.744 64.819V62.9884C117.744 60.5646 119.709 58.5996 122.133 58.5996H145.611C148.035 58.5996 150 60.5646 150 62.9884V64.819C150 67.2428 148.035 69.2078 145.611 69.2078Z" fill="#CEEDED"/>
<path d="M135.273 61.7566H127.879C125.455 61.7566 123.49 59.7916 123.49 57.3678V55.5372C123.49 53.1134 125.455 51.1484 127.879 51.1484H135.273C137.697 51.1484 139.662 53.1134 139.662 55.5372V57.3678C139.662 59.7916 137.697 61.7566 135.273 61.7566Z" fill="#CEEDED"/>
<path d="M143.213 67.3132H119.734C117.311 67.3132 115.346 65.3483 115.346 62.9244V61.0939C115.346 58.6701 117.311 56.7051 119.734 56.7051H143.213C145.637 56.7051 147.602 58.6701 147.602 61.0939V62.9244C147.602 65.3483 145.637 67.3132 143.213 67.3132Z" fill="#13D2C2"/>
<path d="M132.875 59.8621H125.481C123.057 59.8621 121.092 57.8971 121.092 55.4733V53.6427C121.092 51.2189 123.057 49.2539 125.481 49.2539H132.875C135.299 49.2539 137.264 51.2189 137.264 53.6427V55.4733C137.263 57.8971 135.299 59.8621 132.875 59.8621Z" fill="#13D2C2"/>
<path d="M123.49 56.4511C123.49 56.4511 121.761 51.7007 126.879 50.9219" stroke="#13D2C2" stroke-width="4" stroke-miterlimit="10" stroke-linecap="round"/>
<path d="M39.5976 26.8554C39.5976 26.8554 37.8683 22.105 42.9863 21.3262" stroke="#13D2C2" stroke-width="4" stroke-miterlimit="10" stroke-linecap="round"/>
<path d="M8.14841 82.4863C8.14841 82.4863 6.41911 77.7359 11.537 76.957" stroke="#13D2C2" stroke-width="4" stroke-miterlimit="10" stroke-linecap="round"/>
</svg>
