<svg width="184" height="153" viewBox="0 0 184 153" fill="none" xmlns="http://www.w3.org/2000/svg">
<path d="M123.183 100.338L121.987 96.3391L134.677 88.4224L136.302 79.0174L144.55 76.8971L143.231 92.3556L123.183 100.338Z" fill="#D18252"/>
<path d="M135.594 83.1196L136.425 75.7701L144.55 76.8971L143.79 85.802L135.594 83.1196Z" fill="#FF7EE3"/>
<path d="M120.392 101.227L116.955 102.361C116.851 102.395 116.759 102.456 116.688 102.538C116.475 102.783 116.064 103.307 116.372 103.392C116.777 103.504 120.517 102.35 120.517 102.35" fill="#D18252"/>
<path d="M120.69 97.0177L120 97.9147C119.878 98.0738 119.729 98.2092 119.559 98.3159L116.714 99.8656C116.714 99.8656 116.046 100.582 116.457 100.794C116.869 101.005 120.163 99.9494 120.163 99.9494L116.192 101.259C116.109 101.287 116.034 101.335 115.976 101.4C115.749 101.655 115.208 102.315 115.578 102.418C116.039 102.545 120.306 101.23 120.306 101.23" fill="#D18252"/>
<path d="M117.338 103.607C117.417 103.443 117.63 103.249 117.899 103.066L120.247 102.464L119.987 99.8273L120.69 97.0177L122.523 96.2678C122.523 96.2678 125.037 97.6571 123.257 101.391C123.134 101.648 122.938 101.866 122.697 102.017L120.636 103.313C120.592 103.333 120.546 103.347 120.499 103.357C120.025 103.449 117.59 104.138 117.405 104.087C117.3 104.058 117.266 103.757 117.338 103.607Z" fill="#D18252"/>
<path d="M120.165 98.0957L120.294 97.2348C120.334 96.8418 119.979 96.7149 119.662 96.4789L118.576 95.8777C118.437 95.8008 118.42 95.6051 118.547 95.5096C118.791 95.3252 119.272 94.9476 120.003 95.2452L122.783 96.2591L120.165 98.0957Z" fill="#D18252"/>
<path d="M173.725 129.929C175.425 132.047 178.537 136.599 179.059 137.434C179.472 138.094 174.837 141.216 174.606 140.962C173.312 139.543 169.793 135.646 168.857 134.636C167.276 132.931 165.432 130.84 163.64 128.669L169.967 124.077C171.356 126.427 172.837 128.822 173.725 129.929Z" fill="#D18252"/>
<path d="M173.663 139.966L169.521 149.788C169.079 150.837 170.339 151.777 171.218 151.054L182.959 141.501C183.822 140.744 177.679 135.655 177.679 135.655L177.646 136.545C177.57 138.629 175.735 140.205 173.663 139.966Z" fill="#15664C"/>
<path d="M169.152 151.034L169.933 151.999C170.101 152.206 170.405 152.238 170.612 152.071L183.498 141.634C183.705 141.466 183.737 141.162 183.569 140.955L182.788 139.99C182.62 139.782 182.316 139.751 182.109 139.918L169.223 150.355C169.016 150.523 168.984 150.827 169.152 151.034Z" fill="#FF7EE3"/>
<path d="M174.798 142.155C174.988 142.141 175.159 142.011 175.215 141.817C175.288 141.567 175.144 141.307 174.895 141.235L173.2 140.745C172.952 140.674 172.69 140.817 172.618 141.066C172.546 141.315 172.69 141.576 172.939 141.648L174.634 142.138C174.689 142.154 174.744 142.159 174.798 142.155Z" fill="#FF7EE3"/>
<path d="M174.156 143.835C174.346 143.821 174.517 143.691 174.573 143.497C174.645 143.248 174.502 142.987 174.252 142.915L172.558 142.426C172.308 142.354 172.048 142.498 171.976 142.747C171.903 142.996 172.047 143.256 172.296 143.329L173.991 143.818C174.046 143.834 174.102 143.839 174.156 143.835Z" fill="#FF7EE3"/>
<path d="M173.434 145.607C173.624 145.593 173.795 145.463 173.851 145.269C173.924 145.02 173.78 144.759 173.531 144.687L171.836 144.198C171.587 144.126 171.326 144.27 171.254 144.519C171.182 144.768 171.326 145.028 171.575 145.101L173.27 145.59C173.324 145.606 173.38 145.611 173.434 145.607Z" fill="#FF7EE3"/>
<path d="M149.953 101.711L160.407 92.3694C160.407 92.3694 167.275 101.313 165.457 108.95C164.226 114.121 169.746 122.492 173.949 125.766L162.747 133.944C160.314 130.996 158.487 127.335 157.565 124.885C154.877 117.733 149.953 101.711 149.953 101.711Z" fill="#522169"/>
<path d="M149.824 135.977C149.833 138.75 149.421 144.365 149.307 145.364C149.216 146.154 143.528 145.697 143.505 145.346C143.375 143.389 143.047 138.038 142.942 136.636C142.764 134.269 142.623 131.426 142.574 128.551L150.549 128.912C150.162 131.672 149.82 134.527 149.824 135.977Z" fill="#D18252"/>
<path d="M143.386 143.95L133.827 149.156C132.806 149.712 133.214 151.265 134.376 151.247L149.83 151.092C151.001 151.038 149.335 143.065 149.335 143.065L148.743 143.754C147.357 145.37 144.887 145.46 143.386 143.95Z" fill="#15664C"/>
<path d="M132.739 149.906L132.749 151.194C132.751 151.461 132.969 151.675 133.236 151.673L150.188 151.542C150.454 151.54 150.669 151.322 150.667 151.055L150.657 149.767C150.655 149.5 150.437 149.285 150.17 149.288L133.218 149.419C132.952 149.421 132.737 149.639 132.739 149.906Z" fill="#FF7EE3"/>
<path d="M143.171 146.505C143.267 146.505 143.363 146.477 143.448 146.416C143.664 146.263 143.715 145.964 143.561 145.748L142.52 144.279C142.367 144.062 142.068 144.011 141.851 144.165C141.635 144.318 141.583 144.617 141.737 144.833L142.778 146.303C142.872 146.435 143.02 146.505 143.171 146.505Z" fill="#FF7EE3"/>
<path d="M141.588 147.437C141.684 147.437 141.78 147.409 141.865 147.349C142.081 147.196 142.132 146.896 141.978 146.68L140.937 145.211C140.784 144.995 140.484 144.943 140.268 145.097C140.052 145.25 140 145.55 140.154 145.765L141.195 147.235C141.289 147.367 141.438 147.437 141.588 147.437Z" fill="#FF7EE3"/>
<path d="M139.884 148.393C139.98 148.393 140.077 148.364 140.161 148.304C140.377 148.152 140.428 147.851 140.275 147.636L139.233 146.166C139.08 145.95 138.781 145.898 138.565 146.052C138.349 146.204 138.297 146.505 138.451 146.72L139.492 148.19C139.586 148.322 139.734 148.393 139.884 148.393Z" fill="#FF7EE3"/>
<path d="M146.79 98.4767L160.381 96.2759C160.381 96.2759 163.906 108.543 157.724 113.382C153.538 116.658 151.598 129.313 152.843 134.493L138.987 133.905C138.921 130.083 140.934 121.355 141.741 118.864C144.096 111.596 146.79 98.4767 146.79 98.4767Z" fill="#522169"/>
<path d="M153.962 120.303C153.756 119.003 153.67 112.082 153.817 112.674C154.199 114.216 154.59 115.958 154.973 117.442C154.618 118.508 154.205 119.219 153.962 120.303Z" fill="#3D1042"/>
<path d="M138.739 72.6556L149.572 69.8873C154.366 69.0255 156.626 71.3566 157.318 73.9189L160.525 86.1112L166.126 98.1434L144.085 105.714L137.394 84.1044C135.943 81.2242 135.85 77.9429 136.633 74.8146C136.774 74.2518 137.013 73.8321 137.332 73.4816C137.705 73.071 138.202 72.7928 138.739 72.6556Z" fill="#3F2F6F"/>
<path d="M143.658 65.2626L145.948 70.6647C146.256 71.3841 145.401 73.9912 143.731 75.3014C142.751 76.0698 141.302 75.6265 140.896 74.4492L139.076 69.167L143.658 65.2626Z" fill="#D18252"/>
<path d="M139.86 71.443L139.043 69.0617L142.048 65.2003L142.367 66.16C142.367 66.16 142.577 67.9204 139.86 71.443Z" fill="#755237"/>
<path d="M144.367 66.9336L138.124 70.3164C137.22 70.8148 136.167 70.7812 135.323 70.3203C134.663 69.9595 134.214 69.3059 134 68.5844L132.601 62.2238L140.744 57.7346L144.367 66.9336Z" fill="#D18252"/>
<path d="M131.049 61.0925C133.073 65.2175 138.56 59.4383 139.219 61.2989C140.907 66.0585 143.288 64.1949 143.288 64.1949C143.288 64.1949 144.71 55.9738 140.384 57.0819C136.058 58.1895 128.056 54.9951 131.049 61.0925Z" fill="#522169"/>
<path d="M144.094 62.1529C144.595 63.0632 144.264 64.2078 143.354 64.7101C142.444 65.2119 141.299 64.8808 140.797 63.9705C140.295 63.0602 140.626 61.9155 141.536 61.4137C142.447 60.9115 143.592 61.2426 144.094 62.1529Z" fill="#D18252"/>
<path d="M133.211 63.4484L132.504 66.2327C132.399 66.6472 132.805 66.9362 133.261 66.771L134.2 66.4318L133.211 63.4484Z" fill="#D18252"/>
<path d="M142.322 63.7099L142.201 63.6751L142.566 62.413L142.688 62.4479L142.322 63.7099Z" fill="#402B6E"/>
<path d="M143.058 63.3044L141.796 62.9394L141.831 62.8181L143.094 63.1836L143.058 63.3044Z" fill="#402B6E"/>
<path d="M134.972 64.3773C135.045 64.5093 134.997 64.6748 134.865 64.7475C134.733 64.8202 134.567 64.7724 134.495 64.6404C134.422 64.5084 134.47 64.3429 134.602 64.2702C134.733 64.1975 134.899 64.2457 134.972 64.3773Z" fill="#522169"/>
<path d="M135.669 63.6742C135.637 63.6923 135.599 63.7009 135.559 63.6966L134.409 63.5792C134.305 63.5689 134.23 63.476 134.24 63.3723C134.25 63.2679 134.344 63.193 134.447 63.2038L135.598 63.3212C135.701 63.3319 135.776 63.4244 135.766 63.528C135.759 63.5921 135.721 63.6454 135.669 63.6742Z" fill="#522169"/>
<path d="M134.525 67.1451C134.525 67.1451 135.456 66.7814 136.374 65.5253C136.374 65.5253 136.978 68.0782 134.525 67.1451Z" fill="white"/>
<path d="M137.073 102.214L135.877 98.2152L148.566 90.2981L147.165 80.8935L155.412 78.7732L157.121 94.2317L137.073 102.214Z" fill="#D18252"/>
<path d="M134.282 103.103L130.844 104.237C130.741 104.271 130.649 104.332 130.577 104.414C130.364 104.659 129.954 105.183 130.262 105.268C130.666 105.379 134.407 104.225 134.407 104.225" fill="#D18252"/>
<path d="M134.58 98.8938L133.89 99.7908C133.768 99.9499 133.618 100.085 133.449 100.192L130.603 101.742C130.603 101.742 129.935 102.458 130.347 102.67C130.758 102.881 134.052 101.826 134.052 101.826L130.082 103.135C129.998 103.163 129.924 103.211 129.866 103.276C129.639 103.531 129.097 104.191 129.468 104.294C129.929 104.421 134.195 103.105 134.195 103.105" fill="#D18252"/>
<path d="M131.228 105.483C131.306 105.319 131.519 105.125 131.789 104.943L134.136 104.34L133.876 101.703L134.58 98.8938L136.412 98.1439C136.412 98.1439 138.926 99.5332 137.146 103.267C137.023 103.524 136.827 103.742 136.586 103.893L134.526 105.189C134.481 105.209 134.436 105.223 134.388 105.233C133.914 105.326 131.479 106.014 131.295 105.963C131.19 105.934 131.156 105.632 131.228 105.483Z" fill="#D18252"/>
<path d="M134.055 99.9718L134.182 99.1105C134.223 98.7175 133.868 98.5906 133.551 98.3545L132.464 97.7534C132.326 97.6764 132.309 97.4808 132.436 97.3853C132.68 97.2008 133.161 96.8233 133.892 97.1209L136.672 98.1348L134.055 99.9718Z" fill="#D18252"/>
<path d="M125.803 62.445C136.185 61.8959 144.442 53.3286 144.442 42.8099C144.442 31.9357 135.627 23.1211 124.753 23.1211C122.771 23.1211 120.859 23.4208 119.055 23.9652C115.716 10.219 103.36 0 88.5849 0C73.9378 0 61.6707 10.047 58.2062 23.6147C56.81 23.3013 55.3639 23.1211 53.8744 23.1211C43.0001 23.1211 34.1855 31.9357 34.1855 42.8099C34.1855 53.1566 42.1732 61.6164 52.3161 62.4128L125.803 62.445Z" fill="#489EFF"/>
<path d="M99.8707 25.8021L89.6289 15.56C89.4552 15.3863 89.1731 15.3863 88.9994 15.56L78.7572 25.8021C78.0232 26.5366 78.1144 27.7887 79.0311 28.3946C79.6981 28.8354 80.5942 28.7034 81.1596 28.1383L87.6389 21.6595V41.9654C87.6389 42.7648 88.1794 43.4924 88.9624 43.6532C90.0391 43.8738 90.9894 43.0529 90.9894 42.014V21.6591L97.5018 28.1714C97.8183 28.4879 98.2388 28.6621 98.6864 28.6621C99.1336 28.6621 99.5542 28.4879 99.8707 28.1714C100.188 27.855 100.362 27.4344 100.362 26.9868C100.362 26.5392 100.188 26.1182 99.8707 25.8021Z" fill="white"/>
<path d="M109.664 105.159H55.751L67.895 99.5925H121.808L109.664 105.159Z" fill="#6B98E0"/>
<path d="M118.73 83.7635L68.4346 79.6458L64.503 127.668L114.799 131.786L118.73 83.7635Z" fill="white"/>
<path d="M115.559 86.3857L71.3242 82.7642L67.8703 124.952L112.105 128.574L115.559 86.3857Z" fill="#F74D36"/>
<path d="M112.047 128.551L87.499 126.554L101.188 110.16L112.047 128.551Z" fill="#15664C"/>
<path d="M96.6997 127.303L67.8467 124.955L84.2056 102.383L96.6997 127.303Z" fill="#15664C"/>
<path d="M96.0016 104.304C98.8763 103.87 100.855 101.188 100.421 98.3129C99.9867 95.4382 97.3044 93.4596 94.4297 93.8937C91.555 94.3278 89.5765 97.01 90.0105 99.8847C90.4446 102.759 93.1269 104.738 96.0016 104.304Z" fill="#15664C"/>
<path d="M108.12 83.8402L57.875 88.5029L62.327 136.477L112.572 131.815L108.12 83.8402Z" fill="white"/>
<path d="M105.451 86.9731L61.2607 91.0739L65.1718 133.22L109.362 129.119L105.451 86.9731Z" fill="#522169"/>
<path d="M109.318 129.107L84.7949 131.396L95.4344 112.877L109.318 129.107Z" fill="#15664C"/>
<path d="M93.9864 130.538L65.1631 133.229L77.3605 108.163L93.9864 130.538Z" fill="#15664C"/>
<path d="M91.9484 106.03C93.6128 103.646 93.0298 100.364 90.6461 98.7C88.2624 97.0356 84.9808 97.6186 83.3164 100.002C81.652 102.386 82.2351 105.668 84.6187 107.332C87.0024 108.996 90.284 108.413 91.9484 106.03Z" fill="#15664C"/>
<path d="M118.197 92.2702L67.9316 87.8043L63.6676 135.798L113.933 140.264L118.197 92.2702Z" fill="white"/>
<path d="M115.008 94.871L70.7998 90.9432L67.0538 133.106L111.262 137.034L115.008 94.871Z" fill="#15664C"/>
<path d="M111.206 137.011L86.6729 134.844L100.475 118.546L111.206 137.011Z" fill="#FF7EE3"/>
<path d="M95.8685 135.656L67.0322 133.109L83.5468 110.651L95.8685 135.656Z" fill="#FF7EE3"/>
<path d="M99.5955 109C100.456 106.224 98.9033 103.275 96.1265 102.414C93.3498 101.553 90.401 103.106 89.5401 105.883C88.6793 108.66 90.2324 111.609 93.0092 112.47C95.7859 113.33 98.7347 111.777 99.5955 109Z" fill="#FF7EE3"/>
<path d="M109.664 105.159H55.751V148.561H109.664V105.159Z" fill="#81B1FE"/>
<path d="M121.808 142.994L109.664 148.561V105.159L121.808 99.5925V142.994Z" fill="#81B1FE"/>
<path d="M121.808 116.646L109.664 122.212V105.159L121.808 99.5925V116.646Z" fill="#7AADFF"/>
<path d="M121.808 116.039L109.664 121.605V105.159L121.808 99.5925V116.039Z" fill="#6691D6"/>
<path d="M133.951 109.207L121.808 114.774L109.664 105.159L121.808 99.5925L133.951 109.207Z" fill="#81B1FE"/>
<path d="M109.664 105.159H55.751V121.605H109.664V105.159Z" fill="#6691D6"/>
<path d="M103.593 118.822H49.4561L55.7508 105.159H109.664L103.593 118.822Z" fill="#81B1FE"/>
<path d="M8.36693 130.174C7.00168 132.153 4.94714 135.986 4.5395 136.757C4.217 137.366 8.10549 140.211 8.29383 139.971C9.34561 138.636 12.2034 134.97 12.9662 134.019C14.2536 132.414 15.7475 130.45 17.1918 128.418L11.3124 124.767C10.2361 126.93 9.08116 129.14 8.36693 130.174Z" fill="#FFB781"/>
<path d="M9.06239 139.032L13.3465 147.44C13.804 148.338 12.7514 149.248 11.9288 148.665L0.953447 140.98C0.143327 140.367 5.24227 135.482 5.24227 135.482L5.32784 136.266C5.52736 138.1 7.24908 139.375 9.06239 139.032Z" fill="#522169"/>
<path d="M13.7205 148.562L13.1554 149.373C13.0028 149.592 12.7018 149.645 12.4834 149.493L0.531074 141.163C0.312204 141.011 0.258454 140.71 0.411104 140.491L0.976124 139.68C1.12877 139.461 1.42934 139.408 1.64821 139.56L13.6005 147.89C13.8189 148.042 13.8727 148.343 13.7205 148.562Z" fill="#FF7EE3"/>
<path d="M8.20005 141.037C8.03063 141.037 7.87196 140.933 7.81004 140.765C7.73049 140.55 7.84057 140.311 8.05643 140.231L9.52144 139.69C9.73644 139.612 9.97638 139.721 10.0555 139.937C10.1351 140.153 10.025 140.392 9.80911 140.471L8.3441 141.012C8.29637 141.029 8.24778 141.037 8.20005 141.037Z" fill="#FF7EE3"/>
<path d="M8.87524 142.479C8.70582 142.479 8.54715 142.375 8.4848 142.207C8.40525 141.992 8.51576 141.753 8.73119 141.673L10.1962 141.133C10.4116 141.054 10.6511 141.164 10.7303 141.38C10.8098 141.595 10.6997 141.834 10.4843 141.914L9.01929 142.454C8.97156 142.471 8.9234 142.479 8.87524 142.479Z" fill="#FF7EE3"/>
<path d="M9.62486 143.998C9.45544 143.998 9.29677 143.894 9.23485 143.726C9.1553 143.511 9.26538 143.271 9.48124 143.192L10.9462 142.652C11.1621 142.573 11.4012 142.683 11.4807 142.898C11.5603 143.114 11.4498 143.353 11.2343 143.432L9.76934 143.972C9.72161 143.99 9.67302 143.998 9.62486 143.998Z" fill="#FF7EE3"/>
<path d="M30.9969 97.6898L22.3956 89.1259C22.3956 89.1259 13.692 98.5408 16.0553 106.027C17.6557 111.097 12.7533 119.843 8.79688 123.412L20.5591 130.76C22.774 127.645 24.3319 123.862 25.0745 121.351C27.2409 114.025 30.9969 97.6898 30.9969 97.6898Z" fill="#650350"/>
<path d="M31.5233 135.322C31.5156 137.726 32.0453 142.141 32.1447 143.007C32.2234 143.692 36.9817 143.748 37.0019 143.445C37.1146 141.748 37.3993 137.11 37.4904 135.894C37.6444 133.841 37.7665 131.377 37.8095 128.885L30.8955 129.197C31.2309 131.59 31.5272 134.065 31.5233 135.322Z" fill="#FFB781"/>
<path d="M37.1047 142.235L45.3921 146.748C46.2775 147.23 45.9236 148.576 44.9157 148.561L31.5178 148.426C30.503 148.379 31.9469 141.466 31.9469 141.466L32.4603 142.064C33.6626 143.465 35.8031 143.543 37.1047 142.235Z" fill="#522169"/>
<path d="M46.3355 147.462L46.3277 148.45C46.3256 148.717 46.108 148.932 45.841 148.929L31.273 148.816C31.0064 148.814 30.7918 148.596 30.794 148.33L30.8017 147.341C30.8039 147.075 31.0214 146.86 31.2885 146.862L45.8564 146.976C46.123 146.978 46.3376 147.195 46.3355 147.462Z" fill="#FF7EE3"/>
<path d="M37.2924 144.449C37.2094 144.449 37.1252 144.424 37.0525 144.373C36.865 144.24 36.8207 143.98 36.9536 143.793L37.8566 142.519C37.989 142.332 38.2487 142.287 38.4367 142.42C38.6241 142.553 38.6684 142.813 38.5356 143L37.6326 144.274C37.5509 144.388 37.4227 144.449 37.2924 144.449Z" fill="#FF7EE3"/>
<path d="M38.6645 145.258C38.5815 145.258 38.4972 145.233 38.4246 145.181C38.2371 145.048 38.1928 144.788 38.3257 144.601L39.2287 143.327C39.3611 143.14 39.6208 143.095 39.8083 143.228C39.9958 143.361 40.0401 143.621 39.9072 143.808L39.0046 145.082C38.9234 145.197 38.7952 145.258 38.6645 145.258Z" fill="#FF7EE3"/>
<path d="M40.142 146.086C40.059 146.086 39.9748 146.061 39.9021 146.009C39.7146 145.876 39.6703 145.616 39.8032 145.429L40.7062 144.155C40.8386 143.967 41.0988 143.923 41.2858 144.056C41.4733 144.188 41.5176 144.448 41.3847 144.635L40.4817 145.91C40.4009 146.025 40.2723 146.086 40.142 146.086Z" fill="#FF7EE3"/>
<path d="M31.8241 95.7337L19.8873 93.533C19.8873 93.533 18.031 106.22 24.2131 111.058C28.3996 114.335 28.6705 126.571 27.4248 131.75L41.2811 131.162C41.3469 127.34 39.3345 118.612 38.5274 116.121C36.1723 108.853 31.8241 95.7337 31.8241 95.7337Z" fill="#650350"/>
<path d="M52.0906 60.9544L48.4231 58.853L38.0833 69.3046L36.1367 69.6757L38.0498 76.658L41.5921 76.0737L52.0906 60.9544Z" fill="#FFB781"/>
<path d="M22.1377 72.3413L26.62 78.544L38.049 76.6581L36.1359 69.6757L22.1377 72.3413Z" fill="#15664C"/>
<path d="M26.0151 71.6683L18.8238 72.8362C18.156 72.9446 17.5011 73.1389 16.8957 73.4412C13.6329 75.0692 13.4067 79.478 13.921 81.579L16.9077 93.4164L15.7803 99.593L19.1528 100.64C21.6386 101.411 24.2461 101.75 26.842 101.558C29.41 101.369 30.7279 100.734 32.9798 99.3543L31.6593 88.3596C34.6869 82.4269 30.6123 74.5941 28.6261 72.4582C28.2503 72.054 27.8577 71.8227 27.4273 71.6868C26.9702 71.5423 26.4791 71.5479 26.0151 71.6683Z" fill="#15664C"/>
<path d="M19.5999 66.1923L19.4473 72.7304C19.5169 73.4348 21.3332 75.1264 23.2274 75.4347C24.3389 75.6157 25.2931 74.6314 25.1005 73.522L24.2357 68.5439L19.5999 66.1923Z" fill="#FFB781"/>
<path d="M24.8991 72.3701L24.5065 70.1272L20.4404 68.381L20.6068 69.2805C20.6068 69.2805 21.2097 70.7658 24.8991 72.3701Z" fill="#E69361"/>
<path d="M20.7991 71.6353L26.9804 69.4177C27.8602 69.106 28.4703 68.3733 28.6651 67.5266C28.8173 66.8635 28.6458 66.1669 28.2859 65.5895L25.7196 60.6371L18.3516 63.9249L20.7991 71.6353Z" fill="#FFB781"/>
<path d="M25.7204 60.6367C26.0424 60.8569 22.0933 68.3556 20.4408 68.381L19.5383 68.8523C19.5383 68.8523 14.2514 67.3735 16.2208 61.9267C17.3526 58.7959 23.0324 58.8002 25.7204 60.6367Z" fill="#F74D36"/>
<path d="M19.6491 69.2853C20.4171 69.7767 21.4384 69.5527 21.9303 68.7843C22.4218 68.0159 22.1978 66.9951 21.4293 66.5032C20.6609 66.0117 19.6401 66.2357 19.1482 67.0041C18.6567 67.7725 18.8812 68.7938 19.6491 69.2853Z" fill="#FFB781"/>
<path d="M21.3044 68.0646L20.333 67.6079L20.3855 67.515L21.3564 67.9717L21.3044 68.0646Z" fill="#451A5E"/>
<path d="M20.6435 68.261L20.542 68.2137L21.0455 67.3185L21.1466 67.3658L20.6435 68.261Z" fill="#451A5E"/>
<path d="M25.7524 63.5336C25.7979 63.6622 25.9385 63.7288 26.0671 63.6837C26.1953 63.6381 26.2623 63.4975 26.2172 63.3689C26.1716 63.2408 26.031 63.1733 25.9024 63.2188C25.7743 63.2644 25.7072 63.4054 25.7524 63.5336Z" fill="#451A5E"/>
<path d="M26.8241 65.9915C26.5313 66.0121 26.18 65.9597 25.7702 65.7705C25.7418 65.7572 25.7293 65.7236 25.7427 65.6948C25.7556 65.6664 25.7891 65.6535 25.8183 65.6673C27.1359 66.2757 27.7864 65.4192 27.8135 65.3826C27.8325 65.3577 27.8677 65.3517 27.8931 65.3702C27.9185 65.3886 27.924 65.4239 27.9056 65.4497C27.9 65.4566 27.5358 65.9412 26.8241 65.9915Z" fill="#451A5E"/>
<path d="M26.499 62.2213L27.8664 63.233C28.0436 63.3642 28.0969 63.6054 27.9911 63.7989L27.6454 64.4332L26.499 62.2213Z" fill="#FFB781"/>
<path d="M45.0621 81.1L42.3063 78.5441L30.864 85.6502L27.7989 83.3244L22.8066 89.1457L30.6417 94.1268L45.0621 81.1Z" fill="#FFB781"/>
<path d="M26.3995 82.2623L14.4434 76.8963L15.2174 81.0265C15.8753 84.1465 16.743 85.3983 19.5595 87.0809L22.8064 89.1453L27.7987 83.3239L26.3995 82.2623Z" fill="#15664C"/>
<path d="M108.56 58.6337L64.8594 33.4026L40.7686 75.1278L84.4689 100.359L108.56 58.6337Z" fill="white"/>
<path d="M51.4999 57.4401L52.0946 58.8788C52.1488 58.9872 52.1737 59.1067 52.1651 59.2271C52.1393 59.5866 52.0486 60.3198 51.7407 60.1443C51.3361 59.9139 50.5195 58.2209 50.5195 58.2209" fill="#FFB781"/>
<path d="M52.1552 56.6846L52.7499 58.1233C52.8041 58.2317 52.829 58.3512 52.8204 58.4716C52.7946 58.8311 52.7039 59.5643 52.396 59.3888C51.9914 59.1584 51.1748 57.4654 51.1748 57.4654" fill="#FFB781"/>
<path d="M52.8115 55.9295L53.4061 57.3683C53.4603 57.4762 53.4853 57.5962 53.4767 57.7166C53.4509 58.0761 53.3601 58.8092 53.0523 58.6338C52.6476 58.4033 51.8311 56.7104 51.8311 56.7104" fill="#FFB781"/>
<path d="M52.6626 56.141C52.6626 56.141 53.3024 57.6478 53.7071 57.8782C54.0149 58.0537 54.1057 57.321 54.1315 56.9615C54.1401 56.8411 54.1151 56.7211 54.061 56.6132L53.7281 55.8082C53.5699 55.4251 53.1498 55.214 52.7516 55.3288C52.0834 55.5218 51.0905 55.9398 50.4193 56.8075C49.3236 58.2235 48.3467 58.9197 48.3467 58.9197L49.0889 59.3944C49.856 59.885 50.8794 59.6094 51.2956 58.7993L52.6626 56.141Z" fill="#FFB781"/>
<path d="M104.572 59.6479L66.1377 37.4573L44.9737 74.1133L83.4078 96.3039L104.572 59.6479Z" fill="#FED7F6"/>
<path d="M83.3782 96.2673L62.042 83.9637L81.4268 74.9987L83.3782 96.2673Z" fill="#FB7461"/>
<path d="M70.039 88.5755L44.9609 74.1146L69.4008 60.7064L70.039 88.5755Z" fill="#FB7461"/>
<path d="M85.3427 65.0313C83.9138 67.5631 80.7026 68.4571 78.1707 67.0282C75.6389 65.5993 74.7449 62.3881 76.1738 59.8562C77.6027 57.3244 80.8139 56.43 83.3458 57.8593C85.8776 59.2882 86.772 62.499 85.3427 65.0313Z" fill="#FB7461"/>
<path d="M46.8906 79.1986L49.1735 76.8718C49.2423 76.8017 49.3274 76.7514 49.4225 76.7261C49.705 76.6512 50.2915 76.5283 50.2377 76.8108C50.1672 77.1819 47.7476 79.7459 47.7476 79.7459" fill="#FFB781"/>
<path d="M43.3711 77.7658L44.37 77.565C44.5471 77.5293 44.7161 77.4626 44.8696 77.368L47.2531 75.6846C47.2531 75.6846 48.0976 75.43 48.105 75.8462C48.1123 76.2629 45.9494 78.5049 45.9494 78.5049L48.5866 75.817C48.642 75.7607 48.7104 75.7198 48.7865 75.6988C49.0828 75.6171 49.8314 75.4416 49.7669 75.7818C49.6865 76.2049 46.9268 79.1293 46.9268 79.1293" fill="#FFB781"/>
<path d="M50.0277 77.6764C49.8643 77.6746 49.6231 77.7705 49.3681 77.915L47.9478 79.5727L45.9208 78.314L43.3709 77.7654L42.0361 78.9483C42.0361 78.9483 42.1595 81.5317 45.8842 81.5782C46.1413 81.5812 46.3946 81.5094 46.6131 81.3748L48.4797 80.225C48.5132 80.197 48.5429 80.1661 48.5696 80.1312C48.8327 79.7851 50.3571 78.0909 50.3893 77.9219C50.4074 77.8251 50.1773 77.6781 50.0277 77.6764Z" fill="#FFB781"/>
<path d="M44.4503 77.7701L43.7038 77.531C43.3697 77.4076 43.4088 77.07 43.3443 76.72L43.2902 75.6033C43.2833 75.4605 43.1319 75.3689 43.0042 75.4334C42.7583 75.5577 42.2616 75.7964 42.2117 76.5054L41.9258 79.1551L44.4503 77.7701Z" fill="#FFB781"/>
<path d="M18.3526 62.0544C18.3526 62.0544 14.8025 57.2604 10.1796 60.2071C5.55624 63.1539 8.69352 69.3945 9.02376 71.0212C9.354 72.6479 7.95048 74.8233 6.38184 75.0151C6.38184 75.0151 10.1796 77.8746 13.3164 73.3213C16.4537 68.7676 13.5529 62.702 15.9115 62.8043C18.27 62.9067 18.3526 62.0544 18.3526 62.0544Z" fill="#F74D36"/>
<path d="M17.1997 60.5584C17.1997 60.5584 14.9426 60.6371 15.8891 63.1143L17.1997 60.5584Z" fill="#15664C"/>
<path d="M27.5832 118.694C27.79 117.394 28.0484 110.045 27.9018 110.637C27.5195 112.179 27.1287 113.731 26.7451 115.215C27.1003 116.282 27.3768 117.46 27.5832 118.694Z" fill="#70105B"/>
</svg>
