<svg width="24" height="24" viewBox="0 0 24 24" fill="none" xmlns="http://www.w3.org/2000/svg">
<g clip-path="url(#clip0_14382_67880)">
<path d="M21.4157 13.9529L21.4159 13.952C21.4799 13.6375 21.5285 13.3152 21.5624 12.9885C21.5945 12.6639 21.6119 12.3322 21.6119 11.9971C21.6119 11.5997 21.9321 11.2734 22.3314 11.2734C22.7307 11.2734 23.051 11.5995 23.0509 11.997L21.4157 13.9529ZM21.4157 13.9529C21.3527 14.2689 21.2732 14.5788 21.1799 14.8806C21.0855 15.1839 20.9774 15.4823 20.8566 15.7712C20.7335 16.0621 20.5999 16.3446 20.4511 16.6198L20.4508 16.6203M21.4157 13.9529L20.4508 16.6203M20.4508 16.6203C20.3034 16.8947 20.1433 17.1614 19.9696 17.4196L19.9692 17.4203M20.4508 16.6203L19.9692 17.4203M19.9692 17.4203C19.7975 17.6773 19.6117 17.9266 19.4171 18.1664C19.2198 18.4062 19.014 18.6359 18.7959 18.855C18.5767 19.0752 18.3495 19.284 18.1126 19.4815C17.8748 19.6788 17.6289 19.8659 17.3729 20.0386L17.3717 20.0394C17.1171 20.2134 16.8517 20.375 16.5801 20.525M19.9692 17.4203L16.5801 20.525M13.9873 21.7417C14.3094 21.6754 14.6249 21.5939 14.9339 21.4973C15.2401 21.3997 15.5434 21.287 15.8383 21.1619C16.1332 21.0369 16.4206 20.8967 16.7004 20.7442L13.9873 21.7417ZM13.9873 21.7417C13.667 21.808 13.3393 21.8583 13.0096 21.8933L13.9873 21.7417ZM16.5801 20.525C16.3071 20.6738 16.0273 20.8103 15.7407 20.9318C15.453 21.0538 15.1572 21.1638 14.8588 21.2589C14.558 21.3529 14.2507 21.4323 13.9369 21.4969L13.9366 21.4969C13.6251 21.5614 13.3058 21.6104 12.984 21.6446C12.3369 21.7092 11.6611 21.7091 11.018 21.6446C10.6943 21.6104 10.375 21.5614 10.0635 21.4969L10.0626 21.4967C9.74942 21.4332 9.44235 21.353 9.1432 21.2589C8.84281 21.1637 8.54724 21.0547 8.26115 20.933C7.97333 20.8091 7.69236 20.6734 7.42089 20.5259C7.14826 20.3749 6.88301 20.2134 6.62766 20.0386L6.62699 20.0381C6.37232 19.865 6.12518 19.6776 5.88748 19.4814C5.64986 19.2823 5.42213 19.0747 5.20493 18.8547C4.98673 18.6337 4.77984 18.4047 4.58411 18.1657C4.39969 17.9382 4.22192 17.7016 4.05758 17.4576H6.36622C6.76555 17.4576 7.0858 17.1314 7.0858 16.7339C7.0858 16.3365 6.76555 16.0102 6.36622 16.0102H2.60972C2.21039 16.0102 1.89014 16.3365 1.89014 16.7339V20.5234C1.89014 20.9209 2.21039 21.2471 2.60972 21.2471C3.00904 21.2471 3.3293 20.9209 3.3293 20.5234V18.9045C3.37701 18.9654 3.4255 19.0258 3.47486 19.0856C3.69937 19.3605 3.93666 19.6251 4.18683 19.8765C4.43621 20.127 4.69728 20.3672 4.97016 20.595L4.97056 20.5953C5.24316 20.8219 5.52658 21.0361 5.82088 21.236C6.11552 21.4364 6.41808 21.6224 6.73232 21.795L16.5801 20.525ZM18.1812 21.2377C17.8881 21.4374 17.5845 21.6236 17.2712 21.7951L23.0509 11.9972C23.0509 12.381 23.0307 12.7605 22.9943 13.1335L22.9942 13.134C22.9567 13.5103 22.9 13.8795 22.8271 14.2414L22.827 14.2421C22.7531 14.6043 22.6619 14.9607 22.5554 15.3091L22.5551 15.31C22.4466 15.6605 22.3227 16.0016 22.1834 16.334L22.1834 16.3341C22.0433 16.6681 21.8876 16.9948 21.7163 17.3104M18.1812 21.2377C18.1812 21.2378 18.1811 21.2378 18.1811 21.2378L18.0405 21.0311L18.1812 21.2377ZM18.1812 21.2377C18.4763 21.037 18.7599 20.8227 19.0327 20.5949M19.0327 20.5949C19.3052 20.3684 19.5676 20.129 19.8168 19.8767C20.0651 19.6251 20.3032 19.3618 20.529 19.0865L20.5293 19.0861C20.7539 18.8111 20.9662 18.5253 21.1643 18.2285M19.0327 20.5949L18.8725 20.403M19.0327 20.5949C19.0326 20.595 19.0325 20.5952 19.0323 20.5953L18.8725 20.403M21.1643 18.2285C21.3629 17.9313 21.5472 17.6253 21.7163 17.3104M21.1643 18.2285L20.9564 18.0895M21.1643 18.2285C21.1643 18.2284 21.1643 18.2284 21.1644 18.2283L20.9564 18.0895M21.7163 17.3104C21.7163 17.3105 21.7162 17.3106 21.7161 17.3107L21.4964 17.1914M21.7163 17.3104C21.7165 17.3101 21.7166 17.3099 21.7167 17.3097L21.4964 17.1914M21.4964 17.1914C21.3311 17.4993 21.1508 17.7987 20.9564 18.0895M21.4964 17.1914C21.6636 16.8836 21.8157 16.5643 21.9529 16.2374C22.089 15.9125 22.2102 15.579 22.3163 15.2361C22.4205 14.895 22.5098 14.5464 22.5821 14.1921C22.6534 13.8378 22.7088 13.4768 22.7455 13.1092L20.9564 18.0895M20.9564 18.0895C20.763 18.3794 20.5554 18.6589 20.3357 18.928M20.9564 18.0895L20.3357 18.928M20.3357 18.928C20.115 19.197 19.8821 19.4547 19.6389 19.701C19.3956 19.9473 19.1393 20.1813 18.8725 20.403M20.3357 18.928L18.8725 20.403" fill="#0C75EB" stroke="#0C75EB" stroke-width="0.5"/>
<path d="M2.58544 10.0391L2.58525 10.04C2.52128 10.3545 2.4727 10.6768 2.43875 11.0035C2.40671 11.3281 2.38931 11.6598 2.38935 11.9948L2.38935 11.9948C2.38935 12.3923 2.0691 12.7185 1.66977 12.7185C1.27045 12.7185 0.950195 12.3923 0.950195 11.9948C0.950195 11.611 0.970371 11.2313 1.00782 10.8578L2.58544 10.0391ZM2.58544 10.0391C2.64849 9.72296 2.72804 9.41297 2.82141 9.11101L2.82147 9.11081M2.58544 10.0391L2.82147 9.11081M2.82147 9.11081C2.91485 8.80792 3.02283 8.50967 3.14357 8.22083C3.26652 7.93026 3.4011 7.64682 3.54812 7.37312C3.69786 7.09791 3.85812 6.83015 4.03151 6.5724L4.0323 6.5712M2.82147 9.11081L4.0323 6.5712M4.0323 6.5712C4.20254 6.31496 4.38905 6.06579 4.58318 5.8254C4.78047 5.58573 4.98629 5.35606 5.20429 5.137C5.42344 4.91689 5.65046 4.70815 5.8873 4.51076C6.12541 4.31414 6.37247 4.12593 6.62764 3.95315L6.62852 3.95255M4.0323 6.5712L6.62852 3.95255M6.62852 3.95255C6.88321 3.7785 7.14864 3.61689 7.42036 3.46685C7.69254 3.31759 7.97347 3.18189 8.26041 3.0589C8.54614 2.93643 8.84251 2.82748 9.14121 2.7332C9.44203 2.63913 9.74939 2.55975 10.0633 2.49513L10.0636 2.49507M6.62852 3.95255L10.0636 2.49507M10.0636 2.49507C10.3751 2.43059 10.6944 2.38161 11.0162 2.34738C11.6633 2.28282 12.3391 2.28284 12.9822 2.34738C13.3058 2.38161 13.6252 2.43059 13.9367 2.49507L13.9376 2.49527M10.0636 2.49507L13.9376 2.49527M13.9376 2.49527C14.2508 2.55881 14.5578 2.63899 14.8569 2.73311C15.1573 2.82827 15.4529 2.93725 15.7391 3.05896C16.0269 3.18289 16.3078 3.31862 16.5793 3.4661C16.8519 3.61706 17.1172 3.77862 17.3725 3.95342L17.3732 3.95387M13.9376 2.49527L17.3732 3.95387M17.3732 3.95387C17.6279 4.12698 17.875 4.3143 18.1126 4.51054C18.3503 4.7096 18.578 4.91728 18.7953 5.13728C19.0135 5.35836 19.2204 5.5874 19.4161 5.82635C19.6023 6.05465 19.7793 6.29043 19.9437 6.53533H17.6354M17.3732 3.95387L17.6354 6.53533M17.6354 6.53533C17.2354 6.53412 16.9153 6.86086 16.9153 7.25805C16.9153 7.65553 17.2356 7.98175 17.6349 7.98175H21.3914C21.7907 7.98175 22.111 7.65553 22.111 7.25805V3.4685C22.111 3.07102 21.7907 2.7448 21.3914 2.7448C20.9921 2.7448 20.6718 3.07102 20.6718 3.4685V5.08742C20.6241 5.02646 20.5756 4.96602 20.5262 4.90615C20.3017 4.63133 20.0644 4.36676 19.8143 4.11542C19.5652 3.8651 19.304 3.62384 19.0297 3.39568L19.0296 3.39561C18.757 3.169 18.4735 2.95472 18.1792 2.75485M17.6354 6.53533L18.1792 2.75485M18.1792 2.75485C18.1792 2.75489 18.1793 2.75493 18.1793 2.75496L18.0387 2.96167L18.1792 2.75485ZM18.1792 2.75485C17.8846 2.55447 17.5821 2.36846 17.2679 2.19595L18.1792 2.75485ZM16.3008 1.72658L16.3009 1.72661C16.632 1.86794 16.955 2.02404 17.2678 2.19592L16.3008 1.72658ZM16.3008 1.72658C15.9711 1.586 15.6329 1.46096 15.2852 1.35146L15.2844 1.3512M16.3008 1.72658L15.2844 1.3512M15.2844 1.3512C14.9388 1.24371 14.5853 1.15165 14.226 1.07705V1.07704M15.2844 1.3512L14.226 1.07704M14.226 1.07704L14.2254 1.07692M14.226 1.07704L14.2254 1.07692M14.2254 1.07692C13.8664 1.00334 13.5003 0.946114 13.1271 0.908269L14.2254 1.07692ZM10.8676 0.908272L10.8678 0.908252C11.6151 0.832675 12.3842 0.832655 13.127 0.908259L10.8676 0.908272ZM10.8676 0.908272C10.4963 0.946115 10.1302 1.00334 9.77121 1.07692L9.77121 1.07691M10.8676 0.908272L9.77121 1.07691M9.77121 1.07691L9.77017 1.07713M9.77121 1.07691L9.77017 1.07713M9.77017 1.07713C9.41427 1.15166 9.06093 1.24268 8.71295 1.35126L8.71239 1.35144M9.77017 1.07713L8.71239 1.35144M8.71239 1.35144C8.36715 1.46007 8.02807 1.5861 7.69789 1.72648M8.71239 1.35144L7.69789 1.72648M5.82067 2.75424L5.82113 2.75393C6.11443 2.55473 6.41704 2.36767 6.73085 2.1958L5.82067 2.75424ZM5.82067 2.75424C5.52676 2.9548 5.24342 3.16895 4.97061 3.39662C4.69671 3.6235 4.43534 3.86292 4.18564 4.11486C3.9358 4.36689 3.69851 4.63048 3.47281 4.90662L3.47275 4.90669M5.82067 2.75424L3.47275 4.90669M3.47275 4.90669C3.24814 5.1817 3.03585 5.46751 2.83788 5.76325L2.83779 5.76339M3.47275 4.90669L2.83779 5.76339M2.83779 5.76339C2.63945 6.06011 2.45398 6.3654 2.28355 6.68399C2.11332 6.99933 1.95882 7.32466 1.81807 7.65693L1.81807 7.65693M2.83779 5.76339L1.81807 7.65693M1.81807 7.65693L1.81747 7.65838M1.81807 7.65693L1.81747 7.65838M1.81747 7.65838C1.67937 7.99019 1.55452 8.33215 1.44681 8.68228L1.44667 8.68271M1.81747 7.65838L1.44667 8.68271M1.44667 8.68271C1.34017 9.03116 1.24896 9.38752 1.17504 9.7498H1.17504M1.44667 8.68271L1.17504 9.7498M1.17504 9.7498L1.17492 9.75042M1.17504 9.7498L1.17492 9.75042M1.17492 9.75042C1.10202 10.1124 1.04532 10.4815 1.00783 10.8578L1.17492 9.75042ZM7.69789 1.72648C7.36707 1.86712 7.04409 2.02422 6.73087 2.19579L7.69789 1.72648ZM20.2411 6.53533C20.2647 6.57432 20.2876 6.61384 20.3105 6.65338C20.3361 6.69756 20.3618 6.74177 20.3884 6.78533H20.0979C20.0943 6.77914 20.0908 6.77303 20.0873 6.76698C20.0486 6.69997 20.0141 6.64011 19.9699 6.57464L20.2411 6.53533Z" fill="#0C75EB" stroke="#0C75EB" stroke-width="0.5"/>
<g clip-path="url(#clip1_14382_67880)">
<path d="M10.4644 11.6792H13.6204V12.4358H10.4644V11.6792ZM10.4644 13.1076H13.6204V13.8642H10.4644V13.1076ZM10.4644 10.2266H13.6204V10.9831H10.4644V10.2266Z" fill="#0C75EB"/>
<path d="M14.0043 7.76151L12.9843 7.32572L12.0483 7.76151L11.0463 7.32572L10.1043 7.76151L8.67627 7.15625V16.8405L10.1043 16.2352L11.0463 16.6528L12.0483 16.2352L12.9843 16.6528L14.0043 16.2352L15.3243 16.8405V7.15625L14.0043 7.76151ZM14.5683 15.6965L14.0163 15.4484L13.0023 15.866L12.0603 15.4302L11.0523 15.8478L10.1223 15.4302L9.43227 15.7147V8.28204L10.1223 8.56651L11.0523 8.14888L12.0603 8.56651L13.0023 8.14888L14.0163 8.56651L14.5683 8.31836V15.6965Z" fill="#0C75EB"/>
</g>
</g>
<defs>
<clipPath id="clip0_14382_67880">
<rect width="24" height="23" fill="white" transform="translate(0 0.5)"/>
</clipPath>
<clipPath id="clip1_14382_67880">
<rect width="9.6" height="9.68421" fill="white" transform="translate(7.2002 7.15625)"/>
</clipPath>
</defs>
</svg>
