<svg width="149" height="123" viewBox="0 0 149 123" fill="none" xmlns="http://www.w3.org/2000/svg">
<path opacity="0.9" d="M87.3805 10.1399C71.132 26.7593 62.6332 27.9602 42.0461 37.154C25.2151 44.6704 8.54911 59.2803 2.86388 77.4846C-12.1132 125.441 54.4565 131.438 85.8889 123.609C108.019 118.097 116.873 105.402 122.476 84.3429C124.656 76.1523 125.292 67.2935 128.882 59.4987C132.738 51.1244 140.637 47.0473 144.568 39.6948C163.626 4.0563 109.04 -12.0131 87.3805 10.1399Z" fill="#FFE3E3" fill-opacity="0.56"/>
<path d="M17.1588 31.9806L16.791 21.0146L27.757 20.6468L28.1248 31.6128L17.1588 31.9806ZM17.7723 21.9322L18.0764 30.9993L27.1435 30.6952L26.8394 21.628L17.7723 21.9322Z" fill="black"/>
<path d="M128.523 35.4658C128.523 36.902 127.359 38.0665 125.923 38.0665C124.487 38.0665 123.322 36.902 123.322 35.4658C123.322 34.0296 124.487 32.8651 125.923 32.8651C127.359 32.8651 128.523 34.0296 128.523 35.4658Z" fill="#EC6750"/>
<path d="M42.6834 16.906C42.6834 18.8116 41.1384 20.3567 39.2327 20.3567C37.327 20.3567 35.7822 18.8116 35.7822 16.906C35.7822 15.0004 37.327 13.4553 39.2327 13.4553C41.1384 13.4553 42.6834 15.0004 42.6834 16.906Z" fill="#EC6750"/>
<path d="M98.1119 16.7185L97.9209 17.4514L105.205 19.3498L105.396 18.617L98.1119 16.7185Z" fill="black"/>
<path d="M102.235 14.3066L100.336 21.5911L101.069 21.7822L102.968 14.4977L102.235 14.3066Z" fill="black"/>
<path d="M117.018 28.7273C113.691 28.4192 111.235 25.4617 111.543 22.1344C111.851 18.8071 114.808 16.3508 118.135 16.6588C121.462 16.9669 123.919 19.9244 123.611 23.2517C123.303 26.579 120.345 29.0353 117.018 28.7273ZM118.052 17.554C115.219 17.2916 112.7 19.3836 112.438 22.2173C112.175 25.051 114.267 27.5698 117.101 27.8322C119.934 28.0945 122.453 26.0026 122.716 23.1688C122.978 20.3351 120.886 17.8163 118.052 17.554Z" fill="black"/>
<path d="M64.4739 14.8731L12.915 97.3761C8.80455 103.953 13.3004 112.697 20.7863 112.688C94.9445 112.594 67.3132 112.691 123.9 112.708C131.382 112.711 135.87 103.971 131.761 97.3967L80.1899 14.8731C76.4762 8.93042 68.1877 8.93042 64.4739 14.8731Z" fill="url(#paint0_linear_5_6312)"/>
<path d="M67.2012 91.9851C67.2012 88.8361 69.388 86.5618 72.3621 86.5618C75.5111 86.5618 77.5229 88.8361 77.5229 91.9851C77.5229 95.0466 75.511 97.4084 72.3621 97.4084C69.3005 97.4084 67.2012 95.0466 67.2012 91.9851ZM69.3548 78.341L68.1984 38.6934C68.1792 38.0344 68.7082 37.4897 69.3675 37.4897H75.3565C76.0158 37.4897 76.5448 38.0344 76.5256 38.6934L75.3692 78.341C75.3508 78.9734 74.8328 79.4765 74.2001 79.4765H70.524C69.8913 79.4765 69.3733 78.9734 69.3548 78.341Z" fill="white" stroke="white" stroke-width="16" stroke-miterlimit="10"/>
<path d="M57.5445 14.9959L12.9936 101.485C9.44183 108.38 14.6462 116.721 22.1056 116.092C96.0014 109.858 68.4731 112.243 124.867 107.575C132.323 106.958 136.072 97.8761 131.434 91.665L73.2066 13.6947C69.0135 8.0799 60.7535 8.76616 57.5445 14.9959Z" stroke="black" stroke-miterlimit="10"/>
<path d="M67.0691 92.1116C67.0121 88.9631 69.1574 86.6496 72.1309 86.5957C75.2794 86.5387 77.3322 88.7762 77.3892 91.9247C77.4447 94.9857 75.4759 97.3836 72.3274 97.4406C69.2664 97.496 67.1246 95.1726 67.0691 92.1116ZM68.9754 78.4307L67.1011 38.8106C67.07 38.152 67.589 37.5978 68.2482 37.5859L74.2362 37.4774C74.8954 37.4655 75.4342 38.0005 75.4269 38.6597L74.9887 78.3218C74.9818 78.9544 74.4729 79.4668 73.8404 79.4783L70.1648 79.5448C69.5323 79.5563 69.0053 79.0627 68.9754 78.4307Z" stroke="black" stroke-miterlimit="10"/>
<defs>
<linearGradient id="paint0_linear_5_6312" x1="72.3382" y1="112.708" x2="72.3382" y2="10.4161" gradientUnits="userSpaceOnUse">
<stop stop-color="#E64734"/>
<stop offset="0.0491" stop-color="#E74B37"/>
<stop offset="0.3055" stop-color="#EA5B45"/>
<stop offset="0.5975" stop-color="#EB644D"/>
<stop offset="1" stop-color="#EC6750"/>
</linearGradient>
</defs>
</svg>
