<svg width="196" height="88" viewBox="0 0 196 88" fill="none" xmlns="http://www.w3.org/2000/svg">
<path opacity="0.3" d="M137.898 87.9989C138.692 87.5306 139.478 87.0475 140.255 86.5483C150.157 80.1869 158.654 70.8146 161.46 59.3846C164.267 47.9546 160.251 34.489 150.196 28.3718C141.454 23.0534 130.261 24.0497 120.415 26.836C110.57 29.6224 101.085 34.0267 90.9069 35.0812C78.8523 36.3303 65.9276 32.9049 54.9798 38.1032C42.8288 43.8728 37.3515 59.6391 41.2884 72.5013C43.093 78.3971 46.5397 83.5912 50.9921 87.8353L137.898 87.9989Z" fill="#FD8C85"/>
<path opacity="0.6" d="M62.2724 87.9498L62.2357 87.9264C61.4593 87.4335 60.6908 86.9241 59.9518 86.4122C49.1578 78.9432 41.8552 68.8596 39.389 58.0185C36.488 45.2664 41.103 31.6033 50.3623 25.5313C57.5776 20.7997 67.3126 20.2508 79.2963 23.9004C82.4126 24.8496 85.5401 25.9966 88.5646 27.106C94.7772 29.3851 101.201 31.7414 107.811 32.4767C111.903 32.931 116.167 32.7831 120.291 32.6388C127.876 32.3739 135.719 32.1003 142.616 35.6269C153.954 41.4235 159.922 57.5827 155.922 71.6484C154.195 77.7201 150.682 82.5238 144.176 87.7108L144.135 87.7429L144.084 87.7432L62.2724 87.9498ZM64.9579 21.8169C59.3789 21.8169 54.5527 23.1385 50.5251 25.7797C41.3659 31.7862 36.8043 45.3169 39.6788 57.9529C42.1285 68.7207 49.3884 78.7413 60.1209 86.168C60.8452 86.6694 61.5978 87.1686 62.3583 87.6524L144.031 87.4462C150.459 82.3127 153.931 77.5618 155.636 71.5667C159.6 57.6308 153.698 41.6267 142.481 35.8913C135.652 32.4004 127.849 32.6737 120.302 32.9356C116.167 33.0803 111.892 33.2296 107.779 32.7716C101.133 32.0327 94.6914 29.6698 88.4624 27.3849C85.4416 26.2769 82.318 25.131 79.2095 24.1844C74.0258 22.6058 69.2671 21.8169 64.9579 21.8169Z" fill="#9192FF"/>
<path d="M109.26 30.8238L95.4916 29.9878L77.5279 34.7343C71.2284 36.3983 66.1134 40.9942 63.7917 47.0799L52.5674 76.474L74.6238 56.9294L80.6989 87.701L121.904 87.5689L121.772 44.8454L109.26 30.8238Z" fill="#003858"/>
<path d="M98.2754 46.775C95.7803 46.775 93.4504 45.8032 91.9092 44.086L92.2039 43.8215C93.8532 45.6589 96.4606 46.6016 99.1746 46.3348C102.084 46.0525 104.626 44.4255 106.149 41.8711L106.49 42.0744C104.901 44.7379 102.249 46.4347 99.2131 46.7295C98.8989 46.7597 98.5855 46.775 98.2754 46.775Z" fill="#C5C5FF"/>
<path d="M99.9851 41.3997C97.3464 42.6755 94.1055 41.4156 92.7783 38.5946L92.3305 37.6398L87.7901 27.9923L85.0127 22.085L98.432 15.5991L104.276 28.016C106.677 33.1231 104.763 39.0898 99.9851 41.3997Z" fill="#FFBC96"/>
<path d="M99.7127 25.5002C98.532 31.2531 95.5803 35.1953 92.3315 37.6398L87.791 27.9923L99.7127 25.5002Z" fill="#1B1B43"/>
<path d="M101.285 18.3018C101.285 25.2491 97.3678 30.0115 92.3992 32.4664C87.286 34.9928 81.9469 25.2862 79.3966 18.797C76.7497 12.0615 84.0366 7.01001 90.1372 7.01001C96.2377 7.0101 101.285 11.3544 101.285 18.3018Z" fill="#FFBC96"/>
<path d="M101.563 14.3397C100.969 7.20807 99.5191 0.466488 92.9124 2.18957C90.4032 -1.31023 79.9038 -1.24419 77.3286 7.076C75.6673 12.4435 70.3291 15.066 70.3291 15.066C76.7343 18.4337 82.6391 17.1724 90.8655 10.9059C93.4408 14.6698 100.77 14.9339 100.77 14.9339L101.563 14.3397Z" fill="#1B1B43"/>
<path d="M103.613 17.689C103.901 15.4371 102.708 13.4287 100.948 13.2029C99.1876 12.9772 97.5265 14.6197 97.2377 16.8715C96.9489 19.1233 98.1419 21.1317 99.9023 21.3575C101.663 21.5832 103.324 19.9408 103.613 17.689Z" fill="#FFBC96"/>
<path d="M101.068 15.5849C100.641 15.9367 100.501 16.4135 100.506 16.9231C100.509 17.1754 100.549 17.4313 100.622 17.6751C100.7 17.9186 100.804 18.1486 100.979 18.3507L100.861 18.5509C100.535 18.4439 100.292 18.1693 100.142 17.8793C99.9886 17.5846 99.9142 17.2562 99.9141 16.9247C99.9165 16.5948 99.9908 16.2525 100.175 15.9601C100.353 15.6668 100.651 15.4394 100.971 15.3738L101.068 15.5849Z" fill="#1B1B43"/>
<path d="M90.0046 21.0006C90.5566 20.9639 90.9708 20.4328 90.9297 19.8141C90.8887 19.1955 90.4079 18.7237 89.8559 18.7603C89.3039 18.797 88.8897 19.3282 88.9308 19.9468C88.9718 20.5654 89.4526 21.0372 90.0046 21.0006Z" fill="#1B1B43"/>
<path d="M85.0497 22.8467C85.5179 22.6656 85.7329 22.0933 85.5299 21.5686C85.3269 21.0439 84.7828 20.7653 84.3146 20.9465C83.8464 21.1276 83.6313 21.6998 83.8343 22.2245C84.0373 22.7493 84.5814 23.0278 85.0497 22.8467Z" fill="#1B1B43"/>
<path d="M92.643 16.9868C92.6638 17.3008 90.9954 17.1999 90.2785 17.3513C89.6664 17.4806 88.7342 18.0768 88.3139 17.4816C87.9349 16.9447 88.8873 16.3358 90.0674 16.2576C91.2476 16.1793 92.6221 16.6727 92.643 16.9868Z" fill="#1B1B43"/>
<path d="M81.8909 20.4402C82.0784 20.6975 82.9302 19.8124 83.4195 19.5854C83.8373 19.3915 84.7267 19.4106 84.5803 18.7392C84.4483 18.1337 83.5399 18.1144 82.8426 18.6227C82.1452 19.1309 81.7033 20.183 81.8909 20.4402Z" fill="#1B1B43"/>
<path d="M88.5723 27.5096C88.954 27.05 89.4992 26.7521 90.0518 26.566C90.6103 26.3831 91.1845 26.3029 91.7641 26.3453L91.8068 26.5737C91.2808 26.8233 90.7477 26.9624 90.2349 27.1285C89.7176 27.2885 89.2315 27.4788 88.7113 27.6957L88.5723 27.5096Z" fill="#1B1B43"/>
<path d="M87.0694 22.5337C87.0985 22.9651 87.0346 23.4248 86.8117 23.8447C86.7044 24.0541 86.5497 24.2431 86.3933 24.4007C86.2395 24.5584 86.0835 24.6904 86.0465 24.7848C86.0346 24.8327 86.0135 24.87 86.0242 24.9411C86.0218 24.9842 86.0336 24.9866 86.0311 24.9936C86.0324 25.0043 86.0491 25.0185 86.0594 25.0371C86.1329 25.1203 86.3075 25.2049 86.4821 25.2693C86.8425 25.3975 87.2501 25.484 87.6516 25.5793L87.6461 25.8116C87.2134 25.8701 86.7833 25.8674 86.3374 25.7707C86.115 25.7155 85.884 25.6512 85.6494 25.4469C85.5954 25.3858 85.5366 25.3209 85.4995 25.2357C85.4612 25.1443 85.4364 25.0483 85.4373 24.985C85.4165 24.8479 85.4452 24.6738 85.5125 24.5303C85.6666 24.2473 85.8593 24.1221 86.0014 23.9894C86.1496 23.8609 86.2697 23.73 86.3782 23.5814C86.5925 23.2835 86.7265 22.9087 86.8382 22.5107L87.0694 22.5337Z" fill="#D28572"/>
<path opacity="0.2" d="M97.8715 21.5336C97.8886 20.1344 96.7681 18.9862 95.3688 18.9691C93.9696 18.9521 92.8214 20.0725 92.8044 21.4718C92.7873 22.871 93.9078 24.0192 95.307 24.0363C96.7063 24.0534 97.8544 22.9329 97.8715 21.5336Z" fill="#FE5B52"/>
<path d="M132.209 45.1796C128.294 36.9466 120.216 31.4948 111.115 30.9401L109.257 30.8252L122.962 62.0336L137.963 56.465L132.209 45.1796Z" fill="#003858"/>
<path d="M84.3271 24.8395C84.1785 22.5613 84.5747 17.2126 83.188 17.807C81.8012 18.4013 81.4545 26.1266 81.4545 26.1266C81.4545 26.1266 81.2564 13.2501 79.7707 13.8444C78.2849 14.4388 78.2849 23.7495 75.0164 33.6544L56.6588 72.4241C54.4505 77.0877 57.2324 82.5821 62.2985 83.5627C66.0144 84.2818 69.7174 82.2648 71.1304 78.7537C75.8851 66.9394 84.6184 41.4435 85.4661 36.478C86.1595 32.4169 85.9806 30.6607 85.7126 29.6165C85.2697 27.8909 84.443 26.6171 84.3271 24.8395Z" fill="#FFBC96"/>
<path d="M75.1318 32.7979C75.6935 31.2705 76.0609 29.6741 76.4029 28.0792C76.7398 26.4814 77.0231 24.8719 77.3141 23.2633L78.175 18.4309C78.3266 17.626 78.4839 16.8215 78.6722 16.02C78.767 15.6194 78.8689 15.2195 78.9959 14.8217C79.0607 14.6229 79.1305 14.4246 79.2213 14.2268C79.2656 14.128 79.3195 14.0291 79.3853 13.9302C79.4567 13.8365 79.534 13.7181 79.7265 13.6582L79.712 13.6622C79.7689 13.6508 79.83 13.6443 79.8885 13.6436C79.9439 13.6521 79.9984 13.673 80.0509 13.6935C80.1346 13.7435 80.2145 13.8074 80.2582 13.8703C80.3662 13.9974 80.4265 14.1269 80.486 14.2561C80.5998 14.5148 80.6819 14.775 80.75 15.0361C80.8888 15.5581 80.9862 16.0831 81.0709 16.609C81.2364 17.661 81.3495 18.7167 81.4378 19.7736C81.6093 21.8877 81.7008 24.0063 81.6802 26.1294L81.2294 26.1197C81.279 24.9209 81.369 23.731 81.505 22.5404C81.6492 21.3519 81.8154 20.1613 82.1895 18.9954C82.292 18.7056 82.4043 18.4161 82.5764 18.1391C82.6672 18.0026 82.7685 17.8649 82.9196 17.7532C83.0622 17.6327 83.285 17.5751 83.4887 17.6028C83.5364 17.6136 83.5814 17.6312 83.6277 17.6466C83.6752 17.6672 83.7134 17.6664 83.7735 17.7192C83.8008 17.741 83.8271 17.7645 83.8513 17.7888C83.8727 17.8121 83.88 17.8304 83.8947 17.8517C83.9183 17.892 83.9509 17.9368 83.9646 17.9746C84.0347 18.1313 84.0798 18.2823 84.118 18.4331C84.1958 18.7343 84.2406 19.033 84.2842 19.3325C84.4389 20.5295 84.4797 21.7277 84.4697 22.9247C84.4658 23.5283 84.4279 24.1141 84.48 24.6944C84.5272 25.2767 84.6336 25.8538 84.7837 26.4215C84.935 26.9891 85.1268 27.5476 85.3364 28.1016C85.5508 28.6501 85.7658 29.2312 85.8859 29.8225C86.1413 31.0077 86.1693 32.2259 86.0597 33.4195C85.9489 34.6148 85.7157 35.7929 85.4037 36.946L85.2319 36.9012C85.5206 35.7501 85.7294 34.5788 85.8167 33.3999C85.9029 32.2226 85.8518 31.0322 85.5835 29.891C85.4542 29.316 85.2561 28.7754 85.0324 28.2174C84.8171 27.6591 84.6177 27.0911 84.4585 26.5086C84.3003 25.926 84.1859 25.3285 84.133 24.7235C84.0751 24.1159 84.1105 23.5089 84.1101 22.9224C84.1128 21.7387 84.0637 20.5502 83.9055 19.3854C83.8616 19.0964 83.8156 18.8053 83.7423 18.5302C83.7069 18.3927 83.664 18.2582 83.6119 18.1432C83.6002 18.1107 83.5838 18.0972 83.5714 18.0726C83.5569 18.0414 83.5468 18.0394 83.5468 18.0394C83.5572 18.032 83.5151 18.0242 83.4947 18.0163C83.4703 18.0089 83.4458 17.9972 83.4219 17.9908C83.2463 17.9627 83.0555 18.1178 82.9139 18.3529C82.7724 18.5832 82.6675 18.8523 82.5739 19.1238C82.2255 20.2311 82.0641 21.4147 81.9304 22.5881C81.8035 23.7648 81.7214 24.9523 81.6802 26.1334L81.2294 26.1237C81.2492 24.0188 81.18 21.908 81.019 19.8073C80.9375 18.7572 80.8311 17.7087 80.6742 16.6712C80.5941 16.1532 80.5009 15.6369 80.3708 15.1365C80.3075 14.8861 80.23 14.6401 80.1323 14.4148C80.084 14.3043 80.0274 14.1916 79.9631 14.118C79.9326 14.0709 79.8998 14.0569 79.8759 14.0354C79.8658 14.0363 79.8586 14.0292 79.8505 14.0251C79.8432 14.0311 79.8386 14.0313 79.8299 14.0266L79.8153 14.0307C79.8082 14.03 79.7435 14.0779 79.6983 14.1482C79.651 14.2194 79.6051 14.2997 79.5654 14.3873C79.4844 14.5607 79.4165 14.7483 79.3537 14.9377C79.2296 15.3183 79.1268 15.7109 79.0311 16.1055C78.8407 16.8953 78.6792 17.6956 78.5234 18.497L77.6348 23.321C77.3419 24.9309 77.0216 26.5371 76.658 28.1348C76.2873 29.7297 75.8922 31.3257 75.2978 32.8614L75.1318 32.7979Z" fill="#D28572"/>
<path d="M145.135 78.2424C145.068 82.8067 143.079 85.996 140.587 87.8344L135.527 87.7551L134.275 87.7353H134.248L128.301 74.1972L128.289 74.1655L122.96 62.0339L137.96 56.4634L143.558 70.2035C144.707 73.2424 145.171 75.9207 145.135 78.2424Z" fill="#FFBC96"/>
<path d="M140.985 72.7793L101.607 77.1849L96.4837 75.5295C94.1643 74.7802 91.6243 75.2412 89.7197 76.7623C85.2518 80.3309 77.988 86.9086 79.8706 87.4381C83.0402 88.3296 87.1798 86.6615 90.8961 85.7283C92.9489 85.2128 95.1174 85.4564 97.0012 86.4212L99.5775 87.7408L138.805 87.7352L140.985 72.7793Z" fill="#FFBC96"/>
<path d="M80.8096 86.7402C81.8723 86.1187 82.951 85.5287 84.0335 84.9461C85.1128 84.3573 86.211 83.8053 87.2988 83.2331C87.8351 82.9517 88.4095 82.6625 89.009 82.4547C89.6083 82.2487 90.2279 82.0986 90.8567 82.0293C91.485 81.9587 92.1186 81.9517 92.7447 82.0079C93.3695 82.0767 93.9881 82.1976 94.5784 82.4007L94.5175 82.6249C93.921 82.5081 93.3207 82.4294 92.719 82.4225C92.1187 82.4026 91.5182 82.4435 90.9295 82.5435C90.3408 82.6424 89.7612 82.7907 89.2042 83.0006C88.6415 83.1982 88.1227 83.4789 87.5662 83.7578C86.4639 84.3017 85.3721 84.8659 84.2613 85.3932C83.1537 85.9266 82.0424 86.4526 80.9151 86.9473L80.8096 86.7402Z" fill="#D28572"/>
<path d="M81.3818 84.7736C82.0969 84.0963 82.8449 83.4603 83.6084 82.8417C84.3691 82.2194 85.1535 81.6264 85.9563 81.0565C86.7638 80.4932 87.5811 79.941 88.4499 79.463C89.3221 79.0052 90.21 78.5057 91.2522 78.4082L91.2715 78.6397C90.8212 78.7584 90.3823 78.9339 89.9635 79.1774C89.5352 79.3915 89.1245 79.6526 88.7151 79.9093C87.8959 80.4269 87.097 80.9848 86.297 81.54C85.4967 82.0963 84.7112 82.6757 83.9135 83.2403C83.1209 83.8114 82.3309 84.3892 81.53 84.9527L81.3818 84.7736Z" fill="#D28572"/>
<path d="M133.508 73.7453L128.226 73.8748L128.24 74.4687L133.523 74.3392L133.508 73.7453Z" fill="#D28572"/>
<path d="M119.305 54.1285L118.949 54.3032L122.784 62.1127L123.14 61.938L119.305 54.1285Z" fill="#EBEBFF"/>
<path opacity="0.2" d="M145.137 78.2419C145.07 82.8062 143.081 85.9955 140.589 87.8339L135.529 87.7546C135.525 87.7467 135.525 87.7427 135.525 87.7348C135.339 87.0731 135.24 86.3759 135.24 85.6548C135.24 82.3782 137.277 79.581 140.157 78.4559C141.029 78.1151 141.976 77.929 142.966 77.929C143.719 77.929 144.448 78.0358 145.137 78.2419Z" fill="#FE5B52"/>
<path d="M82.4116 82.9578H59.8281V87.7121H82.4116V82.9578Z" fill="#1B1B43"/>
<path d="M67.4883 87.7125H31.6322L21.3311 51.8564H57.1871L67.4883 87.7125Z" fill="#EBEBFF"/>
<path d="M31.4854 87.7539L21.1299 51.708H32.2226V52.0054H21.5244L31.7711 87.6716L31.4854 87.7539Z" fill="#1B1B43"/>
<path d="M63.644 74.6043L57.0717 52.0054H40.543V51.708H57.2946L63.9292 74.5212L63.644 74.6043Z" fill="#1B1B43"/>
</svg>
