<svg width="87" height="97" viewBox="0 0 87 97" fill="none" xmlns="http://www.w3.org/2000/svg">
<g filter="url(#filter0_d_3673_22812)">
<path d="M16 48.5C16 30.5507 30.5507 16 48.5 16H87V81H48.5C30.5507 81 16 66.4493 16 48.5Z" fill="#3B4957"/>
</g>
<path d="M55.2255 57.6797H46.2891V63.6775H55.2255V57.6797Z" fill="#D2EAFF"/>
<path d="M64.1641 50.3102C67.1033 50.3102 69.5072 49.6154 69.5072 45.6354C69.5072 41.685 67.1033 40.9609 64.1641 40.9609V50.3102Z" fill="#D2EAFF"/>
<path d="M34.0039 48.0267C34.0039 53.9039 38.8119 58.7119 44.688 58.7119H56.8202C62.6969 58.7119 67.5049 53.9039 67.5049 48.0267V44.9704C67.5049 39.0929 62.6969 34.2852 56.8202 34.2852H44.688C38.8119 34.2852 34.0039 39.0929 34.0039 44.9704V48.0267Z" fill="#FFFCFD"/>
<path d="M56.821 53.0575C60.436 53.0575 63.3772 50.1163 63.3772 46.5015C63.3772 42.8859 60.436 39.9453 56.821 39.9453H44.6888C41.0746 39.9453 38.1328 42.8859 38.1328 46.5015C38.1328 50.1163 41.0746 53.0575 44.6888 53.0575H56.821Z" fill="#3B4957"/>
<path d="M55.4274 38.2918C55.4274 35.3532 54.7329 32.9492 50.7526 32.9492C46.8028 32.9492 46.0781 35.3532 46.0781 38.2918H55.4274Z" fill="#FFFCFD"/>
<path d="M48.7344 27.0199C48.7344 25.9041 49.6394 25 50.7534 25C51.8703 25 52.7752 25.9041 52.7752 27.0199C52.7752 28.137 51.8703 29.0409 50.7534 29.0409C49.6394 29.0409 48.7344 28.137 48.7344 27.0199Z" fill="#FFFCFD"/>
<path d="M52.1562 27.4333C52.1562 26.3167 51.2512 25.4129 50.1375 25.4129C49.8573 25.4129 49.59 25.4703 49.3477 25.5728C49.7114 25.2188 50.2081 25 50.7568 25C51.8705 25 52.7755 25.9041 52.7755 27.0199C52.7755 27.8577 52.2676 28.5751 51.5435 28.8821C51.9216 28.5148 52.1562 28.0024 52.1562 27.4333Z" fill="#D2EAFF"/>
<path d="M51.4273 28.4805H50.0781V33.5474H51.4273V28.4805Z" fill="#FFFCFD"/>
<path d="M56.82 34.2852H54.3942C59.3096 34.2852 65.2459 39.0929 65.2459 44.9704V48.0267C65.2459 53.9039 60.0262 58.7119 54.1484 58.7119H56.82C62.6966 58.7119 67.5041 53.9039 67.5041 48.0267V44.9704C67.5041 39.0929 62.6966 34.2852 56.82 34.2852Z" fill="#D2EAFF"/>
<path d="M35.7161 41.0588C33.5668 41.3525 32 42.4248 32 45.6374C32 48.6782 33.4241 49.8074 35.4198 50.1666C35.7833 50.2318 36.0537 41.0128 35.7161 41.0588Z" fill="#FFFCFD"/>
<path d="M46.6314 46.4973C46.6314 45.5272 45.8438 44.7422 44.8771 44.7422C43.9066 44.7422 43.1211 45.5272 43.1211 46.4973C43.1211 47.4675 43.9066 48.2519 44.8771 48.2519C45.8438 48.2519 46.6314 47.4675 46.6314 46.4973Z" fill="white"/>
<path d="M58.3888 46.4973C58.3888 45.5272 57.6036 44.7422 56.6343 44.7422C55.6642 44.7422 54.8789 45.5272 54.8789 46.4973C54.8789 47.4669 55.6642 48.2519 56.6343 48.2519C57.6036 48.2519 58.3888 47.4669 58.3888 46.4973Z" fill="white"/>
<path d="M61.0452 69.6595C61.0452 64.8805 57.4024 61.9141 50.7534 61.9141C44.1572 61.9141 40.4609 64.8805 40.4609 69.6595C40.4609 74.4371 45.9738 73.4767 50.7534 73.4767C55.5321 73.4767 61.0452 74.4371 61.0452 69.6595Z" fill="#FFFCFD"/>
<path d="M58.9913 69.6565C58.9913 69.9628 58.9687 70.2455 58.925 70.5063C60.3531 70.0622 61.0485 69.7641 61.0485 69.7641C61.0491 69.7285 61.0494 69.6926 61.0494 69.6565C61.0494 66.0896 59.0202 63.5326 55.2266 62.4648C55.2266 62.4648 58.9913 63.7319 58.9913 69.6565Z" fill="#D2EAFF"/>
<defs>
<filter id="filter0_d_3673_22812" x="0" y="0" width="103" height="97" filterUnits="userSpaceOnUse" color-interpolation-filters="sRGB">
<feFlood flood-opacity="0" result="BackgroundImageFix"/>
<feColorMatrix in="SourceAlpha" type="matrix" values="0 0 0 0 0 0 0 0 0 0 0 0 0 0 0 0 0 0 127 0" result="hardAlpha"/>
<feOffset/>
<feGaussianBlur stdDeviation="8"/>
<feComposite in2="hardAlpha" operator="out"/>
<feColorMatrix type="matrix" values="0 0 0 0 0 0 0 0 0 0 0 0 0 0 0 0 0 0 0.25 0"/>
<feBlend mode="normal" in2="BackgroundImageFix" result="effect1_dropShadow_3673_22812"/>
<feBlend mode="normal" in="SourceGraphic" in2="effect1_dropShadow_3673_22812" result="shape"/>
</filter>
</defs>
</svg>
