<svg width="45" height="45" viewBox="0 0 45 45" fill="none" xmlns="http://www.w3.org/2000/svg">
<circle cx="22.5" cy="22.5" r="22.5" fill="#1F2C38"/>
<path d="M25.7837 28.2109H19.71V32.2874H25.7837V28.2109Z" fill="#D2EAFF"/>
<path d="M31.8623 23.2059C33.86 23.2059 35.4938 22.7336 35.4938 20.0286C35.4938 17.3437 33.86 16.8516 31.8623 16.8516V23.2059Z" fill="#D2EAFF"/>
<path d="M11.3623 21.652C11.3623 25.6466 14.6301 28.9144 18.6238 28.9144H26.8696C30.8638 28.9144 34.1315 25.6466 34.1315 21.652V19.5748C34.1315 15.5801 30.8638 12.3125 26.8696 12.3125H18.6238C14.6301 12.3125 11.3623 15.5801 11.3623 19.5748V21.652Z" fill="#FFFCFD"/>
<path d="M26.8696 25.0681C29.3266 25.0681 31.3256 23.0691 31.3256 20.6123C31.3256 18.1549 29.3266 16.1562 26.8696 16.1562H18.6238C16.1674 16.1562 14.168 18.1549 14.168 20.6123C14.168 23.0691 16.1674 25.0681 18.6238 25.0681H26.8696Z" fill="#3B4957"/>
<path d="M25.9227 15.0335C25.9227 13.0363 25.4506 11.4023 22.7454 11.4023C20.0609 11.4023 19.5684 13.0363 19.5684 15.0335H25.9227Z" fill="#FFFCFD"/>
<path d="M21.373 7.37282C21.373 6.6145 21.9881 6 22.7453 6C23.5044 6 24.1194 6.6145 24.1194 7.37282C24.1194 8.13211 23.5044 8.7464 22.7453 8.7464C21.9881 8.7464 21.373 8.13211 21.373 7.37282Z" fill="#FFFCFD"/>
<path d="M23.6987 7.65381C23.6987 6.89493 23.0836 6.28061 22.3267 6.28061C22.1362 6.28061 21.9545 6.31966 21.7899 6.38932C22.0371 6.14871 22.3747 6 22.7476 6C23.5046 6 24.1196 6.6145 24.1196 7.37282C24.1196 7.94224 23.7744 8.42988 23.2823 8.63848C23.5393 8.3889 23.6987 8.04059 23.6987 7.65381Z" fill="#D2EAFF"/>
<path d="M23.2051 8.36719H22.2881V11.811H23.2051V8.36719Z" fill="#FFFCFD"/>
<path d="M26.8695 12.3125H25.2207C28.5615 12.3125 32.5962 15.5801 32.5962 19.5748V21.652C32.5962 25.6466 29.0486 28.9144 25.0537 28.9144H26.8695C30.8636 28.9144 34.131 25.6466 34.131 21.652V19.5748C34.131 15.5801 30.8636 12.3125 26.8695 12.3125Z" fill="#D2EAFF"/>
<path d="M12.5257 16.9142C11.0649 17.1138 10 17.8426 10 20.0261C10 22.0928 10.9679 22.8603 12.3243 23.1044C12.5713 23.1487 12.7552 16.8829 12.5257 16.9142Z" fill="#FFFCFD"/>
<path d="M19.9443 20.6109C19.9443 19.9515 19.4091 19.418 18.752 19.418C18.0925 19.418 17.5586 19.9515 17.5586 20.6109C17.5586 21.2702 18.0925 21.8034 18.752 21.8034C19.4091 21.8034 19.9443 21.2702 19.9443 20.6109Z" fill="white"/>
<path d="M27.9344 20.6109C27.9344 19.9515 27.4007 19.418 26.7419 19.418C26.0825 19.418 25.5488 19.9515 25.5488 20.6109C25.5488 21.2698 26.0825 21.8034 26.7419 21.8034C27.4007 21.8034 27.9344 21.2698 27.9344 20.6109Z" fill="white"/>
<path d="M29.7423 36.3502C29.7423 33.1021 27.2664 31.0859 22.7473 31.0859C18.2642 31.0859 15.752 33.1021 15.752 36.3502C15.752 39.5973 19.4988 38.9446 22.7473 38.9446C25.9952 38.9446 29.7423 39.5973 29.7423 36.3502Z" fill="#FFFCFD"/>
<path d="M28.3429 36.3488C28.3429 36.557 28.3275 36.7491 28.2979 36.9264C29.2685 36.6245 29.7411 36.422 29.7411 36.422C29.7415 36.3978 29.7417 36.3734 29.7417 36.3488C29.7417 33.9246 28.3626 32.1867 25.7842 31.4609C25.7842 31.4609 28.3429 32.3221 28.3429 36.3488Z" fill="#D2EAFF"/>
</svg>
