<svg width="24" height="24" viewBox="0 0 24 24" fill="none" xmlns="http://www.w3.org/2000/svg">
<path d="M18.4266 17.2403L16.7603 15.5741C16.6829 15.496 16.5907 15.434 16.4892 15.3917C16.3877 15.3494 16.2788 15.3276 16.1688 15.3276C16.0588 15.3276 15.9499 15.3494 15.8484 15.3917C15.7469 15.434 15.6547 15.496 15.5773 15.5741L13.911 17.2403C13.8334 17.318 13.7717 17.4102 13.7297 17.5117C13.6877 17.6132 13.666 17.722 13.666 17.8319C13.666 17.9417 13.6877 18.0505 13.7297 18.152C13.7717 18.2535 13.8334 18.3457 13.911 18.4234C13.9887 18.5011 14.0809 18.5627 14.1824 18.6047C14.2839 18.6468 14.3927 18.6684 14.5026 18.6684C14.6124 18.6684 14.7212 18.6468 14.8227 18.6047C14.9242 18.5627 15.0164 18.5011 15.0941 18.4234L15.3357 18.1734V21.1644C15.3357 21.3854 15.4235 21.5973 15.5797 21.7535C15.7359 21.9097 15.9479 21.9975 16.1688 21.9975C16.3898 21.9975 16.6017 21.9097 16.7579 21.7535C16.9142 21.5973 17.002 21.3854 17.002 21.1644V18.1734L17.2436 18.4234C17.321 18.5015 17.4132 18.5635 17.5147 18.6058C17.6162 18.6481 17.7251 18.6698 17.8351 18.6698C17.9451 18.6698 18.054 18.6481 18.1555 18.6058C18.257 18.5635 18.3492 18.5015 18.4266 18.4234C18.5047 18.3459 18.5667 18.2538 18.609 18.1523C18.6513 18.0507 18.673 17.9418 18.673 17.8319C18.673 17.7219 18.6513 17.613 18.609 17.5115C18.5667 17.4099 18.5047 17.3178 18.4266 17.2403Z" fill="#0AA708"/>
<path d="M23.4254 18.9057C23.3479 18.8276 23.2558 18.7656 23.1543 18.7233C23.0527 18.681 22.9438 18.6592 22.8339 18.6592C22.7239 18.6592 22.615 18.681 22.5135 18.7233C22.4119 18.7656 22.3198 18.8276 22.2423 18.9057L22.0007 19.1556V16.1647C22.0007 15.9437 21.913 15.7318 21.7567 15.5756C21.6005 15.4193 21.3886 15.3315 21.1676 15.3315C20.9466 15.3315 20.7347 15.4193 20.5785 15.5756C20.4222 15.7318 20.3345 15.9437 20.3345 16.1647V19.1556L20.0929 18.9057C19.936 18.7488 19.7232 18.6607 19.5013 18.6607C19.2795 18.6607 19.0667 18.7488 18.9098 18.9057C18.7529 19.0626 18.6648 19.2753 18.6648 19.4972C18.6648 19.7191 18.7529 19.9318 18.9098 20.0887L20.5761 21.755C20.6535 21.8331 20.7457 21.8951 20.8472 21.9374C20.9487 21.9797 21.0576 22.0014 21.1676 22.0014C21.2776 22.0014 21.3865 21.9797 21.488 21.9374C21.5895 21.8951 21.6817 21.8331 21.7591 21.755L23.4254 20.0887C23.5035 20.0113 23.5655 19.9191 23.6078 19.8176C23.6501 19.7161 23.6718 19.6072 23.6718 19.4972C23.6718 19.3872 23.6501 19.2783 23.6078 19.1768C23.5655 19.0753 23.5035 18.9831 23.4254 18.9057Z" fill="#0AA708"/>
<path d="M12.602 20.0123C11.8654 20.2246 11.1024 20.3312 10.3359 20.3289C8.68809 20.3289 7.07731 19.8403 5.70724 18.9248C4.33716 18.0094 3.26931 16.7082 2.63873 15.1858C2.00816 13.6635 1.84317 11.9883 2.16463 10.3722C2.4861 8.75611 3.27958 7.27161 4.44474 6.10645C5.60989 4.94129 7.09439 4.14781 8.71051 3.82635C10.3266 3.50488 12.0018 3.66987 13.5241 4.30045C15.0465 4.93102 16.3477 5.99887 17.2631 7.36895C18.1786 8.73903 18.6672 10.3498 18.6672 11.9976C18.6697 12.8836 18.5291 13.7642 18.2506 14.6053C18.2156 14.7092 18.2014 14.819 18.2088 14.9285C18.2163 15.0379 18.2452 15.1448 18.2939 15.243C18.3924 15.4415 18.5656 15.5927 18.7755 15.6634C18.9854 15.7341 19.2148 15.7185 19.4132 15.6201C19.6117 15.5216 19.7629 15.3484 19.8336 15.1385C20.4975 13.1322 20.5086 10.9671 19.8652 8.95404C19.2219 6.94102 17.9572 5.18364 16.2527 3.93425C14.5483 2.68486 12.4917 2.00772 10.3784 2.00007C8.26511 1.99241 6.20372 2.65462 4.49026 3.89163C2.77679 5.12863 1.49938 6.87679 0.841448 8.88509C0.183518 10.8934 0.17891 13.0585 0.828287 15.0696C1.47766 17.0807 2.74762 18.8343 4.45581 20.0786C6.164 21.3228 8.22254 21.9938 10.3359 21.9952C11.2605 22.0005 12.181 21.8714 13.0685 21.6119C13.2807 21.5501 13.4595 21.4065 13.5658 21.2127C13.672 21.019 13.6969 20.791 13.6351 20.5788C13.5732 20.3667 13.4296 20.1879 13.2359 20.0816C13.0421 19.9754 12.8141 19.9504 12.602 20.0123Z" fill="#0AA708"/>
<path d="M12.8341 9.49708C13.0551 9.49708 13.267 9.4093 13.4232 9.25306C13.5795 9.09682 13.6673 8.88491 13.6673 8.66395C13.6673 8.44299 13.5795 8.23108 13.4232 8.07483C13.267 7.91859 13.0551 7.83081 12.8341 7.83081H11.1679V6.99768C11.1679 6.77672 11.0801 6.56481 10.9238 6.40857C10.7676 6.25233 10.5557 6.16455 10.3347 6.16455C10.1138 6.16455 9.90185 6.25233 9.74561 6.40857C9.58937 6.56481 9.50159 6.77672 9.50159 6.99768V7.83081H8.66846C8.22654 7.83081 7.80272 8.00637 7.49024 8.31885C7.17775 8.63134 7.0022 9.05516 7.0022 9.49708V11.1633C7.0022 11.6053 7.17775 12.0291 7.49024 12.3416C7.80272 12.6541 8.22654 12.8296 8.66846 12.8296H12.001V14.4959H7.83533C7.61437 14.4959 7.40246 14.5836 7.24622 14.7399C7.08997 14.8961 7.0022 15.108 7.0022 15.329C7.0022 15.55 7.08997 15.7619 7.24622 15.9181C7.40246 16.0744 7.61437 16.1621 7.83533 16.1621H9.50159V16.9953C9.50159 17.2162 9.58937 17.4281 9.74561 17.5844C9.90185 17.7406 10.1138 17.8284 10.3347 17.8284C10.5557 17.8284 10.7676 17.7406 10.9238 17.5844C11.0801 17.4281 11.1679 17.2162 11.1679 16.9953V16.1621H12.001C12.4429 16.1621 12.8667 15.9866 13.1792 15.6741C13.4917 15.3616 13.6673 14.9378 13.6673 14.4959V12.8296C13.6673 12.3877 13.4917 11.9639 13.1792 11.6514C12.8667 11.3389 12.4429 11.1633 12.001 11.1633H8.66846V9.49708H12.8341Z" fill="#0AA708"/>
</svg>
