<svg width="236" height="236" viewBox="0 0 236 236" fill="none" xmlns="http://www.w3.org/2000/svg">
<path d="M236 180.492H0V180.61H236V180.492Z" fill="#EBEBEB"/>
<path d="M34.7708 184.987H24.7606V185.105H34.7708V184.987Z" fill="#EBEBEB"/>
<path d="M120.884 183.707H80.7781V183.825H120.884V183.707Z" fill="#EBEBEB"/>
<path d="M49.9258 189.37H31.9388V189.488H49.9258V189.37Z" fill="#EBEBEB"/>
<path d="M212.353 188.577H191.966V188.695H212.353V188.577Z" fill="#EBEBEB"/>
<path d="M190.426 188.577H184.774V188.695H190.426V188.577Z" fill="#EBEBEB"/>
<path d="M175.06 186.584H164.204V186.702H175.06V186.584Z" fill="#EBEBEB"/>
<path d="M158.749 186.584H135.884V186.702H158.749V186.584Z" fill="#EBEBEB"/>
<path d="M111.871 159.442H20.7279C19.2425 159.442 18.0337 158.233 18.0337 156.748V28.6317C18.0337 27.1463 19.2425 25.9375 20.7279 25.9375H111.871C113.356 25.9375 114.564 27.1463 114.564 28.6317V156.748C114.564 158.233 113.356 159.442 111.871 159.442ZM20.7279 26.056C19.3071 26.056 18.1517 27.2114 18.1517 28.6321V156.748C18.1517 158.169 19.3071 159.324 20.7279 159.324H111.871C113.291 159.324 114.446 158.169 114.446 156.748V28.6317C114.446 27.2114 113.291 26.0555 111.871 26.0555L20.7279 26.056Z" fill="#EBEBEB"/>
<path d="M213.962 159.442H122.82C121.335 159.442 120.126 158.233 120.126 156.748V28.6317C120.126 27.1463 121.335 25.9375 122.82 25.9375H213.962C215.448 25.9375 216.656 27.1463 216.656 28.6317V156.748C216.657 158.233 215.448 159.442 213.962 159.442ZM122.82 26.056C121.4 26.056 120.244 27.2114 120.244 28.6321V156.748C120.244 158.169 121.4 159.324 122.82 159.324H213.962C215.383 159.324 216.538 158.169 216.538 156.748V28.6317C216.538 27.2114 215.383 26.0555 213.962 26.0555L122.82 26.056Z" fill="#EBEBEB"/>
<path d="M35.4139 180.492H42.6818L42.6818 124.551H35.4139L35.4139 180.492Z" fill="#F0F0F0"/>
<path d="M106.301 124.552H42.6815V180.493H106.301V124.552Z" fill="#F5F5F5"/>
<path d="M106.882 145.662H51.0247V175.581H106.882V145.662Z" fill="#FAFAFA"/>
<path d="M106.882 132.637H51.0247V142.487H106.882V132.637Z" fill="#FAFAFA"/>
<path opacity="0.7" d="M50.5257 175.582H51.0242L51.0242 145.662H50.5257L50.5257 175.582Z" fill="#E6E6E6"/>
<path opacity="0.7" d="M50.5257 142.487H51.0242V132.637H50.5257V142.487Z" fill="#E6E6E6"/>
<path opacity="0.7" d="M35.4139 128.176H106.462V126.911L35.4139 126.911V128.176Z" fill="#E6E6E6"/>
<path d="M34.5648 127.445H42.6818V123.786H34.5648V127.445Z" fill="#F0F0F0"/>
<path d="M107.15 123.786H42.6815V127.445H107.15V123.786Z" fill="#F5F5F5"/>
<path d="M61.7608 113.046C61.3402 112.496 61.1429 111.784 61.0749 111.08C61.0155 110.373 61.0759 109.643 61.259 108.955C61.6192 107.573 62.3158 106.298 63.1966 105.226C63.6285 104.679 64.1198 104.192 64.6093 103.708C64.8708 103.486 65.1285 103.26 65.3947 103.045C65.6595 102.828 65.9177 102.604 66.2061 102.422C66.7762 102.049 67.3322 101.659 67.9359 101.348C68.5476 101.048 69.1532 100.747 69.7923 100.51C69.3467 101.038 68.8677 101.501 68.3952 101.967C67.9204 102.428 67.4771 102.916 67.0047 103.363C66.5388 103.818 66.1192 104.308 65.6628 104.76C65.4442 104.994 65.2451 105.242 65.0355 105.481C64.8292 105.722 64.5984 105.946 64.4219 106.206C63.6181 107.182 62.9417 108.227 62.4249 109.347C62.1591 109.907 61.976 110.496 61.841 111.111C61.7022 111.73 61.6668 112.371 61.7608 113.046Z" fill="#E6E6E6"/>
<path d="M50.7292 111.068C50.9355 110.471 51.0445 109.885 51.0374 109.316C51.0563 109.035 50.9973 108.757 50.9746 108.49C50.8986 108.225 50.8632 107.962 50.7551 107.716C50.3738 106.72 49.6889 105.865 48.8723 105.088C48.6732 104.891 48.4372 104.721 48.2229 104.533C48.0057 104.346 47.799 104.149 47.5517 103.989C47.0684 103.661 46.6299 103.268 46.1159 102.96C45.8666 102.797 45.6188 102.628 45.3715 102.455C45.1265 102.279 44.8787 102.102 44.6173 101.946C44.1075 101.609 43.5916 101.276 43.0941 100.871C43.7195 100.95 44.3265 101.1 44.9392 101.246C45.2469 101.316 45.5429 101.418 45.835 101.533C46.1291 101.644 46.4222 101.76 46.7139 101.881L47.1514 102.064C47.294 102.132 47.4304 102.215 47.5706 102.29C47.8509 102.442 48.1247 102.607 48.4018 102.767C48.6845 102.916 48.9332 103.13 49.1933 103.324C49.4449 103.531 49.7097 103.718 49.948 103.946C50.8977 104.844 51.7114 106.038 51.9484 107.42C51.9956 107.586 51.9904 107.764 51.9975 107.937C52.0003 108.111 52.014 108.282 52.0003 108.454C51.9503 108.797 51.9153 109.135 51.7907 109.452C51.5717 110.085 51.2238 110.664 50.7292 111.068Z" fill="#E6E6E6"/>
<path d="M51.2342 111.068C51.4943 109.746 51.515 108.474 51.3234 107.265C51.1384 106.056 50.7155 104.928 50.1293 103.874L49.6596 103.095C49.4854 102.844 49.2886 102.607 49.1093 102.357L48.8374 101.982L48.5226 101.636C48.3125 101.405 48.1067 101.167 47.9014 100.926C47.4573 100.476 46.9928 100.034 46.5402 99.5617C46.0554 99.1288 45.5617 98.6956 45.093 98.1929C45.7359 98.3921 46.3547 98.6606 46.9815 98.9292C47.571 99.2558 48.1591 99.6075 48.7203 100.001C48.9861 100.218 49.2513 100.44 49.5119 100.667L49.9032 101.009L50.251 101.401C50.4804 101.665 50.7117 101.929 50.9293 102.205L51.4966 103.104C52.1891 104.342 52.5893 105.775 52.5511 107.194C52.5176 108.606 52.0942 110.008 51.2342 111.068Z" fill="#E6E6E6"/>
<path d="M61.1585 111.765C60.1852 110.601 59.439 109.287 58.7829 107.936C58.1395 106.577 57.6194 105.157 57.2305 103.696C56.8571 102.23 56.6273 100.72 56.5767 99.1998C56.5678 97.6776 56.7391 96.137 57.2626 94.7148C57.3928 96.2271 57.559 97.6549 57.8054 99.0794C58.0772 100.5 58.3958 101.9 58.7498 103.301C59.1204 104.698 59.5183 106.092 59.9313 107.494C60.34 108.9 60.7691 110.305 61.1585 111.765Z" fill="#E6E6E6"/>
<path d="M60.6681 111.531C59.5169 110.464 58.5597 109.232 57.6771 107.954C56.8067 106.668 56.0336 105.313 55.3784 103.897C54.7337 102.477 54.1975 100.999 53.835 99.471C53.5008 97.9379 53.3149 96.3515 53.497 94.793C53.9714 96.2892 54.4623 97.7033 55.0136 99.1042C55.5757 100.5 56.1846 101.87 56.8044 103.241C57.4349 104.608 58.0896 105.968 58.7433 107.341C59.3942 108.716 60.0555 110.091 60.6681 111.531Z" fill="#E6E6E6"/>
<path d="M62.5882 113.328C61.2279 112.544 60.0196 111.557 58.874 110.51C57.7384 109.45 56.6821 108.302 55.7272 107.068C54.7813 105.828 53.9284 104.507 53.2341 103.099C52.5662 101.679 52.0305 100.174 51.8601 98.6143C52.6568 99.9665 53.4512 101.235 54.3013 102.478C55.1613 103.712 56.0604 104.912 56.9704 106.11C57.8904 107.302 58.8325 108.482 59.776 109.673C60.7177 110.868 61.6692 112.062 62.5882 113.328Z" fill="#E6E6E6"/>
<path d="M59.7005 111.272C58.3888 110.649 57.2239 109.789 56.1317 108.855C55.048 107.909 54.0587 106.851 53.1761 105.705C52.2915 104.56 51.5505 103.298 50.9529 101.975C50.3733 100.643 49.9849 99.2149 49.8966 97.7729C50.6192 99.0341 51.2777 100.238 52.0409 101.391C52.806 102.538 53.5848 103.662 54.4245 104.752C55.2628 105.843 56.1256 106.92 57.012 107.994C57.8956 109.074 58.8009 110.141 59.7005 111.272Z" fill="#E6E6E6"/>
<path d="M62.0071 112.586C60.9447 111.905 60.2754 110.652 60.0625 109.345C59.8553 108.022 60.1371 106.659 60.6775 105.492L60.8743 105.047L61.1155 104.632L61.621 103.818C61.8141 103.568 62.0123 103.323 62.2158 103.082C62.4225 102.846 62.6075 102.589 62.843 102.383C63.3047 101.963 63.7493 101.528 64.252 101.167C64.7688 100.821 65.2786 100.475 65.8289 100.188C65.5117 100.735 65.154 101.221 64.8033 101.706C64.4549 102.193 64.1439 102.698 63.7974 103.167C63.4736 103.652 63.1867 104.151 62.8718 104.627L62.4768 105.375L62.2719 105.743L62.1133 106.127C61.6475 107.132 61.3331 108.181 61.2906 109.266C61.2585 110.347 61.4497 111.478 62.0071 112.586Z" fill="#E6E6E6"/>
<path d="M61.1316 111.079C60.1782 110.187 59.5188 109.002 59.1322 107.719C58.7518 106.433 58.7037 104.999 59.0742 103.656C59.2564 102.986 59.5339 102.34 59.903 101.76C60.265 101.175 60.6993 100.643 61.1949 100.191C62.1785 99.2779 63.3344 98.6114 64.5805 98.2466C63.671 99.1717 62.8129 100.057 62.1148 101.015C61.7617 101.49 61.4535 101.982 61.1996 102.493C60.9367 102.999 60.7323 103.527 60.5888 104.07C60.2905 105.153 60.2188 106.302 60.3391 107.478C60.4585 108.655 60.7351 109.85 61.1316 111.079Z" fill="#E6E6E6"/>
<path d="M58.824 109.962L51.4401 102.873L51.737 109.825L58.824 109.962Z" fill="#E6E6E6"/>
<path d="M66.8966 109.209H47.2747L49.8442 123.786H64.3271L66.8966 109.209Z" fill="#F5F5F5"/>
<path d="M54.6383 109.209H47.2747L49.8442 123.786H53.7118L54.6383 109.209Z" fill="#EBEBEB"/>
<path d="M87.2516 36.2622H47.6442V86.0492H87.2516V36.2622Z" fill="#F0F0F0"/>
<path d="M95.9949 36.2622H49.1616V86.0492H95.9949V36.2622Z" fill="#F5F5F5"/>
<path d="M53.0856 40.1859V82.126H92.0718V40.1859H53.0856Z" fill="white"/>
<path d="M205.527 180.492H145.276L139.929 80.8755H200.18L205.527 180.492Z" fill="#EBEBEB"/>
<path d="M207.368 180.492H147.117L141.77 80.8755H202.021L207.368 180.492Z" fill="#F5F5F5"/>
<path d="M177.149 170.216H171.769L171.989 91.1514H177.369L177.149 170.216Z" fill="white"/>
<path d="M191.381 170.216H186.002L186.221 91.1514H191.601L191.381 170.216Z" fill="white"/>
<path d="M162.916 170.216H157.537L157.757 91.1514H163.136L162.916 170.216Z" fill="white"/>
<path d="M118 201.809C168.543 201.809 209.516 199.416 209.516 196.465C209.516 193.513 168.543 191.12 118 191.12C67.4573 191.12 26.4844 193.513 26.4844 196.465C26.4844 199.416 67.4573 201.809 118 201.809Z" fill="#F5F5F5"/>
<path d="M182.547 138.8L181.938 149.914L182.409 149.939L183.018 138.826L182.547 138.8Z" fill="#407BFF"/>
<path d="M183.064 129.376L182.75 135.101L183.222 135.127L183.535 129.402L183.064 129.376Z" fill="#407BFF"/>
<path d="M173.13 171.109H117.801C114.244 171.109 111.494 168.198 111.689 164.642L118.062 48.4747C118.257 44.9182 121.327 42.0078 124.884 42.0078H180.212C183.769 42.0078 186.52 44.9182 186.325 48.4747L179.952 164.642C179.757 168.198 176.687 171.109 173.13 171.109Z" fill="#407BFF"/>
<path opacity="0.8" d="M169.785 171.109H117.801C114.244 171.109 111.494 168.198 111.689 164.642L118.062 48.4747C118.257 44.9182 121.327 42.0078 124.884 42.0078H176.868C180.425 42.0078 183.175 44.9182 182.98 48.4747L176.607 164.642C176.412 168.198 173.342 171.109 169.785 171.109Z" fill="white"/>
<path d="M144.022 63.067H129.094C127.592 63.067 126.43 61.8384 126.513 60.3365C126.596 58.8346 127.892 57.606 129.394 57.606H144.321C145.823 57.606 146.985 58.835 146.902 60.3365C146.82 61.8379 145.524 63.067 144.022 63.067Z" fill="white"/>
<path d="M146.902 60.3358C146.753 63.0503 144.432 65.2512 141.717 65.2512C139.003 65.2512 136.922 63.0508 137.072 60.3358C137.22 57.6213 139.542 55.4204 142.257 55.4204C144.971 55.4209 147.051 57.6213 146.902 60.3358Z" fill="#407BFF"/>
<path d="M143.063 80.5353H128.136C126.634 80.5353 125.472 79.3066 125.555 77.8047C125.637 76.3028 126.934 75.0742 128.435 75.0742H143.363C144.865 75.0742 146.027 76.3028 145.944 77.8047C145.861 79.3066 144.565 80.5353 143.063 80.5353Z" fill="white"/>
<path d="M137.761 81.2356C139.76 79.2901 139.889 76.1785 138.047 74.2855C136.205 72.3926 133.091 72.4352 131.091 74.3807C129.092 76.3262 128.964 79.4379 130.806 81.3308C132.647 83.2237 135.761 83.1811 137.761 81.2356Z" fill="#407BFF"/>
<path opacity="0.3" d="M137.761 81.2356C139.76 79.2901 139.889 76.1785 138.047 74.2855C136.205 72.3926 133.091 72.4352 131.091 74.3807C129.092 76.3262 128.964 79.4379 130.806 81.3308C132.647 83.2237 135.761 83.1811 137.761 81.2356Z" fill="#FAFAFA"/>
<path d="M126.219 115.473H141.146C142.648 115.473 143.944 114.244 144.027 112.742C144.109 111.24 142.948 110.012 141.446 110.012H126.519C125.017 110.012 123.721 111.24 123.638 112.742C123.555 114.244 124.717 115.473 126.219 115.473Z" fill="white"/>
<path d="M131.891 116.176C133.891 114.231 134.019 111.119 132.177 109.225C130.336 107.332 127.221 107.375 125.221 109.32C123.222 111.266 123.093 114.378 124.935 116.271C126.777 118.164 129.891 118.122 131.891 116.176Z" fill="#407BFF"/>
<path opacity="0.7" d="M131.891 116.176C133.891 114.231 134.019 111.119 132.177 109.225C130.336 107.332 127.221 107.375 125.221 109.32C123.222 111.266 123.093 114.378 124.935 116.271C126.777 118.164 129.891 118.122 131.891 116.176Z" fill="#FAFAFA"/>
<path d="M140.188 132.942H125.26C123.758 132.942 122.597 131.713 122.679 130.211C122.762 128.709 124.058 127.48 125.56 127.48H140.487C141.989 127.48 143.15 128.709 143.068 130.211C142.986 131.713 141.69 132.942 140.188 132.942Z" fill="white"/>
<path d="M143.069 130.211C142.92 132.925 140.598 135.126 137.884 135.126C135.169 135.126 133.089 132.926 133.239 130.211C133.388 127.496 135.709 125.295 138.423 125.295C141.138 125.295 143.218 127.496 143.069 130.211Z" fill="#407BFF"/>
<path d="M127.177 98.004H142.104C143.606 98.004 144.902 96.7754 144.985 95.2735C145.067 93.7716 143.906 92.543 142.404 92.543H127.476C125.974 92.543 124.678 93.7716 124.596 95.2735C124.514 96.7754 125.675 98.004 127.177 98.004Z" fill="white"/>
<path d="M124.596 95.2733C124.447 97.9878 126.527 100.189 129.242 100.189C131.956 100.189 134.277 97.9883 134.427 95.2733C134.575 92.5588 132.496 90.3579 129.781 90.3579C127.067 90.3579 124.745 92.5588 124.596 95.2733Z" fill="#407BFF"/>
<path opacity="0.7" d="M124.596 95.2733C124.447 97.9878 126.527 100.189 129.242 100.189C131.956 100.189 134.277 97.9883 134.427 95.2733C134.575 92.5588 132.496 90.3579 129.781 90.3579C127.067 90.3579 124.745 92.5588 124.596 95.2733Z" fill="#FAFAFA"/>
<path d="M176.723 59.5169H154.596C153.995 59.5169 153.531 59.0256 153.564 58.4247C153.597 57.8239 154.115 57.3325 154.716 57.3325H176.843C177.444 57.3325 177.908 57.8239 177.875 58.4247C177.842 59.0251 177.324 59.5169 176.723 59.5169Z" fill="white"/>
<path d="M169.351 63.3397H154.386C153.786 63.3397 153.321 62.8483 153.354 62.2475C153.387 61.6466 153.905 61.1553 154.506 61.1553H169.471C170.072 61.1553 170.536 61.6466 170.503 62.2475C170.47 62.8483 169.952 63.3397 169.351 63.3397Z" fill="white"/>
<path d="M170.094 129.391H150.763C150.162 129.391 149.698 128.9 149.731 128.299C149.764 127.698 150.282 127.207 150.883 127.207H170.214C170.814 127.207 171.279 127.698 171.246 128.299C171.213 128.9 170.694 129.391 170.094 129.391Z" fill="white"/>
<path d="M160.105 133.215H150.553C149.952 133.215 149.488 132.723 149.521 132.122C149.554 131.522 150.072 131.03 150.673 131.03H160.225C160.826 131.03 161.29 131.522 161.257 132.122C161.224 132.723 160.706 133.215 160.105 133.215Z" fill="white"/>
<path d="M175.675 78.624H153.548C152.947 78.624 152.429 79.1154 152.396 79.7162C152.363 80.3171 152.827 80.8084 153.428 80.8084H175.555C176.156 80.8084 176.674 80.3171 176.707 79.7162C176.74 79.1154 176.275 78.624 175.675 78.624Z" fill="white"/>
<path d="M168.722 74.8008H153.758C153.157 74.8008 152.639 75.2921 152.606 75.893C152.573 76.4938 153.037 76.9852 153.638 76.9852H168.603C169.203 76.9852 169.722 76.4938 169.755 75.893C169.788 75.2926 169.323 74.8008 168.722 74.8008Z" fill="white"/>
<path d="M164.028 94.454H152.68C152.079 94.454 151.614 93.9626 151.647 93.3617C151.68 92.7609 152.199 92.2695 152.8 92.2695H164.148C164.749 92.2695 165.213 92.7609 165.18 93.3617C165.147 93.9626 164.628 94.454 164.028 94.454Z" fill="white"/>
<path d="M174.806 94.454H168.122C167.521 94.454 167.056 93.9626 167.089 93.3617C167.122 92.7609 167.641 92.2695 168.241 92.2695H174.926C175.527 92.2695 175.991 92.7609 175.958 93.3617C175.925 93.9626 175.407 94.454 174.806 94.454Z" fill="white"/>
<path d="M167.434 98.2772H152.47C151.869 98.2772 151.404 97.7858 151.437 97.185C151.47 96.5841 151.989 96.0928 152.589 96.0928H167.554C168.155 96.0928 168.62 96.5841 168.586 97.185C168.553 97.7854 168.035 98.2772 167.434 98.2772Z" fill="white"/>
<path d="M148.679 148.536H123.202C122.362 148.536 121.712 147.848 121.758 147.008C121.804 146.168 122.529 145.48 123.369 145.48H148.846C149.686 145.48 150.336 146.168 150.29 147.008C150.244 147.848 149.519 148.536 148.679 148.536Z" fill="white"/>
<path d="M171.403 148.536H155.76C154.92 148.536 154.27 147.848 154.316 147.008C154.362 146.168 155.087 145.48 155.928 145.48H171.571C172.411 145.48 173.061 146.168 173.015 147.008C172.969 147.848 172.244 148.536 171.403 148.536Z" fill="white"/>
<path d="M142.306 153.884H122.909C122.069 153.884 121.419 153.196 121.465 152.356C121.511 151.516 122.236 150.828 123.077 150.828H142.474C143.314 150.828 143.964 151.516 143.918 152.356C143.871 153.196 143.146 153.884 142.306 153.884Z" fill="white"/>
<path d="M163.372 159.232H122.616C121.776 159.232 121.126 158.544 121.171 157.704C121.218 156.863 121.943 156.176 122.783 156.176H163.539C164.38 156.176 165.03 156.863 164.984 157.704C164.938 158.544 164.212 159.232 163.372 159.232Z" fill="white"/>
<path d="M158.181 113.561H151.631C151.03 113.561 150.512 114.052 150.479 114.653C150.446 115.254 150.911 115.745 151.511 115.745H158.061C158.662 115.745 159.181 115.254 159.214 114.653C159.247 114.053 158.782 113.561 158.181 113.561Z" fill="white"/>
<path d="M169.869 113.561H162.275C161.675 113.561 161.156 114.052 161.123 114.653C161.09 115.254 161.555 115.745 162.155 115.745H169.75C170.351 115.745 170.869 115.254 170.902 114.653C170.935 114.053 170.47 113.561 169.869 113.561Z" fill="white"/>
<path d="M166.806 109.738H151.841C151.24 109.738 150.722 110.23 150.689 110.83C150.656 111.431 151.12 111.923 151.721 111.923H166.686C167.287 111.923 167.805 111.431 167.838 110.83C167.871 110.23 167.407 109.738 166.806 109.738Z" fill="white"/>
<path d="M84 81.7157C82.4575 82.9981 80.864 84.3877 79.3961 85.7867C78.6598 86.4909 77.94 87.2065 77.2778 87.9371C76.6236 88.6682 75.9817 89.4168 75.5116 90.1513L75.4228 90.2815L75.378 90.3571C75.3445 90.3967 75.3143 90.4836 75.2793 90.5482C75.2118 90.696 75.15 90.8767 75.0877 91.0707C74.9659 91.463 74.8706 91.9142 74.7951 92.3815C74.6502 93.3212 74.5534 94.3318 74.5095 95.3522C74.4104 97.3936 74.4118 99.5195 74.4491 101.602L72.242 101.934C71.6902 99.7871 71.3056 97.6513 71.1073 95.4226C71.0205 94.3091 70.9572 93.1796 71.0285 91.994C71.0639 91.3997 71.1229 90.7922 71.2489 90.1456C71.3127 89.8209 71.3995 89.4876 71.5184 89.1355C71.5869 88.9538 71.6383 88.7853 71.7341 88.5908L71.8687 88.3081C71.913 88.2203 71.9465 88.1675 71.9862 88.0952C72.5847 86.9775 73.2776 86.0458 73.9979 85.1457C74.7134 84.2437 75.4729 83.4163 76.2512 82.6153C77.8168 81.0072 79.432 79.5686 81.2161 78.1729L84 81.7157Z" fill="#B55B52"/>
<path d="M83.1924 76.0561C80.7749 77.4895 77.1178 81.1537 77.1178 81.1537L81.6013 86.5316C81.6013 86.5316 87.9587 82.7202 88.7304 80.6165C90.0265 77.0817 85.476 74.7024 83.1924 76.0561Z" fill="#407BFF"/>
<path d="M74.3608 100.803L74.9059 104.001L71.9385 103.572C71.9385 103.572 71.3305 101.4 72.8655 100.651L74.3608 100.803Z" fill="#B55B52"/>
<path d="M73.8133 105.946L71.1399 105.115L71.9385 103.572L74.906 104.001L73.8133 105.946Z" fill="#B55B52"/>
<path d="M101.158 64.7695C101.162 65.0942 101.34 65.36 101.555 65.3628C101.769 65.3656 101.94 65.1051 101.935 64.7803C101.93 64.4556 101.753 64.1899 101.539 64.187C101.324 64.1837 101.154 64.4448 101.158 64.7695Z" fill="#263238"/>
<path d="M101.444 64.2036L102.23 63.9897C102.23 63.9897 101.834 64.593 101.444 64.2036Z" fill="#263238"/>
<path d="M101.439 65.0889C101.439 65.0889 102.015 66.495 102.638 67.1779C102.21 67.5721 101.471 67.379 101.471 67.379L101.439 65.0889Z" fill="#A02724"/>
<path d="M101.57 62.6091C101.54 62.6147 101.508 62.6128 101.477 62.6024C100.66 62.3358 100.097 62.7483 100.074 62.7658C99.989 62.8295 99.8691 62.813 99.8054 62.7289C99.7417 62.6449 99.7573 62.5255 99.8408 62.4608C99.8705 62.4382 100.58 61.9067 101.596 62.2376C101.697 62.2706 101.752 62.3787 101.719 62.4792C101.696 62.5496 101.637 62.5973 101.57 62.6091Z" fill="#263238"/>
<path d="M91.5421 68.2324C91.7592 70.6717 90.9426 74.6705 89.0995 76.0313C89.0995 76.0313 90.4881 78.5985 94.9358 79.1956C99.8266 79.8521 97.5289 77.0989 97.5289 77.0989C94.9268 76.1077 95.2043 74.1513 95.8656 72.3671L91.5421 68.2324Z" fill="#B55B52"/>
<path d="M100.229 78.9963C102.558 79.6331 105.001 80.241 107.401 80.7805C108.608 81.0439 109.818 81.2803 111.026 81.514C112.235 81.725 113.445 81.9392 114.651 82.0936L115.104 82.1554L115.412 82.1866C115.631 82.1955 115.87 82.1937 116.124 82.1776C116.634 82.1498 117.19 82.0676 117.753 81.9562C118.881 81.7292 120.052 81.4167 121.214 81.0486C123.541 80.3193 125.904 79.4433 128.208 78.5361L129.257 80.5058C127.07 81.9284 124.826 83.1702 122.427 84.2478C121.221 84.7717 119.991 85.2725 118.662 85.652C117.997 85.8441 117.31 86.0136 116.562 86.124C116.187 86.1754 115.795 86.2108 115.38 86.2226C115.172 86.2231 114.937 86.2165 114.741 86.208L114.251 86.1736C111.627 86.0018 109.05 85.6345 106.507 85.1446C103.952 84.6575 101.472 84.0807 98.9388 83.3118L100.229 78.9963Z" fill="#B55B52"/>
<path d="M127.615 79.3438L128.298 77.0239L130.813 77.9703C130.813 77.9703 130.237 81.4536 128.081 80.4917L127.615 79.3438Z" fill="#B55B52"/>
<path d="M129.756 75.4868L132.325 75.7762L130.813 77.9705L128.298 77.0241L129.756 75.4868Z" fill="#B55B52"/>
<path d="M84.3191 192.044L88.3651 192.342L89.5663 183.052L85.5208 182.753L84.3191 192.044Z" fill="#B55B52"/>
<path d="M54.4896 174.037L57.2357 177.084L64.9086 171.781L62.1625 168.733L54.4896 174.037Z" fill="#B55B52"/>
<path d="M59.2696 178.811C59.2209 178.81 59.1723 178.802 59.1242 178.787C58.6333 178.628 58.2977 177.719 58.1415 177.19C58.1306 177.153 58.1429 177.113 58.1726 177.089C58.2028 177.064 58.2444 177.061 58.2784 177.079C58.4266 177.157 59.7264 177.864 59.7699 178.382C59.7798 178.497 59.7321 178.599 59.6325 178.676C59.5131 178.768 59.3913 178.813 59.2696 178.811ZM58.3973 177.364C58.6305 178.061 58.9179 178.518 59.1827 178.604C59.2913 178.639 59.4003 178.613 59.5145 178.524C59.5763 178.476 59.5811 178.431 59.5787 178.398C59.5561 178.125 58.9094 177.662 58.3973 177.364Z" fill="#407BFF"/>
<path d="M59.4239 177.55C58.9718 177.542 58.4257 177.395 58.183 177.245C58.1543 177.227 58.1368 177.195 58.1377 177.161C58.1382 177.127 58.1566 177.096 58.1863 177.079C58.2284 177.056 59.2257 176.502 59.7779 176.693C59.9294 176.745 60.0375 176.845 60.0984 176.991C60.1933 177.219 60.0937 177.35 60.0253 177.408C59.9002 177.515 59.6765 177.554 59.4239 177.55ZM58.4426 177.162C58.8958 177.353 59.6883 177.443 59.9007 177.262C59.9361 177.232 59.97 177.183 59.9209 177.065C59.8818 176.971 59.8143 176.909 59.7156 176.875C59.3843 176.76 58.7839 176.995 58.4426 177.162Z" fill="#407BFF"/>
<path d="M58.4667 176.637L56.1997 172.616C56.1171 172.47 55.9514 172.407 55.8013 172.464L52.4553 173.748C52.1084 173.881 51.9654 174.336 52.1612 174.671C52.975 176.059 53.4356 176.689 54.4325 178.457C55.0456 179.545 55.9906 181.916 56.7165 183.48C57.4264 185.01 58.9826 184.431 58.816 183.716C58.0707 180.513 58.3525 178.735 58.5899 177.355C58.6333 177.107 58.5875 176.851 58.4667 176.637Z" fill="#263238"/>
<path d="M90.1214 192.474C89.6753 192.474 89.1929 192.397 88.8503 192.329C88.8101 192.321 88.7799 192.288 88.7743 192.248C88.7681 192.208 88.7889 192.169 88.8248 192.15C89.0107 192.054 90.6514 191.228 91.1362 191.504C91.2306 191.558 91.2839 191.646 91.2914 191.76C91.3037 191.951 91.2414 192.108 91.1059 192.226C90.895 192.412 90.5235 192.474 90.1214 192.474ZM89.1717 192.193C90.0642 192.341 90.7298 192.302 90.9809 192.082C91.0701 192.004 91.1088 191.903 91.1007 191.773C91.0974 191.723 91.0805 191.693 91.0432 191.672C90.7755 191.521 89.8443 191.874 89.1717 192.193Z" fill="#407BFF"/>
<path d="M88.8696 192.331C88.8498 192.331 88.8295 192.325 88.8135 192.312C88.7856 192.292 88.771 192.259 88.7748 192.225C88.7823 192.152 88.9692 190.498 89.875 190.498C89.9005 190.498 89.9274 190.499 89.9538 190.502C90.2158 190.529 90.2913 190.661 90.3083 190.768C90.3814 191.225 89.4025 192.102 88.9088 192.322C88.8961 192.328 88.8828 192.331 88.8696 192.331ZM89.8778 190.69C89.2944 190.69 89.0641 191.651 88.9923 192.062C89.4964 191.761 90.1624 191.072 90.1185 190.798C90.1148 190.777 90.1044 190.71 89.934 190.693C89.9146 190.691 89.8962 190.69 89.8778 190.69Z" fill="#407BFF"/>
<path d="M88.6176 191.766H84.0699C83.9042 191.766 83.7673 191.881 83.7399 192.043L83.1292 195.641C83.0659 196.014 83.3779 196.367 83.7598 196.361C85.3461 196.333 86.1122 196.24 88.1121 196.24C89.3426 196.24 91.8838 196.368 93.583 196.368C95.2449 196.368 95.4158 194.688 94.712 194.536C91.5572 193.854 90.3328 192.913 89.2873 192.015C89.099 191.853 88.8592 191.766 88.6176 191.766Z" fill="#263238"/>
<path opacity="0.2" d="M89.5653 183.054L88.8984 188.218L84.8987 187.548L85.518 182.756L89.5653 183.054Z" fill="black"/>
<path opacity="0.2" d="M62.1597 168.734L64.9067 171.783L61.7316 173.975L58.8859 170.995L62.1597 168.734Z" fill="black"/>
<path d="M82.2791 100.408C85.4462 100.832 92.1646 101.735 98.6627 102.609C105.012 79.6269 103.138 79.0038 103.138 79.0038C103.138 79.0038 101.46 78.1929 99.3626 77.51C99.2824 77.4835 99.2078 77.4618 99.138 77.4401C98.0807 77.1224 97.8584 77.0781 96.4471 76.7552C94.0286 76.3295 91.7795 75.9981 89.0079 75.7588C88.83 75.7433 88.6515 75.7277 88.4793 75.7168C87.9771 75.6838 87.4815 75.6602 87.0014 75.6413C86.6776 75.6238 86.3548 75.6215 86.048 75.6187C85.6841 75.6191 85.3306 75.6187 84.9983 75.6224C84.8095 75.6238 84.6263 75.6267 84.4503 75.63C83.114 75.6545 82.094 76.8322 82.2479 78.1599C83.6436 90.2478 83.1976 94.223 82.2791 100.408Z" fill="#407BFF"/>
<path opacity="0.2" d="M99.1361 84.2067C99.2475 85.272 101.713 87.2223 102.564 86.696C102.812 85.4197 102.991 84.3544 103.116 83.4661C101.867 83.3759 99.4448 82.0095 99.1361 84.2067Z" fill="black"/>
<path d="M96.4617 78.8415C96.3428 75.0811 105.496 79.2262 107.595 80.1622L105.272 86.4761C105.272 86.4761 102.209 86.3695 100.258 85.2438C98.2251 84.0713 96.5486 81.5787 96.4617 78.8415Z" fill="#407BFF"/>
<path d="M90.1625 63.7256C90.465 67.7177 90.507 69.4117 92.5711 71.4871C95.6764 74.6094 100.558 73.504 101.465 69.5359C102.282 65.9643 101.65 60.0355 97.6824 58.3934C93.7728 56.7754 89.8599 59.7334 90.1625 63.7256Z" fill="#B55B52"/>
<path d="M90.5004 59.5039C86.4888 58.5009 86.3638 61.8856 86.4473 63.6405C86.5308 65.3954 83.5837 66.2658 83.5837 68.4875C83.5837 71.3846 85.7695 73.1145 80.4534 73.9905C75.9529 74.7325 74.5666 80.3545 81.2227 83.6415C88.5883 87.2788 99.7063 82.1618 98.354 77.2945C96.2668 69.7827 100.003 69.8091 99.5831 65.6163C99.2772 62.5658 102.163 62.4143 101.127 59.873C99.7657 56.5379 90.1459 53.6124 90.5004 59.5039Z" fill="#263238"/>
<path d="M85.8559 65.1335C85.3041 62.2302 85.6062 60.3012 86.7531 59.3992C88.23 58.2371 90.5022 59.2458 90.598 59.2897L90.4031 59.7196C90.3819 59.7097 88.2928 58.7856 87.0434 59.7711C86.0475 60.556 85.8035 62.3308 86.3194 65.0452L85.8559 65.1335Z" fill="#263238"/>
<path d="M81.3196 73.1714C79.8493 73.1714 78.3894 72.5979 78.2969 72.5611L78.472 72.1226C78.5041 72.1358 81.6868 73.3838 83.1566 72.1651C83.874 71.5699 84.0789 70.4532 83.7645 68.846L84.228 68.7559C84.5783 70.5462 84.3187 71.8154 83.4577 72.529C82.8748 73.0114 82.0955 73.1714 81.3196 73.1714Z" fill="#263238"/>
<path d="M98.5027 65.3306C98.4371 66.0556 98.6905 66.8519 99.054 67.4438C99.6005 68.3344 100.343 68.1711 100.585 67.414C100.802 66.7329 100.78 65.4486 100.042 64.8001C99.3154 64.161 98.5777 64.5013 98.5027 65.3306Z" fill="#B55B52"/>
<path d="M94.3378 102.027C94.3378 102.027 87.9762 128.916 85.003 144.362C81.8661 160.659 63.291 173.953 63.291 173.953L59.2115 169.757C59.2115 169.757 71.1739 159.289 74.2457 144.073C80.4818 113.185 76.2602 106.963 82.2791 100.409L94.3378 102.027Z" fill="#263238"/>
<path d="M63.6384 174.559L58.5455 169.319L59.979 167.781L65.8922 172.989L63.6384 174.559Z" fill="#407BFF"/>
<path opacity="0.2" d="M90.9568 107.872C86.0102 112.166 86.5455 127.405 87.0628 134.272C89.1391 124.509 91.6336 113.636 93.0959 107.343C92.5748 106.953 91.8663 107.082 90.9568 107.872Z" fill="black"/>
<path d="M98.4191 102.622C98.4191 102.622 101.281 134.543 99.7199 146.72C98.0958 159.385 89.8311 186.941 89.8311 186.941L83.9957 186.188C83.9957 186.188 88.736 158.882 89.579 146.342C90.4975 132.672 86.4213 101.012 86.4213 101.012L98.4191 102.622Z" fill="#263238"/>
<path d="M91.0725 187.274L82.7549 186.2L82.8833 183.744L91.906 184.618L91.0725 187.274Z" fill="#407BFF"/>
<path d="M82.136 99.4213L81.2425 100.778C81.1731 100.883 81.2958 101.016 81.4851 101.042L98.6678 103.348C98.8155 103.368 98.9453 103.312 98.9647 103.221L99.2672 101.786C99.288 101.686 99.1691 101.584 99.0076 101.562L82.4159 99.3349C82.2937 99.3189 82.1804 99.3538 82.136 99.4213Z" fill="#407BFF"/>
<path opacity="0.3" d="M82.136 99.4213L81.2425 100.778C81.1731 100.883 81.2958 101.016 81.4851 101.042L98.6678 103.348C98.8155 103.368 98.9453 103.312 98.9647 103.221L99.2672 101.786C99.288 101.686 99.1691 101.584 99.0076 101.562L82.4159 99.3349C82.2937 99.3189 82.1804 99.3538 82.136 99.4213Z" fill="black"/>
<path d="M84.1689 101.562L83.7248 101.503C83.6365 101.491 83.5737 101.437 83.5855 101.382L83.9948 99.5187C84.0066 99.4639 84.0887 99.4295 84.1774 99.4413L84.6216 99.5008C84.7103 99.5126 84.7726 99.5668 84.7608 99.6216L84.3516 101.485C84.3393 101.539 84.2572 101.574 84.1689 101.562Z" fill="#263238"/>
<path d="M95.3912 103.094L94.9471 103.035C94.8583 103.023 94.796 102.969 94.8078 102.914L95.2171 101.051C95.2289 100.996 95.3115 100.961 95.3997 100.973L95.8439 101.033C95.9326 101.044 95.9949 101.099 95.9831 101.153L95.5739 103.017C95.5621 103.071 95.48 103.106 95.3912 103.094Z" fill="#263238"/>
</svg>
